<svg xmlns="http://www.w3.org/2000/svg" viewBox="0 0 869.37 245.68"><defs><style>.cls-1{fill:#fff;}</style></defs><title>资源 1</title><g id="图层_2" data-name="图层 2"><g id="图层_1-2" data-name="图层 1"><path class="cls-1" d="M802.88,87.21c-7.34,2.84-14.35,5.71-21.5,8.19A8.06,8.06,0,0,1,775.6,95c-1.63-.86-2.77-2.89-3.67-4.65-.15-.28,1.94-2.15,3.24-2.67,7.38-2.95,14.94-5.5,22.26-8.62,8-3.39,6.32-2.64,6.69-10.79.12-2.58-.67-5.21-.91-6.86-4.16-1.65-8.11-2.68-11.46-4.7-3.11-1.87-2.79-5.68.48-6.47,9.81-2.37,10.39-9.65,10.27-17.6-.12-7.75.07-15.52-.37-23.25-.17-3-1.67-5.95-2.57-8.91,11.1-3.78,23.26,13.93,22.45,32.32,6.67-2.35,12.72.06,18.3,3.13,4.42,2.43,5.2,7,3.9,11.76-1.25,4.57-2.58,9.11-4.34,15.28,4.44-1.15,7.67-1.78,10.76-2.83,6-2.06,11.37-.72,16.44,2.68,3,2,3,4.45.35,6.46A19.09,19.09,0,0,1,860.05,73c-6,1.17-12.18,1.32-18.11,2.65-2,.45-4.75,3-5,4.94a36.2,36.2,0,0,0,.59,12.7c1.33,6-1,11-6.92,13a80.66,80.66,0,0,0-11.33,4.26c-1.23.62-1.56,3-2.85,5.8a58,58,0,0,1,7.15-1c1.62,0,3.57.1,4.78,1,2.84,2.06,7.29,4.5,7.43,7,.17,2.9-3.12,6.51-5.76,8.88-2.08,1.87-5.39,2.45-8.23,3.38-6.53,2.16-6.57,2.16-5.56,9.14.11.79.12,1.6.28,3.7,6.21-3.3,11.73-6.29,17.31-9.15a3.89,3.89,0,0,1,2.75-.13c1.84.66,3.9,1.27,5.27,2.54,1.79,1.65,4.65,5,4.15,5.75a18.36,18.36,0,0,1-7.23,6.9c-6.67,3.14-13.82,5.27-20.56,8.3-1.45.65-2.6,3.33-2.79,5.19-.81,8,.13,16.49-2.08,24.07-3.4,11.69-.19,22.48,1.36,33.65a21,21,0,0,1-5.75,17.82c-1,1.08-2.63,1.56-4,2.34-8.22-26-3.11-52.25-5.08-78.9-3.35,2.24-6.05,4.34-9,6a9.11,9.11,0,0,1-13.73-7.65c-.12-3.08,1-4.41,4.32-5.32a105.54,105.54,0,0,0,17.34-6.84c3.92-1.85,1.75-5.67,1.39-8.53-.11-.88-2.71-1.69-4.29-2.08-5.3-1.33-10.32-11.43-7.56-16.27.77-1.36,3.31-1.87,5.14-2.45,2-.64,5.73-.57,5.92-1.41a15.13,15.13,0,0,0-.54-8.41c-1.06-2.67-3.53-4.75-5.25-7.18-2.85-4-2.52-5.88,2.12-7.28C802,97.41,803.73,94.4,802.88,87.21Zm21.9-34.61c-5.66,5.42-6.73,11.66-7.73,18.18C823.77,69.61,826.42,63.6,824.78,52.6ZM822,78.49c-6.22,1.31-8,4.73-6.79,11.57C821.45,88.53,819.6,83,822,78.49Z"/><path class="cls-1" d="M98.88,53.91c8.12.52,17,10,13.86,23-1.06.35-2.5.45-3.44,1.2-4.56,3.6-9,1.26-13.65.23-5.28-1.18-8.08,1.89-6.87,7.61,4.65-.23,9.07-4.57,14-1.18,2.66,1.82,5.46,3.42,8.37,5.22L103,101.59c2.58,1.29,5.27,3.53,8.2,3.91,7.15.93,13.68,4,21.38,3.8,6.71-.17,13.56,4,20.31,6.36,3.58,1.25,7.09,2.72,11.77,4.52-1.94,5.09-3.34,10.76-6.23,15.52-1.53,2.52-5.5,3.89-8.64,5-7.28,2.67-14.35,1.41-21.85-.48-12-3-19.25-12.24-28.59-18.75a39,39,0,0,0-12.19-6c-4.64-1.19-7.94,2-10.59,5.83C68.85,132.68,61.26,144.15,52.85,155a127.73,127.73,0,0,1-18.57,19.27c-4.13,3.48-9.79,5.29-15,7.29a54.67,54.67,0,0,1-12.5,3.07c-2.16.28-4.52-.93-6.79-1.47a57.23,57.23,0,0,1,4.31-4.36c5.6-4.62,11.94-8.53,16.83-13.79,10-10.77,19.26-22.28,28.93-33.39,2.22-2.55,2.09-4.06-.41-6.58-1.9-1.91-2.94-5.14-3.35-7.93-.35-2.37.58-4.77,4-5.13,11.31-1.19,16.13-9.36,19.3-18.91.26-.8-1.56-3.22-2.67-3.41-13.47-2.37-16.92-7.85-12.36-21a122.24,122.24,0,0,1,8.08-19.31c3.58-6.49,4.6-13.76,7.6-20.37,2.34-5.18,11.23-7.29,15.52-3.57,3.47,3,7.36,5.55,10.58,8.78,2.6,2.62,5.18,5.62,2.32,10-.78,1.19.08,3.43.14,5.2C98.91,50.76,98.88,52.17,98.88,53.91Z"/><path class="cls-1" d="M734.45,144.26c11.71-6.12,21.82-2.55,27.1,10.11,1.12,2.68,1.72,5.2-.95,7.72-3.14,3-7,4.54-10.36,2.42-4.31-2.74-6.67-.43-9.76,1.52-5.7,3.62-11.23,7.84-17.45,10.24-4.21,1.62-9.53,1.12-14.23.56-5.27-.64-8.43-12.11-5-17.48,6.92-10.93,14-21.77,21-32.65.33-.51.57-1.08,1.58-3-4.79,2.66-8.33,4.65-11.89,6.6-11.49,6.28-23.65,3.18-29-7.53-.66-1.3-1-3.57-.3-4.51a4.59,4.59,0,0,1,4.36-1c6,3.13,11.57.3,16.81-1.65,13.62-5.09,13.73-5.32,15.23-20,1.34-13,3-26,1.55-39.28-.86-7.86-.73-14.93-8.42-20.17-2.27-1.55-2.7-8-1.67-11.62,1.34-4.68,6.42-6.76,11.19-6.21,7.37.85,13.05-2.45,18.48-6.34,8-5.73,19.34-2.27,25,4.13.93,1.05.93,4,.15,5.31-2.41,4.24-5.54,7.27-11.16,8-4.15.51-8.13,3.28-11.93,5.49-1.09.63-1.4,2.75-1.85,4.25-.15.52.52,1.24.55,1.87.12,2.8-.9,6.5.51,8.12,1.25,1.45,5.15.69,7.88.76,5.89.17,9.64,4,13.19,7.9.85.93.8,4.06-.07,4.92-2.34,2.3-5.15,4.88-8.16,5.53-3.18.69-6.8-1-10.24-1.11-1.46,0-3,1.28-4.46,2,1.2,1.36,2.13,3.19,3.63,4,4,2.14,8.67,3.28,12.33,5.87,5.13,3.62,4.91,5.12.27,10.49a45,45,0,0,1,6.05,1.9c2.64,1.26,5.47,2.49,7.57,4.43,2.55,2.34,2.43,5.55-.08,8a32.33,32.33,0,0,1-7.48,5.74,52.89,52.89,0,0,0-21.83,20.92c-2,3.46-5.31,6.17-7.7,9.45-.7,1-.32,2.74-.43,4.15l-12.07,16.53c.39.41.79.81,1.18,1.21,3.16-2.2,7.35-3.77,9.19-6.78S734,148,734.45,144.26Z"/><path class="cls-1" d="M271.67,52.1c9,.48,16.72,2.45,23.31,8.08,3,2.6,3.29,5.78,1.61,9-1.45,2.76-2.9,5.67-7.39,4.45-3.25-.88-6.86-.5-10.32-.52-6.62,0-7.38.72-7.94,7.26-.14,1.64-.25,3.28-.39,5.3,5.79-1.63,11.31-2,14.73,3.92a8.3,8.3,0,0,1,1,5.54c-1.83,7.73-.65,10.1,7,11.88,11.22,2.6,22.45,5.18,33.73,7.48,5.38,1.1,11,1.17,16.32,2.41,4.45,1,8.66,3.13,13.63,5-6.63,8.41-14.5,10-23.27,10.08-17.86.21-33.9-5.77-49.77-13.15-5.58-2.59-12.09-3.21-18.23-4.51a4.41,4.41,0,0,0-3.56,1.08C253.4,124.79,244.38,134,236.41,144s-16.88,17.46-29.19,21.16c-4.32,1.29-8,4.5-12.1,6.7a110.37,110.37,0,0,1-11.57,5.65c-.89.35-2.56-1.26-3.87-2,.76-1.11,1.34-3,2.3-3.2,10.59-2.4,17.06-10.45,23.68-17.81,7.84-8.72,14.61-18.41,22-27.59,2.41-3,3.12-5.15-.24-8.39-4.51-4.34-4.88-10-1.46-12.5a18,18,0,0,1,7.85-3.46c8.57-1.17,13.06-7.75,18.49-13.11A8.12,8.12,0,0,0,254,85.93c1.07-3.87-.2-5-4.26-4.43-3.49.46-6.61.64-10.38-1.06-9.85-4.44-9.16-14.71-3.19-22.58,7-9.22,13.37-18.92,19.94-28.47,1.86-2.7,3.13-5.88,5.29-8.3,5.54-6.23,8.3-6.52,15.76-2.59,7,3.71,9.54,14,6.12,21.19-1.28,2.69-1.63,5.55-4.49,7.29C276.31,48.5,274,50.38,271.67,52.1Z"/><path class="cls-1" d="M294.46,198.57c-13,.22-26,.36-38.72,3.84-5.2,1.43-10.85,2.55-15.72-1.27-1.27-1-2.65-2.9-2.55-4.29.09-1.15,2.13-2.78,3.55-3.1,6.93-1.55,14-2.37,20.9-4.12,9.69-2.47,19.34-5.22,28.79-8.46,6.18-2.12,11.82-.8,17.21,1.49s5.85,7.38.92,10.76c-4.18,2.86-9.15,4.57-13.77,6.79Z"/><path class="cls-1" d="M69.12,193.4c-2.48.14-5,.44-7.45.4-4.15-.08-7.09-2.8-6.84-6.3.29-4.09,3.17-4.43,6.59-5,9.9-1.65,19.69-4,29.57-5.79a125.51,125.51,0,0,1,17.56-2.25c4.18-.17,7.08,7.76,4.57,11.54-7.41,11.15-11.73,12.78-24.91,10-6.27-1.3-12.66-2-19-3.06Z"/><path class="cls-1" d="M83.05,172.65c-3.25-.55-6.56-.86-9.73-1.68C68,169.61,64.2,160.62,67,156a5.32,5.32,0,0,1,3.54-2.05c4.57-.62,9.28-.46,13.76-1.42,5.24-1.12,9.44.67,13.45,3.42,5,3.45,4.73,9.74-.81,12.44-4.26,2.08-8.87,3.43-13.32,5.1Z"/><path class="cls-1" d="M254.18,131c4.07-.24,7.52-1.08,10.73-.52A200.39,200.39,0,0,1,288.79,136c2.58.79,5.78,3.84,6.22,6.29.63,3.52-2.75,5.58-6.35,6.35C277.44,151,260.13,147.37,254.18,131Z"/><path class="cls-1" d="M84.82,147.36C76,146.81,71.76,142.93,71,136c-.51-4.56,1.61-6,6-5.13,3.4.63,7-.05,10.58-.1,3.82,0,7.84-.8,11.4.16,2.62.71,6.86,4.39,6.5,5.48-1,3.12-3.48,6.87-6.34,8C94.24,146.42,88.6,146.66,84.82,147.36Z"/><path class="cls-1" d="M274.69,175.34c-3.71-1.75-7.64-3.17-11.08-5.35a40.69,40.69,0,0,1-8.17-7.18c-1.05-1.16-1.93-4.12-1.31-4.8,1.52-1.63,4.18-3.63,6-3.31,7.7,1.37,15.28,3.48,22.88,5.4,3.85,1,6.29,3.75,6.11,7.48-.09,2-2.08,5-3.91,5.68-3.13,1.14-6.81.79-10.25,1.07Z"/><path class="cls-1" d="M454.27,52.1c9,.48,16.72,2.45,23.31,8.08,3.05,2.6,3.29,5.78,1.61,9-1.45,2.76-2.9,5.67-7.39,4.45-3.24-.88-6.86-.5-10.31-.52-6.62,0-7.39.72-7.95,7.26-.14,1.64-.24,3.28-.39,5.3,5.79-1.63,11.31-2,14.73,3.92a8.31,8.31,0,0,1,1,5.54c-1.83,7.73-.66,10.1,7,11.88,11.21,2.6,22.44,5.18,33.72,7.48,5.38,1.1,11,1.17,16.33,2.41,4.45,1,8.65,3.13,13.63,5-6.64,8.41-14.51,10-23.27,10.08-17.86.21-33.9-5.77-49.78-13.15-5.58-2.59-12.09-3.21-18.22-4.51a4.43,4.43,0,0,0-3.57,1.08C436,124.79,427,134,419,144s-16.88,17.46-29.19,21.16c-4.31,1.29-8,4.5-12.1,6.7a110.22,110.22,0,0,1-11.56,5.65c-.9.35-2.56-1.26-3.87-2,.75-1.11,1.33-3,2.29-3.2,10.6-2.4,17.07-10.45,23.68-17.81,7.85-8.72,14.61-18.41,22-27.59,2.4-3,3.11-5.15-.25-8.39-4.5-4.34-4.87-10-1.46-12.5a18,18,0,0,1,7.85-3.46c8.57-1.17,13.07-7.75,18.49-13.11a8.12,8.12,0,0,0,1.76-3.53c1.08-3.87-.19-5-4.26-4.43-3.48.46-6.61.64-10.38-1.06-9.85-4.44-9.16-14.71-3.19-22.58,7-9.22,13.37-18.92,19.94-28.47,1.87-2.7,3.14-5.88,5.29-8.3,5.54-6.23,8.3-6.52,15.77-2.59,7,3.71,9.54,14,6.11,21.19-1.28,2.69-1.62,5.55-4.49,7.29C458.91,48.5,456.64,50.38,454.27,52.1Z"/><path class="cls-1" d="M477.06,198.57c-13,.22-26,.36-38.71,3.84-5.21,1.43-10.86,2.55-15.73-1.27-1.27-1-2.64-2.9-2.54-4.29.08-1.15,2.12-2.78,3.54-3.1,6.93-1.55,14-2.37,20.9-4.12,9.69-2.47,19.34-5.22,28.8-8.46,6.17-2.12,11.81-.8,17.2,1.49s5.85,7.38.92,10.76c-4.18,2.86-9.14,4.57-13.76,6.79Z"/><path class="cls-1" d="M436.79,131c4.06-.24,7.51-1.08,10.72-.52A200,200,0,0,1,471.39,136c2.58.79,5.79,3.84,6.22,6.29.63,3.52-2.75,5.58-6.34,6.35C460,151,442.73,147.37,436.79,131Z"/><path class="cls-1" d="M460,174.1c-4.05-.68-8.22-1-12.12-2.15a41,41,0,0,1-9.8-4.72c-1.32-.83-3-3.45-2.56-4.27,1-2,3.05-4.62,4.88-4.8,7.79-.76,15.66-.77,23.5-1,4-.1,7.06,1.92,7.9,5.56.45,2-.66,5.39-2.23,6.52-2.72,1.94-6.35,2.6-9.59,3.8Z"/><path class="cls-1" d="M607.93,92.42V91.07l.67.67a2.29,2.29,0,0,0,1.24.68q.23,0,5.3,2.48a4.43,4.43,0,0,0,1.81.68q2.13.45,3.83,4.17a18.21,18.21,0,0,1,1.07,5.52c.19,2.48.47,4,.85,4.45s1.46.7,3.26.63a22.54,22.54,0,0,1,5.08.11,14.63,14.63,0,0,1,4.06.9,6.25,6.25,0,0,1,3,2.82c.3.38.26.56-.11.56-.15.08-.21.25-.17.51a3.38,3.38,0,0,0,.34,1l.5,1c.75.75.49,1.13-.79,1.13a.6.6,0,0,0-.67.45c-.08.3-.68.49-1.81.56-6.23.76-9.47,1.21-9.69,1.36a14.57,14.57,0,0,1-2.26.34c-1.57.22-2.51.62-2.81,1.18s-.57,2.46-.79,5.69q-.23,5.64-.29,7.95a7.83,7.83,0,0,1-.33,2.76,4.7,4.7,0,0,0-.29,2.09,7.18,7.18,0,0,1-.33,2.48,7.21,7.21,0,0,0-.23,2.87c.08,1.36-.15,2.18-.68,2.48a2.28,2.28,0,0,1-.67.45c-.08,0-.15-.18-.23-.56s-.26-.34-.79.11c-.07,0-.18.08-.34.23-.67.6-1.16.85-1.46.73a4.52,4.52,0,0,0-1.13-.22,9.29,9.29,0,0,1-1-.12c-.18,0-.32-.28-.39-.73s-.32-.6-.73-.45-.7.08-.85-.23a.85.85,0,0,0-.84-.45c-.42,0-.7-.35-.85-1.07s-.34-1.07-.56-1.07-.47-.45-1-1.35a5.61,5.61,0,0,1-.73-1.69,8.28,8.28,0,0,0-1-1.81c-.38-.82-.6-1.35-.68-1.57s0-.49.34-.79q.45-.69.68-6.43l.22-5.75-1.91.23c-1.36.15-3,.24-5,.28s-3.1.17-3.33.39-.86-.2-2.14-.84a11.61,11.61,0,0,1-3-2.09,17.06,17.06,0,0,0-1.92-1.24,5.41,5.41,0,0,1-1.8-1.69c-1-1.28-1.24-2.1-.79-2.48.15-.07.41.08.79.45s2.06.34,5.07-.11a80.85,80.85,0,0,0,10.37-2.37c2.56-.83,3.91-1.24,4.06-1.24v-5.3c0-1.65,0-3.46-.11-5.41l-.11-10.6h1c.45,0,.73-.07.85-.22A2.32,2.32,0,0,0,607.93,92.42Zm14,18.71c.26,0,.4-.11.4-.33s0-.34-.12-.34-.2.11-.39.34S621.7,111.13,622,111.13Z"/></g></g></svg>