<?xml version="1.0" encoding="utf-8"?>
<!-- Generator: Adobe Illustrator 24.2.3, SVG Export Plug-In . SVG Version: 6.00 Build 0)  -->
<svg version="1.1" id="_0" xmlns="http://www.w3.org/2000/svg" xmlns:xlink="http://www.w3.org/1999/xlink" x="0px" y="0px"
	 viewBox="0 0 650 650" style="enable-background:new 0 0 650 650;" xml:space="preserve">
<style type="text/css">
	.st0{fill:#023652;}
	.st1{fill:#191919;}
	.st2{fill:#7A1C1E;}
	.st3{fill:none;stroke:#555555;stroke-width:1.06;stroke-linecap:round;stroke-linejoin:round;}
	.st4{fill:#191919;stroke:#555555;stroke-width:1.06;stroke-linecap:round;stroke-linejoin:round;}
</style>
<path class="st0" d="M550.2,436c0-0.1,0-0.2,0-0.3C550.1,435.8,550.2,435.9,550.2,436z M525.5,418c0,0,0,0.1,0,0.1
	C525.5,418.1,525.5,418,525.5,418L525.5,418z M497.9,421.5c0.3-2,1.8,0.2,2.8-0.3c1.3-2.7,2.7,2,2.1-2.3c4-0.9,4.1-4.2,7.9-5.5
	c2.3,1.6,0.9,1.7,1.2,3.9c0.6,0.8,1-1.5,1.4-0.7c0.4-0.4,0.3,0.8,0.4,0.4c0.3-0.5-0.1,0.3-0.2,0.3c0.4,0.1,0.4-0.2,0.3,0.1
	c0,0.1,0,0.1,0,0.2c0-0.1,0-0.2,0-0.2c0.2-0.2,1-0.4,0.5,0c0.3,0.8,0.8,0.1,1,1.1c0.7,0.7,1.6-0.4,1.8-0.9c1.6,2.2,4.2-1,6.8,0
	c0.6,0.3,1.3-0.5,1.4,0.3c0.1-0.3,0.9-0.7,0.4,0.3c2,0.5-0.2-0.8,0.5-1.4c-0.7-3.2,2.3-5.4,2.3,0.1c3.5,0.8-3.7,6.7,0.2,8.7
	c2,1.9,1.6-0.8,2.8-0.4c-0.8,0.9,0.9,0-0.1,0.3c1.3-0.6,0.9,0.6-0.4,0.3c-0.9,2.5-1,3.7,0.8,1.4c0.3-0.7,0.9,0,1.2,0.7
	c1,0.2,1.1-1.9,1.8-1.1c-0.9,0.9,1,1,1.6,1c0.5,0.6,0.5,2.1,1.5,2c2.7,0.3,2.3-1.3,5.2,0.1c0.5-0.9,2-0.3,1.8,0.6
	c0.4-0.5,1.2-0.6,0.3,0.2c0.4,0.3,0.5-0.6,0.5,0.2c-0.5,0.6,0.4,0.3,0.7,0c1,0.7,0.7,1,1.7,1.6c0.1,0.3,0.1,1.3,0.4,0.3
	c0.5-1,0.7,0.8-0.1,0.6c-0.4,2.4,1.6,0.8,1.8,2.2c-0.1-2.4,2.9,2,1.6-0.8c-1.3,1.3,0.5-2.5,1.6-2c-1.5,2.4,2.8,2,1.3,2.1
	c-0.4,0.2,0.2,0.2,0.3,0.2c-0.9,0.8,1.1,0,1,1c-2.8,0.2-1.9,4.5-1.9,6c-0.2,1.7,0.6,2.4,0.1,4.3c-1.1,2-6.6,5.4-3.8,7.1
	c-1.2,2.5-3.9,4-3.3,7.5c-1.4,2.2,2.7,2.3,1.4,4.7c1.3,1.3,0,1.5-1.3,1.8c-2.4,1.5-1.8,6.5-5.5,6.3c-4.2-2.4-0.9,5.6-1.7,7.9
	c-6.1,4.3-4.1,11.6-9.8,2c-5.7,1.2-5.3,8.5-8.8,7c-1,2.5-9.2-2.4-3,4.5c-2.1,4-3.8,4.5,0.8,8.3c4-2.4,7.3-4,5.6,2.3
	c0.7,3.8,1.9,7.4,3.6,10.9c0.3,2,6.8,0.8,1.6,3.7c-4,3.6-3.2-2.1-6.8-0.8c-4.6,2.8-6.1,3.8-8.2,8.6c-0.3,0.8-0.7-0.2-0.4-0.6
	c-0.8-1.4-0.5,1.4-1.2,0.3c0.1-0.5-1.1-1-0.3-0.3c-2.1,2.3-7.9-1.8-11.1-2.1c-1-2.8-3.4,3.6-4.4,0.8c-3.8-3.8-5.9-0.5-6.2-4.5
	c-2.3,1.2-3.5-2.8-4.6,0.2c-1.6,1.6-2.6,0.9-3.9,2.9c-2.3,0.7-2,3.3-1.6,5.2c3.1,3.4-2.4,2.4,1.8,5.6c0.7,0,0.3,0.8,0.5,1.1
	c8.2,1.2-9.5,6.3-4.9,7.1c0.1,1.7,3.1,3,3.3,0.4c1.1-0.6,1.3,2.4-0.4,2.5c-3.1-1.6-2.5,0-1.3,2.8l-0.5,0.2c-2.5-4.2-6.6,3.2-9.6,2.8
	c0,1.8-2.1-2.8-2.6-1.7c0.1,3.9-5.4,2-5,6.5c-8-0.6-14.1,16.8-18.5,2.7c3.4-5.9-1.9-4.8-0.1-7c-1.1-2.5-1.4,0.3-3.2-1.7
	c-1.6-4.2-7.9,0.5-11.3-2.7c0-0.1,0.7-0.9,0.8-1.1c-2.5-1.8-1.7-4.1-1.8-5.3c-1.3-2.4-5.9-2.9-4.5-5.5c-0.7-4.1-1.3,0.1-3.6-4.5
	c2.4,0.4,1.8-4.7,5.9-3.3c0.6-0.4-2.6-0.2-0.9-0.7c2.1-0.5,0.5-0.2-0.5-1c-0.3-0.9,0.1-5.6-0.3-8.1c-2.7,0.2-10.8-5.6-6.7-8.1
	c-0.4-3.6-4.2-2.2-4.2-3.6c-0.2,0.9-3.1,2.4-0.8,2.5c-1.3,1.2-3,2-4.8,2.4c-2,2.9-3.3-4.5-2.1-4.9c6.6-10.6-10.6,1.4-13.7-4.7
	c3.7-4.5-0.9-5.8,6-7.5c2.8-5.5,1.6,1.8,6.8-6.6c4.8-0.8,6.8-7,12.1-8.3c3.4,4.2,2.4-2.3,7.1,1.3c5.8-0.3-4.2-3.4-1.5-4.6
	c1.3-2.5,2-2.9,2.3-5.3c1.6,1,1-0.2-0.1-0.6c-0.7-1.8,1.5,0.5,1-0.7c-0.7-0.6-0.5-0.9-0.1-1.4c2.9-2.7,10.4-6.5,10.9-1.6
	c2.6,1.4-3.1,0.5,0.8,3.5c3.6-1.9,0.9,2.4,3.5,3.1c0.7-0.3-0.1,0.5,0,0.7c2,0,0.7-4.4,3.4-4.5c0.5-0.7,0-0.3-0.6-2
	c-3.2-0.8-0.8-2.9,0.2-4.3c-0.9-1.2-1-0.7-2-0.1c0.4-0.7,1.2-1.8-0.3-1.7c-1.3-1.9,2.4,0.4,1.9-2c-0.8-2.6,4.2-3-0.1-5.9
	c3.4,1.5,3.5-5.6,7.7-2.7c3.3-5.9-3.2-2.7,2.4-9c6.4,9.1,7.2-9,11.9-11.4c2.5-4-9.4-10.8-5.9-18.2c5.7,0.7,4.9-3.7,6-2l0.5,0.1
	c-0.6,2-1.3,3.4-2.3,2.4c0.5,0.8,1.5,1.2,2.5,0.9c-1.2,1.5,1.1,1.4,2.1,1.5c4.6,1.8,2.3,7.9,8.7,5.1c6.3-0.5,10.9-0.6,15.4,0.4
	C494.3,419.6,495.9,420.3,497.9,421.5L497.9,421.5z"/>
<path class="st1" d="M324.3,448.7c2.5,2.7,2.9-2.3,5-0.4c2.8,0.8,5.1,1.3,4.1,5.1c3.8,0.2-0.1-1.5,3-2.1c4.6-1.9,6.3-1.6,10.8-3.9
	c0.6,0.3,1.1,0.6,1.8,1c2.7-0.1-1.2,3,1.9,3.1c5.2-3.7,10.6,3.4,13.2,0.8c0.7-3.6,1.9-7.8,5-5.7c9-31.8,12.9,0.3,24.6-9.1
	c0.3,4.1,5.6-0.1,2.5,5.1c-0.1,2.3,2.3,0.7,1.9,2.5c7.9,1.9,4.9,6.6,12.6,6.9c-2.1,2.7,1.9,5.6-1.3,7.2c-3.5-0.4-5.4,5.1-8.9,3.5
	c-3.7,6.9-2.4-2.1-6.8,2.9c-4.5,5.3-1.1,1.4-5.2,0.7c-1.5,3.5-4.2,2.6-6.8,4c-2.6,4.5-1.3,3.3-5.9,5.5c-0.5,0.3-2.6,1.4-1.6-0.9
	c-0.5-0.7-3.8,1-2.5-0.8c-0.2-7.9-9.5-0.4-16,0.9c-22.4,17.5-16.8-0.3-35.9,15.1c-1.9-0.9-2.7-3.1-1.8-5c0.1-0.3,0.3-0.6,0.6-0.9
	c3.7-2,2-1.4-1-1.4c0.3-0.8,0.2-1.5-0.9-0.9c-3.9,1.8-5.7-6-8.9-7.5c2.4-8.4-7.4-29.2,2.6-27.3c2,0,0.5-5.9,2.7-7.3
	C316.6,435,320.5,447.1,324.3,448.7z"/>
<path class="st2" d="M391.8,390.8c-2.5-2.6-0.5-4.9-3.8-4.7c-4.8-3.2,1.9-2.3,0.3-5.1c0.7-9.8,5-0.5,4-7c-0.8-2.7-4.4-4.7-6.7-6.8
	c5.8-3.6-0.4-3.2,2.4-6.4c-4-1.7-0.3-2-1.5-4.1c-2-6.3,3.5-5.1,4.6-12.2c2-0.8,1,2.1,2,1.6c1.4,1.6,4.3,1,3.6,3.7
	c4.8,2.1-1.3-2.4,6.7,0.4c6-8.9,21.6-11.9,29.1-23.7l0.4,0.3c1.1,2.8-1.8,3,1,4.1c0-1,0.6,0.3,0.4,0.5c-0.4-0.5-1.5-0.1-1,1.2
	c0.7,1.8-0.5,3.4-1.5,2.6c0.8,1.9-0.8,3.9-1.4,5.9c1.3,0.8,2.1,1,1.5,2.5c4.4-1.2,2.3,0.4,4.2,2.9c1-2.2,1-1.1,3.9,0.2
	c5.2-0.7-3.1,3.8,4.4,5c-3.6,6-1,8,3.4,9.3c-0.7,0,0.3,1.5-0.8,0.9c-2.6,0.9,1.5,2.2,2.7,2.3c0.3-1.6,8.5-4.7,8.7-2.2
	c-1.7,3.3,10.6,2-0.2,8.4c-1.6,7,6.7,2.2,7.1,5.6c0.6,0,1.3-0.1,0.4-0.7c0.3,0.1,0.6,0.1,0.9,0c1.6-0.7,0.6-5.4,2.5-5.3
	c6.5-1.8-0.3,10.3,7.2,5.6c1.7-0.4,4.3,2,3.6,3.1c1.1,1-2.1,0.5-0.3,1.4c1.5-0.6,0.9,1.2,0.6,1.9c-1-0.3,0.1,1,0.3,0.4
	c2.1,0.7-1.1,1-0.4,2.1c4.9,5.9-3.4,26.4-9.8,20c-2.3-3-3.3,2.7-4.4,6.3l-0.5-0.1c-1.1-1.7-0.3,2.7-6,2c-2.6,0.4-5.6,1.9-8.1,1.3
	c-4-8.2-3.1-14.8-12.6-11.4c-2-6.4-0.2-11-6.7-14.3c-4.3,11.4-7.9,9.9-6.9,1.7c-1.9,1.4-3.3-1.1-4.9-2.4c-0.7-2.3-4.6,1.8-5.6-1.3
	c-2.5-1.5-3.5,2.6-5.8,1.9c-0.7,4.7,2.6,3.9-1,7.4c1.9,2.5,8.4,7.4-1,5.1c-4.5-1.9-18.6-2.3-12.9-6.8c0.2-1.5-3.5-0.4-2.3-2.3
	C392.1,391.8,393,391.3,391.8,390.8z"/>
<path class="st0" d="M385.4,390.7c3.2-1.3,3,3.5,6.5,0.1c1.1,0.5,0.3,0.9-0.5,1.1c-1.2,1.9,2.5,0.8,2.3,2.3
	c-5.7,4.5,8.4,4.8,12.9,6.8c9.4,2.4,2.9-2.5,1-5.1c3.6-3.5,0.3-2.7,1-7.4c2.3,0.7,3.4-3.4,5.8-1.9c1,3,4.9-1,5.6,1.3
	c1.7,1.3,3,3.8,4.9,2.4c-1,8.2,2.6,9.7,6.9-1.7c6.5,3.3,4.7,7.9,6.7,14.3c9.5-3.4,8.6,3.2,12.6,11.4c2.5,0.5,5.5-0.9,8.1-1.3
	c-3.6,7.4,8.3,14.2,5.9,18.2c-4.6,2.4-5.5,20.4-11.9,11.4c-5.6,6.3,1,3.1-2.4,9c-4.2-3-4.3,4.1-7.7,2.7c4.3,2.9-0.7,3.3,0.1,5.9
	c0.5,2.3-3.2,0-1.9,2c1.5-0.1,0.7,1,0.3,1.7c1-0.6,1.2-1.1,2,0.1c-1,1.4-3.4,3.5-0.2,4.3c0.6,1.6,1.1,1.2,0.6,2
	c-2.7,0.1-1.4,4.5-3.4,4.5c-0.1-0.2,0.7-1,0-0.7c-2.7-0.7,0-4.9-3.5-3.1c-3.8-3,1.8-2.2-0.8-3.5c-0.5-4.9-8-1.1-10.9,1.6
	c-0.4,0.5-0.6,0.8,0.1,1.4c0.5,1.1-1.6-1.2-1,0.7c1.2,0.5,1.7,1.6,0.1,0.6c-0.2,2.3-0.9,2.7-2.3,5.3c-2.7,1.2,7.3,4.4,1.5,4.6
	c-4.8-3.6-3.8,2.9-7.1-1.3c-5.3,1.3-7.4,7.5-12.1,8.3c1.4-5,5-7.6,0.2-11.5c-5.7-0.3-1.2-0.6-4.7-2.8c-12.2-5.4-6.7-1.3-6.6-8.8
	c4.4-5,3.1,4.1,6.8-2.9c3.5,1.6,5.4-3.9,8.9-3.5c3.2-1.6-0.8-4.5,1.3-7.2c-7.8-0.4-4.7-5-12.6-6.9c0.3-1.8-2.1-0.2-1.9-2.5
	c3.1-5.2-2.2-1-2.5-5.1c-11.7,9.4-15.6-22.7-24.6,9.1c-3.1-2.1-4.2,2.1-5,5.7c-2.5,2.5-8-4.5-13.2-0.8c-3.1-0.1,0.8-3.2-1.9-3.1
	c-0.8-0.3-1.2-0.7-1.8-1c-5.8-7.7,4.5-3,1.6-11.1c-1.6,0.2,1.6-1.8,0.5-4.5c1.6-0.4,4.7-1.7,2.4-3.9c-5.2,2.9,2.1-7.5,1.8-10.6
	c5.1-1.3,7.9-5.6,8.1-10.7c2.7-2.9,3.3-8.4,6.1-12.2c1.4-3.2,7.4-1.1,4.4-1.3c1.4,2.4,0.6-2.8,4.8,0.4
	C379.9,392,381.7,392.5,385.4,390.7z"/>
<path class="st2" d="M329,578.8c-12.4,6.3-0.5-10-11.1-9.6v-0.6c-1.5-7.1,1.9-4.3,6.4-7.4c3.9,1.4,6.9-3.4,10.6-1
	c2.2-0.8-0.9-2.8,2.5-3c2.3,1.4,4.4,2,5.5-1.1c10.3,4.8,5.5-9.7,8-6.9c2.2,0.1-0.2,1.6,1.2,1.2c0.4,2.3,2.4-1.1,0.5-1.5
	c1.4-0.5,5.2-5.3,5.2-0.9c3,4.1,2.3-2,4.6,0.5c3.6-4.8,12.5-5.6,18.5-9.4c2.8-4.1-9.4-5.7,3.5-8.7c-1.5-4.7,8.4-5.3,3-10.6
	c7.2-3.3-1.3-9.3,4.7-17c3.1,6,20.4-6,13.7,4.7c-1.1,0.4,0.1,7.8,2.1,4.9c1.8-0.4,3.4-1.2,4.8-2.4c-2.3-0.1,0.6-1.6,0.8-2.5
	c0,1.4,3.8,0,4.2,3.6c-4.1,2.5,4,8.3,6.7,8.1c0.4,2.5,0.1,7.2,0.3,8.1c1,0.9,2.7,0.5,0.5,1c-1.7,0.5,1.5,0.3,0.9,0.7
	c-4.1-1.4-3.4,3.7-5.9,3.3c2.3,4.6,2.9,0.4,3.6,4.5c-1.4,2.7,3.2,3.1,4.5,5.5c0.1,1.2-0.7,3.4,1.8,5.3c-0.1,0.1-0.7,0.9-0.8,1.1
	c3.4,3.2,9.7-1.4,11.3,2.7c1.9,2,2.1-0.9,3.2,1.7c-1.7,2.3,3.5,1.1,0.1,7c4.4,14.1,10.5-3.3,18.5-2.7c-0.4-4.5,5.1-2.6,5-6.5
	c0.4-1,2.5,3.5,2.6,1.7c3.1,0.4,7.1-7,9.6-2.8l0.5-0.2c1.4,3.1,3.5,7.7,2.2,10.9c0.1,2.3,0.6,7.8-1.2,6.8c-6.3-1-1.4,4.5-5.5,7.2
	c-1.4,0.4-2.3,2-3.7,3.1c-0.3,2.8-4.2-2.1-3.3,2.2c-4.5,5.3,4.5,7.3-6.2,15.5c-7.5,11.8-3.2-2.7-17.6,12.6c-3.8,3.8,2,9.5-7,7.3
	c-0.7,4.8-3.9-3.9-7.6,3.9c-1.8,2.2-6-6.1-5,0.4c4.1,11.9-8,0.4-10.3,9.1c-1.2-0.2-2.1-1.6-4.2-1.7c-4-1.4-2.1-2.8-2.4-6.1
	c-3.4-0.9,1.8-2.3,0.5-3.5c-4.9-6.1-11.8-8.7-17.4-8.2c-2.1,1.7-1.6,1.6-4.4,1.5c-0.8,0.9-4.1,2.3-3.8,0.3c-0.2-0.2-1.5,0.2-1.5-1.1
	c-1,0.4-4.1-1.3-5.8-1c-5.1,3.3-1-1-3.2,0.3c-1.4,2.8-6,1.6-8.1,1.1c-1-5.9-3.8-8.1-8.8-2.8c-1-1.7-4.7,0.3-6.4-2.3
	c-1.5-0.1,1-10.3-3.4-6.6c-4.3,0-0.8-2.5-3.1-2.2c-2.3,0.6-0.6-7.1-1.9-8.8c-5.5-0.8-1.4-6.8-2.2-9.9c-4.5-1.4-3.8,7.5-7.2,2.6
	C331.5,578.2,330.6,575.4,329,578.8z"/>
<path class="st0" d="M316.6,248.7c6.3-5.2,2.6-7.9,10.2-9.5c2.9-3.6,10.9-0.1,12-3.5c9.9,3.4,8.4-8.5,10.7-15.6
	c1.2,0.6,2.2,1.5,2.9,2.6c10,12.7,13.3-3,19.8-9.4c2.4-3,3.7,3,6.6,1.1c3.7-1.8,9.4-1.1,4.7,3.2c4.9,5.6,4.1-3.7,9-0.1
	c1.6-2.8,4.6,2.8,5.7-1.4c1.3,0.6,0-3.6-0.9-2.2c-1.2,0.6-1.2,1-1.6-0.3c0.7-0.5-1.4-0.3-0.3-0.9c-0.7-2.3,2.9-1,2.9-3.7
	c0.8,0,2.5,2,3-0.2c2.4-2.2-2-0.8,1.8-3.8c-0.1-4.2-5.8-1.8-1.5-3.3v-0.7c2.5,0,6.1-1.8,9.2-3.6c1.8-14,10.1,7.1,4.7,8.1
	c-0.2,0-0.3,0-0.5,0.1c0.2,0,0.3,0,0.5-0.1c2.2,0,2.6,2.6-0.1,2c4.6,1.8,0,1.6,0.9,3.3c5-0.5,1,7.9,4.4,10
	c12.9,2.8-9.1,1.3-0.9,14.9c3.3-3.1,5.2,0.2,4.9,2.8c0.3,4.2-1.1,3.6,2.3,5.9c-0.8,2.7,2-0.3,2.2-0.6c4.9,0.7-1.3,8.1,5.3,6.4
	c2.8,2.8,4.5-5.6,5.3-1.1c8.4,2.4,17.3-2.8,25.6,0.5c8.2-2.4-0.8-2.7,2.5-9.6c-1.5-10.1,2.2-3.5,6.5-5.4c0.9-2.7-2-9.6,2.5-6.8
	c-0.3-1.9,1.6-0.4,1.1-2.3c-0.3-0.6-1.1-1.7,0-1.6c1,0.5-0.7-1.5,0.5-1.3c0.9,0.1,1.8,0,2.7-0.1c0.5,0.3,0.8-0.9,1.3,0.3
	c-0.9,3.7,4.9,0.9,6.7,1.1c5.2-3.2,8,0.1,5.1,4.1c4.8,0.4,5.4,12,15,10c7.1,4.8,2.6,26.5,5.2,28.6c-1.8,3.3-4.6-6.8-4.4,0.1
	c-3.8,2.3-1.8,1.8-1.3,4.4c0,0.3,0.7,0.4,0.1,0.6c0,0.1,0,0.2,0,0.3c0-0.1-0.1-0.3-0.5-0.2c-0.2-1.4-1.3,4.1-1.5,4.8
	c-0.3-1-6.1,3.1-5.6,3.9c-0.2,2-1.7-1.1-2.5-0.5c0.8-0.9,0.8-1.6-0.5-1.7c2.7-1.2-1.5-1.3-1-2.5c0.5-0.7-0.8-0.7-0.6-1.5
	c0.2-1.5-1.9,0-1.9-1.1c-0.5-0.5-0.8,0.4-0.2,0.4c-1.8,0.7-1.2,2-3.3,1.4c-2.1-1.1-5.1-9-7.1-5.3c-0.5,0.1-0.5-1.5-0.6-0.7
	c-1.4,1-2.3,0.4-1.3-0.7c0.6,0,0.5,1,0.6-0.1c-1.3-1.6,1.8-2.7,0.8-3.3c-3.4,0.3-1.5,2.9-3.3,0.9c0.3,1.5-2,0.6-2.4,1.8
	c-1.5,0.4,0.1-0.7-0.8-0.8c-0.9,1.2-0.3-0.2-1.1,0.4c-0.3-0.2,0.7-1.4-1-1c-0.2-0.5,1.8-3.6-0.9-2c-1.4,5.7-4-2.9-5.4-0.2
	c-4.1,3.4-2.1-2.2-3.4-1c-4.3-0.4,0.5,4.2-4.5,1.7c-2.8-1.3-3,3.3-4.3,0.6c-8.3-3.1-6.5,3.1-1.4,7.8c-0.8,3-4.3,6.3,2.1,5.9
	c8.5-2.3,3.5,4.4,5.2,10.1c0.4,1.8,0.7-1.3,1.3,0.6c-1.3,0.8,0.8,0.2,0.1,1.2c-1.7-0.2,0.6,1.1-0.9,1.7c0.2,0.8,0.9-0.3,0.4,1
	c0.5,0.6,1.6,0.4,0.9,1.5c-1,0.3-3.7,0.4-1.1,1.1c0.5,0.5-6.2,2.3-2.5,3c1.1,1.8-2.8,3.9,0.7,4.7c-3.4,10.2-13.4,4.2-17.4,8.7
	c3.1,10-8,8.3-10.7,14.2l-0.4-0.3c-7.4,11.8-23.1,14.8-29.1,23.7c-7.9-2.8-1.9,1.7-6.7-0.4c0.7-2.6-2.2-2-3.6-3.7
	c-1,0.5,0-2.4-2-1.6c-1.8-3.5-8.5-1.7-8.5-4.3c-1.3-3.3-0.5-0.6-2.7-3.4c-0.5-1.4-1.4-2.7-2.6-3.6c3.4-2-0.5-4.8,4.3-4.3
	c2.2-2.3,2.4-3.4,0.4-5.5c-1.9-2.8,2.2-6.7,0.2-12.7c-0.9-2.1-1-2.1-2.9-3.1c-4.7-2.8,0.5,3.5-7.1-1.9c-2.9,0.8-1.2-1.2-2.3-0.7
	c-1.3,0-2,1.2-3,1c0.1-3.5-3.2-1.1-4.7-2.6c-7.7,0.5-12.9,11.9-19.4,3.1c-1.5-0.9-2.3,1.2-3.1-1c-1.8-1.8,1-3-2.4-3.3
	c-3.3-6.1,10.8-10.7-2.1-14.2c-0.8,3.2-3.5,1.3-2.3,0c2.5,1.1,5.3-14,1.9-8.5c-2,1.8-5.3,4.1-6.9,1.5c-7.2,2.4-10.6-2.9-10.6-9.6
	c2.2-2.9-0.6-5.8-0.9-9C311.2,255.2,317.2,251.9,316.6,248.7z"/>
<path class="st1" d="M326.5,511.5c1.1,3.1-6.1,3-2.9-0.4c-2.1-2.7,2.8-3.9,5-6.6C332,507,327.3,510.2,326.5,511.5z"/>
<path class="st2" d="M320.5,388.1"/>
<path class="st1" d="M272.4,554.5c-12.7-11.3-14.8,10.6-21.3,17.8c-16.9,0.7-17.9,17.5-34.6,7.6c-3.8,2.1-3.7-3.1-2.8-4.4
	c-0.4-4.5-9.4-12.5-4.3-18.2c-3.1-3.6,1.8-9.5-1.9-11.4c-2.8-3.2,1.2-10.4-3.5-10.3c0-2-3.1-2.7-4.7-4.6c0.8-2.7-1.3-3.7-3.5-4.9
	c-2.1,0.8-5.8,1.2-3.8-2c2-1.6-2.3-2.5-1.9-4.3c-2.2-4.1,4-5.3,5-7.3c-5.5-0.6-5.9-6.7-2.2-10.2c-2.9-0.6-4-5.1-4.6-7.4
	c-5.2-4.7-5.5,0.8-6.6-3.9c2.3-2.6-3.3-5.6-4.6-7.9c3.1-9.5-0.2-7.5,8.7-7.8c3.8-3.5-0.8-2.7,1.4-4.5c-0.4-3.3-2.7-5,0.7-8.3
	c4.9-2.4,7.3-2.9,10.3-7.1c6.7-5.3,11.3,0.6,8.1-7.7c0.1-1.5-0.5-1.8-1.4-1.7l0,0c0.1-8.1,5.9-8.5,11.8-9.8c3.2,7.3,2.9,4.9,9.1,2.2
	c0.6-3,2.4-3.1,3-3.9c1.6-1.4,2.2-3.3,4.6-4.2c1.6-3.7,2.9-1.2,6.3-1.2c1.8-0.8,2.1,2.6,3.4,2.2c-1.7,5.6,8.6-1.8,9.5-3.3
	c5.8-2.5-0.8,13.8-0.4,17.2c2.1,1.1,2.8-2.4,3.7-3.5c3,0.5,2.8-0.4,4.3-2.4c1.1-1.6,3.8,4.7,5.4,1.3c0.8-1,1.8,2.8,3.9,2.2
	c3.4-4.1,11.6-2,12.9-8.3c-2.9-1.6,6.6-0.9,7.7-4.1c-0.2-1.8,2.4,0,2.7-1.6c0.6-3.9,3-13.3,8.4-10.3c2.3-0.8,0,3.5,3.3,2.5
	c5.7,0,3.3,21.3,8.8,18.8c-2.2,1.4-0.7,7.4-2.7,7.3c-9.9-1.9-0.2,18.9-2.6,27.3c3.1,1.6,5,9.4,8.9,7.5c1.1-0.6,1.2,0.1,0.9,0.9
	c3,0,4.7-0.6,1,1.4c-1.4,1.5-1.2,3.9,0.3,5.3c0.3,0.2,0.6,0.4,0.9,0.6c2,5.3,4.2,14.5-2.6,18c-6.6-0.3-4.5-4.6-16.1-2.8
	c-4.5,3.3-11.5,6.5-14,8.3c-0.4,2.4,0.1,4.9,1.3,7.1c6.7,13.3-6.2,25-15.3,34L272.4,554.5z M294.4,489.5c1.3-1.8,1.3-1.7-0.8-2.6
	C288,483.9,289.5,491.1,294.4,489.5L294.4,489.5z"/>
<path class="st1" d="M293.6,486.9c2.1,0.9,2.1,0.9,0.8,2.6C289.5,491.1,288,483.9,293.6,486.9z"/>
<path class="st0" d="M326.8,239.2c-7.6,1.6-3.8,4.3-10.2,9.5c-4.5-1.4-5.2-3.1-10.5-1.6c-0.4,1.6-0.8,1.6,0.7,2.7
	c-0.9,0.4-1.9,1.9-2.5,0.6c-0.4-1.1-1.7,1.4-2.3,0c3.7-1.6-0.7-0.9-0.8-3.1c-1.3,0.4,0.5-2-1.3-1c-11.1-7.6-16.1-15.2-28.3-20.2
	c0.8-1.8,2.3-1.6,1.3-2.6c-1.5-2.1,2.4-3.2,1-5.5c2.6-1.6,1.5,1.1,4.5,0.5c4.1-0.4,0.9-3.8-1-5.7c-5.5-0.3-3.5-3.5-2.1-6.9
	c-2.2-6.8,1.7-6.9,5.1-6.9c2.3-5.3-2.7-11.5-1.2-16.4c5.2,4.1,6.1,1.1,11.5-0.7c7.2,8.8,7.9-0.6,16.5,2.9c2.6-5-4.8-3.1-2.1-5.6
	c5.3-4.5-1.8-3.6-1.9-5.3c1.4-4.6,4.2-2.9,7-0.3c3.6-2.6-1-5.1,0.8-6.4c4.5-2.9,1.2-3.4,6.8,1.3c0.4-0.9-0.1-4,1.4-3.3
	c1.9,1.7,0.1-3.3,1.5-2.9c0.7-0.9,1.4-1.3,0.8-2c1.8-1.6,1.2,1.2,5.6,0.1c19.7,9.4,7.5,17.5,28,19.9c1.7-0.9,3.9-3.5,5.6-1.4
	c3.4,3.5,14.7,11.5,16.6,4.3c0.2-0.3,2.8-0.1,3.8,0.7c0.3-0.7,0.2-1.2,0.1-0.5c-0.5-4.2,3.5-2.4,5-5.4c1.6,0.6,3.9,3.1,7.3,1l0,0
	l0.2-0.2c1.4,1.4,0.2,4.2-0.8,6.5c-2.3,0.5-4.7,6.5-1.4,6.9c4.1-2.7,1.9,3.2,3,4.8c2.4-1,5.9,8.3,5.1,3.3c0.6,0.6,1.4,0.8,2.2,0.8
	v0.7c-4.3,1.4,1.4-1,1.5,3.3c-3.8,3.1,0.6,1.6-1.8,3.8c-0.5,2.2-2.2,0.2-3,0.2c0,2.7-3.6,1.4-2.9,3.7c-1.1,0.6,1,0.4,0.3,0.9
	c0.4,1.3,0.4,0.9,1.6,0.3c0.9-1.4,2.2,2.7,0.9,2.2c-1.1,4.2-4.1-1.4-5.7,1.4c-4.9-3.6-4.1,5.7-9,0.1c4.7-4.3-1-5-4.7-3.2
	c-3,1.9-4.3-4.1-6.6-1.1c-6.5,6.4-9.8,22.1-19.8,9.4c-0.8-1.1-1.8-2-2.9-2.6c-2.3,7.1-0.8,19-10.7,15.6
	C337.7,239.1,329.6,235.6,326.8,239.2z"/>
<path class="st1" d="M140.6,404c2-0.9-2.5-2.2-0.8-3.4c3.3-5.8-4.8-8.2,3.7-12.8c3.5-12,1.8-4.1,7.3-11.2c-3.6-5.9,4.9-8.1,9.2-10.5
	c2.1-2.1,8.5-8.4,10.9-6.2c5.2,1.7,1.6-1.2,6.2-1.5c3-1.4,4.8,4.3,7,0.6c0.8,1.4,0.8-1.3,1.7-0.9c0.1,1.5,3.3,1.5,3.8,0.6
	c5.7-4.6-1.1-4.8,0.9-11.1c3.7-3.2-0.3-11.5,3.3-13.8c0-0.9-0.2-1.8-0.5-2.7c-2-3.5,3.2-6.1,0.9-7.2c0.7-6.9-2.9-15.3-1.3-21.7
	c-2.9-7.4-3.6-20.1-4.4-26.1c-7.4-0.7,2.6-6.4,4.3-8.3l0.8,0.1c1.4-1,2.5-2.3,3.2-3.9c9.9-1.2,14.2,15,20.8,20.2
	c2.3-4,2.3-3.2,6.2-4.6c0.5,0.4,1.1,2.2,1.3,0.4c-1.9-6.1,8.2-11,9.4-2.3c7.4,8.5,5.2,1.4,12.6,5.1c2,1.3-1.3,3.8,1.4,3.7
	c-2.5,5,4.8,10.3,3.1,16.5c-0.7,7.3-1.7,12.8,2.2,21.6c-0.8,2.1,1.4,3.6-0.2,5.5c2.2-0.2,6.1,3.5,9.6,3.9c5,1.6,3.5,6.3,4.6,10.6
	c1.3-0.5,1.8-0.4,2.7-1.5c-0.3-0.8,6.4-0.7,4.3,0.9c-0.7,0.5-2,1.1-0.8,1.6c0,1.6-2.5-1.5-2.3,0.3c0.3,2-1.3-0.3-1.5,0.8
	c0.5,4.6,3.2,0.9,2.2,4c-0.8,1.4-3.9,0.9-3.6,3.2c-3.4-0.6,0.4,1.5,1.3,3.3c-0.2,2.7,1.6,0.2,2.3,1.2c-1,1.1,0.5,0.5,0.1,1.3
	c-0.6-0.5-0.4-0.1,0,0.1c1.3-0.6,0.5,0.3,0.9,0.7c0.6-1.5,1.3-1,1.7,0.3c-2.5,2.5,0.8,1.9-1.9,5.2c1.7,0.1,2.5-0.4,1.7,1.5
	c-0.8,2.3,1.4,4.5-1,5.7c0.6,1.7,2.2,4.6,0.9,6.8c0.1,4,3.6,6.1,6.7,8.2c5.7-2.9,12.6-1.7,15-1.7c0.9-1-0.6-3.1,1.7-2.9
	c2.5,5.9,22.2-3.8,22.5,4.5l-0.2-0.2l0,0c0.1,0.1,1.5,1.5,0,1.7c-0.2,0.8,1.4-0.6,2.1,0.7c-19.3,0.9-14.1,17.1-21.5,27.8
	c-5.3-3-7.8,6.4-8.4,10.3c-0.2,1.6-2.9-0.2-2.7,1.6c-1.1,3.3-10.6,2.5-7.7,4.1c-1.3,6.3-9.5,4.2-12.9,8.3c-2,0.6-3-3.2-3.9-2.2
	c-1.6,3.5-4.3-2.8-5.4-1.3c-1.5,2-1.3,2.9-4.3,2.4c-1,1.1-1.6,4.6-3.7,3.5c-0.4-3.5,6.2-19.7,0.4-17.2c-0.9,1.5-11.2,8.8-9.5,3.3
	c-1.4,0.4-1.7-3-3.4-2.2c-3.4,0-4.7-2.5-6.3,1.2c-2.4,0.9-3,2.8-4.6,4.2c-0.6,0.9-2.3,1-3,3.9c-6.3,2.7-6,5.1-9.1-2.2
	c-5.8,1.3-11.7,1.7-11.8,9.8l0,0c-1.1,0.1-2.7,0.8-3.5-0.2c-0.4-3.2-4.1-2.9-6.5-2.6c1.7-5.7-5.2-4-4.9-8.7c0.8-3.1-3.2-5.3-4.5-1.6
	c-1.9,1.4-5.6-1.2-5.8,2c-3.1,3.1-4.6-11.7-11.1-11.1c-2.1-1-2.8-2.3-3.3,1.6c-0.3,2.3-3.8,1.5-3.4,4c-0.3,0.8-0.8-0.9-0.9,0.2
	c-4.9,6.5-4.9-14.7-8.9-11.8c-6.8-0.2-3.1-5.1-4.6-5.8c-2.3-0.3-0.1-4.9-3.6-4.1C141.3,411.4,138.2,406.9,140.6,404z"/>
<path class="st1" d="M329.3,448.3c-2.1-1.9-2.5,3-5,0.4c-3.8-1.6-7.6-13.7-11.1-9.1c-5.5,2.5-3.2-18.8-8.8-18.8
	c-3.2,1-0.9-3.3-3.3-2.5c7.4-10.6,2.2-26.9,21.5-27.8c-0.7-1.3-2.3,0.1-2.1-0.7c1.4-0.2,0.1-1.6,0-1.7l0.2,0.2
	c-0.3-8.2-20,1.4-22.5-4.5c-2.3-0.2-0.8,1.9-1.7,2.9c-2.4,0-9.3-1.2-15,1.7c-3.1-2.1-6.6-4.3-6.7-8.2c1.3-2.2-0.4-5-0.9-6.8
	c2.3-1.2,0.1-3.4,1-5.7c0.8-2,0-1.4-1.7-1.5c2.7-3.3-0.6-2.6,1.9-5.2c-0.4-1.4-1.1-1.8-1.7-0.3c-0.4-0.4,0.4-1.3-0.9-0.7
	c-0.3-0.2-0.6-0.6,0-0.1c0.3-0.8-1.2-0.2-0.1-1.3c-0.7-1.1-2.5,1.5-2.3-1.2c-0.9-1.7-4.7-3.9-1.3-3.3c-0.4-2.3,2.8-1.8,3.6-3.2
	c1-3-1.7,0.6-2.2-4c0.2-1.1,1.7,1.2,1.5-0.8c-0.2-1.7,2.3,1.3,2.3-0.3c-1.2-0.5,0.1-1.1,0.8-1.6c1.2,1,1.1-1.7,3.1-2
	c3.3,1.7,4.2-3.2,6-3.5c0.6-3.6,10.7-1.4,6.5-7.1c2.1-2.2,4,0.6,6.8,0.4c2-0.1-1.4,5.3,4,1c-1.2-1.3,2.6-3.4,0.9-5.9
	c-3.1-0.9-1.1-7.3-3.9-6.7c-1.6,0-0.1-2.1-1.8-1.1c-0.6,0,0.3-0.5,0-0.7c0.2-0.1-1.1-1.1-0.3-0.8c0.5-3.3-0.9-2.3,2.7-2.6
	c1.2-1.3,2.9-3.2-0.5-5.6c-0.5-3.4,8.4,0.3,5.9-8.7c-4.2,0.8-2.1-1-1.8-4.4c1.7-0.4,0.4-3.3,0.1-1.4c-0.7,0.3-0.5-0.6-1.1-0.8
	c1.8-7.3,1-3.9-2.9-5.6c0.8-2.9,4.4-5.3,6-8.3c0.5-2.6,0.8-5.3,1-8c4.7,0.9,7.4-0.9,12-1c0,6.7,3.3,12,10.6,9.6
	c1.5,2.6,4.9,0.4,6.9-1.5c3.4-5.5,0.6,9.6-1.9,8.5c-1.2,1.3,1.5,3.2,2.3,0c12.9,3.5-1.2,8.1,2.1,14.2c3.3,0.2,0.5,1.5,2.4,3.3
	c0.8,2.1,1.6,0,3.1,1c6.5,8.7,11.7-2.6,19.4-3.1c1.5,1.6,4.8-0.8,4.7,2.6c1.1,0.3,1.8-1,3-1c1.1-0.5-0.6,1.5,2.3,0.7
	c7.6,5.4,2.5-0.9,7.1,1.9c1.8,1,1.9,1,2.9,3.1c2,6-2.1,9.9-0.2,12.7c1.9,2.1,1.8,3.2-0.4,5.5c-4.8-0.5-0.9,2.3-4.3,4.3
	c1.3,0.9,2.3,2.2,2.7,3.7c2.2,2.8,1.4,0.1,2.7,3.4c0,2.5,6.7,0.8,8.5,4.3c-1.2,7.1-6.6,6-4.6,12.2c1.2,2.1-2.5,2.4,1.5,4.1
	c-2.8,3.2,3.5,2.8-2.4,6.4c2.3,2.1,6,4.1,6.7,6.8c1,6.4-3.3-2.8-4,7c1.6,2.8-5.1,1.9-0.3,5.1c3.3-0.2,1.3,2,3.8,4.7
	c-3.5,3.4-3.3-1.5-6.5-0.1c-3.6,1.9-5.5,1.3-8.4,2.6c-4.2-3.1-3.4,2-4.8-0.4c3,0.3-3-1.9-4.4,1.3c-2.8,3.8-3.5,9.3-6.1,12.2
	c-0.1,5.1-2.9,9.4-8.1,10.7c0.2,3.1-7,13.5-1.8,10.6c2.3,2.1-0.8,3.4-2.4,3.9c1.1,2.7-2.1,4.7-0.5,4.5c2.8,8.1-7.4,3.5-1.6,11.1
	c-4.5,2.3-6.2,2-10.8,3.9c-3.1,0.7,0.8,2.3-3,2.1C334.3,449.6,332.1,449.1,329.3,448.3z"/>
<path class="st1" d="M334.9,560.1c-3.7-2.4-6.6,2.4-10.6,1c-4.4,3.1-7.8,0.3-6.4,7.4v0.6c-0.9,0-1.8,0.1-2.6,0.3
	c-4.3,0-5.4,2.9-5,6.4c-0.8,1.8-8.1,3.5-4.3,5.1c2.7,2.6,7.8,2.9,2.6,7.4c3.9,9.9-12.4,4-13.3,11.8c-6-3-17.4,16.8-18.3,6.4
	c-1.4,0.4-3.1-2.9-2.4-0.2c-0.3,1.1-0.9-1.1-1.3,0.1c-0.7-0.6-1.7,0.8-0.6,0.7c-0.4,0.7-0.9,0.5-1.3,1.7c0.8-0.8-0.2,0.9-0.5,0.7
	c-0.3-2.2-1.6-4.7-4.2-3.9c1.9-2.8-6.1-4.9-1-7.4c5.7-2.3-6.3-3.5-0.2-3.9c2.2-7.4,9.2-10.6,14.6-13.1c1.6-2.2,5.5-8,7.8-10.8
	c2.1-15.2-8.7,0.3-6.5-11c-1.2,0.7-2.8,2.2-3.9,0.4c-1.5-2-3.2-3.8-5-5.5l0.8-0.1c9.1-8.9,22-20.6,15.3-34c-1.2-2.2-1.6-4.7-1.3-7.1
	c2.5-1.8,9.4-5,14-8.3c11.6-1.9,9.5,2.4,16.1,2.8c6.8-3.4,4.5-12.6,2.6-18c19.1-15.4,13.5,2.4,35.9-15.1c6.6-1.3,15.9-8.8,16-0.9
	c-1.2,1.9,2,0.1,2.5,0.8c-1,2.3,1,1.2,1.6,0.9c4.6-2.2,3.3-1,5.9-5.5c2.6-1.4,5.3-0.5,6.8-4c4,0.7,0.6,4.6,5.2-0.7
	c-0.1,7.5-5.6,3.4,6.6,8.8c3.5,2.3-1,2.5,4.7,2.8c4.8,3.9,1.2,6.5-0.2,11.5c-5.2,8.4-4,1.1-6.8,6.6c-6.9,1.7-2.2,3-6,7.5
	c-6.1,7.7,2.4,13.7-4.7,17c5.3,5.3-4.6,5.9-3,10.6c-12.9,3-0.7,4.7-3.5,8.7c-6,3.8-14.9,4.6-18.5,9.4c-2.3-2.6-1.6,3.6-4.6-0.5
	c0-4.3-3.8,0.5-5.2,0.9c1.9,0.4-0.1,3.8-0.5,1.5c-1.4,0.4,1-1.1-1.2-1.2c-2.6-2.8,2.3,11.8-8,6.9c-1.1,3.1-3.2,2.4-5.5,1.1
	C334,557.3,337,559.3,334.9,560.1z M323.6,511.1c-3.2,3.4,4,3.5,2.9,0.4c0.8-1.3,5.5-4.5,2.1-7C326.4,507.2,321.4,508.4,323.6,511.1
	L323.6,511.1z"/>
<path class="st1" d="M253.7,324.8c-3.9-8.9-2.9-14.4-2.2-21.6c1.7-6.1-5.6-11.5-3.1-16.5c-2.7,0,0.6-2.4-1.4-3.7
	c5.2-3.4,4.3-13,15.2-13.5c-1.1-7-10.8-1.1-10.5-11.9c-2.8-3.9-6.3-0.9-8.2-5.3c0.1-1.1,2.5-2,0.5-3.3c-1.3-1.4,0.9-6.1-0.8-9.5
	c2.1-8.6-8.5,0.1-4.8-9c1-3-1.5-5.1-3.2-4.8c2.2-2.6,1.3-4.6,2.3-8.4c10,3.6,21,7.3,31.6,8c0.5,0.1,2,0.6,2.5,0.8
	c12.3,5,17.3,12.5,28.3,20.2c1.8-1.1,0,1.4,1.3,1c0.1,2.3,4.5,1.5,0.8,3.1c0.6,1.4,2-1,2.3,0c0.6,1.3,1.6-0.3,2.5-0.6
	c-1.5-1-1.1-1.1-0.7-2.7c5.3-1.5,6.1,0.3,10.5,1.6c0.6,3.2-5.4,6.5-0.1,13.9c0.3,3.3,3.1,6.2,0.9,9c-4.5,0.1-7.3,1.8-12,1
	c-0.2,2.7-0.5,5.4-1,8c-1.7,2.9-5.3,5.3-6,8.3c3.9,1.7,4.7-1.6,2.9,5.6c0.6,0.2,0.5,1.1,1.1,0.8c0.3-1.9,1.5,0.9-0.1,1.4
	c-0.3,3.4-2.4,5.2,1.8,4.4c2.6,8.9-6.4,5.3-5.9,8.7c3.4,2.4,1.7,4.2,0.5,5.6c-3.6,0.3-2.2-0.6-2.7,2.6c-0.8-0.3,0.5,0.6,0.3,0.8
	c0.2,0.3-0.6,0.7,0,0.7c1.6-1,0.2,1.1,1.8,1.1c2.8-0.6,0.8,5.8,3.9,6.7c1.7,2.6-2.1,4.6-0.9,5.9c-5.4,4.3-2.1-1.1-4-1
	c-2.8,0.2-4.7-2.6-6.8-0.4c4.2,5.7-5.9,3.6-6.5,7.1c-1.8,0.3-2.7,5.3-6,3.5c-1.9,0.3-1.9,3-3.1,2c2.1-1.6-4.6-1.7-4.3-0.9
	c-0.9,1.1-1.4,1-2.7,1.5c-1.1-4.4,0.4-9-4.6-10.6c-3.4-0.4-7.3-4.1-9.6-3.9C255.1,328.4,252.9,326.9,253.7,324.8z"/>
<path class="st1" d="M290.1,150.9c4.9-3-3.5,7.2-0.9,8.4c0.6,2.1,0.1,1.2-0.8,3c3.4-0.1,1.4,3,5.5,3c1.2,3.8,1.4,5.3-0.2,8.4
	c-7,3.7-1.4,6-3.1,8.2c-5.4,1.8-6.3,4.8-11.5,0.7c-4-2.4-0.8-9.3-0.7-13.4c-7.8-6.3-16.2-8.1-25.9-5.8c0.9-5-1.5-6.8-0.4-10.5
	c-1-1.9,3.2-0.7,0.9-2.5c-0.3-0.9,0.8-0.4,0.9-0.8c0.8-0.4-1.2-3.2-1.7-3.1c-2.5,0.7-6.9-6.5-3.9-6.2c0.4-3.5-2.1-6.8-4.8-8.4
	c-1.7,0,0-2.1-0.6-2.3c-1.2-1.7-1.7,1.8-4.1-3l-0.6-0.1c0.8-0.7,1.6-1.5,2.3-2.3c5.3,3.7-1.4-4.6,7-7.4c0.1-1,1.1,0.6,1.8,0.3
	c0.6,0.1,0.6-1.1,1.5-0.2c2.9-4.7,1,1.2,4.2-2.3c-0.1-6.5,4.9,0.8,8.1,0.3c1.7-6.7-0.6-11-3.5-16c8.2,1.5,13.3-1.7,19.2,3.1
	c1.2-2.3-0.6-10.1,1.5-10.5c0.2,5.8,2.5-0.3,4.1,0.4c2.1,1.5,3.1-0.8,4.8-2.4c3.4,4.5,4.6,0.7,5.7,3c-6.1,5.7,4.8,6-1.1,12.5
	c4.5,2.1,2.6-1.9,4,3.6c-0.9,1.9-1.1,0.4-0.7,2.4c1.5,3.2-3.5,1.3-3.1,4.6c-0.4,5.6-2.4,12.2-1.3,15.4c-3.1-1-1.5,1.4-1,3.3
	s-2,3.6-0.4,4.6c-1.6,2.8-3.8-2.4-4.1-0.8c-3.1,2.4,0.8,6.5-3.1,6.6C284.8,148.2,286.8,151.4,290.1,150.9z"/>
<path class="st0" d="M290.6,182c1.7-2.1-3.9-4.5,3.1-8.2c1.7-3.1,1.4-4.6,0.2-8.4c-4.1,0-2.1-3.1-5.5-3c0.9-1.9,1.5-0.9,0.8-3
	c-2.6-1.3,5.8-11.4,0.9-8.4c-3.2,0.5-5.3-2.7-6-6.3c3.9-0.1-0.1-4.2,3.1-6.6c0.4-1.6,2.5,3.7,4.1,0.8c-1.7-1,0.8-2.8,0.4-4.6
	s-2.1-4.3,1-3.3c-1.1-3.3,0.9-9.8,1.3-15.4c-0.4-3.3,4.7-1.4,3.1-4.6c-0.4-1.9-0.3-0.5,0.7-2.4c-1.4-5.5,0.4-1.5-4-3.6
	c5.9-6.4-5-6.8,1.1-12.5c-1.1-2.3-2.3,1.5-5.7-3c-1.7,1.7-2.8,3.9-4.8,2.4c-1.6-0.7-4,5.4-4.1-0.4c-2.2,0.4-0.4,8.2-1.5,10.5
	c-5.9-4.8-11-1.6-19.2-3.1c-1.8-2.9-3.3-5.9-4.5-9.1c-4.5,0.4-1.3-6.5-1-8c0.5-1.1,2,0.7,1.7-1c-6.6-8.5,5.9-10.9,0.3-12.3
	c-0.4,0.1-1.4-2.8-1.7-1.1c-2-0.2-4.9-2-6.2,0.6c-0.2-0.5-0.1,0.5-0.1,0.6c-0.3-0.7-0.7,1.6-1.4,0.7c-3.7,1.5-0.2-4.6-4-0.6
	c-0.3,2-3.5-0.8-5.7,1c-2.6-1,1.6-2.6,0.3-3.8c-1.6-1.5-1.4-2.1-2.5-3c-2,1.3-2-1.9-3.6-1.1c-2.3-1-0.5-3.1-3.6-3.1
	c-0.9-3.3-5.9-0.4-6.6-2.8c3.1-4.8-8.6-5.5-2.3-12.5c-0.9-0.2,1.4-0.6,0.7-1.7c1.9,0.9,1.4-1.3,1.5-1.3c-2.3-1.4-0.1-2.9-1-7
	c2.3-2,3.7,5.2,5.3,2.1c-0.1,0-0.7-0.2-0.2-0.1s-0.2-0.1-0.2-0.3c0.6,0.5,0.4-0.5,0.5-0.6c0.9-0.9,0.7-1.9,2.8-1.9
	c0.8-0.3-0.7-2.8,0-2.7c1,0.3,1.6-0.7,1.9,0.1c0,0.4,0.1-0.2,0.1-0.2s0,0.4,0,0.4c3.4,2,2.1-1.6,3.4-2.5c2.7,1.9,3.5-3.1,5.5-0.6
	c0-0.6-0.3-1.9,0.7-1.4c-0.5-0.5,0-1.4,0.5-0.4c0.6,0,2.4-1.9,2.6-0.1c0.9,3.4,0.3,1.4,2.7,3.5c3.1,0.7,1.5,1.7,2.9,3.1
	c2.4,0.2,0.2,0.3,0,1.2c1.1,0.6,0.1,0.7,0.5,1.2c1,0-0.7,0.4,0.4,0.3c1.3-0.2,1,2,1.2,1.2c2.5,0.1-0.2,1.6,1.9,1.9
	c2.6-2.2,10.6,7.3,4.3,4.9c-1.3,1.5,1,1.6,1,1.8c1.1-1.4,0.7-0.3,1.8-0.2c22.1,1.1,12.8,6.3,23.3,10.5c0.4,0.8,1.9-0.9,1.4-0.1
	c0.1,0.7,0.3,0.1,0.9,0.2c0.1-0.8,0.6,0.8,0.3-0.3c0.8-2.4,2.7,0.2,3.2-1.4c0.6,1.3,8.8-0.2,5.6,5.4c4.4,0.8,1.3,2.8,1,5.3
	c2,0.1-0.5,3.7,0.8,4.1c0.8,1.5,3.5,4.4,5.3,4.6l0,0.4c0.5,7.5-3-2.2-4.1,4.1c-1.4,4.8-3.2,11.6,4.3,4.9l0,0c1,1.6,3.5,2.5,6.1,2.6
	c1.5-0.3-0.3,0.3,0.3,1.1c0.8,0.1,5.3,2.7,3,2.5c-2.9,1.4,1.2,1.3,1.5,1.7c2.5-1.3-1.1,2.6,1.2,2.4c-0.1-0.2,0.5,0.5,1.1-0.3
	c1.3,0.2,0.6,1.6,2.1,1.3c1.4-0.3,2.8,0,4.1,0.6c0.9-0.6,2.8-0.4,3.7-1.4c6.7,2.8,0.7,0.2,8.5-1.7c-0.3,1,1.4,1.1,1.9,1.8
	c-1.6,3.4,3.4,1.2,2.1,5.4c6.2,3,9-6.6,13.9-2.2c-0.5,5.4,1.8,4,2.2,7.8c1.7,0.3,7.2-3.7,4.2-5.3c0.1-3.8,6.9,4.4,6,5.3
	c-1.7,1.6,0.8,3.7,0.6,6.2c4,1.6,1.3,7.8,7.1,4.2c1.8,4.3,0.6,13.7-2.1,17.2c1,8.5,10.2-3.2,15.1,2.6c0.4-1.3,2.4,2,1.8-0.4
	c0.2-3,3,0.6,4.5-0.3c1.8-4.4,1.7-2.6,6-1.9c1-1.7,2,2.9,2.3-0.2c3-0.8,7.4-4.6,10.1-0.4c1.4,0.5,7.3-0.2,4,2.5
	c-3,0.7,1.3,10.9-4.8,12c-1,24.9-7.1,8.9-10.7,26c3.9,5.8-3,5.7-4.5,7.3c0.4,0.1,0.7,0.3,1,0.6l-0.2,0.2l0,0c-3.4,2.1-5.7-0.4-7.3-1
	c-1.5,3.1-5.5,1.3-5,5.4c0.1-0.7,0.3-0.2-0.1,0.5c-1-0.8-3.5-1-3.8-0.7c-1.9,7.2-13.2-0.8-16.6-4.3c-1.7-2.1-3.9,0.5-5.6,1.4
	c-20.5-2.4-8.3-10.5-28-19.9c-4.4,1.1-3.8-1.7-5.6-0.1c0.6,0.7,0,1.1-0.8,2c-1.4-0.3,0.4,4.6-1.5,2.9c-1.5-0.7-1,2.4-1.4,3.3
	c-5.6-4.7-2.3-4.2-6.8-1.3c-1.8,1.3,2.9,3.7-0.8,6.4c-2.7-2.6-5.5-4.3-7,0.3c0.1,1.7,7.1,0.9,1.9,5.3c-2.6,2.5,4.7,0.6,2.1,5.6
	C298.4,181.3,297.8,190.7,290.6,182z"/>
<path class="st1" d="M161.2,133.3c-0.1-2.6-5.4-5.1-1.9-7.3c5.8,3.5,3.1-2.5,3.9-3.8c1.8-1.7,2.3-8.8-1.3-5.5c-2-0.7-8.8-1-4.6-3
	c-2-1.9,2.7-0.9,0.1-2.5c2-3,1.6-11.5,4.4-11.2c1.2,1-0.8-1.8,0-2.8c1.4-0.2,5.1,1.7,4.2-1.8c2.5-0.2-1.3-1.6,1.4-1.7
	c1.1,1,5-0.3,6.4-0.9c0.1-2.2,2.7-0.1,3,1.3c1.9-0.3,2.9-1.3,4-0.4c2.4-0.3,0.9,0.8,2,1.7c2.9,1.6,2.8,5.7,4.2,5.3
	c3,0.3-0.4-3.8,3-2.5c0.1-0.1,0.2-0.2,0.3-0.2c0,0,0.1,0,0.1,0.1c-0.2,1,0.7,0.1-0.1,1.1c-0.1-0.7-0.7-0.1-0.4,0.5
	c3.5,3.3,0.8-0.7,5.6,1.3c2.7-0.7,6.6,5.6,3.4,8.5c-2.1-1.2,1.5,6.5,1.1,3.8c1.9-0.9,1.9,2,3.9,2.5c2.4,1.6,2,3.8,2.7,6.9
	c-0.2,0.4-0.3,0.4-0.4,0.3c-0.2-0.4-0.2-2.1-0.9-1.5c0-0.9-1.3,0.5-0.6,1c0.8-0.4,1.1-0.1,1.5,0.5c-1.4,1.8,1.9,1.5,0.9,3.8
	c0.5,0.7,4-0.8,2.8,1.3c3.8,2.6,4.5,7.8,8.1,7.6c4-4.3,0.4-0.6,4-1.9c1.4-5.4,1.8,0.7,4.3-0.2c-0.7-3.9,5.2-3.3,6.7-6.1
	c3,0.2,4,0,5.1-0.8l0.6,0.1c2.4,4.8,2.8,1.3,4.1,3c0.6,0.3-1,2.4,0.6,2.3c2.7,1.6,5.3,4.9,4.8,8.4c-2.9-0.3,1.5,6.9,3.9,6.2
	c0.5-0.1,2.5,2.7,1.7,3.1c-0.1,0.4-1.3-0.1-0.9,0.8c2.3,1.9-1.9,0.6-0.9,2.5c-1.1,3.7,1.3,5.4,0.4,10.5c9.7-2.4,18.1-0.5,25.9,5.8
	c-0.1,4.1-3.3,11.1,0.7,13.4c-1.5,4.9,3.5,11.1,1.2,16.4c-3.4,0-7.3,0.1-5.1,6.9c-1.4,3.4-3.4,6.6,2.1,6.9c1.8,1.9,5.1,5.3,1,5.7
	c-3,0.6-1.9-2.1-4.5-0.5c1.5,2.3-2.5,3.4-1,5.5c1.1,1-0.5,0.9-1.3,2.6c-0.5-0.2-2-0.7-2.5-0.8c-10.6-0.7-21.6-4.4-31.6-8
	c-1,3.9-0.1,5.9-2.3,8.4c1.7-0.3,4.3,1.7,3.2,4.8c-2.6-2.3-6.7,6.3-12.6,3.4c1-2-3.9,0.5-1-2.3c-0.7-1.8-3-0.2-4.7-1.4
	c-5.8-9.2-2-10.9-13.9-10.7c-1.7-1.3,1.7-9-3.6-6.9c-3.2,0.4,1.3-0.6-1.5-2.1c-2.1,1.5-1.8-2.6-3.9-0.5c0.1-3.2-2.9-1.2-3-2.6
	s-0.7-1.1-1.1,0c-10.6,0-1.9-2.8-6-4.1c-2.5,0.5-3.4-1.1-1.1-1.8c-0.6-0.4,0.3-2.6-2.7-1.6c3.8-5.9,0.3-5.5,1-12.6
	c9.9,3.4,7.2,10.2,8-2.8c-1.6-2.1,2.9,0.5-0.8-6.6c-2.7-3.2-0.1-4.8-1.7-7.6c-6.9-11.1-23.3-7.9-24.5-20.2l-1-0.1
	c2.9-2.6-5.2-9.1-2.8-12.5c0.8-0.4-1.3-0.8-0.5-1.9C161.3,134.1,161.9,134.4,161.2,133.3z"/>
<path class="st1" d="M138.4,179.4c1-0.1-0.7-1.8-1.1-0.6c-1.3-0.3,0.4-1.3-0.4-1.6c-0.2-1.1-1.3-1-0.5-2.7c-5.3,2.7-0.9-4.5-2.4-8.8
	c0.3,0.2,0.8-0.1,0.5-0.5c1.9,0,3.3,2.9,2.1-1.6c0.2,0.6,0.2-0.2,0.3-0.3c0.8,0.8,0.2-1.6-0.2-1.4c0.5-0.8,0.1-1.3,0-2.7
	c0.1,0.4,2.5-0.7,2-1.9c-0.8-0.6,2.1,0.5,2.3,1.6c2.6,1.1,0.5-3.2,2.3-3.6c1.4-0.6-1.2-0.9,0-1.5c6.5-4.7,4.6,0.6,6.6-1.3
	c0,0.2,1.9-0.1,1.8-0.7c0.9,3.1,3.7-1.7,5.6,0.4c0.4-2.6,6.1-1.5,6.1-1.7c0.4-0.1,0.8-0.3,1.1-0.6l1,0.1
	c1.2,12.4,17.6,9.1,24.5,20.2c1.6,2.8-1,4.4,1.7,7.6c3.7,7.2-0.8,4.5,0.8,6.6c-0.8,12.9,1.8,6.2-8,2.8c-0.7,7.1,2.8,6.7-1,12.6
	c3.1-1,2.1,1.3,2.7,1.6c-2.3,0.6-1.4,2.3,1.1,1.8c4.1,1.3-4.7,4.1,6,4.1c0.4-1,0.9-1.3,1.1,0s3.1-0.6,3,2.6c2.1-2.2,1.8,2,3.9,0.5
	c2.8,1.4-1.7,2.4,1.5,2.1c5.3-2.1,1.9,5.6,3.6,6.9c11.9-0.1,8.1,1.5,13.9,10.7c1.7,1.2,4-0.4,4.7,1.4c-2.8,2.7,2,0.3,1,2.3
	c5.9,2.9,10-5.7,12.6-3.4c-3.7,9.1,6.8,0.4,4.8,9c1.7,3.5-0.5,8.1,0.8,9.5c2,1.3-0.4,2.2-0.5,3.3c1.8,4.4,5.4,1.4,8.2,5.3
	c-0.3,10.8,9.4,4.9,10.5,11.9c-10.8,0.5-10,10.1-15.2,13.5c-7.4-3.7-5.1,3.4-12.6-5.1c-1.2-8.7-11.3-3.8-9.4,2.3
	c-0.3,1.8-0.8,0-1.3-0.4c-3.9,1.4-3.9,0.6-6.2,4.6c-6.7-5.2-11-21.4-20.8-20.2c-0.7,1.5-1.8,2.9-3.2,3.9l-0.8-0.1
	c0.1-0.1,0.1-0.2,0.2-0.3c-6.2-2.6-8.3,10.3-13.9,12c1.8-1.8-1.6-6.3-1.3-3.6c-0.1,6.5-10-3.9-6.5,3.3c-4.4-1.1-0.4,8-4.4,6.7
	c0.8-4.6-0.6-0.3-2.2,0.3c-0.8,1.2-1.1-0.5-1.8-0.9c-1.4-3.7-4.4,3.4-6.1,0.7c5.5-0.6-4.2-3-3.8-5.6c-0.8-3.3-3.1-5.1-3.4-6.9
	c-3.1-0.2-3.4-2.4-4.6-3.9c-3.7,1.7-0.1-4.9-3.6-2.1c0.1,0-5.6,1.2-7,0.7c1.4,2.2-3.3,1.5-2.2-0.2c2.1-0.8,0.2-0.1-0.1-1.2
	c0.9-0.2,0.9-1.3,0.2-1.4c-0.7,2.4-0.7-1-1.9-0.3c0.8,1.4-2.6,1.8-2.5,0.4c1.8-0.4-0.4-1-1-0.7c-2.8,3.1-0.2,0-4.4,0.1
	c-1.7-2.5,2.6-0.8,0-3c1.3-2-1.1-0.9-0.4-2.8c0.4-0.6,1.1-0.3,0.8,0.4c0.4,0.9,1.8-0.2,0.7-0.2c-0.7-0.9,2.1-3.2-0.2-1.5
	c-0.7-0.2-0.7-4.8-1.7-2.8c1.3,1.4-1.2,3-0.9-0.7c0,0.3-0.1,0.4-0.1,0.5c0-0.3,0.3-2.2,0-2c0.5-2.3-0.7-12.4,2-10
	c3.5-1.4-2.7-1.8-0.4-5c0.4-0.3-1.1-0.5-0.7-1.2c4.1-2.6-0.6-1.6-3.3-3.3c-0.3-1.4-0.9-4.2-2.4-3.7c-0.2-0.3-0.4-0.5-0.6-0.1
	c-0.7-0.3,0.4-0.3-0.6-0.5c-1.5,2.1-2.3-0.2-3.8,0c-1.6,0.4-1.6,0.4-2.9-0.6c-0.7,0.2-2.3,1.1-2.6-0.4c0.2,0.6,0-0.2,0.2-0.5
	c0.2,0.1,1.5,0.3,1.4-0.7c-1.6-0.7,1.9-1.5-0.4-1.9c-3.5,1.5-4.6-2.2-7.8,0.7c-1.1,0.9-1.7-1.3-1.5-1.8c-1.3-1.5-3.2-2.4-5.1-2.5
	c-1.5-3.9,3.1-2.5,0.8-5.4c-0.1-1.1,3.5,1,3.5-0.9c0.8-0.7,0.4-0.5,0-0.8c-1.1-0.2-0.3-2.9-1.3-2.8c0.9-4.6-1.3-1.9-1.8-3.9
	c1.6-7.4-1.9-2.3,3.4-7.2c4.3-1.5,5.8,7.6,8.6,6.8c2.8,2.4,1.8-2.3,4.1,1.7c0.1-1.4,1.7-0.9,2.9-1.1c1.2,2.4,4.2-0.1,5.7,1
	c1.8-0.7,2.1-6.6,5.5-4.1c3.9-3.2,6.4-2.4,7.7-2.8c2.2-0.9,1-1.2,1-2.9c-1.4-6.5,1.2-3,2.9-8.2c2.1-4.1-0.8-7.8,2.1-8
	c1.8,2,0.4-1.6,1.1-1.9C138.4,179.7,137.6,180.1,138.4,179.4z"/>
<path class="st3" d="M238.8,126.5c2.4,4.8,2.8,1.3,4.1,3c0.6,0.3-1,2.4,0.6,2.3c2.7,1.6,5.3,4.9,4.8,8.4c-2.9-0.3,1.5,6.9,3.9,6.2
	c0.5-0.1,2.5,2.7,1.7,3.1c-0.1,0.4-1.3-0.1-0.9,0.8c2.3,1.9-1.9,0.6-0.9,2.5c-1.1,3.7,1.3,5.4,0.4,10.5"/>
<path class="st3" d="M193.1,207.5c0.4-1,0.9-1.3,1.1,0s3.1-0.6,3,2.6c2.1-2.2,1.8,2,3.9,0.5c2.8,1.4-1.7,2.4,1.5,2.1
	c5.3-2.1,1.9,5.6,3.6,6.9c11.9-0.1,8.1,1.5,13.9,10.7"/>
<path class="st3" d="M165.3,150.1c1.2,12.4,17.6,9.1,24.5,20.2"/>
<path class="st3" d="M393.8,465.4c4.4-5,3.1,4.1,6.8-2.9c3.5,1.6,5.4-3.9,8.9-3.5c3.2-1.6-0.8-4.5,1.3-7.2"/>
<path class="st3" d="M451.2,414.3c2.5,0.5,5.5-0.9,8.1-1.3"/>
<path class="st3" d="M362.3,548.4c3.6-4.8,12.5-5.6,18.5-9.4"/>
<path class="st3" d="M391.8,390.8c-2.5-2.6-0.5-4.9-3.8-4.7c-4.8-3.2,1.9-2.3,0.3-5.1c0.7-9.8,5-0.5,4-7c-0.8-2.7-4.4-4.7-6.7-6.8
	c5.8-3.6-0.4-3.2,2.4-6.4c-4-1.7-0.3-2-1.5-4.1c-2-6.3,3.5-5.1,4.6-12.2"/>
<path class="st3" d="M293.6,486.9c2.1,0.9,2.1,0.9,0.8,2.6"/>
<path class="st3" d="M328.6,504.5c3.4,2.5-1.3,5.6-2.1,7c1.1,3.1-6.1,3-2.9-0.4C321.4,508.4,326.4,507.2,328.6,504.5z"/>
<path class="st3" d="M253.5,330.3c2.2-0.2,6.1,3.5,9.6,3.9c5,1.6,3.5,6.3,4.6,10.6c1.3-0.5,1.8-0.4,2.7-1.5
	c-0.3-0.8,6.4-0.7,4.3,0.9"/>
<path class="st3" d="M253.7,324.8c-0.8,2.1,1.4,3.6-0.2,5.5"/>
<path class="st3" d="M259.2,98.8L259.2,98.8c8.3,1.5,13.4-1.7,19.3,3.1"/>
<path class="st3" d="M298.4,288.9c3.9,1.7,4.7-1.6,2.9,5.6c0.6,0.2,0.5,1.1,1.1,0.8c0.3-1.9,1.5,0.9-0.1,1.4
	c-0.3,3.4-2.4,5.2,1.8,4.4c2.6,8.9-6.4,5.3-5.9,8.7c3.4,2.4,1.7,4.2,0.5,5.6c-3.6,0.3-2.2-0.6-2.7,2.6c-0.8-0.3,0.5,0.6,0.3,0.8
	c0.2,0.3-0.6,0.7,0,0.7c1.6-1,0.2,1.1,1.8,1.1c2.8-0.6,0.8,5.8,3.9,6.7c1.7,2.6-2.1,4.6-0.9,5.9"/>
<path class="st3" d="M316.6,248.7c0.6,3.2-5.4,6.5-0.1,13.9"/>
<path class="st3" d="M271.6,226.1c12.3,5,17.3,12.5,28.3,20.2c1.8-1.1,0,1.4,1.3,1c0.1,2.3,4.5,1.5,0.8,3.1c0.6,1.4,2-1,2.3,0
	c0.6,1.3,1.6-0.3,2.5-0.6"/>
<path class="st3" d="M301.2,505c11.6-1.9,9.5,2.4,16.1,2.8"/>
<path class="st3" d="M401.5,201.7c-4.3,1.4,1.4-1,1.5,3.3c-3.8,3.1,0.6,1.6-1.8,3.8c-0.5,2.2-2.2,0.2-3,0.2c0,2.7-3.6,1.4-2.9,3.7
	c-1.1,0.6,1,0.4,0.3,0.9c0.4,1.3,0.4,0.9,1.6,0.3c0.9-1.4,2.2,2.7,0.9,2.2c-1.1,4.2-4.1-1.4-5.7,1.4c-4.9-3.6-4.1,5.7-9,0.1"/>
<path class="st3" d="M393.1,179.1c-3.4,2.1-5.7-0.4-7.3-1c-1.5,3.1-5.5,1.3-5,5.4c0.1-0.7,0.3-0.2-0.1,0.5c-1-0.8-3.5-1-3.8-0.7
	c-1.9,7.2-13.2-0.8-16.6-4.3"/>
<path class="st3" d="M297.7,108.5c-1.4-5.5,0.4-1.5-4-3.6"/>
<path class="st3" d="M301,81.7c-7.5,6.7-5.7-0.1-4.3-4.9c1.1-6.3,4.6,3.5,4.1-4.1"/>
<path class="st3" d="M193.5,268c1.4-1,2.5-2.3,3.2-3.9"/>
<path class="st3" d="M204.8,446c0.1-8.1,5.9-8.5,11.8-9.8c3.2,7.3,2.9,4.9,9.1,2.2c0.6-3,2.4-3.1,3-3.9c1.6-1.4,2.2-3.3,4.6-4.2
	c1.6-3.7,2.9-1.2,6.3-1.2c1.8-0.8,2.1,2.6,3.4,2.2"/>
<path class="st3" d="M273.1,554.3c9.1-8.9,22-20.6,15.3-34"/>
<path class="st3" d="M318,568.5c-1.5-7.1,1.9-4.3,6.4-7.4"/>
<path class="st3" d="M479.7,549.6c-2.5-4.2-6.6,3.2-9.6,2.8c0,1.8-2.1-2.8-2.6-1.7c0.1,3.9-5.4,2-5,6.5c-8-0.6-14.1,16.8-18.5,2.7
	c3.4-5.9-1.9-4.8-0.1-7c-1.1-2.5-1.4,0.3-3.2-1.7c-1.6-4.2-7.9,0.5-11.3-2.7"/>
<path class="st3" d="M465.4,411c-1.1-1.7-0.3,2.7-6,2"/>
<path class="st3" d="M432.5,326.6L432.5,326.6c-7.4,11.8-23.1,14.8-29.1,23.7"/>
<path class="st3" d="M293.6,104.9c5.9-6.4-5-6.8,1.1-12.5c-1.1-2.3-2.3,1.5-5.7-3c-1.7,1.7-2.8,3.9-4.8,2.4c-1.6-0.7-4,5.4-4.1-0.4
	c-2.2,0.4-0.4,8.2-1.5,10.5"/>
<path class="st3" d="M297.7,108.5c-0.9,1.9-1.1,0.4-0.7,2.4c1.5,3.2-3.5,1.3-3.1,4.6c-0.4,5.6-2.4,12.2-1.3,15.4
	c-3.1-1-1.5,1.4-1,3.3s-2,3.6-0.4,4.6c-1.6,2.8-3.8-2.4-4.1-0.8"/>
<path class="st3" d="M287.1,138c-3.1,2.4,0.8,6.5-3.1,6.6c0.7,3.6,2.8,6.8,6,6.3c4.9-3-3.5,7.2-0.9,8.4c0.6,2.1,0.1,1.2-0.8,3
	c3.4-0.1,1.4,3,5.5,3c1.2,3.8,1.4,5.3-0.2,8.4c-7,3.7-1.4,6-3.1,8.2"/>
<path class="st3" d="M252.5,163.4c9.7-2.4,18.1-0.5,25.9,5.8c-0.1,4.1-3.3,11.1,0.7,13.4"/>
<path class="st3" d="M279.1,182.6c-1.5,4.9,3.5,11.1,1.2,16.4c-3.4,0-7.3,0.1-5.1,6.9c-1.4,3.4-3.4,6.6,2.1,6.9
	c1.8,1.9,5.1,5.3,1,5.7c-3,0.6-1.9-2.1-4.5-0.5c1.5,2.3-2.5,3.4-1,5.5c1.1,1-0.5,0.9-1.3,2.6"/>
<path class="st3" d="M279.1,182.6c5.2,4.1,6.1,1.1,11.5-0.7"/>
<path class="st3" d="M290.6,182c7.2,8.8,7.9-0.6,16.5,2.9"/>
<path class="st3" d="M326.8,160.5c-4.4,1.1-3.8-1.7-5.6-0.1c0.6,0.7,0,1.1-0.8,2c-1.4-0.3,0.4,4.6-1.5,2.9c-1.5-0.7-1,2.4-1.4,3.3
	c-5.6-4.7-2.3-4.2-6.8-1.3c-1.8,1.3,2.9,3.7-0.8,6.4c-2.7-2.6-5.5-4.3-7,0.3c0.1,1.7,7.1,0.9,1.9,5.3c-2.6,2.5,4.7,0.6,2.1,5.6"/>
<path class="st3" d="M326.8,160.5c19.7,9.4,7.5,17.5,28,19.9"/>
<path class="st3" d="M354.8,180.4c1.7-0.9,3.9-3.5,5.6-1.4"/>
<path class="st3" d="M271.6,226.1c-0.5-0.2-2-0.7-2.5-0.8"/>
<path class="st3" d="M269.1,225.3c-10.6-0.7-21.6-4.4-31.6-8"/>
<path class="st3" d="M306.8,249.7c-1.5-1-1.1-1.1-0.7-2.7"/>
<path class="st3" d="M306.1,247.1c5.3-1.5,6.1,0.3,10.5,1.6"/>
<path class="st3" d="M352.3,222.7c-0.8-1.1-1.8-2-2.9-2.6"/>
<path class="st3" d="M352.3,222.7c10,12.7,13.3-3,19.8-9.4c2.4-3,3.7,3,6.6,1.1c3.7-1.8,9.4-1.1,4.7,3.2"/>
<path class="st3" d="M349.4,220.1c-2.3,7.1-0.8,19-10.7,15.6"/>
<path class="st3" d="M338.7,235.7c-1,3.4-9.1-0.1-12,3.5"/>
<path class="st3" d="M326.8,239.2c-7.6,1.6-3.8,4.3-10.2,9.5"/>
<path class="st3" d="M189.9,170.4c1.6,2.8-1,4.4,1.7,7.6"/>
<path class="st3" d="M191.6,177.9c3.7,7.2-0.8,4.5,0.8,6.6c-0.8,12.9,1.8,6.2-8,2.8c-0.7,7.1,2.8,6.7-1,12.6"/>
<path class="st3" d="M237.5,217.3c-1,3.9-0.1,5.9-2.3,8.4c1.7-0.3,4.3,1.7,3.2,4.8"/>
<path class="st3" d="M238.4,230.5c-2.6-2.3-6.7,6.3-12.6,3.4c1-2-3.9,0.5-1-2.3c-0.7-1.8-3-0.2-4.7-1.4"/>
<path class="st3" d="M238.4,230.5c-3.7,9.1,6.8,0.4,4.8,9c1.7,3.5-0.5,8.1,0.8,9.5c2,1.3-0.4,2.2-0.5,3.3c1.8,4.4,5.4,1.4,8.2,5.3
	c-0.3,10.8,9.4,4.9,10.5,11.9"/>
<path class="st3" d="M193.1,207.5c-10.6,0-1.9-2.8-6-4.1c-2.5,0.5-3.4-1.1-1.1-1.8c-0.6-0.4,0.3-2.6-2.7-1.6"/>
<path class="st3" d="M262.2,269.5c-10.8,0.5-10,10.1-15.2,13.5"/>
<path class="st3" d="M247,283c2,1.3-1.3,3.8,1.4,3.7c-2.5,5,4.8,10.3,3.1,16.5c-0.7,7.3-1.7,12.8,2.2,21.6"/>
<path class="st3" d="M247,283c-7.4-3.7-5.1,3.4-12.6-5.1c-1.2-8.7-11.3-3.8-9.4,2.3c-0.3,1.8-0.8,0-1.3-0.4
	c-3.9,1.4-3.9,0.6-6.2,4.6c-6.7-5.2-11-21.4-20.8-20.2"/>
<path class="st3" d="M274.6,344.3c1.2,1,1.1-1.7,3.1-2c3.3,1.7,4.2-3.2,6-3.5"/>
<path class="st3" d="M274.6,344.3c-0.7,0.5-2,1.1-0.8,1.6c0,1.6-2.5-1.5-2.3,0.3c0.3,2-1.3-0.3-1.5,0.8c0.5,4.6,3.2,0.9,2.2,4
	c-0.8,1.4-3.9,0.9-3.6,3.2c-3.4-0.6,0.4,1.5,1.3,3.3c-0.2,2.7,1.6,0.2,2.3,1.2c-1,1.1,0.5,0.5,0.1,1.3c-0.6-0.5-0.4-0.1,0,0.1
	c1.3-0.6,0.5,0.3,0.9,0.7c0.6-1.5,1.3-1,1.7,0.3c-2.5,2.5,0.8,1.9-1.9,5.2c1.7,0.1,2.5-0.4,1.7,1.5c-0.8,2.3,1.4,4.5-1,5.7
	c0.6,1.7,2.2,4.6,0.9,6.8c0.1,4,3.6,6.1,6.7,8.2"/>
<path class="st3" d="M283.8,338.9c0.6-3.6,10.7-1.4,6.5-7.1c2.1-2.2,4,0.6,6.8,0.4c2-0.1-1.4,5.3,4,1"/>
<path class="st3" d="M298.4,288.9c0.8-2.9,4.4-5.3,6-8.3c0.5-2.6,0.8-5.3,1-8"/>
<path class="st3" d="M305.5,272.6c4.7,0.9,7.4-0.9,12-1"/>
<path class="st3" d="M317.4,271.6c0,6.7,3.3,12,10.6,9.6c1.5,2.6,4.9,0.4,6.9-1.5c3.4-5.5,0.6,9.6-1.9,8.5c-1.2,1.3,1.5,3.2,2.3,0
	c12.9,3.5-1.2,8.1,2.1,14.2"/>
<path class="st3" d="M317.4,271.6c2.2-2.9-0.6-5.8-0.9-9"/>
<path class="st3" d="M337.4,302.5c3.3,0.2,0.5,1.5,2.4,3.3c0.8,2.1,1.6,0,3.1,1c6.5,8.7,11.7-2.6,19.4-3.1c1.5,1.6,4.8-0.8,4.7,2.6
	c1.1,0.3,1.8-1,3-1c1.1-0.5-0.6,1.5,2.3,0.7c7.6,5.4,2.5-0.9,7.1,1.9"/>
<path class="st3" d="M379.4,307.9c1.8,1,1.9,1,2.9,3.1"/>
<path class="st3" d="M382.2,311c2,6-2.1,9.9-0.2,12.7c1.9,2.1,1.8,3.2-0.4,5.5c-4.8-0.5-0.9,2.3-4.3,4.3"/>
<path class="st3" d="M391.2,344.7c-1.8-3.5-8.5-1.7-8.5-4.3c-1.3-3.3-0.5-0.6-2.7-3.4c-0.5-1.4-1.4-2.7-2.6-3.6"/>
<path class="st3" d="M391.2,344.7c2-0.8,1,2.1,2,1.6c1.4,1.6,4.3,1,3.6,3.7c4.8,2.1-1.3-2.4,6.7,0.4"/>
<path class="st3" d="M391.8,390.8c-3.5,3.4-3.3-1.5-6.5-0.1c-3.6,1.9-5.5,1.3-8.4,2.6c-4.2-3.1-3.4,2-4.8-0.4c3,0.3-3-1.9-4.4,1.3
	c-2.8,3.8-3.5,9.3-6.1,12.2c-0.1,5.1-2.9,9.4-8.1,10.7"/>
<path class="st3" d="M391.8,390.8c1.1,0.5,0.3,0.9-0.5,1.1c-1.2,1.9,2.5,0.8,2.3,2.3c-5.7,4.5,8.4,4.8,12.9,6.8"/>
<path class="st3" d="M353.6,417.2c0.2,3.1-7,13.5-1.8,10.6c2.3,2.1-0.8,3.4-2.4,3.9c1.1,2.7-2.1,4.7-0.5,4.5
	c2.8,8.1-7.4,3.5-1.6,11.1"/>
<path class="st3" d="M347.2,447.4c-4.5,2.3-6.2,2-10.8,3.9c-3.1,0.7,0.8,2.3-3,2.1c0.9-3.8-1.3-4.3-4.1-5.1c-2.1-1.9-2.5,3-5,0.4
	c-3.8-1.6-7.6-13.7-11.1-9.1"/>
<path class="st3" d="M347.2,447.4c0.6,0.3,1.1,0.6,1.8,1"/>
<path class="st3" d="M313.2,439.6c-5.5,2.5-3.2-18.8-8.8-18.8c-3.2,1-0.9-3.3-3.3-2.5"/>
<path class="st3" d="M313.2,439.6c-2.2,1.4-0.7,7.4-2.7,7.3c-9.9-1.9-0.2,18.9-2.6,27.3"/>
<path class="st3" d="M301.1,418.3c7.4-10.6,2.2-26.9,21.5-27.8"/>
<path class="st3" d="M301.1,418.3c-5.3-3-7.8,6.4-8.4,10.3c-0.2,1.6-2.9-0.2-2.7,1.6c-1.1,3.3-10.6,2.5-7.7,4.1
	c-1.3,6.3-9.5,4.2-12.9,8.3"/>
<path class="st3" d="M320.5,388.1c0.1,0.1,1.5,1.5,0,1.7c-0.2,0.8,1.4-0.6,2.1,0.7"/>
<path class="st3" d="M320.5,388.1"/>
<path class="st3" d="M281.5,388.4c5.7-2.9,12.6-1.7,15-1.7c0.9-1-0.6-3.1,1.7-2.9c2.5,5.9,22.2-3.8,22.5,4.5l-0.2-0.2"/>
<path class="st3" d="M406.6,401c9.4,2.4,2.9-2.5,1-5.1c3.6-3.5,0.3-2.7,1-7.4"/>
<path class="st3" d="M431.9,388.6c-4.3,11.4-7.9,9.9-6.9,1.7c-1.9,1.4-3.3-1.1-4.9-2.4c-0.7-2.3-4.6,1.8-5.6-1.3
	c-2.5-1.5-3.5,2.6-5.8,1.9"/>
<path class="st3" d="M431.9,388.6c6.5,3.3,4.7,7.9,6.7,14.3c9.5-3.4,8.6,3.2,12.6,11.4"/>
<path class="st3" d="M459.3,413c-3.6,7.4,8.3,14.2,5.9,18.2c-4.6,2.4-5.5,20.4-11.9,11.4c-5.6,6.3,1,3.1-2.4,9
	c-4.2-3-4.3,4.1-7.7,2.7"/>
<path class="st3" d="M393.7,437.4c-11.7,9.4-15.6-22.7-24.6,9.1"/>
<path class="st3" d="M393.7,437.4c0.3,4.1,5.6-0.1,2.5,5.1c-0.1,2.3,2.3,0.7,1.9,2.5c7.9,1.9,4.9,6.6,12.6,6.9"/>
<path class="st3" d="M369.1,446.5c-3.1-2.1-4.2,2.1-5,5.7c-2.5,2.5-8-4.5-13.2-0.8c-3.1-0.1,0.8-3.2-1.9-3.1"/>
<path class="st3" d="M443.3,454.3c4.3,2.9-0.7,3.3,0.1,5.9c0.5,2.3-3.2,0-1.9,2c1.5-0.1,0.7,1,0.3,1.7c1-0.6,1.2-1.1,2,0.1
	c-1,1.4-3.4,3.5-0.2,4.3"/>
<path class="st3" d="M430.3,547.4c-2.5-1.8-1.7-4.1-1.8-5.3c-1.3-2.4-5.9-2.9-4.5-5.5c-0.7-4.1-1.3,0.1-3.6-4.5
	c2.4,0.4,1.8-4.7,5.9-3.3c0.6-0.4-2.6-0.2-0.9-0.7c2.1-0.5,0.5-0.2-0.5-1c-0.3-0.9,0.1-5.6-0.3-8.1"/>
<path class="st3" d="M430.3,547.4c-0.1,0.1-0.7,0.9-0.8,1.1"/>
<path class="st3" d="M362.3,548.4c-2.3-2.6-1.6,3.6-4.6-0.5c0-4.3-3.8,0.5-5.2,0.9c1.9,0.4-0.1,3.8-0.5,1.5c-1.4,0.4,1-1.1-1.2-1.2
	c-2.6-2.8,2.3,11.8-8,6.9c-1.1,3.1-3.2,2.4-5.5,1.1c-3.3,0.3-0.3,2.2-2.5,3c-3.7-2.4-6.6,2.4-10.6,1"/>
<path class="st3" d="M380.8,539c2.8-4.1-9.4-5.7,3.5-8.7c-1.5-4.7,8.4-5.3,3-10.6"/>
<path class="st3" d="M392.1,502.7c3.7-4.5-0.9-5.8,6-7.5c2.8-5.5,1.6,1.8,6.8-6.6"/>
<path class="st3" d="M392.1,502.7c3.1,6,20.4-6,13.7,4.7c-1.1,0.4,0.1,7.8,2.1,4.9c1.8-0.4,3.4-1.2,4.8-2.4
	c-2.3-0.1,0.6-1.6,0.8-2.5c0,1.4,3.8,0,4.2,3.6c-4.1,2.5,4,8.3,6.7,8.1"/>
<path class="st3" d="M392.1,502.7c-6.1,7.7,2.4,13.7-4.7,17"/>
<path class="st3" d="M404.8,488.6c1.4-5,5-7.6,0.2-11.5c-5.7-0.3-1.2-0.6-4.7-2.8c-12.2-5.4-6.7-1.3-6.6-8.8"/>
<path class="st3" d="M393.8,465.4c-4.5,5.3-1.1,1.4-5.2,0.7c-1.5,3.5-4.2,2.6-6.8,4c-2.6,4.5-1.3,3.3-5.9,5.5"/>
<path class="st3" d="M355.8,474.7c-22.4,17.5-16.8-0.3-35.9,15.1"/>
<path class="st3" d="M355.8,474.7c6.6-1.3,15.9-8.8,16-0.9"/>
<path class="st3" d="M319.9,489.8c-1.9-0.9-2.7-3.1-1.8-5c0.1-0.3,0.3-0.6,0.6-0.9"/>
<path class="st3" d="M319.9,489.8c2,5.3,4.2,14.5-2.6,18"/>
<path class="st3" d="M318.6,484c3.7-2,2-1.4-1-1.4"/>
<path class="st3" d="M317.6,482.6c0.3-0.8,0.2-1.5-0.9-0.9"/>
<path class="st3" d="M316.8,481.7c-3.9,1.8-5.7-6-8.9-7.5"/>
<path class="st3" d="M301.2,505c-4.5,3.3-11.5,6.5-14,8.3"/>
<path class="st4" d="M294.4,489.5c-4.9,1.6-6.4-5.6-0.8-2.6"/>
<path class="st3" d="M252.1,445.2c2.1,1.1,2.8-2.4,3.7-3.5c3,0.5,2.8-0.4,4.3-2.4c1.1-1.6,3.8,4.7,5.4,1.3c0.8-1,1.8,2.8,3.9,2.2"/>
<path class="st3" d="M288.5,520.4c-1.2-2.2-1.6-4.7-1.3-7.1"/>
<path class="st3" d="M375.9,475.6c-0.5,0.3-2.6,1.4-1.6-0.9c-0.5-0.7-3.8,1-2.5-0.8"/>
<path class="st3" d="M443.6,468.2c0.6,1.6,1.1,1.2,0.6,2c-2.7,0.1-1.4,4.5-3.4,4.5c-0.1-0.2,0.7-1,0-0.7c-2.7-0.7,0-4.9-3.5-3.1
	c-3.8-3,1.8-2.2-0.8-3.5c-0.5-4.9-8-1.1-10.9,1.6c-0.4,0.5-0.6,0.8,0.1,1.4c0.5,1.1-1.6-1.2-1,0.7c1.2,0.5,1.7,1.6,0.1,0.6
	c-0.2,2.3-0.9,2.7-2.3,5.3c-2.7,1.2,7.3,4.4,1.5,4.6c-4.8-3.6-3.8,2.9-7.1-1.3c-5.3,1.3-7.4,7.5-12.1,8.3"/>
<path class="st3" d="M243.1,431.3c-1.7,5.6,8.6-1.8,9.5-3.3c5.8-2.5-0.8,13.8-0.4,17.2"/>
<path class="st3" d="M550.1,435.6c-0.1-2.4,2.9,2,1.6-0.8c-1.3,1.3,0.5-2.5,1.6-2c-1.5,2.4,2.8,2,1.3,2.1c-0.4,0.2,0.2,0.2,0.3,0.2
	c-0.9,0.8,1.1,0,1,1c-2.8,0.2-1.9,4.5-1.9,6c-0.2,1.7,0.6,2.4,0.1,4.3c-1.1,2-6.6,5.4-3.8,7.1c-1.2,2.5-3.9,4-3.3,7.5
	c-1.4,2.2,2.7,2.3,1.4,4.7c1.3,1.3,0,1.5-1.3,1.8c-2.4,1.5-1.8,6.5-5.5,6.3c-4.2-2.4-0.9,5.6-1.7,7.9c-6.1,4.3-4.1,11.6-9.8,2
	c-5.7,1.2-5.3,8.5-8.8,7c-1,2.5-9.2-2.4-3,4.5c-2.1,4-3.8,4.5,0.8,8.3c4-2.4,7.3-4,5.6,2.3c0.7,3.8,1.9,7.4,3.6,10.9
	c0.3,2,6.8,0.8,1.6,3.7c-4,3.6-3.2-2.1-6.8-0.8c-4.6,2.8-6.1,3.8-8.2,8.6c-0.3,0.8-0.7-0.2-0.4-0.6c-0.8-1.4-0.5,1.4-1.2,0.3
	c0.1-0.5-1.1-1-0.3-0.3c-2.1,2.3-7.9-1.8-11.1-2.1c-1-2.8-3.4,3.6-4.4,0.8c-3.8-3.8-5.9-0.5-6.2-4.5c-2.3,1.2-3.5-2.8-4.6,0.2
	c-1.6,1.6-2.6,0.9-3.9,2.9c-2.3,0.7-2,3.3-1.6,5.2c3.1,3.4-2.4,2.4,1.8,5.6c0.7,0,0.3,0.8,0.5,1.1c8.2,1.2-9.5,6.3-4.9,7.1
	c0.1,1.7,3.1,3,3.3,0.4c1.1-0.6,1.3,2.4-0.4,2.5c-3.1-1.6-2.5,0-1.3,2.8c1.4,3.1,3.5,7.7,2.2,10.9c0.1,2.3,0.6,7.8-1.2,6.8
	c-6.3-1-1.4,4.5-5.5,7.2c-1.4,0.4-2.3,2-3.7,3.1c-0.3,2.8-4.2-2.1-3.3,2.2c-4.5,5.3,4.5,7.3-6.2,15.5c-7.5,11.8-3.2-2.7-17.6,12.6
	c-3.8,3.8,2,9.5-7,7.3c-0.7,4.8-3.9-3.9-7.6,3.9c-1.8,2.2-6-6.1-5,0.4c4.1,11.9-8,0.4-10.3,9.1c-1.2-0.2-2.1-1.6-4.2-1.7
	c-4-1.4-2.1-2.8-2.4-6.1c-3.4-0.9,1.8-2.3,0.5-3.5c-4.9-6.1-11.8-8.7-17.4-8.2c-2.1,1.7-1.6,1.6-4.4,1.5c-0.8,0.9-4.1,2.3-3.8,0.3
	c-0.2-0.2-1.5,0.2-1.5-1.1c-1,0.4-4.1-1.3-5.8-1c-5.1,3.3-1-1-3.2,0.3c-1.4,2.8-6,1.6-8.1,1.1c-1-5.9-3.8-8.1-8.8-2.8
	c-1-1.7-4.7,0.3-6.4-2.3c-1.5-0.1,1-10.3-3.4-6.6c-4.3,0-0.8-2.5-3.1-2.2c-2.3,0.6-0.6-7.1-1.9-8.8c-5.5-0.8-1.4-6.8-2.2-9.9
	c-4.5-1.4-3.8,7.5-7.2,2.6c-0.3-2-1.2-4.8-2.8-1.5c-12.4,6.3-0.5-10-11.1-9.6c-0.9,0-1.8,0.1-2.6,0.3c-4.3,0-5.4,2.9-5,6.4
	c-0.8,1.8-8.1,3.5-4.3,5.1c2.7,2.6,7.8,2.9,2.6,7.4c3.9,9.9-12.4,4-13.3,11.8c-6-3-17.4,16.8-18.3,6.4c-1.4,0.4-3.1-2.9-2.4-0.2
	c-0.3,1.1-0.9-1.1-1.3,0.1c-0.7-0.6-1.7,0.8-0.6,0.7c-0.4,0.7-0.9,0.5-1.3,1.7c0.8-0.8-0.2,0.9-0.5,0.7c-0.3-2.2-1.6-4.7-4.2-3.9
	c1.9-2.8-6.1-4.9-1-7.4c5.7-2.3-6.3-3.5-0.2-3.9c2.2-7.4,9.2-10.6,14.6-13.1c1.6-2.2,5.5-8,7.8-10.8c2.1-15.2-8.7,0.3-6.5-11
	c-1.2,0.7-2.8,2.2-3.9,0.4c-1.5-2-3.2-3.8-5-5.5c-12.7-11.3-14.8,10.6-21.3,17.8c-16.9,0.7-17.9,17.5-34.6,7.6
	c-3.8,2.1-3.7-3.1-2.8-4.4c-0.4-4.5-9.4-12.5-4.3-18.2c-3.1-3.6,1.8-9.5-1.9-11.4c-2.8-3.2,1.2-10.4-3.5-10.3c0-2-3.1-2.7-4.7-4.6
	c0.8-2.7-1.3-3.7-3.5-4.9c-2.1,0.8-5.8,1.2-3.8-2c2-1.6-2.3-2.5-1.9-4.3c-2.2-4.1,4-5.3,5-7.3c-5.5-0.6-5.9-6.7-2.2-10.2
	c-2.9-0.6-4-5.1-4.6-7.4c-5.2-4.7-5.5,0.8-6.6-3.9c2.3-2.6-3.3-5.6-4.6-7.9c3.1-9.5-0.2-7.5,8.7-7.8c3.8-3.5-0.8-2.7,1.4-4.5
	c-0.4-3.3-2.7-5,0.7-8.3c4.9-2.4,7.3-2.9,10.3-7.1c6.7-5.3,11.3,0.6,8.1-7.7c0.1-1.5-0.5-1.8-1.4-1.7c-1.1,0.1-2.7,0.8-3.5-0.2
	c-0.4-3.2-4.1-2.9-6.5-2.6c1.7-5.7-5.2-4-4.9-8.7c0.8-3.1-3.2-5.3-4.5-1.6c-1.9,1.4-5.6-1.2-5.8,2c-3.1,3.1-4.6-11.7-11.1-11.1
	c-2.1-1-2.8-2.3-3.3,1.6c-0.3,2.3-3.8,1.5-3.4,4c-0.3,0.8-0.8-0.9-0.9,0.2c-4.9,6.5-4.9-14.7-8.9-11.8c-6.8-0.2-3.1-5.1-4.6-5.8
	c-2.3-0.3-0.1-4.9-3.6-4.1c-2.6,3.5-5.7-1-3.3-3.8c2-0.9-2.5-2.2-0.8-3.4c3.3-5.8-4.8-8.2,3.7-12.8c3.5-12,1.8-4.1,7.3-11.2
	c-3.6-5.9,4.9-8.1,9.2-10.5c2.1-2.1,8.5-8.4,10.9-6.2c5.2,1.7,1.6-1.2,6.2-1.5c3-1.4,4.8,4.3,7,0.6c0.8,1.4,0.8-1.3,1.7-0.9
	c0.1,1.5,3.3,1.5,3.8,0.6c5.7-4.6-1.1-4.8,0.9-11.1c3.7-3.2-0.3-11.5,3.3-13.8c0-0.9-0.2-1.8-0.5-2.7c-2-3.5,3.2-6.1,0.9-7.2
	c0.7-6.9-2.9-15.3-1.3-21.7c-2.9-7.4-3.6-20.1-4.4-26.1c-7.4-0.7,2.6-6.4,4.3-8.3c0.1-0.1,0.1-0.2,0.2-0.3
	c-6.2-2.6-8.3,10.3-13.9,12c1.8-1.8-1.6-6.3-1.3-3.6c-0.1,6.5-10-3.9-6.5,3.3c-4.4-1.1-0.4,8-4.4,6.7c0.8-4.6-0.6-0.3-2.2,0.3
	c-0.8,1.2-1.1-0.5-1.8-0.9c-1.4-3.7-4.4,3.4-6.1,0.7c5.5-0.6-4.2-3-3.8-5.6c-0.8-3.3-3.1-5.1-3.4-6.9c-3.1-0.2-3.4-2.4-4.6-3.9
	c-3.7,1.7-0.1-4.9-3.6-2.1c0.1,0-5.6,1.2-7,0.7c1.4,2.2-3.3,1.5-2.2-0.2c2.1-0.8,0.2-0.1-0.1-1.2c0.9-0.2,0.9-1.3,0.2-1.4
	c-0.7,2.4-0.7-1-1.9-0.3c0.8,1.4-2.6,1.8-2.5,0.4c1.8-0.4-0.4-1-1-0.7c-2.8,3.1-0.2,0-4.4,0.1c-1.7-2.5,2.6-0.8,0-3
	c1.3-2-1.1-0.9-0.4-2.8c0.4-0.6,1.1-0.3,0.8,0.4c0.4,0.9,1.8-0.2,0.7-0.2c-0.7-0.9,2.1-3.2-0.2-1.5c-0.7-0.2-0.7-4.8-1.7-2.8
	c1.3,1.4-1.2,3-0.9-0.7c0,0.3-0.1,0.4-0.1,0.5c0,0,0,0,0,0.1"/>
<path class="st3" d="M550.1,435.7c0,0.1,0,0.2,0,0.3C550.2,435.9,550.1,435.8,550.1,435.7z"/>
<path class="st3" d="M550.1,435.7L550.1,435.7"/>
<path class="st3" d="M525.5,417.9c0.1-0.3,0.9-0.7,0.4,0.3c2,0.5-0.2-0.8,0.5-1.4c-0.7-3.2,2.3-5.4,2.3,0.1c3.5,0.8-3.7,6.7,0.2,8.7
	c2,1.9,1.6-0.8,2.8-0.4c-0.8,0.9,0.9,0-0.1,0.3c1.3-0.6,0.9,0.6-0.4,0.3c-0.9,2.5-1,3.7,0.8,1.4c0.3-0.7,0.9,0,1.2,0.7
	c1,0.2,1.1-1.9,1.8-1.1c-0.9,0.9,1,1,1.6,1c0.5,0.6,0.5,2.1,1.5,2c2.7,0.3,2.3-1.3,5.2,0.1c0.5-0.9,2-0.3,1.8,0.6
	c0.4-0.5,1.2-0.6,0.3,0.2c0.4,0.3,0.5-0.6,0.5,0.2c-0.5,0.6,0.4,0.3,0.7,0c1,0.7,0.7,1,1.7,1.6c0.1,0.3,0.1,1.3,0.4,0.3
	c0.5-1,0.7,0.8-0.1,0.6c-0.4,2.4,1.6,0.8,1.8,2.2"/>
<path class="st3" d="M525.5,417.9c0,0,0,0.1,0,0.1C525.5,418,525.5,418,525.5,417.9z"/>
<path class="st3" d="M525.5,417.9L525.5,417.9"/>
<path class="st3" d="M514,417.4c0.2-0.2,1-0.4,0.5,0c0.3,0.8,0.8,0.1,1,1.1c0.7,0.7,1.6-0.4,1.8-0.9c1.6,2.2,4.2-1,6.8,0
	c0.6,0.3,1.3-0.5,1.4,0.3"/>
<path class="st3" d="M514,417.4c0,0,0,0.1,0,0.2C514,417.6,514,417.5,514,417.4z"/>
<path class="st3" d="M480.2,382.2c-1-0.3,0.1,1,0.3,0.4c2.1,0.7-1.1,1-0.4,2.1c4.9,5.9-3.4,26.4-9.8,20c-2.3-3-3.3,2.7-4.4,6.3
	c-0.6,2-1.3,3.4-2.3,2.4c0.5,0.8,1.5,1.2,2.5,0.9c-1.2,1.5,1.1,1.4,2.1,1.5c4.6,1.8,2.3,7.9,8.7,5.1c6.3-0.5,10.9-0.6,15.4,0.4
	c2-1.6,3.6-1,5.6,0.1c0.3-2,1.8,0.2,2.8-0.3c1.3-2.7,2.7,2,2.1-2.3c4-0.9,4.1-4.2,7.9-5.5c2.3,1.6,0.9,1.7,1.2,3.9
	c0.6,0.8,1-1.5,1.4-0.7c0.4-0.4,0.3,0.8,0.4,0.4c0.3-0.5-0.1,0.3-0.2,0.3c0.4,0.1,0.4-0.2,0.3,0.1"/>
<path class="st3" d="M480.2,382.2C480,382.6,480,382.7,480.2,382.2L480.2,382.2z"/>
<path class="st3" d="M465.7,375.4c0.3,0.1,0.6,0.1,0.9,0c1.6-0.7,0.6-5.4,2.5-5.3c6.5-1.8-0.3,10.3,7.2,5.6c1.7-0.4,4.3,2,3.6,3.1
	c1.1,1-2.1,0.5-0.3,1.4c1.5-0.6,0.9,1.2,0.6,1.9"/>
<path class="st3" d="M465.2,375.3L465.2,375.3c0.1,0,0.3,0.1,0.5,0.1"/>
<path class="st3" d="M465.6,375.4L465.6,375.4h-0.4"/>
<line class="st3" x1="465.6" y1="375.4" x2="465.7" y2="375.4"/>
<path class="st3" d="M447.8,361.1c-0.7,0,0.3,1.5-0.8,0.9c-2.6,0.9,1.5,2.2,2.7,2.3c0.3-1.6,8.5-4.7,8.7-2.2
	c-1.7,3.3,10.6,2-0.2,8.4c-1.6,7,6.7,2.2,7.1,5.6c0.6,0,1.3-0.1,0.4-0.7"/>
<path class="st3" d="M447.8,361.1l0.6,0.2C448.2,361.1,448,361.1,447.8,361.1z"/>
<path class="st3" d="M508.6,272.3c0-0.1-0.1-0.3-0.5-0.2c-0.2-1.4-1.3,4.1-1.5,4.8c-0.3-1-6.1,3.1-5.6,3.9c-0.2,2-1.7-1.1-2.5-0.5
	c0.8-0.9,0.8-1.6-0.5-1.7c2.7-1.2-1.5-1.3-1-2.5c0.5-0.7-0.8-0.7-0.6-1.5c0.2-1.5-1.9,0-1.9-1.1c-0.5-0.5-0.8,0.4-0.2,0.4
	c-1.8,0.7-1.2,2-3.3,1.4c-2.1-1.1-5.1-9-7.1-5.3c-0.5,0.1-0.5-1.5-0.6-0.7c-1.4,1-2.3,0.4-1.3-0.7c0.6,0,0.5,1,0.6-0.1
	c-1.3-1.6,1.8-2.7,0.8-3.3c-3.4,0.3-1.5,2.9-3.3,0.9c0.3,1.5-2,0.6-2.4,1.8c-1.5,0.4,0.1-0.7-0.8-0.8c-0.9,1.2-0.3-0.2-1.1,0.4
	c-0.3-0.2,0.7-1.4-1-1c-0.2-0.5,1.8-3.6-0.9-2c-1.4,5.7-4-2.9-5.4-0.2c-4.1,3.4-2.1-2.2-3.4-1c-4.3-0.4,0.5,4.2-4.5,1.7
	c-2.8-1.3-3,3.3-4.3,0.6c-8.3-3.1-6.5,3.1-1.4,7.8c-0.8,3-4.3,6.3,2.1,5.9c8.5-2.3,3.5,4.4,5.2,10.1c0.4,1.8,0.7-1.3,1.3,0.6
	c-1.3,0.8,0.8,0.2,0.1,1.2c-1.7-0.2,0.6,1.1-0.9,1.7c0.2,0.8,0.9-0.3,0.4,1c0.5,0.6,1.6,0.4,0.9,1.5c-1,0.3-3.7,0.4-1.1,1.1
	c0.5,0.5-6.2,2.3-2.5,3c1.1,1.8-2.8,3.9,0.7,4.7c-3.4,10.2-13.4,4.2-17.4,8.7c3.1,10-8,8.3-10.7,14.2c1.1,2.8-1.8,3,1,4.1
	c0-1,0.6,0.3,0.4,0.5c-0.4-0.5-1.5-0.1-1,1.2c0.7,1.8-0.5,3.4-1.5,2.6c0.8,1.9-0.8,3.9-1.4,5.9c1.3,0.8,2.1,1,1.5,2.5
	c4.4-1.2,2.3,0.4,4.2,2.9c1-2.2,1-1.1,3.9,0.2c5.2-0.7-3.1,3.8,4.4,5c-3.6,6-1,8,3.4,9.3"/>
<path class="st3" d="M508.6,272.3C508.6,272.4,508.6,272.4,508.6,272.3z"/>
<path class="st3" d="M414.9,205.6L414.9,205.6c0.1,0,0.3-0.1,0.5-0.1c2.2,0,2.6,2.6-0.1,2c4.6,1.8,0,1.6,0.9,3.3c5-0.5,1,7.9,4.4,10
	c12.9,2.8-9.1,1.3-0.9,14.9c3.3-3.1,5.2,0.2,4.9,2.8c0.3,4.2-1.1,3.6,2.3,5.9c-0.8,2.7,2-0.3,2.2-0.6c4.9,0.7-1.3,8.1,5.3,6.4
	c2.8,2.8,4.5-5.6,5.3-1.1c8.4,2.4,17.3-2.8,25.6,0.5c8.2-2.4-0.8-2.7,2.5-9.6c-1.5-10.1,2.2-3.5,6.5-5.4c0.9-2.7-2-9.6,2.5-6.8
	c-0.3-1.9,1.6-0.4,1.1-2.3c-0.3-0.6-1.1-1.7,0-1.6c1,0.5-0.7-1.5,0.5-1.3c0.9,0.1,1.8,0,2.7-0.1c0.5,0.3,0.8-0.9,1.3,0.3
	c-0.9,3.7,4.9,0.9,6.7,1.1c5.2-3.2,8,0.1,5.1,4.1c4.8,0.4,5.4,12,15,10c7.1,4.8,2.6,26.5,5.2,28.6c-1.8,3.3-4.6-6.8-4.4,0.1
	c-3.8,2.3-1.8,1.8-1.3,4.4c0,0.3,0.7,0.4,0.1,0.6c0,0.1,0,0.2,0,0.3"/>
<path class="st3" d="M257.3,44.3L257.3,44.3c1.1-1.4,0.7-0.3,1.8-0.2c22.1,1.1,12.8,6.3,23.3,10.5c0.4,0.8,1.9-0.9,1.4-0.1
	c0.1,0.7,0.3,0.1,0.9,0.2c0.1-0.8,0.6,0.8,0.3-0.3c0.8-2.4,2.7,0.2,3.2-1.4c0.6,1.3,8.8-0.2,5.6,5.4c4.4,0.8,1.3,2.8,1,5.3
	c2,0.1-0.5,3.7,0.8,4.1c0.8,1.5,3.5,4.4,5.3,4.6c0.4,0.1,0.9,0,1.2-0.4c0.5,1.4,0.9,5.8-1.4,7.5c-0.2,0.8,0,1.6,0.4,2.3
	c1,1.6,3.5,2.5,6.1,2.6c1.5-0.3-0.3,0.3,0.3,1.1c0.8,0.1,5.3,2.7,3,2.5c-2.9,1.4,1.2,1.3,1.5,1.7c2.5-1.3-1.1,2.6,1.2,2.4
	c-0.1-0.2,0.5,0.5,1.1-0.3c1.3,0.2,0.6,1.6,2.1,1.3c1.4-0.3,2.8,0,4.1,0.6c0.9-0.6,2.8-0.4,3.7-1.4c6.7,2.8,0.7,0.2,8.5-1.7
	c-0.3,1,1.4,1.1,1.9,1.8c-1.6,3.4,3.4,1.2,2.1,5.4c6.2,3,9-6.6,13.9-2.2c-0.5,5.4,1.8,4,2.2,7.8c1.7,0.3,7.2-3.7,4.2-5.3
	c0.1-3.8,6.9,4.4,6,5.3c-1.7,1.6,0.8,3.7,0.6,6.2c4,1.6,1.3,7.8,7.1,4.2c1.8,4.3,0.6,13.7-2.1,17.2c1,8.5,10.2-3.2,15.1,2.6
	c0.4-1.3,2.4,2,1.8-0.4c0.2-3,3,0.6,4.5-0.3c1.8-4.4,1.7-2.6,6-1.9c1-1.7,2,2.9,2.3-0.2c3-0.8,7.4-4.6,10.1-0.4
	c1.4,0.5,7.3-0.2,4,2.5c-3,0.7,1.3,10.9-4.8,12c-1,24.9-7.1,8.9-10.7,26c3.9,5.8-3,5.7-4.5,7.3c0.4,0.1,0.7,0.3,1,0.6
	c1.4,1.4,0.2,4.2-0.8,6.5c-2.3,0.5-4.7,6.5-1.4,6.9c4.1-2.7,1.9,3.2,3,4.8c2.4-1,5.9,8.3,5.1,3.3c0.6,0.6,1.4,0.8,2.2,0.8
	c2.5,0,6.1-1.8,9.2-3.6c1.8-14,10.1,7.1,4.7,8.1c-0.1,0-0.3,0.1-0.5,0.1"/>
<path class="st3" d="M239.5,25.8l-0.2-0.1l0,0c-0.5-0.5,0-1.4,0.5-0.4c0.6,0,2.4-1.9,2.6-0.1c0.9,3.4,0.3,1.4,2.7,3.5
	c3.1,0.7,1.5,1.7,2.9,3.1c2.4,0.2,0.2,0.3,0,1.2c1.1,0.6,0.1,0.7,0.5,1.2c1,0-0.7,0.4,0.4,0.3c1.3-0.2,1,2,1.2,1.2
	c2.5,0.1-0.2,1.6,1.9,1.9c2.6-2.2,10.6,7.3,4.3,4.9c-1.3,1.5,1,1.6,1,1.8"/>
<path class="st3" d="M136.6,162L136.6,162c0.5-0.8,0.1-1.3,0-2.7c0.1,0.4,2.5-0.7,2-1.9c-0.8-0.6,2.1,0.5,2.3,1.6
	c2.6,1.1,0.5-3.2,2.3-3.6c1.4-0.6-1.2-0.9,0-1.5c6.5-4.7,4.6,0.6,6.6-1.3c0,0.2,1.9-0.1,1.8-0.7c0.9,3.1,3.7-1.7,5.6,0.4
	c0.4-2.6,6.1-1.5,6.1-1.7c0.4-0.1,0.8-0.3,1.1-0.6c2.9-2.6-5.2-9.1-2.8-12.5c0.8-0.4-1.3-0.8-0.5-1.9c0.2-1.6,0.8-1.2,0.1-2.3
	c-0.1-2.6-5.4-5.1-1.9-7.3c5.8,3.5,3.1-2.5,3.9-3.8c1.8-1.7,2.3-8.8-1.3-5.5c-2-0.7-8.8-1-4.6-3c-2-1.9,2.7-0.9,0.1-2.5
	c2-3,1.6-11.5,4.4-11.2c1.2,1-0.8-1.8,0-2.8c1.4-0.2,5.1,1.7,4.2-1.8c2.5-0.2-1.3-1.6,1.4-1.7c1.1,1,5-0.3,6.4-0.9
	c0.1-2.2,2.7-0.1,3,1.3c1.9-0.3,2.9-1.3,4-0.4c2.4-0.3,0.9,0.8,2,1.7c2.9,1.6,2.8,5.7,4.2,5.3c3,0.3-0.4-3.8,3-2.5
	c0.1-0.1,0.2-0.2,0.3-0.2c0,0,0.1,0,0.1,0.1c-0.2,1,0.7,0.1-0.1,1.1c-0.1-0.7-0.7-0.1-0.4,0.5c3.5,3.3,0.8-0.7,5.6,1.3
	c2.7-0.7,6.6,5.6,3.4,8.5c-2.1-1.2,1.5,6.5,1.1,3.8c1.9-0.9,1.9,2,3.9,2.5c2.4,1.6,2,3.8,2.7,6.9c-0.2,0.4-0.3,0.4-0.4,0.3
	c-0.2-0.4-0.2-2.1-0.9-1.5c0-0.9-1.3,0.5-0.6,1c0.8-0.4,1.1-0.1,1.5,0.5c-1.4,1.8,1.9,1.5,0.9,3.8c0.5,0.7,4-0.8,2.8,1.3
	c3.8,2.6,4.5,7.8,8.1,7.6c4-4.3,0.4-0.6,4-1.9c1.4-5.4,1.8,0.7,4.3-0.2c-0.7-3.9,5.2-3.3,6.7-6.1c3,0.2,4,0,5.1-0.8
	c0.8-0.7,1.6-1.5,2.3-2.3c5.3,3.7-1.4-4.6,7-7.4c0.1-1,1.1,0.6,1.8,0.3c0.6,0.1,0.6-1.1,1.5-0.2c2.9-4.7,1,1.2,4.2-2.3
	c-0.1-6.5,4.9,0.8,8.1,0.3c1.7-6.7-0.6-11-3.5-16c-1.8-2.9-3.3-5.9-4.5-9.1c-4.5,0.4-1.3-6.5-1-8c0.5-1.1,2,0.7,1.7-1
	c-6.6-8.5,5.9-10.9,0.3-12.3c-0.4,0.1-1.4-2.8-1.7-1.1c-2-0.2-4.9-2-6.2,0.6c-0.2-0.5-0.1,0.5-0.1,0.6c-0.3-0.7-0.7,1.6-1.4,0.7
	c-3.7,1.5-0.2-4.6-4-0.6c-0.3,2-3.5-0.8-5.7,1c-2.6-1,1.6-2.6,0.3-3.8c-1.6-1.5-1.4-2.1-2.5-3c-2,1.3-2-1.9-3.6-1.1
	c-2.3-1-0.5-3.1-3.6-3.1c-0.9-3.3-5.9-0.4-6.6-2.8c3.1-4.8-8.6-5.5-2.3-12.5c-0.9-0.2,1.4-0.6,0.7-1.7c1.9,0.9,1.4-1.3,1.5-1.3
	c-2.3-1.4-0.1-2.9-1-7c2.3-2,3.7,5.2,5.3,2.1c-0.1,0-0.7-0.2-0.2-0.1s-0.2-0.1-0.2-0.3c0.6,0.5,0.4-0.5,0.5-0.6
	c0.9-0.9,0.7-1.9,2.8-1.9c0.8-0.3-0.7-2.8,0-2.7c1,0.3,1.6-0.7,1.9,0.1c0,0.4,0.1-0.2,0.1-0.2s0,0.4,0,0.4c3.4,2,2.1-1.6,3.4-2.5
	c2.7,1.9,3.5-3.1,5.5-0.6c0-0.6-0.3-1.9,0.7-1.4"/>
<path class="st3" d="M136.6,162c0,0,0,0.1-0.1,0.1C136.6,162.1,136.6,162,136.6,162z"/>
<path class="st3" d="M133.9,165.8c0.3,0.2,0.8-0.1,0.5-0.5c1.9,0,3.3,2.9,2.1-1.6c0.2,0.6,0.2-0.2,0.3-0.3c0.8,0.8,0.2-1.6-0.2-1.4
	l0,0"/>
<path class="st3" d="M133.9,165.8c0-0.1-0.1-0.2-0.1-0.3C133.8,165.6,133.8,165.7,133.9,165.8z"/>
<path class="st3" d="M120.5,255.1c0-0.3,0.3-2.2,0-2c0.5-2.3-0.7-12.4,2-10c3.5-1.4-2.7-1.8-0.4-5c0.4-0.3-1.1-0.5-0.7-1.2
	c4.1-2.6-0.6-1.6-3.3-3.3c-0.3-1.4-0.9-4.2-2.4-3.7c-0.2-0.3-0.4-0.5-0.6-0.1c-0.7-0.3,0.4-0.3-0.6-0.5c-1.5,2.1-2.3-0.2-3.8,0
	c-1.6,0.4-1.6,0.4-2.9-0.6c-0.7,0.2-2.3,1.1-2.6-0.4c0.2,0.6,0-0.2,0.2-0.5c0.2,0.1,1.5,0.3,1.4-0.7c-1.6-0.7,1.9-1.5-0.4-1.9
	c-3.5,1.5-4.6-2.2-7.8,0.7c-1.1,0.9-1.7-1.3-1.5-1.8c-1.3-1.5-3.2-2.4-5.1-2.5c-1.5-3.9,3.1-2.5,0.8-5.4c-0.1-1.1,3.5,1,3.5-0.9
	c0.8-0.7,0.4-0.5,0-0.8c-1.1-0.2-0.3-2.9-1.3-2.8c0.9-4.6-1.3-1.9-1.8-3.9c1.6-7.4-1.9-2.3,3.4-7.2c4.3-1.5,5.8,7.6,8.6,6.8
	c2.8,2.4,1.8-2.3,4.1,1.7c0.1-1.4,1.7-0.9,2.9-1.1c1.2,2.4,4.2-0.1,5.7,1c1.8-0.7,2.1-6.6,5.5-4.1c3.9-3.2,6.3-2.4,7.7-2.8
	c2.2-0.9,1-1.2,1-2.9c-1.4-6.5,1.2-3,2.9-8.2c2.1-4.1-0.8-7.8,2.1-8c1.8,2,0.4-1.6,1.1-1.9c0.3-1.3-0.5-0.9,0.3-1.6
	c1-0.1-0.7-1.8-1.1-0.6c-1.3-0.3,0.4-1.3-0.4-1.6c-0.2-1.1-1.3-1-0.5-2.7c-5.3,2.7-0.9-4.5-2.4-8.8"/>
</svg>
