<svg id="图层_1" data-name="图层 1" xmlns="http://www.w3.org/2000/svg" viewBox="0 0 651.51 651.51"><defs><style>.cls-1{fill:#1a1a1a;}.cls-1,.cls-2{stroke:#545555;}.cls-2{fill:#00334c;}</style></defs><title>安徽</title><path class="cls-1" d="M316.67,375.2s-4.5-6.47-18.56-2.25H284s-7.59-6.75-7.87-19.69c0,0-.29-6.19-1.69-8.16s-.28-12.1,15.19-15.75l5.91-.29s11.81.29,4.5-15.19c0,0-.57-3.93,2.25-5.34,0,0,9.84-18.85-2-21.94l-4.5-1.69s-1.69-1.69-.85-7.59-1.68-7-1.68-7l6.18-2.81s12.94,1.41,16.32-.56c0,0,5.91-1.69,3.09,9.56,0,0,3.38,9,11.54,5.06,0,0,4.5-2,3.37,4.5a8.26,8.26,0,0,0,3.38,7.32l-.85,2.53s-6.18,5.06,1.13,6.75l5.34,5.63s8.16-.85,12.94-4.5h4.51l5.62,1.68H371s4.51,4.22,2.54,15.48c0,0-2.82,5.34-4.5,6.19l.28,3.93s-11-.56-12.66,9l-9.85,11-3.94,7S333,371.82,316.67,375.2Z"/><path class="cls-1" d="M353.43,436.92l-9.28-6.68h-5.81l-2.61-.87-2.32-.87-5.51.29h-3.2l-4.35-1.45h-2l-3.19-.87-7.55-5.8c-7.54-5.81-9.69-25.44-9.69-25.44h-.16a7.4,7.4,0,0,1-.76,1.18c0,2-7.59,6.19-7.59,6.19-.57,5.35-6.48,8.16-7.32,8.16s-6.47,2.25-6.47,2.25c-5.34,9.29-8.72,5.34-8.72,5.34s-3.66-5.62-8.72-1.4c-7.86,6.55-6.75,2.81-3.37-5.06s.28-7.32-1.41-6.47-8.72.56-10.13.56-5.06,0-9,4.22-8.72,5.06-14.35.56-10.4,7.33-10.4,7.33l0,.07.05.07a16.32,16.32,0,0,0,7.13,3.77s6.17,7.73-2.09,6.51c-5.67-.84-16.79,8.39-16.79,8.39s3.15,9.23-5.45,9.44c0,0-5.25,5.25-1.05,7.76,0,0,2.93,5.67,2.93,8.61l1,.84,4,.2s1.89,1.05,0,7.14c0,0-2.31,3.77,3.57,8.18l-1,1.68L199,483.48s-4.62,7.55,5,12.38c0,0,8.61,2.3,7.56,14.89v9.86l-1,1.47s-3.75,3.17,2.39,7.62c1.68,1.22.75,8.66.75,8.66s10.91,9.83,15.12,4.9,4.21-7.54,12-7,12-16.11,12-18.14,5.76-6.51,14.35.64l.14-.29c0-2.9,6.54-11.08,9.73-14.56s5.23-9.29,5.23-9.29-6.1-3.19-1.16-10.15c7.28-10.28,12.47-7.55,16-7s12.77,7.26,13.06-6.38,6.67-12.77,12.18-12.48a59.43,59.43,0,0,0,9.87-.29c0-.87,9-8.41,15.09-8.12C356.34,450.69,353.43,436.92,353.43,436.92Z"/><path class="cls-1" d="M439.73,525c-1,1.5-5,6.26-5,6.26s-10.27,2.25-13.28,5.76-4.25.5-4.25.5a49,49,0,0,1-.25-7.26c.25-2.51-3.26-8.27-10.52-8s-7-4.76-7-4.76v-11l2.26-6.26c.75-9.27-4.51-6.26-4.51-6.26h-1.51s-1-5.76-3.75-5.76-6.76,3.5-8.27-4.76-5.26-2.76-5.26-2.76h-6l-1.5,1c1.5,16.29-8,19.54-8,19.54l-2.5,2.26v2.5c1.75,1.5,1.5,5.26,1.5,5.26l-6.76,2-11.27,4.51-3.51,1c-7.26-1-10.52,2-10.52,2l-7,5H311.23c-8.76-3.51-8.76,13.28-8.76,13.28l.14.53.63-.63a6.78,6.78,0,0,1,6.09,6.09c.87,5.8,3.2,3.78,9.29,3.78S323,554.87,323,556v8.41l3.78,2s6.09,7.26,6.09,8.13,3.77,1.16,3.77,1.16l3.48.29,5.23,3.77,4.06.58,4.06-.87,1.74-.87,6.39,3.49,2.32-.29,3.48-2s12.77-4.35,15.67,8.42v5.51s9,6.1,11.32-2l2-3.19,1.74-1.16,1.74,1.74h1.74l.87-.87,1.45-3.77,1.45-.58s7.84,3.19,10.45-6.1l3.19-2.32L422.5,574l2.62.29,2.32.87h2.61l6.09-6.09.58-2.62v-6.38l4.65-7.54,2.9,2.32s2.54.86,2.9-6.39c.29-5.8,4.06-3.19,4.06-3.19s4.36-6.38-.87-11l-1.45-2.61v-2l.58-3.48-2-1.74S440.73,523.48,439.73,525Z"/><path class="cls-1" d="M423.79,354.94s-6.47,2.35-7.85,13.92-1.17,12.55-3.33,14.32-4.12,1.57-3.92,12.15l-.2,3.92s.57,3-7.84,3.53c-5.88.4-12.75,8.44-12.75,8.44l-1.76,1.17s-2.94-.59-3.33,0-4.91,8-4.91,10,10,12,10,12l1.18,2.15s0,10.39-7.84,11l-7.85.59s-2,2.16,1.77,3.93,13.36,4.43,9.41,13.92c-2,4.7-10.2,7.64-10.2,7.64l-.39,1.57v2a2.56,2.56,0,0,1-.59,1.38,15.62,15.62,0,0,1-1.17,1.37l-1.37,1.79"/><path class="cls-1" d="M444.74,413.12l-5.88,8.48s-1.19,9.9-9,7.95a6.49,6.49,0,0,0-2.17,6.85s.43,1.63-4.25.87-4.68,6.64-4.89,11.1a58.42,58.42,0,0,0,.32,8.82s1.53,7.61-6.09-3.49-10.34,4.25-11.65,6-4,2.07-6.74,2c0,0-6.09,3.91-9.36,3.48"/><path class="cls-1" d="M377.71,422.15s-6.09,2.5-10.56-2.07-9.94-4-9,7c.65,7.84-4.79,10.12-5.44,10.12"/><path class="cls-1" d="M353.55,447.28s3.92,3.16,4,5.33,2.72,4.14,6.2-.1,9-4.47,9.25-3.81"/><path class="cls-1" d="M384.46,466.4c4-9.49-5.69-12.16-9.41-13.92s-1.77-3.92-1.77-3.92v-.13c-.52-.64-6.14.3-9.62,4.55s-6.09,2.28-6.2.11-4-5.33-4-5.33H353a5.42,5.42,0,0,1-5.81,3.84c-6.09-.29-15.09,7.25-15.09,8.12a59.43,59.43,0,0,1-9.87.29c-5.51-.29-11.9-1.16-12.18,12.48s-9.58,7-13.06,6.38-8.68-3.31-16,7c-4.94,7,1.16,10.16,1.16,10.16s-2,5.8-5.23,9.28-9.52,11.4-9.71,14.42l.4.34a19,19,0,0,1,6.53,13.63s1.46,1.89,4.5-.43,2.76,5.08-.14,6.24l-5.81,9.57-1.88.44-1.16-.44s-5.66-2.9-11.61,7.84l1,4.93-2.61,2.47-.29.14,5.81,4.65s5.51-8.13,5.8.29,3.77,2.32,3.77,2.32l4.64-1.45,2.62-5.52,3.19-.58,9.86-1.74L298.31,552s1.16-2.61-3.19-2.91-2-2.9.58-4.35a52.77,52.77,0,0,0,6.38-4.64l.3-.3,0-.29s0-16.79,8.76-13.28h11.53l7-5s3.26-3,10.52-2l3.51-1L355,513.68l6.76-2s.25-3.75-1.5-5.26v-2.5l2.5-2.26s9.51-3.15,8-19.43v-.1l1.37-1.8a15.62,15.62,0,0,0,1.17-1.37,2.55,2.55,0,0,0,.59-1.37v-2l.39-1.56S382.5,471.11,384.46,466.4Z"/><path class="cls-1" d="M503.47,463.75h4.93s3.77-2.9,2.9-15.67l4.65-9.29,2-5.22s2-6.09-5.23-5.8-16-5.51-16-5.51v-8.42a3.81,3.81,0,0,0-4.06.29s-4.3,2.94-12.19-2.32c-4.35-2.9-8.41,4.06-8.41,4.06s-17.94,2.39-27.21-2.8l-.18.05-5.88,8.48s-1.19,9.9-9,7.95a6.49,6.49,0,0,0-2.17,6.85s.43,1.63-4.25.87-4.68,6.64-4.89,11.1a58.42,58.42,0,0,0,.32,8.82s1.53,7.61-6.09-3.49-10.34,4.25-11.65,6-4,2.07-6.74,2c0,0-6.09,3.91-9.36,3.48l-.1.08c-.13.38-.27.78-.44,1.19-2,4.71-10.2,7.65-10.2,7.65l-.39,1.56v2a2.55,2.55,0,0,1-.59,1.37,15.62,15.62,0,0,1-1.17,1.37l.24.32h6s3.76-5.51,5.26,2.76,5.51,4.76,8.27,4.76,3.75,5.76,3.75,5.76h1.51s5.26-3,4.51,6.26l-2.26,6.26v11s-.25,5,7,4.76,10.77,5.51,10.52,8a49,49,0,0,0,.25,7.26s1.25,3,4.25-.5,13.28-5.76,13.28-5.76,4-4.76,5-6.26,7.73-.58,7.73-.58l-.29-1.16,2.32-.58h1.45v-2.9l-.29-2.33v-9.86l3.49-1.16,2-.29s2,.29,2,1.16,1.74,1.45,1.74,1.45l2.32-.87h1.16l1.45,2,2.61,1.16.88-1.16s2.61-2,3.77.29c0,0,9.86,8.42,8.7,0,0,0-1.45-4.35,6.68-4.06l7,.29,2.32-3.48s-5.8.57-5.8-7,.58-6.38.58-6.38.29-3.19-5.22-1.16-4.94-6.68-3.2-7.84l.87-1.16,6.1.29L491,478s4.64-7.83,6.67-.87H500l3.49-4.64Z"/><path class="cls-1" d="M353,437.29c.65,0,5.79-2.41,5.14-10.25-.91-11,4.57-11.53,9-7s10.56,2.07,10.56,2.07l.19.24c0,2,10,12,10,12l1.18,2.15s0,10.39-7.84,11c0,0-6.25.72-7.6.66l-.7.05a12.41,12.41,0,0,0-9.16,4.31c-3.48,4.24-6.09,2.28-6.2.1s-4-5.33-4-5.33l-.28-.36c1.45-3.94.16-9.13.16-9.13l-.75-.54Z"/><path class="cls-1" d="M413.38,382.45s5.56,3.13,5.74,7,1.52,4.21,2,4.39,8.51,10.3,8.51,10.3,5.55,2,9.76.53"/><path class="cls-1" d="M439.29,404.52h.23a12.64,12.64,0,0,1,.11-1.7s20.6,0,15.38-26.11l-.58-1.16a6.32,6.32,0,0,0-1.74-.29h-2l-1.45-1.17-1.74-1.74s-.29-.29-1.74-.29-4.35,2-4.35,2-2,.29-2.9.29a5.8,5.8,0,0,1-2-.58v-2.61l.87-1.45s5.81-6.38-4.64-7.83c-9.25-1.29-8.94-3.71-8.75-7.08l-.2,0s-6.47,2.36-7.84,13.92c-1.17,9.91-1.55,11.84-2.89,13.36l.33.24s5.56,3.13,5.73,7,1.53,4.21,2,4.39,8.52,10.3,8.52,10.3S435.08,406,439.29,404.52Z"/><path class="cls-1" d="M444.45,413.26l.18-.05.17-.21c-3-1.74-5.11-4.31-5.27-8.07l-.46-.12c-4.21,1.43-9.76-.54-9.76-.54s-8.06-10.12-8.51-10.3-1.79-.54-2-4.39-5.74-7-5.74-7l-.09,0c-.27.24-.35.41-.68.68-2.16,1.76-4.12,1.57-3.92,12.16l-.2,3.92s.57,3-7.84,3.53c-5.88.39-12.75,8.43-12.75,8.43l-1.76,1.18s-2.94-.59-3.34,0-4.9,8-4.9,10,10,12,10,12l1.18,2.16s0,10.39-7.84,11l-7.85.59s-2,2.15,1.77,3.92,12.76,4.27,9.74,13l.1.08c3.27.44,9.36-3.48,9.36-3.48,2.72.11,5.44-.22,6.74-2s4-17.08,11.65-6,6.09,3.48,6.09,3.48a58.24,58.24,0,0,1-.32-8.81c.21-4.47.21-11.87,4.89-11.1s4.25-.88,4.25-.88a6.5,6.5,0,0,1,2.17-6.85c7.84,2,9-7.94,9-7.94Z"/><path class="cls-1" d="M423.73,354.79l.18,0c0-.43,0-.88,0-1.34,0-4.06-2-6.67-7-7.83s-.87-12.77.29-13.35,5.22-3.19,5.22-3.19v0c-.19-.23-2.85-2.8-15.65,6.11l-7.55,6.09s-7.54-.29-10.73,4.64c0,0-2.32,2.91-6.39-3.48l-5.37-3.33-7.31-8-.21-.11s-11-.56-12.66,9l-9.85,11-3.93,7S333,371.82,316.69,375.2l-.48.08c-3.38,1.69-12.2,1.89-12.2,5.83,0,3.09-4.43,11.59-6.28,15v.27s1.48,18.64,9,24.45l7.54,5.8,3.19.87h2l4.35,1.45h3.19l5.51-.29,2.32.87,2.62.87h5.8l9.36,6.82.33.07c.65,0,5.8-2.42,5.14-10.25-.91-11,4.57-11.53,9-7s10.56,2.06,10.56,2.06l.18-.12c.23-1.94,4.23-8.9,4.62-9.48s3.34,0,3.34,0l1.76-1.18s6.87-8,12.75-8.43c8.42-.57,7.84-3.53,7.84-3.53l.2-3.93c-.2-10.58,2-10.91,4.16-12.67l.24-.16c1.33-1.52,1.9-4,3.07-13.93C417.27,357.14,423.73,354.79,423.73,354.79Z"/><path class="cls-1" d="M316.35,374.64s-4.18-6.2-18.24-2H284s-7.59-6.75-7.87-19.69c0,0-.29-6.19-1.69-8.16s-.28-12.1,15.19-15.75l5.91-.29s11.81.29,4.5-15.19c0,0-.57-3.93,2.25-5.34,0,0,9.84-18.85-2-21.94l-4.5-1.69s-1.69-1.69-.85-7.59-1.68-7-1.68-7-6.05-13.2-12.36-5.58-7.62,4.78-7.62,4.78-5.66.44-10.66,6.53-8.27,3.7-11.32-.22-3.7-7.29-9.14.44c-4.13,5.88-10.23-2.61-10.23-5.66,0,0-11.94-22.65-22.29,0l-.07.36.07-.07a21.68,21.68,0,0,1,4.19,13l.21,10.91s0,17.83-.63,19.09.84,10.49.84,11.75-4.82,8.6-4.82,8.6,4,9.23-7.13,10.7-25.18-1.47-38.4,26.44c0,0-6.92,11.12.21,12.8,0,0,6.92,2.51,6.29,9.44s6.09,14.69,11.12,8.6,9-2.1,9.45,4c0,0-.42,4.61,9.86,2.72l2.3,2.31,6.18,8,.12-.13-.05-.07,0-.07s4.78-11.83,10.4-7.33,10.41,3.66,14.35-.56,7.6-4.22,9-4.22,8.44.28,10.13-.56,4.78-1.41,1.41,6.47-4.49,11.61,3.37,5.06c5.06-4.22,8.72,1.4,8.72,1.4s3.38,3.95,8.72-5.34c0,0,5.63-2.25,6.47-2.25s6.75-2.81,7.32-8.16c0,0,8.19-5.19,8.19-7.16l.16-.2c1.85-3.41,6.28-11.91,6.28-15,0-3.94,8.82-4.14,12.2-5.83Z"/><path class="cls-1" d="M274,269.69l-4.56-3.26S261.6,261.64,259,245.1c0,0-.22-8.49-2.83-13.06s-5.22-13.49,5.88-8.49c0,0,7.18,5,10.22,7.84s10.23.87,14.37.87,10.45,8.49,14.58,13.27,6.09,10.67,17.63,8.06c0,0,.43,10.66-.65,13.27"/><path class="cls-1" d="M397,216.15l-3.7,5.88s-5.88,15.45-13.49,7.4-12.19,1.52-14.15,5.44-10.23,3-12.62-.87-5.23-1.31-5,5.22c0,0-12.4,13.49-17.41,7s-7.62,2.17-7.62,2.17-2.61,5.44-4.13,5.23"/><path class="cls-2" d="M422.6,328.86c.58-1.49,3.86-9.36,8.32-9.62,4.93-.29,12.19.58,12.48-7s0-14.51,0-14.51,4.64-7.26-2-7.26-4.65-4.93-2.9-5.22-2.9-7-2.9-7,11.89-2.9,15.08-1.16h9s9,5.52,9,10.16h3.19l3.77,4.35s1.74,5.81,6.67-2.61,7-8.7,7-8.7l.58-1.75v-3.48l-.29-1.74s-3.18-3.18,1.74-8.7c2.32-2.62-3.19-6.39-3.19-6.39a22.16,22.16,0,0,1-12.19-11.6c-4.06-9-17.41-8.42-18.28.87v4.64l-4.64-.29-.88.87-.29,6.67s2.62,4.65-8.12,3.78-13.06,0-13.06,0l-3.77-3.2-5.8,2.91-1.17-.58-.58-4.65-.87-1.16-6.38-3.77.29-1.45,1.45-2s-14.8-7.84-2.32-10.45l.87-1.45-.87-1.45-1.16-1.16-1.16-.87s-2.9-8.42,1.45-11l.29-9.58s-2.61-4.93-6.39.29a20.45,20.45,0,0,1-7.43,2.53l-3.61,5.74s-5.88,15.46-13.5,7.41-12.18,1.52-14.14,5.43-10.23,3.05-12.63-.87-5.22-1.3-5,5.23c0,0-12.41,13.49-17.41,7s-7.62,2.18-7.62,2.18-2.16,4.66-4.13,5.22v.62c.06,1.4.34,10.25-.66,12.66l-.1.17c1.28.8,2.38,3.27.84,9.43,0,0,3.38,9,11.53,5.06,0,0,4.5-2,3.38,4.5a8.26,8.26,0,0,0,3.38,7.32l-.85,2.53s-6.19,5.06,1.13,6.75L343,308.1s8.16-.84,12.94-4.5h4.5l5.63,1.69h5.06s4.5,4.22,2.53,15.47c0,0-2.81,5.35-4.5,6.19l.26,3.75,0,.19L377,339l5.37,3.34c4.06,6.38,6.38,3.48,6.38,3.48,3.19-4.93,10.74-4.64,10.74-4.64l7.54-6.09C418.88,326.81,422,328.4,422.6,328.86Z"/><path class="cls-1" d="M294.15,198.91l-.44-.66-.43-3.7c1.3-8.92-3.49-19.37-13.5-17.19s-8.92-3.27-8.92-3.27l-.65-3c1.64-18.89-4.66-26.93-5.37-27.78-2.26,1.29-4.66.63-7.92.34,0,0-9.44,10.08-13.85,2.1l-5.67-5.66s-2.1-28.75-13.84-20.14c0,0-3.57,1-3.57-3.36,0,0-4.83-13-19.72,1.47,0,0-8.82,8.39.21,11.33,0,0,8,6.29-2.73,6.5l-1.05,1.26s1.68,6.71,0,10.7c0,0,4.85,11.85-.21,14.24.36.78,2.4,4.82,6.47,5.73,2.86.65,12.53,10.6,12.53,10.6s4.23,2,4.66,9.64-2.18,10.89-5,13.93,1.74,9.8,6.52,10.88,9.07-2.61,9.36,6.75c.22,7,3.48,6.09,3.48,6.09s5,1.75,5.66,7l.44,1.74,2.61.65,2.61.66,3.27,2.61,8.48-1.31.27-.07a18.91,18.91,0,0,0-1.79-4.93c-2.61-4.57-5.22-13.5,5.88-8.49,0,0,7.18,5,10.23,7.83,2,1.9,5.41,1.88,9,1.5-.22-3.73,4.49-6.94,4.92-7.59s2.18-2.83,2-4.14-2.17-8.27,2.83-11.53S294.15,198.91,294.15,198.91Z"/><path class="cls-1" d="M262.64,275.82c5-6.1,10.55-6.42,10.55-6.42l.09-.09-3.89-2.78s-7.84-4.79-10.45-21.33a44,44,0,0,0-1.08-8.07l-.32,0-8.49,1.3-3.27-2.61-2.61-.65-2.61-.66-.44-1.74c-.65-5.22-5.65-7-5.65-7s-3.27.87-3.49-6.09c-.29-9.36-4.57-5.66-9.36-6.75s-9.35-7.84-6.53-10.88,5.45-6.31,5-13.93-4.66-9.64-4.66-9.64-9.67-10-12.53-10.6c-4.07-.92-6.11-5-6.47-5.74l0-.06a4.46,4.46,0,0,1-.55.2H182.64s-.63,6.29-8.18,3.77c0,0-2.52,2.73.21,17,0,0,.42,5.66-2.73,8.18l-.84,4.83v2.09S159.77,215,147,206.77s-12-7.77-12-2.94,4,4.82-.21,10.28,1.26,4.83,4,6.71,24.76,6.09,16.79,22l-.42,6.93s3.77,3.56,0,7.34c0,0,.21,5,6.29,1.68l1.47-.21.63,6.72s.42,7.34,5.66-3.36c0,0,3.57-3.36,5.46,2.52l5.24-.63s2.31.42-.21,5.87c0,0,5.25,14.27,15.74,5.88,0,0,4.28-6.32,7.13-1.68,1.46,2.37,5.78-1.92,6.88-3.08l.21-.46c10.35-22.65,22.29,0,22.29,0,0,3,6.1,11.53,10.23,5.66,5.44-7.73,6.1-4.36,9.14-.44S257.63,281.91,262.64,275.82Z"/><path class="cls-1" d="M274.11,270.08l-4.57-3.27s-7.84-4.78-10.45-21.32c0,0-.22-8.49-2.83-13.06s-5.22-13.5,5.88-8.49c0,0,7.18,5,10.23,7.83s10.23.87,14.36.87,10.45,8.49,14.58,13.28,6.1,10.66,17.63,8.05c0,0,.44,10.67-.65,13.28l-.27.25a3.17,3.17,0,0,0-2.09-.22c-3.37,2-16.31.56-16.31.56l-6.19,2.53s-6-13.2-12.35-5.59-7.62,4.79-7.62,4.79"/><path class="cls-1" d="M285.32,123.22s10.45,1.31,14.15-3.7,12.19-5.44,10.23,1.53-3.7,8.7-3.7,8.7,7.4,5.88,1.09,13.49c0,0,2.61,12.85-5.45,15.68,0,0-2,20.67,6.32,20.23,4.13-.21-.44,6.75-.44,6.75s-9.15,15.08-13.94,11.82"/><path class="cls-1" d="M299.47,119.52c-3.7,5-14.15,3.7-14.15,3.7h-.18c1.85,4.75,2,10-5.56,11,0,0-8.19.21-11.54,5.67a9.63,9.63,0,0,1-3.17,3.41c.13.14,7.16,8,5.44,27.85l.65,3.05s-1.09,5.44,8.92,3.26,14.8,8.27,13.5,17.2l1.23,3.54c4.79,3.27,12.91-12.25,12.91-12.25s4.57-7,.44-6.75c-8.29.44-6.32-20.23-6.32-20.23,8.06-2.83,5.45-15.68,5.45-15.68,6.31-7.61-1.09-13.49-1.09-13.49s1.74-1.74,3.7-8.7S303.17,114.52,299.47,119.52Z"/><path class="cls-2" d="M391.17,198.31l.1,0a10.51,10.51,0,0,1,3.38-3s-1.45-14.8,9-12.47c0,0-1.45-15.09,5.52-14.8,0,0,4.64-7.26-2-10.74,0,0-9.58,1.16-12.48-1.74,0,0-4.06.58-5.8,2s-15.38.29-15.67-4.93c0,0,4.64-11.32,1.74-11.32s-4.07-1.45-5.23-9.87-7.83-1.16-7.83-1.16-2.13.27-3-3.71-4.61-3.57-6.5-1.26-3.57.42-5.88-3.36-5.24-4-8-1.47-7.55-2.3-9.86-4.61-9.65-7.14-9.65-7.14,6.92-5.87-1.68-12.16c0,0,2.31-17.42-12.38-12.38a8.85,8.85,0,0,1-6.5-5c-1.89-4.4-7.14-1.68-10.91-3.57s-3.57-1.88-1.89-4.19-1.26-2.31-2.94-4-4.4-5.66-4.61-7.55-5.67-8-12.38-1.26l-1.47,1-4.2-.21-.42,4.2s-6.92-1.89-5.45,6.71l.21,5.46s2.52,1.67.63,6.08V84S269.51,87,268,95.15c0,0-1.68,3.36,4.19.42s8.6-2.52,8.6-2.52,1.26-1.26.21,4.61l.42,2.94,1.05,1.47L280.63,104l-.22,2.31,2.1.84-2.1,3.14.22,5a37,37,0,0,1,4.51,7.93h0s10.44,1.31,14.14-3.7,12.19-5.44,10.23,1.53-3.7,8.7-3.7,8.7,7.4,5.88,1.09,13.49c0,0,2.61,12.85-5.44,15.68,0,0-2,20.67,6.31,20.23,4.14-.21-.43,6.75-.43,6.75s-3.23,6.52-6.89,10.24a22.33,22.33,0,0,1,4.93,2c12.19,3.48,9.79-5,9.79-5l-.43-7.18.87-1.52,6.52,1.3c2.62-6.09,4.79-6.31,12.85-6.53S343.5,185,343.5,185s1.31,10.23,11.32,9.36,12,4.57,12,4.57,2.39,8,8.92,1.31C383.42,192.3,391.17,198.31,391.17,198.31Z"/><path class="cls-2" d="M397.08,216.43l.11-.31c-3.89.39-7.91-1.17-8.05-9.18a13,13,0,0,1,2-8.39c-.7-.51-8.06-5.57-15.4,2-6.53,6.74-8.92-1.31-8.92-1.31s-2-5.44-12-4.57-11.32-9.36-11.32-9.36-.43-6.09-8.48-5.88-10.23.44-12.85,6.53l-6.52-1.3-.87,1.52.43,7.18s2.4,8.49-9.79,5a18.91,18.91,0,0,0-4.62-2.11l-.22,0c-2.06,2.11-4.23,3.39-6,2.21l-.9.1.44.66s1.74,7.39-3.27,10.66-3,10.23-2.83,11.53-1.52,3.49-2,4.14-5.14,3.86-4.92,7.59l0,.28c2-.19,4-.47,5.53-.47,4.14,0,10.45,8.49,14.58,13.28s5.75,10.69,17.28,8.08c2-.56,4.58-5.78,4.58-5.78s2.61-8.71,7.62-2.18,17.41-7,17.41-7c-.22-6.53,2.61-9.14,5-5.23s10.67,4.79,12.63.87,6.53-13.49,14.14-5.44,13.5-7.4,13.5-7.4Z"/></svg>