<svg id="图层_1" data-name="图层 1" xmlns="http://www.w3.org/2000/svg" viewBox="0 0 650.78 650.78"><defs><style>.cls-1{fill:#881c21;}.cls-1,.cls-2,.cls-3,.cls-4{stroke:#545555;}.cls-2{fill:#c9caca;}.cls-3{fill:#1b1b1b;}.cls-4{fill:#023652;}</style></defs><title>京津冀</title><path class="cls-1" d="M439.13,322.86s-5.13-2.11-1.82,1.52c0,0,1.6,1.12-1.59,5.95,0,0-4.41,10.35-4.1,16.55,0,0,.93,1.87-1.38,4.65,0,0-.74,1,1.22,2l.26,1.29s1.71,3.95-.82,4.72l-4.11-.26s-2.18-.28-2.69,1.34-3.35,2.19-4.26,3.17l-7,2.74s-3,1.94-3.16-1.52.11-3.15-2.43-2.47-3.76,2-5.1,4.06-4.31-.31-4.31-.31a9,9,0,0,1-2.84-4.08c-.78-2.53-2-2.56-2-2.56s.31-1.22-5.07,0c0,0-5.08,2.79-6.74,0s-3.78-1.84-4.94-1.61l-3.19.64-1.67-.48-2.57-4.13.82-3.3-.1-.51s-4.91-5.19-3.73-9.45a31.49,31.49,0,0,1,1.6-5l-.21-1,.35-1.05,5.71-4.71,2.7-.81a2.25,2.25,0,0,0,.8-2,29,29,0,0,1,1-3.86s.85-3.39-2.23-4.21-4.65-1.36-3-4.82c0,0,1.1-2-1-4.53-1.15-1.38-5.85,2.22-5.85,2.22s1.08-6.24-2-5,2.25-6.34,4.09-9.84c0,0,1.16-2.33-3-3.86,0,0-2.36-.29-.67-4.34a4.4,4.4,0,0,0-2-2.86c-1.94-1.4.25-5.72.25-5.72l1.11-4.42a6.25,6.25,0,0,1,1.85-1.62,3.69,3.69,0,0,0,1.42-1.18l2.88-2.23s1.06-.74,1.36,1,1.73,1.71,2.51,1.69,8.07.45,10.87,1.73c0,0,2,.27,2.14-1.54s-10.66-7.16-11.48-9a2.92,2.92,0,0,1-.29-1.58,14.26,14.26,0,0,1-2.72-1.62c-1.72-1.22-5.86-2.67-2.49-4.06l11.27-1.26s1.24-.23-3.35-1l-13.05-6.15,8.42-5.18s9,6.63,8.61,4.52c0,0-10.28-7-8.79-8.14,0,0,4.18-.32,1.62-6l7.53,1.09a3.72,3.72,0,0,0,1.14-4.74s-8.59-10.31-3.76-11.09c0,0,10.4,6.64,11.25,4.86a11,11,0,0,1,2.72-3.27,3.35,3.35,0,0,0,.45-2.59,2.69,2.69,0,0,1,1.47-3.29c1.2-.46,2.1-1.75,5.69-.86a5,5,0,0,0,2.06-.32c1.53-.44,3.34,1,3.79,3.27s4.47,3.45,4.91,3.58,1.46.12,2.22,2.34,3.37,1.83,3.37,1.83a4.76,4.76,0,0,1,4.72,1.7,4.52,4.52,0,0,0,1.35,0c.34-.11-.12.79-.12.79s-2.75,3.14.36,3,2.77-.42,3.17,1.33.88,3.27.88,3.27l-.13.52-2.12.24s-.59-.2-2.42-.77,4.19,2.51,2.18,4.25,3,3.5,3,3.5-8.08-2.25-8.86,2.46c0,0-11.68-3.59-10.51,1.18l3.14,5.1a13.39,13.39,0,0,1,.41,2.51c.13,1.59.08,2.49,1.51,2.48s2.14.33,1.89,2.34,2.11,1.78,2.92,1.66,2.47.36,3.39,2.9c0,0,1.88,2.27-.82,4.72,0,0-1.07,1.78.85,2.16a1.64,1.64,0,0,1,.92,1.16s.08.16,1.43-.24,1.81-.9,2.41,1.22-.14,1.88,1.56.24l-3.32-4.88,4.68,3.79.2-1.78s-.67-1.52,3-1.62a38.6,38.6,0,0,0,8-1.31s3.68.43,1.81,4.47a19.94,19.94,0,0,0-.46,4.91,10.25,10.25,0,0,1-.71,4.3l.36,2.08s6.44.66,4.12,1.75-6.32,4.09-5.11,2.78l1.29-.48s.06,2.62,2.86,1.84c0,0,1.08-.12,3,1.19l.78-.25s.87-1,3.15,1.43l.54.16s2.47-.8,3.06,1.23c0,0,0,1,1.37,1.33s1,1.28.63,2a12.34,12.34,0,0,1-.86,1.47s-1.31.35-1.59.36-1.82.36-2,1.17l-.89.4-1.55.53s-2.14,1.09-2.71,1.47-2.88,2.23-2.88,2.23l-.86.8s-3.14,4.64-4.1,5.64-3.62,2.19-1.57,5.76a4.38,4.38,0,0,1,.3,2.94c-.45,1.43,1.27,2.88,1.27,2.88S443.18,323.75,439.13,322.86Z"/><path class="cls-2" d="M316.86,607.64s4.87-4.57,6.37.21,2.71,9.75,8.11-7c0,0,7-12.21,13.36-2.74s8.93-1.64,8.93-1.64l2.64-2.1s3.11-2,.26-5.59c0,0-4.45-10-8-11s-7.51-10-7.51-10-4.86-10.34.78-12.13c0,0,3.68-3.09,5.38-11.11,0,0,8.27-8.43,10.17-8.19,0,0,4.91-14.71,3.92-17.24s3.81-11.77,3.81-11.77-.29-4-1.19-4.85c0,0,3.42-7.79,1.94-10.6,0,0,2.06-13.1,12.86-12.37,0,0,5.7-1.25,1.09-3.93,0,0-5.49-6.17,1.63-17.17,0,0,1.62-1.24,4.67,3.55,0,0,7.51,8.3,12.81-18.33,0,0,3-18,10.19-16.26,0,0,20.28-5.29,26-8.92l7.06-2.26s5.35-3.22,4.28-9.21,1.81-10.15,6.05-12.94,7.7-9,5.24-15.4l-4.17,2.56s-.7-4.64-1.79-5.2,2.36-1.33,3-.9,2.52-1-.32-3.31-13-7.56-18.85-17.84c0,0-4.84-5.8-5.33,2.24,0,0,.31.88-3.08.39-1.9-.28-10.84,5.18-10.84,5.18s-1.4.6-3.71-4.5c0,0-3,.92-5.94,6.29,0,0-2,.93-3.09-4.07s-5.65-5.53-11.58-.23-6.28-1.48-7.46-2.56-5-1.63-5-1.63-10.41-12.53-5.38-21.79c0,0,5.3-1.26,5.89-6,0,0,4.06-7.55-2-4.51l-3.21-6.33-.48-1.87.3-2.89-.28-2.55-.83-1.47-1.59-1.43L370.52,305l-1.06-1.54-.37-1.34,1-1.71,1.14-1.42.78-1,.25-.91-1.77-.74L369.3,296l-1.36-1.37.53-2.82-2.07-.58-1.56-2.41-.31-1.57,1.09-2.17,4.26-1.06,2.34,1.39s.67-6,3.88-2.39c0,0,15.16-2,9-11.89l-2.32-6.83s4.41-5.22.73-6.24c0,0-6.93-.92-3.87-12s1.34-7.56,1.34-7.56l1.7-3.49,1-2,1.55-2,1.24-.9.05-2-.71-1.93-1.23-1.82s5.84,3.1,10,1.29,8.05,5,8.05,5S408,233.15,409,232s11.84,8.23,6.54,9.49-12.64,2.7-12.64,2.7-3.48,2.75-1.56,4.77S407.43,262,407.43,262s4.22,2.65,6.71,2.6,1.71,8.15,1.71,8.15A6.94,6.94,0,0,0,419.7,274c2.66.24.81,2.45.81,2.45s1.94,1,3.1-1.37,11-12.07,10.76.5L434,280.7l.6,1.41s.83,4.18.19,6.49l-.38,1.38s4.13-3.31,5.54.54c0,0,2.93,1.06,4.3-.3l3,2.56,3-.15,5,2.61,3.56,1.48,2.27,4.34s4.91,2.84,6.12,2.93l1.59,1.43s4.48-1,5.37-4.21c0,0,9.66-13.44,14.45-12.85,0,0,8.23,4.25,10.16-3.63,0,0,1-4.67,2.31.63,0,0,1.21.09,2.35-4.06l4.2-.82s3.85-5.87,3-8.32c0,0-.13-1.83,2.55-3.48,0,0,2-3.56.36-6.25,0,0-.48-2,3.67-2.75l1.66-.4.65-2.39-3.31-5.38-.36-1.81.85-4.91s.22-.79-.83-.74a14.26,14.26,0,0,0-2.74.62s-3.16-.36.86-2.51c0,0,5.18-2,1.12-6.54l2.75-8.68s3.33-5.24,4.81-5c0,0,3-1.41,1.49-3.53l-.56-1.69,1.35-4.26s3.39-1.12,4.19-.9l.83-3s6.23-2.05,6.09-4.66c0,0,8.84-5.44.75-7.67-6-1.67-7.36-8.72-7.36-8.72s-4.6,1.13-6.08-2.19-4.16-8.52-9.71-7.66l-.83-.74s3.91-10.41-3.62-12.32l-2-4.49s-8.26,5.08-10.28,5.55-5.65,1.87-8.32-.24l-.45-1.49-3.63-.49s-1.81-1.53-1.9-6.18c0,0-1.79-2.21-3.82,2,0,0-3.84,1.51-8.7-1.38s-7.9-4.92-8.53-5.1-2.08-3.66-2.08-3.66l-1-4.55.55-2.59L461.4,139l3.05-1.72s3.65-3.29-1.06-4.24l-3-.16-1.5-.75s-1.93-2.94,2.58-3.75c0,0,3.8-1.35,4-8.16,0,0,6.59-4,1.59-5.73l-.9-1.11s9.33-4.62,3.32-9.54c0,0-16.65,10.66-23.4,2.8,0,0-5.41,1.59-6.56,4.52,0,0-2,1.52-5.62.51,0,0-11.63,1.76-10.81,7.47,0,0-2.54,5.47-4.84-.48s-3.1-9.26-7.22-9.19c0,0,3-13.24-2-10,0,0-4.87.89-6.63-2.68s-2.51-5.84-5-6.54-3.73-8.23,1.78-7,7.29-3.47,6.51-7.46l-4.45-3.12s-1-5.59-.88-6.75-4.12-1.82-3-7.69c0,0-3.31-2.28-5.12,3,0,0-2.75,5.59-4.41,1.7a40.5,40.5,0,0,0-2.85-3.36c-.82-.74-.53-6.14-2.92-6.81s-7.09-1.61-7.09-1.61a24.62,24.62,0,0,1,2.8-6.43c1.66-2.28-3-3.92-3-3.92l-4.74-7.65L363.05,31s-5.56-8.39-8.54-6.3S348,29.7,348,29.7l-6.38.12s-6-2.35-4.83,10.66c0,0-.83,3-7.57,3.23s-14,.93-15.88,5.38c0,0-7.61,7.67-4.28,12.36s5.4,12.12.81,11.36c0,0-4.87-1-.48,3s8.25,13.59,2.48,16.45c0,0-4.42,2.38-4.95,4.29a19.06,19.06,0,0,1-14.42,1.32s-3.19,7.18-4.84,1.41-6.05,1.42-6.05,1.42-3.54,3.48-4.37,6.5a11.47,11.47,0,0,1-3.29,5.09l-1.61,8.3s-5,2.72-6.83-4.46c0,0-3.67-10.27-11.11-4.44,0,0-20.76,26.15-23.52,25.56,0,0-3,3.29,1.48,5.21s1.38,4.32-1.33,3.57-5,3.08-5,3.08-4.51.82-5.75-.9-4.59,2.33-4.59,2.33l-5.56-.33s-7.17,6.07-5-1.89l.25-3.36s-2.58-6.2-3.37-6.42l1.65-5.37-2.94-4.24s1.06-5.7-2.11-7.26l-3.33-4.69s-3.27-15.48-8.14-4.65c0,0-.43,2.79-5.41,1.59s-10.81,5.58-6.94,11.45c0,0,.59,5.31-3.19,6,0,0-8.32,1-7.35,5.51l-1.8,9.62s.24,8.47,2.84,10.21,1.11,5.28,1.11,5.28,1.33,4.48,1.76,4.77.87,5.56-2.22,5.56-10.26-3.18-13.34,3-3.88,9.72,1.75,10.42l0,3.93,2,7.06s7.54,1.23,3.2,5.17c0,0-7.66,7.37-3.47,12.54l4.21.76,2.09,2.59,4.4,4.42,4.22,3.58.12,6.86,4.64,2.08,11.63,11.64,3.07,4.86s3.42,13.79,11,12.66c0,0,16.09-1.58,1.63,10.08,0,0-10,4.07-11.46,8.07l-2.59,2.1s-4.66-.74-2.09,4.85-4.06,3.51-4.06,3.51l-.89-.51-1.78,6.45a5.14,5.14,0,0,0,3,2.12l2.15.6.9,2.31,5.5,1.51s4.83-.72,5.54-.52A29.1,29.1,0,0,1,201,306.7s3.91-.2,4.83-.72,4.85-1.74,7.44,2.83l2.6,12s5.08,1.14,6.51,1.54,6.68,4.67,4.82,14.19-2.52,14.73-2.52,14.73l1.55,2.74s6.09,6.82-1.15,7.9l.07,4.4-9.08,9.58s-3.59,1.83-10.64-2.43c0,0-10.91,1.36-14.4,18.64,0,0,15.14,15,4.84,16,0,0,.15,6-2.37,5.78l-1.29.93s.84,5.37-4.82,5.35c0,0-1.18,8.93.8,13.85l.65,7.89,4,7.8,7,3.47,4.24,3.23,1.79,1,5.37-.83.61,4.29s3.52,1.22,4.6,3.84,2.72,6.92,2.72,6.92,5.45.73,8.34,8l.69,1.22s7.5-2,2.32,8.35l1.3.87s15-6.67,10.06,9.21-5.41,19.59-5.41,19.59-2.67,3.12-3.17,4a10.39,10.39,0,0,0-.62,3.17,19,19,0,0,1-2,11c-3,6.13-1.74,7.24-1.74,7.24l2.7,9.74,2.85,6.44s1.48,5.81-4,5.08c0,0-2.6-1.75-2.25,3.49,0,0,1.85,5.39-4.66,8.48l-4.44,2.12-.18,2.52a4.4,4.4,0,0,1,1,4.65,9.67,9.67,0,0,0,5.58,3.09s4.15-.14,2.59,7.39a7.46,7.46,0,0,0,5.55,4.11c4.36,1,8.75.87,7.87,5l.95,3.09,3.06.07,2.73-3.35s3.11-2,4.07-1.71,3.43-.33,4.39-.07,4.28-.62,4.28-.62l2.62-1.07.55,4.52,1,2.07,3-.47,4.71-1.27a21.2,21.2,0,0,1,15-1.25l9,2.74,2.62.73,1,.26.86,1.53,1.31.87,2.07-1,2.7-2.34,4.76-.49,3.13-.16Z"/><path class="cls-3" d="M313.9,192.11c-7.86-3.2-5.37-6.62-5.37-6.62l-.78,0-1.45-2.2-3.12-2.66-3.73-2.32-1.86-2.57-3.5-6.88-3.24-5-2.14-3.42-1.6-3.53a7.08,7.08,0,0,0-8.39-1.28s1-4.6-5-7c0,0-12.75-9.69-2.39-27.65v-.06c-1.56.39-4.55.38-5.85-4.82,0,0-3.67-10.27-11.11-4.44,0,0-20.76,26.15-23.52,25.56,0,0-3,3.29,1.48,5.21s1.38,4.32-1.33,3.57-5,3.08-5,3.08-4.51.82-5.75-.9-4.59,2.33-4.59,2.33l-5.56-.33s-7.17,6.07-5-1.89l.25-3.36s-2.58-6.2-3.37-6.42l1.65-5.37-2.94-4.24s1.06-5.7-2.11-7.26l-3.33-4.69s-3.27-15.48-8.14-4.65c0,0-.43,2.79-5.41,1.59s-10.81,5.58-6.94,11.45c0,0,.59,5.31-3.19,6,0,0-8.32,1-7.35,5.51l-1.8,9.62s.24,8.47,2.84,10.21,1.11,5.28,1.11,5.28,1.33,4.48,1.76,4.77.87,5.56-2.22,5.56-10.26-3.18-13.34,3-3.88,9.72,1.75,10.42l0,3.93,2,7.06s7.54,1.23,3.2,5.17c0,0-7.66,7.37-3.47,12.54l4.21.76,2.09,2.59,4.4,4.42,4.22,3.58.12,6.86,4.64,2.08,11.63,11.64,3.07,4.86s3.42,13.79,11,12.66c0,0,16.09-1.58,1.63,10.08,0,0-10,4.07-11.46,8.07l-2.59,2.1s-4.66-.74-2.09,4.85-4.06,3.51-4.06,3.51l-.89-.51-1.78,6.45a5.14,5.14,0,0,0,3,2.12l2.15.6.9,2.31,5.5,1.51s4.83-.72,5.54-.52A29.1,29.1,0,0,1,201,306.7s3.91-.2,4.83-.72,4.85-1.74,7.44,2.83l2.6,12s5.08,1.14,6.51,1.54a7.28,7.28,0,0,1,3.25,3l.05-.05.76-1.84,1.87-.25,2,.28.26-.95c-.51-3.74,4.27-2.42,4.27-2.42l1.76-5.43c1.54.94,7.23,1.74,7.23,1.74l2.71-5.16c4.71,1.56,6.47-3.87,6.47-3.87l6.59-1.52c7.6,1.32,11.53-24.07,12.57-29.7s10.35-12.31,10.35-12.31c8.06-.34,12.28-8.17,12.28-8.17,9-15-7.83-19.13-7.83-19.13L283,232.18c-4.38-10.21,7.41-12.86,7.41-12.86,10.27,2.83,14.77-19.06,14.77-19.06l1.66-1.34C313.37,201.48,321.76,195.31,313.9,192.11Z"/><path class="cls-3" d="M365.61,381.2c12.24,6.55,12.15-6.73,12.15-6.73l.64-5.17c5.12-1.36,3.62-8.11,3.69-9.08s.38-4.24.38-4.24l.07-.23a24.22,24.22,0,0,0-3.05-.69s-10.41-12.53-5.38-21.79c0,0,5.3-1.26,5.89-6,0,0,4.06-7.55-2-4.51l-3.21-6.33-.48-1.87.3-2.89-.28-2.55-.83-1.47-1.59-1.43L370.52,305l-1.06-1.54-.37-1.34,1-1.71,1.14-1.42.78-1,.25-.91-1.77-.74L369.3,296l-1.36-1.37.53-2.82-2.07-.58-1.56-2.41-.31-1.57.09-.17-.12,0c-1.15.45-3.39-2.49-3.39-2.49l-.95-.26-1.05,1-.46,1.68-.9,2.32-1.19-.33-2.16-.6-2-.29-2,1.76-4,5.07s-4.19,4-1.57,7.54-1.15,5.08-1.15,5.08l-10.92-3.27-.86-2.8-.27.18-4.75,2.79s-3.8,11.29.62,13.89c0,0,7.22,2.46,10,13.2,0,0,1.62,2.58,6.34,2.39a3.57,3.57,0,0,1,1.93,4.58l.57,3.33,1.4,3.37s0,6.8-6.56,6l-1.69.33c3.26,1.74,12.4,3.26,12.4,3.26,6.42,2.57,6,9.78,6,9.78l-.46,1.65.12,1,.43,1.31.19,1.44-.41,1.47.8,1.41.9,1,1.14.91.9,1,1,1.27.9,1,.9,1Z"/><path class="cls-4" d="M312.91,469.43c3.06-3.62,1.54-8.66,1.54-8.66s-3.89-8.28-1.44-11.54,3.52-9.66,3.52-9.66l-1-3.19c2.74-5.58-2-6.54-2-6.54l-7.67-2.63a18.85,18.85,0,0,0-6-6.8l-.18-.11a5.15,5.15,0,0,0-4.74,1.87s-2.11,3-7.71.21c0,0-1.47-.83-3.11,3.6a12.11,12.11,0,0,1-3.43.11c-1-.27-6.21,1.69-6.21,1.69l-.35-5.62s-2.72-4.78-4.55-5.08-3.9-2.78-3.9-2.78-4.57-1.9-6.54-.95a6.23,6.23,0,0,1-8-2.43c-2.19-3.58-16.07-11-21.88-9.23a27.85,27.85,0,0,0-9.82,5.57s-8.74,7.11-20.34-.72c-.48.83-1.48,1.41-3.23,1.58,0,0,.15,6-2.37,5.78l-1.29.93s.84,5.37-4.82,5.35c0,0-1.18,8.93.8,13.85l.65,7.89,4,7.8,7,3.47,4.24,3.23,1.79,1,5.37-.83.61,4.29s3.52,1.22,4.6,3.84,2.72,6.92,2.72,6.92,5.45.73,8.34,8l.69,1.22s7.5-2,2.32,8.35l1.3.87s15-6.67,10.06,9.21c-1,3.24-1.82,6-2.49,8.27,2.46-3.3,9.69-6.23,11.5-6,2,.21,13.34-6.08,13.34-6.08l8.56-4.32c6.66,1.32,11.76-12.18,12.6-15.21s6.58-5.2,6.58-5.2,3.82-2,4.94-3.61,4.4-2.9,4.4-2.9,2.12,3.5,4.71,4,4.1,4.39,4.1,4.39l.2-.12C310.94,471.75,311.76,470.78,312.91,469.43Z"/><path class="cls-3" d="M379.75,475.58s-5.49-6.17,1.63-17.17c0,0-3.19-7.63,1.26-17.2,0,0,.69-6.24,1-9.24s1.7-12.64,1.7-12.64-.73-2-6,.16a55.45,55.45,0,0,0-8,3.95,17.51,17.51,0,0,1-4.52,5.18c-2.5,1.62-6.7,3.8-6.7,3.8l-2.87-.79a12.69,12.69,0,0,0-2.17-2.4,21.49,21.49,0,0,1-2.75-3.07l-1.4-1.42-1-5.68-.08-1.56-.45-1.15-1.57.08-3.56.81s-.61.35-1.44-.4l-.82-.74-1.1-1.59-3.24-.38-1.26-.09a7.59,7.59,0,0,1-1-1.83l-.28-.85-.69-1.22-2.58-2.76-.89-.51-2.58.06-2.35.12-1.2-.33-1.67-.46-.14,0c-.32,2.65-1.54,6.43-5.88,6.06-6.65-.56-12.64,5-12.64,5s-2.08,3.68-3.86,3.19l-.43-.06a18.85,18.85,0,0,1,6,6.8l7.67,2.63s4.71,1,2,6.54l1,3.19s-1.08,6.39-3.52,9.66,1.44,11.54,1.44,11.54,1.51,5-1.54,8.66-3.79,4.43-4.06,5.39.81,6.39,5,4.81,11.67-5,9.38,3.28l-1.23,4.46,11.13,5.64,4-.1s5.53-.18,5.43,2c0,0,2.59,2.43,4,2.31s3.08,0,3.23.72,4.91,3.93,4.76,5.08,1.55,2.49,1.55,2.49l2.47.34,4.6.75,1.4-.12.14,0c-.14-1.21-.47-3.48-1.12-4.07,0,0,3.42-7.79,1.94-10.6,0,0,2.06-13.1,12.86-12.37C378.66,479.51,384.36,478.26,379.75,475.58Z"/><path class="cls-3" d="M536.8,196.19c-6-1.67-7.36-8.72-7.36-8.72s-4.6,1.13-6.08-2.19-4.16-8.52-9.71-7.66l-.83-.74s3.91-10.41-3.62-12.32l-2-4.49s-8.26,5.08-10.28,5.55-5.65,1.87-8.32-.24l-.45-1.49-3.63-.49a6.07,6.07,0,0,1-1.55-3.2,5.9,5.9,0,0,1-.95,1.12,22.75,22.75,0,0,1-3.89,2.77c-5.33-.3-6.45,2.92-6.45,2.92a29.18,29.18,0,0,1-4.65,8.34l-5.07,3.06-2.78,3.24-1.91,1.82s-2.25,2.19-2.65,2.79a2.34,2.34,0,0,0-.36,1.3l-.05,1.87.51,1.55.61,2.05.08,1.43a12.27,12.27,0,0,1-.11,2.09,1,1,0,0,0,.63,1.11l1.47.64,3,.35,8.53,1.42,4.08-.29c4.82.39,4.78,6.49,4.78,6.49l.33,2.21.05,2.36.53,3.2.79,1.39.25.78.64,1.11.35,1.28.17,1.93-.62,3.11-.07,2.8,1.37,7-.34,4.6.15,2.86.35,1.28,1.33,2,.69.89,2,.54.65.19,1.09.3,1.07,1.23.63,1.12,1.33,2,1.82,1.91,2,.54,1-1.84c2-2,3.88,3,3.88,3l1.63.92,15.49-3.4-.36-1.81.85-4.91s.22-.79-.83-.74a14.26,14.26,0,0,0-2.74.62s-3.16-.36.86-2.51c0,0,5.18-2,1.12-6.54l2.75-8.68s3.33-5.24,4.81-5c0,0,3-1.41,1.49-3.53l-.56-1.69,1.35-4.26s3.39-1.12,4.19-.9l.83-3s6.23-2.05,6.09-4.66C536.05,203.86,544.89,198.42,536.8,196.19Z"/><path class="cls-3" d="M374.29,218.31s1,.8,2.59,1.75,7.72,4.41,7.72,4.41a18.8,18.8,0,0,0,5.14,1.69,11.66,11.66,0,0,0,4.11-.22l24.47-18.44s4.88.32,5.4-7.76,9.88-9.1,9.88-9.1,11.26-1.78,14.28-5.14c2.23-2.47,3.51,4.06,3.49,4.74,0,0,1.37,6.21,3.76,6.87h.24a1.55,1.55,0,0,1-.09-.57,12.27,12.27,0,0,0,.11-2.09l-.08-1.43L454.7,191l-.51-1.55.05-1.87a2.34,2.34,0,0,1,.36-1.3c.4-.6,2.65-2.79,2.65-2.79l1.91-1.82,2.78-3.24,5.07-3.06a29.18,29.18,0,0,0,4.65-8.34s1.12-3.22,6.45-2.92a22.75,22.75,0,0,0,3.89-2.77,5.9,5.9,0,0,0,.95-1.12,14,14,0,0,1-.35-3s-1.79-2.21-3.82,2c0,0-3.84,1.51-8.7-1.38s-7.9-4.92-8.53-5.1-2.08-3.66-2.08-3.66l-1-4.55.55-2.59L461.4,139l3.05-1.72s3.65-3.29-1.06-4.24l-3-.16-1.5-.75s-1.93-2.94,2.58-3.75c0,0,3.8-1.35,4-8.16,0,0,6.59-4,1.59-5.73l-.9-1.11s9.33-4.62,3.32-9.54c0,0-16.65,10.66-23.4,2.8,0,0-5.41,1.59-6.56,4.52,0,0-2,1.52-5.62.51,0,0-11.63,1.76-10.81,7.47,0,0-2.54,5.47-4.84-.48s-3.1-9.26-7.22-9.19c0,0,3-13.24-2-10,0,0-4.87.89-6.63-2.68s-2.51-5.84-5-6.54-3.73-8.23,1.78-7,7.29-3.47,6.51-7.46l-4.45-3.12s-1-5.59-.88-6.75-4.12-1.82-3-7.69c0,0-3.31-2.28-5.12,3,0,0-2.75,5.59-4.41,1.7a40.5,40.5,0,0,0-2.85-3.36c-.82-.74-.53-6.14-2.92-6.81s-7.09-1.61-7.09-1.61a24.62,24.62,0,0,1,2.8-6.43c1.66-2.28-3-3.92-3-3.92l-4.74-7.65L363.05,31s-5.56-8.39-8.54-6.3S348,29.7,348,29.7l-6.38.12s-6-2.35-4.83,10.66c0,0-.83,3-7.57,3.23s-14,.93-15.88,5.38c0,0-7.61,7.67-4.28,12.36s5.4,12.12.81,11.36c0,0-4.87-1-.48,3s8.25,13.59,2.48,16.45c0,0-4.42,2.38-4.95,4.29a19.06,19.06,0,0,1-14.42,1.32s-3.19,7.18-4.84,1.41-6.05,1.42-6.05,1.42-3.54,3.48-4.37,6.5a11.47,11.47,0,0,1-3.29,5.09l-1.61,8.3a4.65,4.65,0,0,1-1,.36l0,.06c-10.36,18,2.39,27.65,2.39,27.65,6,2.44,5,7,5,7a7.08,7.08,0,0,1,8.39,1.28l1.6,3.53,2.14,3.42,3.24,5,3.5,6.88,1.86,2.57,3.73,2.32,3.12,2.66,1.45,2.2,4.5.47c6,1.65,3.83-1.77,3.83-1.77s-2.73-4.09-.49-4.76a20.8,20.8,0,0,0,5.19-2.94c1.12-4.06,2.94-9.73,4.65-5.66S331.34,182,333.9,183s8.78,2.67,13.87,8.45,15.76-.27,15.76-.27l7.8.61,7.21-4.69c10.87-2.14,3,6.75,3,6.75.88,3.32-4,4.28-4,4.28-6.36-.21-6.19,4.72-6.19,4.72,1.75,4.86-2.77,5.41-2.77,5.41l1.27,1.89s2.06,1.86,2.65,2.53a6.8,6.8,0,0,1,.84,2.55Z"/><path class="cls-3" d="M500.71,254.91l-1.63-.92s-1.91-5-3.88-3l-1,1.84-2-.54-1.82-1.91-1.33-2-.63-1.12-1.07-1.23-1.09-.3-.65-.19-2-.54-.69-.89-1.33-2-.35-1.28-.15-2.86.34-4.6-1.37-7,.07-2.8.62-3.11-.17-1.93-.35-1.28-.64-1.11-.25-.78-.79-1.39-.53-3.2-.05-2.36-.33-2.21s0-6.1-4.78-6.49l-4.08.29-8.53-1.42-3-.35-1.47-.64-.78-.55c-2.39-.66-3.76-6.87-3.76-6.87,0-.68-1.26-7.21-3.49-4.74-3,3.36-14.28,5.14-14.28,5.14s-9.36,1-9.88,9.1-5.4,7.76-5.4,7.76l-24.47,18.44v.1a7.58,7.58,0,0,0,.8-.28c4.22-1.81,8.05,5,8.05,5S408,233.15,409,232s11.84,8.23,6.54,9.49-12.64,2.7-12.64,2.7-3.48,2.75-1.56,4.77S407.43,262,407.43,262s4.22,2.65,6.71,2.6,1.71,8.15,1.71,8.15A6.94,6.94,0,0,0,419.7,274c2.66.24.81,2.45.81,2.45s1.94,1,3.1-1.37,11-12.07,10.76.5L434,280.7l.6,1.41s.83,4.18.19,6.49l-.38,1.38s4.13-3.31,5.54.54c0,0,2.93,1.06,4.3-.3l3,2.56,3-.15,5,2.61,3.56,1.48,2.27,4.34s4.91,2.84,6.12,2.93l1.59,1.43s4.48-1,5.37-4.21c0,0,9.66-13.44,14.45-12.85,0,0,8.23,4.25,10.16-3.63,0,0,1-4.67,2.31.63,0,0,1.21.09,2.35-4.06l4.2-.82s3.85-5.87,3-8.32c0,0-.13-1.83,2.55-3.48,0,0,2-3.56.36-6.25,0,0-.48-2,3.67-2.75l1.66-.4.65-2.39-3.31-5.38Z"/><path class="cls-1" d="M272.6,275.5c1.54-5.49,10.21-11.72,10.21-11.72,8.07-.35,12.29-8.18,12.29-8.18,9-15-7.83-19.13-7.83-19.13l-3.92-4.42c-4.38-10.22,7.41-12.87,7.41-12.87,10.27,2.84,14.78-19.06,14.78-19.06l1.65-1.34c6.5,2.57,14.89-3.6,7-6.8s-5.42-6.51-5.42-6.51l.23,0,3.54.38c6,1.65,3.82-1.77,3.82-1.77s-2.72-4.1-.48-4.76a20.77,20.77,0,0,0,5.18-3c1.13-4.06,3-9.72,4.65-5.65s5.92,11.15,8.48,12.11,8.77,2.68,13.86,8.46,15.76-.27,15.76-.27l7.8.61,7.21-4.7c10.88-2.13,3,6.75,3,6.75.88,3.33-4,4.29-4,4.29-6.37-.21-6.19,4.72-6.19,4.72,1.75,4.85-2.78,5.4-2.78,5.4l1.28,1.9s2.06,1.85,2.64,2.53a6.53,6.53,0,0,1,.84,2.54l1,3.09s1.06.81,2.6,1.75,7.72,4.41,7.72,4.41l.51.27.62,1.42.8,2.07,0,2-1.24.89c-.75.47-4.37,6.91-4.37,6.91s-12.8,9.12-14.52,8.64c0,0-18.7.9-9.21,16.18a6.33,6.33,0,0,0,8.53,1.57s5-1.79,3.08,5.06-.57,5.91-.57,5.91,2.72,5.44-1.25,9.35l-1.2.4-1.24,2c-1.15.45-3.39-2.48-3.39-2.48l-1-.27-1,1-.47,1.67-.9,2.32-1.19-.33-2.15-.59-2-.29-2,1.75-4,5.08s-4.19,4-1.57,7.53-1.15,5.09-1.15,5.09l-10.92-3.28-.95-3.09c1-5.38-8-1.93-8-1.93l-1.48,1.64-1.87.26-3-.32L316,302l-2.54.84-3.81.75c-3.34,11.16-8.58,6.88-8.58,6.88l-5-3.43-2-.29c-6.63.74-9.42-3.12-9.42-3.12l-3.46-6.09-2-.29-2.63-.73.59-2.15c4.35-.85,5.83-2.5,5.83-2.5s-4.44-10-7.3-10.76c-2.22-.61-2.9-4-3.09-5.55Z"/><path class="cls-3" d="M368.81,269.47c-1.89,6.86-.58,5.91-.58,5.91s2.73,5.44-1.24,9.35l0,0,2.87-.71,2.34,1.39s.67-6,3.88-2.39c0,0,15.16-2,9-11.89l-2.32-6.83s4.41-5.22.73-6.24c0,0-6.93-.92-3.87-12,1.52-5.53,1.85-7.42,1.81-7.93l-.2-.07a2.53,2.53,0,0,0-.27.44l.22-.46-.25-.09s-12.8,9.11-14.52,8.64c0,0-18.71.9-9.22,16.17a6.33,6.33,0,0,0,8.54,1.57S370.71,262.61,368.81,269.47Z"/><path class="cls-4" d="M341.2,351.26c6.59.76,6.56-6,6.56-6l-1.4-3.37-.57-3.33a3.57,3.57,0,0,0-1.93-4.58c-4.72.19-6.34-2.39-6.34-2.39-2.77-10.74-10-13.2-10-13.2-4.42-2.6-.62-13.89-.62-13.89l4.48-2.53.45-.73c1-5.39-7.95-1.94-7.95-1.94l-1.48,1.65-1.87.25-3-.31-1.9,1.27-2.55.84-3.8.75c-3.34,11.16-8.59,6.88-8.59,6.88l-5-3.42-2-.29c-6.64.74-9.43-3.12-9.43-3.12l-3.45-6.1-2-.29-2.62-.72.59-2.15c4.35-.86,5.83-2.51,5.83-2.51s-4.45-10-7.31-10.76c-2.09-.57-2.81-3.64-3-5.26l-.2.25c-1,5.63-5,31-12.57,29.7L253,307.44s-1.76,5.43-6.47,3.87l-2.71,5.16s-5.69-.8-7.23-1.74l-1.76,5.43s-4.78-1.32-4.27,2.42l-.26.95-2-.28-1.87.25-.76,1.84-.05.06c1.46,2.29,2.6,5.93,1.57,11.17-1.85,9.51-2.52,14.73-2.52,14.73l1.55,2.74s6.09,6.82-1.15,7.9l.07,4.4-9.08,9.58s-3.59,1.83-10.64-2.43c0,0-10.91,1.36-14.4,18.64,0,0,10.48,10.38,8.05,14.44l.26,0c11.62,7.88,20.39.75,20.39.75a27.85,27.85,0,0,1,9.82-5.57c5.81-1.8,19.68,5.65,21.88,9.23a6.23,6.23,0,0,0,8,2.43c2-.95,6.54.95,6.54.95s2.07,2.49,3.9,2.78,4.55,5.08,4.55,5.08l.35,5.62s5.22-2,6.2-1.69a12.08,12.08,0,0,0,3.43-.11c1.65-4.43,3.12-3.6,3.12-3.6,5.6,2.82,7.71-.21,7.71-.21,2.7-2.86,5.35-1.7,5.35-1.7,1.78.49,3.86-3.19,3.86-3.19s6-5.56,12.64-5,6-8.54,6-8.54-.42-9.26,5.86-14.31,7.11-10.36,4.12-18,2.46-15,3.16-17.61S341.2,351.26,341.2,351.26Z"/><path class="cls-4" d="M453.5,381.2s-.7-4.64-1.79-5.2,2.36-1.33,3-.9,2.52-1-.32-3.31-13-7.56-18.85-17.84c0,0-4.84-5.8-5.33,2.24,0,0,.31.88-3.08.39-1.9-.28-10.84,5.18-10.84,5.18s-1.4.6-3.71-4.5c0,0-3,.92-5.94,6.29,0,0-2,.93-3.09-4.07s-5.65-5.53-11.58-.23-6.28-1.48-7.46-2.56a5.72,5.72,0,0,0-1.95-.93l-.17.15s-.32,3.28-.39,4.24,1.43,7.72-3.69,9.07l-.64,5.18s.09,13.28-12.15,6.73l-1.25-1.93-.9-1-.9-1-1-1.27-.9-1-1.14-.91-.89-1-.81-1.41.41-1.47-.19-1.44-.43-1.31-.11-1,.45-1.65s.41-7.21-6-9.78c0,0-9.15-1.53-12.41-3.26l-.3,0c-1.22.32-2.61,1-3,2.35-.71,2.57-6.16,10-3.17,17.61s2.17,12.91-4.12,18S323,403.74,323,403.74a14.1,14.1,0,0,1-.08,2.43l.14,0,1.66.46,1.2.33,2.35-.12,2.58-.06.9.5,2.57,2.77.69,1.22.28.85a7.59,7.59,0,0,0,1,1.83l1.26.09,3.24.38,1.1,1.59.82.74c.83.75,1.44.4,1.44.4l3.57-.81,1.56-.08.45,1.15.09,1.56,1,5.68,1.41,1.42a20.86,20.86,0,0,0,2.75,3.07,12.87,12.87,0,0,1,2.16,2.4l2.87.79s4.2-2.18,6.71-3.8a17.58,17.58,0,0,0,4.51-5.18,55.45,55.45,0,0,1,8-3.95c5.23-2.17,6-.16,6-.16s-1.38,9.65-1.69,12.64-1,9.24-1,9.24c-4.44,9.57-1.25,17.2-1.25,17.2l.06.14a.25.25,0,0,0,0-.07s1.62-1.24,4.67,3.55c0,0,7.51,8.3,12.81-18.33,0,0,3-18,10.19-16.26,0,0,20.28-5.29,26-8.92l7.06-2.26s5.35-3.22,4.28-9.21,1.81-10.15,6.05-12.94,7.7-9,5.24-15.4Z"/><path class="cls-4" d="M241.62,606.39l.95,3.09,3.06.07,2.73-3.35s3.11-2,4.07-1.71,3.43-.33,4.39-.07,4.28-.62,4.28-.62l2.62-1.07.55,4.52,1,2.07,3-.47,4.71-1.27a21.2,21.2,0,0,1,15-1.25l9,2.74,2.62.73,1,.26.86,1.53,1.31.87,2.07-1,2.7-2.34,4.76-.49,3.13-.16,1.52-.86s4.87-4.57,6.37.21,2.71,9.75,8.11-7c0,0,7-12.21,13.36-2.74s8.93-1.64,8.93-1.64l2.64-2.1s3.11-2,.26-5.59c0,0-4.45-10-8-11s-7.51-10-7.51-10-4.86-10.34.78-12.13c0,0,3.68-3.09,5.38-11.11l-4.37-1.9-4.8-1.11-2.54-.59-3.26-2a5.28,5.28,0,0,0-5.49-1c-3.07,1.32-7.42-3.36-7.42-3.36s-3.83-5.4-8.46-2c0,0-11.15,4.2-14.37,8,0,0-4.35,2.38-7,2.42,0,0-3.17.86-4.85,7.34s-5.52,4.23-7.6,3.55-8.83-.27-11.37.66-15.63,3.5-19.23.44a19.17,19.17,0,0,0-7.07-3.9s-2.84-1.11-3.44-1.28-3.09-1.6-4.1,4.56l2.69,6.09s1.48,5.81-4,5.08c0,0-2.6-1.75-2.25,3.49,0,0,1.85,5.39-4.66,8.48l-4.44,2.12-.18,2.52a4.4,4.4,0,0,1,1,4.65,9.67,9.67,0,0,0,5.58,3.09s4.15-.14,2.59,7.39a7.46,7.46,0,0,0,5.55,4.11C238.11,602.34,242.5,602.26,241.62,606.39Z"/><path class="cls-4" d="M228.67,544.2s-1.24-1.11,1.74-7.24a19,19,0,0,0,2-11,10.39,10.39,0,0,1,.62-3.17c.5-.89,3.17-4,3.17-4a94.66,94.66,0,0,1,2.55-10l.06-.21c1.54-3.69,10.1-7.25,12.1-7s13.34-6.08,13.34-6.08l8.56-4.32c6.66,1.32,11.76-12.18,12.6-15.21s6.58-5.2,6.58-5.2,3.82-2,4.94-3.61,4.4-2.9,4.4-2.9,2.12,3.5,4.71,4,4.1,4.39,4.1,4.39l0,.16a5.84,5.84,0,0,0-1.27,2.06c-.26.95.81,6.39,5,4.81s11.67-5,9.39,3.28L322,487.37,333.14,493l4-.1s5.53-.18,5.44,2c0,0,2.58,2.43,4,2.31s3.08,0,3.23.72,4.91,3.93,4.76,5.08,1.55,2.49,1.55,2.49l2.47.34,4.59.75,1.41-.12.21.76S360,516.49,361,519,357,536.26,357,536.26c-1.9-.24-10.17,8.19-10.17,8.19l-.08,0-4.29-1.87-4.79-1.11-2.55-.59-3.26-2a5.27,5.27,0,0,0-5.48-1c-3.08,1.32-7.43-3.36-7.43-3.36s-3.83-5.4-8.46-2c0,0-11.15,4.19-14.37,8,0,0-4.34,2.38-7,2.42,0,0-3.17.86-4.85,7.34s-5.52,4.23-7.6,3.55-8.83-.27-11.37.66-15.63,3.5-19.23.44a19.17,19.17,0,0,0-7.07-3.9s-2.84-1.11-3.44-1.28-3.09-1.6-4.1,4.56Z"/></svg>