<?xml version="1.0" encoding="utf-8"?>
<!-- Generator: Adobe Illustrator 24.2.3, SVG Export Plug-In . SVG Version: 6.00 Build 0)  -->
<svg version="1.1" id="图层_2_1_" xmlns="http://www.w3.org/2000/svg" xmlns:xlink="http://www.w3.org/1999/xlink" x="0px"
	 y="0px" viewBox="0 0 650 650" style="enable-background:new 0 0 650 650;" xml:space="preserve">
<style type="text/css">
	.st0{fill:#191919;}
	.st1{fill:#7A1C1E;}
	.st2{fill:#023652;}
	.st3{fill:none;stroke:#555555;stroke-linecap:round;stroke-linejoin:round;}
</style>
<g id="LWPOLYLINE">
	<path class="st0" d="M575.1,257.3c1.3,4.9,9.1-3.3,6,6.7c-3.2,0.2-3.2,3-5.2,3.7c-3.5,0.6-7.4,1-10.8,2.2c-1.1,0.2-1.6,2-2.7,2
		c0-0.5,0.3-0.9-0.3-0.7c-1.3,0.1-2.6,0.5-3.8,1.1c-2.2,0.9-2,4.1-3.4,5.7c-0.9,1.1,1.3-0.1,1.1,0.9c-0.2,0.8,0.7,1.2,0.5,1.9
		c-1.1-0.3-2.2-0.4-3.3-0.1c-1.5,0-2.9,0.4-4,1.3c-3,3.1-2.3,0.1-3.4,1.3c1.4,0.5,0.8,1-0.1,1.7c-1.1,0.7-2.2,1.5-3,2.6
		c-0.6,0.8-1,1.7-1.3,2.6c-0.3,1.3-0.5,1.9-1.7,2c0.8,0.9-0.7,0.7-0.7,1.4c2.1,0.1-0.9,5.3-1.4,6.3c-0.4,2.9-0.8,2.3-1.6,1.8
		c-0.6-0.5-1.5-0.6-2.2-0.1c-0.7,0.2-1.2,0.7-1.6,1.3c-0.3,0.4-1.4,0.8-1.1,1.5c2.6,2.1,2.3-1.3,4.4-2c1.8-0.1-0.4,3.8-0.3,5
		c-0.7,1.6-0.5,3.9-1.7,5.1c-0.4,1.8,0.6-0.8,0.8,1.2c0.3-1,0.9-1.1,0.6,0.1c-0.4,0.3-0.7,0.7-1,1.1c0.2,0.9,0.6-0.4,1,0
		c0.1,0.3,0,0.6-0.2,0.8c0.1,0,0.1,0.1,0.2,0.1c-1.9,1.4-3.2-1.7-5.1-1.7c-3-0.5-6.2,0-9.2-1c-1.1-0.7-2.5-0.9-3,0.8
		c-0.7,1-1.9,0.2-2.3-0.8c-0.4-1.5-1.6-2.7-3.2-3c-1.4-1.6,2.5-2.2,0.1-3.6c-1.1-0.2-2.1-0.6-3.1-1.2c-2.6,0-4.2,0-5.6-3
		c-0.3-2.1-3.3-4.6-4.7-5.7h-1.1c-1-2.4-4.7-7.5-2.8-10.3l3.6-4c0.3-1.3,2.2-5.8,0.9-7c1.3-2.5,5-8.9,4.1-12c-1.8-4.8-2.2-6,2.7-7.6
		c1-1.3,2.4-4,2.2-5.8c-3.7-1.7-12.9-6.3-16.9-4.3c-2.5-3.3-6.2-5.5-10.2-6.1l-2.4-1.5c2.6-7.6,7.6-5.3,3.5-14.7c2.3-1,4-2.8,5-5.1
		c5.1-1.8,15.9-4.7,21.2-4.6c1.2-1.3,4.1-4.7,6-4.1c0.7-1.9,4-0.7,5.3-0.6c1.1-1.5,3.7-1.7,5.2-1.6c1.8-1,5.2-0.3,6.9,0.4l-1.1,2.8
		c1.8,1.7,4,2.9,6.4,3.4c3-0.3,11.6-1.3,14.4-0.3c1.4-0.6,4.8-1.8,6.3-1.4c1.5,2.1,1,2.1-0.7,3.6c6.8,7.9,3.1,2.4,4,9.6
		c-0.7,1.7-1.5,3.2,0,4.7l-0.1,2.1c1,0.7,3.4,5,4.1,6.1c-0.6,1-2.6,2.7-1.2,3.9l8.8,3.2c0,0.8,2.3,6,0.7,6.2
		C573.3,254.8,577.2,254.2,575.1,257.3z"/>
	<path class="st0" d="M537.9,317c0.4,0.9-0.4,1.3-1,1.1c-0.1,0.7-0.8,0.7-1.2,0.7c0.2,1-0.4,0.5-0.7,0.9s-0.6,0.1-0.8-0.3
		c0.1-0.3,0.2-0.7,0.1-1.1c-0.7,0.6-1.7,1.3-2.5,1.9c-0.3,0.1-0.7,0.2-1,0.1c0,0.3-0.3,0.4-0.5,0.4c-0.7-0.6-0.1-1.3-1.5-0.7
		c1.5,1.7,0.1,1.7-0.7,3c-0.4,0.4-0.8,0.8-1.2,1.2c-0.1,0.2-0.6,0.4-0.4,0.7c-0.2,0.2-0.4,0.2-0.6,0.1c-0.5,0.2-1,0.8-1.6,0.9
		c-0.2,0.2-0.1,0.5,0,0.7c-0.1,0.6-1.2,1.1-1.2,1.6c-0.5,0.8-1.7-0.1-2.3,0.5c0.3,0.3,0.7,0.4,0.8,0.9c-0.3-0.1-0.5-0.2-0.8-0.2
		c0.7,1-0.8-0.1-1.2,0.3c1.2,1.9,0.4,1-0.8,0.9c0.2,0.3,0.6,0.5,0.8,0.8c-0.2,0.1-0.6,0.1-0.5,0.4c-0.3,0.1-0.8,0.1-1,0.4
		c0.1,0.5,1.4,0.4,1,0.9c-0.9,1-1.9,1.8-3,2.5c-0.3,0.4-0.8,1.3-1,1.6c-0.7,0.4-1.3,0.3-0.7-0.7c-0.3-0.2-0.6,0.2-0.9,0
		c-0.5,0.1-1,0.4-1.4,0.8c-1-0.3-1.9,0.7-2.9,0.6c-1.3,0.4-2.1,2-3.5,2.2c-0.2-0.5,0.3-0.7,0.5-1.1c-0.2-0.1-0.6,0.1-0.7,0.3
		c-0.5,0-1.1,0.1-1.5,0.4c-0.2-0.9,0.5-0.8,0-1.8c0.3-0.2,0.9-0.3,0.7-0.9c0.3-0.3,0.9-0.5,1-0.9c-0.5-0.2-1,0.4-1.4,0.7
		c-0.4,0-0.8,0.1-1.2,0.3c0.1,0.7,0,1.4-0.3,2c0.2,0.5,0,1-0.4,1.3c-2.7-1-3.4,2.1-6,2c-0.6,0.5-1.5,0.3-2.3,0.2
		c-1.4,0.4-2.9,0.1-4-0.8c-0.9-1-0.4-2.8-1.3-3.8c-0.2,2.1-0.6,1.4-2.1,1.2c-0.5-0.1-1.1-0.1-1.6,0.1c-0.7-0.2-1.4-0.4-2-0.6
		c-0.5-0.1-1.2,0.5-1.7,0.8c-1,0.5-2.5,0.6-3.5,1.1c-0.7,0.3-1.4,0.7-2,1.2c0.1,0.4-0.6,0.8-0.8,1.1c-1.2,1.1-2.5,2.1-3.9,3
		c-2.7,2.2-6,3.5-8.9,5.4c-1.2,0.7-2.5,1.1-3.9,1.2c-0.9-0.1-1.7-0.5-0.7-1.4c-0.6-0.5-1.4-0.7-2.1-0.4c-0.2,0.5-0.9,0.9-0.9,0
		c-0.9-0.8-2.1-1.4-2.7-2.6c-0.8-1-1.3-2.1-1.7-3.2c-0.9-1.4-1.7-3.2-2.6-4.6c-2-1.9-4.3-3.3-7-4c-1-0.1-1.9-1.4-2.9-1.3
		c-0.2-5.1-3.3-1.7-3.9-11.7c-1.8-0.7-4-0.9-4.2-3.8c-2.5-0.9-5.3-1-7.6,0.8c-1.5-7.1,5-13.1,4.9-17.9c-2.2-1.3-4.9-1.6-7.4-1
		c-1.8-0.8-3.9-1-5.9-0.6c-3.1,1-1,4.1-4.1,5.6l-0.9-1.4c-0.4-0.3-2.1-0.7-1.2-1.5c0.3,0,1.4,0.2,1.5-0.2c-0.5-0.6-1.2-1.1-2-1.5
		c-0.5,0.5-2.5,1.7-2.6,0.5c0.3-1.1-0.4-1.1-1-1.6c-0.3-0.2-0.9,0.1-1.1,0.3c-1.1-0.9,1.3-1.8,1.7-2.2c-0.4-1.2,1-0.5,0.6-1.5
		c0.2-0.6,1.1-0.1,1.2-0.9c-0.2-1.8,0.6-1.6-0.9-2.7c0.3-1-1-1.5-0.7-2.4c-1,0-2.1-0.8-3.1-0.6c-1-0.4-1.9-1.2-2.4-2.3
		c2.1-0.9,1.5-1.4,0-2.4c-1,0.3-1.9-0.9-2.4-1.6c1.4-4.4-1-7.9-2.8-11.3c0.2-2.6,2.1-7.4,3.4-9.6c1.5-1.4,4.1,1.2,5.3,2
		s5.9-0.8,7.2-1.2c2,1.1,4.6,3.4,6.9,1.3c0.9-1.7-0.4-3.3-1.3-4.5l-4,0.3l2-2.5c1.5-3.8-7.8-4.1-9.2-5.1l0.1-3.1
		c-4-1.7-4.8-3-5.4-4.6l10.4-4.9c1.3,1.7,22.6-5.8,24.5-6.2l3.6-2c1.1-1.7,2.7-3.5,4.7-3.4l3.6-3.9c0.5-1.1,1.5-3.9,3-3.7
		c4.3-1.6,6.4,2.3,12.3,0.4c1.8-0.2,4.8,1.3,6.3,2.3l10.2,0.2c-1.2,1.8-1.7,6.5-1.7,8.7l3.2,4l2.5,1.5c4.1,0.7,7.7,2.8,10.2,6.1
		c4.1-1.9,13.2,2.6,16.9,4.3c0.2,1.8-1.2,4.5-2.2,5.8c-4.8,1.5-4.5,2.8-2.7,7.6c0.9,3.1-2.8,9.6-4.1,12c1.4,1.2-0.6,5.6-0.9,7
		l-3.6,4c-1.9,2.9,1.8,7.9,2.8,10.3h1.1c1.4,1.1,4.5,3.6,4.7,5.7c1.4,3,3,3,5.6,3c0.9,0.6,2,1,3.1,1.2c2.5,1.4-1.5,2.1-0.1,3.6
		c1.6,0.3,2.8,1.5,3.2,3c0.4,1,1.6,1.8,2.3,0.8c0.4-1.7,1.9-1.5,3-0.8c3,1,6.1,0.5,9.2,1c1.9,0.1,3.2,3.1,5.1,1.7l0,0
		c1,0.4,3.7-0.2,1.4,1.3C536.9,316.9,537.5,316.9,537.9,317z"/>
	<path class="st0" d="M532.4,140.3l0.7,4c-1.9,2.9-3.2,5-6.6,4.8c4.3,3-1.3,5.6-3.2,7.6c-4,0.4-3.8,0.6-4.2,5.1
		c-1.6,0.2-3,0.9-4.1,2c-3.4-1.1-4.5-1.9-7.3,1.3c-0.3,3.5,4.7,3.3,6.5,3.9c1.6,0.8-2.3,4.5-2.5,5.2c-2.7,0.9-4.5-2.3-7-0.6
		l-1.2,7.5c-0.1,0.9-4.2,6.6-2.5,7.5c1.1,0.6,4.7,1.6,4.5,3.7c2.7,0.4,4.1,2,5.3,4.7c2.6,2.6,5,0.6,6.9,4.3c1-1.2,3.1-0.7,4.3-0.2
		c0.9-0.6,4.3-3,5.4-2.4c0.7,0.7,0.8,1.7,0.2,2.5c-5.3,4.4-1.2,2.1-2.4,5.7c-1.5-0.1-4.1,0.1-5.2,1.6c-1.3-0.1-4.6-1.2-5.3,0.6
		c-1.9-0.6-4.8,2.8-6,4.1c-5.3-0.1-16.1,2.8-21.2,4.6c-1,2.3-2.7,4.1-5,5.1c4.2,9.4-0.9,7.1-3.5,14.7l-3.2-4c0-2.2,0.5-6.9,1.7-8.7
		l-10.2-0.2c-1.5-1.1-4.5-2.5-6.3-2.3c-6,1.9-8-2.1-12.3-0.4c-1.4-0.2-2.5,2.6-3,3.7l-3.6,3.9c-2-0.1-3.6,1.6-4.7,3.4l-3.6,2
		c-1.9,0.4-23.2,7.9-24.5,6.2L399,246c-0.5-1.6-1.4-3.1-2.6-4.4c-1.7,0.3-4.8,0-6.3-1.1c-1.9-0.8-5.1,0.2-6.8,1.4
		c-1.3-0.5-3.1,0-3.7-1.8c-0.1-0.6-0.9-1.4-0.8-2.1c-0.4-1-1.7-1.1-2.5-1.5c-0.7-0.6-1.2-1.3-1.7-2c-0.3-0.6-0.8-1.6-1.1-2.1
		c-0.5-0.7-1.7-1.6-1.5-2.6c0.1-1.3-1.6-1.2-1.8-2.3c1.2-6.1,1.9-4.7-1.4-10c-0.9-1.6,0.8-2.7,2-2.9c0.5,0.2,1.1,0.3,1.7,0.3
		c1.1-0.6-0.3-1.4-0.7-1.9c-1.2-1.6,4.8-3.4,5.2-4.1c1.6-0.3,4.4,0.6,6,1.2c1.2-0.9,5.8,0,5.1-2.3c-0.6-0.9-1.1-1.9-1.5-2.9
		c0.7-1.6,1.2-2.9,2.1-2.9c0.5,0,1,0.3,1.8,1.1c2.4,0.8,2.9,0.3,2.3-2.5c-0.3-0.4-0.9-0.6-1.5-0.5c-0.7,0-1.5-0.2-2.3-0.3
		c-1.3-0.2-2.7-0.4-4-0.5c-2.6-0.1-5.3,2.2-7.8,2.4c-3.5-1.7-7.2-2.9-11-3.6c-7.5-2.9-15.7,4.7-20.4-7.5c-1.2-0.2-2.1-1.1-2.4-2.3
		l-2.9-3.4c-8.2-1.1-1.5-2.6-10.5-6.4c-0.1-2.7-0.5-3.3-2.8-4c-1.6-2.7-0.8-4.5,0.3-7.1c0.2-2.4-3.9-3-5.2-3.6
		c-1.9,1.3-1.5,1.9-0.9,4.1c-1.6,4.8-3,3-6.4,2.5c-1.6,1-5.1,1.4-6.9,1.2c-0.6,1.8,1.1,4.7,2,6.1c-0.1,2.9-4.8,0.6-6.1,0.7
		c-0.6-0.8-1.9-3.8-3.1-3.4l-2.1-4c-3.5-0.3-4.3-1.6-5.9-5l1.8-2.6c-0.6-2-2.4-5.1-4-6.1c0.8-2.5,1.6-3.2-0.9-4.4
		c2.4-3.3-1.1-6.5-2.3-9.3c1.6-5.2-1.5-5.9-4.1-8.9c-2.8,0-5.5-0.6-8-1.8c-0.5-1.4-1.6-3.5-3-3.8c-0.1-1.5-0.9-2.9-2.2-3.6
		c0-1.7,0.1-6.3-1.4-7.4c-5.3-3-1.5-2.4-4.7-7.7l9.1-7.8c2.9-1.1,3.8-1.9,4.5-5.5v-0.1c1.2,0.1,2.4-0.6,3-1.6l-0.1-5.5
		c1.6-0.7,5.6-2.3,7.3-1.3l1.8-6.3c1.9-1,7.3-2.9,7.4-6.1c2.9-2.6,12.1-0.3,6.1,4.2c0.3,1.7,4.5,0.5,5.4,0.6l3.4-3.2
		c2.7,2.6,4.1,5.9,8.1,4.1c3.8,1.1,5.7-1.4,9.4,0.3l1.6-0.5c0.4-1.9,0.3-4.7,2.5-4.9c2.7,1,3.4,1.6,5.3-1.4c1.5,0.3,3,0.6,3.8-1.2
		c0.4-2,1.3-6.6,0.4-8.6l-2.3-2.6c-1.7-0.3-3.2-1.1-4.4-2.3c-0.1-0.7-2.1-3.6-0.5-3.7l9.5,0.7l0.5-3.3c-1-4.4-4.1-15.6,1.5-17.2
		c1.1-0.8,3.3-1.7,4.6-1.4c1.7-2.8,3.9-3.3,6.6-3.4c1.7-2.7,2.4-1.7,4.6-0.5c1.3,0.3,9.5-1.2,10.9-1.4c3.2,1.6,11.6,4.8,11.6-1.9
		c0.1-1.9-1.6-0.6-2.5-0.6c1.6-3.6,8.6-7.6,11.9-8.8c2.9-0.5,8.2,0.8,10.9,2.3c1.2-0.2,1.6-1.2,1.7-2.5c2.4-0.8,7,0.9,9.2-1.5
		c-0.1,0.8-0.4,1.6-0.9,2.3c0.2,1.5,3.6,4,4.6,4.8c0.8,3.1,11.5,12.1,13.6,14.2c0.8,1.2-0.3,3.5-0.8,4.5c7.2,6.5,2.2,6.3-3.2,9.8
		c8.8,8.5,12.6,2.4,9.9,12.4c0.8,0.5,8.3,3.6,3.8,4.1l0.1,1l-2,0.8c-0.8,1.6,6.5,0.8,6.8,1.2c1.1-1.5,2-2.5,1-4.5
		c3.5-2.8,4.8,1.1,6.1,4.2l-4.2,1.3c0.8,1,2.8,1.4,3.9,1.4c2.9,3.1,0.5,5.9-1.9,8.2c1.1,1.2,6.2,4.5,6,6.7c-0.9,1.4-3.5,8.1-5.3,8.1
		c-1.8-0.9-3-2.6-3.2-4.6c-1.3-0.1-4.9-0.6-6,0.4c-0.9,3.4-3.3,5.9,0,8.8c-0.4,4,2.4,4.8,4.7,6.6c-1.7,5.5,4.3,7.7,7.9,7.1
		c-1.1,1.4-0.3,3.6,0.3,5.1c-0.7,1.5-2.1,3.2-3.7,3.1c0.5,1.7,5.2,2.1,5.9,4c-0.1,1.6,0,3.8,1.5,4.6c-1.4,0.6-1,3.3-0.9,4.6
		c0.9,0.9,2.6,2.9,3.9,2.4c0.6-3.6,8.1-3.3,10.4-4.1l12,0.4c1.5,1.1,4.5,2.4,6.3,2.3c0.3-3.1,5.2-3.9,7.1-4.6
		c-0.7,3,2.2,5.3,3.8,6.9l3.5-0.4c1-1.7,1.9-0.9,3.2-0.2c5.1,1.6,13.3-0.3,18.2,2.3C529.8,141.2,530.5,140.5,532.4,140.3z"/>
	<path class="st1" d="M398.9,246.1c0.7,1.6,1.5,3,5.4,4.6l-0.1,3.1c1.4,0.9,10.8,1.3,9.2,5.1l-2,2.5l4-0.3c0.9,1.2,2.2,2.8,1.3,4.5
		c-2.2,2.1-4.8-0.2-6.9-1.3c-1.4,0.4-5.9,2-7.2,1.2s-3.9-3.4-5.3-2c-1.2,2.2-3.2,7-3.4,9.6c1.8,3.4,4.2,6.9,2.8,11.3
		c0.5,0.8,1.4,2,2.4,1.6c1.5,1,2.1,1.4,0,2.4c0.5,1,1.4,1.8,2.4,2.3c1-0.2,2.1,0.6,3.1,0.6c-0.4,0.9,0.9,1.4,0.7,2.4
		c1.5,1.1,0.7,1,0.9,2.7c-0.1,0.8-1,0.3-1.2,0.9c0.4,1-1,0.3-0.6,1.5c-0.5,0.4-2.8,1.3-1.7,2.2c0.3-0.2,0.8-0.5,1.1-0.3
		c0.6,0.5,1.3,0.5,1,1.6c0.1,1.2,2.1-0.1,2.6-0.5c0.8,0.3,1.5,0.8,2,1.5c-0.1,0.4-1.3,0.1-1.5,0.2c-0.9,0.8,0.9,1.2,1.2,1.5l0.9,1.4
		c3.1-1.4,1-4.6,4.1-5.6c2-0.4,4-0.2,5.9,0.6c2.5-0.6,5.2-0.3,7.4,1c0.1,4.8-6.5,10.8-4.9,17.9c2.3-1.8,5.1-1.7,7.6-0.8
		c0.1,2.9,2.3,3,4.2,3.8c0.7,10,3.7,6.6,3.9,11.7c-1.5,0.3-3.5-0.1-5,0.2c-1.6,0.6-3.3,1-5,1.4c-3.6,1.2-7.7,2.2-10.6,5.1
		c-1.5,1.2-2.8,2.7-3.7,4.4c-0.6,0.8-3.4-0.1-2.7,1.4c0.9,1.2,1.3,2.6,1.3,4.1c-0.4,1-1.1,2.2-0.9,3.4c0.4,0.8,1.5,0,1.9,0.8
		c0.9,0.3,0.7,1.5,1.1,2.2c0.1,0.6-0.6,0.1-0.7,0.5c-0.5-0.4-1.1-1.1-1.7-0.4c-0.4-0.4-0.8-0.7-1.3-1c-0.8-0.4-2.1-1.3-2.9-0.5
		c0.3,0.8,0,0.8-0.5,1.1l0.4,0.5c0.9-1.1,2.2-0.1,2.5,1.1c0,1.1-0.4,2.3-1.2,3.1c-2.1,1.2-1.5,1-2.6,3c-1.3,1.2-2.4,2.6-3.3,4.2
		c-0.4,0.8-1,1.3-0.6,2.1c-2.4-0.4-1.5,1-2.1,2.8c-0.2,0.8-0.7,1.8-1,2.5c-0.2,0.4-0.3,1.4-0.7,1.4c-0.3,1.3-0.8,2.7-1.1,4
		c-0.3,1.9-0.5,3.2-2.4,3.1c1.2,0.9,2.2-0.4,1.7,2.3c0.7,2.7-0.1,2.7-0.5,5.1l-7.7-0.4c-4.5,2.3-12.8,5.7-17.6,3.5
		c1.6-2.5,2.2-2.7-0.3-4.5l-7.2,2c-0.8,1-2.1,2.2-3.3,1.5c-8.6-7.5,1.1-11.4-13.6-9c-8.9-1.8-2.8-6.2-14.1-5
		c-4.2-7.9,1.7-7.2-1.9-10.3c-3-8-0.4-10,2.4-16.8c3.3-1.5,6.8-2.5,10.5-3c0.9-0.4,3-6,3.5-6.9c-0.4-2.8-3.5-2.3-5.3-2.6
		c-0.5-2.2-1.7-5,1.1-5.6c1.9-2.3-2.8-4.1-1.1-7.4c3-0.6,2-4.5-0.5-5.2c-2.5,3.3-3.3,2.2-2.6-1.8c0.4-1.4,1.7-3.1,2.4-4.4
		c-4.1-2.8-5.6-1.5-3.3-7.6c1.3-3.9-2.5-0.8-1.6-6.3c-0.1-1.1,0-2.3,0.4-3.3c2.3-0.3,3.1-2.7,3.9-4.9c1.1-0.8,5.3-0.6,3.8-3.2
		c1.3-0.6,2.8-1,4.3-1.2c-1,3.7,1.9,8.4,5,5.1c3.1-0.2,6.3,2.1,9.2,3.1c2.1-0.2,3-0.9,3-3.6c0.2-2.3,0.2-4.7,0-7
		c0.6-1.3,2.7-2.4,2.5-3.9c-0.6-0.9-2.1-1.7-2.6-2.6c-1-2.3,0.1-2,1.6-1.5c1.8-0.9,3.9-1.7,5.9-1.4c-0.1-0.4,0.2-0.8,0.3-1.2
		c0.1-0.9-0.8-1.6-1.5-1.3c-1,0.5-2.1,0-3-0.3s-2.5-0.1-2.7-1.4c-0.4,0-0.9,0.4-1.2,0c0.4-2-1.6-1,0.2-2.7c-0.4-0.6-1.3-0.6-1.7-1.3
		c0.4-0.3,1.1-0.7,1-1.3c0.5-0.2,0.7-0.8,0.2-1c1.2-0.6,2.2-1.7,2.7-2.9c0-0.7,0-1.3,0.1-2c-0.3-0.2-0.4-0.6-0.2-0.9c0,0,0,0,0-0.1
		c1.2-1.2-0.6-2.7-0.1-4.1c0.4-1.1,1.5-0.8,2.4-1c0.8-1.3-0.6-1.2-1.1-1.7c2.6-3.9,4.8-1.2,6.9-3.3c1.9-2.4,4.3-0.2,5.5-4.1
		c0.5-1.6,3.2,0.2,2.5-1.7c-0.2-0.4-0.8-0.4-0.8-1c1-1.8,1.2-0.8,0.8-3.1c1.7-1.2,4.8-2.2,6.8-1.4c1.4,1.1,4.6,1.4,6.3,1.1
		C397.4,243,398.4,244.5,398.9,246.1z"/>
	<path class="st2" d="M415.4,420.5c0.6,0.6,2,1.2,2.1,2.2c-1.2,0.4-1.9,2-2.8,3c-0.4,0.4-0.9-0.3-1.3-0.4c-0.5-0.4-0.8-1-1-1.6
		c-0.1-0.3-0.1-0.6-0.5-0.4c0.9,2.4-0.4,0.8-1.1,1.7c0.7,0.5,2.3,0.1,2.4,1.5c0,0.9-1,1.2-1.6,1.3c-0.3-0.2-0.6-0.7-0.9-0.4
		c0.5,0.8,0.4,0.9-0.4,0.8c-0.4-0.5-1.3-0.6-1.1,0.4c0.6-0.4,1.1,0.3,1.5,0.7c-0.6,0.4,0.2,1,0.1,1.7s-1.5,1.5-0.1,1.3
		c0.4-0.6,1.3-0.5,1.8-0.9c0-0.3-0.5-0.2-0.6-0.2c-0.3-0.5,0.2-1.5,0.5-1.8c1.1-0.1,2-1.2,3.1-1.2c-0.1,0.4-0.4,0.8-0.8,0.8
		c-0.2,0.3-0.5,0.9-0.1,1.2c0.5-0.6,1.1-1,1.9-0.9c0,0.6-0.1,1.3-0.4,1.8l0.2,0.1l0,0c-0.2,1,0.1,2.1,0.6,3
		c-1.4,0.6-3.1,0.1-2.7,2.7c-0.2,0.8-0.8,1.3-1.6,1.5c-0.6,0.6-1.1,1.3-1.6,2c-0.1,0.9-0.4,1.6-1.3,1.9c-0.6,1.1-1.7,0.8-2.7,0.7
		c-2.2,1.5-4.9,0.2-7.3,0.5c-1.5,0.4-1.3,2-2.1,3.1c-0.6,0.7-2.1,1.3-1.6,2.5c-1.2,0.9-1.4,2.5-1.7,4c-1.2,2.6-3.1,4.7-4.3,7.3
		c-1.8,3.3-2.2,5.4-6.1,4.2c-1.4-0.2-2.7-0.5-4.1-0.9c-2.9-0.1-4.6,2.4-7.8,1.6c-1.6,0-3.4-0.6-5-0.3c-1.6,0.8-3.3,0.4-4.9,0.2
		c-4.6-1.6-4.5,1-8,1c-3-0.7-6.2-0.6-9.2-1.3c-1.5-0.3-3,0.9-4.5,1.1c-4.2,0.2-2.9-1.4-6.9,2.3c-0.8,1.3-0.6,3.4-1.3,4.9
		c-1.9,2-5.2,1.6-6.4,4.5c-0.3,1-0.8,2-1.4,2.9c-0.3,0.2-0.8,0.5-0.9,0.9c-1.1,2.2-2.6,4.4-4.7,5.4c-1.1,0.6-1.8,2.1-2.9,2.8
		c-0.4,0.4-0.5,1.2-1.1,1.5c-1.1,0.5-1.2,2-2.4,2.4c-0.9,0-0.6,1.9-1.7,2c-1.3-0.2-2.6,0.5-3,1.8c-0.4,0.7-0.1,1.9-0.5,2.5
		s-4.5-4.9-4.7-4.9c0.2-3.3-1.6-3.6-3.7-4.8c0-4,0.2-3.8,3.4-4.3c0.4-1.3,0.1-2.8-0.8-3.9c1.1-3.1,6.3-9.6,8.3-12.1l0.3-2.9
		c-0.1-3,0.8-4,2.9-5.5c1.1-2.4,4.8-10.1,4.9-12.9c-3,1.4-14.9,0.3-18.2,0.1c-1.5,1.4-5.5,6.3-7.8,5.2c-1.4,1.5-3.4,0.1-4.8-0.6
		c-1.6-0.4-2.5,3.8-3.1,4.8l-4.7,0.6c2.5-3.3-0.6-4.9-2-7.5l-1.8-3.2l1.9-1.4l-0.8-1.3c-3.4-5.1,0.5-4.2-0.3-8.9
		c-4.2,2.1-9.7-0.3-13.6-2c0.5-2.5,1-3.3-1.3-4.6c-0.2-7.4-3.3-3-1.9-8.8c-0.3-5.3-8.4-4.4-11.6-4.5c3.3-2.6,1.8-4.8,1.3-8.4
		c0.8-1.3,2.6-3.7,4.2-3.6c1-1.6,2.9-3.4,4.7-3.4c1.8-0.2,7.3-0.4,8.6-2c0-1.1,0.8-2.1,1.8-2.4c1.7-3.8-1.1-4.4,1.6-7.4l-2.4-9.5
		c1.4-1.3,5.1-5.1,7.1-5c0.1-1.5,1-3.6,2.2-4.3c-1-4.9,2.5-5.3,5.1-7.6c2.7-1.1,3.8-0.9,6,1.2c0.8,4.4,6,8.5,9.3,10.1
		c2.3,0.8,8.1,2.6,9.3,5.3c0.5,2.6-0.4,3.5-2.1,4.9c-2.3,0.8-3.2,0.6-2.9,3.9c0.6,5.8,2.8,3.9,5.1,7.6c-1.3,7.5,5,9.8,10.2,7.9
		c0.5,1.6,1.4,1.8,2.8,1.7l1.8-0.8c1.3-1.8,3.9-5.3,3.1-7.9c1.6-3.6,5.1-6.1,9-6.5c2-4.8-3.5-2.6-0.8-9.3c11.4-1.1,5.3,3.2,14.1,5
		c14.8-2.5,5,1.4,13.6,9c1.3,0.7,2.5-0.5,3.3-1.5l7.2-2c2.5,1.8,1.9,2,0.3,4.5c4.9,2.1,13.1-1.3,17.6-3.5l7.7,0.4
		c0.1,0.6,0.8,0.4,0.6-0.2c1.8,2.2,3,5.1,4.2,7.8c1.5,1.7,2.2,4.2,3.8,5.7c0.2,2.5,2.1,4.1,3.1,6.2c0.4,0.6,0.6,1.2,0.8,1.9
		c0.8,1.1,1.7,2.1,2.7,3C412.9,418.5,414.4,419.2,415.4,420.5z"/>
	<path class="st1" d="M392.6,200.8c0.6,2.8,0,3.3-2.3,2.5c-0.8-0.8-1.3-1.1-1.8-1.1l0.3-2.2c0.9,0.1,1.7,0.3,2.3,0.3
		C391.7,200.2,392.3,200.4,392.6,200.8z"/>
	<path class="st1" d="M388.8,200l-0.3,2.2c-0.9,0-1.4,1.3-2.1,2.9c0.4,1,0.9,2,1.5,2.9c0.7,2.3-3.9,1.4-5.1,2.3
		c-1.6-0.5-4.3-1.4-6-1.2c-0.4,0.6-6.4,2.5-5.2,4.1c0.5,0.5,1.8,1.4,0.7,1.9c-0.6,0-1.1-0.1-1.7-0.3c-1.2,0.1-2.9,1.3-2,2.9
		c3.2,5.3,2.6,3.9,1.4,10c0.2,1.2,1.9,1.1,1.8,2.3c-0.2,1.1,1,1.9,1.5,2.6c0.3,0.5,0.8,1.6,1.1,2.1c0.5,0.7,1.1,1.4,1.7,2
		c0.8,0.4,2.1,0.5,2.5,1.5c-0.2,0.6,0.6,1.4,0.8,2.1c0.6,1.8,2.5,1.4,3.7,1.8c0.4,2.4,0.2,1.4-0.8,3.1c0,0.6,0.6,0.6,0.8,1
		c0.6,1.9-2.1,0.1-2.5,1.7c-1.2,3.9-3.7,1.7-5.5,4.1c-2.1,2.2-4.2-0.6-6.9,3.3c-6.2,3.4-10-0.1-15.8,5c-1.4-2.6-25.2-1.9-18.1,2.8
		c-0.7,2.1-2.2,3.4,0.2,4.8c0.1,2-0.3,5.3,1.6,6.5c3.8,0.1,1.5,0.1,4.1,2.1c0.6,0.4,1.6,0.4,2.3,0.8c0.7,0.9,2.2,1.9,2.5,0
		c0.6,0.8,0.8,2.2,1.3,3.1c0.7,1.1,2.2,2.3,2,3.9c-0.4,0.6-1,0.4-1.5,0.1c-1,1.1-3,0.6-1.7,2.9c-1.5,1.5-2.3,1.9-1,4.2
		c1.5,2.6-2.7,2.4-3.8,3.2c-0.8,2.2-1.5,4.6-3.9,4.9c-4.3,3.2-2.9-2.4-8.1-0.7l1.9,2.1c-0.8,1.3-3.1-0.4-4-0.8
		c-2.2,0.2-4.5-0.7-5.9-2.4c-1.3,0.9-7.7,2.7-7.2,5.5c-1.4,2.3-6.9,4.4-9.1,5.3c1.5,4.7,3.8,1,4,6.7c-2.8-0.1-5.8-1.4-8.7-0.8
		c-2.1-2.3-4.8-4-7.7-5c-0.3-0.3-0.4-0.7-0.5-1.1c-0.3-1.3-0.1-3-0.6-3.8c-0.6-0.4-1-0.9-1.3-1.5c-2-0.5-5.7-0.8-7.4,0.8
		c-1.5-0.3-10.3-1.1-11.4-2.5c-2.3,3.5-2.8,1.2-5-0.7c-3.9,3.6,2.3,2.5-7.1,4.7c-2,3.7-3,3.5-6.5,3.3c-2.9-7.3-4.9-1.1-6.2-8.3
		c-7.7,0.7-9.6,0.8-15.9-5c-1.5-1.1,0.6-6.7,0.7-8.1c-0.9-1.8-4.6-0.3-5.4-3.2l4.8-2.3c2,1.3,5.3,0.3,6.9-1.5
		c-2.4-2-5.1-1.5-3.2-5.8c-1.2-0.3-1.2-2.2-1.2-3.3c-1.5-1.1-5.5-4.2-7.4-3.8c0.7-1.5,2.4-5.1,1.9-6.9c3.1-2,7.8-8,11.7-6.4
		c1.1-1.9,1.9-2.6,3.9-2.2c1.8-1.7,6.2-1.8,8.4-1.5c1-0.6,1.5-1.9,1.1-3c3.4-2.6,0.9,0.8,5.6,2.4c2.4-0.8,2-1.1,1.3-3.5
		c1.3-0.8,3.3-1.8,3-3.9c1.4-1.5,4.5-3.7,6.5-3.9c-2-3.3-2.5-9.8-7.1-9c-1.3-1-4.3-3.5-4.7-5.4c-2.5-2.5-4.4-2.5-3-7
		c-1-0.4-3.7,0.3-3-1.9c1-2.7,3.4-4.9,6-5c1.4-4.4,4.2-0.9,7.9-4.9c1.3-0.2,5.1,2.6,6,3.5l10-3.6c0.4-3.9,1.1-3.8,4-4.5
		c0-6.9,3.2-0.7,6.3-11.3c0.8-0.6,3.9,2.5,4.5,2.9c2.4-2.9,6.2-0.2,9-2.7c1.5,2.2,2.2,2,4.4,1c1.4-1.4-9.8-11-10.3-11.8
		c0.1-2.1,0.2-3.1,2.2-3.7c1.2-0.4,2.5,2.6,3.1,3.4c1.3-0.1,6,2.2,6.1-0.7c-0.9-1.4-2.5-4.3-2-6.1c1.8,0.1,5.3-0.2,6.9-1.2
		c3.4,0.4,4.8,2.3,6.4-2.5c-0.7-2.1-1.1-2.8,0.9-4.1c1.3,0.6,5.4,1.2,5.2,3.6c-1.1,2.6-1.9,4.4-0.3,7.1c2.2,0.8,2.6,1.4,2.8,4
		c9,3.7,2.4,5.3,10.5,6.4l2.9,3.4c0.3,1.2,1.2,2.1,2.4,2.3c4.6,12.2,12.8,4.6,20.4,7.5c3.8,0.7,7.5,1.9,11,3.6
		c2.5-0.1,5.1-2.4,7.8-2.4C386.1,199.5,387.4,199.7,388.8,200z"/>
	<path class="st0" d="M371.8,276.1c0.7-0.4,1.5,0.4,1.5,1.3c0,0.4-0.4,0.8-0.3,1.2c-2-0.3-4.1,0.5-5.9,1.4c-1.5-0.5-2.6-0.8-1.6,1.5
		c0.6,0.9,2.1,1.7,2.6,2.6c0.2,1.5-1.9,2.7-2.5,3.9c0.2,2.3,0.2,4.7,0,7c0.1,2.6-0.9,3.3-3,3.6c-2.9-1-6-3.3-9.2-3.1
		c-3.2,3.2-6.1-1.4-5-5.1c-1.5,0.2-2.9,0.6-4.3,1.2c-1.3-2.3-0.5-2.7,1-4.2c-1.2-2.2,0.7-1.7,1.7-2.9c0.5,0.3,1.1,0.5,1.5-0.1
		c0.2-1.6-1.3-2.8-2-3.9c-0.5-0.9-0.6-2.3-1.3-3.1c-0.3,1.8-1.8,0.9-2.5,0c-0.6-0.4-1.6-0.3-2.3-0.8c-2.6-2-0.3-2-4.1-2.1
		c-1.9-1.1-1.5-4.5-1.6-6.5c-2.4-1.5-1-2.7-0.2-4.8c-7-4.7,16.8-5.4,18.1-2.8c5.8-5.1,9.6-1.7,15.8-5c0.6,0.5,1.9,0.4,1.1,1.7
		c-0.9,0.3-2-0.1-2.4,1c-0.5,1.4,1.3,2.9,0.1,4.1c-0.2,0.3-0.2,0.7,0.1,1c0,0,0,0,0.1,0c-0.1,0.7-0.1,1.3-0.1,2
		c-0.5,1.3-1.5,2.3-2.7,2.9c0.5,0.2,0.3,0.9-0.2,1c0.2,0.7-0.5,1-1,1.3c0.3,0.7,1.2,0.7,1.7,1.3c-1.8,1.7,0.2,0.7-0.2,2.7
		c0.3,0.4,0.8,0,1.2,0c0.3,1.3,1.8,1.1,2.7,1.4S370.8,276.7,371.8,276.1z"/>
	<path class="st0" d="M347.1,343.9c-0.5,0.9-2.6,6.5-3.5,6.9c-3.6,0.5-7.2,1.5-10.5,3c-2.8,6.9-5.5,8.8-2.4,16.8
		c3.7,3.1-2.3,2.5,1.9,10.3c-2.8,6.7,2.8,4.5,0.8,9.3c-3.9,0.4-7.4,2.9-9,6.5c0.9,2.6-1.8,6.1-3.1,7.9l-1.8,0.8
		c-1.3,0.1-2.3-0.1-2.8-1.7c-5.2,2-11.5-0.4-10.2-7.9c-2.2-3.7-4.5-1.7-5.1-7.6c-0.3-3.3,0.6-3.1,2.9-3.9c1.7-1.4,2.5-2.3,2.1-4.9
		c-1.2-2.7-7-4.5-9.3-5.3c-3.3-1.7-8.5-5.8-9.3-10.1c3.2-1.2,8.8-1.6,10-6.2c-6.9-2.1,2.3-5.1-1.6-10.4c-1.1-0.6-3.3-2.1-3.5-3.8
		l-3.3-0.9c-2.1-1.9,0.1-5.7-2.9-7c1.5-2.3,1.7-7.9,1.6-10.6c-1-2.7-4.8-2.5-6.8-2.7c-0.1-7.7,2.6-13.6,9.8-14.2h0.1
		c0.1,0.4,0.2,0.8,0.5,1.1c2.9,1,5.6,2.7,7.7,5c2.8-0.6,5.9,0.6,8.7,0.8c-0.2-5.7-2.5-2-4-6.7c2.2-0.9,7.7-3,9.1-5.3
		c-0.5-2.8,5.9-4.5,7.2-5.5c1.4,1.7,3.6,2.7,5.9,2.4c0.9,0.4,3.2,2.1,4,0.8l-1.9-2.1c5.2-1.7,3.8,4,8.1,0.7
		c-0.4,1.1-0.5,2.2-0.4,3.3c-0.9,5.6,2.9,2.4,1.6,6.3c-2.3,6.1-0.8,4.8,3.3,7.6c-0.6,1.3-2,3-2.4,4.4c-0.6,4,0.1,5.1,2.6,1.8
		c2.4,0.7,3.5,4.6,0.5,5.2c-1.7,3.4,3,5.1,1.1,7.4c-2.8,0.7-1.6,3.5-1.1,5.6C343.6,341.5,346.7,341,347.1,343.9z"/>
	<path class="st0" d="M317.6,448.6c0,2.8-3.8,10.4-4.9,12.9c-2.1,1.5-3.1,2.4-2.9,5.5l-0.3,2.9c-2,2.5-7.1,9-8.3,12.1
		c0.8,1.1,1.1,2.5,0.8,3.9c-3.3,0.5-3.4,0.3-3.4,4.3c-6.3,1.4-1.3,3.8-4.5,5.1l2,2.2l-2.3,1.5c-3.9-1.6-3.5,2-3.3,5.1l3.6,1
		c2.1,2,0,3-1.8,2.8l-1.3,2.5c-1.2-0.1-2.5,0.3-3.7,0.1c-0.9-0.5-1-2.2-2.3-1.9c-2.3,1.2-4.8,0.9-7.2,1.1c-0.5,0.1-1,0.4-1.3,0.8
		c-1,0.1-1.9,0.5-2.7,1.1c-1.1,0.4-2.8,0.4-3.4,1.6c0,0.7,0,1.5-0.1,2.3c-0.4,0.7-0.6,1.5-0.8,2.3c0.5,1.3,0,2.5-0.3,3.8
		c0,1.4-1.1,1.6-2.1,1.7c-5.4,2.8-0.9,4-2.7,5.2c-2.2,1.5-2.3,1.3-1.6,4.3c-0.8,1.2-1.2,2.6-1.4,4c-0.2,0.6-0.5,1.2-1,1.6
		c-3.4-8.2-6.6-3-7.8-11.6c0.3-0.9,0.6-2.3-0.1-3.1c-2.5-0.2-4.2-4.5-6.7-4c0.4-2.4-2.9-1.6-4.1-2c1.4-1.9-1.9-2.3-2.7-3.1l1.2-2
		c-1.6,1.8-3.7,1.6-5.7,0.9l-2.3-4.2c-9.4-1.5-5.9-4.6-12.9-7c0.2-1.1,6.6-1.3,7.3-1.5l0.9-4.3c-4.4-0.1-1.7-2-5.6-3.8
		c-0.7,0.3-2.6,1.7-3.4,0.9c-1.6-1.7-4.7-4.2-7.1-3.8c-1.1,0.9-3.5,2.6-4.8,2.3c0.4-4.7,0-10.7,5.9-8.3c2.8,1.1,4.6-4,5.9-5.9
		c1.1-0.4,3.1-0.5,3-2.4c-0.2-3-3.3-9.6,0.1-11.6c-0.6-7.3,2.3-5.8,6.7-8.5l-1.2-7.7c1.5-1.6,4.7-6.7,0.5-6.2
		c-2.9,0.3-4.5,0.3-6.5-2.6c-1.9-1.8-3-9.6-3.5-12.2c3.3-0.1,4-4,5.2-6.8c0.7-0.2,6.3-0.6,6.4-1.8c1.1-0.3,2.3,0.3,2.8,1.4l2.4,1
		c1.5-1.4,5.5-1,7.3-0.7l4.4-1.1l0.3-0.8l1.6-1.2c3.2,0.1,11.3-0.8,11.7,4.5c-1.4,5.8,1.8,1.3,1.9,8.8c2.3,1.3,1.8,2.1,1.3,4.6
		c3.9,1.7,9.4,4.1,13.6,2c0.8,4.6-3.1,3.8,0.3,8.9l0.8,1.3l-1.9,1.3l1.7,3.1c1.4,2.6,4.5,4.2,2,7.5l4.7-0.6c0.6-1,1.5-5.2,3.1-4.8
		c1.4,0.8,3.4,2.2,4.8,0.6c2.2,1.1,6.3-3.9,7.8-5.2C302.7,448.9,314.5,450,317.6,448.6z"/>
	<path class="st0" d="M298.5,178.9c0.4,0.8,11.7,10.4,10.3,11.8c-2.1,1-2.8,1.1-4.4-1c-2.8,2.5-6.6-0.2-9,2.7
		c-0.6-0.4-3.7-3.5-4.5-2.9c-3.1,10.6-6.3,4.4-6.3,11.3c-3,0.7-3.7,0.6-4,4.5l-10,3.6c-1-0.9-4.7-3.7-6-3.5
		c-3.6,4.1-6.5,0.5-7.9,4.9c-2.5,0.1-5,2.3-6,5c-0.7,2.2,2,1.5,3,1.9c-1.5,4.5,0.4,4.5,3,7c0.5,1.9,3.4,4.4,4.7,5.4
		c4.6-0.8,5.1,5.8,7.1,9c-1.9,0.2-5,2.4-6.5,3.9c0.4,2.1-1.7,3.1-3,3.9c0.7,2.4,1.1,2.8-1.3,3.5c-4.7-1.6-2.2-5-5.6-2.4
		c0.4,1.1-0.1,2.4-1.1,3c-2.2-0.3-6.6-0.2-8.4,1.5c-2-0.4-2.8,0.3-3.9,2.2c-3.9-1.7-8.6,4.3-11.7,6.4c0.4,1.7-1.3,5.4-1.9,6.9
		c-0.5,3.3-4.4,8.3-6.4,10.5c-0.6,6.1-6.9,10.8-12,10.2l-4.1,4.2c-2.5-0.7-7.6-3.5-9.6-0.5c-2.1,3.5-3.8,3-7,2.8
		c-9.8,8-5.9,4.9-17.1,4.1c-1.4,3.7-2.8,2.4-5.5,2c-1.3,5.5-5.2,2.9-8.9,3.6c-1.4-0.4-3.2-3.1-3.9-4.4c-2.9-0.4-5.6,0.3-6.8-3.6
		c0.2-3-1.2-12.2,2.2-13.8l-3.2-6.5c-1.1-1.5-5.6,0.4-6.9,0.5c-2.2-1.8-4.1-1.6-6.5-0.7c-3.6-4.5-10.9-2.9-14.8-7.6
		c-3.1-7.1-4.3-1.8-8.5-6.3c-1,0.1-2.4,1.4-2.5-0.6c7.3-1.3,3.5-4.7,6.8-10.2c0.7,1.2,3.5,4.9,3.2,6.5c2.3-0.7,4.1-1.3,4.9-4.3
		l-2.5-6.3l1.8-1.6c4.3,2.9,7.4-1.4,11.9-0.7c1.5-3.3,1.3-4.3,4.8-3.2c2.1-1,6.4-2.3,8.6-1.4c4-0.8,9.3-4.4,10.5-9.2
		c-1.1-0.9-3.6-1-4.8-0.6c-2.1-3.5-3.8-1.1-6.4-0.1c-1.5-0.9-4.5-2.1-6.2-1.7c-1.6-2.5-3.6-7.8-3.6-11c2.7-4.1-1.2-4.5,1.1-9.7
		c-3.1-3.5-2.5,0.1-6.5-3.3c1.8-2.5-4.9-9.1-5.8-10.9c-0.6-0.8-2.6-2.3-2-3.6c-1.7-0.5-4.2-2.2-5-4.1l2.5-2.9
		c-1.3-1.8-8.5-9.1-8.1-11.8c-2.4-2.3-9.5-9.4-12.4-10.7c4.3-1,5.6-2.5,7.7-6.8c10.9-1,4-3.1,8.2-5.8l-2.7-3
		c-1.2,3.2-1.8,1.3-2.8-0.7c-1.6-0.4-2.8-2.2-3.3-3.9l1.6-1c1.9-6.9,0.6-5.4-4.2-7.9c-2-2.7,2.5-5.4,4-6.7c2-0.4,3.8-1.4,5.3-2.8
		c3.8-1.5,9.3,0.5,13.1-1.1c1.9,0.5,7.1,3.6,8,0.3c-0.8-1-2.9-3-2.3-4.6c3.3-3-0.9-1.3,1.2-7.1c-1.8-2.2-1.7-5.3-1.3-8.1l-0.9-6.5
		c4.3-4.6,11.7-16.4,18.7-13.3l4.2-2.4c-1.3-2.6-3-8,0.2-9.7c-0.5-4.7,3.3-4.3,5.9-6c2.5,1.4,5.7,2.6,8.4,1.3l6.7,1.5
		c1.9-0.5,1.9-2.8,2.1-4.6c3-2.7,4.8,1.3,7.1,3c-1.6,1.1-4.6,4.4-3.9,6.8c1.3,2.6,3.5,4.4,6.3,5.2c1.2,2.6,1.5,5.5,0.9,8.2
		c3.2,7.7,4.8,7.4-3.1,10c2.9,3.8,2.4,10.5,1.7,15.2c-0.5,0.8-3.6,3-2.3,4.3c4-2.8,11.2-3.1,15.5-1.1c2.4-4,5.6-2.4,8.3,0.2
		c1.6-0.4,4.2,1.1,5.5,2c2.6,0,2.4-0.5,2.6-3.3c3.1-3.6,1.4,5.5,8.4-0.8c-4.5-2.6-0.7-2.8-4.5-4.8c0.8-4.4,6.5-4.3,9.4-5.3
		c0.4-2.2,16-8.1,17.6-9c1.4-1.7,3.9-4.4,6.1-4c0.4-2.9,1.3-2.1,3.3-1.9c7.3-7.6,4.5-1.6,10.5-5c2.6-1.2,3.3,4,4.3,5.7l4,5.6
		l-0.1,4.1c1.3-0.1,3.8,0.5,5.8,0.3v0.1c-0.6,3.6-1.6,4.3-4.5,5.5l-9.1,7.8c3.2,5.3-0.6,4.7,4.7,7.7c1.5,1.1,1.4,5.7,1.4,7.4
		c1.3,0.7,2.2,2.1,2.2,3.6c1.4,0.3,2.5,2.5,3,3.8c2.5,1.2,5.2,1.8,8,1.8c2.7,3,5.8,3.8,4.1,8.9c1.2,2.8,4.7,6.1,2.3,9.3
		c2.5,1.3,1.8,2,0.9,4.4c1.6,1,3.4,4.2,4,6.1l-1.8,2.6c1.5,3.4,2.4,4.7,5.9,5l2.1,4C298.8,175.7,298.6,176.7,298.5,178.9z"/>
	<path class="st2" d="M296.3,347.6c4,5.2-5.2,8.2,1.6,10.4c-1.2,4.7-6.8,5.1-10,6.2c-2.2-2.1-3.3-2.3-6-1.2
		c-2.6,2.3-6.1,2.7-5.1,7.6c-1.2,0.7-2.1,2.8-2.2,4.3c-1.9-0.1-5.7,3.7-7.1,5l2.4,9.5c-2.7,3,0.1,3.6-1.6,7.4
		c-1,0.4-1.8,1.3-1.8,2.4c-1.3,1.6-6.8,1.8-8.6,2c-1.8,0-3.7,1.7-4.7,3.4c-1.6-0.1-3.4,2.3-4.2,3.6c0.5,3.7,2,5.8-1.3,8.4l-1.6,1.2
		l-0.3,0.8l-4.4,1.1c-1.8-0.3-5.7-0.7-7.3,0.7l-2.4-1c-0.4-1.1-1.6-1.7-2.8-1.4c-0.1,1.2-5.8,1.6-6.4,1.8c-1.2,2.7-1.9,6.7-5.2,6.8
		c-2.9,0.3-4.8-1.6-6.6-3.9c-2.6,3.9-5.4,3.3-9.1,3.2c-4.5-0.7-4.3-5.4-6.9-0.9c-11.2-3.7-9.6,3.4-13.5,1.3c1.5-5.7,3.4,0.8,4-10.7
		c-4.1-8.1-7-2.9-9.3-11.5c-4-1.5-7.3,2.4-11,1.8l-6.6-7.6c-0.1-2-2.2-4.2-3.5-5.1c-1.7-3.4-4.2-7.4-7.7-8.4c-0.8,0.7-2,0.6-2.7-0.3
		c-3.4,1.7-5.4,1.4-8.6-0.4l-11.7,2.9c-8.5,3.6-6.2-0.9-14.1-0.2c-1-1.6-3.5-2.2-5.1-2.1c-1.7-2.6-4.2-4.5-7.1-5.4l-0.2,0.1
		c0.5-0.7-0.1-3.1,0-3.6c1-0.7,1.6-1.9,1.5-3.1c-1.9-0.8-5.5-3-6.4-5.3c-0.3-2.3-1.2-7.9,0.6-9.7c1.7,1,6.5-4.2,7.7-5.1
		c1.5-4.7,2.9,1.6,6.7-5.3c2.1,0.4,2.9,1.1,3.6-1.8c6.8-3.4,1.5,1.8,7.3,3.4c1.5,6.4,3.1,0.3,8.1,3.1c2.1-1.2,5.6-4.4,6.7-6.8
		c1.8,0.4,4.6,1.2,5.3,3.5l1.4-1.8c-0.7-2.1,0.5-5.3,1.9-6.8c3,1.3,4.3-0.6,5.8-3.3c-0.8-3.9-4.7,2.3-3.3-8.1
		c2.9-3.4,4.7-5.2,4.2-10.3c1.2-1.2,2.6-3.8,2.6-5.7l3.2-3.3c0.1-1,1.2-4.4,0.2-5.2c3.7-0.7,7.6,1.9,8.9-3.6c2.7,0.4,4.2,1.7,5.5-2
		c11.2,0.8,7.4,3.9,17.1-4.1c3.2,0.3,4.9,0.8,7-2.8c2-3.1,7.1-0.2,9.6,0.5l4.1-4.2c5.1,0.6,11.4-4.1,12-10.2c2-2.1,5.9-7.2,6.4-10.5
		c1.9-0.4,5.9,2.7,7.4,3.8c0,1.1,0,3,1.2,3.3c-1.8,4.3,0.8,3.9,3.2,5.8c-1.6,1.8-4.9,2.8-6.9,1.5l-4.8,2.3c0.8,2.9,4.4,1.4,5.4,3.2
		c0,1.4-2.1,7-0.7,8.1c6.3,5.7,8.2,5.6,15.9,5c1.3,7.2,3.2,1,6.2,8.3c3.5,0.2,4.6,0.4,6.5-3.3c9.4-2.2,3.2-1.1,7.1-4.7
		c2.3,1.8,2.7,4.2,5,0.7c1.1,1.4,9.9,2.2,11.4,2.5c1.7-1.6,5.4-1.3,7.4-0.8c0.3,0.6,0.7,1.2,1.3,1.5c0.5,0.8,0.4,2.5,0.6,3.8h-0.1
		c-7.2,0.6-9.8,6.5-9.8,14.2c2,0.1,5.8,0,6.8,2.7c0.1,2.7-0.1,8.4-1.6,10.6c3,1.3,0.8,5.1,2.9,7l3.3,0.9
		C293,345.5,295.2,346.9,296.3,347.6z"/>
	<path class="st2" d="M260.3,538.2c-0.1,0.2-0.2,0.3-0.4,0.5c-0.9,0.5-1.7,1.3-2.2,2.2c-1.1,0.3-1.1,0.8-1.2,2
		c-0.6,0.9-2.1,0.6-2.4,1.7c1,2,1.7,2.4,0,4.3c-0.5,1.4-1.4,2.7-2.6,3.6c-0.4,0.6-0.8,1.4-1.4,1.7c-1.9,0.3-3,2.4-3,4.5
		c-1.4-0.2,0,1.7-0.6,2.4c-0.8,0.6-2,0.2-2.9,0.6c-1.6,1.2-3.4,2.2-5.3,2.8c-1.1,0.3-2.3,0.4-3.5,0.4c-0.6-0.1-0.9,0.7-1.5,0.8
		c-0.5,0.1-1.1,0-1.5-0.4c-1.2,0.3-2.1,1.3-2.3,2.5c-1.5-1-4.9-1.3-6.6-1.3l-4.9-1.9c-1.5-3.6-2.7-4.9-0.5-8.7
		c-2.1,0.8-6.6,0.7-8.8,0.4c-1,0.4-3.9,2.2-4.8,1l-3.6-9.7l-1.9-0.1c-1.6-0.1-6.3-0.4-7.7,0.8c-2.1,0.9-6.5-0.4-8.5-1.1
		c-5.7,0.5-5.1,4.6-10,2.7l-8.3,3.3c-15.4,1.8-0.2,9.5-22.6,4.7c-1.4-0.6-4.5,0.5-5.8,1.1c-2.7-1.7-4.1-2.2-7-0.5
		c-4.4,0.1-9.3,0.8-12.8-3.4c-1.1,0-3.4-0.1-4.2-1.3l-0.5,0.8c-2.1-6.9-4.8-9.7-10.7-12.1c-2.2-0.1-4.4,0.5-6.3,1.8
		c-3.7-3.1,0.2-2.6-0.6-6.1c-3.1,0-2.3-2.2-1.2-4.4l-0.5-3.5c3.8-1.5,5.7-1.6,6.9-6.6c3.1-1.3,3.5-6.2,4.1-9.4
		c4.5-3.4,4.3-1.9,5.6-8.2c1.4-0.7,2.6-1.8,3.5-3.1l0.4,0.1l2.6-0.6c1.8-1.7,4.4-5.1,7-3.7c3.7-7.7,4.1-3.2,9.9-1.3
		c6-0.2,13.1-6.4,19-7.8c2,0.8,7,2.8,9,2.1c8.6-1,4.2-2.1,9.1-7l3.1,0.6c2.4,0,4.1-3,5.1-5.1l5.9-4c3.2-1.3,16.3,0.6,14.3-6.6
		c1.4-1.2,4.4-0.7,5.9-0.3c0.5,4,3.1,4.6,5.9,5.9c2.4,2.1,3.5,5.3,3,8.5c-5.9-2.4-5.5,3.6-5.9,8.3c1.4,0.3,3.8-1.4,4.8-2.3
		c2.4-0.5,5.4,2.1,7.1,3.8c0.8,0.8,2.7-0.5,3.4-0.9c3.9,1.8,1.2,3.7,5.6,3.8l-0.9,4.3c-0.7,0.2-7.1,0.4-7.3,1.5
		c7,2.4,3.5,5.5,12.9,7l2.3,4.2c2,0.7,4,0.8,5.7-0.9l-1.2,2c0.9,0.8,4.1,1.1,2.7,3.1c1.2,0.4,4.5-0.5,4.1,2c2.5-0.5,4.3,3.8,6.7,4
		c0.7,0.8,0.5,2.2,0.1,3.1C253.7,535.2,256.9,530,260.3,538.2z"/>
	<path class="st2" d="M226.1,610.7c3.9,1.9,4.4,6.3,3.8,10.7c-5,6.6-5.6,0-9.3,7c-2.9,1-5.1,1.2-5-3.2c-3.4-0.5-3.2-6.3-6.8-6.8
		c-5.9,1.8-3.1-0.3-7.3-1c-1.7,6.8-2.8,1.4-5.8,4.3c0,0.4-1.3,5.1-1.1,5.4s0.3,0.6,0,0.8c-0.3-0.1-1.1-0.4-1.2,0.1
		c0.1,0.2,0.5,0.4,0.3,0.7c-0.9-0.2-2.9,0.8-1.2,1.5c-0.4,0.5-1.3,0.3-1.9,0.4s-1.4,0.5-1.8-0.3c-0.7-0.1-0.1,0.8-0.7,0.6
		c-0.9-0.2-1.8,0.1-2.4,0.8c-0.4,0.6,0.5,1.3-0.5,1.2c-0.6,0.3-1.3-1.6-1.5-1.9c1.4-2.6,0.9-3.9-0.3-6.3c-2-0.1-10.8,1.8-12-0.9
		l-12.4,2.2l-4.9-4.5c-2-0.1-5-0.9-6.2-3.1c-1.4-0.2-3.9,0.1-4.2-2.2c-1.3,0.7-3.6-0.5-4.8-1.2l-5.2-0.2c-1.3-1.1-2.3-3.2-4-1.5
		c-3.1-3.7-0.2,3.2-7.7-2.2c-4.8,2.1-9.8-0.1-9.3-6.8l-1.4,1l-0.2-0.9c-0.4,0-2.2-1.3-2.2-0.2c1.3,1.1,1.9,1.5,1.2,3.4
		c-2.4-0.4-1.5-4.2-3.4-3.4l0.7,1.3c-1.2,0.3-3.3,1.5-3.3-0.8c-1,0.7-3-0.2-3.9-0.6c-1,0.3-1.6,1.3-1.4,2.3c0,0,0,0,0,0
		c-4.9,0.7-5.8-6-9.6-2.5c0.4-1.7-1.1-4.9-1.7-6.3c-2.2,0.5-4.8-1.3-6.4-2.9c-2.2-0.1-3.1,0-3.8-2.7l-2.4-1.8
		c-0.2-2.6,1.2-3.3,2.9-4.3c0.4-1.1-0.9-2.7-1.5-3.5c-2.4-0.6-2.7-0.6-2.1-3.5c-8.3-1.9-4.9-1-3-7.6l-3.2,0.5
		c0.8-3.7,2.8-4.3,5.6-3.1c0.8-2.2,3.4-2.7,5.1-1.9c1.3-0.9,5-3.6,6.5-3.5c-0.4-4-1-9.4,4-9c0.6,2.1,0.5,3.4,2.8,3.1
		c4-3.4,0.7-5.6-0.3-9.7l2.7-3.6c1.8-1.3,4-1.9,6.3-1.8c5.9,2.4,8.6,5.2,10.7,12.1l0.5-0.8c0.7,1.2,3,1.3,4.2,1.3
		c3.5,4.1,8.4,3.4,12.8,3.4c2.9-1.7,4.3-1.2,7,0.5c1.3-0.6,4.4-1.7,5.8-1.1c22.4,4.8,7.1-2.8,22.6-4.7l8.3-3.3
		c4.9,1.9,4.3-2.2,10-2.7c2,0.8,6.4,2,8.5,1.1c1.4-1.2,6-0.9,7.7-0.8l1.9,0.1l3.6,9.7c1,1.2,3.8-0.6,4.8-1c2.1,0.3,6.7,0.5,8.8-0.4
		c-2.2,3.8-1,5.1,0.5,8.7l4.9,1.9c1.7-0.1,5.1,0.3,6.6,1.3c-0.5,0.9-1.1,1.8-1.7,2.7c-0.3,0.5-0.1,1.1-0.3,1.7
		c-0.3,0.2-0.8,0.6-1.1,0.5c-1.3,0.4-2.3,1.4-2.6,2.8c-0.2,0.6-0.9,0.3-1.2,0.8c-0.6,1-0.9,2.5-1.9,2.9c0.1,0.6-0.4,0.8-0.8,1.2
		c-0.4,0.4-0.8,0.7-1.3,0.9c-0.2,1.3,0.1,2.6-0.4,3.9c-0.5,1.8-2,2.8-3.1,4c-0.2,0.4-0.1,1-0.4,1.4c-0.5,0.4-0.7,1.1-0.6,1.7
		c0,0.2,0.1,0.5,0.3,0.6l0.3,1.2c1.3,0.3,1.7,0.8,1.7,2.3l-0.9,2.5c2,0.7,4.5,1.5,4,4.6c1,1.5,2.2,3,0.9,4.9
		C223.8,607.9,225.4,605,226.1,610.7z"/>
	<path class="st2" d="M227.4,441.5c4.2-0.5,1,4.6-0.5,6.2l1.2,7.7c-4.4,2.7-7.3,1.2-6.7,8.5c-3.4,2-0.3,8.5-0.1,11.6
		c0.2,2-1.8,2-3,2.4c-1.3,2-3.1,7-5.9,5.9c0.5-3.1-0.6-6.3-3-8.5c-2.8-1.3-5.4-1.9-5.9-5.9c-1.5-0.5-4.5-1-5.9,0.3
		c2,7.2-11.1,5.2-14.3,6.6l-5.9,4c-1.1,2.1-2.7,5.1-5.1,5.1l-3.1-0.6c-4.9,4.9-0.4,6-9.1,7c-2.1,0.7-7.1-1.3-9-2.1
		c-5.9,1.4-13,7.5-19,7.8c-5.8-1.9-6.3-6.4-9.9,1.3c-2.6-1.4-5.2,2-7,3.7l-2.6,0.6l-0.4-0.1c0.8-1.3,1.2-2.9,1.5-5.4l6.8-9.5
		c-1-2.2,0.4-4.9,1.4-6.8c0.9-2.9-5-4-6.2-5l-5.2,1.7c-0.8-2.8,2-3.7,3.6-4.9c0.7-2-0.6-2.7-1.8-3.6c0.2-2-2.3-1.8-3.3-2.1
		c-0.6-2.5-1-10-3.8-10.8c-0.7-1.4-2.2-5.8-3.9-5.9l-0.1-6.4c-2.8-0.7-2.2-3.2-5.1-4.8c5.2-5.8-4.2-4.8-6.8-5.5
		c1.3-3.8-2.5-3.6-4.7-3.1c-1.8-2.8-4.7-2.3-7.3-2c-4-3.9-2.8-5.5-2.1-10.7c-4.6-4.6-1-7.6,2.1-11.5c-2.9-1.8-2.2-6.4-1.3-9.4
		c3.3-2,3.5-3.3,3.7-7.4l7.8-0.9l0.3-5l4,0.8c1.5-1.9,2.3-7.2,5.3-5.2c0.3,0.1,0.5,0,0.6-0.1l0.2-0.1c2.9,0.9,5.4,2.8,7.1,5.4
		c1.6,0,4.1,0.5,5.1,2.1c7.9-0.6,5.6,3.9,14.1,0.2l11.7-2.9c3.2,1.8,5.3,2.1,8.6,0.4c0.7,0.8,1.9,0.9,2.7,0.3c3.5,1,6,5,7.7,8.4
		c1.4,1,3.4,3.1,3.5,5.1l6.6,7.6c3.7,0.6,7.1-3.3,11-1.8c2.3,8.6,5.1,3.4,9.3,11.5c-0.7,11.5-2.5,5-4,10.7c3.9,2.1,2.3-5,13.5-1.3
		c2.6-4.5,2.4,0.1,6.9,0.9c3.7,0.1,6.6,0.7,9.1-3.2c1.8,2.3,3.6,4.2,6.6,3.9c0.5,2.6,1.6,10.4,3.5,12.2
		C222.8,441.7,224.4,441.8,227.4,441.5z"/>
	<line class="st3" x1="177.1" y1="59.3" x2="176.4" y2="60.5"/>
	<path class="st3" d="M277.3,97.3c-0.6,3.6-1.6,4.3-4.5,5.5l-9.1,7.8c3.2,5.3-0.6,4.7,4.7,7.7c1.5,1.1,1.4,5.7,1.4,7.4
		c1.3,0.7,2.2,2.1,2.2,3.6c1.4,0.3,2.5,2.5,3,3.8"/>
	<path class="st3" d="M275.1,133c2.5,1.2,5.2,1.8,8,1.8c2.7,3,5.8,3.8,4.1,8.9c1.2,2.8,4.7,6.1,2.3,9.3c2.5,1.3,1.8,2,0.9,4.4
		c1.6,1,3.4,4.2,4,6.1l-1.8,2.6c1.5,3.4,2.4,4.7,5.9,5l2.1,4"/>
	<path class="st3" d="M448.8,222c4.3-1.6,6.4,2.3,12.3,0.4"/>
	<path class="st3" d="M448.8,222c-1.4-0.2-2.5,2.6-3,3.7"/>
	<line class="st3" x1="445.8" y1="225.7" x2="442.2" y2="229.6"/>
	<path class="st3" d="M525.2,206.9c-1.5-0.1-4.1,0.1-5.2,1.6c-1.3-0.1-4.6-1.2-5.3,0.6c-1.9-0.6-4.8,2.8-6,4.1
		c-5.3-0.1-16.1,2.8-21.2,4.6c-1,2.3-2.7,4.1-5,5.1c4.2,9.4-0.9,7.1-3.5,14.7"/>
	<path class="st3" d="M461.1,222.4c1.8-0.2,4.8,1.3,6.3,2.3l10.2,0.2c-1.2,1.8-1.7,6.5-1.7,8.7l3.2,4"/>
	<line class="st3" x1="479" y1="237.6" x2="481.4" y2="239.1"/>
	<path class="st3" d="M442.2,229.6c-2-0.1-3.6,1.6-4.7,3.4l-3.6,2c-1.9,0.4-23.2,7.9-24.5,6.2l-10.4,4.9h-0.1"/>
	<path class="st3" d="M481.4,239.1c4.1,0.7,7.7,2.8,10.2,6.1c4.1-1.9,13.2,2.6,16.9,4.3"/>
	<path class="st3" d="M508.6,249.6c0.2,1.8-1.2,4.5-2.2,5.8"/>
	<path class="st3" d="M506.4,255.4c-4.8,1.5-4.5,2.8-2.7,7.6"/>
	<path class="st3" d="M503.7,263c0.9,3.1-2.8,9.6-4.1,12"/>
	<path class="st3" d="M499.6,275.1c1.4,1.2-0.6,5.6-0.9,7l-3.6,4"/>
	<path class="st3" d="M193.1,291.9c2-3.1,7.1-0.2,9.6,0.5l4.1-4.2c5.1,0.6,11.4-4.1,12-10.2c2-2.1,5.9-7.2,6.4-10.5"/>
	<path class="st3" d="M495.1,286c-1.9,2.9,1.8,7.9,2.8,10.3"/>
	<line class="st3" x1="498" y1="296.4" x2="499" y2="296.4"/>
	<path class="st3" d="M499,296.4c1.4,1.1,4.5,3.6,4.7,5.7"/>
	<path class="st3" d="M154.6,304.3c3.7-0.7,7.6,1.9,8.9-3.6c2.7,0.4,4.2,1.7,5.5-2c11.2,0.8,7.4,3.9,17.1-4.1c3.2,0.3,4.9,0.8,7-2.8
		"/>
	<path class="st3" d="M503.8,302.1c1.4,3,3,3,5.6,3"/>
	<path class="st3" d="M535.1,315.5L535.1,315.5"/>
	<path class="st3" d="M509.4,305.1c0.9,0.6,2,1,3.1,1.2c2.5,1.4-1.5,2.1-0.1,3.6c1.6,0.3,2.8,1.5,3.2,3c0.4,1,1.6,1.8,2.3,0.8
		c0.4-1.7,1.9-1.5,3-0.8c3,1,6.1,0.5,9.2,1c1.9,0.1,3.2,3.1,5.1,1.7"/>
	<path class="st3" d="M291.3,308.4c-7.2,0.6-9.8,6.5-9.8,14.2"/>
	<path class="st3" d="M281.6,322.6c2,0.1,5.8,0,6.8,2.7c0.1,2.7-0.1,8.4-1.6,10.6c3,1.3,0.8,5.1,2.9,7"/>
	<line class="st3" x1="289.6" y1="342.9" x2="292.9" y2="343.8"/>
	<path class="st3" d="M292.9,343.8c0.2,1.7,2.3,3.1,3.5,3.8c4,5.2-5.2,8.2,1.6,10.4"/>
	<path class="st3" d="M298,357.9c-1.2,4.7-6.8,5.1-10,6.2"/>
	<path class="st3" d="M287.9,364.1c-2.2-2.1-3.3-2.3-6-1.2"/>
	<path class="st3" d="M287.9,364.1c0.8,4.4,6,8.5,9.3,10.1c2.3,0.8,8.1,2.6,9.3,5.3"/>
	<path class="st3" d="M282,363c-2.6,2.3-6.1,2.7-5.1,7.6c-1.2,0.7-2.1,2.8-2.2,4.3c-1.9-0.1-5.7,3.7-7.1,5"/>
	<path class="st3" d="M144.5,384.6c-3.4,1.7-5.4,1.4-8.6-0.4l-11.7,2.8"/>
	<path class="st3" d="M306.5,379.6c0.5,2.6-0.4,3.5-2.1,4.9c-2.3,0.8-3.2,0.6-2.9,3.9"/>
	<path class="st3" d="M97.9,379.3c2.9,0.9,5.4,2.8,7.1,5.4c1.6,0,4.1,0.5,5.1,2.1c7.9-0.6,5.6,3.9,14.1,0.2"/>
	<path class="st3" d="M333.4,390.3c2-4.8-3.5-2.6-0.8-9.3"/>
	<path class="st3" d="M267.5,379.9l2.4,9.5c-2.7,3,0.1,3.6-1.6,7.4"/>
	<path class="st3" d="M268.4,396.8c-1,0.4-1.8,1.3-1.8,2.4"/>
	<path class="st3" d="M266.6,399.2c-1.3,1.6-6.8,1.8-8.6,2"/>
	<path class="st3" d="M333.4,390.3c-3.9,0.4-7.4,2.9-9,6.5c0.9,2.6-1.8,6.1-3.1,7.9"/>
	<line class="st3" x1="319.5" y1="405.5" x2="321.4" y2="404.7"/>
	<path class="st3" d="M301.5,388.3c0.6,5.8,2.8,3.9,5.1,7.6c-1.3,7.5,5,9.8,10.2,7.9c0.5,1.6,1.4,1.8,2.8,1.7"/>
	<path class="st3" d="M165,406l-6.6-7.6c-0.1-2-2.2-4.2-3.5-5.1c-1.7-3.4-4.2-7.4-7.7-8.4c-0.8,0.7-2,0.6-2.7-0.3"/>
	<path class="st3" d="M176.1,404.2c-4-1.5-7.3,2.4-11,1.8"/>
	<path class="st3" d="M258,401.2c-1.8,0-3.7,1.7-4.7,3.4c-1.6-0.1-3.4,2.3-4.2,3.6c0.5,3.7,2,5.8-1.3,8.4"/>
	<line class="st3" x1="247.8" y1="416.7" x2="246.2" y2="417.9"/>
	<line class="st3" x1="246.2" y1="417.9" x2="245.9" y2="418.7"/>
	<path class="st3" d="M245.9,418.7l-4.4,1.1c-1.8-0.3-5.7-0.7-7.3,0.7l-2.4-1c-0.4-1.1-1.6-1.7-2.8-1.4"/>
	<path class="st3" d="M247.8,416.7c3.2,0.1,11.3-0.8,11.7,4.5"/>
	<path class="st3" d="M210.8,422.8c-2.6,3.9-5.4,3.3-9.1,3.2"/>
	<path class="st3" d="M181.3,426.4c1.5-5.7,3.4,0.8,4-10.7c-4.1-8.1-7-2.9-9.3-11.5"/>
	<path class="st3" d="M229,418.1c-0.1,1.2-5.8,1.6-6.4,1.8c-1.2,2.7-1.9,6.7-5.2,6.8"/>
	<path class="st3" d="M217.4,426.7c-2.9,0.3-4.8-1.6-6.6-3.9"/>
	<path class="st3" d="M201.7,426c-4.5-0.7-4.3-5.4-6.9-0.9c-11.2-3.7-9.6,3.4-13.5,1.3"/>
	<path class="st3" d="M259.4,421.2c-1.4,5.8,1.8,1.3,1.9,8.8c2.3,1.3,1.8,2.1,1.3,4.6"/>
	<path class="st3" d="M217.4,426.7c0.5,2.6,1.6,10.4,3.5,12.2"/>
	<path class="st3" d="M220.9,438.9c1.9,2.8,3.6,2.9,6.5,2.6"/>
	<path class="st3" d="M262.6,434.5c3.9,1.7,9.4,4.1,13.6,2c0.8,4.6-3.1,3.8,0.3,8.9"/>
	<polyline class="st3" points="276.5,445.4 277.3,446.7 275.4,448 277.1,451.1 	"/>
	<path class="st3" d="M279.1,458.6l4.7-0.6c0.6-1,1.5-5.2,3.1-4.8c1.4,0.8,3.4,2.2,4.8,0.6c2.2,1.1,6.3-3.9,7.8-5.2
		c3.3,0.2,15.1,1.3,18.2-0.1"/>
	<path class="st3" d="M277.1,451.1c1.4,2.6,4.5,4.2,2,7.5"/>
	<path class="st3" d="M317.6,448.6c0,2.8-3.8,10.4-4.9,12.9c-2.1,1.5-3.1,2.4-2.9,5.5"/>
	<path class="st3" d="M197.6,469.7c1.4-1.2,4.4-0.7,5.9-0.3"/>
	<line class="st3" x1="309.8" y1="466.9" x2="309.6" y2="469.8"/>
	<path class="st3" d="M227.4,441.5c4.2-0.5,1,4.6-0.5,6.2l1.2,7.7c-4.4,2.7-7.3,1.2-6.7,8.5c-3.4,2-0.3,8.5-0.1,11.6"/>
	<path class="st3" d="M203.5,469.4c0.5,4,3.1,4.6,5.9,5.9c2.4,2.1,3.5,5.3,3,8.5"/>
	<path class="st3" d="M221.2,475.5c0.2,2-1.8,2-3,2.4c-1.3,2-3.1,7-5.9,5.9"/>
	<path class="st3" d="M172.3,485.4c2.4,0,4.1-3,5.1-5.1l5.9-4c3.2-1.3,16.3,0.6,14.3-6.6"/>
	<line class="st3" x1="169.2" y1="484.8" x2="172.3" y2="485.4"/>
	<path class="st3" d="M309.6,469.8c-2,2.5-7.1,9-8.3,12.1c0.8,1.1,1.1,2.5,0.8,3.9c-3.3,0.5-3.4,0.3-3.4,4.3"/>
	<path class="st3" d="M160.2,491.8c8.6-1,4.2-2.1,9.1-7"/>
	<path class="st3" d="M151.1,489.7c2,0.8,7,2.8,9,2.1"/>
	<path class="st3" d="M212.4,483.8c-5.9-2.4-5.5,3.6-5.9,8.3"/>
	<path class="st3" d="M206.4,492.1c1.4,0.3,3.8-1.4,4.8-2.3c2.4-0.5,5.4,2.1,7.1,3.8c0.8,0.8,2.7-0.5,3.4-0.9
		c3.9,1.8,1.2,3.7,5.6,3.8l-0.9,4.3c-0.7,0.2-7.1,0.4-7.3,1.5"/>
	<path class="st3" d="M115.2,502.4c1.8-1.7,4.4-5.1,7-3.7c3.7-7.7,4.1-3.2,9.9-1.3c6-0.2,13.1-6.4,19-7.8"/>
	<line class="st3" x1="112.6" y1="503.1" x2="115.2" y2="502.4"/>
	<path class="st3" d="M219.1,502.3c7,2.4,3.5,5.5,12.9,7l2.3,4.2c2,0.7,4,0.8,5.7-0.9"/>
	<path class="st3" d="M240.1,512.6l-1.2,2c0.9,0.8,4.1,1.1,2.7,3.1c1.2,0.4,4.5-0.5,4.1,2c2.5-0.5,4.3,3.8,6.7,4"/>
	<path class="st3" d="M252.4,523.6c0.7,0.8,0.5,2.2,0.1,3.1"/>
	<path class="st3" d="M252.5,526.7c1.2,8.5,4.4,3.4,7.8,11.6l0,0"/>
	<path class="st3" d="M94.3,544.3c1.8-1.3,4-1.9,6.3-1.8"/>
	<line class="st3" x1="198.5" y1="547.5" x2="200.4" y2="547.6"/>
	<path class="st3" d="M190.8,548.3c1.4-1.2,6-0.9,7.7-0.8"/>
	<path class="st3" d="M182.4,547.2c2,0.8,6.4,2,8.5,1.1"/>
	<path class="st3" d="M172.3,549.9c4.9,1.9,4.3-2.2,10-2.7"/>
	<line class="st3" x1="164" y1="553.2" x2="172.3" y2="549.9"/>
	<path class="st3" d="M208.8,556.4c2.1,0.3,6.7,0.5,8.8-0.4"/>
	<path class="st3" d="M200.4,547.6l3.6,9.7c1,1.2,3.8-0.6,4.8-1"/>
	<path class="st3" d="M100.6,542.5c5.9,2.4,8.6,5.2,10.7,12.1l0.5-0.8c0.7,1.2,3,1.3,4.2,1.3c3.5,4.1,8.4,3.4,12.8,3.4
		c2.9-1.7,4.3-1.2,7,0.5c1.3-0.6,4.4-1.7,5.8-1.1"/>
	<path class="st3" d="M141.5,557.9c22.4,4.8,7.1-2.8,22.6-4.7"/>
	<path class="st3" d="M217.6,556c-2.2,3.8-1,5.1,0.5,8.7"/>
	<path class="st3" d="M218.1,564.7l4.9,1.9c1.7-0.1,5.1,0.3,6.6,1.3"/>
	<path class="st3" d="M347.1,37.5c1.1-0.8,3.3-1.7,4.6-1.4c1.7-2.8,3.9-3.3,6.6-3.4c1.7-2.7,2.4-1.7,4.6-0.5
		c1.3,0.3,9.5-1.2,10.9-1.4c3.2,1.6,11.6,4.8,11.6-1.9"/>
	<path class="st3" d="M385.5,28.9c0.1-1.9-1.6-0.6-2.5-0.6c1.6-3.6,8.6-7.6,11.9-8.8c2.9-0.5,8.2,0.8,10.9,2.3
		c1.2-0.2,1.6-1.2,1.7-2.5c2.4-0.8,7,0.9,9.2-1.5c-0.1,0.8-0.4,1.6-0.9,2.3c0.2,1.5,3.6,4,4.6,4.8c0.8,3.1,11.5,12.1,13.6,14.2
		c0.8,1.2-0.3,3.5-0.8,4.5c7.2,6.5,2.2,6.3-3.2,9.8c8.8,8.5,12.6,2.4,9.9,12.4c0.8,0.5,8.3,3.6,3.8,4.1l0.1,1l-2,0.8
		c-0.8,1.6,6.5,0.8,6.8,1.2c1.1-1.5,2-2.5,1-4.5c3.5-2.8,4.8,1.1,6.1,4.2l-4.1,1.3c0.8,1,2.8,1.4,3.9,1.4c2.9,3.1,0.5,5.9-1.9,8.2
		c1.1,1.2,6.2,4.5,6,6.7c-0.9,1.4-3.5,8.1-5.3,8.1c-1.8-0.9-3-2.6-3.2-4.6c-1.3-0.1-4.9-0.6-6,0.4c-0.9,3.4-3.3,5.9,0,8.8
		c-0.4,4,2.4,4.8,4.7,6.6c-1.7,5.5,4.3,7.7,7.9,7.1c-1.1,1.4-0.3,3.6,0.3,5.1c-0.7,1.5-2.1,3.2-3.7,3.1c0.5,1.7,5.2,2.1,5.9,4
		c-0.1,1.6,0,3.8,1.5,4.6c-1.4,0.6-1,3.3-0.9,4.6c0.9,0.9,2.6,2.9,3.9,2.4c0.6-3.6,8.1-3.3,10.4-4.1l12,0.4c1.5,1.1,4.5,2.4,6.3,2.3
		c0.3-3.1,5.2-3.9,7.1-4.6c-0.7,3,2.2,5.3,3.8,6.9l3.5-0.4c1-1.7,1.9-0.9,3.2-0.2c5.1,1.6,13.3-0.3,18.2,2.3c0.5-2.1,1.2-2.8,3.1-3"
		/>
	<path class="st3" d="M121.2,193.7c-0.6-0.8-2.6-2.3-2-3.6c-1.7-0.5-4.2-2.2-5-4.1l2.5-2.9c-1.3-1.8-8.5-9.1-8.1-11.8
		c-2.4-2.3-9.5-9.4-12.4-10.7c4.3-1,5.6-2.5,7.7-6.8c10.9-1,4-3.1,8.2-5.8l-2.7-3c-1.2,3.2-1.8,1.3-2.8-0.7
		c-1.6-0.4-2.8-2.2-3.3-3.9l1.6-1c1.9-6.9,0.6-5.4-4.2-7.9c-2-2.7,2.5-5.4,4-6.7c2-0.4,3.8-1.4,5.3-2.8c3.8-1.5,9.3,0.5,13.1-1.1
		c1.9,0.5,7.1,3.6,8,0.3c-0.8-1-2.9-3-2.3-4.6c3.3-3-0.9-1.3,1.2-7.1c-1.8-2.2-1.7-5.3-1.3-8.1l-0.9-6.5
		c4.3-4.6,11.7-16.4,18.7-13.3l4.2-2.4c-1.3-2.6-3-8,0.2-9.7c-0.5-4.7,3.3-4.3,5.9-6c2.5,1.4,5.7,2.6,8.4,1.3l6.7,1.5
		c1.9-0.5,1.9-2.8,2.1-4.6c3-2.7,4.8,1.3,7.1,3c-1.6,1.1-4.6,4.4-3.9,6.8c1.3,2.6,3.5,4.4,6.3,5.2c1.2,2.6,1.5,5.5,0.9,8.2
		c3.2,7.7,4.8,7.4-3.1,10c2.9,3.8,2.4,10.5,1.7,15.2c-0.5,0.8-3.6,3-2.3,4.3c4-2.8,11.2-3.1,15.5-1.1c2.4-4,5.6-2.4,8.3,0.2
		c1.6-0.4,4.2,1.1,5.5,2c2.6,0,2.4-0.5,2.6-3.3c3.1-3.6,1.4,5.5,8.4-0.8c-4.5-2.6-0.7-2.8-4.5-4.8c0.8-4.4,6.5-4.3,9.4-5.3
		c0.4-2.2,16-8.1,17.6-9c1.4-1.7,3.9-4.4,6.1-4c0.4-2.9,1.3-2.1,3.3-1.9c7.3-7.6,4.5-1.6,10.5-5c2.6-1.2,3.3,4,4.3,5.7l4,5.6
		l-0.1,4.1c1.3-0.1,3.8,0.5,5.8,0.3c1.2,0.1,2.4-0.6,3-1.6l-0.1-5.5c1.6-0.7,5.6-2.3,7.3-1.3l1.8-6.3c1.9-1,7.3-2.9,7.4-6.1
		c2.9-2.6,12.1-0.3,6.1,4.2c0.3,1.7,4.5,0.5,5.4,0.6l3.4-3.2c2.7,2.6,4.1,5.9,8.1,4.1c3.8,1.1,5.7-1.4,9.4,0.3l1.6-0.5
		c0.4-1.9,0.3-4.7,2.5-4.9c2.7,1,3.4,1.6,5.3-1.4c1.5,0.3,3,0.6,3.8-1.2c0.4-2,1.3-6.6,0.4-8.6l-2.3-2.6c-1.7-0.3-3.2-1.1-4.4-2.3
		c-0.1-0.7-2.1-3.6-0.5-3.7l9.5,0.7l0.5-3.3c-1-4.4-4.1-15.6,1.5-17.2"/>
	<path class="st3" d="M392.6,200.8c-0.3-0.4-0.9-0.6-1.5-0.5c-0.7,0-1.5-0.2-2.3-0.3c-1.3-0.2-2.7-0.4-4-0.5
		c-2.6-0.1-5.3,2.2-7.8,2.4c-3.5-1.7-7.2-2.9-11-3.6"/>
	<path class="st3" d="M378.8,238.2c-0.4-1-1.7-1.1-2.5-1.5c-0.7-0.6-1.2-1.3-1.7-2c-0.3-0.6-0.8-1.6-1.1-2.1
		c-0.5-0.7-1.7-1.6-1.5-2.6c0.1-1.3-1.6-1.2-1.8-2.3c1.2-6.1,1.9-4.7-1.4-10c-0.9-1.6,0.8-2.7,2-2.9c0.5,0.2,1.1,0.3,1.7,0.3
		c1.1-0.6-0.3-1.4-0.7-1.9c-1.2-1.6,4.8-3.4,5.2-4.1c1.6-0.3,4.4,0.6,6,1.2c1.2-0.9,5.8,0,5.1-2.3c-0.6-0.9-1.1-1.9-1.5-2.9
		c0.7-1.6,1.2-2.9,2.1-2.9c0.5,0,1,0.3,1.8,1.1c2.4,0.8,2.9,0.3,2.3-2.5"/>
	<path class="st3" d="M532.4,140.3l0.7,4c-1.9,2.9-3.2,5-6.6,4.8c4.3,3-1.3,5.6-3.2,7.6c-4,0.4-3.8,0.6-4.2,5.1
		c-1.6,0.2-3,0.9-4.1,2c-3.4-1.1-4.5-1.9-7.3,1.3c-0.3,3.5,4.7,3.3,6.5,3.9c1.6,0.8-2.3,4.5-2.5,5.2c-2.7,0.9-4.5-2.3-7-0.6
		l-1.2,7.5c-0.1,0.9-4.2,6.6-2.5,7.5c1.1,0.6,4.7,1.6,4.5,3.7c2.7,0.4,4.1,2,5.3,4.7c2.6,2.6,5,0.6,6.9,4.3c1-1.2,3.1-0.7,4.3-0.2
		c0.9-0.6,4.3-3,5.4-2.4c0.7,0.7,0.8,1.7,0.2,2.5c-5.3,4.4-1.2,2.1-2.4,5.7c1.8-1,5.2-0.3,6.9,0.4l-1.2,2.8c1.8,1.7,4,2.9,6.4,3.4
		c3-0.3,11.6-1.3,14.4-0.3c1.4-0.6,4.8-1.8,6.3-1.4c1.5,2.1,1,2.1-0.7,3.6c6.8,7.9,3.1,2.4,4,9.6c-0.7,1.7-1.5,3.2,0,4.7l-0.1,2.1
		c1,0.7,3.4,5,4.1,6.1c-0.6,1-2.6,2.7-1.2,3.9"/>
	<path class="st3" d="M390,240.6c-1.9-0.8-5.1,0.2-6.8,1.4"/>
	<path class="st3" d="M383.2,242.1c-1.3-0.5-3.1,0-3.7-1.8c-0.1-0.6-0.9-1.4-0.8-2.1"/>
	<path class="st3" d="M564.1,242l8.8,3.2c0,0.8,2.3,6,0.7,6.2"/>
	<path class="st3" d="M383.2,242.1c0.4,2.4,0.2,1.4-0.8,3.1c0,0.6,0.6,0.6,0.8,1c0.6,1.9-2.1,0.1-2.5,1.7c-1.2,3.9-3.7,1.7-5.5,4.1
		c-2.1,2.2-4.2-0.6-6.9,3.3"/>
	<path class="st3" d="M413.5,258.9c1.5-3.8-7.8-4.1-9.2-5.1l0.1-3.1c-4-1.7-4.8-3-5.4-4.6c-0.5-1.6-1.4-3.1-2.6-4.4
		c-1.7,0.3-4.8,0-6.3-1.1"/>
	<line class="st3" x1="411.5" y1="261.4" x2="413.5" y2="258.9"/>
	<path class="st3" d="M368.3,255.3c-6.2,3.4-10-0.1-15.8,5c-1.4-2.6-25.2-1.9-18.1,2.8"/>
	<path class="st3" d="M573.7,251.4c-0.4,3.4,3.5,2.8,1.4,5.9c1.3,4.9,9.1-3.3,6,6.7"/>
	<path class="st3" d="M334.4,263.2c-0.7,2.1-2.2,3.4,0.2,4.8c0.1,2-0.3,5.3,1.6,6.5c3.8,0.1,1.5,0.1,4.1,2.1
		c0.6,0.4,1.6,0.4,2.3,0.8c0.7,0.9,2.2,1.9,2.5,0"/>
	<path class="st3" d="M396.8,284.4c1.4-4.4-1-7.9-2.8-11.3c0.2-2.6,2.1-7.4,3.4-9.6c1.5-1.4,4.1,1.2,5.3,2s5.9-0.8,7.2-1.2
		c2,1.1,4.6,3.4,6.9,1.3c0.9-1.7-0.4-3.3-1.3-4.5l-4,0.3"/>
	<path class="st3" d="M345.1,277.3c0.6,0.8,0.8,2.2,1.3,3.1c0.7,1.1,2.2,2.3,2,3.9c-0.4,0.6-1,0.4-1.5,0.1c-1,1.1-3,0.6-1.7,2.9
		c-1.5,1.5-2.3,1.9-1,4.2"/>
	<path class="st3" d="M344.2,291.5c1.3-0.6,2.8-1,4.3-1.2c-1,3.7,1.9,8.4,5,5.1"/>
	<path class="st3" d="M368.3,255.3c0.6,0.5,1.9,0.4,1.1,1.7c-0.9,0.3-2-0.1-2.4,1c-0.5,1.4,1.3,2.9,0.1,4.1c-0.2,0.3-0.2,0.7,0.1,1
		c0,0,0,0,0.1,0c-0.1,0.7-0.1,1.3-0.1,2c-0.5,1.3-1.5,2.3-2.7,2.9c0.5,0.2,0.3,0.9-0.2,1c0.2,0.7-0.5,1-1,1.3
		c0.3,0.7,1.2,0.7,1.7,1.3c-1.8,1.7,0.2,0.7-0.2,2.7c0.3,0.4,0.8,0,1.2,0c0.3,1.3,1.8,1.1,2.7,1.4s2.1,0.9,3,0.3
		c0.7-0.4,1.5,0.4,1.5,1.3c0,0.4-0.4,0.8-0.3,1.2c-2-0.3-4.1,0.5-5.9,1.4c-1.5-0.5-2.6-0.8-1.6,1.5c0.6,0.9,2.1,1.7,2.6,2.6
		c0.2,1.5-1.9,2.7-2.5,3.9c0.2,2.3,0.2,4.7,0,7c0.1,2.6-0.9,3.3-3,3.6"/>
	<path class="st3" d="M353.5,295.4c3.1-0.2,6.3,2.1,9.2,3.1"/>
	<path class="st3" d="M344.2,291.5c1.5,2.6-2.7,2.4-3.8,3.2c-0.8,2.2-1.5,4.6-3.9,4.9"/>
	<path class="st3" d="M396.8,284.4c0.5,0.8,1.4,2,2.4,1.6c1.5,1,2.1,1.4,0,2.4c0.5,1,1.4,1.8,2.4,2.3c1-0.2,2.1,0.6,3.1,0.6
		c-0.4,0.9,0.9,1.4,0.7,2.4c1.5,1.1,0.7,1,0.9,2.7c-0.1,0.8-1,0.3-1.2,0.9c0.4,1-1,0.3-0.6,1.5c-0.5,0.4-2.8,1.3-1.7,2.2
		c0.3-0.2,0.8-0.5,1.1-0.3c0.6,0.5,1.3,0.5,1,1.6c0.1,1.2,2.1-0.1,2.6-0.5c0.8,0.3,1.5,0.8,2,1.5c-0.1,0.4-1.3,0.1-1.5,0.2
		c-0.9,0.8,0.9,1.2,1.2,1.5l0.9,1.4"/>
	<path class="st3" d="M366,198.3c-7.5-2.9-15.7,4.7-20.4-7.5c-1.2-0.2-2.1-1.1-2.4-2.3l-2.9-3.4c-8.2-1.1-1.5-2.6-10.5-6.4
		c-0.1-2.7-0.5-3.3-2.8-4c-1.6-2.7-0.8-4.5,0.3-7.1c0.2-2.4-3.9-3-5.2-3.6c-1.9,1.3-1.5,1.9-0.9,4.1c-1.6,4.8-3,3-6.4,2.5
		c-1.6,1-5.1,1.4-6.9,1.2c-0.6,1.8,1.1,4.7,2,6.1c-0.1,2.9-4.8,0.6-6.1,0.7c-0.6-0.8-1.9-3.8-3.1-3.4c-2,0.6-2.1,1.5-2.2,3.7
		c0.4,0.8,11.7,10.4,10.3,11.8c-2.1,1-2.8,1.1-4.4-1c-2.8,2.5-6.6-0.2-9,2.7c-0.6-0.4-3.7-3.5-4.5-2.9c-3.1,10.6-6.3,4.4-6.3,11.3
		c-3,0.7-3.7,0.6-4,4.5l-10,3.6c-1-0.9-4.7-3.7-6-3.5c-3.6,4.1-6.5,0.5-7.9,4.9c-2.5,0.1-5,2.3-6,5c-0.7,2.2,2,1.5,3,1.9
		c-1.5,4.5,0.4,4.5,3,7c0.5,1.9,3.4,4.4,4.7,5.4c4.6-0.8,5.1,5.8,7.1,9c-1.9,0.2-5,2.4-6.5,3.9c0.4,2.1-1.7,3.1-3,3.9
		c0.7,2.4,1.1,2.8-1.3,3.5c-4.7-1.6-2.2-5-5.6-2.4c0.4,1.1-0.1,2.4-1.1,3c-2.2-0.3-6.6-0.2-8.4,1.5c-2-0.4-2.8,0.3-3.9,2.2
		c-3.9-1.7-8.6,4.3-11.7,6.4c0.4,1.7-1.3,5.4-1.9,6.9c1.9-0.4,5.9,2.7,7.4,3.8c0,1.1,0,3,1.2,3.3c-1.8,4.3,0.8,3.9,3.2,5.8
		c-1.6,1.8-4.9,2.8-6.9,1.5l-4.8,2.3c0.8,2.9,4.4,1.4,5.4,3.2c0,1.4-2.1,7-0.7,8.1c6.3,5.7,8.2,5.6,15.9,5c1.3,7.2,3.2,1,6.2,8.3
		c3.5,0.2,4.6,0.4,6.5-3.3c9.4-2.2,3.2-1.1,7.1-4.7c2.3,1.8,2.7,4.2,5,0.7c1.1,1.4,9.9,2.2,11.4,2.5c1.7-1.6,5.4-1.3,7.4-0.8"/>
	<path class="st3" d="M308.2,315.2c-0.2-5.7-2.5-2-4-6.7c2.2-0.9,7.7-3,9.1-5.3c-0.5-2.8,5.9-4.5,7.2-5.5c1.4,1.7,3.6,2.7,5.9,2.4
		c0.9,0.4,3.2,2.1,4,0.8l-1.9-2.1c5.2-1.7,3.8,4,8.1,0.7"/>
	<path class="st3" d="M289.5,303.1c0.3,0.6,0.7,1.2,1.3,1.5c0.5,0.8,0.4,2.5,0.6,3.8c0.1,0.4,0.2,0.8,0.5,1.1c2.9,1,5.6,2.7,7.7,5
		c2.8-0.6,5.9,0.6,8.7,0.8"/>
	<path class="st3" d="M410.1,306.3c3.1-1.4,1-4.6,4.1-5.6c2-0.4,4-0.2,5.9,0.6c2.5-0.6,5.2-0.3,7.4,1c0.1,4.8-6.5,10.8-4.9,17.9
		c2.3-1.8,5.1-1.7,7.6-0.8c0.1,2.9,2.3,3,4.2,3.8c0.7,10,3.7,6.6,3.9,11.7"/>
	<path class="st3" d="M336.6,299.6c-0.4,1.1-0.5,2.2-0.4,3.3c-0.9,5.6,2.9,2.4,1.6,6.3c-2.3,6.1-0.8,4.8,3.3,7.6
		c-0.6,1.3-2,3-2.4,4.4c-0.6,4,0.1,5.1,2.6,1.8c2.4,0.7,3.5,4.6,0.5,5.2c-1.7,3.4,3,5.1,1.1,7.4c-2.8,0.7-1.6,3.5-1.1,5.6
		c1.8,0.3,4.9-0.2,5.3,2.6c-0.5,0.9-2.6,6.5-3.5,6.9c-3.6,0.5-7.2,1.5-10.5,3c-2.8,6.9-5.5,8.8-2.4,16.8c3.7,3.1-2.3,2.5,1.9,10.3
		c11.4-1.1,5.3,3.2,14.1,5c14.8-2.5,5,1.4,13.6,9c1.3,0.7,2.5-0.5,3.3-1.5l7.2-2c2.5,1.8,1.9,2,0.3,4.5c4.9,2.1,13.1-1.3,17.6-3.5
		l7.7,0.4"/>
	<path class="st3" d="M416.2,431.2c-0.2,1,0.1,2.1,0.6,3c-1.4,0.6-3.1,0.1-2.7,2.7c-0.2,0.8-0.8,1.3-1.6,1.5c-0.6,0.6-1.1,1.3-1.6,2
		"/>
	<path class="st3" d="M298.7,490.1c-6.3,1.4-1.3,3.8-4.5,5.1l2,2.2l-2.3,1.5"/>
	<path class="st3" d="M410.8,440.4c-0.1,0.9-0.4,1.6-1.3,1.9c-0.6,1.1-1.7,0.8-2.7,0.7c-2.2,1.5-4.9,0.2-7.3,0.5
		c-1.5,0.4-1.3,2-2.1,3.1c-0.6,0.7-2.1,1.3-1.6,2.5c-1.2,0.9-1.4,2.5-1.7,4c-1.2,2.6-3.1,4.7-4.3,7.3c-1.8,3.3-2.2,5.4-6.1,4.2
		c-1.4-0.2-2.7-0.5-4.1-0.9c-2.9-0.1-4.6,2.4-7.8,1.6c-1.6,0-3.4-0.6-5-0.3c-1.6,0.8-3.3,0.4-4.9,0.2c-4.6-1.6-4.5,1-8,1
		c-3-0.7-6.2-0.6-9.2-1.3c-1.5-0.3-3,0.9-4.5,1.1c-4.2,0.2-2.9-1.4-6.9,2.3c-0.8,1.3-0.6,3.4-1.3,4.9c-1.9,2-5.2,1.6-6.4,4.5
		c-0.3,1-0.8,2-1.4,2.9c-0.3,0.2-0.8,0.5-0.9,0.9c-1.1,2.2-2.6,4.4-4.7,5.4c-1.1,0.6-1.8,2.1-2.9,2.8c-0.4,0.4-0.5,1.2-1.1,1.5
		c-1.1,0.5-1.2,2-2.4,2.4c-0.9,0-0.6,1.9-1.7,2c-1.3-0.2-2.6,0.5-3,1.8c-0.4,0.7-0.1,1.9-0.5,2.5"/>
	<path class="st3" d="M298.7,490.1c2.1,1.2,3.9,1.5,3.7,4.8c0.2,0.1,4.4,5.7,4.7,4.9"/>
	<path class="st3" d="M293.8,498.9c-3.9-1.6-3.5,2-3.3,5.1l3.6,1c2.1,2,0,3-1.8,2.8l-1.3,2.5"/>
	<path class="st3" d="M291,510.2c-1.2-0.1-2.5,0.3-3.7,0.1c-0.9-0.5-1-2.2-2.3-1.9c-2.3,1.2-4.8,0.9-7.2,1.1c-0.5,0.1-1,0.4-1.3,0.8
		c-1,0.1-1.9,0.5-2.7,1.1c-1.1,0.4-2.8,0.4-3.4,1.6c0,0.7,0,1.5-0.1,2.3c-0.4,0.7-0.6,1.5-0.8,2.3c0.5,1.3,0,2.5-0.3,3.8
		c0,1.4-1.1,1.6-2.1,1.7c-5.4,2.8-0.9,4-2.7,5.2c-2.2,1.5-2.3,1.3-1.6,4.3c-0.8,1.2-1.2,2.6-1.4,4c-0.2,0.6-0.5,1.2-1,1.6
		c-0.1,0.2-0.2,0.3-0.4,0.5c-0.9,0.5-1.7,1.3-2.2,2.2c-1.1,0.3-1.1,0.8-1.2,2c-0.6,0.9-2.1,0.6-2.4,1.7c1,2,1.7,2.4,0,4.3
		c-0.5,1.4-1.4,2.7-2.6,3.6c-0.4,0.6-0.8,1.4-1.4,1.7c-1.9,0.3-3,2.4-3,4.5"/>
	<path class="st3" d="M247.1,558.7c-1.4-0.2,0,1.7-0.6,2.4c-0.8,0.6-2,0.2-2.9,0.6c-1.6,1.2-3.4,2.2-5.3,2.8
		c-1.1,0.3-2.3,0.4-3.5,0.4c-0.6-0.1-0.9,0.7-1.5,0.8c-0.5,0.1-1.1,0-1.5-0.4c-1.2,0.3-2.1,1.3-2.3,2.5c-0.5,0.9-1.1,1.8-1.7,2.7
		c-0.3,0.5-0.1,1.1-0.3,1.7c-0.3,0.2-0.8,0.6-1.1,0.5c-1.3,0.4-2.3,1.4-2.6,2.8c-0.2,0.6-0.9,0.3-1.2,0.8c-0.6,1-0.9,2.5-1.9,2.9
		c0.1,0.6-0.4,0.8-0.8,1.2c-0.4,0.4-0.8,0.7-1.3,0.9c-0.2,1.3,0.1,2.6-0.4,3.9c-0.5,1.8-2,2.8-3.1,4c-0.2,0.4-0.1,1-0.4,1.4
		c-0.5,0.4-0.7,1.1-0.6,1.7c0,0.2,0.1,0.5,0.3,0.6l0.3,1.2c1.3,0.3,1.7,0.8,1.7,2.3"/>
	<path class="st3" d="M121.2,193.7c0.9,1.8,7.6,8.4,5.8,10.9c4,3.4,3.4-0.2,6.5,3.3c-2.3,5.3,1.6,5.7-1.1,9.7c0.1,3.1,2,8.5,3.6,11
		c1.7-0.4,4.7,0.8,6.2,1.7c2.6-0.9,4.3-3.4,6.4,0.1c1.3-0.4,3.7-0.3,4.8,0.6c-1.2,4.8-6.5,8.4-10.5,9.2c-2.2-0.9-6.5,0.4-8.6,1.4
		c-3.5-1.1-3.3-0.1-4.8,3.2c-4.4-0.7-7.6,3.6-11.9,0.7l-1.8,1.6l2.5,6.3c-0.7,3-2.6,3.6-4.9,4.3c0.3-1.6-2.5-5.3-3.2-6.5
		c-3.3,5.5,0.6,9-6.8,10.2c0.1,2,1.5,0.7,2.5,0.6c4.2,4.4,5.4-0.8,8.5,6.3c3.9,4.6,11.1,3,14.7,7.6c2.4-1,4.4-1.1,6.5,0.7
		c1.3-0.1,5.8-2,6.9-0.5l3.2,6.4c-3.4,1.5-2,10.7-2.2,13.8c1.3,3.9,4,3.2,6.8,3.6c0.7,1.4,2.6,4,3.9,4.4c1,0.8-0.1,4.2-0.2,5.2
		l-3.2,3.3c0.1,1.9-1.4,4.5-2.6,5.7c0.5,5.2-1.4,7-4.2,10.3c-1.3,10.3,2.5,4.2,3.3,8.1c-1.5,2.6-2.7,4.6-5.8,3.3
		c-1.4,1.4-2.6,4.6-1.9,6.8l-1.5,1.8c-0.6-2.3-3.5-3.1-5.3-3.5c-1.1,2.4-4.6,5.6-6.7,6.8c-5-2.8-6.6,3.3-8.1-3.1
		c-5.8-1.7-0.5-6.9-7.3-3.4c-0.7,2.9-1.5,2.2-3.6,1.8c-3.8,6.9-5.2,0.6-6.7,5.3c-1.2,0.9-6,6.1-7.7,5.1c-1.8,1.8-0.8,7.4-0.6,9.7
		c0.9,2.3,4.5,4.5,6.4,5.3c0.1,1.2-0.5,2.4-1.5,3.1c-0.1,0.5,0.5,2.9,0,3.6c-0.1,0.2-0.3,0.2-0.6,0.1c-3-2-3.8,3.3-5.3,5.2l-4-0.8
		l-0.3,5l-7.8,0.9c-0.2,4.1-0.3,5.5-3.7,7.4c-0.9,3-1.6,7.6,1.3,9.4c-3.2,3.8-6.8,6.8-2.1,11.5c-0.8,5.2-1.9,6.8,2.1,10.7
		c2.6-0.3,5.5-0.7,7.3,2c2.2-0.5,6-0.7,4.7,3.1c2.7,0.7,12-0.3,6.8,5.5c3,1.6,2.3,4,5.1,4.8l0.1,6.4c1.7,0.1,3.3,4.5,3.9,5.9
		c2.8,0.8,3.3,8.3,3.8,10.8c1,0.3,3.6,0,3.3,2.1c1.2,0.9,2.4,1.6,1.8,3.6c-1.5,1.1-4.3,2.1-3.6,4.9l5.2-1.7c1.2,1,7.1,2.2,6.2,5
		c-1,1.9-2.3,4.6-1.4,6.8l-6.8,9.5c-0.3,2.6-0.7,4.2-1.5,5.4c-0.9,1.3-2.1,2.3-3.5,3.1c-1.3,6.3-1.1,4.8-5.6,8.2
		c-0.6,3.2-1,8.1-4.1,9.4c-1.2,5-3.1,5.1-6.9,6.6l0.5,3.5c-1.1,2.2-1.9,4.3,1.2,4.4c0.8,3.4-3.1,3,0.6,6.1l-2.6,3.7
		c1,4.1,4.3,6.3,0.3,9.7c-2.3,0.3-2.2-1-2.8-3.1c-5-0.5-4.3,5-4,9c-1.6-0.2-5.2,2.6-6.5,3.5c-1.7-0.8-4.4-0.3-5.1,1.9
		c-2.8-1.2-4.8-0.5-5.6,3.1l3.2-0.5c-1.9,6.6-5.3,5.7,3,7.6c-0.6,2.9-0.3,2.9,2.1,3.5c0.5,0.8,1.9,2.4,1.5,3.5
		c-1.7,1-3.1,1.7-2.9,4.3l2.4,1.8c0.7,2.7,1.7,2.7,3.8,2.7c1.6,1.6,4.1,3.4,6.4,2.9c0.7,1.4,2.2,4.6,1.7,6.3"/>
	<path class="st3" d="M89.1,604c3.8-3.4,4.8,3.3,9.6,2.5c-0.3-1,0.3-2,1.3-2.3c0,0,0,0,0,0c0.9,0.4,3,1.3,3.9,0.6
		c0.1,2.3,2.1,1.1,3.3,0.8l-0.7-1.3c2-0.8,1,3,3.4,3.4c0.7-1.9,0.2-2.3-1.2-3.4c0-1.2,1.8,0.2,2.2,0.2l0.2,0.9"/>
	<path class="st3" d="M216.3,596.3l-0.9,2.5c2,0.7,4.5,1.5,4,4.6c1,1.5,2.2,3,0.9,4.9c3.5-0.3,5.1-3.3,5.7,2.5
		c3.9,1.9,4.4,6.3,3.8,10.7"/>
	<path class="st3" d="M111.3,605.5l1.4-1c-0.5,6.6,4.5,8.9,9.3,6.8c7.5,5.4,4.6-1.5,7.7,2.2c1.7-1.7,2.7,0.4,4,1.5l5.2,0.2
		c1.2,0.7,3.5,1.9,4.8,1.2c0.2,2.3,2.8,2,4.2,2.2c1.2,2.1,4.2,3,6.2,3.1l4.9,4.5l12.4-2.2c1.3,2.7,10.1,0.7,12,0.9
		c1.2,2.4,1.7,3.8,0.3,6.3c0.2,0.3,0.9,2.3,1.5,1.9c1,0.2,0.1-0.5,0.5-1.2c0.6-0.7,1.5-1,2.4-0.8c0.6,0.2,0-0.7,0.7-0.6
		c0.4,0.8,1.2,0.4,1.8,0.3s1.5,0.1,1.9-0.4c-1.7-0.7,0.3-1.7,1.2-1.5c0.2-0.3-0.1-0.5-0.3-0.7c0.1-0.5,0.9-0.1,1.2-0.1
		c0.4-0.1,0.2-0.5,0-0.8s1.1-5.1,1.1-5.4c3-2.9,4.1,2.5,5.8-4.3c4.2,0.7,1.4,2.8,7.3,1c3.6,0.5,3.4,6.3,6.8,6.8
		c-0.1,4.4,2,4.2,5,3.2c3.6-7.1,4.3-0.4,9.3-7"/>
	<path class="st3" d="M525.1,328.1c0.5-0.3,0.9-0.7,1.3-1.2C526.2,326,524.3,327.7,525.1,328.1z"/>
	<path class="st3" d="M524,329.7c0.3-0.1,1.1-1,0.6-1.1c-0.4,0.1-0.7,0.4-0.6,0.8C523.9,329.6,524,329.7,524,329.7z"/>
	<path class="st3" d="M504.6,341.6c1.8-0.3,1-1.9-0.3-0.2C504.3,341.5,504.5,341.5,504.6,341.6z"/>
	<path class="st3" d="M509.5,343.8c1-0.5,1.7-1.7,2.5-2.5c0.5-0.8,1.8-1.3,2-2.3c-0.9,0-1.8,1.5-2.6,2.1c-0.3,0.4-1.3,0.3-1.3,0.9
		S509.5,343.2,509.5,343.8z"/>
	<path class="st3" d="M499.9,344.9c0.4-0.4,1.7-2.5,0.3-1.4C500,343.9,499.4,344.5,499.9,344.9z"/>
	<path class="st3" d="M438.2,334.9c1-0.1,1.9,1.1,2.9,1.3c2.6,0.7,5,2.1,7,4c0.9,1.4,1.7,3.2,2.6,4.6c0.3,1.2,0.9,2.3,1.7,3.2
		c0.6,1.2,1.8,1.8,2.7,2.6c-0.1,0.9,0.6,0.5,0.9,0c0.7-0.3,1.5-0.1,2.1,0.4c-1,0.8-0.1,1.2,0.7,1.4c1.4-0.1,2.7-0.6,3.9-1.2
		c2.8-2,6.2-3.3,8.9-5.4c1.4-0.9,2.7-1.9,3.9-3c0.2-0.3,0.9-0.7,0.8-1.1c0.6-0.5,1.3-0.9,2-1.2c1-0.4,2.5-0.5,3.5-1.1
		c0.5-0.2,1.2-0.9,1.7-0.8c0.6,0.3,1.3,0.5,2,0.6c0.5-0.2,1.1-0.2,1.6-0.1c1.4,0.2,1.9,0.9,2.1-1.2c0.8,1,0.4,2.8,1.3,3.8
		c1.1,0.9,2.6,1.2,4,0.8c0.7,0.1,1.6,0.3,2.3-0.2c2.6,0.1,3.3-2.9,6-2c0.4-0.3,0.6-0.8,0.4-1.3c0.3-0.6,0.4-1.3,0.3-2
		c0.4-0.1,0.8-0.2,1.2-0.3c0.4-0.3,0.9-0.9,1.4-0.7c-0.1,0.5-0.7,0.6-1,0.9c0.2,0.6-0.4,0.7-0.7,0.9c0.6,1-0.2,0.9,0,1.8
		c0.5-0.2,1-0.3,1.5-0.4c0.2-0.2,0.5-0.4,0.7-0.3c-0.2,0.3-0.6,0.6-0.5,1.1c1.4-0.2,2.2-1.8,3.5-2.2c1,0.2,1.9-0.8,2.9-0.6
		c0.4-0.4,0.9-0.7,1.4-0.8c0.3,0.2,0.6-0.1,0.9,0c-0.6,0.9,0.1,1.1,0.7,0.7c0.2-0.4,0.8-1.3,1-1.6c1.1-0.7,2.1-1.6,3-2.5
		c0.4-0.6-0.9-0.4-1-0.9c0.2-0.3,0.7-0.3,1-0.4c-0.1-0.4,0.3-0.4,0.5-0.4c-0.2-0.3-0.6-0.4-0.8-0.8c1.2,0.1,2,1,0.8-0.9
		c0.4-0.4,1.8,0.7,1.2-0.3c0.3,0,0.6,0,0.8,0.2c0-0.5-0.5-0.6-0.8-0.9c0.6-0.6,1.8,0.4,2.3-0.5c-0.1-0.6,1-1,1.2-1.6
		c-0.2-0.2-0.3-0.4,0-0.7c0.6-0.1,1.1-0.7,1.6-0.9c0.2,0.1,0.4,0,0.6-0.1c-0.3-0.3,0.3-0.5,0.4-0.7c0.4-0.4,0.7-0.8,1.2-1.2
		c0.8-1.3,2.2-1.3,0.7-3c1.3-0.5,0.8,0.1,1.5,0.7c0.2,0,0.5-0.1,0.5-0.4c0.3,0.1,0.7,0,1-0.1c0.8-0.6,1.7-1.3,2.5-1.9
		c0.1,0.4,0,0.7-0.1,1.1c0.2,0.4,0.5,0.7,0.8,0.3s0.9,0.1,0.7-0.9c0.4,0,1.2,0,1.2-0.7c0.7,0.2,1.5-0.1,1-1.1
		c-0.4-0.1-1-0.1-1.4-0.2c2.3-1.5-0.4-0.9-1.4-1.3l0,0c-0.1,0-0.1-0.1-0.2-0.1c0.2-0.2,0.2-0.5,0.2-0.8c-0.3-0.4-0.8,0.9-1,0
		c0.3-0.4,0.6-0.7,1-1.1c0.3-1.2-0.4-1.1-0.6-0.1c-0.2-2-1.2,0.6-0.8-1.2c1.1-1.3,1-3.5,1.7-5.1c-0.1-1.1,2.1-5,0.3-5
		c-2.1,0.7-1.8,4.2-4.4,2c-0.3-0.7,0.8-1.1,1.1-1.5c0.4-0.6,0.9-1.1,1.6-1.3c0.7-0.5,1.6-0.4,2.2,0.1c0.8,0.6,1.2,1.1,1.6-1.8
		c0.5-1,3.5-6.3,1.4-6.3c-0.1-0.7,1.5-0.5,0.7-1.4c1.2-0.1,1.4-0.7,1.7-2c0.2-1,0.7-1.8,1.3-2.6c0.8-1,1.9-1.9,3-2.6
		c1-0.7,1.5-1.1,0.1-1.7c1.2-1.1,0.5,1.8,3.4-1.3c1.1-0.9,2.5-1.4,4-1.3c1.1-0.3,2.3-0.2,3.3,0.1c0.2-0.7-0.8-1.1-0.5-1.9
		c0.2-0.9-2,0.2-1.1-0.9c1.4-1.6,1.2-4.8,3.4-5.7c1.2-0.6,2.5-1,3.8-1.1c0.6-0.2,0.3,0.2,0.3,0.7c1.1,0.1,1.5-1.7,2.7-2
		c3.3-1.2,7.3-1.6,10.8-2.2c2-0.7,2-3.5,5.2-3.7"/>
	<path class="st3" d="M475.6,363.1c1.3-0.3,2.1-2,2.4-3.4c-0.9,0-1,1.3-1.3,2C476.5,362.2,475.3,362.5,475.6,363.1z"/>
	<path class="st3" d="M396.6,392.8c0.3-2.4,1.2-2.4,0.5-5.1c0.5-2.8-0.4-1.5-1.7-2.3c2,0.1,2.1-1.2,2.4-3.1c0.3-1.3,0.8-2.7,1.1-4
		c0.4,0,0.5-1,0.7-1.4c0.3-0.8,0.8-1.7,1-2.5c0.6-1.8-0.3-3.1,2.1-2.8c-0.4-0.9,0.2-1.4,0.6-2.1c0.8-1.6,2-3,3.3-4.2
		c1.2-2,0.5-1.9,2.6-3c0.8-0.8,1.2-1.9,1.2-3.1c-0.3-1.2-1.6-2.2-2.5-1.1l-0.4-0.5c0.5-0.3,0.8-0.4,0.5-1.1c0.8-0.8,2.1,0,2.9,0.5
		c0.4,0.3,0.9,0.6,1.3,1c0.6-0.6,1.2,0.1,1.7,0.4c0.1-0.4,0.9,0.1,0.7-0.5c-0.4-0.7-0.2-1.8-1.1-2.2c-0.4-0.9-1.5,0-1.9-0.8
		c-0.3-1.2,0.5-2.3,0.9-3.4c0-1.5-0.5-2.9-1.3-4.1c-0.7-1.4,2.1-0.5,2.7-1.4c0.9-1.7,2.2-3.2,3.7-4.4c2.9-2.9,7-3.9,10.6-5.1
		c1.7-0.3,3.4-0.8,5-1.4c1.6-0.2,3.5,0.2,5-0.2"/>
	<path class="st3" d="M423,426.1c0-2.4-2.9-2-1-0.6C422.5,425.6,422.5,426.3,423,426.1z"/>
	<path class="st3" d="M417.2,428.8c0.9-1.3-1.1-0.9-0.8-0.1C416.6,428.8,416.9,428.8,417.2,428.8z"/>
	<path class="st3" d="M424.3,426.4c0.7-0.2,1.1,0.2,1.4,0.9c0.9-0.1,1.7,0.3,2.2,1c0.6,0.4,1.9,0.9,1.5,1.9
		c-0.8-0.4-1.7-0.7-2.5-0.9c-0.3,0-1.1-0.1-0.8-0.6c0.1-0.1,0.7-0.2,0.7-0.4c-0.4-0.3-1.1-0.4-1.5-0.7S424.9,426.5,424.3,426.4z"/>
	<path class="st3" d="M417.1,430.9c2-0.7,1.2-2.8,0.2-1.4c0,0.5-0.1,0.9-0.4,1.3L417.1,430.9z"/>
	<path class="st3" d="M420.9,425.5c-0.7,1.1-1.6,2-2.6,2.8c-0.5,0.2-1.3,0.4-1.5,1c-0.1,0.6-0.6,1.3-0.6,1.9l0,0"/>
	<path class="st3" d="M396.6,392.8c0.1,0.6,0.8,0.4,0.6-0.2c1.8,2.2,3,5.1,4.2,7.8c1.5,1.7,2.2,4.2,3.8,5.7c0.2,2.5,2.1,4.1,3.1,6.2
		c0.4,0.6,0.6,1.2,0.8,1.9c0.8,1.1,1.7,2.1,2.7,3c1,1.2,2.5,1.9,3.5,3.2c0.6,0.6,2,1.2,2.1,2.2c-1.2,0.4-1.9,2-2.8,3
		c-0.4,0.4-0.9-0.3-1.3-0.4c-0.5-0.4-0.8-1-1-1.6c-0.1-0.3-0.1-0.6-0.5-0.4c0.9,2.4-0.4,0.8-1.1,1.7c0.7,0.5,2.3,0.1,2.4,1.5
		c0,0.9-1,1.2-1.6,1.3c-0.3-0.2-0.6-0.7-0.9-0.4c0.5,0.8,0.4,0.9-0.4,0.8c-0.4-0.5-1.3-0.6-1.1,0.4c0.6-0.4,1.1,0.3,1.5,0.7
		c-0.6,0.4,0.2,1,0.1,1.7s-1.5,1.5-0.1,1.3c0.4-0.6,1.3-0.5,1.8-0.9c0-0.3-0.5-0.2-0.6-0.2c-0.3-0.5,0.2-1.5,0.5-1.8
		c1.1-0.1,2-1.2,3.1-1.2c-0.1,0.4-0.4,0.8-0.8,0.8c-0.2,0.3-0.5,0.9-0.1,1.2c0.5-0.6,1.1-1,1.9-0.9c0,0.6-0.1,1.3-0.4,1.8l0.2,0.1"
		/>
	<path class="st3" d="M425.8,435.2c0.4-0.3,0.9-0.2,1.2,0.1c0.8-0.7-0.5-0.8-0.9-0.6c-0.2-0.1-1-0.4-1.1,0.1
		C425.3,434.8,425.6,434.9,425.8,435.2z"/>
	<path class="st3" d="M427.5,436.8c0.6-0.4,1.4-0.1,1.9-0.6c0.2-0.6-0.1-1.3-0.7-1.5c-0.2-0.1-0.4-0.1-0.6-0.1
		c-0.6,1,0.7,1.3-0.7,2.1L427.5,436.8z"/>
	<path class="st3" d="M427.6,438.7c0.1-0.1,0-0.4-0.1-0.5c0.4-0.5,0.1-1.1-0.4-0.6C425.1,438.6,426.3,438.9,427.6,438.7z"/>
	<path class="st3" d="M437.6,450.8c0.4-0.2,0.3-0.7,0.3-1.1c0.6-1.3-0.1-2.3-0.9-0.7C435.5,449.8,436.9,450.1,437.6,450.8z"/>
</g>
</svg>
