<?xml version="1.0" encoding="utf-8"?>
<!-- Generator: Adobe Illustrator 24.2.3, SVG Export Plug-In . SVG Version: 6.00 Build 0)  -->
<svg version="1.1" id="_0" xmlns="http://www.w3.org/2000/svg" xmlns:xlink="http://www.w3.org/1999/xlink" x="0px" y="0px"
	 viewBox="0 0 650 650" style="enable-background:new 0 0 650 650;" xml:space="preserve">
<style type="text/css">
	.st0{fill:#191919;}
	.st1{fill:#7A1C1E;}
	.st2{fill:none;stroke:#555555;stroke-linecap:round;stroke-linejoin:round;}
</style>
<g id="LWPOLYLINE">
	<path class="st0" d="M455,443.4c-1.2,1,0.6,0.9,0.7,1.6c-2.4,0.4-1.9,5.7-4.3,2.1c0.3-1.3-3.9-2.4,0.5-1.3c1.7-5.4-3.8-3.8,5.1-7.3
		C458.1,441.3,451.9,440,455,443.4z"/>
	<path class="st0" d="M507.8,423.7c-0.4-0.5,6.2-0.8,3.6,1c2.1,2.6-4.2-0.4-3.2,2.8c2.3,4.5-3.2,2-4.6,1.4c-1.8-3.8,5.6-0.6,0-3.5
		c-6.1-4.8,0.5,5.7-4.7,0.4c-8.2-2.3-2-5.1-0.4-8c1.9,1.1,0,1.6,0.8,2.2C500.3,420.4,502.6,424.4,507.8,423.7z"/>
	<path class="st0" d="M523.9,366.9c2.7-3.3-0.1,2.4,7.3-2.8c-1,1.9,1.8,5.2-2.2,3.5C527.2,368.8,523.8,368.9,523.9,366.9z"/>
	<path class="st0" d="M547.4,392.1c0.8-4.3-4.7,0.5-6.5-0.2c-4.6,3.2-7.1,4.3-1,6.2c-2,1-10.1,0.9-10.1-6.3
		c-0.6,0.9-1.8-3.8,1.3-0.9c1.7-0.5-1.3-3.2,2.3-2.4c0.1-1.9-4-1-4.4-0.1c-1-2.4-2.6,2.7-3.4,1.3c0.4-5.1,3.7-3.5,2.6-5
		c3-1.6,1.9,1.6,3.5-0.5c0.7-0.6,2.9,2,2.9,0.2c-5.1-2.2,1.2-7.9-1.3-10.9c-1.9,0.9-6.5,4.4-5.1,0.5c-1.7,0.5-1.4-1.3,0.1-1.4
		c-0.8-1.9,3-1.7,4.4-4.4c0.3-1.8,1.9-1.3,2,0.5c-0.3-3.9,10.8-7.4,3.1-0.9c-0.8,5.3,15.3,1.8,6.5,8.2c2.3,0.5,8.6,0.7,8.6,2.4
		c-3.7,2.7-2,3.8-4.8,0.8c-3.5-1.7-8.5,7-3.2,8.5c0.5-1.1,4.1-1.8,3.3,0.4C551.7,384.7,550.1,393.1,547.4,392.1z"/>
	<path class="st0" d="M523,311c-3.7,2.4-12.9-1.3-14.4-2.1C513.1,299.4,520.1,304.6,523,311z"/>
	<path class="st0" d="M523.8,299.2c2.8,0.1,2-0.4,1.5,1.5c0,5.2-11.3-2.5-4.8-3.3C521.7,296.5,522.3,299.4,523.8,299.2z"/>
	<path class="st0" d="M610.4,196.6c1.8,1.6-3.3,1.7-4.2,0.6C606.8,196.5,609.8,194.9,610.4,196.6z"/>
	<path class="st0" d="M620.4,196.9c-2,1.9-7.5,1.8-9.1-1.4C613.5,187.5,617,195.4,620.4,196.9z"/>
	<path class="st1" d="M313,524.6c-0.4-2.7,3.5,0.8,1.8,1.1C314.4,525.7,312.6,525.2,313,524.6z"/>
	<path class="st1" d="M292.8,521.3l1.4,1.8c-0.3,0.5-0.7,3.8-1.7,3.7c-2.1,0.4-3.1-2.7-5.2-2.2c0,0-6.2-2.1-6.9-2.9
		c2.1-0.8,5.6-2.1,7.9-0.8C289.1,520.5,292.3,521.2,292.8,521.3z"/>
	<path class="st1" d="M267.5,385.5c1.3,3.2-1.3,6-3.2,8.1c0.9,1.1,1.1,2.7,0.4,3.9c-1.8,1.7,0.2,3.5,1.2,5c-2.1,0.8-2,5-2.1,6.8
		c-1.8,0.9-12.4,2.8-12.1,6c6.5,5,2,4.5-1.8,8.6c-2.2,0.6-4.4,2-4.9,4.4c-1.5,0.7-4.4,1.9-5.8,0.5c-9.1,15,7,4.8-1.1,20.8
		c0.2,6.9,2.2,7.7-5.9,7.5c-1.4-1.1-3.1-3.5-5-1.6c-8.8,0.6-5.8-5.9-11.8,0.1c-5.6-3.1-6.6-1.8-11.5,1.5c2.8,0.7,0.9,3.8,0.6,5.6
		c-1.1,0.8-2.7,1.7-3.9,0.7c-0.4,3-1.6,5.1-4.4,6.2c0.6,4-2,8-4.6,10.7c-7.9-2.3-8.1,4.5-9.7-5.8c-1.6,0.3-1.5,3-1.6,4.2
		c-4.8,2.3-4.3,8.4-4.7,12.7l4,7.2c-2.8,5.6-4.9-3.2-3,8.5c-1.8,6-5.1,4-9.9,4.2c-3.2,2.2-5.4,2.7-4,7.2c2.1,4,4.4,8.5,2.3,13.2
		c-1.1,2.1-4.1,0.2-4.4,2.3l0,0c-3.5-3.3-12.2-9.9-5.8-10.5c-0.6-3.9-5.1-5.6-8.4-6.1c-3-4.1-7.7-6.2-2.2-11
		c2.8-11.2,7-4.2,2.7-12.3c-2.1,0-4,0.9-5.4,2.5c-4.1-1.5-12-0.3-15.7,1.9c-6-2.4-8.9,3.1-13.7,4.9c-6.3-1,0.6-4.3-5.8-13.9
		c-3.1,0.4-9.2-2.1-9.9-5.4c0.8-1.7,1.5-2.3-0.9-2.7c-0.8-1.7-1.9-3.9-4.2-3.6c-1.7-2.9,4.2-4,5.5-5.1c-1.7-0.5-3.3-2.7-3.7-4.4
		c-4.7,0.7-5.3,0.9-5.8,5.7c-2-0.3-3.9,2.2-4.8,3.7c-3,0.1-14.6,3.8-7.6-3.1l-3.6-0.1c-0.8-7.4-6-4-10.5-2.4l-7-1.5
		c-5.8,0.5-5.7-0.8-7.8-5.5c-3.1-0.1-5.8,0.5-7-3.2c-3.4,0.6-9.5-0.4-12.6-1.7c0.5-1.5-0.7-2.4-2-2.9c0.1-0.7,0.3-2.5,1.3-2.7l2.6,1
		l1-2.2l-3.7-2l-0.4-2.6l7.6-4.2l-2.9-4.1c-2.3-0.3-4-3.1-4.8-4.9l1.6-2.5c-1.8-0.6-3.5-2.9-3.9-4.7c-0.6-7.8,4.6-6,9.6-8.2
		c1.2-2.9,8.6-9.3,11.1-11.2c-1.8-2.3-4-7.1-0.9-9.3c-1.1-2.6,0.3-3.4,2-4.6c0.7-1.5-2.5-3.8-3.7-4.4c2.8-1.9,5.2-8.3,5.8-11.3
		c1.6-0.2,3-1.1,3-2.7c-0.1-1.6-0.4-4.6-2.3-5.3c1.2-6.9,5.5-0.8,1.7-10.5c4.1-6,5.2,4.6,9.4-9.5c1.9-1.2,4.4,0,6,1.1
		c2.4-4-2.8-8.4-5.4-10.8l-0.1-3.3c2-1.4,8.5-6.4,11.1-6.4c5.9,1.9,12.8-2.9,16.5-7c7.3-0.6-1.1-2.4,6.5-10.4
		c6.5,5.6,11-0.2,13.1,9.7c5.1-3.7,6-4.6,12.1-2c3-3.6,5.1,2.4,6.3-4.3l2.7,1.8c0.3,3.4-1.7,8.3,3.1,9.1c0.9,1.9,6.3,3.8,8.1,4.6
		c2.3,4.9,0.6,8.3,7.4,5.4l-2,5.3c3.9,3.3,5.4,5.5,10.8,3.4c2.7-3.3,5.4-9,10.6-8c2,3.3,6.3-1.7,10.8,0.1c0.4,2.8,2.5,7.6,4.6,9.7
		c0.2,2.2,1.9,6.5-1.3,7.4c1.7,1.1,3.5,2.3,2.6,4.6c1.8,1,2.8,2.1,2.3,4.3c7.3,0.1,7.4,2.2,10.9,7.9c-0.1,1.1-0.8,4.2,0.8,4.6
		c3.9,0.4,4.4-0.5,5.6-4l2.7-5.8c2.9-2.5,11.3-7.4,1.4-7c2.5-10,12.8-4.4,13.9-13c3.8-0.2,2.9,2.6,3.3,5.2c3.8,1.8,3,8.3,1.7,11.6
		c12-0.7,1.9-6.6,15-9.2c12.2,1.6,12.3,14.5,16.8,7.7c7-0.3,7.4,11.6,14.4,10.2c0,3.6-2.2,3.6-5,4.4c-2.1,1-1.7,4.8-1.5,6.6
		L267.5,385.5z"/>
	<path class="st1" d="M211.3,174.4c-1.3-0.7-2.6-0.9-1.4-2.6c4.3-1.1,7.3,4.1,13.5,3.1c0.3,6.2,4.4,0.5,3.2,6
		c1.6,0.9,2.1,1.2,2.8-0.7c2.7-2.4,2.9,6.1,3.7,7c2.9-1.5,8.6-1.9,10.9,0.8c-1.5,1.9-1.9,3.5-0.6,5.6l-3.7,1
		c0.1,1.2,0.4,3.2,1.6,3.8l8.5-0.7c0.7,4.9,10.7,13.7,11.8,18.4c-2.1,4.7-3.1,7.6-8.8,8.7c0.7,2.1,2.7,6.5,4.8,7.6
		c6,6.1,7.3,2.3,13.6-0.3l14-0.7c0.1,6.5,0.2,15.1,8.7,14.9c2.3-1.4,7.3-1.2,9.8-0.7l2.8,6.1c4.2,1.7,4,2.2,2.9,6.4
		c3.8-0.9,3.5,3.4,4.5,5.8c5.3,0.6,1.3,4.8,5.2,4.8c4.9,0.4,12.2,2,16-2.3l3,1.7c1.2-2.1,8.3-5,10.4-5.9c1.7,7.1,11.1,5.8,16.6,5.4
		c-0.6,2.1-1.5,4.1-2.7,6c3.1,1.6,5.6,0.2,8.1-1.6c5,5.7,17.4,5.6,19.3,14.1c-4.8,1.4-4.3,2.2-4.2,6.8c-4.7,0.4-4.9,6.5-5.7,10.1
		l3.4,7.6c-11.3,0.8-4.6,3.4-10.9,8.6c-2,1.3-0.6,6.3-0.3,8.1c-0.7,3.5-0.4,6.9-5.1,5.9c0.1,1.7,1.1,4.5-1.4,4.9
		c-0.1-4.7-3.3-10.2-6.9-3.9c-1.4-0.5-6.2-0.5-5.9-2.8l-5,0.6c-1.5-1.1-2.8-4.1-4.5-1.6c-4.6-1-0.6,2-7.6,4.5
		c-1.8-0.7-4.5-0.7-6,0.7c-3.2-0.5-0.7-3-3.3-3.9l-10.8,3l0.1,4.6c-4.9,3.4-2.8-2.2-10.2-0.3c2.1,2,0.9,8.5,0.5,11l-3.1,3.2
		c0.1,2.6,0.9,3.6,3.5,4.3c-0.4,5.1-7.6,2.1-9.8,5.5c2.5,5.8,4,2.4,7.9,7.9c0.7,0.2,6-2.8,5.8-0.7c-0.1,4.3-1.2,6.6-4.9,9
		c-7.8,4.2-19.5,11.2-28,5l0.6,4.9c-3.7-2.8-5.6-6.5-10.8-3.6l-3.2-0.8c-0.2-1.9-0.6-5.6,1.5-6.6c2.9-0.8,5-0.7,5-4.4
		c-7,1.4-7.4-10.5-14.4-10.2c-4.5,6.9-4.6-6-16.8-7.7c-13.1,2.7-2.9,8.5-15,9.2c1.3-3.2,2.2-9.8-1.7-11.6c-0.4-2.6,0.4-5.4-3.3-5.2
		c-1,8.6-11.3,3-13.9,13c9.9-0.5,1.5,4.5-1.4,7l-2.7,5.8c-1.3,3.5-1.7,4.4-5.6,4c-1.6-0.5-0.8-3.5-0.8-4.6
		c-3.4-5.7-3.5-7.8-10.9-7.9c0.5-2.1-0.5-3.2-2.3-4.3c0.9-2.3-0.9-3.4-2.6-4.6c3.1-0.9,1.5-5.2,1.3-7.4c-2-2-4.1-6.9-4.6-9.7
		c-4.4-1.8-8.7,3.3-10.8-0.1c-5.3-1-7.9,4.8-10.6,8c-5.4,2.1-6.9-0.1-10.8-3.4l2-5.3c-6.8,3-5.1-0.4-7.4-5.4
		c-1.8-0.7-7.3-2.6-8.1-4.6c-4.8-0.9-2.8-5.8-3.1-9.1l-2.6-1.7c-1.2,6.7-3.3,0.7-6.3,4.3c-6-2.6-7-1.8-12.1,2
		c-2.2-9.9-6.7-4-13.1-9.7c2.4-3.1,9.3-7.5,12.8-9.3c1.6-1.5-2.4-7-2.7-8.5l-5.1,1.5c-4.1-2.2-5-1.8-2.6-6.5l-2.6-3.2
		c0.4-2.3,2.3-5.3,4.5-6.3c1.7-3.5,5.9-9.2,9.7-10.7c6.4-13.9,10.6,8.5,14.9-4.3l-0.9-3.7c3.1-3.9,8.3-7.5-0.6-7.7l-2.8-6.1
		c-0.9-1.6-7.3-4.1-3.1-5.7c2.3-8.9,3.1-8.5-4.4-14.3c-2.8-3.3,3.5-8.2,5.1-10.8l-2-4.9c0.7-5.2,3.4-8.2,7.7-11.2l7.5-9.6
		c4.6-3,7.2-4.7,12.9-2.9c0.2-2.7,5.9-3.8,8-4.5l4.5,1.2c2.7-1.1,9.3-5.7,11.2-1.3c1.7-4.7,11.1-9.6,15.3-11.4
		c6.3,2.7,5.7-1.9,9.1,2c4.3-5,6.4-1.2,9.1,2.6l7.3,5.1C208.7,181.8,211.3,178.2,211.3,174.4z"/>
	<path class="st1" d="M392.3,281.7c0.3,3,2.4,5.2-2.3,4.6c-1.9-8.5-14.3-8.4-19.3-14.1c-2.5,1.8-5,3.2-8.1,1.6
		c1.1-1.9,2.1-3.9,2.7-6c-5.5,0.3-14.9,1.6-16.6-5.4c-2.1,1-9.2,3.9-10.4,5.9l-3-1.7c-3.9,4.3-11.1,2.7-16,2.3c-4,0,0.1-4.2-5.2-4.8
		c-1-2.4-0.7-6.6-4.5-5.8c1.1-4.2,1.3-4.7-2.9-6.4l-2.8-6.1c-2.5-0.5-7.5-0.7-9.8,0.7c-8.4,0.2-8.6-8.4-8.7-14.9l-14,0.7
		c-6.4,2.6-7.6,6.4-13.6,0.3c-2.2-1.1-4.1-5.5-4.8-7.6c5.7-1,6.7-3.9,8.8-8.7c-1.1-4.7-11.1-13.4-11.8-18.4l-8.5,0.7
		c-1.3-0.6-1.6-2.6-1.6-3.8l3.7-1c-1.3-2.1-0.9-3.7,0.6-5.6c-2.4-2.7-8-2.3-10.9-0.8c-0.8-0.9-1-9.4-3.7-7c-0.7,1.9-1.3,1.6-2.8,0.7
		c1.2-5.6-2.9,0.2-3.2-6c-6.2,1.1-9.1-4.1-13.5-3.1c-1.2,1.6,0.1,1.8,1.4,2.6c0,3.8-2.6,7.4-5.4,9.6l-7.3-5.1
		c-2.7-3.8-4.7-7.6-9.1-2.6c-3.3-3.9-2.7,0.7-9.1-2c-2.8-5.2,2.9-9.2,5.4-12.8c3.2-1.6,8.3-5.8,9.6-9.2c1.4-5.4-3.9-1.6-4.4-6.5
		c-5.9-0.7-3.5-4.4-4-8.7c6.1-3.7,1.8-6.3,0.4-11.3c1.6-1.9-0.8-7.1-1.4-9c-3.9-6.4-2.3,1.8-8.6-1.2c-3.7-3.1,3.1-3.3-2.9-9.6
		c1.3-3.6,2.6-5.3,6.5-6.1l5.5,5.9c1.6-2.2,1.7-3.9,0.2-6.2c1.6-4,10.4-1.5,13.5-1.4c-1.1-5.2,3.2-4,6.5-5.4c1.2-1.9,4-5.8,6.2-6.5
		v-7.8c-4.9-4.1,0.1-6.2,3.3-8.7l2.2,5.7c1.7-2.6,6.4-5.1,9.4-5.7c2.6-3.7,4.9-5.2,9.4-5.3l4.9-6.3c2.2,1.1,5.3,3.2,5.4,6
		c3-0.2,4.5,7.6,5.4,9.5c2.2,1,10.8,7.1,13.4,5.4c0.2,2.3,2.6,3,4.5,3.4l5.5-5.6c-0.3-7.3,4.3-9.7,9.8-13.2c3,2.2,8.5-2,11.3-3.2
		c9.2,3.7,2.5-7,19.9,1.1c-0.2-4.4-1-6.3,3.8-8.1l0.4-4l10.5-1.1c3.4-1.6,10.5-4,14.2-4.3c1.2,0.1,4.3,1,4.9-0.5
		c1.3-1.8,2.3-4.5,1.1-6.7c1.8-4.5,3.3-5-2.5-5.6c-0.5-0.8-3.7-2.9-2.6-4.1c3.1-3,10-8,14.4-8.4c0.3,3,5.8,5.5,8,6.7
		c2.2-10.2-0.2-0.9,11.5-6.7l4,4.6c3.4-1,10.5-3.2,11.9-6.9c6.9-0.2,1,3.7,9.8,7.8c9.1,1,1.8,6-0.9,9.6l4,0.5
		c0.9,1.8,1.2,4.9,0.1,6.7c-3.3,1.2-8.4,5.2-10.5,8c3.8,4.6-1.2,10.4,4.1,14.2c1.6,0.6,7.1,2.2,7.8,4c2.2,3.1,3.4,6.7,3.3,10.5
		c1.3,3.6,4.5,14.8,8.3,16.8c-6.4,0.8-0.5,6.1,0.7,8.8c0.6,6.4,3.2,14.7-5.5,16.4c3.3-0.3,4.7,5,5.7,7.2c1,1.7,5.4,1.1,7,1.1
		l0.2-2.5c3,0.8,5-0.3,7-2.4c11.1,8.2,13.6-0.9,15.8,3.1c0.1,0.9-1.8,4.9,0,5.1c4.3,0.4,12.4,2.9,17.1,0.6h0.6
		c2.4,10.1-2.1,5.7-3.1,14.4c-3.6,1.7-4.5,3.6-4.9,7.5c2.5,3.7,6.6,2.9,7.9,6.9c-11.8-3.8-4-1.8-11.1,0.6c0.4,2.3,0.7,10.1,3.3,11.3
		c-8.3,0.7-3.7,3.2-9.9,4.2c0.3,1.1,2.1,3.3,0.1,3.7c-1.9-1-5.5-3.1-5.7-5.5c-1.5-0.3-14,0.6-14.4-1.8c2.1-1.7,0.4-4.4-0.4-6.2
		l-2.5-0.3c-2.4,0.9-0.9,5-0.7,6.8c-1.1,1.5-1.8,0.3-2.8-0.5c-2.9,1.6-5.6,7.7-6.7,10.6c-2.6,0.2-4.9,4.6-5.9,6.6
		c-2.7,0.7-6,2.1-6.8,5.2c-3.3-0.9-10.7-2.8-12.2,1.7c1.3,1.6,0.7,6.1,0.5,7.9c-6.5,2.8-10.4-0.1-7.1,8.8c-1.8,2.7-4.7,8.4-5,11.7
		c-1.4,0.6-4,2.2-4.1,4c6.5,5.7,0.9,3.9,1.7,13.8c3.8,1.6,1.4,3.5,4.6,3.7l-2.3,8.5c-5,2.1-9.8,9.6-6,14.5l6.6,0.4
		c0.6,2,6.2,3.7,7.9,4.5C393.9,277.8,389.6,277,392.3,281.7z"/>
	<path class="st0" d="M541.9,247.8c-8.5-7.9-5.3,0-13-2.3c-20.2,19.4-21.8-16.9-39.7-7.1c-2.7-0.4-3.6,0.7-4.6,2.9
		c-1.9,0.5-5.4,5.6-5.8,1c-4.1-0.8-4.4,2.5-5.8,5.3c-2.8-0.1-3.8,1-4.8,3.4c-2.2,0.6-5.2-4.5-6.3-5.8c-1.4,2-5.3,3.5-7.6,3.9
		c-2.6,1-3.8-2.4-4.9-4.1c-2.3,1.2-2.7-2.7-3.5-3.9c-3.2,0.9-11.4,1.6-10,6.6c1.6,4.3-5.1,1-7,3.4c-0.9,2.5-0.8,5.6,1,7.7
		c-6.6-4.1-9.9,0.9-14.6,4.8c-4.1,0-3.6-0.8-3.5-4.4c-1.7-4.3-2.5-5.1-7.1-5.4c-0.4,3.3-0.4,3.5-3.7,2.7c1.7,11.7,6.3,1.5,2.9,11.2
		c7.6,3.5,8.4,4.5,2.4,11c-5-5-4.9-3.6-9.8,0.3c-0.8,2.4-1.6,2.9-4.2,2.7c-2.7-4.6,1.6-3.9,0.5-7c-1.7-0.7-7.3-2.4-7.9-4.5l-6.6-0.4
		c-3.8-4.8,1-12.4,6-14.5l2.3-8.5c-3.2-0.2-0.8-2.1-4.6-3.7c-0.8-9.9,4.8-8-1.7-13.8c0.1-1.8,2.7-3.3,4.1-4c0.3-3.3,3.1-9,5-11.7
		c-3.3-8.9,0.6-6,7.1-8.8c0.2-1.8,0.8-6.4-0.5-7.9c1.5-4.5,8.8-2.6,12.2-1.7c0.8-3.1,4.1-4.5,6.8-5.2c1-2,3.2-6.4,5.9-6.6
		c1.1-2.9,3.8-9,6.7-10.6c1,0.8,1.7,2,2.8,0.5c-0.2-1.7-1.7-5.8,0.7-6.8l2.5,0.3c0.8,1.9,2.5,4.6,0.4,6.2c0.3,2.4,12.9,1.4,14.4,1.8
		c0.1,2.4,3.8,4.5,5.7,5.5c2-0.4,0.2-2.6-0.1-3.7c6.3-1,1.7-3.6,9.9-4.2c-2.5-1.2-2.9-9.1-3.3-11.3c7.1-2.4-0.7-4.3,11.1-0.6
		c-1.3-3.9-5.4-3.1-7.9-6.9c0.3-3.9,1.3-5.8,4.9-7.5c0.9-8.8,5.5-4.3,3.1-14.4h-0.6c1.5-0.7,2.7-2.1,3.1-3.7c13-5.3,2.1-3.1,12-10.2
		c4.7-0.8,5.6-1,8.1,3.4l3.6-2.4c0.9-3.3,5.1-13.7,3.6-17.2c2.9,0.3,6.4,3.7,6.4-1.4c0.8-2,11-0.3,12.5-0.4l1.2,5
		c-5.8,3.1-0.8,6.5,2.7,8.6c-0.4,3.8-1.5,4.9,3.3,4.9c1.9,1.8,2,7.4,2,9.7l-2.8,3.4c1.2,1.9,4,4.9,6.3,5.4c0.7,1,2.1,2.8,0.9,4
		l5.6,5.1c-6.1,2.9,5.1,3,6.9,3.2c0.1-1,0.2-2.6,1.6-2.7c5.7,4.4,5.2-0.2,12.4,0.6c2.7-17.6,13.9,3.4,22-10.5
		c3.2-3.1,15.5-6.1,20.1-4.6c2.4,7.9,6.3,1.4,11.8,4.6c-1.2,5.7,6.8,13.8,10,17.6c-4.8,2.4-1.4,9.2,1.7,12.1
		c7.8-0.1-3.9,5.1-7.5,4.2c8.5,3.8,3.2,0.5-1.7,3.6c6.1-1.3-3.1,3.6,4,2c-4,3.2-16.7,1.8-14.6,2.2c-0.8,1.3-2.9,5-2.4,7.1
		c0.3,2.7-0.1,4.1-2.3,5.5c-2.8,2.1-15.2-1.4-7.4,2.6c-0.4,3.8,12.2-6.6,4.2,6.9c0.1-2.2-15-2.6-15.4-0.9c2.1,3.4,0.3,4.4-2.4,5.5
		c-1.6-2.4-6.6-0.4-8,0.2c-4.2,8.7,6.6,4.3,7.7,9.1c1,2.3,4.6,1.1,6.2,0.6c-12.4,13.1,4.2,5.4-0.6,9.5c8.6-0.8-3.3,2.7-4.7,4.6
		c5.4,3.6-1.4,7.2,5.1,5.5c-10.2,10-2.8,8.4-5.8,12.1c-5.5,4.6-11.5,6-17.9,5.9c-0.5,2.5-2.4-3.7-5.2-4.4c-3.2,0.6-2.3,4.3-5.4,4.7
		c-1.5-0.4-3.1-0.7-4.7-0.7C546.1,251.6,543.4,245.1,541.9,247.8z"/>
	<path class="st0" d="M390,286.2c4.7,0.6,2.6-1.5,2.3-4.6c2.5,0.3,3.3-0.3,4.2-2.7c4.9-3.9,4.8-5.2,9.8-0.3c6-6.5,5.3-7.5-2.4-11
		c3.4-9.7-1.2,0.5-2.9-11.2c3.3,0.8,3.3,0.6,3.7-2.7c4.7,0.3,5.4,1.2,7.1,5.4c-0.1,3.6-0.5,4.4,3.5,4.4c4.6-3.9,8-8.8,14.6-4.8
		c-1.8-2.1-1.9-5.2-1-7.7c1.9-2.4,8.6,0.9,7-3.4c-1.4-5,6.8-5.8,10-6.6c0.8,1.2,1.2,5.2,3.5,3.9c1,1.7,2.2,5.1,4.9,4.1
		c2.3-0.4,6.2-1.9,7.6-3.9c1.2,1.3,4.1,6.3,6.3,5.8c1-2.5,2-3.6,4.8-3.4c1.4-2.8,1.7-6.1,5.8-5.3c0.4,4.6,4-0.4,5.8-1
		c1-2.3,2-3.3,4.6-2.9c17.9-9.7,19.5,26.5,39.7,7.1c7.7,2.3,4.5-5.6,13,2.3c-2.1-1.7-3.5-1.6-5.3,1.1c2.7-1.2,2.3,2.4,4.2,1.7
		c-0.1,0.6-1.8,0.9-2,1.6c4-0.3,4.6,1.6,0.9,2.7c1.8-0.1,6.9,4.3,5.2,5.9c2.2,0.5-0.7,2.1-3.3,3.5c-1.8,1-3.5,1.9-3.3,2.1
		c-2.2,0.3-1.3-4.6,0.4-3.6c0.9-4-4.9-2.3-6.4-1.5c-0.8-1.2-1.9-2.1-3.2-2.7c0,1.9-4.8-0.8-2.1-2c-2.8-0.6-2.6-1.5-4.7-3.3
		c-1,3.6-3.7,1.9-1.2,3.2c-6,5.6-3.4-1.9-8.4,0.4c-2.5-0.7-0.5,1.2-0.9,3.3c0.7,1.9,1.9,5.2,2.9,1.7c4,2.1,4,2.2,7-0.9
		c2.2,0.9,3.7,10,0.2,11.1c0,0.9,3.4,0.6,3.1,2.9c0.8-0.7,6.5-0.7,3.5,0.2c-8.7,8,13.8,1.5,7.1-0.7c0.1-0.1,1.2-2.4-0.2-2
		c2.5-3.4,10.5-7.1,8.8-8.2c1.5-0.5,4.4-1,2.4,1.3c4,1.6,2.7,1.3,1.4,3.8c10.3,0.8-6.2,6.8,9.7,3.9c8.6-5.6,3.6,0.8-1.1,2.8
		c-2.7,1.1,0.6,2.9-2.9,2.5c0-1.8-2.1,0.3-3.2,0.5c0.8-2.6-1.8-1.3-2.8-3.4c-1.2,2.9-5.5,0.7-7,4.6c0.5,1.5,4.3,0.1,2.9,2.1
		c-3.9,4.9-5.9-1.7-5.9-1.7c-4.9,4.7-13.7,0.6-21,7c6.5-2.1,3.6-0.8,8.7,1.3c-4,1.4,0,4.3-5.2,4.4c-0.8,2.4-1.3,1.3-2,2.4
		c-5.3,0.4,1,6.1-3.7,5.9c-2.9-0.2-12.5,6.7-9.2,8.9c1.6,0.8,18.1,10.9,22.7,5.4c4.4,1.3,3.1,7.9,0.8,9.8c-2.9,1.1,0.1,8.4-4.5,6.3
		c-5.8-4.5-5.5,5.8-8.8,8c-1.5-3.4-2.6,1.8-1.2,3.1c5.7,1,1.6,7.5,5.4,9.1c-2.1,1.1-3.4,4.2-4.3,5.7c1.8,1.5-0.8,3.1-2.7,2.6
		c-2.2,1.4-4.2-3.9-5.4-1.6c-2.9,1.6-15.8,6.2-11.6,8.3c6.5-3.5-1.6,7.1,4.9,1.3c-0.8,20.6,10.7,0.6,7.9,7.8c1.4,0.8,3,1.1,4.5,0.9
		c-0.3,3-4.4,10.1,2.2,7.6c4.5-0.9-6.2,5.3,2.5,2.3c1.8,0.2,2.6,4.5,3.4,1.9c0.9,4-2.6,3.4-3.9,5.5c2.7,1.6,5.7-1.4,5.8,3.7
		c-1.2,0.9,1.6,4.1-1.6,8.5c-2-0.7-4.3-0.5-6.1,0.7c-0.5-1.2-2-2.7,0.1-1.3c4-6.2-6.3-4.9-6.8-4.1c-6.5-1.7-3.3,0.9-7.8,1.2
		c3-2.6,5.6-9,0.7-9c-0.1-1.9-2.7-1.6-7.4,0c1.3-1.1,3.1-3.7,0.7-4.6c9.2-9-5.5-3.4-10.5-8.2c-1.3-1.7-1.4-3.4-4.8,10.1
		c6.1,6.4-1.2-1-3,5c-3.8-8.8,4-19.3,2.6-20.4c-0.9,0.5-3.7-0.6-5.5,1.5c1.9,5.9-3.7,8.9-8.9,11.3l-0.2-0.4
		c4.3-4.5,3.3-6.1,1.5-11.3l-6.2,1.8c-1.4-1.7-3.4-5.4-3-7.7c-5.6-3.3,1.4-10.2-2.8-14.4c2.8-1.1,2.8-2.9,0.2-4.2l-7.9,0.5l-13.1,2
		l-2.7,1.3c-1.5-0.6-4.8,0-3.7-2.6c-1.8,2.6-6.6,4.8-9.6,5.3c-6.9-5.1-3.8,2.3-16.4,3c-4.1,0.4-8.3-0.9-11.5-3.4
		c-2.1,3.4-11.2,4.1-12.9,7.9c-4.7-1.2-9.1-9.9-14.2-9.4c-0.3-3.5-1.5-11.6-6.4-10.8c1.5-11.7,6.7-2.6,3.1-11.9
		c3.6-6.3,6.7-0.8,6.9,3.9c2.5-0.4,1.4-3.2,1.4-4.9c4.7,1,4.4-2.3,5.1-5.9c-0.2-1.8-1.7-6.8,0.3-8.1c6.3-5.1-0.4-7.8,10.9-8.6
		l-3.4-7.6c0.8-3.6,1-9.6,5.7-10.1C385.6,288.4,385.1,287.7,390,286.2z"/>
	<path class="st0" d="M458.4,400.2c1.1,1.4-0.8,3.1,0.2,4.7c3.9-1.5,0.8,2.9,4.2,1.6c3.9-6.9,1.5,1.7,4.4,4
		c-0.7,0.9-9.1,0.1-4.2,3.3c0.1,3.2,5.1,4.7,4.1,0c3.5-0.6,3.3-2.7,2.6-5.7c3.6,4.5,7-1.9,6.7,3.3c4.3,1.6,4.2,4.9,9.2,4.5
		c1.1,0.2-1,1.4-1,1.6c1.1,2.4,0,0-1,1.1c-4,1.9-5.7,0.6-9.3,1.1c0.1,0.5-0.6,0.7-0.9,0.8c3.3-0.3,0.5,5,3.8,4.8
		c-4.3,4.2-3.6,3-8.8,1.1c-1.1,0.3-9.1,4.3-9.7-1.5c-5.4-2.5,4-2.9-1.2-5.1c-0.1-7.2-7.1,1.1-4,1.8c0.6,0.8-3.5,1.3-1.6,2.4
		c-1.5,2.3-5.1,1.1-2.5,4.4c1.5,0.9,9.9,4.3,8.3,4.9c0.8,1.4-7.1,4.9-7.6,1.9L447,434c1.1-0.2,2.6-4.2,0.3-3.2
		c-5.3-0.8-3.7,3.1-2.5,5.6c-8.5-4.4-15.1-2.8-11.6-0.9c-5.3-0.5-2.7-13.9-5.6-13.8c-0.3-2.1-3.8-2.7-6.5-2.3
		c-7.2,5.2-16.9,4.7-23.8,11.2c-7.3,0.6,0.7-9.8-1.9-14c-3.5,0.4-8.6,2.3-4.6-3.2c-1.2-0.8-12.1-3.1-11.4-0.1c-1.6,0-5.1,0-6.3-1.3
		c1.6-8.1-3.6-13.1-8.3-17c2.3-3.1,2.9-10.1,2.6-13.8c6-5.1,9.5-5.9,8.9-14.9c1.7-3.8,10.8-4.5,12.9-7.9c3.3,2.6,7.4,3.8,11.5,3.5
		c12.6-0.7,9.5-8.1,16.4-3c3-0.5,7.8-2.7,9.6-5.3c-1.1,2.6,2.2,2.1,3.7,2.6l2.7-1.3l13.1-2l7.9-0.5c2.6,1.4,2.6,3.1-0.2,4.2
		c4.2,4.3-2.8,11.1,2.8,14.4c-0.3,2.3,1.7,6,3,7.7l6.2-1.8c1.8,5.3,2.8,6.9-1.5,11.3l0.2,0.4c-2.8,1.3-5.5,2.4-7,3.6
		C451,397,455.9,405.2,458.4,400.2z"/>
	<path class="st0" d="M395.8,477.7c5.4,2.8,2.4-2.3,5.5-1.4c-4.2,5.6,5.2,5,7.3,4.5c-0.2,2.7-2.1,3.4-2.8,6.1
		c-1.5,0.3-2.2-0.3-3.4,1.4c1.3,2.5-2.9,3-1.8,4.9c-6.5,5.3-4.6-3.5-8.3-0.2c-3.5,2.8-1.6,4.7-0.7,8.3c0.8,1.4,2.2-1.2,2.9-1.3
		c-0.1,0.9,1.7,2.5,0.5,3.1c-0.7-0.8-1.6,1.6-0.7,2c-0.6,2.4-4.5,1.4-3.1,4.6c-3.5-1.8-1.6,0.8-3.1,1.4c0.2-0.6-2.2,1.1-2.8,2.7
		c-0.7-0.1-3-1-3.5,0c-1.4,3.6-2.1,0.6-0.7-1.1c0.4-1.4-4.9-8-4.7-9.8c-0.5-0.8-3.5,0.7-2.8-1.2c-3,0.9-3.5-2.7-9-1.6
		c0.9-0.5,0.9-0.5-0.6,0.1c0.2,0,0.4-0.1,0.6-0.1c-3.7,1.8-7.2,3.9-10.6,6.2c-0.1-2-2.6,0.1-3.8-0.2c-2.9-4.3,2.3-9.4-2.7-13.4
		c4.2-7.9-7.9-3.1,2.6-10.7c-5-2.8-5.6-9.8-13.9-7.3c-3.1-4.7-4.4-9-11.1-9.1c-10.1,7.9-11.5-0.5-19.9-0.5
		c-2.7,11.3-4.1,3.6-13.1,3.9c-1.9-1.8-2.5-3.9-4.1-0.3c-1.4-0.6-3-2.1-4,0c-2.8-0.7-2.9,0.8-3.7,3c-4-4.9-1.1,3.9-9.6-3.7
		c-6.7,4.5-7.9,4-15.2,1.3c-3-3.4-0.6-4.1,1.5-6.7c-3.9-2.5-5.9-4.6,0.1-6l4.2-4.8c2.2,2.3,4.2,0.8,6.5-0.3c1.7-2.5,4.6-4.6,2.1-7.7
		c-3.6-1.7-8.6-6.2-10-10c-3.4-1.6-8.5-6.1-10-9.6c3.8-4.1,8.4-3.7,1.8-8.6c-0.3-3.2,10.2-5,12.1-6c0.1-1.8,0-6,2.1-6.8
		c-0.9-1.5-3-3.3-1.2-5c0.7-1.3,0.6-2.8-0.4-3.9c1.9-2.1,4.5-5,3.2-8.1c5.1-2.9,7,0.9,10.8,3.6l-0.6-4.9c8.5,6.2,20.2-0.9,28-5
		c3.7-2.4,4.7-4.6,4.9-9c0.2-2.1-5.1,0.9-5.8,0.7c-4-5.5-5.5-2.1-7.9-7.9c2.2-3.3,9.4-0.3,9.8-5.5c-2.6-0.7-3.3-1.6-3.5-4.3l3.1-3.2
		c0.3-2.5,1.5-9-0.5-11c7.4-1.9,5.3,3.7,10.2,0.3l-0.1-4.6l10.8-3c2.6,0.9,0.1,3.5,3.3,3.9c1.5-1.4,4.2-1.4,6-0.7
		c7-2.6,3-5.5,7.6-4.5c1.8-2.5,3,0.5,4.5,1.6l5-0.6c-0.3,2.3,4.5,2.3,5.9,2.8c3.6,9.3-1.6,0.2-3.1,11.9c4.9-0.8,6.1,7.3,6.4,10.8
		c5.1-0.5,9.5,8.2,14.2,9.4c0.6,9-2.9,9.8-8.9,14.9c0.3,3.7-0.3,10.7-2.6,13.8c4.7,3.9,9.8,9,8.3,17c1.2,1.3,4.7,1.3,6.3,1.3
		c-0.8-3,10.1-0.7,11.4,0.1c-4,5.5,1.1,3.6,4.6,3.2c2.6,4.2-5.4,14.6,1.9,14c6.9-6.4,16.6-5.9,23.8-11.2c2.7-0.4,6.1,0.1,6.5,2.3
		c2.8-0.1,0.2,13.3,5.6,13.8c-1.1,1.1-10.7,12.5-5.4,13c3.3-1.5-2.8,3.6,5.3,1.6c3.6,0.3,1-5.3,5-6c1.6-0.5-1.4,8-2.4,6.6
		c-4.1,2.1,2,6.8,4.5,5.9c-2.8,3.6-2.8-0.1-4.8,2.3c-0.8-0.1-6.7-2.6-8.4-2.5c-1.6,0-3.8,5.7-0.3,6.2c0.1,2.1,1.9,1.5,2.9,1.6
		c-0.6,4.6,6.3-2.9,4.6,2.1c2.4,1-8.5,0.6-10.4,0.4c1.5-2.4-7.4-3-2.8-2c-9.7,6.3-2.6-3.8-10.1,0.3c-3.7,3,1.2,2,1.6,2.8
		c-6,2.7-9.4,2.6-14.9,3.1c-1.9-9-7.1-0.1-9.8,2.1c1,1.2,1.5,2.5-0.6,2.8C390.4,476.1,393.9,483.9,395.8,477.7z"/>
	<path class="st1" d="M321.1,541.7c3.6-0.8-0.5,4.5,2.5,4.3c0.3,0.5,0.4,1,0.3,1.5c-10.1,0.7-1,4.8-8.8,1.4c1,1.1-3.5,2.9-4.2,4.3
		c0,2-0.3,1.5-1.4,1c-1.7,3.4-4.4,6.2-7.6,8.2c-2.7-1.8,5.1-8-1.5-6c2.7-5.5-6.6,2.9-2.8,3.4c3.6,2.8-0.7,4.2-1.7,7.6
		c-5.4-1-2,10.3-4,12.2c-7.4-6.4-9.1,8.3-9.8,2.8c-3.5,2.2-2.5,5.4-6.1,7.4c-0.2,3.5-1,5.2-3.9,5.7c-2-0.1,0.1-3-2.2-4.1
		c4,0.7,10.3-9.2,7.7-10.3c2.5-4.8-11.9-1.4-12,1.2c-4.2,1.7,3.7,6.2,0.6,7.6c-15.6,7.5-3.8,21-14.2,30c-4-1.8,5.3-11.2,2.3-16.8
		c-0.8-7.3-14.9-10.5-13.7-2.2c-1.1,1.5-0.7,5.7-2.4,5.3c-1.5,1.7-1.3,4.5-4.2,5.2c-1.3,5.5-3.3,2.4-5.8,1.6c0.6,1,2.6,1.8,3,3.2
		c-0.1,1.5,0.1,1.8,1.5,1.3c0.6,0.3,0.5-0.2,0.9-0.5c1.4-0.2,2.3,0.6,2.9-1.2c0.8,0.1,2.1,0.6,1.9-0.8c1.2-0.4,1.2,0,1.5,1
		c0.5,0.1,1.1,0.2,1.6,0c0.7,0.2,2.4,1.5,3.1,1.8c-0.9,0.5-1.5,1.5-1.4,2.5c-0.4,0-0.8,0.1-1.2,0.4c-1.1,0-1.6-2.6-3-1.3
		c-1,1.6-3.6,5.6-2.3,7.4l1.4,0c0.1,0.6,0.4,2-0.7,1.7c-1.4-0.9-2.4,1-3.2-0.8c-4.4-1.6-5.5,2.9-5.2,6.3c0.4,0.5,0.6,1.5,1,2
		c1.7-0.5,3.1,1,1.7,2.4c-1.1,0.2-1.2-0.8-2-1c-1.1,1.4-3.6,0.6-5,1.6c-0.6,0.1-1.6,0.1-1.8,0.9c-0.2-1.8-0.7-1.3-1.9-2
		c-1.2,0.5-2.5,0.8-3.9,0.9c-3.7,2.1-1.3-2.3,0.3-3.3c4.3-1.1,6.8-5.2,10.2-7.6c0.1-0.5,0.4-1.6,0.9-1.7l-0.4-0.7
		c-1.8,0.7-3.6-0.4-5.1-1.2c-0.8,2.8-2.8,1.4-4.6,0.4c0.7-1.6,3.3-2.4,3.5-4.2c0.3-2-1.7-2-2-3.6c0.3-1.5-4.4-1.1-4.9-2.9
		c-2.1-1.6-6.6,1-5.4,5.9c1,3.7,1.3,4.1-0.4,7.5c-0.3,4.3,4.2,0.9,0.4,5.2c-0.7-0.5-4.5,2.2-5.2,2.4c-0.3-0.5-1.8-3.8-5.4-2.2
		c0-2.5-6.6-3.6-8.3-4l-10.6-6.7l-1-9c-2.3-2.3-3.5-5.6-3.1-8.8c-8.4-3.3-6.2-14.4-5.2-21.2c-3.9,0-5.4-4-4.3-7.3
		c-3.8,1.1-2.9-6-1.9-8.6c8.2-6.7,11.2-7.4,0.2-13.6c0.3-3.2-0.9-8.5-3.1-11c1.9-2.5-3.4-5,0.1-7.5c-0.3-0.6-0.8-1.1-1.2-1.5l0,0
		c0.2-2.2,3.3-0.2,4.4-2.3c2.1-4.7-0.2-9.1-2.3-13.2c-1.4-4.5,0.8-5,4-7.2c4.8-0.2,8.1,1.8,9.9-4.2c-1.9-11.7,0.2-3,3-8.5l-4-7.2
		c0.4-4.3-0.1-10.4,4.7-12.7c0.1-1.2,0-3.9,1.6-4.2c1.6,10.2,1.8,3.5,9.7,5.8c2.6-2.7,5.1-6.7,4.6-10.7c2.9-1.1,4.1-3.3,4.4-6.2
		c1.2,1.1,2.9,0.2,3.9-0.7c0.3-1.8,2.1-4.9-0.6-5.6c4.8-3.3,5.9-4.5,11.5-1.5c6-5.9,3,0.5,11.8-0.1c1.8-1.8,3.6,0.5,5,1.6
		c8.1,0.2,6.1-0.6,5.9-7.5c8.1-16-8-5.9,1.1-20.8c1.4,1.3,4.3,0.1,5.8-0.5c0.5-2.4,2.7-3.8,4.9-4.4c1.5,3.5,6.7,8,10,9.6
		c1.3,3.8,6.4,8.3,10,10c2.5,3.1-0.5,5.3-2.1,7.7c-2.3,1.2-4.4,2.7-6.5,0.3l-4.2,4.8c-6,1.3-3.9,3.5-0.1,6c-2.2,2.6-4.5,3.3-1.5,6.7
		c7.3,2.7,8.6,3.3,15.2-1.3c8.6,7.6,5.6-1.1,9.6,3.7c0.8-2.2,0.9-3.7,3.7-3c0.9-2.1,2.5-0.6,4,0c1.6-3.6,2.2-1.5,4.1,0.3
		c8.4,3.1,8.8,6,5.8,14.2c-2.7,10.8,6.9,9.2-4,19.6c-3.4-0.4-3.3,0.1-3.5,3.3c3.5,1.5,2.6,4.3,2.4,7.3c2.9-0.1,9.1,5.4,6.8,8.6
		c-18.8-5.4-36.1-4.5-7.5,8.1c-0.1,1.1,12.2,1.7,14.8-0.1c2.2-1.4,10.7-1.9,5.9,2.7c0.8,3.3,2.1,4.8,4.3,5.4
		C317.8,532.7,321.1,539.5,321.1,541.7z"/>
	<path class="st1" d="M339.7,508.8c-0.4,1.3-4.6,4.8-4.5,2.3c-2.4-0.5,1.5-0.6,0.2-1.8c-1.1,1.9-3.4-1.2-5.3-1.2
		c3.4-2.5-0.7-1.4,0.5-5c2-0.1,1.4-0.7,0.3-2.4c-4.7,1.5,1-3.7-1.4-4.6c2.5-2-8.2,1.3-6.2,0.2c-7.6,3.9-1.1,7.8-0.7,14.5
		c-0.1-2.4,5.8,1.4,5.3,8.7c-0.3,3.9-0.2,4.8-5.1,6.2c-7-1.6-7.2-4.5-7.5-5.6c-0.7-2.9,2.1-7.1,3.7-7.8c1.6-1.2-5.2-6.3-6.7-2.6
		c-1.4,0.1-4,12.2-3.1,11.5c5.7,6.7-5.5,0.6-9.7,0.6c2.3-3.2-3.8-8.7-6.8-8.6c0.2-3,1.1-5.8-2.4-7.3c0.2-3.2,0-3.7,3.5-3.3
		c10.9-10.5,1.3-8.8,4-19.6c3-8.2,2.6-11-5.8-14.2c9-0.3,10.5,7.5,13.1-3.9c8.4,0,9.8,8.4,19.9,0.5c6.6,0.1,8,4.4,11.1,9.1
		c8.4-2.4,8.9,4.5,13.9,7.3c-10.5,7.6,1.7,2.8-2.6,10.7c5,4-0.2,9.1,2.7,13.4c-3.2,0.3-5.1-1.8-8.2-1.4
		C345.5,506,341.9,508,339.7,508.8z"/>
	<path class="st2" d="M471.6,131.8c2.4,10.1-2.1,5.7-3.1,14.4"/>
	<path class="st2" d="M468.6,146.2c-3.6,1.7-4.5,3.6-4.9,7.5c2.5,3.7,6.6,2.9,7.9,6.9c-11.8-3.8-4-1.8-11.1,0.6
		c0.4,2.3,0.7,10.1,3.3,11.3c-8.3,0.7-3.7,3.2-9.9,4.2c0.3,1.1,2.1,3.3,0.1,3.7"/>
	<path class="st2" d="M453.9,180.3c-1.9-1-5.5-3.1-5.7-5.5c-1.5-0.3-14,0.6-14.4-1.8c2.1-1.7,0.4-4.4-0.4-6.2l-2.5-0.3"/>
	<path class="st2" d="M180.5,174.3c6.3,2.7,5.7-1.9,9.1,2c4.3-5,6.4-1.2,9.1,2.6l7.3,5.1c2.8-2.3,5.4-5.8,5.4-9.6
		c-1.3-0.7-2.6-0.9-1.4-2.6c4.3-1.1,7.3,4.1,13.5,3.1c0.3,6.2,4.4,0.5,3.2,6"/>
	<path class="st2" d="M226.7,181c1.6,0.9,2.1,1.2,2.8-0.7c2.7-2.4,2.9,6.1,3.7,7c2.9-1.5,8.6-1.9,10.9,0.8"/>
	<path class="st2" d="M431,166.6c-2.4,0.9-0.9,5-0.7,6.8c-1.1,1.5-1.8,0.3-2.8-0.5c-2.9,1.6-5.6,7.7-6.7,10.6
		c-2.6,0.2-4.9,4.6-5.9,6.6c-2.7,0.7-6,2.1-6.8,5.2c-3.3-0.9-10.7-2.8-12.2,1.7c1.3,1.6,0.7,6.1,0.5,7.9"/>
	<path class="st2" d="M396.4,204.9c-6.5,2.8-10.4-0.1-7.1,8.8c-1.8,2.7-4.7,8.4-5,11.7c-1.4,0.6-4,2.2-4.1,4"/>
	<path class="st2" d="M244.1,188.1c-1.5,1.9-1.9,3.5-0.6,5.6l-3.7,1c0.1,1.2,0.4,3.2,1.6,3.8l8.5-0.7c0.7,4.9,10.7,13.7,11.8,18.4
		c-2.1,4.7-3.1,7.6-8.8,8.7c0.7,2.1,2.7,6.5,4.8,7.6"/>
	<path class="st2" d="M257.7,232.4c6,6.1,7.3,2.3,13.6-0.3l14-0.7"/>
	<path class="st2" d="M435.9,247.9c-1.4-5,6.8-5.8,10-6.6c0.8,1.2,1.2,5.2,3.5,3.9c1,1.7,2.2,5.1,4.9,4.1"/>
	<path class="st2" d="M454.3,249.3c2.3-0.4,6.2-1.9,7.6-3.9c1.2,1.3,4.1,6.3,6.3,5.8c1-2.5,2-3.6,4.8-3.4c1.4-2.8,1.7-6.1,5.8-5.3
		c0.4,4.6,4-0.4,5.8-1c1-2.3,2-3.3,4.6-2.9"/>
	<path class="st2" d="M489.2,238.4c17.9-9.7,19.5,26.5,39.7,7.1c7.7,2.3,4.5-5.6,13,2.3"/>
	<path class="st2" d="M285.4,231.5c0.1,6.5,0.2,15.1,8.7,14.9c2.3-1.4,7.3-1.2,9.8-0.7l2.8,6.1c4.2,1.7,4,2.2,2.9,6.4
		c3.8-0.9,3.5,3.4,4.5,5.8c5.3,0.6,1.3,4.8,5.2,4.8"/>
	<path class="st2" d="M435.9,247.9c1.6,4.3-5.1,1-7,3.4c-0.9,2.5-0.8,5.6,1,7.7c-6.6-4.1-9.9,0.9-14.6,4.8c-4.1,0-3.6-0.8-3.5-4.4
		c-1.7-4.3-2.5-5.1-7.1-5.4c-0.4,3.3-0.4,3.5-3.7,2.7c1.7,11.7,6.3,1.5,2.9,11.2c7.6,3.5,8.4,4.5,2.4,11c-5-5-4.9-3.6-9.8,0.3
		c-0.8,2.4-1.6,2.9-4.2,2.7"/>
	<path class="st2" d="M380.2,229.3c6.5,5.7,0.9,3.9,1.7,13.8c3.8,1.6,1.4,3.5,4.6,3.7l-2.3,8.5c-5,2.1-9.8,9.6-6,14.5l6.6,0.4
		c0.6,2,6.2,3.7,7.9,4.5c1.1,3.1-3.2,2.4-0.5,7"/>
	<path class="st2" d="M392.3,281.7c0.3,3,2.4,5.2-2.3,4.6"/>
	<path class="st2" d="M319.3,268.7c4.9,0.4,12.2,2,16-2.3l3,1.7c1.2-2.1,8.3-5,10.4-5.9c1.7,7.1,11.1,5.8,16.6,5.4
		c-0.6,2.1-1.5,4.1-2.7,6c3.1,1.6,5.6,0.2,8.1-1.6c5,5.7,17.4,5.6,19.3,14.1"/>
	<path class="st2" d="M390,286.2c-4.8,1.4-4.3,2.2-4.2,6.8c-4.7,0.4-4.9,6.5-5.7,10.1l3.4,7.6c-11.3,0.8-4.6,3.4-10.9,8.6"/>
	<path class="st2" d="M93.3,314.6c6.5,5.6,11-0.2,13.1,9.7c5.1-3.7,6-4.6,12.1-2c3-3.6,5.1,2.4,6.3-4.3l2.7,1.8"/>
	<path class="st2" d="M127.5,319.8c0.3,3.4-1.7,8.3,3.1,9.1"/>
	<path class="st2" d="M372.5,319.3c-2,1.3-0.6,6.3-0.3,8.1c-0.7,3.5-0.4,6.9-5.1,5.9c0.1,1.7,1.1,4.5-1.4,4.9
		c-0.1-4.7-3.3-10.2-6.9-3.9"/>
	<path class="st2" d="M358.9,334.3c-1.4-0.5-6.2-0.5-5.9-2.8l-5,0.6c-1.5-1.1-2.8-4.1-4.5-1.6c-4.6-1-0.6,2-7.6,4.5
		c-1.8-0.7-4.5-0.7-6,0.7c-3.2-0.5-0.7-3-3.3-3.9l-10.8,3l0.1,4.6c-4.9,3.4-2.8-2.2-10.2-0.3"/>
	<path class="st2" d="M130.7,328.9c0.9,1.9,6.3,3.8,8.1,4.6c2.3,4.9,0.6,8.3,7.4,5.4l-2,5.3c3.9,3.3,5.4,5.5,10.8,3.4
		c2.7-3.3,5.4-9,10.6-8"/>
	<path class="st2" d="M417.2,359c3-0.5,7.8-2.7,9.6-5.3c-1.1,2.6,2.2,2.1,3.7,2.6l2.7-1.3l13.1-2"/>
	<path class="st2" d="M305.7,339.2c2.1,2,0.9,8.5,0.5,11l-3.1,3.2c0.1,2.6,0.9,3.6,3.5,4.3c-0.4,5.1-7.6,2.1-9.8,5.5"/>
	<path class="st2" d="M376.4,366.5c1.7-3.8,10.8-4.5,12.9-7.9c3.3,2.5,7.4,3.8,11.5,3.4c12.6-0.7,9.5-8.1,16.4-3"/>
	<path class="st2" d="M358.9,334.3c3.6,9.3-1.6,0.2-3.1,11.9c4.9-0.8,6.1,7.3,6.4,10.8c5.1-0.5,9.5,8.2,14.2,9.4"/>
	<path class="st2" d="M296.8,363.1c2.5,5.8,4,2.4,7.9,7.9"/>
	<path class="st2" d="M201.7,374.1l2.7-5.8c2.9-2.5,11.3-7.4,1.4-7c2.5-10,12.8-4.4,13.9-13c3.8-0.2,2.9,2.6,3.3,5.2
		c3.8,1.8,3,8.3,1.7,11.6c12-0.7,1.9-6.6,15-9.2"/>
	<path class="st2" d="M196.1,378.1c3.9,0.4,4.4-0.5,5.6-4"/>
	<path class="st2" d="M165.6,339.6c2,3.3,6.3-1.7,10.8,0.1c0.4,2.8,2.5,7.6,4.6,9.7c0.2,2.2,1.9,6.5-1.3,7.4
		c1.7,1.1,3.5,2.3,2.6,4.6c1.8,1,2.8,2.1,2.3,4.3c7.3,0.1,7.4,2.2,10.9,7.9c-0.1,1.1-0.8,4.2,0.8,4.6"/>
	<path class="st2" d="M304.7,371c0.7,0.2,6-2.8,5.8-0.7c-0.1,4.3-1.2,6.6-4.9,9"/>
	<path class="st2" d="M239.7,355.8c12.2,1.6,12.3,14.5,16.8,7.7c7-0.3,7.4,11.6,14.4,10.2c0,3.6-2.2,3.6-5,4.4
		c-2.1,1-1.7,4.8-1.5,6.6l3.2,0.8"/>
	<path class="st2" d="M446.3,353l7.9-0.5c2.6,1.4,2.6,3.1-0.2,4.2c4.2,4.3-2.8,11.1,2.8,14.4c-0.3,2.3,1.7,6,3,7.7l6.2-1.8
		c1.8,5.3,2.8,6.9-1.5,11.3"/>
	<path class="st2" d="M305.6,379.3c-7.8,4.2-19.5,11.2-28,5l0.6,4.9c-3.7-2.8-5.6-6.5-10.8-3.6"/>
	<path class="st2" d="M376.4,366.5c0.6,9-2.9,9.8-8.9,14.9c0.3,3.7-0.3,10.7-2.6,13.8"/>
	<path class="st2" d="M267.5,385.5c1.3,3.2-1.3,6-3.2,8.1c0.9,1.1,1.1,2.7,0.4,3.9"/>
	<path class="st2" d="M365,395.1c4.7,3.9,9.8,9,8.3,17"/>
	<path class="st2" d="M373.2,412.1c1.2,1.3,4.7,1.3,6.3,1.3"/>
	<path class="st2" d="M264.7,397.6c-1.8,1.7,0.2,3.5,1.2,5c-2.1,0.8-2,5-2.1,6.8c-1.8,0.9-12.4,2.8-12.1,6c6.5,5,2,4.5-1.8,8.6"/>
	<path class="st2" d="M421.1,419.5c-7.2,5.2-16.9,4.7-23.8,11.2"/>
	<path class="st2" d="M379.5,413.4c-0.8-3,10.1-0.7,11.4,0.1c-4,5.5,1.1,3.6,4.6,3.2c2.6,4.2-5.4,14.6,1.9,14"/>
	<path class="st2" d="M249.9,424c-2.2,0.6-4.4,2-4.9,4.4c-1.5,0.7-4.4,1.9-5.8,0.5c-9.1,15,7,4.8-1.1,20.8c0.2,6.9,2.2,7.7-5.9,7.5
		c-1.4-1.1-3.1-3.5-5-1.6c-8.8,0.6-5.8-5.9-11.8,0.1"/>
	<path class="st2" d="M215.3,455.6c-5.6-3.1-6.6-1.8-11.5,1.5c2.8,0.7,0.9,3.8,0.6,5.6c-1.1,0.8-2.7,1.7-3.9,0.7"/>
	<path class="st2" d="M249.9,424c1.5,3.5,6.6,8,10,9.6c1.3,3.8,6.4,8.3,10,10c2.5,3.1-0.5,5.3-2.1,7.7c-2.3,1.2-4.4,2.7-6.5,0.3
		l-4.2,4.7c-6,1.3-3.9,3.5-0.1,6c-2.2,2.6-4.5,3.3-1.5,6.7"/>
	<path class="st2" d="M255.4,469c7.3,2.7,8.5,3.3,15.2-1.3c8.6,7.6,5.6-1.1,9.6,3.7c0.8-2.2,0.9-3.7,3.7-3c0.9-2.1,2.5-0.6,4,0
		c1.6-3.6,2.2-1.5,4.1,0.3"/>
	<path class="st2" d="M292,468.8c9-0.3,10.5,7.5,13.1-3.9c8.4,0,9.8,8.4,19.9,0.5"/>
	<path class="st2" d="M200.6,463.3c-0.4,3-1.6,5.1-4.4,6.2c0.6,4-2,8-4.6,10.7c-7.9-2.3-8.1,4.5-9.7-5.8"/>
	<path class="st2" d="M292,468.8c8.4,3.1,8.8,6,5.8,14.2"/>
	<path class="st2" d="M297.9,482.9c-2.7,10.8,6.9,9.2-4,19.6c-3.4-0.4-3.3,0.1-3.5,3.3"/>
	<path class="st2" d="M325.1,465.4c6.6,0.1,8,4.4,11.1,9.1c8.4-2.4,8.9,4.5,13.9,7.3c-10.5,7.6,1.7,2.8-2.6,10.7
		c5,4-0.2,9.1,2.7,13.4"/>
	<path class="st2" d="M181.9,474.5c-1.6,0.3-1.5,3-1.6,4.2c-4.8,2.3-4.3,8.4-4.7,12.7l4,7.2c-2.8,5.6-4.9-3.2-3,8.5"/>
	<path class="st2" d="M290.4,505.9c3.5,1.5,2.6,4.3,2.4,7.3c2.9-0.1,9.1,5.4,6.8,8.6"/>
	<path class="st2" d="M176.5,507.1c-1.8,6-5.1,4-9.9,4.2c-3.2,2.2-5.4,2.7-4,7.2c2.1,4,4.4,8.5,2.3,13.2c-1.1,2.1-4.1,0.2-4.4,2.3"
		/>
	<path class="st2" d="M361.5,18.7c0.3,3,5.8,5.5,8,6.7c2.2-10.2-0.2-0.9,11.5-6.7l4,4.6c3.4-1,10.5-3.2,11.9-6.9
		c6.9-0.2,1,3.7,9.8,7.8c9.1,1,1.8,6-0.9,9.6l4,0.5c0.9,1.8,1.2,4.9,0.1,6.7c-3.3,1.2-8.4,5.2-10.5,8c3.8,4.6-1.2,10.4,4.1,14.2
		c1.6,0.6,7.1,2.2,7.8,4c2.2,3.1,3.4,6.7,3.3,10.5c1.3,3.6,4.5,14.8,8.3,16.8c-6.4,0.8-0.5,6.1,0.7,8.8c0.6,6.4,3.2,14.7-5.5,16.4
		c3.3-0.3,4.7,5,5.7,7.2c1,1.7,5.4,1.1,7,1.1l0.2-2.5c3,0.8,5-0.3,7-2.4c11.1,8.2,13.6-0.9,15.8,3.1c0.1,0.9-1.8,4.9,0,5.1
		c4.3,0.4,12.4,2.9,17.1,0.6c1.5-0.7,2.7-2.1,3.1-3.7c13-5.3,2.1-3.1,12-10.2c4.7-0.8,5.6-1,8.1,3.4l3.7-2.4
		c0.9-3.3,5.1-13.7,3.6-17.2c2.9,0.3,6.4,3.7,6.4-1.4c0.8-2,11-0.3,12.5-0.4l1.2,5c-5.8,3.1-0.8,6.5,2.7,8.6
		c-0.4,3.8-1.5,4.9,3.3,4.9"/>
	<path class="st2" d="M527.7,118.5c1.9,1.8,2,7.4,2,9.7l-2.8,3.4c1.2,1.9,4,4.9,6.3,5.4c0.7,1,2.1,2.8,0.9,4l5.6,5.1
		c-6.1,2.9,5.1,3,6.9,3.2c0.1-1,0.2-2.6,1.6-2.7c5.7,4.4,5.2-0.2,12.4,0.6"/>
	<path class="st2" d="M560.5,147c2.7-17.6,13.9,3.4,22-10.5c3.2-3.1,15.5-6.1,20.1-4.6c2.4,7.9,6.3,1.4,11.8,4.6
		c-1.2,5.7,6.8,13.8,10,17.6c-4.8,2.4-1.4,9.2,1.7,12.1"/>
	<path class="st2" d="M361.5,18.7c-4.4,0.5-11.3,5.5-14.4,8.4c-1.1,1.2,2.1,3.4,2.6,4.1c5.8,0.6,4.3,1.1,2.5,5.6
		c1.1,2.1,0.1,4.9-1.1,6.7c-0.6,1.5-3.7,0.6-4.9,0.5c-3.7,0.3-10.8,2.7-14.2,4.3l-10.5,1.1l-0.4,4c-4.8,1.8-4,3.7-3.8,8.1
		c-17.5-8-10.7,2.6-19.9-1.1c-2.8,1.3-8.3,5.5-11.3,3.2c-5.5,3.5-10.1,6-9.8,13.2l-5.5,5.6c-1.9-0.4-4.3-1.1-4.5-3.4
		c-2.6,1.7-11.2-4.4-13.4-5.4c-0.8-1.9-2.4-9.7-5.4-9.5c-0.1-2.8-3.1-5-5.4-6l-4.9,6.3c-4.5,0.1-6.9,1.7-9.4,5.3
		c-3,0.5-7.7,3-9.4,5.7l-2.2-5.7c-3.3,2.5-8.2,4.5-3.3,8.7v7.8c-2.3,0.7-5.1,4.5-6.2,6.5c-3.3,1.4-7.6,0.3-6.5,5.4
		c-3.1,0-11.9-2.5-13.5,1.4c1.5,2.3,1.4,4-0.2,6.2l-5.5-5.9c-3.9,0.8-5.2,2.5-6.5,6.1c6,6.3-0.8,6.5,2.9,9.6c6.3,3,4.7-5.3,8.6,1.2
		c0.5,1.9,3,7.2,1.4,9c1.4,5,5.7,7.6-0.4,11.3c0.5,4.2-1.9,7.9,4,8.7c0.5,4.9,5.9,1.2,4.4,6.5c-1.3,3.5-6.4,7.6-9.6,9.2
		c-2.5,3.6-8.2,7.6-5.4,12.8c-4.3,1.8-13.6,6.7-15.3,11.4c-1.9-4.4-8.5,0.2-11.2,1.3l-4.4-1.2c-2,0.7-7.8,1.8-8,4.5
		c-5.6-1.8-8.3-0.1-12.9,2.9l-7.5,9.6c-4.3,2.9-7,5.9-7.7,11.2l2,4.9c-1.6,2.6-7.9,7.5-5.1,10.8c7.5,5.9,6.8,5.4,4.4,14.3
		c-4.2,1.6,2.2,4.1,3.1,5.7l2.8,6.1c8.9,0.2,3.6,3.8,0.6,7.7l0.9,3.7c-4.3,12.7-8.5-9.6-14.9,4.3c-3.7,1.5-8,7.2-9.7,10.7
		c-2.2,1-4.1,4-4.5,6.3l2.6,3.2c-2.4,4.8-1.5,4.3,2.6,6.5l5.1-1.5c0.3,1.5,4.3,7,2.7,8.5c-3.5,1.9-10.4,6.2-12.8,9.3
		c-7.6,8.1,0.9,9.8-6.5,10.4c-3.8,4.1-10.7,8.9-16.5,7c-2.6,0-9.1,5-11.1,6.4l0.1,3.3c2.5,2.4,7.8,6.8,5.4,10.8
		c-1.6-1.1-4.1-2.2-6-1.1c-4.2,14.1-5.3,3.5-9.3,9.5c3.8,9.7-0.5,3.6-1.7,10.5c1.9,0.6,2.2,3.7,2.3,5.3c-0.1,1.6-1.5,2.5-3,2.7
		c-0.7,3-3.1,9.5-5.8,11.3c1.1,0.6,4.3,2.8,3.7,4.4c-1.7,1.2-3.1,2-2,4.6c-3.1,2.1-0.9,6.9,0.9,9.3c-2.4,1.9-9.9,8.3-11.1,11.2
		c-5,2.3-10.2,0.4-9.6,8.2c0.4,1.8,2.1,4.1,3.9,4.7l-1.6,2.5c0.7,1.8,2.5,4.7,4.8,4.9l2.9,4.1l-7.6,4.2l0.4,2.6l3.7,2l-1,2.2l-2.6-1
		c-0.9,0.2-1.2,1.9-1.3,2.7c1.3,0.5,2.5,1.4,2,2.9"/>
	<path class="st2" d="M626.1,166.2c7.8-0.1-3.9,5.1-7.5,4.2c8.5,3.8,3.2,0.5-1.7,3.6c6.1-1.3-3.1,3.6,4,2c-4,3.2-16.7,1.8-14.6,2.2
		c-0.8,1.3-2.9,5-2.4,7.1c0.3,2.7-0.1,4.1-2.3,5.5"/>
	<path class="st2" d="M610.4,196.6c-0.6-1.6-3.5-0.1-4.2,0.6C607.1,198.2,612.1,198.1,610.4,196.6z"/>
	<path class="st2" d="M611.3,195.5c1.6,3.2,7.1,3.3,9.1,1.4C617,195.4,613.5,187.5,611.3,195.5z"/>
	<path class="st2" d="M601.8,190.8c-2.8,2.1-15.2-1.4-7.4,2.6c-0.4,3.8,12.2-6.6,4.2,6.9c0.1-2.2-15-2.6-15.4-0.9
		c2.1,3.4,0.3,4.4-2.4,5.5c-1.6-2.4-6.6-0.4-8,0.2c-4.2,8.7,6.6,4.3,7.7,9.1c1,2.3,4.6,1.1,6.2,0.6c-12.4,13.1,4.2,5.4-0.6,9.5
		c8.6-0.8-3.3,2.7-4.7,4.6c5.4,3.6-1.4,7.2,5.1,5.5c-10.2,10-2.8,8.4-5.8,12.1c-5.5,4.6-11.5,6-17.9,5.9c-0.5,2.5-2.4-3.7-5.2-4.4
		c-3.2,0.6-2.3,4.3-5.4,4.7c-1.5-0.4-3.1-0.7-4.7-0.7c-1.5-0.4-4.2-6.8-5.7-4.1"/>
	<path class="st2" d="M541.9,247.8c-2.1-1.7-3.5-1.6-5.3,1.1c2.7-1.2,2.3,2.4,4.2,1.7c-0.1,0.6-1.8,0.9-2,1.6c4-0.3,4.6,1.6,0.9,2.7
		c1.8-0.1,6.9,4.3,5.2,5.9c2.2,0.5-0.7,2.1-3.3,3.5c-1.8,1-3.5,1.9-3.3,2.1c-2.2,0.3-1.3-4.6,0.4-3.6c0.9-4-4.9-2.3-6.4-1.5
		c-0.8-1.2-1.9-2.1-3.2-2.7c0,1.9-4.8-0.8-2.1-2c-2.8-0.6-2.6-1.5-4.7-3.3c-1,3.6-3.7,1.9-1.2,3.2c-6,5.6-3.4-1.9-8.4,0.4
		c-2.5-0.7-0.5,1.2-0.9,3.3c0.7,1.9,1.9,5.2,2.9,1.7c4,2.1,4,2.2,7-0.9"/>
	<path class="st2" d="M520.5,297.5c-6.6,0.8,4.8,8.5,4.8,3.3c0.5-1.9,1.3-1.5-1.5-1.5C522.3,299.4,521.7,296.5,520.5,297.5z"/>
	<path class="st2" d="M508.6,308.9c4.5-9.5,11.5-4.4,14.4,2.1C519.3,313.4,510.1,309.7,508.6,308.9z"/>
	<path class="st2" d="M521.8,261.2c2.2,0.9,3.7,10,0.2,11.1c0,0.9,3.4,0.6,3.1,2.9c0.8-0.7,6.5-0.7,3.5,0.2c-8.7,8,13.8,1.5,7.1-0.7
		c0.1-0.1,1.2-2.4-0.2-2c2.5-3.4,10.5-7.1,8.8-8.2c1.5-0.5,4.4-1,2.4,1.3c4,1.6,2.7,1.3,1.4,3.8c10.3,0.8-6.2,6.8,9.7,3.9
		c8.6-5.6,3.6,0.8-1.1,2.8c-2.7,1.1,0.6,2.9-2.9,2.5c0-1.8-2.1,0.3-3.2,0.5c0.8-2.6-1.8-1.3-2.8-3.4c-1.2,2.9-5.5,0.7-7,4.6
		c0.5,1.5,4.3,0.1,2.9,2.1c-3.9,4.9-5.9-1.7-5.9-1.7c-4.9,4.7-13.7,0.6-21,7c6.5-2.1,3.6-0.8,8.7,1.3c-4,1.4,0,4.3-5.2,4.4
		c-0.8,2.4-1.3,1.3-2,2.4c-5.3,0.4,1,6.1-3.7,5.9c-2.9-0.2-12.5,6.7-9.2,8.9c1.6,0.8,18.1,10.9,22.7,5.4c4.4,1.3,3.1,7.9,0.8,9.8
		c-2.9,1.1,0.1,8.4-4.5,6.3c-5.8-4.5-5.5,5.8-8.8,8c-1.5-3.4-2.6,1.8-1.2,3.1c5.7,1,1.6,7.5,5.4,9.1c-2.1,1.1-3.4,4.2-4.3,5.7
		c1.8,1.5-0.8,3.1-2.7,2.6"/>
	<path class="st2" d="M531.2,364.1c-7.4,5.2-4.5-0.5-7.3,2.8c-0.1,2,3.4,1.9,5.1,0.7C533,369.3,530.2,366,531.2,364.1z"/>
	<path class="st2" d="M537.9,367.9c-0.8,5.3,15.3,1.8,6.5,8.2c2.3,0.5,8.6,0.7,8.6,2.4c-3.7,2.7-2,3.8-4.8,0.8
		c-3.5-1.7-8.5,7-3.2,8.5c0.5-1.1,4.1-1.8,3.3,0.4c3.3-3.4,1.7,5-1,4c0.8-4.3-4.7,0.5-6.5-0.2c-4.6,3.2-7.1,4.3-1,6.2
		c-2,1-10.1,0.9-10.1-6.3c-0.6,0.9-1.8-3.8,1.3-0.9c1.7-0.5-1.3-3.2,2.3-2.4c0.1-1.9-4-1-4.4-0.1c-1-2.4-2.6,2.7-3.4,1.3
		c0.4-5.1,3.7-3.5,2.6-5c3-1.6,1.9,1.6,3.5-0.5c0.7-0.6,2.9,2,2.9,0.2c-5.1-2.2,1.2-7.9-1.3-10.9c-1.9,0.9-6.5,4.4-5.1,0.5
		c-1.7,0.5-1.4-1.3,0.1-1.4c-0.8-1.9,3-1.7,4.4-4.4c0.3-1.8,1.9-1.3,2,0.5C534.5,364.9,545.6,361.4,537.9,367.9z"/>
	<path class="st2" d="M513.2,377.2c-0.3,3-4.4,10.1,2.2,7.6c4.5-0.9-6.2,5.3,2.5,2.3c1.8,0.2,2.6,4.5,3.4,1.9c0.9,4-2.6,3.4-3.9,5.5
		c2.7,1.6,5.7-1.4,5.7,3.6c-1.2,0.9,1.6,4.1-1.6,8.5c-2-0.7-4.3-0.5-6.1,0.7c-0.5-1.2-2-2.7,0.1-1.3c4-6.2-6.3-4.9-6.8-4.1
		c-6.5-1.7-3.3,0.9-7.8,1.2c3-2.6,5.6-9,0.7-9c-0.1-1.9-2.7-1.6-7.4,0c1.3-1.1,3.1-3.7,0.7-4.6c9.2-9-5.5-3.4-10.5-8.2
		c-1.3-1.7-1.4-3.4-4.8,10.1c6.1,6.4-1.2-1-3,5c-3.8-8.8,4-19.3,2.6-20.4c-0.9,0.5-3.7-0.6-5.5,1.5c1.9,5.9-3.7,8.9-8.9,11.3
		c-2.8,1.3-5.5,2.4-7,3.6"/>
	<path class="st2" d="M513.2,377.2c0.8-0.2,0.9-0.6-0.3-1.1C513.2,376.3,513.2,376.7,513.2,377.2z"/>
	<path class="st2" d="M512.9,360.6c-2.2,1.4-4.2-3.9-5.4-1.6c-2.9,1.6-15.8,6.2-11.6,8.3c6.5-3.5-1.6,7.1,4.9,1.3
		c-0.8,20.6,10.7,0.6,7.9,7.8c1.4,0.8,3,1.1,4.5,0.9"/>
	<path class="st2" d="M498.6,417.7c1.9,1.1,0,1.6,0.8,2.2c0.9,0.5,3.2,4.5,8.4,3.8c-0.4-0.5,6.2-0.8,3.6,1c2.1,2.6-4.2-0.4-3.2,2.8
		c2.3,4.5-3.2,2-4.6,1.4c-1.8-3.8,5.6-0.6,0-3.5c-6.1-4.8,0.5,5.7-4.7,0.4C490.8,423.5,497,420.7,498.6,417.7z"/>
	<path class="st2" d="M457.7,392.4c-6.8,4.6-1.8,12.8,0.6,7.8c1.1,1.4-0.8,3.1,0.2,4.7c3.9-1.5,0.8,2.9,4.2,1.6
		c3.9-6.9,1.5,1.7,4.4,4c-0.7,0.9-9.1,0.1-4.2,3.3c0.1,3.2,5.1,4.7,4.1,0c3.5-0.6,3.3-2.7,2.6-5.7c3.6,4.5,7-1.9,6.7,3.3
		c4.3,1.6,4.2,4.9,9.2,4.5c1.1,0.2-1,1.4-1,1.6c1.1,2.4,0,0-1,1.1c-4,1.9-5.7,0.6-9.3,1.1c0.1,0.5-0.6,0.7-0.9,0.8
		c3.3-0.3,0.5,5,3.8,4.8c-4.3,4.2-3.6,3-8.8,1.1c-1.1,0.3-9.1,4.3-9.7-1.5c-5.4-2.5,4-2.9-1.2-5.1c-0.1-7.2-7.1,1.1-4,1.8
		c0.6,0.8-3.5,1.3-1.6,2.4c-1.5,2.3-5.1,1.1-2.5,4.4c1.5,0.9,9.9,4.3,8.3,4.9c0.8,1.4-7.1,4.9-7.6,1.9L447,434
		c1.1-0.2,2.6-4.2,0.3-3.2c-5.3-0.8-3.7,3.1-2.5,5.6c-8.5-4.4-15.1-2.8-11.6-0.9"/>
	<path class="st2" d="M457,438.5c-8.9,3.5-3.3,1.9-5.1,7.3c-4.4-1.1-0.2,0-0.5,1.3c2.4,3.6,1.8-1.7,4.3-2.1
		c-0.1-0.7-1.9-0.7-0.7-1.6C451.9,440,458.1,441.3,457,438.5z"/>
	<path class="st2" d="M421.1,419.5c2.7-0.4,6.1,0.1,6.5,2.3c2.8-0.1,0.2,13.3,5.6,13.8c-1.1,1.1-10.7,12.5-5.4,13
		c3.3-1.5-2.8,3.6,5.3,1.6c3.6,0.3,1-5.3,5-6c1.6-0.5-1.4,8-2.4,6.6c-4.1,2.1,2,6.8,4.5,5.9c-2.8,3.6-2.8-0.1-4.8,2.3
		c-0.8-0.1-6.7-2.6-8.4-2.5c-1.6,0-3.8,5.7-0.3,6.2c0.1,2.1,1.9,1.5,2.9,1.6c-0.6,4.6,6.3-2.9,4.6,2.1c2.4,1-8.5,0.6-10.4,0.4
		c1.5-2.4-7.4-3-2.8-2c-9.7,6.3-2.6-3.8-10.1,0.3c-3.7,3,1.2,2,1.6,2.8c-6,2.7-9.4,2.6-14.9,3.1c-1.9-9-7.1-0.1-9.8,2.1
		c1,1.2,1.5,2.5-0.6,2.8c3.1,0,6.6,7.8,8.5,1.6c5.4,2.8,2.4-2.3,5.5-1.4c-4.2,5.6,5.2,5,7.3,4.5c-0.2,2.7-2.1,3.4-2.8,6.1
		c-1.5,0.3-2.2-0.3-3.4,1.4c1.3,2.5-2.9,3-1.8,4.9c-6.5,5.3-4.6-3.5-8.3-0.2"/>
	<path class="st2" d="M313,524.6c-0.5,0.6,1.4,1.1,1.8,1.1C316.6,525.3,312.6,521.8,313,524.6z"/>
	<path class="st2" d="M287.3,524.6c0,0-6.2-2.1-6.9-2.9c2.1-0.8,5.6-2.1,7.9-0.8c0.8-0.3,4.1,0.4,4.6,0.5l1.4,1.8
		c-0.3,0.5-0.7,3.8-1.7,3.7C290.4,527.2,289.4,524.1,287.3,524.6z"/>
	<path class="st2" d="M323.4,496.3c-7.6,3.9-1.1,7.8-0.7,14.5c-0.1-2.4,5.8,1.4,5.3,8.6c-0.3,3.9-0.2,4.8-5.1,6.2
		c-7-1.6-7.2-4.5-7.5-5.6c-0.7-2.9,2.1-7.1,3.7-7.8c1.6-1.2-5.2-6.3-6.7-2.6c-1.4,0.1-4,12.2-3.1,11.5c5.7,6.7-5.5,0.6-9.7,0.6"/>
	<path class="st2" d="M364.6,500c-3.7,1.8-7.2,3.9-10.6,6.2c-0.1-2-2.6,0.1-3.8-0.2c-3.2,0.3-5.1-1.8-8.2-1.4
		c3.5,1.4-0.1,3.4-2.3,4.2c-0.4,1.3-4.6,4.8-4.5,2.3c-2.4-0.5,1.5-0.6,0.2-1.8c-1.1,1.9-3.4-1.2-5.3-1.2c3.4-2.5-0.7-1.4,0.5-5
		c2-0.1,1.4-0.7,0.3-2.4c-4.7,1.5,1-3.7-1.4-4.6c2.5-2-8.2,1.3-6.2,0.2l0.3-0.1"/>
	<path class="st2" d="M364.6,500c-0.2,0-0.4,0.1-0.6,0.1C365.5,499.5,365.6,499.5,364.6,500z"/>
	<path class="st2" d="M392.3,493c-3.5,2.8-1.6,4.7-0.7,8.3c0.8,1.4,2.2-1.2,2.9-1.3c-0.1,0.9,1.7,2.5,0.5,3.1
		c-0.7-0.8-1.6,1.6-0.7,2c-0.6,2.4-4.5,1.4-3.1,4.6c-3.5-1.8-1.6,0.8-3.1,1.4c0.2-0.6-2.2,1.1-2.8,2.7c-0.7-0.1-3-1-3.5,0
		c-1.4,3.6-2.1,0.6-0.7-1.1c0.4-1.4-4.9-8-4.7-9.8c-0.5-0.8-3.5,0.7-2.8-1.2c-3,0.9-3.5-2.7-9-1.6"/>
	<path class="st2" d="M299.5,521.8c-18.8-5.4-36.1-4.5-7.5,8.1c-0.1,1.1,12.2,1.7,14.8-0.1c2.2-1.4,10.7-1.9,5.9,2.7
		c0.8,3.3,2.1,4.8,4.3,5.4c0.8-5.2,4,1.7,4,3.8c3.6-0.8-0.5,4.5,2.5,4.3c0.3,0.5,0.4,1,0.3,1.5c-10.1,0.7-1,4.8-8.8,1.4
		c1,1.1-3.5,2.9-4.2,4.3c0,2-0.3,1.5-1.4,1c-1.7,3.4-4.4,6.2-7.6,8.2c-2.7-1.8,5.1-8-1.5-6c2.7-5.5-6.6,2.9-2.8,3.4
		c3.6,2.8-0.7,4.2-1.7,7.6c-5.4-1-2,10.3-4,12.2c-7.4-6.4-9.1,8.3-9.8,2.8c-3.5,2.2-2.5,5.4-6.1,7.4c-0.2,3.5-1,5.2-3.9,5.7
		c-2-0.1,0.1-3-2.2-4.1c4,0.7,10.3-9.2,7.7-10.3c2.5-4.8-11.9-1.4-12,1.2c-4.2,1.7,3.7,6.2,0.6,7.6c-15.6,7.5-3.8,21-14.2,30
		c-4-1.8,5.3-11.2,2.3-16.8c-0.8-7.3-14.9-10.5-13.7-2.2c-1.1,1.5-0.7,5.7-2.4,5.3c-1.5,1.7-1.3,4.5-4.2,5.2
		c-1.3,5.5-3.3,2.4-5.8,1.6"/>
	<path class="st2" d="M26.4,460.3c3.1,1.3,9.3,2.3,12.6,1.7c1.2,3.7,3.8,3.2,7,3.2c2.2,4.8,2.1,6,7.8,5.5l7,1.5
		c4.4-1.7,9.6-5.1,10.5,2.4l3.6,0.1c-7,6.9,4.6,3.2,7.6,3.1c0.9-1.5,2.8-3.9,4.8-3.7c0.6-4.8,1.2-5,5.8-5.7c0.4,1.7,1.9,3.8,3.7,4.4
		c-1.4,1.1-7.2,2.3-5.5,5.1c2.3-0.3,3.4,1.9,4.2,3.6c2.4,0.4,1.7,0.9,0.9,2.7c0.7,3.4,6.8,5.9,9.9,5.4c6.4,9.6-0.5,12.9,5.8,13.9
		c4.8-1.8,7.7-7.3,13.7-4.9c3.7-2.2,11.6-3.4,15.7-1.9c1.3-1.6,3.3-2.5,5.4-2.5c4.3,8.1,0,1-2.7,12.3c-5.6,4.8-0.8,6.8,2.2,11
		c3.4,0.5,7.8,2.2,8.4,6.1c-6.4,0.6,2.3,7.2,5.8,10.5c0.5,0.4,0.9,0.8,1.3,1.3c-3.4,2.5,1.8,5-0.1,7.5c2.2,2.5,3.5,7.7,3.1,11
		c11,6.2,8,6.9-0.2,13.6c-1,2.6-1.9,9.7,1.9,8.6c-1.1,3.3,0.4,7.3,4.3,7.3c-1,6.8-3.3,17.9,5.2,21.2c-0.4,3.3,0.8,6.5,3.1,8.8l1,9
		l10.6,6.7c1.6,0.4,8.3,1.5,8.3,4"/>
	<path class="st2" d="M228.1,613c0.6,1,2.6,1.8,3,3.2c-0.1,1.5,0.1,1.8,1.5,1.3c0.6,0.3,0.5-0.2,0.9-0.5c1.4-0.2,2.3,0.6,2.9-1.2
		c0.8,0.1,2.1,0.6,1.9-0.8c1.2-0.4,1.2,0,1.5,1c0.5,0.1,1.1,0.2,1.6,0c0.7,0.2,2.4,1.5,3.1,1.8c-0.9,0.5-1.5,1.5-1.4,2.5
		c-0.4,0-0.8,0.1-1.2,0.4c-1.1,0-1.6-2.6-3-1.3c-1,1.6-3.6,5.6-2.3,7.4l1.4,0c0.1,0.6,0.4,2-0.7,1.7c-1.4-0.9-2.4,1-3.2-0.8
		c-4.4-1.6-5.5,2.9-5.2,6.3c0.4,0.5,0.6,1.5,1,2c1.7-0.5,3.1,1,1.7,2.4c-1.1,0.2-1.2-0.8-2-1c-1.1,1.4-3.6,0.6-5,1.6
		c-0.6,0.1-1.6,0.1-1.8,0.9c-0.2-1.8-0.7-1.3-1.9-2c-1.2,0.5-2.5,0.8-3.9,0.9c-3.7,2.1-1.3-2.3,0.3-3.3c4.3-1.1,6.8-5.2,10.2-7.6
		c0.1-0.5,0.4-1.6,0.9-1.7l-0.4-0.7c-1.8,0.7-3.6-0.4-5.1-1.2c-0.8,2.8-2.8,1.4-4.6,0.4c0.7-1.6,3.3-2.4,3.5-4.2c0.3-2-1.7-2-2-3.6
		c0.3-1.5-4.4-1.1-4.9-2.9c-2.1-1.6-6.6,1-5.4,5.9c1,3.7,1.3,4.1-0.4,7.5c-0.3,4.3,4.2,0.9,0.4,5.2c-0.7-0.5-4.5,2.2-5.2,2.4
		c-0.3-0.5-1.8-3.8-5.4-2.2"/>
</g>
</svg>
