<svg id="图层_1" data-name="图层 1" xmlns="http://www.w3.org/2000/svg" viewBox="0 0 651.51 651.51"><defs><style>.cls-1{fill:#7a1c1e;}.cls-1,.cls-2,.cls-3{stroke:#545555;}.cls-2{fill:none;}.cls-3{fill:#1a1a1a;}</style></defs><title>福建</title><path class="cls-1" d="M380.17,493.57l-9-4.7s-9.69-8.08-10.33-17.78l-3.55-5.17-8.72-8.73s-1.29-1.61-2.26-1.62-6.47,1-6.47,1l-4.52,3.88-2.91,1-5.17.32-7.11.32-3.39-.19a8.52,8.52,0,0,1,3.7,3.51c3,5.71-3,12.09-3,12.09s3,8.05,1.67,10.74-4,7-4,7-1.68,2.35,3.69,5.37,4.69,12.73,4.68,12.92c.54,0,1.32.6,2.42,2.08,4,5.37,11.41,2.69,11.41,2.69s8.39,0,10.06,3.69,3.7,0,3.7,0,8.73-15.1,12.76-16.78,15.1-8,15.1-8l1.35-1.68V493.6Z"/><path class="cls-2" d="M271.18,424.54s22.56-37.29,9.32-51.84-24.87-15.2-29.72-8.42-8.08-4.85-8.08-4.85-10.34-3.56-12.93,4.84a86.75,86.75,0,0,0-3.24,16.47s-1.94,4.2-7.11,1-9.68-9-9.68-9-.63-33.93-20.35-20.05c0,0-6.47,11.63-12.93,2.58s-7.42-8.73-7.42-8.73-12.28-6.79-11.95-11.31c0,0-2.9-4.21-8.72-.33s-14.87,2.89-16.81-.66"/><path class="cls-1" d="M280.56,371.85c-13.24-14.55-24.87-15.21-29.72-8.42s-8.08-4.86-8.08-4.86-10.34-3.55-12.93,4.84a86.78,86.78,0,0,0-3.24,16.48s-1.94,4.2-7.11,1-9.68-9.05-9.68-9.05-.63-33.93-20.35-20c0,0-6.47,11.63-12.93,2.58s-7.42-8.73-7.42-8.73-12.28-6.8-11.95-11.32c0,0-2.9-4.2-8.72-.33s-14.81,2.9-16.78-.63c-3.79,5.63-7.08,10.3-7.08,10.3s-.67,6-16.11,5.7l-5,2s-6.05,5.7,1,11.75,1,9.73-2.36,10.4-5,9.73-5,9.73L95.35,393l-5.71,13.76L90,423.82a20.45,20.45,0,0,1-8.4,15.1c-8.39,6.37-7.39,9.4-1.69,15.78s2.35,12.41,2.35,12.41-4,8.73,4.69,11.41A143.19,143.19,0,0,1,104,485.25l6.71,1.68a39.44,39.44,0,0,0,4.7-.67,14.08,14.08,0,0,1,3.69-.67,46.63,46.63,0,0,1,6.71,1.35c1,.33-.33,3,2,3.69s6.71-1.67,7.73-6.37,10.74-7.38,8.39,1.34c0,0-8.06,5,1.67,8.06,0,0,10.73,3.36,12.75,11.08s3,9.4,9.72,5.38,19.14-8,19.14-8,10.07-5,6,7,3,11.42,3,11.42A83.64,83.64,0,0,1,205.68,536c.2.42.41.83.61,1.24.42-.65,5.8-9.29.32-16.06,0,0-.33-6.38,7.73-8.39,0,0,6.38-4,2-9.73s-5-22.83,1.36-24.17c0,0,5,8.4,9.73-1s10.76-21.8,10.76-21.8,2-4.36,10.74-1.68,13.75,5.38,14.43-8.71.34-16.78,7.74-21.82C271.11,423.86,293.8,386.39,280.56,371.85Z"/><path class="cls-1" d="M434.1,157s-5.17-5.49,1.62-7.75.65-10,.65-10l.66-13.57v0c-3.38,1.2-6.32,1.43-8.27-.31a47.86,47.86,0,0,0-6.38-4.7H416c-1.68,0-16.44.67-16.44.67s-5.71-1-6-2.36-1.68-.33,0-4.36,2-5,2.35-6-2-8.73-2-8.73L388.51,84l-2.68-7-1-2.35-8.39-7.73s-8.05-7-3.68-20.47,3-22.48-9.05-25.85c0,0-6.72,5.71-7.72,5.71a7.38,7.38,0,0,1-4.36-.68c-1.68-1-2.35-1.68-4-1.68s-8.06,5-8.06,5-2,2-3,2a18.32,18.32,0,0,1-4-1.34l-2-.68-5,.67s-4.7.34.33,8.73,3.68,11.41-2.7,13.42-20.13,7-20.81,15.76l-5,1.68-7.72.33s-17.78-1-21.48,13.74c0,0-3,14.77-16.12,7.72l-4.69-3-.67-4-1.68-4.36-2.34-2.35-3.36-2-3.36,1s-6.38,10.07-22.16,14.42c0,0-.34,26.51-19.14,25.16l-2-.34-1,6.71h-6l-1.35.67-.34,3.35s-4.7,12.75,8.06,8.06l.67,1.69v4l1.68,2.68,2.35,3.7,1.68,1.34s-6.73,12.41.66,14.43,6.37,4.7,1.33,12.09-11.42,15.43-11.42,15.43,13-.45,18.17,3.75,9,1.3,7.44-4.2c0,0,0-7.1,9.37-1a100.39,100.39,0,0,0,15.82,8.73s7.43,5.18,9.37,12,12.27,9.69,12.27,9.69,6.13,5.18,1.93,10l-.33,8.4s8.73,0,10.35-.64,8.72-.64,8.72-.64l6.78,7.76s2.9,4.52,10.66,4.85,9.37,3.88,11.63,8.41,4.83,14.86,16.47,10,20.68-7.74,29.08-2.89,21.64,16.17,26.82,10.68c0,0,2.58-7.75-8.41-8.4s-10-9.7-6.12-14.87,1.94-7.75.65-13.9-.63-19.06,2.28-26.81,5.82-10.66,5.82-10.66l1.62-2.9s1-9.05,8.4-10a28.47,28.47,0,0,0,6.15-7.43c1.94-3.87,8.08-5.16,8.08-5.16l2.59-9,1-5.49,2.26-.65,2.91,1.95,2.91,4.2S437,171.49,434.1,157Z"/><path class="cls-3" d="M575.41,133.05c2-5.37-1.67-5.71-1.67-5.71s-9.73-5-9.73-11.75h-8.39L554,113.91s0-.67-1.68-.67-2.35-.34-3.69,0-7.05.67-7.05.67l-3.7,3.35a51.57,51.57,0,0,0-3.69,4c-.67,1-2,3.36-3.36,3.35a46.68,46.68,0,0,1-5-.67s-1-2.69-3.36-1-9.06,8-9.06,8L507,135.36s-6,4.36-14.09-10.08l-1.68-3.69-.33-3.69v-3.36l-1.67-4-4-2.36s-.67,0-.67-1,0-5,0-5l-.68-2-3-3.7-3.68-4.36S465,85,463,102.45c0,0,.66,12.08-8.06,7a16.92,16.92,0,0,0-5.38,5c-2.68,3.68-1,6-6.71,9.06a47.18,47.18,0,0,1-5.83,2.65h0v0l-.66,13.56s6.14,7.76-.65,10-1.62,7.76-1.62,7.76c2.9,14.54-20.69,8.39-20.69,8.39l-2.9-4.21-2.91-1.94-2.26.65-1,5.49L401.78,175s-6.14,1.28-8.09,5.16a28.5,28.5,0,0,1-6.14,7.43c-7.43,1-8.4,10-8.4,10l-1.62,2.91s-2.91,2.9-5.82,10.65-3.57,20.68-2.28,26.82,3.23,8.73-.65,13.9-4.86,14.21,6.12,14.86,8.41,8.41,8.41,8.41l-.17.6c2.17-5,5.34-4.8,5.34-4.8a36.6,36.6,0,0,0,6.46-6.46c2.26-3.23,2.91-4.84-.64-10.34s-.32-6.46-.32-6.46c2.58,3.23,9.69,3.24,9.69,3.24l15.52-13.56s-.64-8.73,13.25-5.16,18.1-1.61,18.1-1.61a67.76,67.76,0,0,0,12.92-7.75c7.44-5.49,8.41-4.2,18.09,2.6s13.9,4.21,13.9,4.21c11.31-3.88,16.48-1.36,16.48-1.36l4-7a9.12,9.12,0,0,0-5.7-9.06c-6.37-2.69-8.39-3.7-8.39-3.7l-2.34-3-1-3.36v-3.35a12.5,12.5,0,0,1-1.67-2.69,27.5,27.5,0,0,0-2.69-4l-.33-2.35v-2.35h1l2,4.37,4.69,9.06,3.69,5.37,1.34.68.34-6.38v-4.36l1-3.36,3-.67h1.68l-1,1.68-1,2.68v2l1,.34H514l.33,3.36-2.35,2.69v3l1,2,2.68.34H517l2.68,3.36,2.68,1.34,1-1.34,2-4.7,1-1.68V202.5a12.65,12.65,0,0,1-.34-2.69v-2.69h14.43a1.38,1.38,0,0,1,.68,2.35c-1.35,1.68-1.35.34-2.36,2.68s-5.37,4.7-5.37,8.06a26.35,26.35,0,0,1-1.68,7.71l-4,1.34s-6.71,0-8.39,5-4.71,11.08,2.67,10.07,8.4-10.73,8.4-10.73,7.72-2,10.75-6l3-1.35,5-.33.67-2.35-1.68-2.69.35-2,2.68-3.35v-1.35l-2-1.34-2.35-1v-6l-.67-2-3.35-1.68-3-1.34-2.69-1.35-1-1.68V185l3-1,3-.67,1.68-1.34,1.68-2.35.33-1.34h11.08l1.68-3L559,173a2.31,2.31,0,0,0-1.68-1h-5l-.33-1h2l2.35-.67,2.36-.67,2.68-3v-2.69l-.33-3a3.55,3.55,0,0,0-.67-2.69l-1-1.68L558,153.18l1.35-.34,9.39,3,2.69-1,.67-2.68,2-3.7,2-4S573.4,138.42,575.41,133.05Z"/><path class="cls-1" d="M379.09,289.72s1-2.26,2.92-11a17,17,0,0,1,1.41-4l-.13,0c-5.18,5.49-18.41-6-26.8-10.84s-17.45-1.94-29.08,2.89-14.22-5.5-16.47-10-3.88-8.08-11.63-8.41-10.66-4.85-10.66-4.85l-6.78-7.76s-7.11,0-8.72.64-10.35.64-10.35.64l.33-8.4c4.2-4.84-1.93-10-1.93-10s-10.34-2.91-12.27-9.69-9.37-12-9.37-12a100.39,100.39,0,0,1-15.82-8.73c-9.37-6.14-9.37,1-9.37,1,1.61,5.5-2.27,8.4-7.44,4.2s-18.17-3.75-18.17-3.75L179,199.31s-7.38,5.7-8.39,5.7-11.07,1.33-11.07,1.33-18.13,15.76-20.83,25.49c0,0,4,9.74-1,14.1,0,0,5,5.71,6,10.41a55.64,55.64,0,0,0,2.35,8.05l7.38,12.42s-1.35,9.74-7.39,9.73-11.75,6.7-11.75,6.7-8.07,21.81.32,21.82c0,0,9.4-.33,4,8.4-2.07,3.36-4.65,7.28-7,10.82,2.08,3.45,11,4.36,16.72.54s8.72.33,8.72.33c-.33,4.52,11.95,11.31,11.95,11.31s1-.32,7.42,8.73,12.93-2.58,12.93-2.58c19.72-13.88,20.35,20.05,20.35,20.05s4.51,5.82,9.68,9,7.11-1,7.11-1a86.75,86.75,0,0,1,3.24-16.47c2.59-8.4,12.93-4.84,12.93-4.84s3.23,11.63,8.08,4.85,16.48-6.13,29.72,8.42a16.47,16.47,0,0,1,4.05,9.72h.14l12,.3,6.46,1s8.08-4.52,12.28-8.72,8.08-6.78,1.3-7.43-9.37-2.59-5.49-8.4,2.59-17.45,1-24.56,19.07-6.13,19.07-6.13l9.05.33s5.49-3.87,18.42-1.93S371,307.48,371,307.48C375.53,305.22,379.09,289.72,379.09,289.72Z"/><path class="cls-1" d="M347,529.29,340.26,531l-1.68-1.35,3.7-2.35s5-7.38-5-4.7-11.08,4.36-11.08,4.36-12.08-4.71-5.7-5,1.67-4,1.67-4-.17-3.66,1.36-3.4l0-.12s.69-9.9-4.67-12.92-3.69-5.37-3.69-5.37,2.69-4.36,4-7-1.67-10.75-1.67-10.75,6-6.37,3-12.08-12.42-5.38-12.42-5.38-4.7,3.36-8.39,1-8.39.66-8.39.66-3,3.69-9.07,0,2.36-12.08,2.36-12.08a8,8,0,0,0,2.36-8.72c-1.68-5.7-15.77-17.13-15.77-17.13-7.39,5-7.05,7.73-7.73,21.82s-5.71,11.4-14.43,8.72-10.74,1.67-10.74,1.67-6.05,12.41-10.76,21.8-9.73,1-9.73,1c-6.37,1.33-5.71,18.45-1.36,24.16s-2,9.73-2,9.73c-8.06,2-7.73,8.39-7.73,8.39,5.7,7-.34,16.11-.34,16.11l-.06.23a122.2,122.2,0,0,0,10.12,16.55l6.37,10.41s-7.05,4.35-4.38,17.11a172.72,172.72,0,0,0,5,19.47s5.36,5.37,6,8.4,4.69,11.74,4.69,11.74,4.37,6,8.73,8.06l5.37-1.68,4.36-2.34-.33-8.39,7.72-.33-.67-7.72s1-4.7,3.7-3,5.71-3,5.71-3,3-3.35,2,4.7l-2.35,5.37-2,2.68,2.68,1.34h3.7l.33,2v2.35l-1.68,2-1.68,1.67-1.34,2.35-1,1.68v1.34h6l1.34-1,.67-2v-3a40.77,40.77,0,0,0,6.05.34c4,0,18.12-.32,10.07-10.73l-3.69-8.06-2-2.35V590.68L276.47,585s16.78.68,19.12,3.36,6.71,4,2,14.77c0,0-3.7,10.4,1.67,4.36s2.36-16.1,2-16.77.33-3.36.33-3.36L302,584l1.68-1.35s-2.34-12.08,3.36-11.74c0,0,3.69.34,6.05-1.34l2,2-.34,4L308,584.32s2.35,6.71,5.37-1,5.38-10.4,5.38-10.4l4.36-1.68h3v-8.4l4.7-7-1.67-3.69s2-7.38,4.36-3.69l.33,4.7,2.36-1.35,1-4,5-2.35,9.07-7.37S354.36,529.3,347,529.29Z"/><path class="cls-3" d="M531.57,252.45c-4,.67-6,0-6,0l-2.35-4.37a3.41,3.41,0,0,0-2.34-1.34,32.37,32.37,0,0,0-5,1l-3,3a23.42,23.42,0,0,0-2,4.7,25.27,25.27,0,0,1-1.34,4l-2,1-5.36-3-1.68-3.36v-6.37l-.66-1.35H498l-2.69.67-2.69.34-1.67-.68-1.68-1-1-1v-1.34l1-2,3.69-.67h4.37l3.35,1,2,1.35,3.7.34h2l4,4s4.36,0,4.7-5.71-3.69-4.69-3.69-4.69l-1.67-9.07,0-.06c-.11-.06-5.28-2.48-16.47,1.35,0,0-4.21,2.59-13.89-4.2s-10.66-8.09-18.09-2.6a68,68,0,0,1-12.93,7.75s-4.21,5.16-18.1,1.6-13.25,5.16-13.25,5.16L403.57,250.5s-7.11,0-9.69-3.23c0,0-3.23,1,.32,6.46s2.9,7.11.64,10.34a36.6,36.6,0,0,1-6.46,6.46s-4.53-.33-6.47,8.4-2.92,11-2.92,11-3.56,15.51-8.08,17.77c0,0,.63,21.32-12.29,19.37v.59a120.92,120.92,0,0,0,1,14.6c1,6.79,15.18,10.68,15.18,10.68a12.42,12.42,0,0,1,1.88,1.4s6.52-6.89,12.66-6.57a69.59,69.59,0,0,0,14.22-1.28,31.38,31.38,0,0,1,13.9-5.81s10.34,1.62,18.74-4.52,11.63,1.63,11.63,1.63L450,353.93l8.08,3.56,2.58,1.29c-.33,12.93,3.55,15.19,3.55,15.19l.15.21,1-1.29,2-3.69,1.35-7s3.36.67,3.36,6.71-.69,11.74,4,10.07l-.33-2-.33-2.68,1-6,.68-3.69-2.69-2.69v-4l1.34-1.34,3.35,8.73s6.72,4,10.07,4,.67,1.35.67,1.35l-1.35,6.71,5-2.69,1.67,2.69.34,10.74,7.72-4.35-.67-1.69L500,379v-1.67l1-1.69h2.69s2,3.36,2,4.37,2.35,5,2.35,5l3,1,4.36-4-2-6.71a37.93,37.93,0,0,0-3.35-3c-1-.68-.34-2-3.36-2H502l1.34-3,.35-3.69a16.93,16.93,0,0,0-.34-3,8.59,8.59,0,0,0-1.34-3,15.14,15.14,0,0,0-3.35.34c-1,.33-1.35,4-1.35,4l-3,.33-2-2.35-.34-3.36s.34-1-1-1.68-4-2.35-4-2.35a1.31,1.31,0,0,1-1.34-1.68c.34-1.68-.34-.67.67-2.68l1-2,1.68-1.69,13.76-.65s5.37-9.73,2-14.43-11.74-8.73-.33-12.76c0,0,7-2,7-7l1-4v-2.35l-1-2-1.34-1.35-5.71.67h-2.68l-2.35-1-7.05-.68-2.35-.33-2-1.35v-2l4.69.67h7.06l5-1.68,3-2.68-6.37-5L498,284l-1.69-1,2-3.35,3.36-2.69,2.35-2s-7.72-6.38,1.34-7.38c0,0,8.06-3.69,12.43-7.71l8.39-1,7.38-4.35S535.6,251.78,531.57,252.45Z"/><path class="cls-3" d="M443.68,434.71l-1.67-3-2,3-2,3.69h-2.69l-3.35-1.68-4.36-4.36-4-3.7a13.16,13.16,0,0,0,3-.33,16.71,16.71,0,0,1,3.36-1.34,24.29,24.29,0,0,1,4-.67h2.35l.67-2V421l.34-5L434,413.23h-3.35l-4-3.7s1.9-2.77,6.77-4.84l-.16-.46s-7.42-5.82-20.68,4.52-14.86,8.06-11.95-3.24c0,0,0-2.91-7.43-2.92s-17.77-1.95-21.64-12.94-1.61-13.89-1.61-13.89,4.53-4.2,5.5-6.13,8.73-11.31-.63-17.13c0,0-14.22-3.88-15.19-10.67-.94-6.62-.83-6.27-.82-14.82l-.14-.37c-12.92-1.95-18.41,1.93-18.41,1.93l-9.05-.33s-20.68-1-19.07,6.13,2.9,18.74-1,24.56-1.31,7.75,5.49,8.4,2.9,3.23-1.3,7.43S303,383.48,303,383.48l-6.46-1-12-.42-.07.24c1.75,17.05-13.34,42-13.34,42v.12s14.09,11.3,15.76,17a8,8,0,0,1-2.35,8.72s-8.4,8.39-2.36,12.08,9.06,0,9.06,0,4.7-3,8.39-.66,8.4-1,8.4-1a19.58,19.58,0,0,1,9,2h.23l2.86,0,7.1-.32,5.17-.32,2.91-1,4.52-3.87s5.5-1,6.47-1,2.26,1.62,2.26,1.62l8.72,8.73,3.55,5.17c.64,9.7,10.33,17.77,10.33,17.77l9,4.7.13.21,1-1,1-14.77,3.68,4.36,2,5.38s.34,4,11.07,3.7l1.35,1.34.66,7.38,9.07-6.7,1-5-2-2.35L407.75,485l-1-2.35v-2.35l5.71-1,3.36-.67,3.69-5,1.67-1v-3l-2-2h-3.7l-2-3s-2-.67-2.69.34-3.7,1.67-3.7,1.67l-2.34-1.67-3.35-4v-2l1.67-1,2.69-2.35,1.34-1.68.67-1.34,3,1v2.68l.67,2.35,4,1.35,3.7-.33,4.36-3,3.36-2.68,4.36-.33,4.37-.33,4-1.68,2-.34,2-3.68v-3.69a17.89,17.89,0,0,0-.34-2.69V438.4Z"/><path class="cls-3" d="M480.78,398.79l-3.69-2.68-4.7-2.36h-2.68l-1.34,2-1.35,3-1.68,2.69-2.35-.68-.67-1.67,1.68-3,.68-3s-.68-1.68-2-2-5.7-1.68-5.7-1.68l-3-3.35s-3-2.36,1.68-5.71S462,376,462,376l2.4-3.12-.18-.17s-3.88-2.26-3.55-15.18l-2.58-1.3L450,352.64l-2.25-16.16s-3.23-7.76-11.63-1.63-18.74,4.52-18.74,4.52a31.38,31.38,0,0,0-13.9,5.81,69.59,69.59,0,0,1-14.22,1.28c-6.14-.33-12.6,6.78-12.6,6.78v.18c6.47,5.82-.47,13.92-1.37,15.72s-5.5,6.13-5.5,6.13-2.27,2.91,1.61,13.89,14.21,12.94,21.64,12.94,7.43,2.92,7.43,2.92c-2.91,11.3-1.3,13.56,11.95,3.23,12.65-9.85,20-5,20.63-4.55a30.92,30.92,0,0,1,13.14-2.24l.33,1.34-2.35,1.34-3,.33-2.35.34-.67,2.35,2,.67,4-.34a1.69,1.69,0,0,1,1.68-.33c1,.34,2.69,1,2.69,1l1.67,2.68-2,3.36-2.69,1.67-2.35,1.35,1.68.67a6.61,6.61,0,0,0,2.35.67h2.34l2.36,1.68a3.68,3.68,0,0,0,2.35,1,4.6,4.6,0,0,0,2.34-.67l1-2s.67-.34-.33-1.35a10.49,10.49,0,0,0-2.35-1.67l-1.34-2,.33-2.68.34-2.69v-3.35l1-1.34,1.68.67,1.34,3a2.93,2.93,0,0,0,2,2.68c2,.68,5,1.35,5,1.35h4l4.7-.33.34-4,.67-3.36,4.36-.66Z"/></svg>