<svg id="图层_1" data-name="图层 1" xmlns="http://www.w3.org/2000/svg" viewBox="0 0 650.78 650.78"><defs><style>.cls-1{fill:#1a1a1a;}.cls-1,.cls-2,.cls-3,.cls-4{stroke:#545555;}.cls-2{fill:#761b1d;}.cls-3{fill:none;}.cls-4{fill:#00324b;}</style></defs><title>廣東</title><path id="_40364056" data-name=" 40364056" class="cls-1" d="M321.24,384.17c-2.31,1.95-12.33,6.48.5,6.83,5.11-5.65,1.8-8.78.77-9.23s-.51,1.75-1.27,2.4Zm8.33-5.74c-8.72,1.78,4.65,4.31,5.77,3.69s2.6-5.5-5.77-3.69Zm29.6,9.24c1.13-.62-8.79-14.66-14.38-20.48a4.73,4.73,0,0,1-3.72,1.83c4,8.19,5.12,2.93,7.66,6.71,5.36,8.66-2.59,18.36,10.44,11.94ZM292,409.61c-2.13,8.4,10.16-10.59,5.22-11.36a36.28,36.28,0,0,0-5.82,1.31c-5.08,5.29-9.82-2.25-12.59,5.38C283.55,412.13,287.89,402.84,292,409.61Z"/><g id="g29933"><g id="g29928"><path id="_40546000" data-name=" 40546000" class="cls-1" d="M398.05,373.59a7.53,7.53,0,0,0-5.69-.3,8.32,8.32,0,0,0-2.4,2.1c3,.9,8.39,3,8.09-1.8Z"/><path id="_40545208" data-name=" 40545208" class="cls-1" d="M391.46,376.59h-6C383.38,388.56,393.26,377.18,391.46,376.59Z"/><path id="_40544016" data-name=" 40544016" class="cls-1" d="M381.28,387.66c4.19-3.89.6-7.18-.6-5.39C379.49,384.67,380.38,385.87,381.28,387.66Z"/></g><path id="_39122872" data-name=" 39122872" class="cls-1" d="M395.05,354.73c-20.65,9.88-4.79,14.37-2.39,9.58,1.2-2.69,2.69-3.29,3.59-6C395.65,357.43,396.25,356.23,395.05,354.73Zm-18.26,5.69c-3.29,1.2-14.37,6-3.59,6,5.78,0,8.47-2.7,3.68-6ZM381,344c-.3,1.8-10.78,26.35,11.68,9.58,9-6.58-.6-.9-1.5-8.38a4.33,4.33,0,0,0-.6-2.1A23.53,23.53,0,0,1,381,344Z"/></g><path class="cls-2" d="M103,512.56s16-9.33,8.68-17.34l-2-2.67s-5.67-3.67-5.67-6.68l-4.34,1V484.2l-1.34-.33v-2l1.34-1.34h1.67l1.33,1s4.34-4.34.34-7c0,0-6-4.68-12.35-4l-1.33-.33a15.11,15.11,0,0,0-4-13.69l3.33,1.67,2-1,.33-6.34h1.34l.33,3.34,1.33-.33s4-5.68,7.35-.67a9.43,9.43,0,0,1-4.68,5.67s-.67,2.34,2,1.67c0,0,14.36-3.33,15,2s2.67,1.33,2-1l.34-2.67.33-1.67s1.67-4-5.34-2.34l-2.33-1-3-1.34-2.68-.66s-5.33-2,3.34-5.34c0,0,2-5.67,0-8.68l-2.67-4H107l.34-2.67-2-1.67-.67-2.34v-1.66l1.67-.67.33,1,1.33,2h3s-5,7.67-.34,5.67c0,0,6-3,2,4,0,0-7,4,1,5.34L112,446.17l2.67,1.67,1.66,2s1.67,5.67,5.67-1.67l1-4.67-.33-3.34v-4l1-1.67s1.33-.33,1.33,3.34l1.33,1.33,2.67-3.33s3-10.35,13.35-5.67l5.68-2,3.05-.51a86.36,86.36,0,0,1-8.73-6.5,18.63,18.63,0,0,1-4.66-6.67s-1.67-7.35-7,.33-15.35,3-15.35,3a81.21,81.21,0,0,0-9.34-9c-5.67-4.67-1.67-14.35-1.67-14.35,4.34-4.66,3-6.67,3-6.67l-19.69.33H77l-4.67,14.68s-6,7-12.35,2l-1.33,1.67L60,415.79s1.33-1.67,2.67,4c0,0,1,3.67,4.67.34h4L71,424.8l-.67,3-1,1.34h-3l-4.34.33-2.34.33s2,14-3.34,13.35l-3,.33s-1,4-.67,5.67,3,5-.34,9.34-.67,12,3.67,14.36c0,0,2,0,.67,3.66,0,0-2.34,5,6.34,3.68a3.14,3.14,0,0,1-3,2s-7,.33-2.34,3.67l3,2.67,1,1.34,2-.67-.67,2-1.67,4.34a10.55,10.55,0,0,1,6.34,3.34l1.67-2.34s2,4.34,5.34,4c0,0,2.33.33-.67,5.34l2.34.66s-2.68,5-4.34-1.66a7.07,7.07,0,0,0-6.68-1.34s-1.66,1,1,3.67c0,0,3,.67,2,5.67,0,0-1.66,7.34,3.34,1.34,0,0,9.68-4.67,12.35,1.67,0,0,4.67,1,8-1.67l4.34.67S101,512.56,103,512.56Z"/><path class="cls-3" d="M239.09,351.27s-12.26,1-13.76-13c0,0,.25-5.51-5.26-2.25s-8,1.75-6.5-4.51a4.45,4.45,0,0,0-3.51,1.5c-1.75,1.75-8.76,9.76-8.76,9.76l-.25.75s-.25,7-11.77,13.51-12,7.5-13.51,17.51c0,0-6.51,3.51-5.26,8.26a52.21,52.21,0,0,0,2.5,7.51s10.26,1,5.25,11l.75,2.26,2.25,4,.82,10.35"/><path class="cls-3" d="M161.89,330s5.13,7.39,11.26,5.89c0,0,4.38-.13.62,3.63s-.75,4.88,5,3.51c0,0,2,.12,3.38,3.5s1.87,2.5,5.25-.88,11-3.5,13.52-2.62"/><path class="cls-4" d="M162.37,330.66,140,335s-10.35,11-1.34,21.69c0,0,2.66,4.67-5.68,3.33l-8.34,5-3.67.66s-3,5.34-9.68,0c0,0-7.67-1-6.34,6.67S108,388,108,388s1.38,1.84-3,6.51c0,0-4,9.68,1.66,14.35a81.21,81.21,0,0,1,9.34,9s10,4.68,15.35-3,7-.34,7-.34a18.57,18.57,0,0,0,4.67,6.68,85.45,85.45,0,0,0,8.72,6.5l.23.11.68-.12s9.68-3.67,1.67-4h-2v-4.34s3.34-1,5,1.34,7.34,4.34,11,3L166,421.08h4.67l3,2.67L172,427.43l3-.67,6-4.34.33-1.33-2-.67-1.34.33-.33-1.33,2.34-1,2.67-.33,0-.31-.81-10.11-2.25-4-.76-2.26c5-10-5.25-11-5.25-11a53.2,53.2,0,0,1-2.5-7.51c-1.25-4.75,5.26-8.26,5.26-8.26,1.5-10,2-11,13.52-17.51s11.76-13.51,11.76-13.51l-.12-.5c-2.5-.88-10.14-.76-13.51,2.62s-3.88,4.26-5.26.88-3.38-3.51-3.38-3.51c-5.75,1.38-8.76.25-5-3.5s-.63-3.63-.63-3.63c-6.13,1.5-11.09-5.35-11.09-5.35Z"/><path class="cls-3" d="M248.17,406.83s1.67-8.76,2.42-11.51,1-6-2-8-13.26-11.52-13.26-11.52-5.76-2.5-6.76-2.5-1.75-1.5-1.75-1.5-4-8.76.75-10.51l3-2.76.5-2.25,2.5-1.75s9.76-4,11.52-11.51l8.76-6.5s1.76-.78,5.76.75c3.13,1.2,1.39-6.1,1.25-7.51"/><path class="cls-2" d="M344.94,366.48v-4l.67-3,.67-2.67-2.33-1-2-.66-.66-1.68a11.4,11.4,0,0,0,1.71-4.2c-.75.05-5.5.82-8.69,12-3.48,12.15-8.39.29-11.28-5.21s-8.1-1.45-8.1-1.45c-2,9.55-5.21,10.71-5.21,10.71l-.1.3c1.11,1.12,2.94.15,6-6.46,0,0,1.66,6-2.68,8.67l-1.67,2-.33,8.67s6.67,4,10.67.34c0,0,3.68,3,3.34-2,0,0,6.91-2.67,4.91-9l1.13.05S335.94,380.49,344.94,366.48Z"/><path class="cls-3" d="M254.16,322.16s-4,14,6.1,7.71c0,0,3.78-5.26,6.31.21,0,0,2.31,8.41,5.25-2.52,0,0,1.26-5.89,9.88-5.26a52.37,52.37,0,0,0,5.47-3.78c2.32-1.89,15.14.64,15.14.64l8.83,11.35L314.92,341s4.65,7.94,3.6,12.14"/><path class="cls-2" d="M389.67,309.93c-.67-4.67-1.66-5.5-1.66-5.5l-5,.66-1.33-.83c0-4.34-3.17-8.51-9-8a36.16,36.16,0,0,1-11.85-1.33c-18.51-3.35-22.19,7.17-22.19,7.17h0s1,13.67,7.34,9l.67,1s-5.34,14.35,7.67,13.68h0c5.18-10.67,15-8.5,15-8.5s8,3,12.18,4.67a8.69,8.69,0,0,1,5.17,4.84l1.66.34,1.17-5.68A54.44,54.44,0,0,0,389.67,309.93Zm-51.05-7.85s-.17,1.14-.24,2.7Z"/><path class="cls-3" d="M301,154.58s4.5,1,.24,5.51-9.51,15.76-5.51,20,8,12,11.52,8.26c0,0,7-4.25,9.5-.24s11,3,13.77,2.75,14.76-2.24,14.76-2.24l14,10.76L363,211.91l-2.75,5.5-1.5,6-2.51,4,2.38,7.88"/><path class="cls-2" d="M358.62,235.3l.06-.11-2.44-7.77,2.51-4,1.5-6,2.75-5.5-3.74-12.52-14-10.76s-12,2-14.76,2.24-11.27,1.25-13.77-2.75-9.5.24-9.5.24c-3.51,3.76-7.51-4-11.52-8.26s1.26-15.51,5.51-20c3.84-4.06.57-5.28-.12-5.48-1.82,1.94-5.58,3.15-13.14,1.63,0,0-5.67-4-7-13.35l-2-1.66-2.34-1-14-7.35-4.34,4-1.67-3.67s-5-1-7.34,0-4.67,0-6,3.34-4.34,11.67-.33,18-9.68,12-9.68,12-15.36,9.34-4,20l1.66,1.33.67,4s9,6.68,1.33,11c-2.46,1.39-4.75,2.61-6.61,3.9l4.21,4.49a14.58,14.58,0,0,1,9.55-1.45l5.78.58L250.15,198s2,0,6.65,3.76,5.21,4.06,4.05,8.4,2.6,8.68,2.6,8.68c6.37,3.18,1.45,9,1.45,9,18.8,3.47,12.14,13.31,12.14,13.31l2.61,6.94,1.15,3.48c6.37.58,4.92,6.36,4.92,6.36l.87,2.61a13.12,13.12,0,0,0,.87,1.76L298.54,271l.38.19s5.26-4.63,9-4.63a14.91,14.91,0,0,0,5.88-1s3.39-5.38,6.89-9.88,10.39-6.38,10.39-6.38a17.31,17.31,0,0,0,14.39,1.51C348.35,242.18,358.62,235.3,358.62,235.3Z"/><path class="cls-4" d="M248.94,388c-3-2-13.26-11.53-13.26-11.53s-5.76-2.5-6.75-2.5-1.76-1.5-1.76-1.5-4-8.76.76-10.51l3-2.75.5-2.25,2.5-1.75a27.59,27.59,0,0,0,5.52-3.25v-.12s-12.27,1-13.77-13c0,0,.26-5.5-5.25-2.25s-8,1.75-6.51-4.51a4.44,4.44,0,0,0-3.5,1.5c-1.75,1.75-8.76,9.76-8.76,9.76l-.25.75s-.26,7-11.77,13.51-12,7.51-13.52,17.52c0,0-6.51,3.5-5.26,8.25a51.63,51.63,0,0,0,2.5,7.51s10.26,1,5.26,11l.75,2.26,2.25,4,.81,10.35.24.65h1.43l.68-3,1.66,1.34.67,3,9.34.33.67-2.67h1.34l3.67,2,1-2.34v-1.67s1-2.67,6.67-1.67c0,0,3.67-7.34-1.66-9.34l-3.34-2.34,1-1.33s3,3.67,5.34-.34l5,.34,1.33,3-1.34,2v1.34l2.67.67,1.34.67,1,1-2,1-1.67.33a11,11,0,0,0-3,7l2,.67,5.33-3.67s13-.67,2.34-5.68c0,0-6-3.33,2-7l8.67-1.33,4.34-2,4-3.34s-3.34,13,5,10.68l.48.05c.4-2.1,1.67-8.55,2.29-10.85C251.69,393.28,252,390,248.94,388Z"/><path class="cls-3" d="M377.64,231.18s9.89,1.25,13.39.25,8,4.51,8,4.51"/><path class="cls-2" d="M407.15,211.54c-1.5,5-5.26,5.25-9.51,3s-9.51-11.27-.5-14.52,6.26-11.76,6.26-11.76l0-.53a5.62,5.62,0,0,1-2.32-1.76c-3.33-4.34-9.34-7.34-11-7.68s-3.67-3.33,2-5,7.34-9,7.34-9l4.67-4s-8-4,6.35-13.68c0,0,18.35-4.66,13-12,0,0-.66-4.67,2.34-7.34s-5.67-5.67-5.67-5.67-4.67-8.35-14.68-2.68-7.35,9-21,4c0,0-14.35,14.68-7.34-.67,0,0,0-9.34-11-8,0,0-5.67,3.34-5.34,7.68,0,0-.67,1.33-4.67.32s-11,1.67-11,1.67l-1.67-.66s-1.66-2-2.67-2a18.5,18.5,0,0,1-3.33-.67c-1.67-.33-5.68-1.67-5.68-1.67s-2.67-3.33-4.67-6-15-6.35-15.68,2c0,0,.67,2.33-7.34,4.67s-18.36,6.33-6.68,10,4.34,8,4.34,8l.66,10s1.44,4.47-1.4,7.23h0s4.51,1,.25,5.51-9.51,15.76-5.51,20,8,12,11.51,8.26c0,0,7-4.26,9.51-.25s11,3,13.76,2.76,14.77-2.25,14.77-2.25l14,10.76L363,212.14l-2.75,5.5-1.51,6-2.5,4,2.37,7.88.16.14,5-3.12,13.79-1,.22,0s9.88,1.25,13.39.25,7.79,4.53,7.79,4.53l.16-.07a71.84,71.84,0,0,1,.56-9.71c.75-7,6.26-6,6.26-6a16.13,16.13,0,0,0,9.26-8.25C418.67,205.53,407.15,211.54,407.15,211.54Z"/><path class="cls-3" d="M585.24,202.46s-3,6.5-8.26,7.75c0,0-10,17-19.28,21.27,0,0-2.75,2.5-2.5,8.51,0,0-14-3.76-21.78,9.25L530.17,252s-4-.25-8.51-.75-12.51.5-13.51.75-5.26,2.25-5.26,6.25-5,3.75-8.26,3.75c0,0-7.51,3.25-13.27,12.76S464.09,297,464.09,297a67.41,67.41,0,0,1-18.27,9.25s-9.26,1.51-1.26,12.52l5,6.51"/><path class="cls-3" d="M389.5,319.52s2,.51,5.76-.75,9,1,10.76,7.52c0,0,2.33,2.5,8.68,1.5"/><path class="cls-2" d="M414.85,327.73l-.2-.05c-6.34,1-8.68-1.51-8.68-1.51-1.75-6.51-7-8.76-10.76-7.51s-5.14.78-5.14.78h-.39c-.1,1.26-.22,1.89-.22,1.89L388.28,327l-1.66-.33a8.69,8.69,0,0,0-5.17-4.84c-4.17-1.67-12.18-4.68-12.18-4.68s-9.84-2.17-15,8.51v.12H357s1.67,10,9,16c0,0,2,2.67.66,5h1.67a5.09,5.09,0,0,1,7-2c4.67,2.33,14.68-2,14.68-2l13.35-3.67s6.67-.33,6.67,8.68c0,0,4.33,3,7.67-2s-4.67-5.68-4.67-5.68-3-.66,2.67-3.33c0,0,6-3.34-1-3.67,0,0-5.34,1,0-5.34Z"/><path class="cls-3" d="M484.89,175.15s-7.25,4.5-2.75,9.76,4.5,13,4.5,13,5.5,11.77-2,10.77l-2.25,2.25s-2,5.25-5.76,5.25c0,0,1.25,10.26-2.51,16.77s-7.51,9.75-.25,12,3.75,8.76,3.75,8.76.08,17.21,4.94,19.28"/><path class="cls-3" d="M492.83,262.62s3.53,11.39,9.81,10.6c0,0,4.72-1.18,2,3.54l.39,2.36s2,3.14-1.57,3.13c0,0-5.11,3.15.78,6.29l4.71,1.57s5.89,0,4.71,12.57c0,0,3.53,3.93,8.24,3.93l7.47,2,3.93-.78,3.14-2.36,2.75-.78,1,1.48"/><path class="cls-3" d="M545.85,239.86l5.5,5.89s8.25,2.75,9,11.39c0,0-.23,7.09,8.41,9.05"/><path class="cls-4" d="M585,202.17l.15-.51c-.83-1.9-1.86-4-1.86-4L577.57,187l-3.33-4.67s6-13.35-8.68-8.34c0,0-11.68,10.67-12.68-1.68,0,0,.34-2.33-4-4.67a7.71,7.71,0,0,1-4-7s.66-3.33-5.34-1-11.68-.67-11.68-.67l-8.35,1s-4-9-8.33-4.68c0,0-4.34,5-6.68,1.34a22.54,22.54,0,0,0-2.67,20.68c4.33,11.68-8.35,6-10.35,2.67l-4.67-1-1.67-1.67a10.93,10.93,0,0,0-.2-2.57l-.34.11s-7.25,4.5-2.75,9.76,4.5,13,4.5,13,5.5,11.77-2,10.77l-2.25,2.25s-2,5.25-5.76,5.25c0,0,1.25,10.26-2.5,16.77s-7.51,9.75-.26,12,3.75,8.76,3.75,8.76.08,17.21,4.94,19.28l.16,0c5.56-8.18,11.92-11,11.92-11,3.25,0,8.26.26,8.26-3.75s4.25-6,5.26-6.25,9-1.25,13.51-.75,8.51.75,8.51.75l3.25-2.75c7.76-13,21.78-9.25,21.78-9.25-.25-6,2.5-8.51,2.5-8.51,9.26-4.26,19.28-21.27,19.28-21.27C582,208.67,585,202.17,585,202.17Z"/><path class="cls-2" d="M477.12,280.35c1.45-2,2.82-4,3.95-5.89.41-.67.75-1.09,1.17-1.71l-.28-.2c-4.86-2.07-4.64-19.11-4.64-19.11s3.51-6.5-3.75-8.76-3.5-5.51.26-12,2.5-16.77,2.5-16.77c3.76,0,5.76-5.25,5.76-5.25l2.25-2.25c7.51,1,2-10.77,2-10.77s0-7.75-4.5-13,2.75-9.76,2.75-9.76l.13-1c-1.25-4.39-6.09-10.4-24.61-1.26l-9.68.67s-9,2-13.68,9.34l-3.34-.67s-5.67-2.34-8,2c0,0-5.34-1.67-13.34,3.33,0,0-5,1.94-8.67.43l-.1.15s2.76,8.51-6.25,11.76-3.76,12.27.49,14.52,8,2,9.51-3c0,0,11.52-6,8,.75a16.17,16.17,0,0,1-9.26,8.26s-5.51-1-6.26,6-2.26,21,7,24S412.8,253,415.3,258l1.75,1.75s10-1.75,4,8.51c0,0-6.26,4,1.75,4,0,0,5.76,3.76,7.76,8.76s1.75,5.76,1.75,5.76,4.5,7,5.26-1.5l1.25-2.5,1.25-2,.25-4.26,9.51-1s3.75-4.5,10.76-1.49l2.75-.5,2.26-.5,1.5.25,2,2.75,7.46,4Z"/><path class="cls-1" d="M606.25,256.43l-12-15-5-13s-3-5-3-6,.66-4.67.66-4.67l2-4.67.33-3s.67-1.67-.33-2.67-2.33-1.67-3-3.68c-.14-.41-.34-.9-.56-1.44l-.27,0s-3,6.51-8.26,7.76c0,0-10,17-19.28,21.27,0,0-2.75,2.5-2.5,8.51a21.54,21.54,0,0,0-8.88-.1l-.26.2,5.29,5.66s8.24,2.75,9,11.39c0,0-.23,7.09,8.41,9.05l.46-.57c1-1.41,1.62-3.63,1.4-7l.79-2.36,10.21-7.06,5.11,3.14-.76,9.54-.33,1.78.38-.95s-.33-1,1-.67a23.1,23.1,0,0,0,4,.33l1.66.34s-.33,2.33-1.33,3-4,3-4,3l2.67,1.34a21.67,21.67,0,0,1,5,0,31.61,31.61,0,0,0,4,.33l3.34-1.33.33-3,12,1.35Z"/><path class="cls-2" d="M582,249.24l-10.21,7.06-.79,2.36c.28,4.36-.3,6.28-1.8,7.56l-.4,0c-8.64-2-8.41-9.05-8.41-9.05-.78-8.64-9-11.39-9-11.39l-5-5.72L546,240a19,19,0,0,0-12.61,9.29L530.17,252s-4-.25-8.51-.75-12.51.5-13.51.75-5.26,2.25-5.26,6.25-5,3.75-8.26,3.75a15.85,15.85,0,0,0-1.58.84l-.22.35s3.53,10.83,9.81,10c0,0,4.72-1.18,2,3.54l.39,2.36s2,3.14-1.57,3.13c0,0-5.11,3.15.78,6.29l4.71,1.57s5.89,0,4.71,12.57c0,0,3.53,3.93,8.25,3.93l7.46,2,3.93-.78,3.14-2.36,2.75-.78,1,1.48h2l7.34,1.67h5l2.67-2.67v-2.67l3-.67s2.67-2,.67-7.34l-.34-3s4.67-4.34,1-5l-.67-1.67,4.34-2.33.66,4.67,3.34-1.33,5.34-6-.33-2-1.34-1.34-1.67-1.66s-.61-.61-1.31-1.17c1.64.78,4.08,1.07,7.66-.16l1.33-2.34,4.34-5.34,2-1.67.67-1.66s-.21-.68.46-.73l.75-9.33Zm-13.45,23.54c-1-.34-5.34-1-5.34-1l-1.34-1.33h5a5.81,5.81,0,0,0,1.76,2.38Z"/><path class="cls-2" d="M585.22,264.1l.67-1.66s-.13-.4.11-.61l.76-9.54-5.11-3.14-10.21,7.06-.79,2.36c.79,12.17-9,9-9,9l-6.28-5.5c-7.07-2.36-13.35,3.53-13.35,3.53a28.88,28.88,0,0,1-.4,4.71,62.28,62.28,0,0,0-.39,7.46v7.85s2,2.76,9.42,5.11c6.84,2.17,10.36-3.38,10.9-4.31l-.66-1.67,4.34-2.33.66,4.67,3.34-1.33,5.34-6-.33-2-1.34-1.34-1.67-1.66s-.61-.61-1.31-1.17c1.64.78,4.08,1.07,7.66-.16l1.33-2.34,4.34-5.34Zm-16.68,8.68c-1-.34-5.34-1-5.34-1l-1.34-1.33h5a5.81,5.81,0,0,0,1.76,2.38Z"/><path class="cls-4" d="M540.1,306.16l-1-1.49-2.75.79-3.14,2.35-3.93.79-7.46-2c-4.71,0-8.25-3.93-8.25-3.93,1.19-12.56-4.71-12.56-4.71-12.56l-4.71-1.58c-5.89-3.14-.78-6.28-.78-6.28,3.53,0,1.57-3.14,1.57-3.14l-.39-2.36c2.75-4.71-2-3.53-2-3.53-6.28.78-9.86-10.32-9.86-10.32l-.38.17a35,35,0,0,0-11.26,11.66c-5.76,9.51-17.28,22.27-17.28,22.27a67.41,67.41,0,0,1-18.27,9.25s-9.26,1.5-1.25,12.52l5,6.51.4.16a29.06,29.06,0,0,0,.73-3.34l1-1.67,6.68,1s3,2.67,3-3c0,0,6,0,9.34-3v1.67s-2,2.67-4.33,3.33v1.34s7.67-3,7.33,7c0,0,10.35.67,14.69,2,0,0,6.34-.66-.67-6.34l-.67-1.67s14.69-18.35,13.35-11c0,0-5,3.33,0,4.34s8,4,7,8l7-3.34,7.34-3.34s8.34-2.66,3-6l-.33-1.34h1l3.33.67,2,.34-.67,1.33s-4.34,5.34,1.33,4l9-10.29Z"/><path class="cls-2" d="M363.73,232.21l-5,3.13s-10.26,6.88-13.14,15.51a17.26,17.26,0,0,1-14.38-1.5s-6.89,1.87-10.39,6.38-6.89,9.88-6.89,9.88a15,15,0,0,1-5.88,1c-3.75,0-9,4.63-9,4.63l-.4.37,2.4,2.26s1.46,14.51,3.77,8.62c3.74-9.49,9.26,1.48,9.26,1.48l1.05,14.09a70.62,70.62,0,0,1,6.3,9.67,17.77,17.77,0,0,0,9.25,15.77l6.56,5.71.06-.1,7,5.34,1.67-.67-1.34-2-5-7.33,1.67.33s9.67,5,.67-3.34l-4.68-4.67,1.34-14.68,0,.33c.48-1.16,4.81-10.17,22.15-7,0,0,.88.27,2.3.57l.36-.41a13.31,13.31,0,0,1,1.51-3.88c.87-1.12.38-12.76.38-12.76s14-4.25,6.13-12-14.39-11.77-6.13-17.77,11.27-8,11.27-8,2.25-7.51,1.13-9.88Z"/><path class="cls-3" d="M403.19,187.76s2.75,8.51-6.26,11.76-3.75,12.26.5,14.52,8,2,9.51-3c0,0,11.51-6,8,.75a16.13,16.13,0,0,1-9.26,8.25s-5.51-1-6.26,6-2.26,21,7,24,6.25,2.75,8.75,7.76l1.76,1.75s10-1.75,4,8.51c0,0-6.26,4,1.75,4,0,0,5.76,3.76,7.76,8.76s1.75,5.76,1.75,5.76,4.5,7,5.25-1.5l1.25-2.5,1.26-2,.25-4.26,9.51-1s3.75-4.5,10.76-1.49l2.75-.51,2.25-.49,1.51.25,2,2.75,8.76,4.76"/><path class="cls-2" d="M286.59,260.54l-.87-2.61s1.45-5.78-4.92-6.36l-1.15-3.48L277,241.15s6.66-9.84-12.14-13.31c0,0,4.92-5.79-1.45-9,0,0-3.76-4.34-2.6-8.68s.58-4.63-4.05-8.4-6.65-3.76-6.65-3.76l-4.35,12.44-5.78-.58a14.58,14.58,0,0,0-9.55,1.45l-4.21-4.49c-3.92,2.73-5.89,5.78-3.4,11.44,3.67,8.34,1.66,12.35-3,12.68,0,0,1.33,12.35-14.35,10.67L204.16,251l-1,1.33L196.49,255S186.2,262.1,184.8,279.4a4.3,4.3,0,0,0,6.3.5s2.9-.87,2.9,3.76,4.91,6.08,10.12,7.24,11.86,1.16,14.75,1.16,11.86,5.5,11.86,5.5,11,.87,14.18-2.31c0,0,3.48-1.45,1.45,5.5a18,18,0,0,0,1.15,12.73s3.18,8.39,6.65,8.68,9.84-1.45,9.84-1.45l6.95-7.8s6.36-2.9,9.26-4.06,10.13-9.54,3.77-19.09c0,0,4-7.52.29-13.89l-.29-3.76S290.92,268.06,286.59,260.54Z"/><path class="cls-2" d="M311.08,330.66l-8.83-11.35s-12.83-2.53-15.14-.64a53.26,53.26,0,0,1-5.47,3.79c-8.62-.64-9.88,5.25-9.88,5.25-2.95,10.93-5.26,2.52-5.26,2.52-2.52-5.47-6.31-.21-6.31-.21-10.09,6.31-6.17-7.48-6.17-7.48l.08-.23c3.47.29,9.84-1.44,9.84-1.44l6.95-7.81s6.36-2.9,9.25-4.05,10.13-9.55,3.77-19.1c0,0,4-7.52.29-13.89l-.28-3.76s5.77-3.13,3.5-9.42l.14-.21,10.92,8.53,2.52,2.31s1.47,14.51,3.78,8.62c3.73-9.49,9.25,1.48,9.25,1.48l1.05,14.08a71.73,71.73,0,0,1,6.31,9.68,17.75,17.75,0,0,0,9.24,15.77l1.45,1.31,0,.16s-17.14,1.52-20.92,6.15Z"/><path class="cls-3" d="M332.17,324.42s-17.24,1.47-21,6.09"/><path class="cls-2" d="M336.28,330.77l1-1.66,1.4,1.06-6.53-5.86s-17.24,1.47-21,6.09l0,.18,3.76,10.34s4.65,7.94,3.6,12.14l.08.14a4.8,4.8,0,0,1,4.38,2.88c2.9,5.49,7.81,17.36,11.29,5.21,3.19-11.16,7.93-11.93,8.69-12l.05-.05C343.84,345.29,343.45,338.74,336.28,330.77Z"/><path class="cls-1" d="M261.07,330.21l-.63-.15c-10.1,6.31-6.05-7.55-6.05-7.55l0-.16c-3.48-.29-6.66-8.68-6.66-8.68a18,18,0,0,1-1.15-12.73c2-6.94-1.44-5.5-1.44-5.5-3.19,3.18-14.19,2.31-14.19,2.31s-9-5.5-11.86-5.5-9.54,0-14.75-1.16-10.13-2.61-10.12-7.23-2.9-3.77-2.9-3.77a4.32,4.32,0,0,1-6.36-.58h-.12a60.37,60.37,0,0,0,2.33,20.86v1.33l-10.35,14.68-15,7V330l.3.19s5.13,7.38,11.26,5.88c0,0,4.38-.12.62,3.63s-.75,4.88,5,3.51c0,0,2,.12,3.38,3.5s1.87,2.5,5.25-.87,11-3.5,13.52-2.62l.37-.26s7-8,8.77-9.76a4.41,4.41,0,0,1,3.5-1.49c-1.5,6.25,1,7.75,6.5,4.5s5.26,2.26,5.26,2.26c1.5,14,13.76,13,13.76,13,2.66-1.94,5.13-4.5,6-8.26l8.76-6.5s1.76-.78,5.76.75C262.93,338.65,261.22,331.62,261.07,330.21Z"/><path class="cls-4" d="M311.69,330.83l-8.83-11.36s-12.83-2.53-15.14-.63a54.18,54.18,0,0,1-5.47,3.78c-8.62-.63-9.89,5.26-9.89,5.26-2.94,10.93-5.25,2.52-5.25,2.52-2.52-5.47-5.9-.61-5.9-.61s2.09,9-1,7.78c-4-1.53-5.76-.75-5.76-.75l-8.76,6.51c-1.75,7.51-11.51,11.51-11.51,11.51l-2.51,1.75-.5,2.25-3,2.75c-4.76,1.75-.76,10.51-.76,10.51s.76,1.51,1.76,1.5,6.75,2.51,6.75,2.51,10.26,9.51,13.26,11.52,2.76,5.25,2,8c-.68,2.48-2.1,9.8-2.38,11.26l2.75.27,5-1.66-1-18v-4.67l1.33-1.34.67,1.67v4.67l1.33,1.34,5.34-2v2l-5.34,4,1.33,4s7,4.33,8.34,5.67,6-1.33,6-1.33l2.67-5.34,2.67-1,3.67-6,7-.66a10.5,10.5,0,0,1,2.67,7s2.33,2,6-1.33c0,0,2.34-4,3.67-4,0,0-.32-14,1.68-17.69,0,0,4.67-2,1.67-7.33v-4.68l-1-7.67.34-1.34,1.66-1,.67,7.68s.1,5.27,1.46,7.18l0-.21c4.31-2.29,4.58-8.89,5.39-10.11S319,352.7,319,352.7c1-4.2-3.57-11.36-3.57-11.36Z"/><path class="cls-2" d="M477.23,280.12,469,275.54l-2-2.75-1.51-.25-2.25.5-2.75.5c-7-3-10.76,1.49-10.76,1.49l-9.52,1-.25,4.26-1.25,2-1.25,2.5c-.76,8.51-5.26,1.5-5.26,1.5s.25-.75-1.75-5.76-7.75-8.75-7.75-8.75c-8,0-1.75-4-1.75-4,6-10.26-4-8.51-4-8.51l-1.76-1.75c-2.5-5,.51-4.76-8.75-7.76-5.71-1.86-7.33-7.9-7.55-13.9l-.16-.19s-4.09-5.18-7.59-4.19-14.25-.58-14.25-.58c1.12,2.38-.26,9.88-.26,9.88s-3,2-11.27,8-1.75,10,6.13,17.77-6.14,12-6.14,12,.5,11.64-.37,12.76a13.31,13.31,0,0,0-1.51,3.88,47.49,47.49,0,0,0,9.2.72c5.84-.5,9,3.67,9,8l1.34.83,5-.66s1,.83,1.67,5.5a47.12,47.12,0,0,1,.06,9.18l.33.33s1.4.47,5.15-.78,9,1,10.76,7.51c0,0,2.33,2.51,8.68,1.51l.14.39,7.21-2.95,5.33-.67,2.68-3.33s6,1,1,4c0,0-5,6.67-1.67,13.35a11.45,11.45,0,0,0,8-.67s1.53,3.3,2.77,3.74l1.34-1.68a20,20,0,0,0,.23-3.39l1.34-2.67s6.67-2-2.67-5.34c0,0-4.67-3.67,2.67-3.67l2.67,4.34s2.32,2.57,4-3.6l-.43-.22-5-6.51c-8-11,1.25-12.51,1.25-12.51a67.26,67.26,0,0,0,18.27-9.26s7.36-8.15,13.26-16.28Z"/></svg>