<svg id="图层_1" data-name="图层 1" xmlns="http://www.w3.org/2000/svg" viewBox="0 0 651.51 651.51"><defs><style>.cls-1{fill:#1a1a1a;}.cls-1,.cls-2,.cls-3,.cls-4{stroke:#545555;}.cls-2{fill:#761b1d;}.cls-3{fill:#00324b;}.cls-4{fill:none;}</style></defs><title>廣西</title><path class="cls-1" d="M519,427.41l4.49.56.56-1.12v-7s2.19-1.31,8.29-2.39V417s.9-12-5.39-12.87l-2.39-2.7s2.1-7.48-3.59-9V387.4s7.18-16.17-1.8-9.88l-6.88-4.19s-7.78-.6-10.18,0-6.59,7.78-6.59,7.78l-10.17-.3s-3.29,9.28-3.29,13.17-1.8,4.79-5.39.9a14.09,14.09,0,0,0-8.68-4.19l-4.79-3.29-4.19-.31-2.4-1.19s-9-9.28-7.48,7.48c0,0-.3,2.7-5.39,4.19,0,0-1.2,3.89,3,7.19s0,4.79-3,4.79c0,0-6.88,4.79-7.78,8.08l-.15.54a29,29,0,0,1,1.65,2.75l2.09,3.29s3,2.4,7.19-2.09c0,0,7.18-3,7.48,5.38,0,0-3.29,9.59-1.5,15.87s-1.49,5.39-4.19,2.09c0,0-8.08-6.88-15.86,6.29,0,0-.9,13.47-.3,17.66a33.68,33.68,0,0,1,0,8.38s5.39,3.89,10.18.6c0,0,2.39-.6,1.19,6s-2.87,14.3,5.81,18.5h0l-.16-1.67s.28-2.53,3.65.28c0,0,11.78,4.49,10.94-16.56,0,0,.28-3.64,3.93-3.08s8.42-.56,9.82-3.09,6.74,2,6.74,2l3.36-2.52,8.14-.28s5.61-.84-.56-6.74l-.56-10.66-1.68-5.89,10.1.56s2.52,2.52,7.29-2.24c0,0,3.93,10.38,7.86-5.9l2.24-1.4s8.7,2.24,3.09-5l-4.49-8.42-.28-2v-2.8Z"/><path class="cls-1" d="M325.7,509.91s9-5.05,6.73,3.37l-.84,4.21s7.29-2,5.33-11.23c0,0,4.21-5.33,4.49-1.68l-.28,3.93,3.93-3.65s5.05-2.25.56,4.77c0,0-5.33,7,2,4.77,0,0,7-1.69,8.14-8.7,0,0,1.69-3.65-3.09-2.53,0,0-4.77,2.25-1.12-2.52,0,0,5.33-3.09.28-7.3l-.26-2.8h0L347,484.93l-14.59-.56-7-6.17c3.93-2.81,1.4-7.58,1.4-7.58-1.86-7.44,4.58-9.34,5.53-10.08l.1-.11s-4.19-5.69-11.07-5.69a6.06,6.06,0,0,1-3.3-3.59c-.89-2.7-5.09-3.59-6.88-3l-.09,0c-1.57.66-3.37,4.76-3.37,4.76-.28,8.41-10.67,7.29-19.65,9.53s-7,4.78-7,4.78c5.89,7,0,10.94,0,10.94a14.62,14.62,0,0,0-3.65,13.47c2,8.14-7,17.4-7,17.4l0,.31a14,14,0,0,1,5.86,3.06c3.93,3.08,10.66-1.13,12.91-3.65s9.54-4.5,13.75,1.4c0,0,7.85,6.45,12.34,4.21,0,0,5.34.56,5.89,2.53h3.37s1.13-.85-.84-2-.56-1.12-.56-1.12S322.33,510.47,325.7,509.91Z"/><path class="cls-1" d="M258.82,376.32s8.38,0,11.37,1.79,4.79-4.19,4.79-4.19.9-2.09,5.39-.9c0,0,3.59,2.1,5.09-4.79,0,0,3.29-1.79,5.39-1.79,0,0,8.68-8.08-.91-8.08,0,0-5.38.9-5.38-3.89,0,0,6.88-.3,6.88-6l11.38-3s5.39-5.39,3.29-11.08c0,0,3-12.27,16.16-8.08,0,0,7.19,1.8,8.08-12.87,0,0,.3-6.88,9.28-4.79l-1.49,5.09a13,13,0,0,1,0,7.18s-.3,18.86,11.67,10.48,13.47-7.78,13.47-3.89c0,0,.9,3,3.29,3,0,0-3.89,6.59,2.4,13.77a55.29,55.29,0,0,1,9.28,15.27s14.06,1.79,19.75,8.08,5.09,11.67,5.09,11.67,8.08,3.59,8.08,6.59a37,37,0,0,0,1.2,7.48s12.27.9,10.18,9l.89,1.79s3.6-1.19,3.6,1.5,2.69,6.29,2.69,6.29,1.2,4.49-4.19,4.79l-6.29,3.89s-7.48-2.1-11.37,6.29c0,0,1.2,5.68-8.38,3,0,0-26.34-1.8-35.62,3,0,0-6,8.68-10.18,6,0,0-1.79,27.83-11.07,17.66a20.73,20.73,0,0,0-10.18,3.89s-4.19-5.69-11.07-5.69a6.06,6.06,0,0,1-3.3-3.59c-.89-2.7-5.09-3.59-6.88-3,0,0,6.88-4.19-3-14.67,0,0-.9-2.7,3.29-4.49s6.88-10.48-.6-9c0,0,3-13.77-11.07-12.87,0,0-6-1.8-9.28-5.39s-8.68-8.38-7.19-.9c0,0,2.1,4.19-4.49,2.1a23.41,23.41,0,0,0-8.38,4.49s-3.89,2.69-2.1-5.69,0-12-7.18-11.67C261.21,390.09,256.12,388.89,258.82,376.32Z"/><path class="cls-2" d="M538.48,220.08l-.64,1.92s-12.63,7.57-10.94-16.84c0,0,3.93-4.21,7.57-4.21,0,0,4.21,0,4.21-8.7,0-5.89,9.54-9,9.54-9s2.53-2.52,2.53-12.91-.28-16.83-.28-16.83,7-9.26,9.26-9.55,2.52-8.41-8.42-5c0,0-4.21,9-9.26.28s1.12-14.31,1.12-14.31l-.28-7.29s6.46-9.26-2.24-9.83c0,0-2.25,1.13-7.3-2.24l-9.26-.28s-4.21-8.7-7-3.93c0,0,1.12,18.52-14.87,6.45,0,0-13.2-2.24-13.48,3.93,0,0,1.41,7.86-7.29,10.67s-6.74,13.47-6.74,13.47-3.93,6.73-9.26-.28c0,0,.56-8.7-7,.56,0,0-8.42.28-4.21-8.14s-9.82-9.54-14.31-2.81c0,0,1.4,10.39-6.18,12.35L433.45,149s-1.43.18-3.16.21a10.87,10.87,0,0,0,3,10.36c4.79,4.79,0,15.56,0,15.56V188s.6,18.26-6.29,21.55l-2.1,23s1.5,9,13.18,1.5l3.89.3,6.58,6.59,2.4.59s.59,4.49,7.78,4.2c0,0,12,5.38,5.09,14.36,0,0-2.4,3.59,3.89,3.89l2.69,3.59s2.1,7.79,13.47,6l.9-2.69s11.07,3.59,16.46-2.4l3.59.3s10.78,5.09,15.57-.9c0,0,4.49.3,1.8,7.49l3.59-3.89,6.58.3L533,265s7.19-5.69-1.19-12.27l-1.2-9.88,9.58-5.69S551.78,220.76,538.48,220.08Z"/><path class="cls-3" d="M598.74,309.55s2.24-2.81,1.68-4.49c0,0,2.24-4.77,7-6.45,0,0,2.24-3.09-1.13-7.86,0,0-12.91-13.19,2.53-21.61,0,0,12.06-6.74.28-13.19L601,243l4.21-7.58s7.86-4.77-4.21-5.33-17.12-.28-21.33,8.14-15.15,3.65-13.19-3.65a12.47,12.47,0,0,0-2.52-11.78l-.56-13.75s-.28-4.21-5.33-3.37a6.5,6.5,0,0,1-7-3.09,87.41,87.41,0,0,1-9.26,7.58l-3.29,9.88c13.14.75,1.6,17,1.6,17l-9.58,5.69,1.2,9.88c8.38,6.58,1.2,12.27,1.2,12.27l-.6,6.89-6.59-.3-3.59,3.89c2.69-7.19-1.79-7.49-1.79-7.49-4.79,6-15.57.9-15.57.9l-3.6-.3a9,9,0,0,1-1.33,1.22l.19.2,6.53,9.66s6.59,4.49,4.19,10.17c-3.24,7.7,3.6,10.78,3.6,10.78,6.88,2.1,11.07,8.38,12.57,14.07l2.69,10.17c.6-1.49,7.49-11.37,7.49-11.37,5.08-2.7,7.18-9.28,7.18-9.28,6.28-13.77,10.77.3,10.77.3,12.88,3.29,11.68-6.28,11.68-13.17s1.5-8.68,4.79-10.17,6.88-1.2,6,3.89a8.32,8.32,0,0,0,2.4,7.78c4.79,1.79,7.48,16.46,7.48,16.46l.54.72A44.62,44.62,0,0,1,598.74,309.55Z"/><path class="cls-2" d="M472.83,271.26l-.07-.06a8.32,8.32,0,0,1-2.33-3.54l-2.69-3.59c-6.29-.3-3.89-3.89-3.89-3.89,6.88-9-5.09-14.36-5.09-14.36-7.19.29-7.78-4.2-7.78-4.2l-2.4-.59L442,234.44l-3.89-.3c-11.68,7.48-13.18-1.5-13.18-1.5l2.1-23c6.88-3.29,6.29-21.55,6.29-21.55V175.17s4.79-10.77,0-15.56a10.87,10.87,0,0,1-3-10.36h0c-3.52.07-8.27-.47-4.7-4.42,5.34-5.9-2.8-8.42-7.57-7.3s-12.91-.84-12.91,9a19.42,19.42,0,0,1-3.09,4.77c-1.68,1.68-5.89,1.68-4.49,10.94,0,0-3.93,2.25-10.66-2S372,161.38,372,161.38s-10.95,6.46,1.4,5.05c0,0,6.74-6.17,4.49,5.61,0,0,8.14,10.67-1.68,9.27,0,0-10.95-3.93-14.59-1.41,0,0-9-9.26-11.51-2.8,0,0,3.09,6.73-4.21,8.14l.84,8.41s.68,3.59-.26,4.82c-.07,1.79.1,7.61,5.12,11.12,6,4.2,4.49,6.59,4.49,6.59s-.3,8.08,6,1.2c0,0,17.06-7.19,19.75-.6s-3,8.08-3,8.08-9.58,9.88,3.59,6.59c0,0,11.08-3.3,6.59,8.08,0,0-1.5,3.59-11.37,3.29,0,0-4.2,1.8-2.7,7.18,0,0,1.2,5.39-2.69,8.09s-5.09,9.28,4.49,7.48,8.08,2.69,5.08,6.29-9.57,6-8.38,11.37,3,13.17,12,13.17,11.07,5.39,11.07,5.39,2.1,1.79,4.19-3.89,6,12.57,6,12.57,6,6,12-1.8l1.2-8.38a12.19,12.19,0,0,1,7.78-6.28,12.29,12.29,0,0,0,7.78-6.89,24.59,24.59,0,0,1,9.58-4.49l5.39-4.49s4.79-2.1,3,4.49c0,0,.9,3,4.79-.6l5.69-.6S464.45,272.15,472.83,271.26Z"/><path class="cls-4" d="M339.63,308.67s4.49-2.39,6-2.39,3-11.68,3-11.68l4.19-2.69s7.19-17.36,11.67-14.07,4.5,5.09,4.5,5.09l4.48.3"/><path class="cls-3" d="M373.1,283.23l-4.49-.3s0-1.79-4.49-5.09-11.67,14.07-11.67,14.07l-4.19,2.69s-1.5,11.68-3,11.68-6,2.39-6,2.39l0,.12-1.46,5a13,13,0,0,1,0,7.18s-.3,18.86,11.67,10.48,13.47-7.78,13.47-3.89c0,0,.9,3,3.29,3,0,0-3.89,6.59,2.39,13.77a55,55,0,0,1,9.28,15.27s14.07,1.79,19.76,8.08l0-.14c.16-1,1.53-7.48,9.26-5.55,0,0,5.38.9,6.58-1.19H424l3.89-3.9L439,350s1.2-6.59,9.58-3.59c0,0,6.89-9.58,7.18-15.87,0,0,6.29-20.65,24.85-18l.6-6.88s-.6-5.39,3-8.68c0,0,13.71-14-.52-23.3l-.08-.05c-5.69.9-9.06-.6-11-2.32l-.07-.07c-8.39.89-9,10.17-9,10.17l-5.69.6c-3.89,3.59-4.79.6-4.79.6,1.79-6.59-3-4.49-3-4.49l-5.39,4.49a24.59,24.59,0,0,0-9.58,4.49,12.29,12.29,0,0,1-7.78,6.89,12.19,12.19,0,0,0-7.78,6.28l-1.2,8.38c-6,7.79-12,1.8-12,1.8s-3.9-18.26-6-12.57-4.19,3.89-4.19,3.89-2.1-5.39-11.08-5.39-10.76-7.61-12-13Z"/><path class="cls-3" d="M587.51,316.56l-.28-6.45.6-.11-.71-.73s-2.7-14.67-7.49-16.46a8.33,8.33,0,0,1-2.39-7.78c.9-5.09-2.7-5.39-6-3.89s-4.79,3.29-4.79,10.17,1.2,16.46-11.67,13.17c0,0-4.49-14.07-10.78-.3,0,0-2.09,6.58-7.18,9.28,0,0-6.88,9.88-7.48,11.37,0,0-1.2-4.49-2.7-10.17s-5.69-12-12.57-14.07c0,0-6.83-3.08-3.59-10.78,2.39-5.68-4.19-10.17-4.19-10.17l-6.62-9.79-.11-.06C493.88,274,484.45,271,484.45,271l-.9,2.69.12.07c11.22,7.35,5,17.66,1.89,21.63l.22,0c6,.06,2.26,13.57,2.26,13.57,6.29,7.49,11.38,4.79,11.38,4.79,2.69,0,5.68.9,3.89,4.19s-.6,13.17-.6,13.17c7.78,9.58,2.39,20.06,2.39,20.06s3.6,10.17,1.5,13.76a14.38,14.38,0,0,0-1.5,8.08v0c3.11,0,6.89.27,6.89.27l6.88,4.19c9-6.29,1.8,9.88,1.8,9.88v5.09c5.68,1.49,3.59,9,3.59,9l2.39,2.7c6.29.9,5.39,12.87,5.39,12.87l.24.43c.84-.15,1.76-.3,2.76-.44l2.24-.28,12.91-3.92s1.4-2-1.4-6.74l.84-1.4,8.7-1.4s10.1-9.27,10.38-12.35.84-9.26,3.93-10.95-.84-6.17-.84-6.17-4.21-6.45-3.09-24.69L578,329.47s.84-5.05,7-4.77C585,324.7,593.68,321.05,587.51,316.56Z"/><path class="cls-3" d="M397.82,368s.9-7.78,9.28-5.68c0,0,5.39.9,6.58-1.2h10.48l3.89-3.89,11.08-6.89s1.19-6.58,9.57-3.59c0,0,6.89-9.58,7.19-15.86,0,0,6.28-20.66,24.84-18l.6-6.89s-.6-5.39,3-8.68a18,18,0,0,0,1.38-1.62l.2,0c6.12,0,2.31,13.58,2.31,13.58,6.29,7.48,11.38,4.78,11.38,4.78,2.69,0,5.69.9,3.89,4.19s-.6,13.17-.6,13.17c7.78,9.58,2.4,20.06,2.4,20.06s3.59,10.18,1.49,13.77a14.32,14.32,0,0,0-1.49,8.08v0a16.47,16.47,0,0,0-3.3.26c-2.39.6-6.58,7.78-6.58,7.78l-10.18-.29s-3.29,9.28-3.29,13.17-1.8,4.78-5.39.89a14.09,14.09,0,0,0-8.68-4.19l-4.79-3.29-4.19-.3-2.4-1.2s-9-9.27-7.48,7.49c0,0-.3,2.69-5.38,4.19,0,0-1.2,3.89,3,7.18s0,4.79-3,4.79c0,0-6.89,4.79-7.79,8.08l-.52,0a23.12,23.12,0,0,0-5.61-5.63l-.15-.09s-2.69-3.59-2.69-6.28-3.59-1.5-3.59-1.5l-.9-1.8c2.09-8.08-10.18-9-10.18-9a37,37,0,0,1-1.2-7.48c0-3-8.08-6.58-8.08-6.58s.6-5.39-5.09-11.68"/><path class="cls-1" d="M450.29,509.91l-.68-7.05c-8.67-4.2-7-11.91-5.8-18.5s-1.2-6-1.2-6c-4.79,3.29-10.18-.6-10.18-.6l-.12.17-2.49,3.32-9,.28-4.49.85c-2-1.13-7.86-2-7.86-2s-5.05,7.86-9.26,5.05c-6.93-4.62-19.08,9.26-19.08,9.26v0l3.63,1.12-3.64,2.8s-2.53,2.81,1.68,5.34l3.93,4.49h9.82l6.17,1.68s4.77,3.93-.56,6.74-7.86,5.32.28,6.17,8.14-3.65,8.14-3.65,12.91,1.12,17.12-1.68l2.52-1.13h3.65s6.18-9-.56-12.35l-2.81-2s4.21.84,1.41-4.77l2.24-.28s8.7-9,3.65.84l-.28,3.93s2.53,10.39,5.61,5.33c0,0,4.77-5.89,3.09,0,0,0-4.77,7,1.4,8.7S454.5,516.36,450.29,509.91Z"/><path class="cls-1" d="M446.74,422.26c-4.19,4.49-7.18,2.1-7.18,2.1l-2.09-3.29a24,24,0,0,0-7.78-9l0,.19c.16.87.48,4.34-4.23,4.6l-6.29,3.89s-7.48-2.09-11.37,6.29c0,0,1.2,5.69-8.38,3,0,0-26.34-1.79-35.62,3,0,0-6,8.68-10.18,6,0,0-1.8,27.84-11.07,17.66a20.73,20.73,0,0,0-10.18,3.89l-.08.09c-.83.72-7.44,2.59-5.55,10.11,0,0,2.52,4.77-1.41,7.58l7,6.17,14.59.56,4.49,5.61.07,0-.31-3.27,3.09-3.09s1.4,0,1.4,3.09l1.12.84s5.9-1.68.85,5.05c0,0-.56,6.46,5.89.85l.84,4.48s5.62-.56,4.49,5.9c0,0-2,6.17,3.93,2.8a10.77,10.77,0,0,1,5.29-1,5.31,5.31,0,0,1,.88.19c2.81.84-2.8-3.37-2.8-3.37l-1.69-1.68.57-2,2.24-.28v-2.81l-.56-3.65,3.37,2,.07,0c1.19-1.34,12.41-13.51,19-9.14,4.22,2.81,9.27-5.05,9.27-5.05s5.89.84,7.85,2l4.49-.84,9-.28,2.62-3.49v-.11a33.61,33.61,0,0,0,0-8.27c-.6-4.19.3-17.66.3-17.66,7.78-13.17,15.86-6.29,15.86-6.29,2.7,3.29,6,4.19,4.19-2.09s1.5-15.87,1.5-15.87C453.93,419.27,446.74,422.26,446.74,422.26Z"/><path class="cls-1" d="M311.5,429c4.19-1.8,6.88-10.48-.6-9,0,0,3-13.77-11.07-12.87,0,0-6-1.8-9.28-5.39s-8.68-8.38-7.19-.9c0,0,2.1,4.19-4.49,2.1a23.41,23.41,0,0,0-8.38,4.49s-3.89,2.69-2.1-5.69,0-12-7.18-11.67c0,0-5.09-1.2-2.39-13.77l0-.09c1.8-5.18-3.79-13.12-6.93-9.72a23.93,23.93,0,0,1-8.15,5.26c-13.15-.79-16,1.84-16,1.84s-3.69,6.57-7.37,6.57-10,3.69-8.41,9.47-.79,8.15-.79,8.15c-4.47,3.42-5.26,12.1-5.26,12.1l-.3.42c4.74.31,12.15,1.84,9.81,8.67-3.36,9.82-7.85,14.59-13.18,15.71,0,0-6.46,0-2,17.68,0,0,9,4.49,8.7,12.91s-2.24,24.13,11.23,17.68c0,0,10.1,3.65,13.18,3.65s4.49,3.09,1.13,6.17c0,0,5.05,8.14,17.4,10.94l.83-1.4s4.5-2.8,7.58,4.77,4.49,4.21,6.74,2.81a4.6,4.6,0,0,1,3.4-.53c0-.2,0-.31,0-.31s9-9.26,7-17.4a14.62,14.62,0,0,1,3.65-13.47s5.89-3.93,0-10.94c0,0-2-2.53,7-4.78s19.37-1.12,19.65-9.53c0,0,1.87-4.25,3.46-4.79l.06-.05c.68-.46,6.25-4.75-3.05-14.62C308.21,433.49,307.31,430.79,311.5,429Z"/><path class="cls-1" d="M289.94,358.36s-5.38.9-5.38-3.89l-.1-.32a64.39,64.39,0,0,1-.46-7.89c0-6.31,7.89-3.94,7.89-3.94,8.42-6.84-15-16.57-15-16.57a16.87,16.87,0,0,1-7.62-2.63c-3.16-5.53-10.52-3.42-10.52-3.42l-2.9-.53c-2.36-4.2-8.67-7.1-8.67-7.1-3.42,3.15-6.05,2.1-6.05,2.1-2.37-8.15-10.78-4.2-10.78-4.2l-11.84-6.58V295.5c2.1-7.36,0-12.36,0-12.36l-5.26-10.78c.53-4.73-.79-6.05-4.21-7.63s-3.94-3.15,1-4.47,5.26-3.42-2.89-6.83-1.84-7.63.26-6.84,8.68,2.89,6.32-2.37a36.8,36.8,0,0,1-3.69-15c0-4.73-.78-8.15-5-5.52-3.74,2.33-12.25,2.18-14.1,2.12a32.2,32.2,0,0,0-8.71,7.11s-4.49.56-7.29.56-10.95-.56-6.74,12.07c0,0-13.47,21.89-18.24,14s-10.38-2-10.38-2-5.05-.84-8.14-4.49-15.72-4.77-15.72-4.77-5.05-12.63-18-10.66c0,0-6.73-12.63-12.9-2.53S74.27,256.23,67.81,253.7l-9,7s-6.45,7.86-9.82,1.41-11.23-8.15-11.5.56l-.29,4.77a18,18,0,0,1,4.49,13.18s14.88,18,12.07.57c0,0,6.45-8.42,16,2,0,0,16.84-3.09,20.49,7.3,0,0,.56,6.73,3.09,8.14A19.36,19.36,0,0,1,90,304.78s-.56,5.33,10.94,4.49c0,0,6.74,1.68,8.7,3.93s4.49.56,7.3-3.09,7.57-6.17,7.86,1.4c0,0,2,3.37,6.17-.28,0,0,4.21-.28,6.74,2.53,0,0,3.64,2,7-4.21s12.35-2,13.19.28.28,3.65,4.21,6.45,6.45,9.82,3.08,16.84l-.84,12.63s-7.57,23.29-13.47,13.47c0,0-6.17-4.49-12.35-.85a117.78,117.78,0,0,0-12.62,9s0,3.08,1.12,4.49c0,0,0,2.52-3.65,3.08s-7.58,5.33-5.05,9.82a11.46,11.46,0,0,1,.84,9s-1.4,3.37,13.19,1.69c0,0,4.77,4.21,5.89,7s7.3,7.3,14,2,18-2.25,24.42,5.61c0,0,7,3.37,12.63-1.68s12.62,2,12.62,2a30.3,30.3,0,0,1,3.41,0l.55-.4s.79-8.68,5.26-12.1c0,0,2.37-2.36.79-8.15s4.73-9.47,8.41-9.47,7.37-6.57,7.37-6.57,2.89-2.63,16-1.84a23.93,23.93,0,0,0,8.15-5.26c3.14-3.4,8.73,4.54,6.93,9.72l0,.09s8.76.23,11.37,1.79c3,1.8,4.79-4.19,4.79-4.19s.9-2.09,5.39-.9c0,0,3.59,2.1,5.09-4.79,0,0,3.29-1.79,5.39-1.79C290.85,366.44,299.53,358.36,289.94,358.36Z"/><path class="cls-1" d="M377.65,242.82c9.87.3,11.37-3.29,11.37-3.29,4.49-11.38-6.59-8.08-6.59-8.08-13.17,3.29-3.59-6.59-3.59-6.59s5.69-1.5,3-8.08-19.75.6-19.75.6c-6.29,6.88-6-1.2-6-1.2s1.5-2.39-4.49-6.59c-4.52-3.16-5.11-8.2-5.13-10.48-.77,1-2.61.43-6.74-4.83,0,0,.28-3.93-9-3.93,0,0-7.3-9.26-10.1-3.37s-9.27,3.93-9.27,3.93l-.84,15.43s.56,4.21-7,5.9l-14.87,5.33s-5.9,4.49-4.78-1.68-6.73-3.37-6.73-3.37a9.41,9.41,0,0,1-3.37-5.89c-.84-4.22-4.21.27-4.21.27s-10.1,15.16-13.47-2.24c0,0,1.41-8.42-5.33-5.89,0,0-3.37-5.61-4.21-11s-9.82-7.57-12.34-5.61-14,5.33-10.95,18.24c0,0-5.05,24.69-18.8,15.44,0,0-7.3,5.61-9.26,8.41,0,0-1.29.54-3.14,1.55,3,0,9.8-.12,13-2.14,4.21-2.63,5,.79,5,5.52a36.8,36.8,0,0,0,3.69,15c2.36,5.26-4.21,3.16-6.32,2.37s-8.41,3.42-.26,6.84,7.89,5.52,2.89,6.83-4.47,2.9-1,4.47,4.74,2.9,4.21,7.63l5.26,10.78s2.1,5,0,12.36v7.89L230.36,310s8.41-4,10.78,4.2c0,0,2.63,1.05,6.05-2.1,0,0,6.31,2.9,8.67,7.1l2.9.53s7.36-2.11,10.52,3.42a16.87,16.87,0,0,0,7.62,2.63s23.41,9.73,15,16.57c0,0-7.89-2.37-7.89,3.94a63.2,63.2,0,0,0,.48,8.07l.08.14s6.88-.3,6.88-6l11.38-3s5.39-5.39,3.29-11.08c0,0,3-12.27,16.16-8.08,0,0,7.19,1.8,8.08-12.87,0,0,.3-6.83,9.18-4.82l.1,0s4.49-2.39,6-2.39,3-11.68,3-11.68l4.19-2.69s7.19-17.36,11.67-14.07,4.5,5.09,4.5,5.09l4.32.29h.16c-1.19-5.39,5.39-7.78,8.38-11.37s4.5-8.09-5.08-6.29-8.38-4.79-4.49-7.48S375,250,375,250C373.45,244.62,377.65,242.82,377.65,242.82Z"/></svg>