<?xml version="1.0" encoding="utf-8"?>
<!-- Generator: Adobe Illustrator 24.0.2, SVG Export Plug-In . SVG Version: 6.00 Build 0)  -->
<svg version="1.1" id="图层_1" xmlns="http://www.w3.org/2000/svg" xmlns:xlink="http://www.w3.org/1999/xlink" x="0px" y="0px"
	 viewBox="0 0 650.8 650.8" style="enable-background:new 0 0 650.8 650.8;" xml:space="preserve">
<style type="text/css">
	.st0{fill:#1A1A1A;stroke:#545555;}
	.st1{fill:#761B1D;stroke:#545555;}
	.st2{fill:none;stroke:#545555;}
	.st3{fill:#00324B;stroke:#545555;}
</style>
<title>廣東</title>
<path id="_40364056" class="st0" d="M321.2,384.2c-2.3,2-12.3,6.5,0.5,6.8c5.1-5.6,1.8-8.8,0.8-9.2S322,383.5,321.2,384.2
	L321.2,384.2z M329.6,378.4c-8.7,1.8,4.6,4.3,5.8,3.7S337.9,376.6,329.6,378.4z M359.2,387.7c1.1-0.6-8.8-14.7-14.4-20.5
	c-0.9,1.1-2.3,1.8-3.7,1.8c4,8.2,5.1,2.9,7.7,6.7C354.1,384.4,346.1,394.1,359.2,387.7L359.2,387.7z M292,409.6
	c-2.1,8.4,10.2-10.6,5.2-11.4c-2,0.3-3.9,0.7-5.8,1.3c-5.1,5.3-9.8-2.3-12.6,5.4C283.5,412.1,287.9,402.8,292,409.6z"/>
<g id="g29933">
	<g id="g29928">
		<path id="_40546000" class="st0" d="M398,373.6c-1.8-0.8-3.8-0.9-5.7-0.3c-0.9,0.5-1.7,1.3-2.4,2.1
			C393,376.3,398.4,378.4,398,373.6L398,373.6z"/>
		<path id="_40545208" class="st0" d="M391.5,376.6h-6C383.4,388.6,393.3,377.2,391.5,376.6z"/>
		<path id="_40544016" class="st0" d="M381.3,387.7c4.2-3.9,0.6-7.2-0.6-5.4C379.5,384.7,380.4,385.9,381.3,387.7z"/>
	</g>
	<path id="_39122872" class="st0" d="M395,354.7c-20.6,9.9-4.8,14.4-2.4,9.6c1.2-2.7,2.7-3.3,3.6-6
		C395.6,357.4,396.3,356.2,395,354.7z M376.8,360.4c-3.3,1.2-14.4,6-3.6,6C379,366.4,381.7,363.7,376.8,360.4L376.8,360.4z M381,344
		c-0.3,1.8-10.8,26.4,11.7,9.6c9-6.6-0.6-0.9-1.5-8.4c0-0.7-0.2-1.5-0.6-2.1C387.5,344.1,384.2,344.4,381,344z"/>
</g>
<path class="st1" d="M103,512.6c0,0,16-9.3,8.7-17.3l-2-2.7c0,0-5.7-3.7-5.7-6.7l-4.3,1v-2.7l-1.3-0.3v-2l1.3-1.3h1.7l1.3,1
	c0,0,4.3-4.3,0.3-7c0,0-6-4.7-12.3-4l-1.3-0.3c1-4.9-0.5-10.1-4-13.7l3.3,1.7l2-1l0.3-6.3h1.3l0.3,3.3l1.3-0.3c0,0,4-5.7,7.3-0.7
	c-0.7,2.4-2.4,4.5-4.7,5.7c0,0-0.7,2.3,2,1.7c0,0,14.4-3.3,15,2s2.7,1.3,2-1l0.3-2.7l0.3-1.7c0,0,1.7-4-5.3-2.3l-2.3-1l-3-1.3
	l-2.7-0.7c0,0-5.3-2,3.3-5.3c0,0,2-5.7,0-8.7l-2.7-4h3.4l0.3-2.7l-2-1.7l-0.7-2.3v-1.7l1.7-0.7l0.3,1l1.3,2h3c0,0-5,7.7-0.3,5.7
	c0,0,6-3,2,4c0,0-7,4,1,5.3l-1.7,3.3l2.7,1.7l1.7,2c0,0,1.7,5.7,5.7-1.7l1-4.7l-0.3-3.3v-4l1-1.7c0,0,1.3-0.3,1.3,3.3l1.3,1.3
	l2.7-3.3c0,0,3-10.4,13.4-5.7l5.7-2l3.1-0.5c-3-2-6-4.2-8.7-6.5c-2-1.9-3.6-4.1-4.7-6.7c0,0-1.7-7.4-7,0.3s-15.3,3-15.3,3
	c-2.9-3.2-6-6.3-9.3-9c-5.7-4.7-1.7-14.4-1.7-14.4c4.3-4.7,3-6.7,3-6.7l-19.7,0.3H77l-4.7,14.7c0,0-6,7-12.3,2l-1.3,1.7l1.3,9.3
	c0,0,1.3-1.7,2.7,4c0,0,1,3.7,4.7,0.3h4l-0.3,4.7l-0.7,3l-1,1.3h-3l-4.3,0.3l-2.3,0.3c0,0,2,14-3.3,13.4l-3,0.3c0,0-1,4-0.7,5.7
	s3,5-0.3,9.3s-0.7,12,3.7,14.4c0,0,2,0,0.7,3.7c0,0-2.3,5,6.3,3.7c-0.5,1.2-1.7,2-3,2c0,0-7,0.3-2.3,3.7l3,2.7l1,1.3l2-0.7l-0.7,2
	l-1.7,4.3c2.4,0.3,4.7,1.5,6.3,3.3l1.7-2.3c0,0,2,4.3,5.3,4c0,0,2.3,0.3-0.7,5.3l2.3,0.7c0,0-2.7,5-4.3-1.7
	c-1.9-1.6-4.4-2.1-6.7-1.3c0,0-1.7,1,1,3.7c0,0,3,0.7,2,5.7c0,0-1.7,7.3,3.3,1.3c0,0,9.7-4.7,12.3,1.7c0,0,4.7,1,8-1.7l4.3,0.7
	C96.3,514.9,101,512.6,103,512.6z"/>
<path class="st2" d="M239.1,351.3c0,0-12.3,1-13.8-13c0,0,0.3-5.5-5.3-2.3s-8,1.8-6.5-4.5c-1.3-0.1-2.6,0.5-3.5,1.5
	c-1.8,1.8-8.8,9.8-8.8,9.8l-0.3,0.8c0,0-0.3,7-11.8,13.5s-12,7.5-13.5,17.5c0,0-6.5,3.5-5.3,8.3c0.6,2.6,1.5,5.1,2.5,7.5
	c0,0,10.3,1,5.3,11l0.8,2.3l2.3,4l0.8,10.4"/>
<path class="st2" d="M161.9,330c0,0,5.1,7.4,11.3,5.9c0,0,4.4-0.1,0.6,3.6s-0.8,4.9,5,3.5c0,0,2,0.1,3.4,3.5s1.9,2.5,5.3-0.9
	s11-3.5,13.5-2.6"/>
<path class="st3" d="M162.4,330.7L140,335c0,0-10.4,11-1.3,21.7c0,0,2.7,4.7-5.7,3.3l-8.3,5l-3.7,0.7c0,0-3,5.3-9.7,0
	c0,0-7.7-1-6.3,6.7s3,15.6,3,15.6s1.4,1.8-3,6.5c0,0-4,9.7,1.7,14.4c3.3,2.7,6.5,5.8,9.3,9c0,0,10,4.7,15.4-3s7-0.3,7-0.3
	c1,2.5,2.6,4.8,4.7,6.7c2.8,2.3,5.7,4.5,8.7,6.5l0.2,0.1l0.7-0.1c0,0,9.7-3.7,1.7-4h-2v-4.3c0,0,3.3-1,5,1.3s7.3,4.3,11,3l-2.3-2.6
	h4.7l3,2.7l-1.7,3.7l3-0.7l6-4.3l0.3-1.3l-2-0.7l-1.3,0.3l-0.3-1.3l2.3-1l2.7-0.3v-0.3l-0.8-10.1l-2.3-4l-0.8-2.3
	c5-10-5.3-11-5.3-11c-1-2.4-1.9-4.9-2.5-7.5c-1.3-4.8,5.3-8.3,5.3-8.3c1.5-10,2-11,13.5-17.5s11.8-13.5,11.8-13.5l-0.1-0.5
	c-2.5-0.9-10.1-0.8-13.5,2.6s-3.9,4.3-5.3,0.9s-3.4-3.5-3.4-3.5c-5.8,1.4-8.8,0.3-5-3.5s-0.6-3.6-0.6-3.6
	c-6.1,1.5-11.1-5.4-11.1-5.4L162.4,330.7z"/>
<path class="st2" d="M248.2,406.8c0,0,1.7-8.8,2.4-11.5s1-6-2-8s-13.3-11.5-13.3-11.5s-5.8-2.5-6.8-2.5s-1.8-1.5-1.8-1.5
	s-4-8.8,0.8-10.5l3-2.8l0.5-2.3l2.5-1.8c0,0,9.8-4,11.5-11.5l8.8-6.5c0,0,1.8-0.8,5.8,0.8c3.1,1.2,1.4-6.1,1.3-7.5"/>
<path class="st1" d="M344.9,366.5v-4l0.7-3l0.7-2.7l-2.3-1l-2-0.7l-0.7-1.7c0.8-1.3,1.4-2.7,1.7-4.2c-0.8,0-5.5,0.8-8.7,12
	c-3.5,12.1-8.4,0.3-11.3-5.2s-8.1-1.5-8.1-1.5c-2,9.5-5.2,10.7-5.2,10.7l-0.1,0.3c1.1,1.1,2.9,0.1,6-6.5c0,0,1.7,6-2.7,8.7l-1.7,2
	l-0.3,8.7c0,0,6.7,4,10.7,0.3c0,0,3.7,3,3.3-2c0,0,6.9-2.7,4.9-9l1.1,0C331,367.9,335.9,380.5,344.9,366.5z"/>
<path class="st2" d="M254.2,322.2c0,0-4,14,6.1,7.7c0,0,3.8-5.3,6.3,0.2c0,0,2.3,8.4,5.3-2.5c0,0,1.3-5.9,9.9-5.3
	c1.9-1.1,3.7-2.4,5.5-3.8c2.3-1.9,15.1,0.6,15.1,0.6l8.8,11.4l3.8,10.5c0,0,4.6,7.9,3.6,12.1"/>
<path class="st1" d="M389.7,309.9c-0.7-4.7-1.7-5.5-1.7-5.5l-5,0.7l-1.3-0.8c0-4.3-3.2-8.5-9-8c-4,0.2-8-0.2-11.9-1.3
	c-18.5-3.4-22.2,7.2-22.2,7.2l0,0c0,0,1,13.7,7.3,9l0.7,1c0,0-5.3,14.4,7.7,13.7l0,0c5.2-10.7,15-8.5,15-8.5s8,3,12.2,4.7
	c2.3,0.8,4.2,2.6,5.2,4.8l1.7,0.3l1.2-5.7C390,317.6,390,313.8,389.7,309.9z M338.6,302.1c0,0-0.2,1.1-0.2,2.7L338.6,302.1z"/>
<path class="st2" d="M301,154.6c0,0,4.5,1,0.2,5.5s-9.5,15.8-5.5,20s8,12,11.5,8.3c0,0,7-4.3,9.5-0.2s11,3,13.8,2.8
	s14.8-2.2,14.8-2.2l14,10.8l3.7,12.5l-2.8,5.5l-1.5,6l-2.5,4l2.4,7.9"/>
<path class="st1" d="M358.6,235.3l0.1-0.1l-2.4-7.8l2.5-4l1.5-6l2.8-5.5l-3.7-12.5l-14-10.8c0,0-12,2-14.8,2.2s-11.3,1.3-13.8-2.8
	s-9.5,0.2-9.5,0.2c-3.5,3.8-7.5-4-11.5-8.3s1.3-15.5,5.5-20c3.8-4.1,0.6-5.3-0.1-5.5c-1.8,1.9-5.6,3.1-13.1,1.6c0,0-5.7-4-7-13.4
	l-2-1.7l-2.3-1l-14-7.4l-4.3,4l-1.7-3.7c0,0-5-1-7.3,0s-4.7,0-6,3.3s-4.3,11.7-0.3,18s-9.7,12-9.7,12s-15.4,9.3-4,20l1.7,1.3l0.7,4
	c0,0,9,6.7,1.3,11c-2.5,1.4-4.8,2.6-6.6,3.9l4.2,4.5c2.9-1.6,6.3-2.1,9.6-1.4l5.8,0.6l4.3-12.4c0,0,2,0,6.6,3.8s5.2,4.1,4,8.4
	s2.6,8.7,2.6,8.7c6.4,3.2,1.5,9,1.5,9c18.8,3.5,12.1,13.3,12.1,13.3l2.6,6.9l1.1,3.5c6.4,0.6,4.9,6.4,4.9,6.4l0.9,2.6
	c0.2,0.6,0.5,1.2,0.9,1.8l11.1,8.7l0.4,0.2c0,0,5.3-4.6,9-4.6c2,0.1,4-0.3,5.9-1c0,0,3.4-5.4,6.9-9.9s10.4-6.4,10.4-6.4
	c4.3,2.6,9.6,3.1,14.4,1.5C348.4,242.2,358.6,235.3,358.6,235.3z"/>
<path class="st3" d="M248.9,388c-3-2-13.3-11.5-13.3-11.5s-5.8-2.5-6.8-2.5s-1.8-1.5-1.8-1.5s-4-8.8,0.8-10.5l3-2.8l0.5-2.3l2.5-1.8
	c2-0.9,3.8-2,5.5-3.3v-0.1c0,0-12.3,1-13.8-13c0,0,0.3-5.5-5.3-2.3s-8,1.8-6.5-4.5c-1.3-0.1-2.6,0.5-3.5,1.5
	c-1.8,1.8-8.8,9.8-8.8,9.8l-0.3,0.8c0,0-0.3,7-11.8,13.5s-12,7.5-13.5,17.5c0,0-6.5,3.5-5.3,8.3c0.6,2.6,1.5,5.1,2.5,7.5
	c0,0,10.3,1,5.3,11l0.8,2.3l2.3,4l0.8,10.4l0.2,0.6h1.4l0.7-3l1.7,1.3l0.7,3l9.3,0.3l0.7-2.7h1.3l3.7,2l1-2.3v-1.7
	c0,0,1-2.7,6.7-1.7c0,0,3.7-7.3-1.7-9.3l-3.3-2.3l1-1.3c0,0,3,3.7,5.3-0.3l5,0.3l1.3,3l-1.3,2v1.3l2.7,0.7l1.3,0.7l1,1l-2,1
	l-1.7,0.3c-1.8,1.9-2.9,4.4-3,7l2,0.7l5.3-3.7c0,0,13-0.7,2.3-5.7c0,0-6-3.3,2-7l8.7-1.3l4.3-2l4-3.3c0,0-3.3,13,5,10.7l0.5,0
	c0.4-2.1,1.7-8.5,2.3-10.9C251.7,393.3,252,390,248.9,388z"/>
<path class="st2" d="M377.6,231.2c0,0,9.9,1.3,13.4,0.3s8,4.5,8,4.5"/>
<path class="st1" d="M407.1,211.5c-1.5,5-5.3,5.3-9.5,3s-9.5-11.3-0.5-14.5s6.3-11.8,6.3-11.8v-0.5c-0.9-0.4-1.7-1-2.3-1.8
	c-3.3-4.3-9.3-7.3-11-7.7s-3.7-3.3,2-5s7.3-9,7.3-9l4.7-4c0,0-8-4,6.4-13.7c0,0,18.4-4.7,13-12c0,0-0.7-4.7,2.3-7.3
	s-5.7-5.7-5.7-5.7s-4.7-8.3-14.7-2.7s-7.4,9-21,4c0,0-14.4,14.7-7.3-0.7c0,0,0-9.3-11-8c0,0-5.7,3.3-5.3,7.7c0,0-0.7,1.3-4.7,0.3
	s-11,1.7-11,1.7l-1.7-0.7c0,0-1.7-2-2.7-2c-1.1-0.1-2.2-0.3-3.3-0.7c-1.7-0.3-5.7-1.7-5.7-1.7s-2.7-3.3-4.7-6s-15-6.3-15.7,2
	c0,0,0.7,2.3-7.3,4.7s-18.4,6.3-6.7,10c11.7,3.7,4.3,8,4.3,8l0.7,10c0,0,1.4,4.5-1.4,7.2l0,0c0,0,4.5,1,0.3,5.5s-9.5,15.8-5.5,20
	s8,12,11.5,8.3c0,0,7-4.3,9.5-0.3s11,3,13.8,2.8s14.8-2.3,14.8-2.3l14,10.8l3.8,12.5l-2.8,5.5l-1.5,6l-2.5,4l2.4,7.9l0.2,0.1l5-3.1
	l13.8-1h0.2c0,0,9.9,1.3,13.4,0.3s7.8,4.5,7.8,4.5l0.2-0.1c0-3.2,0.2-6.5,0.6-9.7c0.8-7,6.3-6,6.3-6c4.1-1.4,7.4-4.4,9.3-8.3
	C418.7,205.5,407.1,211.5,407.1,211.5z"/>
<path class="st2" d="M585.2,202.5c0,0-3,6.5-8.3,7.8c0,0-10,17-19.3,21.3c0,0-2.8,2.5-2.5,8.5c0,0-14-3.8-21.8,9.3l-3.2,2.8
	c0,0-4-0.3-8.5-0.8s-12.5,0.5-13.5,0.8s-5.3,2.3-5.3,6.3s-5,3.8-8.3,3.8c0,0-7.5,3.3-13.3,12.8S464.1,297,464.1,297
	c-5.6,4-11.7,7.1-18.3,9.3c0,0-9.3,1.5-1.3,12.5l5,6.5"/>
<path class="st2" d="M389.5,319.5c0,0,2,0.5,5.8-0.8s9,1,10.8,7.5c0,0,2.3,2.5,8.7,1.5"/>
<path class="st1" d="M414.9,327.7l-0.2,0c-6.3,1-8.7-1.5-8.7-1.5c-1.8-6.5-7-8.8-10.8-7.5s-5.1,0.8-5.1,0.8h-0.4
	c-0.1,1.3-0.2,1.9-0.2,1.9l-1.2,5.7l-1.7-0.3c-1-2.3-2.8-4-5.2-4.8c-4.2-1.7-12.2-4.7-12.2-4.7s-9.8-2.2-15,8.5v0.1h2.7
	c0,0,1.7,10,9,16c0,0,2,2.7,0.7,5h1.7c1.3-2.5,4.4-3.4,6.9-2.1c0,0,0.1,0,0.1,0.1c4.7,2.3,14.7-2,14.7-2l13.4-3.7
	c0,0,6.7-0.3,6.7,8.7c0,0,4.3,3,7.7-2s-4.7-5.7-4.7-5.7s-3-0.7,2.7-3.3c0,0,6-3.3-1-3.7c0,0-5.3,1,0-5.3L414.9,327.7z"/>
<path class="st2" d="M484.9,175.1c0,0-7.3,4.5-2.8,9.8s4.5,13,4.5,13s5.5,11.8-2,10.8l-2.3,2.3c0,0-2,5.3-5.8,5.3
	c0,0,1.3,10.3-2.5,16.8s-7.5,9.8-0.3,12s3.8,8.8,3.8,8.8s0.1,17.2,4.9,19.3"/>
<path class="st2" d="M492.8,262.6c0,0,3.5,11.4,9.8,10.6c0,0,4.7-1.2,2,3.5l0.4,2.4c0,0,2,3.1-1.6,3.1c0,0-5.1,3.1,0.8,6.3l4.7,1.6
	c0,0,5.9,0,4.7,12.6c0,0,3.5,3.9,8.2,3.9l7.5,2l3.9-0.8l3.1-2.4l2.8-0.8l1,1.5"/>
<path class="st2" d="M545.8,239.9l5.5,5.9c0,0,8.3,2.8,9,11.4c0,0-0.2,7.1,8.4,9"/>
<path class="st3" d="M585,202.2l0.2-0.5c-0.8-1.9-1.9-4-1.9-4l-5.7-10.7l-3.3-4.7c0,0,6-13.4-8.7-8.3c0,0-11.7,10.7-12.7-1.7
	c0,0,0.3-2.3-4-4.7c-2.5-1.4-4.1-4.1-4-7c0,0,0.7-3.3-5.3-1s-11.7-0.7-11.7-0.7l-8.3,1c0,0-4-9-8.3-4.7c0,0-4.3,5-6.7,1.3
	c-4.2,6-5.2,13.8-2.7,20.7c4.3,11.7-8.4,6-10.4,2.7l-4.7-1l-1.7-1.7c0-0.9,0-1.7-0.2-2.6l-0.3,0.1c0,0-7.3,4.5-2.8,9.8
	s4.5,13,4.5,13s5.5,11.8-2,10.8l-2.3,2.3c0,0-2,5.3-5.8,5.3c0,0,1.3,10.3-2.5,16.8s-7.5,9.8-0.3,12s3.8,8.8,3.8,8.8
	s0.1,17.2,4.9,19.3h0.2c5.6-8.2,11.9-11,11.9-11c3.3,0,8.3,0.3,8.3-3.8s4.3-6,5.3-6.3s9-1.3,13.5-0.8s8.5,0.8,8.5,0.8l3.3-2.8
	c7.8-13,21.8-9.3,21.8-9.3c-0.3-6,2.5-8.5,2.5-8.5c9.3-4.3,19.3-21.3,19.3-21.3C582,208.7,585,202.2,585,202.2z"/>
<path class="st1" d="M477.1,280.4c1.5-2,2.8-4,4-5.9c0.4-0.7,0.8-1.1,1.2-1.7l-0.3-0.2c-4.9-2.1-4.6-19.1-4.6-19.1s3.5-6.5-3.8-8.8
	s-3.5-5.5,0.3-12s2.5-16.8,2.5-16.8c3.8,0,5.8-5.3,5.8-5.3l2.3-2.3c7.5,1,2-10.8,2-10.8s0-7.8-4.5-13s2.8-9.8,2.8-9.8l0.1-1
	c-1.3-4.4-6.1-10.4-24.6-1.3l-9.7,0.7c0,0-9,2-13.7,9.3l-3.3-0.7c0,0-5.7-2.3-8,2c0,0-5.3-1.7-13.3,3.3c0,0-5,1.9-8.7,0.4l-0.1,0.1
	c0,0,2.8,8.5-6.3,11.8s-3.8,12.3,0.5,14.5s8,2,9.5-3c0,0,11.5-6,8,0.8c-1.9,3.9-5.2,6.8-9.3,8.3c0,0-5.5-1-6.3,6s-2.3,21,7,24
	s6.3,2.8,8.8,7.8l1.8,1.8c0,0,10-1.8,4,8.5c0,0-6.3,4,1.8,4c0,0,5.8,3.8,7.8,8.8s1.8,5.8,1.8,5.8s4.5,7,5.3-1.5l1.3-2.5l1.3-2
	l0.3-4.3l9.5-1c0,0,3.8-4.5,10.8-1.5l2.8-0.5l2.3-0.5l1.5,0.3l2,2.8l7.5,4L477.1,280.4z"/>
<path class="st0" d="M606.3,256.4l-12-15l-5-13c0,0-3-5-3-6s0.7-4.7,0.7-4.7l2-4.7l0.3-3c0,0,0.7-1.7-0.3-2.7s-2.3-1.7-3-3.7
	c-0.1-0.4-0.3-0.9-0.6-1.4h-0.3c0,0-3,6.5-8.3,7.8c0,0-10,17-19.3,21.3c0,0-2.8,2.5-2.5,8.5c-2.9-0.6-5.9-0.7-8.9-0.1l-0.3,0.2
	l5.3,5.7c0,0,8.2,2.8,9,11.4c0,0-0.2,7.1,8.4,9l0.5-0.6c1-1.4,1.6-3.6,1.4-7l0.8-2.4l10.2-7.1l5.1,3.1l-0.8,9.5l-0.3,1.8l0.4-1
	c0,0-0.3-1,1-0.7c1.3,0.2,2.7,0.3,4,0.3l1.7,0.3c0,0-0.3,2.3-1.3,3s-4,3-4,3l2.7,1.3c1.7-0.2,3.3-0.2,5,0c1.3,0.2,2.7,0.3,4,0.3
	l3.3-1.3l0.3-3l12,1.4L606.3,256.4z"/>
<path class="st3" d="M582,249.2l-10.2,7.1l-0.8,2.4c0.3,4.4-0.3,6.3-1.8,7.6h-0.4c-8.6-2-8.4-9-8.4-9c-0.8-8.6-9-11.4-9-11.4l-5-5.7
	L546,240c-5.3,1.1-9.9,4.5-12.6,9.3l-3.2,2.7c0,0-4-0.3-8.5-0.8s-12.5,0.5-13.5,0.8s-5.3,2.3-5.3,6.3s-5,3.8-8.3,3.8
	c-0.5,0.3-1.1,0.5-1.6,0.8l-0.2,0.4c0,0,3.5,10.8,9.8,10c0,0,4.7-1.2,2,3.5l0.4,2.4c0,0,2,3.1-1.6,3.1c0,0-5.1,3.1,0.8,6.3l4.7,1.6
	c0,0,5.9,0,4.7,12.6c0,0,3.5,3.9,8.3,3.9l7.5,2l3.9-0.8l3.1-2.4l2.8-0.8l1,1.5h2l7.3,1.7h5l2.7-2.7v-2.7l3-0.7c0,0,2.7-2,0.7-7.3
	l-0.3-3c0,0,4.7-4.3,1-5l-0.7-1.7l4.3-2.3l0.7,4.7l3.3-1.3l5.3-6l-0.3-2l-1.3-1.3l-1.7-1.7c0,0-0.6-0.6-1.3-1.2
	c1.6,0.8,4.1,1.1,7.7-0.2l1.3-2.3l4.3-5.3l2-1.7l0.7-1.7c0,0-0.2-0.7,0.5-0.7l0.8-9.3L582,249.2z M568.5,272.8c-1-0.3-5.3-1-5.3-1
	l-1.3-1.3h5C567.2,271.4,567.8,272.2,568.5,272.8L568.5,272.8z"/>
<path class="st1" d="M585.2,264.1l0.7-1.7c0,0-0.1-0.4,0.1-0.6l0.8-9.5l-5.1-3.1l-10.2,7.1l-0.8,2.4c0.8,12.2-9,9-9,9l-6.3-5.5
	c-7.1-2.4-13.3,3.5-13.3,3.5c0,1.6-0.1,3.2-0.4,4.7c-0.3,2.5-0.4,5-0.4,7.5v7.9c0,0,2,2.8,9.4,5.1c6.8,2.2,10.4-3.4,10.9-4.3
	l-0.7-1.7l4.3-2.3l0.7,4.7l3.3-1.3l5.3-6l-0.3-2l-1.3-1.3l-1.7-1.7c0,0-0.6-0.6-1.3-1.2c1.6,0.8,4.1,1.1,7.7-0.2l1.3-2.3l4.3-5.3
	L585.2,264.1z M568.5,272.8c-1-0.3-5.3-1-5.3-1l-1.3-1.3h5C567.2,271.4,567.8,272.2,568.5,272.8L568.5,272.8z"/>
<path class="st3" d="M540.1,306.2l-1-1.5l-2.8,0.8l-3.1,2.4l-3.9,0.8l-7.5-2c-4.7,0-8.3-3.9-8.3-3.9c1.2-12.6-4.7-12.6-4.7-12.6
	l-4.7-1.6c-5.9-3.1-0.8-6.3-0.8-6.3c3.5,0,1.6-3.1,1.6-3.1l-0.4-2.4c2.8-4.7-2-3.5-2-3.5c-6.3,0.8-9.9-10.3-9.9-10.3l-0.4,0.2
	c-4.6,3-8.5,6.9-11.3,11.7c-5.8,9.5-17.3,22.3-17.3,22.3c-5.6,4-11.7,7.1-18.3,9.3c0,0-9.3,1.5-1.3,12.5l5,6.5l0.4,0.2
	c0.3-1.1,0.6-2.2,0.7-3.3l1-1.7l6.7,1c0,0,3,2.7,3-3c0,0,6,0,9.3-3v1.7c0,0-2,2.7-4.3,3.3v1.3c0,0,7.7-3,7.3,7c0,0,10.4,0.7,14.7,2
	c0,0,6.3-0.7-0.7-6.3l-0.7-1.7c0,0,14.7-18.4,13.4-11c0,0-5,3.3,0,4.3s8,4,7,8l7-3.3l7.3-3.3c0,0,8.3-2.7,3-6l-0.3-1.3h1l3.3,0.7
	l2,0.3l-0.7,1.3c0,0-4.3,5.3,1.3,4L540.1,306.2L540.1,306.2z"/>
<path class="st1" d="M363.7,232.2l-5,3.1c0,0-10.3,6.9-13.1,15.5c-4.8,1.6-10,1.1-14.4-1.5c0,0-6.9,1.9-10.4,6.4s-6.9,9.9-6.9,9.9
	c-1.9,0.7-3.9,1.1-5.9,1c-3.8,0-9,4.6-9,4.6l-0.4,0.4l2.4,2.3c0,0,1.5,14.5,3.8,8.6c3.7-9.5,9.3,1.5,9.3,1.5l1,14.1
	c2.4,3,4.5,6.3,6.3,9.7c-0.1,6.6,3.5,12.6,9.3,15.8l6.6,5.7l0.1-0.1l7,5.3l1.7-0.7l-1.3-2l-5-7.3l1.7,0.3c0,0,9.7,5,0.7-3.3
	l-4.7-4.7l1.3-14.7v0.3c0.5-1.2,4.8-10.2,22.1-7c0,0,0.9,0.3,2.3,0.6l0.4-0.4c0.3-1.4,0.8-2.7,1.5-3.9c0.9-1.1,0.4-12.8,0.4-12.8
	s14-4.3,6.1-12s-14.4-11.8-6.1-17.8s11.3-8,11.3-8s2.3-7.5,1.1-9.9L363.7,232.2z"/>
<path class="st2" d="M403.2,187.8c0,0,2.8,8.5-6.3,11.8s-3.8,12.3,0.5,14.5s8,2,9.5-3c0,0,11.5-6,8,0.8c-1.9,3.9-5.2,6.8-9.3,8.3
	c0,0-5.5-1-6.3,6s-2.3,21,7,24s6.3,2.8,8.8,7.8l1.8,1.8c0,0,10-1.8,4,8.5c0,0-6.3,4,1.8,4c0,0,5.8,3.8,7.8,8.8s1.8,5.8,1.8,5.8
	s4.5,7,5.3-1.5l1.3-2.5l1.3-2l0.3-4.3l9.5-1c0,0,3.8-4.5,10.8-1.5l2.8-0.5l2.3-0.5l1.5,0.3l2,2.8l8.8,4.8"/>
<path class="st1" d="M286.6,260.5l-0.9-2.6c0,0,1.5-5.8-4.9-6.4l-1.1-3.5l-2.6-6.9c0,0,6.7-9.8-12.1-13.3c0,0,4.9-5.8-1.5-9
	c0,0-3.8-4.3-2.6-8.7s0.6-4.6-4-8.4s-6.6-3.8-6.6-3.8l-4.4,12.4l-5.8-0.6c-3.3-0.6-6.6-0.1-9.6,1.4l-4.2-4.5
	c-3.9,2.7-5.9,5.8-3.4,11.4c3.7,8.3,1.7,12.4-3,12.7c0,0,1.3,12.4-14.4,10.7l-1.3,9.4l-1,1.3l-6.7,2.7c0,0-10.3,7.1-11.7,24.4
	c1.5,1.9,4.2,2.2,6,0.7c0.1-0.1,0.2-0.1,0.3-0.2c0,0,2.9-0.9,2.9,3.8s4.9,6.1,10.1,7.2s11.9,1.2,14.8,1.2s11.9,5.5,11.9,5.5
	s11,0.9,14.2-2.3c0,0,3.5-1.5,1.4,5.5c-1.2,4.2-0.8,8.8,1.1,12.7c0,0,3.2,8.4,6.6,8.7c3.5,0.3,9.8-1.5,9.8-1.5l7-7.8
	c0,0,6.4-2.9,9.3-4.1s10.1-9.5,3.8-19.1c0,0,4-7.5,0.3-13.9l-0.3-3.8C284,272.1,290.9,268.1,286.6,260.5z"/>
<path class="st1" d="M311.1,330.7l-8.8-11.4c0,0-12.8-2.5-15.1-0.6c-1.7,1.4-3.6,2.6-5.5,3.8c-8.6-0.6-9.9,5.3-9.9,5.3
	c-3,10.9-5.3,2.5-5.3,2.5c-2.5-5.5-6.3-0.2-6.3-0.2c-10.1,6.3-6.2-7.5-6.2-7.5l0.1-0.2c3.5,0.3,9.8-1.4,9.8-1.4l7-7.8
	c0,0,6.4-2.9,9.3-4s10.1-9.5,3.8-19.1c0,0,4-7.5,0.3-13.9l-0.3-3.8c0,0,5.8-3.1,3.5-9.4l0.1-0.2l10.9,8.5l2.5,2.3
	c0,0,1.5,14.5,3.8,8.6c3.7-9.5,9.3,1.5,9.3,1.5l1,14.1c2.4,3.1,4.5,6.3,6.3,9.7c-0.1,6.6,3.5,12.6,9.2,15.8l1.5,1.3v0.2
	C332.1,324.6,314.9,326.1,311.1,330.7L311.1,330.7z"/>
<path class="st2" d="M332.2,324.4c0,0-17.2,1.5-21,6.1"/>
<path class="st1" d="M336.3,330.8l1-1.7l1.4,1.1l-6.5-5.9c0,0-17.2,1.5-21,6.1v0.2l3.8,10.3c0,0,4.6,7.9,3.6,12.1l0.1,0.1
	c1.9,0,3.6,1.1,4.4,2.9c2.9,5.5,7.8,17.4,11.3,5.2c3.2-11.2,7.9-11.9,8.7-12l0,0C343.8,345.3,343.5,338.7,336.3,330.8z"/>
<path class="st0" d="M261.1,330.2l-0.6-0.1c-10.1,6.3-6.1-7.5-6.1-7.5v-0.2c-3.5-0.3-6.7-8.7-6.7-8.7c-1.9-4-2.3-8.5-1.1-12.7
	c2-6.9-1.4-5.5-1.4-5.5c-3.2,3.2-14.2,2.3-14.2,2.3s-9-5.5-11.9-5.5s-9.5,0-14.8-1.2s-10.1-2.6-10.1-7.2s-2.9-3.8-2.9-3.8
	c-1.8,1.6-4.5,1.5-6.1-0.3c-0.1-0.1-0.2-0.2-0.3-0.3h-0.1c-0.4,7,0.3,14.1,2.3,20.9v1.3l-10.4,14.7l-15,7v6.6l0.3,0.2
	c0,0,5.1,7.4,11.3,5.9c0,0,4.4-0.1,0.6,3.6s-0.8,4.9,5,3.5c0,0,2,0.1,3.4,3.5s1.9,2.5,5.3-0.9s11-3.5,13.5-2.6l0.4-0.3
	c0,0,7-8,8.8-9.8c0.9-1,2.2-1.5,3.5-1.5c-1.5,6.3,1,7.8,6.5,4.5s5.3,2.3,5.3,2.3c1.5,14,13.8,13,13.8,13c2.7-1.9,5.1-4.5,6-8.3
	l8.8-6.5c0,0,1.8-0.8,5.8,0.8C262.9,338.6,261.2,331.6,261.1,330.2z"/>
<path class="st3" d="M311.7,330.8l-8.8-11.4c0,0-12.8-2.5-15.1-0.6c-1.7,1.4-3.6,2.6-5.5,3.8c-8.6-0.6-9.9,5.3-9.9,5.3
	c-2.9,10.9-5.3,2.5-5.3,2.5c-2.5-5.5-5.9-0.6-5.9-0.6s2.1,9-1,7.8c-4-1.5-5.8-0.8-5.8-0.8l-8.8,6.5c-1.8,7.5-11.5,11.5-11.5,11.5
	l-2.5,1.8l-0.5,2.3l-3,2.8c-4.8,1.8-0.8,10.5-0.8,10.5s0.8,1.5,1.8,1.5s6.8,2.5,6.8,2.5s10.3,9.5,13.3,11.5s2.8,5.3,2,8
	c-0.7,2.5-2.1,9.8-2.4,11.3l2.8,0.3l5-1.7l-1-18v-4.7l1.3-1.3l0.7,1.7v4.7l1.3,1.3l5.3-2v2l-5.3,4l1.3,4c0,0,7,4.3,8.3,5.7
	s6-1.3,6-1.3l2.7-5.3l2.7-1l3.7-6l7-0.7c1.7,1.9,2.7,4.4,2.7,7c0,0,2.3,2,6-1.3c0,0,2.3-4,3.7-4c0,0-0.3-14,1.7-17.7
	c0,0,4.7-2,1.7-7.3v-4.7l-1-7.7l0.3-1.3l1.7-1l0.7,7.7c0,0,0.1,5.3,1.5,7.2v-0.2c4.3-2.3,4.6-8.9,5.4-10.1s4.2-2.3,4.2-2.3
	c1-4.2-3.6-11.4-3.6-11.4L311.7,330.8z"/>
<path class="st1" d="M477.2,280.1l-8.2-4.6l-2-2.8l-1.5-0.3l-2.3,0.5l-2.8,0.5c-7-3-10.8,1.5-10.8,1.5l-9.5,1l-0.3,4.3l-1.3,2
	l-1.3,2.5c-0.8,8.5-5.3,1.5-5.3,1.5s0.3-0.8-1.8-5.8s-7.8-8.8-7.8-8.8c-8,0-1.8-4-1.8-4c6-10.3-4-8.5-4-8.5l-1.8-1.8
	c-2.5-5,0.5-4.8-8.8-7.8c-5.7-1.9-7.3-7.9-7.5-13.9l-0.2-0.2c0,0-4.1-5.2-7.6-4.2s-14.3-0.6-14.3-0.6c1.1,2.4-0.3,9.9-0.3,9.9
	s-3,2-11.3,8s-1.8,10,6.1,17.8s-6.1,12-6.1,12s0.5,11.6-0.4,12.8c-0.7,1.2-1.2,2.5-1.5,3.9c3,0.5,6.1,0.8,9.2,0.7c5.8-0.5,9,3.7,9,8
	l1.3,0.8l5-0.7c0,0,1,0.8,1.7,5.5c0.3,3.1,0.3,6.1,0.1,9.2l0.3,0.3c0,0,1.4,0.5,5.1-0.8s9,1,10.8,7.5c0,0,2.3,2.5,8.7,1.5l0.1,0.4
	l7.2-3l5.3-0.7l2.7-3.3c0,0,6,1,1,4c0,0-5,6.7-1.7,13.4c2.7,0.7,5.5,0.5,8-0.7c0,0,1.5,3.3,2.8,3.7l1.3-1.7c0.2-1.1,0.2-2.3,0.2-3.4
	l1.3-2.7c0,0,6.7-2-2.7-5.3c0,0-4.7-3.7,2.7-3.7l2.7,4.3c0,0,2.3,2.6,4-3.6l-0.4-0.2l-5-6.5c-8-11,1.3-12.5,1.3-12.5
	c6.5-2.1,12.7-5.3,18.3-9.3c0,0,7.4-8.1,13.3-16.3L477.2,280.1z"/>
</svg>
