<svg id="图层_1" data-name="图层 1" xmlns="http://www.w3.org/2000/svg" viewBox="0 0 650.78 650.78"><defs><style>.cls-1{fill:#1a1a1a;}.cls-1,.cls-2,.cls-3,.cls-4{stroke:#545555;}.cls-2{fill:#761b1d;}.cls-3{fill:none;}.cls-4{fill:#00324b;}</style></defs><title>貴州</title><path class="cls-1" d="M269.86,345.47c-.09.51-.14.82-.14.82s-2.17,11.77-11.54,12.25-6.25.71-6-3.61-1.68-7.21-6.24-6.73c0,0-14,9.84-24.51,4.3,0,0-7.22,2.88-8.66,4.56s-5.77.24-5.77.24l0,.1s-1.09,4.4-8,8.64c-5.11,3.15,5.86,5.42,5.86,5.42s14.43,3.77,8.11,10.38l-3.31,4.2-8.57.14s-8.12,3.31-13.38,1.5a122.14,122.14,0,0,0-12.77-3.32l0,6.94s9,7.22,7,12.5c0,0,3.71,15.15,17.52,20,0,0,5.65,1.69,6.12,11.66s3.71,14.18,3.71,14.18l6.12,6.86s4,3.24,4.93-1.92,4.09-4.69,4.09-4.69,4.57-5.76,4.45-6.36,13.34-.35,8.89,7.1.35,7.33.35,7.33a31.41,31.41,0,0,1,11.88,12.86s2.76,4.09,10.1,2.65l.58-.14c-.18-4.49,1.61-10,7.36-15.87,10.46-10.68,1.21-13.57-2.88-12.73,0,0-22-3-6.11-22.36,14.68-17.88,1.94-17.53,1.94-17.53s-2.13-5.19,6.37-7.09c4.81-1.08,2.9-12.13,2.9-12.13s1.49-3.65,4.32.84c1.44,2.29,6.37-2.76,6.37-2.76s3.29-2.4,8.37,2.46l.23.14c13.52,1.66.31-16.54.31-16.54-7.52,1-8-11.58-8-14.28s-2.55-2-4.35-2.11-7.36-8.12-7.36-8.12Z"/><path class="cls-1" d="M269.93,345.09c.45-2.36,1.63-7.48,3.64-9.13,2.65-2.16,3.13-6.24-.71-9.37s1.45-3.6,3.85-3.6,4.33-2.88,4.33-2.88l1.44-1,1,1.44,1.44,1.45H287l3.84-.24s3.37,3.85,3.37,2.4,4.81-9.6,4.81-9.6c8.89,0,6.5-5.52,6.5-5.52-.71-16.83,9.86-14.89,11.06-14.89s5.05.24,6.49-1.92,7.93-4.8,8.9-4.8a29.53,29.53,0,0,1,4.56,1.21l.94.35.72,5.72s1.2,5.72,8-2.54c0,0,2.1-3.31,6.91,4.06,0,0,2.4,2,4.81-1.19s3.77-8.27,10.38-1.95c0,0,9.27.67,11.4-.94l.07,0-.07,0s-1.33,4.81-4.93,5.88-3.61,3.49,1,5.65,1.8,8.54,1.8,8.54c-8.65.83-7.09,5.51-7.09,5.51l2.63,16.71c-.38,21.27-11.31,12.25-11.31,12.25-7.08-4.94-19.71,5.26-20.07,9.59s-7.09,5.16-7.09,5.16a66.7,66.7,0,0,0-11.54,11.77c.23,2-1.45,4.56-1.45,4.56-9.13,2-2.05,6.73-2.05,6.73s-3.13,4.44-.24,5.88c5.53,2.77,6.59,17.91-4.21,6.13s-14.18-5.66-14.18-5.66c-3.37,4.56-7,1.32-7,1.32a30,30,0,0,0-4.66-6l.17.09c13.52,1.66.31-16.54.31-16.54-7.52,1-8-11.58-7.95-14.28s-2.56-2-4.36-2.11-7.36-8.12-7.36-8.12Z"/><path class="cls-2" d="M561.63,402.51s9.61-.95-.47-13.45l10.1-4.32v-7.21l-1.44-2.4-1.92-1.93-1.44-5.29V365l-1-2.88-1.44-1.44-1.92-1-1.93-.48-2.4-.48h-7.69l-5.29,1.44-3.36,2.88-4.81-.48v-6.73h-3.37a5.3,5.3,0,0,0-3.36,1.44l-5.77,3.36-2.41,1.44L518.89,364l-3.37,1.44-3.36-1-1-2.89-1-2.4v-2.4l2.41-2.88,5.77-1,.36-.42c-1.51-1-8.11-11.55-5.08-12s5.46-7.23,5.46-7.23c1.45-6.74,6.59-4.81,6.59-4.81,10,4,9.15.81,9.15.81C540.38,313.1,519,315.57,519,315.57c-11.39-9.65-17.33-8.12-17.33-8.12l-10.61,7.21c-9.95-.33-13.81,3.37-13.81,3.37l-10.6.15c-3.21,3.53-8.19,2.72-8.19,2.72l-2.25-1.77S454,317.68,453,317s-2.09-.16-3.53-.8a4.61,4.61,0,0,0-3.37.31L441,324.09l-2.89,3.7-1.45.8h-1.28l-4.82-2.25-16.84-12.85.23,12L410.54,332l-1.2,7-7.94,9.6-.25,6.73h11.06l-.25,6.24c-10.34,5.77-7.94,19.94-7.94,19.94-13.46-3.37-17.55-1-17.55-1-14.89-4.82-17.06,1.18-17.06,1.18-7.22,17.54,7.2,12.5,7.2,12.5s9.13-.95,7.45,2.18,6,8.89,6,8.89c-.72,5.05,2.88,4.81,2.88,4.81,11.05-1.92,8.17,5.05,8.17,5.05-9.63,15.13,3.59,17.78,6,17.79s4.8,5.77,4.8,5.77l1.68,2.16,1.68.48,9.61-.47C435.2,443.74,435.2,450,435.2,450c-11.54,9.61-22.85,21.85-14,32.67S428,501.41,428,501.41l.05.52a2.48,2.48,0,0,0,.91-1.49c0-1.91,5.28,3.85,5.28,7.22l10.09,5.3s9.1,32.68,10.09.48c0,0,10.1-6.72,10.58-10.56s7.7-8.17,7.21,4.81l22.1,7.23h3.36V513l-.95-3.85-1.45-1.92s19.24-15.85-8.16-8.66c0,0-15.37-10.59,19.71-9.11l3.37,3.84,7.2,6.25s6.24,7.7,8.65-5.75c0,0,5.3-6.73,7.7-7.21s10.1-16.33,13-16.33c0,0,.49-12-.95-13.93,0,0,6.73-9.61-1.44-9.14s-17.78,4.8-1.43-18.26c0,0,11.55-5.76.5-19.7C543.36,409.23,545.29,400.1,561.63,402.51Z"/><path class="cls-3" d="M446.11,316.55s-15.58.15-17.18-3.54a7.55,7.55,0,0,1,.65-6.91l-.47-11.56L441.16,287s9.31-1.92,10-26.17c0,0,6.27-10.91,8-11.87,0,0,2.25-4-1.76-5.14,0,0-16.05-7.56-5.93-18s8.36-16.06,8.36-16.06,11.88,5.47,12.54-9.14c0,0,7.53,19,10.28-6.73,0,0-2.4-8,7.88-9.31s8.52-11.07,7.88-13.81"/><path class="cls-3" d="M498.26,170.3s-5.93-16.22-4.16-28.42"/><path class="cls-4" d="M580.91,245.86s1-9.13,3.37-13.45-3.35-12.5-13.94,3.35l-10.58,15.85-4.32-1.93-4.33,1.44-1.44-3.36v-1.45l-2.88-1.92c-1.44-1-1-1.44-3.84-2.41l-2.89-1H536.7l-2.4-.48-2.41-1.45-.47-3.36,4.32-3.85,1.93-2.88v-3.36c0-4.33.49-8.65.49-8.65l-3.36-2.41-1.93,1-1.44,3.37v8.17l-2.89.95h-6.25l-2.4-2.4s-1-.49,0-1.93a26.09,26.09,0,0,0,1.92-3.84l1.45-2.4,2.41-3.36v-6.74L529,203l1.93-5.28-.48-1.92H525.2l-3.37,1h-5.28l-2.88-2.4-1.92-2.4-2.4-1.44-1-3.37,2.89-4.81s8.66-16.81,1.94-35.08l-1.44.48h-7.21l-2.4-2.41-2.4-1.44-1.92-1.44-1-1.45H495.5l-1.56,1.39c-1.77,12.2,4.18,28.52,4.18,28.52.64,2.73,2.4,12.53-7.88,13.81s-7.88,9.31-7.88,9.31c-2.75,25.69-10.28,6.73-10.28,6.73-.65,14.61-12.53,9.14-12.53,9.14s1.76,5.63-8.37,16.06,5.93,18,5.93,18c4,1.13,1.76,5.15,1.76,5.15-1.77,1-8,11.87-8,11.87-.66,24.25-10,26.17-10,26.17l-12.05,7.54.47,11.56a7.55,7.55,0,0,0-.65,6.91c1.61,3.69,16.91,3.59,16.91,3.59l.27-.05a4.66,4.66,0,0,1,3.37-.32c1.45.65,2.57.17,3.53.81l3.21,2.09,2.25,1.77s5,.81,8.19-2.72l10.6-.16s3.86-3.69,13.81-3.36l10.61-7.22s5.94-1.52,17.34,8.13c0,0,21.36-2.47,15.88,13.74,0,0,.8,3.21-9.15-.81,0,0-5.14-1.93-6.59,4.81,0,0-2.41,6.74-5.46,7.22s3.57,11.07,5.08,12l-.25.3.12,0,2.88-3.36,1-3.37,1-2.39,2.41-.49,3.36-.95,1.92-1.44a2.08,2.08,0,0,1,1.92-1h3.37l2.88-1.44,3.37-4.33,1-2.4,2.41-1.44h15.38L565,323.7s29.31,1,6.75-25.46l-.48-1.93,1.92-4.8,1-3.84V281.9l1-1.92L578,277.1l2.89-4.33-2.4-3.36s-3.36-8.18,6.74-14.42C585.23,255,592,244.91,580.91,245.86ZM537.67,229Z"/><path class="cls-1" d="M336.57,288.68s8.9-8.89,4.57-16.34c-5.4-9.32-15.67-5-11.77-6,1-.24-2.16,1.44-3.6.24s-6.73-2.17-11-2.17S309,262.7,309,262.7s-1.44-11-5-11-9.85-.26-9.85-4.58a11.53,11.53,0,0,0-2.64-7.21C284,237.69,285,229.28,285,229.28H282l-3.85-.49a8.29,8.29,0,0,1-3.36-1c-1.92-1-7.21-1.45-7.21-1.45l-4.81,1.44-4.8,1.44s-5.77-3.37-6.73-5.29-2.88-5.29-4.32-5.78-7.2-2.88-7.2-2.88l-7.21.47-21.65,28.34-1.93,1-4.32-1.45-4.32-1s-18.27,0-22.6,5.27l-3.84-5.77s-28.36,9.1-26.42-16.36c0,0-4.79-10.58-25,9.11,0,0-6.49,2.79-11.52-12-7.31-21.54-4.53-12.64-15-4.24-5.86,4.7-31.65,19.59-31.65,19.59S60,245.44,72,246.41s-1,16.34-2.42,14.42c0,0-3.37,4.8-3.37,9.61s.47,13.93-1.46,16.81,7.68,23.08,27.39,11.08c0,0,6.74-7.68,15.86,1.94,0,0,1.92,2.4,10.57-4.32s6.72,7.21,6.72,7.21l8.17,9.62a53.92,53.92,0,0,1,2.85,7.72l.58,0c7.68,7.46,9.37-6.48,9.37-6.48,14.69-34.83,18.29-26.42,18.29-26.42-.5,10.33,7,5.06,7,5.06,12-12.73,8.65,7.93,8.65,7.93,7.2,8.9,1.9,21.39,1.9,21.39,3.13,1.21,6.24,10.34,6.24,10.34l1.92,1.68c12.74,4.82,16.8,23.33,16.8,23.33s4.33,1.44,5.77-.24,8.66-4.56,8.66-4.56c10.56,5.54,24.51-4.3,24.51-4.3,4.56-.48,6.49,2.41,6.24,6.73s-3.37,4.08,6,3.61,11.54-12.25,11.54-12.25,1.21-8.16,3.85-10.33,3.13-6.24-.71-9.37,1.44-3.6,3.85-3.6,4.33-2.88,4.33-2.88l1.44-1,1,1.44,1.44,1.45H287l3.84-.24s3.36,3.85,3.37,2.4,4.81-9.6,4.81-9.6c8.89,0,6.49-5.52,6.49-5.52-.7-16.83,9.87-14.89,11.07-14.89s5.05.24,6.49-1.92,7.93-4.8,8.89-4.8A29.39,29.39,0,0,1,336.57,288.68Z"/><path class="cls-3" d="M101.21,431.86s5.67-4.82,6.23,0c0,0,1.33,7.9,7.82,6.1,0,0,4.8.6,5.4,1.45s3.37.6,3.37.6l1.44-.72a6,6,0,0,0,.36-3.48,6.65,6.65,0,0,1,4.21-7.69c4.93-1.8,4.82-8.65,3.5-10.33,0,0-1.8-3.73,4.33-9.49,0,0-5-14.06,8.66-19.09l.73-8.29s7.22-13.81,12.87-16.09,14.54,1.09,14.53,8.3l.22,18.62s9,7.22,7,12.5c0,0,3.71,15.15,17.52,20,0,0,5.65,1.68,6.12,11.66s3.71,14.18,3.71,14.18l6.12,6.85s4,3.25,4.93-1.92,4.09-4.68,4.09-4.68,4.57-5.76,4.45-6.36,13.34-.35,8.89,7.09.35,7.33.35,7.33a31.48,31.48,0,0,1,11.88,12.87s2.76,4.09,10.1,2.65"/><path class="cls-3" d="M263.94,506s-3.95-12.5-.11-12.85,4-6.85.13-11.18-6.47-13.82,4-24.51,1.21-13.57-2.88-12.73c0,0-22-3-6.11-22.36,14.68-17.88,1.94-17.53,1.94-17.53s-2.13-5.19,6.37-7.09c4.81-1.08,2.9-12.13,2.9-12.13s1.49-3.65,4.32.84c1.44,2.29,6.37-2.76,6.37-2.76s5.41-4,13.09,8.55c0,0,3.6,3.24,7-1.32,0,0,3.37-6.13,14.17,5.66s9.74-3.36,4.21-6.13c-2.88-1.44.25-5.88.25-5.88s-7.08-4.69,2.05-6.73c0,0,1.68-2.52,1.44-4.56a66.54,66.54,0,0,1,11.55-11.77s6.73-.83,7.09-5.16,13-14.53,20.07-9.59c0,0,10.93,9,11.31-12.25l-2.63-16.71s-1.56-4.68,7.09-5.51c0,0,2.77-6.37-1.8-8.54s-4.56-4.56-1-5.65,4.93-5.88,4.93-5.88,8.54-14.17,13.46-5.27.71,6.25,6.84,10.21.83,9.38.11,9.62-3.25,8.29,7.57,4.57a4.85,4.85,0,0,1,5.88,1.81"/><path class="cls-1" d="M424.87,440.85l-9.61.47-1.68-.48-1.68-2.16s-2.4-5.77-4.8-5.77-15.62-2.66-6-17.79c0,0,2.88-7-8.17-5.05,0,0-3.6.24-2.88-4.81,0,0-7.69-5.78-6-8.89s-7.45-2.18-7.45-2.18-14.42,5-7.2-12.5c0,0,2.17-6,17.06-1.18,0,0,4.09-2.4,17.55,1,0,0-2.4-14.17,7.94-19.94l.25-6.24H401.15l.25-6.73,7.94-9.6,1.2-7,3.37-6.49-.23-12-.12-.36a4.85,4.85,0,0,0-5.88-1.81c-10.82,3.72-8.29-4.34-7.57-4.57s6-5.64-.11-9.62-1.92-1.32-6.84-10.21-13.46,5.27-13.46,5.27-1.33,4.81-4.93,5.88-3.61,3.49,1,5.65,1.8,8.54,1.8,8.54c-8.65.83-7.09,5.51-7.09,5.51l2.63,16.71c-.38,21.27-11.31,12.25-11.31,12.25-7.08-4.94-19.71,5.26-20.07,9.59s-7.09,5.16-7.09,5.16A66.54,66.54,0,0,0,323,373.25c.24,2-1.44,4.56-1.44,4.56-9.13,2-2.05,6.73-2.05,6.73s-3.13,4.44-.25,5.88c5.53,2.77,6.6,17.91-4.21,6.13s-14.17-5.66-14.17-5.66c-3.37,4.56-7,1.32-7,1.32-7.68-12.5-13.09-8.55-13.09-8.55s-4.93,5-6.37,2.76c-2.83-4.49-4.32-.84-4.32-.84s1.91,11.05-2.9,12.13c-8.5,1.9-6.37,7.09-6.37,7.09s12.74-.35-1.94,17.53c-15.89,19.38,6.11,22.36,6.11,22.36,4.09-.84,13.34,2.05,2.88,12.73s-7.83,20.18-4,24.51,3.72,10.82-.13,11.18.11,12.85.11,12.85l.18.16a48.57,48.57,0,0,0,12.37-7.72s7.69,2.41,12,3.86,8.65,1.45,11.05-1.92S308.7,497,308.7,497a53.33,53.33,0,0,0,1-11.54c0-7.68,29.34-33.13,30.75,1.47l1.44,3.85s5.77,2.88,5.76,8.65-2.74,20.4,13.45,9.62c11.54-7.68,5.28,7.7,5.28,7.7s10.1-6.24,7,11.78c0,0,44,2.68,35.81-10.79,0,0,1.93-14.41,12.5-11.52a34.13,34.13,0,0,0,6.36-4.32l0-.48s2.17-7.93-6.72-18.75,2.43-23.06,14-32.67C435.2,450,435.2,443.74,424.87,440.85Z"/><path class="cls-3" d="M270.1,345.21s5.55,8,7.36,8.12,4.36-.6,4.35,2.11.44,15.33,8,14.28c0,0,13.21,18.2-.31,16.54"/><path class="cls-3" d="M207,357.3s-1.11,4.5-8,8.74c-5.11,3.15,5.86,5.42,5.86,5.42s14.43,3.77,8.11,10.38l-3.31,4.2-8.57.14s-8.12,3.31-13.38,1.5a122.14,122.14,0,0,0-12.77-3.32"/><path class="cls-3" d="M337.33,287.69l.9,7.06s1.2,5.72,8-2.54c0,0,2.1-3.31,6.91,4.06,0,0,2.4,2,4.81-1.19s3.77-8.27,10.38-1.95c0,0,9.27.67,11.4-.94"/><path class="cls-1" d="M472.08,200.78s7.53,19,10.28-6.73c0,0-2.4-8,7.88-9.31s8.52-11.08,7.88-13.81c0,0-5.95-16.32-4.18-28.52l-.11-.25-.79.78-2.88,1a9.85,9.85,0,0,1-3.85.48,23.9,23.9,0,0,0-6.72,1.43s-1.45,2.89-2.89,3.36a12.32,12.32,0,0,1-3.37.48L470,148.21s-1-1.93,0-3.36,2.89-3.85,2.89-3.85l.48-2.88-1.44-1.92-.95-4.81v-5.77l-1.44-1-2.41-1h-5.76l-1.92.48-4.33-1.44-1.92-3.37-1.44-1.92-3.36.48s-12-.49-12,19.21c0,0,1.91,10.57-6.26,12L419,153v-4.8l1.92-2.4H409.42l-2.4-.49-2.41-1.44-3.36-1.44h-2.4l-1.92,1-1.45,1.93-2.4,1.44-1,3.36-1.44.48-3.36-3.37s-10.57,2.88-4.33,9.61c0,0-1.93,7.69-10.1,5.28,0,0-3.85,6.72-3.85,8.17s-3.85,3.84-3.85,3.84l-3.36-3.85-1.44-1-1.92-.49-2.88-2.4,1-3.85,2.41-3.84,2.88-3.84,2.41-3.84-3.84-2.89a12.86,12.86,0,0,1-1-4.32v-1.44L358,140.91l-.48-1.92-1.92-3.85-1-2.4-1-1-1.44-1.93H350.8a1.41,1.41,0,0,0-1.44,1.44,76.09,76.09,0,0,0,1.43,7.69l3.84,5.77V152a36.47,36.47,0,0,1-.49,4.33h-1.92l-1.92-2.41-1-1.44-.48,1.92-.49,3.84v1.93s-1,1-2.4-1-4.8-1.92-4.8-1.92l-2.88-2.41-1,3.84V162l-.48,3.37H334l-2.88-1.92v-4.33a20.18,20.18,0,0,0-2.4-1,32,32,0,0,1-3.36-1.44l-2.4-4.33-.48-2.4L321,147.13l-1-1s1-.48-1.44-1.45-3.37-.48-3.84-1.92l-1.44-4.33c-.48-1.44-1-3.84-1-3.84l-1.44-3.37-.48-1.44-2.4-.48h-1.45l-2.4.95s-4.33,8.65-6.73,9.13-7.21-1-7.21-1l-2.88-1.93L282.55,138l-3.85,3.84-4.81,3.36L271,148.05v17.79l3.85,1.44h3.84l1.45-.48h1.92l2.39,4.33a9.92,9.92,0,0,1,2.4,6.73c0,4.32-1,5.77-1,5.77v1.44s-.48,1.44,1,1.44h2.4l2.4,1,1,2.88v2.88l2.88,1c1.44.49,4.81.49,6.25.49s3.36-.48,4.8-.48H308c2.4,0,10.56,5.77,8.63,19.23l1.44,3.36,1,2.89v7.69l-1,3.84s-10.09,2.88-10.1,4.31l-4.32-2.4s-1.92-1.44-3.36-2.4a25.41,25.41,0,0,0-3.85-1.93l-5.28.47H285s-1,8.41,6.48,10.58a11.53,11.53,0,0,1,2.64,7.21c0,4.32,6.24,4.57,9.85,4.58s5,11,5,11,1.44,1.68,5.76,1.69,9.61,1,11,2.17,4.57-.48,3.6-.24c-3.9,1,6.37-3.3,11.77,6,3.49,6-1.63,13-3.73,15.41l.82,7s1.2,5.72,8-2.54c0,0,2.1-3.31,6.91,4.06,0,0,2.4,2,4.81-1.19s3.77-8.27,10.38-1.95c0,0,9.27.67,11.4-.94l.07,0s8.47-14.13,13.39-5.23.71,6.25,6.84,10.21.83,9.38.11,9.62-3.25,8.29,7.57,4.57a4.85,4.85,0,0,1,5.88,1.81l.12.36.07.09,16.77,12.76,4.82,2.25h1.28l1.45-.8,2.89-3.7,4.85-7.39-.27.05s-15.3.1-16.91-3.59a7.55,7.55,0,0,1,.65-6.91l-.47-11.56,12.05-7.54s9.31-1.92,10-26.17c0,0,6.27-10.91,8-11.87,0,0,2.25-4-1.76-5.15,0,0-16.05-7.55-5.93-18s8.37-16.06,8.37-16.06S471.43,215.39,472.08,200.78Z"/><path class="cls-1" d="M263.94,505.51S260,493,263.83,492.66s4-6.85.13-11.18a13.86,13.86,0,0,1-3.33-8.1l-.62.05c-7.34,1.44-10.1-2.65-10.1-2.65A31.41,31.41,0,0,0,238,457.92s-4.81.11-.35-7.33-9-7.7-8.89-7.1-4.45,6.36-4.45,6.36-3.12-.48-4.09,4.69-4.93,1.92-4.93,1.92l-6.12-6.86s-3.24-4.2-3.71-14.18-6.12-11.66-6.12-11.66c-13.81-4.81-17.52-20-17.52-20,2-5.28-7-12.5-7-12.5l-.22-18.62c0-7.21-8.88-10.58-14.53-8.3s-12.87,16.09-12.87,16.09l-.73,8.29c-13.7,5-8.66,19.09-8.66,19.09-6.13,5.77-4.33,9.49-4.33,9.49,1.32,1.69,1.43,8.53-3.5,10.33a6.65,6.65,0,0,0-4.21,7.69,6,6,0,0,1-.36,3.48l-1.44.72s-2.77.24-3.37-.6-5.4-1.45-5.4-1.45c-6.49,1.8-7.82-6.09-7.82-6.09-.56-4.82-6.23,0-6.23,0l-.29.4a15.18,15.18,0,0,1,1,9l1.4,2,3.65.28h2.52s9,3.65,6.73,8.7-6.46,3.36-7.58,2-12.81,7.5-12.81,7.5,10.09,9.62-3.38,17.78l-12,8.64s-.48,6.25,3.36,10.58L90,507.38s3.36,6.26,14.42-2.87,17.79-6.71,17.79-6.71,6.25-3.84,9.14-10.09l13.94-6.23s1.92,4.8,1.92,6.25,8.16,5.29,11.52,5.29,7.68,16.83,7.68,16.83l5.77,1.92,5.76,2.89,5.77,4.33,4.8,4.33,3.84,1,3.85.48a8,8,0,0,1,6.72,8.18c0,7.2,10.57,2.89,20.67-6.72s5.29-10.56,5.3-14.89,3.84-1.92,8.65-.95a55.28,55.28,0,0,0,26.4-4.2Z"/><path class="cls-1" d="M204.93,372.16s-11-2.27-5.86-5.42c6.89-4.24,8-8.74,8-8.74v-.15s-4.07-18.5-16.8-23.32l-1.92-1.69s-3.12-9.13-6.24-10.33c0,0,5.3-12.49-1.91-21.39,0,0,3.39-20.66-8.64-7.94,0,0-7.47,5.28-7-5.05,0,0-3.59-8.41-18.28,26.42,0,0-1.69,13.93-9.37,6.48l-.51,0c1.88,7,2.45,15.95-6.88,16.24,0,0-9.61,6.24-12,16.33,0,0-.48,3.36-8.64,1.43,0,0-3,1-.18,6.93l-2.53,6.73S96.05,396.21,89,387.78c0,0-14.88,14.3-2,17.68,0,0,7.3,1.7.27,9.82,0,0-3.37,3.93,10.11,2,0,0,5.33,1.4-2.53,7a19.36,19.36,0,0,1,6,7.54l.29-.4s5.67-4.81,6.23,0c0,0,1.33,7.89,7.82,6.09,0,0,4.8.61,5.4,1.45s3.37.6,3.37.6l1.44-.72a6,6,0,0,0,.36-3.48,6.65,6.65,0,0,1,4.21-7.69c4.93-1.8,4.82-8.64,3.5-10.33,0,0-1.8-3.72,4.33-9.49,0,0-5-14.06,8.66-19.09l.73-8.29s7.22-13.81,12.87-16.09,14.54,1.09,14.53,8.3l.26,11.68.09.7a122.14,122.14,0,0,1,12.77,3.32c5.26,1.81,13.38-1.5,13.38-1.5l8.57-.14,3.31-4.2C219.36,375.93,204.93,372.16,204.93,372.16Z"/></svg>