<svg id="图层_1" data-name="图层 1" xmlns="http://www.w3.org/2000/svg" xmlns:xlink="http://www.w3.org/1999/xlink" viewBox="0 0 651.51 651.51"><defs><style>.cls-1,.cls-2,.cls-3,.cls-4{stroke:#545555;}.cls-1{fill:url(#未命名的渐变_32);}.cls-2{fill:url(#未命名的渐变_32-2);}.cls-3{fill:#1a1a1a;}.cls-4{fill:#00324b;stroke-linejoin:bevel;}</style><linearGradient id="未命名的渐变_32" x1="163.67" y1="481.61" x2="324.82" y2="481.61" gradientUnits="userSpaceOnUse"><stop offset="0" stop-color="#761b1d"/><stop offset="1" stop-color="#761b1d"/></linearGradient><linearGradient id="未命名的渐变_32-2" x1="386.81" y1="200.55" x2="486.93" y2="200.55" xlink:href="#未命名的渐变_32"/></defs><title>海南</title><g id="图层_2" data-name="图层 2"><path class="cls-1" d="M177.6,485.29c9.61-4.31,17.24,1.32,20.55,7.29s9,9.62,17.25,6.63,21.55-.33,21.55-.33l25.53,1.66c9.95.33,2,10.61,2,10.61-6.3,13.26,9.29,0,9.29,0,4-4.31,6.3,2.32,6.3,2.32l.33,10.61c5.63,4.64,7-7.29,7-7.29,4.31-9.29,17.24-7,17.24-7l1.66,8c3.65-.33,8-8.62,8-8.62-8.62-3.32-8-6.63-8-6.63l7.63.33v-3.31l-.34-8.63c2.66-7.29,11.28-13.92,11.28-13.92a131.07,131.07,0,0,0-4.31-14.26c-3-8.29-11.6-10.61-13.27-3s-8.61,14.93-8.61,14.93c-28.19,7.29-29.85-8.63-29.85-8.63.66-16.91-4.64-16.24-10.94-16.91s-5.64-1.66-5.64-1.66c-10.94-21.55-25.53.67-25.53.67-10.61.33-22.88,3.65-22.88,3.65s-3.65,17.24-17.91,17.9-22.21,11.94-22.21,11.94S168,489.6,177.6,485.29Z"/><path class="cls-2" d="M480,221.34l-.33-9.28s14.92-8.95,2-28.19c-11.94,2.32-10.28-3.31-10.28-3.31l-2-9-2-6.63c-3.64,7.63-7.62,4.31-7.62,4.31l-1.66-5c-5.64-5.31-27.19-15.25-27.19-15.25s-13.6-4.65-14.92,5-9,6.3-9,6.3-10.48-5.24-16.58-4.72c-1.49,2.66-7.05,13.87-.66,22.29,7.3,9.62,9.29,12.6,9.29,30.18s.66,23.21,9.94,14.59A20.48,20.48,0,0,1,423,219s8.62-9.28,12.93,0l-6.3,6.3s-2.32,12.27,2.32,16.58a48.4,48.4,0,0,0,9.95,7h20.89l6.3,4,6.63.33,4.65-9.61S490.28,234.94,480,221.34Z"/><path class="cls-3" d="M324.76,477c1.65,2,12.26,2.65,12.26,2.65,2.32-2.65,16.91-7.63,16.91-7.63l9-2.32,5.3-2.32c3.65,4.31-8,9.95-8,9.95,23.21,10.94,21.89-23.88,21.89-23.88l3.31-1.65s8.29-11.28,10.62-13.93S412,424.94,412,424.94l6.63-2.32c4,0,12.94-5.64,12.94-5.64,12.59-4.31,11.6-2,11.6-2l-4,6.3c5.64,3.65,7.3-4.64,7.3-4.64.66-13.93,8.95-16.25,14.92-16.58s5.3.66,4.64-5.64-6.63-11.94-6.63-11.94a90.26,90.26,0,0,0,.66,10.28c.66,5-9.28,4-11.94,1.33s.67-12.93,8.63-14.59,2.32-9.62,2.32-9.62C458.38,355.64,464.68,353,468,350a10.8,10.8,0,0,0,2.32-13.6c-3-5.3-.33-6.3-.33-6.3,11.93-5.63,9.94-16.91,9.94-16.91l2.33-5.64c1-6,6.63-9.94,6.63-9.94,5.64-6,1.66-15.92,1.66-15.92s10.28-.66,10.94-4,3-5.64,12.6-14.92,3.65-12.93,1.66-16.58-4.64-3.65-10.61-5-3-5.31,2.65-3,15.25-1,19.23-3,.67,7,.67,7c-3.65-1-7.63,1.66-7.63,1.66l3.65,10,4.31,1,7.62-7.62s2.65-.67,8-7,8.62-5.3,8.62-5.3c9.62,4.31,5-5,5-5-10.28-12.6-9.62-24.2-9.62-24.2.33-18.9-5.3-26.2-10.61-37.14s-10.61-5-10.61-5c-16.58,7.95-21.89-5.31-21.89-5.31l-6-6.3c-8.29-.66-7.29-9.95-7.29-9.95-3-7.29-5.64-.66-5.64-.66,0,3.65-1.66,6.63-13.59,7.63s-2.65,9.94-2.65,9.94c6.63,2.65,2.65,9.29,2.65,9.29,2.65,1.66,9.62,15.58,9.62,15.58l.06.11c12.93,19.23-2,28.19-2,28.19l.33,9.28c10.28,13.6.34,22.22.34,22.22l-4.65,9.62-6.63-.34-6.3-4H441.87a48.12,48.12,0,0,1-9.95-7c-4.64-4.31-2.32-16.58-2.32-16.58l6.3-6.3c-4.31-9.28-12.93,0-12.93,0A20.48,20.48,0,0,0,409,222.78c-9.28,8.62-9.94,3-9.94-14.59s-2-20.56-9.29-30.17c-6.39-8.43-1.06-19.18.42-21.85l-.42-.37c-6,1-9.62,16.91-9.62,16.91l-12.26.66s-8.29,2-7.3,8.95-4,3.65-4,3.65c-6-2.65-4-7-4-7l.67-3.65a77.51,77.51,0,0,0-9.29-7c-4-2.32-8.29,5-8.29,5-4.31,8.29-6,2-8.29-3.31s-4-.67-5,3.64-2.32,3.32-2.32,3.32l-3-4.31s-5.31,1-9-1.66-4.31-3.31-13.93-3a37.09,37.09,0,0,0-16.91,5c-13.92,14.59-8.95,17.57-4,19.56s2.66,3.65,2.66,3.65c-10.61,5.64-16.92,4-16.92,4,.34-9.95-15.25-6.63-15.25-6.63s-2.67-.22-8.3-.55a66.78,66.78,0,0,0-10.9.34c-7-7.95-9.31-3.11-9.31-3.11a24.24,24.24,0,0,1-2.33,6s-6.63,4.31-9.28,6.3-10.28,9.95-3.65,15.92,17.25-7.63,17.25-7.63c7.62-2.65,16.43-1.28,16.43-1.28l-5.28,11.32c6,6.3-6.84,3.56-6.84,3.56-11.94-4-16.92,4-16.92,4-4.31,11.28-20.22,15.26-20.22,15.26L175.61,245c-9.62,2.65-21.23,17.57-21.23,17.57l-.33,4.31c-10.61-.33-26.86,14.26-26.86,14.26l-10.28,8.29C99.34,286.11,102,301.37,102,301.37c-9.95,7-4,18.9-4,18.9,8.63,4,4.65,9.94,4.65,9.94-12.94,14.26-9,24.21-9,24.21,13.6,25.53,1.66,35.48,1.66,35.48l.33,6.3c17.25,17.24,16.58,30.17,11.61,39.79s1.32,25.2,10.94,24.54a28.73,28.73,0,0,1,16.58,4l15.92,9.61,7,1.33,6,6.3h0s8-11.27,22.21-11.94,17.91-17.9,17.91-17.9,12.27-3.32,22.88-3.65c0,0,14.59-22.22,25.53-.66,0,0-.66,1,5.64,1.65s11.6,0,10.94,16.92c0,0,1.66,15.91,29.85,8.62,0,0,7-7.3,8.61-14.93s10.28-5.3,13.27,3A124.24,124.24,0,0,1,324.76,477Z"/><path class="cls-4" d="M157.83,265.78l5.61-.94a6.4,6.4,0,0,1,5.36,1.23,5.7,5.7,0,0,1,1.53,2.25,5.9,5.9,0,0,1,3.83,5.16,5.11,5.11,0,0,1-1,2.9l6.08-2.39,3.56,3.85,1.81-5.38a6.15,6.15,0,0,1,1.53-3.83,6.29,6.29,0,0,1,4.34-2.05,16.05,16.05,0,0,1,6.37,1.58,16.55,16.55,0,0,1,2.21,1.3,20.25,20.25,0,0,1,9,10.4,17.83,17.83,0,0,1,.88,3.83c4.34-3.08,9.47-3.58,12.9-1.28a8.83,8.83,0,0,1,3.13,3.88c2.72-.37,12.51-2.65,16.53-1.07a11.8,11.8,0,0,1,5.88,5.11l12.76-3.07,3.15,2,3,4.08-2.19,10.31,11.8.24,9.27,12.27,2.53-3.11,5.24,9.66s5.77-.6,6.79-3a5.58,5.58,0,0,1,5.32-3.31l.49-11.92c-1.34.49-1.43-3.66,2.87-8.78l-12-4.33c-.23,0-3.66,0-5.11-2.3s4.31-11.82,6.38-13c3-1.73,7.6-.67,10.73,3.06l5.36-2c2.1-3.88-1.33-17,.82-20.17,0,0-1.9-6.53-4.91-5.86-3.38.75-7.23-1.23-9.13-5a4.74,4.74,0,0,0,1-3.42c-.34-2.24-2.73-4.15-5.84-4.25l-9.78-1.91a14,14,0,0,1-7.6-13.57l6.94-6.55a3.5,3.5,0,0,0,1.73-2.06c.63-2.49-2.64-6.1-8.43-8.68a7.05,7.05,0,0,0,2.56-3.57c1.14-3.86-1.85-7.09-2-7.25l-14.77,2.57c-8.56-4.38-15.46-5.38-20.25-5.45-5.25-.08-8.72.94-14.13-1-5.23-1.89-6.49-4.47-9.53-4.26-2.76.19-6.42-1.2-10.37,8.77-9.8,6.2-14.17,17.69-12.19,21.7.32.64,1.61,2.84,6.9,3.58l19.74-10.39-.85,12.09c-1-.28-8.3-2.1-14.82,2.55a17.66,17.66,0,0,0-6.7,9.91L175.61,245a31.09,31.09,0,0,0-21.56,21.77Z"/></g></svg>