<svg id="图层_1" data-name="图层 1" xmlns="http://www.w3.org/2000/svg" viewBox="0 0 650.78 650.78"><defs><style>.cls-1{fill:#fffcd1;}.cls-1,.cls-2,.cls-4,.cls-5,.cls-6{stroke:#545555;}.cls-2,.cls-3{fill:#00324b;}.cls-3{stroke:#00324b;}.cls-4{fill:none;}.cls-5{fill:#1a1a1a;}.cls-6{fill:#761b1d;}</style></defs><title>河南</title><path class="cls-1" d="M367,534.05s2.63-19.38-4.28-11.5c0,0-6.56,2.63-6.56-6.9,0,0,.32-6.24-5.26-6.57l-1.64-2,1.64-.66s2.95-3.61-1.64-5.25.32-5.59.32-5.59,4.6-3.94.33-7.23l-.33-15.44s-.33-11.83-12.81-.33c0,0-3.94,2.3-4.6,8.54l-1.64,1s-2.3-5.92-7.89-1.64S309.14,472,309.14,472s-5.59-6.24-9.53-.32a8.21,8.21,0,0,1-5.58-1c-2.63-1.65-5.92-2.3-8.22,1.31H275.63s-9.86,9.86-12.48,0c0,0-2.31-2.63-3.62,2a77.6,77.6,0,0,1-8.54-1.64s-5.92.66-7.89,3-7.88.66-7.88.66l-3,3.28-1.64-1.31-.66-3.29L222.07,469l-2.3,3.62-5.25-5.91-5.91.65-1-2.29-3.61-1h-3.29l-5.26-3.94-5.25.32-.33-4.6a9.78,9.78,0,0,0-9.2-4.27s0-6.9-4.93.66c0,0-3,.65-5.26-4.6a21.24,21.24,0,0,0-6.57-8.21l5.59-4.6a22.87,22.87,0,0,0-6.25-1.32c-2.62,0-7.23-4.27-7.23-4.27l-6.24-4.93.33-2-4.27,1V420s6.9-7.22-2.63-8.87c0,0-5.91-1.31-1.31-4.27,0,0,3-8.21-9.53-9.2l-3.28-1.31-1-3.62-.66-4.92s7.89-7.89.33-12.49c0,0-3.61-6.24,1.32-7.56,0,0,5.58-3.94-2.3-10.84v-2.63l-7.23-1.64s-7.23-1.31-9.2-11.17-11.83-9.86-11.83-9.86-6.57-1-1.31-8.21-2-10.19-2-10.19L90.66,308s12.81-8.21,1-10.51-15.11-10.84-6.9-11.83c0,0,3.29-6.9-2.3-7.88l-5.91-4.93-1.32-8.21s-3.28-6.57,10.52-5.26h11.5l2.63-.66,10.18-6.9s22-5.58,28.59-11.83l3.94-2.3s26.61.33,35.81-15.44V218s7.89-2.3,12.49-7.88c0,0,2.3-1.64,7.22-.33s6.91,3.28,7.89-9.53,1-13.47,11.5-7.56c0,0,3.61,4.6,5.91-1l3,2.3,21.36.65,2-.32s3.28-9.2,8.54.65a5.3,5.3,0,0,0,6.24-1.64l7.23.33s4.6,3.28,8.54-10.52h3.62s9.85,5.26,5.91-7.55c0,0,1.31-3.61,7.56-1.31,0,0,5.91,3.61,4.6-3.62l1.64-1.31,4.27.66v-4.6l7.55.33,4.28-8.88v-4.59l4.6,1,.65-1.64-.32-4.6L322,134.86l4.6-1.64v-5.91l2.3-2-3.95-5.58,1.32-1.32,2.63.33,1-3s-4.6-3.28-.33-5.58l-.32-4.93-.33-3.61v-4.6s1.31-2.63-.66-3l3.61-9.2s7.23,2,10.52-2.63l8.87,1.65,4.6-1.65s3.61-.65,1.31,4.27,8.54,5.92,15.77,4.27,23.66,11.83,23.66,11.83,3.61,2.63,8.54-1.64l18.4,1.64s4.27,11.5,6.9.66l6.57-9.2s3.61-5.58,13.47,3c0,0,7.23,11.83,7.89,3,0,0,12.81-12.49,6.57,2.95,0,0,.65,10.52-4.93,12.16l-1.31,2.3-.33,8.87-1,5.59,2.3-.33,5.59-3.62v-8.87s2-3.29,6.89,1c0,0,0,2.29,6.91-4s18.72-4.59,18.72-4.59a20.18,20.18,0,0,0,5.92-8.22s10.84-13.14,10.51-1.64-3.94,12.15-11.17,12.48c0,0-3.94-.65-3.61,6.9,0,0-.66,3-8.22,3a8.35,8.35,0,0,0-5.26,7.56s-1.64,5.25-8.87,5.58-11.17,14.46-11.17,14.46,1,2.62-6.57,2.62l.33,8.88-8.21,4.93s-16.76,5.25-16.76,11.17S424.13,194,424.13,194s-5.58,16.76.66,14.46c0,0,4.27-2,4.27,1a52.44,52.44,0,0,0,5.59-.33s3.61,5.92,8.22,1.65c0,0,4.26.33,4.26,2.63l4.6.65.33,3.62s7.23-2,3,4.6c0,0-2.3,6.24,6.9,1.64,0,0,10.51,2.3,10.18,20,0,0,5.26,7.23,18.08,3.94,0,0,4.92-1.31,8.87,1s8.87-1,14.45-3.61,11.5,3.28,11.5,3.28l6.57,1.32a15.18,15.18,0,0,0,.66,9.2c2,4.6,2,5.58,2,5.58s12.49,6.9,11.83,11.83,6.57,1.64,7.89.33,7.88-5.91,7.88,2.3,1.64,7.88,1.64,7.88a8.71,8.71,0,0,1-1.64,4.6c-1.64,2.3,5.91,7.56,5.91,7.56l2.63,5.26s5.59,6.9-5.25,7.88a145.42,145.42,0,0,0-9.86,10.84s-3.61,2.3-6.57,2.3l-4.6,3s-6.25,7.56-15.44-2.63l-2.3-3.61s-3-22-17.42-15.11c0,0-3.94,1.31-4.6-3.95s-19.38-6.9-16.43,14.13c0,0,10.52,3.94-.65,7.56l2,4.27,1.31,13.14s6.58,6.9-2.95,7.56-11.83,6.9-11.83,6.9h-4.6l.33,16.42s4.27,3.29-.66,7.23l-1.64,13.47s-6.9,2-11.5,5.92l-11.83-1s-4.93-6.9-6.9-1.31c0,0,2,6.57-1.31,15.11,0,0,26.61,7.23,25.95,16.43s-2,19.05,7.56,19.05c0,0,2.63-3.94.66,5.26,0,0-.33,6.9,5.58-3,0,0,5.59-4.27,5.59,1.32l5.25-2,.33,6.24s12.49,12.81,15.12,2c0,0,3.28-5.26,5.58-2.63,0,0,3.61,3,6.9-5.25s8.87-6.9,6.24-1.65-3.94,7.56-3.94,7.56l4.27,4.6v13.47l1.32,7.88s3.94,18.07,2.3,28.26l-.33,6.57s0,3.94-8.55,6.57S497.73,531.1,494.78,536s-3.95,6.24-3.95,6.24l-1,4.92-4,3.29s4.6,9.2-2.63,12.16l-6.89,1v-3.94h-3.62l-.33-13.47s-1.64,1-5.25-4.6c0,0-4.6-1.32-4.6,5.58,0,0-2.63,8.22-6.25,9.86,0,0-5.25-7.88-12.81,2,0,0-5.26-.33-5.26-6.24,0,0-4.27-3.28-8.87-3.28l-1-2-1-2.63-4.6,1.31-2,.33-2-.66a13.58,13.58,0,0,1,1.32-10.18s.65-7.56-5.26-6.58c0,0-12.82,7.23-26-7.22,0,0-7.88-6.58-11.5,6.9Z"/><path class="cls-2" d="M543.82,328.14l4.6-2.95c3,0,6.57-2.3,6.57-2.3a145.42,145.42,0,0,1,9.86-10.84c10.84-1,5.26-7.89,5.26-7.89l-2.63-5.25s-7.56-5.26-5.92-7.56a8.67,8.67,0,0,0,1.65-4.6s-1.65.33-1.65-7.89-6.57-3.61-7.88-2.3-8.54,4.6-7.88-.32S534,264.41,534,264.41s0-1-2-5.59a15.14,15.14,0,0,1-.65-9.2l-6.57-1.31s-5.92-5.92-11.5-3.29-10.52,5.92-14.46,3.62-8.87-1-8.87-1c-12.81,3.28-18.07-3.94-18.07-3.94.33-17.74-10.18-20.05-10.18-20.05-2.85,1.43-4.67,2.1-5.72,2,.52,1.49,2.66,8.89-10.52,7,0,0-7.87-.88-10.2.58,0,0-13.41.58-7,9l.3,9.32s3.5,2.92.29,9l.29,9.33s.67,5.86-1.74,9.26a38.2,38.2,0,0,1,16.31,9.39c6.32,6.31,5,7.87,1.75,18.07s3.5,8.75,3.5,8.75c11.08-5,25.36-5.54,25.36-5.54l1.75-.87c7-15.16,15.74-8.17,15.74-8.17l.26.47c4.82-3.46,11.62-1.61,12,1.52.66,5.26,4.6,3.94,4.6,3.94,14.45-6.9,17.41,15.12,17.41,15.12l2.3,3.61C537.58,335.7,543.82,328.14,543.82,328.14Z"/><path class="cls-3" d="M320.79,203.2l-1-4.92-1.64-6.57-1.65-2.63-1.31-6.9L308,169.69l-.2-.11v.21l-4.27-.65-1.64,1.31c1.31,7.23-4.6,3.62-4.6,3.62-6.24-2.3-7.56,1.31-7.56,1.31,3.94,12.81-5.91,7.55-5.91,7.55h-3.62c-3.94,13.8-8.54,10.52-8.54,10.52l-7.23-.33a5.33,5.33,0,0,1-6.12,1.7,23.68,23.68,0,0,1-1.64,20l-2.3,7.56a5.29,5.29,0,0,1-1.32,3.94s-4.6,9.2,13.47,8.87l13.8-2.95,6.58-1.65s15.76-8.54,20.69-14.13c0,0,6.25-3,11.5,0l6.32,3.14S333.61,210.43,320.79,203.2Z"/><path class="cls-3" d="M200.92,240.5c-7.58-3.79-4.95-9.33-4.95-9.33,4.37-6.12,2.91-9,2.91-9l-.76-12-.48-.38h0c-4.92-1.31-7.22.33-7.22.33-4.6,5.58-12.49,7.88-12.49,7.88v4.27c-9.2,15.77-35.81,15.44-35.81,15.44l-3.94,2.3c-6.57,6.25-28.59,11.83-28.59,11.83l-10.18,6.9-2.63.66H85.26c-13.8-1.31-10.51,5.26-10.51,5.26l1.31,8.21L82,277.78c5.59,1,2.3,7.88,2.3,7.88-8.21,1-4.92,9.53,6.9,11.83s-1,10.51-1,10.51l4.6,5.26s7.23,3,2,10.19,1.31,8.21,1.31,8.21,9.86,0,11.83,9.86,9.2,11.17,9.2,11.17l7.23,1.64V357a13.8,13.8,0,0,1,3.65,4.53l.11,0c5.54-.29,4.95-10.5,4.95-10.5,2.92-1.45,6.71-10.78,6.71-10.78-7.58-14.87-2.92-13.41-2.92-13.41,10.2-.58,9.91-2.92,9.91-2.92s9-14.57,2-15.74-11.36-5.83-11.95-8.16.59-7.29-3.2-11.95,2-14,9.32-15.45l11.66-2.33c4.08-6.12,11.95-6.71,11.95-6.71,2.63,1.17,8.75,1.46,8.75,1.46s-1.46-3.5,1.16-3.5a61.13,61.13,0,0,0,6.71-.58c-.29-8.16,6.41-4.66,6.41-4.66,11.08,9,10.2-2.33,10.2-2.33C205.58,242.25,200.92,240.5,200.92,240.5Z"/><path class="cls-4" d="M344.6,466.73v-2.92s3.2-7.58,3.2-13.41-14.28-14.57-16.61-6.12l-.88,9-5.54.58s-8.16-5.25-15.15-2-12-3.21-9.62-9.33l-.58-5.54-.88-1.45s.29-12.25-6.12-19.83c0,0,1.75-13.11,13.12-11.66,0,0,11.66,5.25,9.91-5.83l-.59-13.7s.88-5.24-3.78-5.54a25.28,25.28,0,0,0-7,.3l-5-6.13-4.66-1.45-2.62-6.41-9.91-6.71-6.13-3.79s-5.53-1.16-7.87,2.33-12-2.33-12-2.33-9.62.29-11.95.29-6.7-4.66-6.7-4.66l-17.78-5.83"/><path class="cls-2" d="M198.3,210.28l.76,12s1.46,2.92-2.91,9c0,0-2.63,5.54,4.95,9.33,0,0,4.67,1.75.88,13.41,0,0,.87,11.37-10.2,2.33,0,0-6.71-3.5-6.42,4.66a60.11,60.11,0,0,1-6.7.59c-2.63,0-1.17,3.5-1.17,3.5s-6.12-.3-8.74-1.46c0,0-7.87.58-12,6.7l-11.65,2.33c-7.29,1.46-13.12,10.79-9.33,15.46s2.62,9.61,3.21,12,4.95,7,11.95,8.16-2,15.74-2,15.74.29,2.33-9.91,2.91c0,0-4.59-1.61,3,13.26l2.22,1.05s11.34-2.6,16.62,3.21c2.91,3.21,19.53,4.08,19.53,4.08s9.62,3.79,13.7,11.37c0,0,4.95,3.79,11.08-3.21l5.82-.58s2.05-4.08.3-6.12l.29-5s8.16,4.38,13.7-6.12c0,0,5.53-5.54,12.82-6.12s6.42-13.7,6.42-17.78c0,0,13.11-8.45,4.37-19.24s4.81-13.28,12.1-15.9l.39-8.43s1-3.28,11.5-3.28c0,0,6.57,0,0-7.56s-13.14-8.87-3-13.8,0-5.58,0-5.58-7.81-4.36-7.81-6l0-.15c-13.76-.91-8.94-8.79-8.94-8.79,1.65-2,1.1-2.8,1.1-2.8l-.12-.29s-7-8.16-11.36,2c0,0,0,4.08-10.5.29s-12.53-3.79-12.53-3.79L218.27,220s-8.45-4.37-10.2-4.08l-5.83-5.25a38.19,38.19,0,0,1-3.78-.81Z"/><path class="cls-2" d="M526,516.17l.33-6.57c1.64-10.18-2.3-28.25-2.3-28.25l-1.32-7.89V460l-4.27-4.6s1.32-2.3,3.94-7.56-3-6.57-6.24,1.65-6.9,5.25-6.9,5.25c-2.3-2.62-5.58,2.63-5.58,2.63-2.63,10.84-15.12-2-15.12-2l-.33-6.24-5.25,2c0-5.58-5.59-1.31-5.59-1.31-5.91,9.85-5.58,2.95-5.58,2.95,2-9.2-.66-5.25-.66-5.25a9.68,9.68,0,0,1-3.12-.46c-5.55-.68-14.38-6-14.38-6-14.87-7.28-24.2,5.83-24.2,5.83-3.79,9.92-8.16,2.92-8.16,2.92s-1.75,3.79-7.58,3.79-5.83,4.95-5.83,4.95a74.93,74.93,0,0,1,6.71,8.46c4.37,6.12-4.67,7.57-4.67,7.57-14.87,6.71-29.73-16.32-29.73-16.32H378.7c-4.37,7-6.7-7.87-6.7-7.87l-4.67.58c-.58,4.67-5.83,4.08-9.91,0s-9.62-.58-9.62-.58-1.26,8.61-3.2,13.41l.08,3.38c4.7-.81,4.87,5.28,4.87,5.28l.33,15.44c4.27,3.29-.33,7.23-.33,7.23s-4.92,3.94-.32,5.59,1.64,5.25,1.64,5.25l-1.64.66,1.64,2c5.58.33,5.26,6.57,5.26,6.57,0,9.53,6.56,6.9,6.56,6.9,6.91-7.88,4.28,11.5,4.28,11.5l10.51-5.25c3.62-13.47,11.5-6.9,11.5-6.9,13.14,14.46,26,7.23,26,7.23,5.91-1,5.26,6.57,5.26,6.57a13.58,13.58,0,0,0-1.32,10.18l2,.66,2-.33,4.6-1.31,1,2.63,1,2c4.6,0,8.87,3.28,8.87,3.28,0,5.92,5.26,6.24,5.26,6.24,7.56-9.85,12.81-2,12.81-2,3.62-1.65,6.25-9.86,6.25-9.86,0-6.9,4.6-5.59,4.6-5.59,3.61,5.59,5.25,4.6,5.25,4.6l.33,13.47h3.62v3.94l6.89-1c7.23-3,2.63-12.16,2.63-12.16l4-3.28,1-4.93s1-1.32,3.95-6.24,14.13-10.19,22.66-12.82S526,516.17,526,516.17Z"/><path class="cls-4" d="M315.45,398.22s2,1.46,10.49-2.33c0,0,8.45,5,6.71-6.41,0,0,.87-13.7,3.49-14.28,0,0,.58-4.67-.58-4.67"/><path class="cls-4" d="M371.67,291.68a12.75,12.75,0,0,0-.43,8.5,10.9,10.9,0,0,1-.63,5.31s.63,4.67,1.48,5.52,3.4,13.16-6.79,7.21"/><path class="cls-5" d="M490.19,342l-1.31-13.15-2-4.27c11.17-3.61.65-7.55.65-7.55-1.15-8.22,1-13,4.1-15.4l-.1-.17s-8.74-7-15.74,8.16l-1.74.88s-14.29.58-25.36,5.53c0,0-6.71,1.46-3.5-8.74s4.56-11.77-1.75-18.07a42.15,42.15,0,0,0-15.82-9.82c-3.79,2.91-13.77,11.38-23,4.24-9.6-7.41-13.39,1.45-13.39,1.45l-9.78.51s-5.4,6.06-10,6.42c0,0-2,4.51-.48,8.75a11,11,0,0,1-.64,5.31s.64,4.67,1.49,5.52,3.61,12.48-6.5,6.63c.83.47,9.81,6,3.2,23.75,0,0-.88,8.74,7.28,2,0,0,5.25-2.92,5.25,2.91l2.62,5.25s-1.45,7.87-1.74,9,4.66,3.5,4.66,3.5l2,.3s12.24-4.38,19.53,7a9.72,9.72,0,0,0,7.87,5.25c5.54.29,1.16,9.62,1.16,9.62s-2.91,11.07,7.29,12.53c0,0,13.22-3.16,14.12-2.09l0-.12c2-5.58,6.9,1.32,6.9,1.32l11.83,1c4.6-3.94,11.49-5.91,11.49-5.91l1.65-13.47c4.92-3.94.66-7.23.66-7.23l-.33-16.43h4.59s2.31-6.24,11.83-6.9S490.19,342,490.19,342Zm-51.5,55.5h0v0S438.69,397.53,438.69,397.53Z"/><path class="cls-6" d="M331.29,444.62l-.87,9-5.54.58s-8.16-5.25-15.16-2-12-3.21-9.62-9.33l-.58-5.54-.87-1.45s.29-12.25-6.13-19.82c0,0,1.75-13.12,13.12-11.66,0,0,11.66,5.24,9.91-5.83l-.58-13.7s.87-5.25-3.79-5.54a25.67,25.67,0,0,0-7,.29l-4.95-6.12L294.56,372l-2.62-6.41L282,358.92l-6.12-3.79s-5.54-1.16-7.87,2.34-12-2.34-12-2.34-9.62.29-11.95.29-6.71-4.66-6.71-4.66l-17.59-5.84a7.5,7.5,0,0,1-8.35.3l-.29,5c1.75,2-.29,6.12-.29,6.12l-5.83.58c-6.12,7-11.08,3.21-11.08,3.21-4.08-7.58-13.7-11.37-13.7-11.37s-16.61-.87-19.53-4.08c-5.28-5.81-16.62-3.21-16.62-3.21L142,339.28s-4,9.73-6.89,11.19c0,0,.55,9.65-4.52,10.44a5,5,0,0,1-1.5,6c-4.93,1.31-1.31,7.56-1.31,7.56,7.55,4.6-.33,12.48-.33,12.48l.66,4.93,1,3.62,3.29,1.31c12.48,1,9.52,9.2,9.52,9.2-4.6,3,1.32,4.27,1.32,4.27,9.53,1.64,2.62,8.87,2.62,8.87v3.29l4.28-1-.33,2,6.24,4.93s4.6,4.27,7.23,4.27a22.75,22.75,0,0,1,6.24,1.32l-5.59,4.6a21.21,21.21,0,0,1,6.58,8.21c2.3,5.25,5.25,4.6,5.25,4.6,4.93-7.56,4.93-.66,4.93-.66a9.78,9.78,0,0,1,9.2,4.27l.33,4.6,5.26-.33,5.25,3.95H204l3.61,1,1,2.3,5.91-.66,5.26,5.92,2.3-3.62,7.88,5.59.66,3.29,1.64,1.31,3-3.28s5.92,1.64,7.89-.66,7.88-3,7.88-3a80.81,80.81,0,0,0,8.54,1.64c1.32-4.6,3.62-2,3.62-2,2.63,9.86,12.48,0,12.48,0h10.19c2.3-3.61,5.58-3,8.21-1.31a8.2,8.2,0,0,0,5.59,1c3.94-5.91,9.53.33,9.53.33s7.88,12.82,13.47,8.54,7.88,1.65,7.88,1.65l1.65-1c.65-6.24,4.59-8.54,4.59-8.54,3.54-3.26,6.11-4.65,8-4.95v-2.58s3.12-7.58,3.21-13.41C348,445.27,333,435.58,331.29,444.62Z"/><path class="cls-5" d="M315.5,398.53s2,.86,10.44-2.64c0,0,8.45,5,6.71-6.41,0,0,.87-13.7,3.49-14.28,0,0,.58-4.67-.58-4.67h0c-14,2.55-17.93-2.44-11.95-11.95,6.41-10.2,1.66-18.23,1.66-18.23l-4-1.3c-10.2,2.92-11.66-10.79-11.66-10.79,8.74-18.65.29-23.61-10.5-24.19s-13.8-17.91-13.8-17.91a33.57,33.57,0,0,1-24.48-6.88s-20.68,4.19-12,16.47c8,11.32-4.37,19.24-4.37,19.24,0,4.08.87,17.2-6.42,17.78s-12.82,6.12-12.82,6.12a14,14,0,0,1-5.05,5.75l17.21,6.12s4.37,4.66,6.71,4.66,11.95-.29,11.95-.29,9.62,5.83,12,2.34l7.87-2.34,6.12,3.79,9.91,6.71,2.62,6.41,4.67,1.46,4.95,6.12a25.67,25.67,0,0,1,7-.29c4.66.29,3.79,5.54,3.79,5.54Z"/><path class="cls-2" d="M370.74,218.65c-7.23-3.94-13.8-.66-19.06,5.26,0,0-17.41,1.64-25.62-4.6l-6.17-3c-5.26-3-11.51,0-11.51,0-4.93,5.58-20.69,14.13-20.69,14.13l-6.58,1.64L267.32,235c-1.35,0-4.58-.15-4.58-.15,0,1.64,7.79,5.78,7.79,5.78s10.18.65,0,5.58-3.61,6.24,3,13.8,0,7.56,0,7.56c-10.52,0-11.5,3.28-11.5,3.28l-.33,8.22c21,16.09,44.68-.33,44.68-.33,13.15,7.55,17.42,4.6,17.42,4.6,4.92,6.57,13.79,2.62,15.77-.66s9.85-4.27,9.85-4.27c-.65-6.57,5.59-7.56,5.59-7.56,3.94,2,5.26.33,5.26.33,0-2.3,5.58-9.86,5.58-9.86,3.94-2.95,4.27-5.91,4.27-5.91s3.95-18.07-1.64-20.7-.33-5.26-.33-5.26c9.86,2,10.84-7.88,10.84-7.88A69.26,69.26,0,0,1,370.74,218.65Z"/><path class="cls-2" d="M382.56,361.92c-.38-.36-.6-.7-.53-1,.29-1.17,1.75-9,1.75-9l-2.63-5.24c0-5.83-5.24-2.92-5.24-2.92-8.17,6.71-7.29-2-7.29-2,9-26.23-11.08-24.78-11.08-24.78l-5,2.63-2,.87c-1.16,0-5.24,7.29-5.24,7.29h-6.71l2.34,6.41s-1.46,6.12-1.75,8.75-5.54.58-5.54.58l-8.51-2.95h0s4.72,8.2-1.69,18.4-1.75,14.28,14.86,10.49c0,0,8.75-.29,13.12-4.66l7-2,9.91-1.75,1.46-.29s6.41,10.2,12.53,1.75Z"/><path class="cls-2" d="M453.35,441s8.84,5.29,14.39,6l0-.12c-6-2.05-5-10.56-4.4-18.58.66-9.2-25.95-16.43-25.95-16.43a26.13,26.13,0,0,0,1.47-14.43l-.5-.16c-.9-1.07-14.12,2.09-14.12,2.09-10.2-1.45-7.29-12.53-7.29-12.53s4.38-9.33-1.16-9.62a9.72,9.72,0,0,1-7.87-5.25c-7.29-11.36-19.53-7-19.53-7l-2-.29a14.76,14.76,0,0,1-4.07-2.42l-.24.07c-6.12,8.45-12.54-1.75-12.54-1.75l-1.46.29-9.91,1.75-7,2C346.79,369,338,369.29,338,369.29a12.09,12.09,0,0,0-2.6,1.17c.82,1.33.44,4.63.44,4.63-2.62.58-3.5,14.28-3.5,14.28,1.75,11.37-6.7,6.42-6.7,6.42-8.44,3.49-10.29,2.58-10.29,2.58l-.1.09c1.75,11.08-9.91,5.83-9.91,5.83C294,402.83,292.26,416,292.26,416c6.42,7.58,6.12,19.82,6.12,19.82l.88,1.46.58,5.54c-2.33,6.12,2.62,12.53,9.62,9.32s15.16,2,15.16,2l5.53-.58.88-9c1.69-9,16.5.25,16.42,5.72l.09.05s5.54-3.49,9.62.59,9.33,4.66,9.91,0l4.67-.59s2.33,14.87,6.7,7.87h1.46s14.86,23,29.73,16.33c0,0,9-1.46,4.66-7.58l-6.7-8.45s0-5,5.83-5,7.58-3.79,7.58-3.79,4.37,7,8.16-2.91C429.16,446.8,438.49,433.68,453.35,441Z"/><path class="cls-2" d="M371.68,292.27a4.46,4.46,0,0,1-5.83-2.78l-9.91-5s-4.26-5.09-6.58-6.09l-.39-.58-9.86,4.27c-1.58,3.87-10.45,7.81-15.38,1.24,0,0-4.27,3-17.41-4.6a47.47,47.47,0,0,1-21,7.28s3,17.43,13.81,18,19.24,5.54,10.49,24.2c0,0,1.46,13.7,11.66,10.78l4,1.3,8.38,3.1s5.24,2,5.53-.58,1.75-8.74,1.75-8.74l-2.33-6.42h6.7l5.25-7.29,2-.87,5-2.62a15.09,15.09,0,0,1,8.18,2h0c10.11,5.85,7.46-6,6.62-6.83s-1.49-5.52-1.49-5.52a11,11,0,0,0,.64-5.31c-1.49-4.25.33-8.87.33-8.87Z"/><path class="cls-2" d="M429.13,270l-.29-9.33c3.21-6.12-.29-9-.29-9l-.3-9.32c-6.41-8.46,7-9,7-9,2.33-1.46,10.2-.58,10.2-.58,12.09,1.69,12-2.86,10.61-6.93-2.47-.27-1.35-3.32-1.35-3.32,4.27-6.57-3-4.6-3-4.6l-.33-3.61-4.6-.66c0-2.3-4.27-2.63-4.27-2.63-4.6,4.28-8.21-1.64-8.21-1.64a52.44,52.44,0,0,1-5.59.33c0-3-4.27-1-4.27-1-1.23.45-2,.16-2.44-.58a10.8,10.8,0,0,0-3.16,11.13s-1.31,3.61-7.89.33c0,0-5.91-1-10.51,1.64-3.21,1.83-13.25,2-21.51.51l0,.15s-1,9.68-10.84,7.7c0,0-5.26,2.63.33,5.26s1.64,20.7,1.64,20.7-.33,3-4.27,5.91c0,0-5.58,7.56-5.58,9.86,0,0-1.32,1.64-5.26-.33,0,0-6.24,1-5.59,7.56l.07.16c2.32,1,6.49,5.92,6.49,5.92l9.91,5c2.14,4.41,5.64,2.56,5.64,2.56,4.57-.36,10-6.42,10-6.42l9.78-.51s3.75-8.82,13.39-1.45c10.4,7.95,22.76-4.44,22.76-4.44C429.8,275.83,429.13,270,429.13,270Z"/><path class="cls-5" d="M258.22,194.51a23.75,23.75,0,0,1-1.64,20.05l-2.3,7.55-.34.93s-7-8.17-11.37,2c0,0,0,4.08-10.49.29s-12.53-3.79-12.53-3.79l-1.46-1.75s-8.45-4.37-10.2-4.08l-5.84-5.25s2.35.7,3.24-4.9a85.2,85.2,0,0,0,.94-10.55s0-9.26,6.22-5.13l5,2.54s3.56,4.77,5.91-1l3,2.3,21.09.73,2.24-.41S252.53,185.39,258.22,194.51Z"/><path class="cls-5" d="M436.78,94l-6.57,9.2c-.92,3.81-2,4.86-3.12,4.62v4.77s5,12,2,20.41-5.25,13.11.87,21.27l.29,1.75v10.2s1.79,3.91,1.2,7.12c0,0,3.37.82,4.46,2.47a.16.16,0,0,0,.08.05c4.16-4.47,15.2-7.93,15.2-7.93l8.22-4.93-.33-8.87c7.56,0,6.57-2.63,6.57-2.63s3.95-14.13,11.17-14.46,8.87-5.58,8.87-5.58a8.35,8.35,0,0,1,5.26-7.56c7.55,0,8.21-3,8.21-3-.32-7.55,3.62-6.89,3.62-6.89,7.23-.34,10.84-1,11.17-12.49s-10.51,1.64-10.51,1.64a20.28,20.28,0,0,1-5.92,8.22s-11.83-1.65-18.73,4.6-6.9,3.94-6.9,3.94c-4.93-4.27-6.89-1-6.89-1v8.87l-5.59,3.62-2.3.33,1-5.59.33-8.87,1.32-2.3c5.58-1.64,4.93-12.16,4.93-12.16,6.24-15.44-6.58-3-6.58-3-.65,8.87-7.88-3-7.88-3C440.39,88.39,436.78,94,436.78,94Z"/><path class="cls-2" d="M431.45,173.37l.08-.13c.58-3.21-1.24-7.05-1.24-7.05V156l-.29-1.75c-6.12-8.16-3.79-12.82-.87-21.27s-2-20.41-2-20.41v-4.68c-2-.23-3.92-5.3-3.92-5.3l-18.4-1.64c-4.93,4.27-8.55,1.64-8.55,1.64S379.8,89.11,372.57,90.76s-18.07.65-15.77-4.27-1.31-4.28-1.31-4.28l-4.6,1.65L342,82.21c-3.28,4.6-10.51,2.63-10.51,2.63L327.89,94c2,.33.65,3,.65,3v4.6l.33,3.61.33,4.93c-4.27,2.3.33,5.59.33,5.59l-1,3-2.62-.33-1.32,1.32,3.94,5.58-2.3,2v4.7l.57.17s12.83,1.75,12.25,9.33,0,10.49,9.33,5,8.74-4.66,7.57-14l1.17-3.79,1.75-3.2-2.62-6.13s9.62-4.66,11.65-7.57c0,0,2.92-2.92,3.79,4.37l5.84,3.79-.3,2.91-3.79,9.33s-6.89,8.86,10.5,1.46c15.74-6.71,23,1.75,23,1.75s9.61,2.91,3.2,9.33-15.45,8.74-15.45,8.74S384,158,386.57,166.78s2.33,8.45,0,16,5,14.58,9.91,6.41,10.5-6.7,12.53-7.87,7.58-3.49,9.92-6.12C420.61,173.34,426.8,172.35,431.45,173.37Z"/><path class="cls-2" d="M324.59,147.16,322,134.86l4.6-1.64.09-1s12.82,1.75,12.24,9.33.71,10,10,4.47c0,0,5.12-1.55,9.49,6s9.33,8.16,9.33,8.16l7,5.54,11.08-.3a6.62,6.62,0,0,1,.76,1.34c2.63,8.75,2.34,8.46,0,16s5,14.57,9.91,6.41,10.5-6.7,12.54-7.87,7.58-3.5,9.91-6.12c1.68-1.89,7.87-2.88,12.53-1.86,0,0,3.53.93,4.62,2.59l-.49.56a5.09,5.09,0,0,0-1.11,3.45c0,1.05-1.52,4.1-1.52,4.1-2.46,4.38-9,10.1-9,10.1-1.74,4.32-2.35,10.85-2.4,11.43a10.6,10.6,0,0,0,.41,2.28l-.1.26a10.8,10.8,0,0,0-3.16,11.13s-1.31,3.62-7.88.33c0,0-5.92-1-10.52,1.64-3.21,1.84-13.16,2-21.42.55a74.32,74.32,0,0,1-8.32-3c-7.23-3.95-13.8-.66-19.06,5.25,0,0-17.41,1.65-25.62-4.6l-.51-.38s8.06-8.49-4.76-15.72l-1-4.93L318,191.86l-1.65-2.63-1.31-6.9-7.23-12.48,0-4.22,7.39.08,4.44-8.84v-4.59l4.6,1,.65-1.64Z"/><path class="cls-2" d="M348.3,146.43c9.33-5.54,8.75-4.67,7.58-14l1.17-3.79,1.74-3.21-2.62-6.12s9.62-4.67,11.66-7.58c0,0,2.91-2.92,3.79,4.37l5.83,3.79-.29,2.92-3.79,9.32s-6.9,8.87,10.49,1.46c15.74-6.7,23,1.75,23,1.75s9.62,2.92,3.21,9.33-15.45,8.74-15.45,8.74-9.48,4.1-8.5,11.82l-11.32.42-7-5.53s-5-.59-9.33-8.17S348.3,146.43,348.3,146.43Z"/></svg>