<svg id="图层_1" data-name="图层 1" xmlns="http://www.w3.org/2000/svg" viewBox="0 0 650.78 650.78"><defs><style>.cls-1{fill:#00324b;}.cls-1,.cls-2,.cls-3,.cls-4{stroke:#545555;}.cls-2{fill:#761b1d;}.cls-3{fill:none;}.cls-4{fill:#1a1a1a;}</style></defs><title>湖北</title><path class="cls-1" d="M495.5,267.35l.13-.06a49,49,0,0,1,.16-5.31c.7-10.17-2.45-7-2.45-7-9.12,2.1-13,2.8-22.44-5.26-6.58-5.61-10.11-2.06-11.64.62l.07.13s.52,26-.79,33.39c0,0-9.47,8.14-13.14,2.89,0,0-4.21-.26-5.53.79s-6.57-1-6.57-1-3.68-1.06-5.78,4.73c0,0-2.63,2.1-5.26-1.06,0,0-3.15,4.21-7.1-.26s-15-5.51-14.19,8.94V299l13.4,9.73s5.52,7.36,1.84,11.57a50,50,0,0,1-8.94,7.62s-2.86,5.66-2.86,9.08a43.14,43.14,0,0,1,7.7,26.3L412.9,377l4.16,6.15.2.28c10.16-13.67,13-.7,13-.7l2.48.76h.09c.72-2.88,3.84-3.4,11.76-11.32s5.75-16.19,5.39-21.95,7.92-4.68,7.92-4.68h10.79l.37-9c-6.12-16.2,0-22.31,0-22.31,3.6-5,3.6-7.2,3.6-7.2-9.36-18.36,14.75-12.6,14.75-12.6h.15c-.35-5.42,4.57-12.41,4.57-12.41C492.09,278.39,495.5,267.35,495.5,267.35Z"/><path class="cls-2" d="M449.91,402.54c-5-.72-12.59,5-12.59,5-7.2,6.47-19.07,3.23-25.91.35s-9.36-1.07-9.36-1.07l-5.4,2.51c-12.59,3.25-15.83-3.23-15.83-3.23l-.28-.07c-.17,2.39-1.72,4.89-6.69,4.5,0,0-6.31-2.45-9.12.35s-4.91,8.41-10.16,4.91-8.41-3.86-8.41-3.86l-2.11-1.4a20.94,20.94,0,0,0-4.55-15.42s-2.46-4.9-.36-9.11l-.05-.14c-3.54,1.39-8.28,1.15-14.32-3.37a8.85,8.85,0,0,0-9.81-1.75,59,59,0,0,1-4.21-6.31c-1.75-3.16-6-10.51-7.36-10.17,0,0-4.9,10.52-9.46,13.67a5.24,5.24,0,0,0,1.75,7.37l.7,3.85,6.66,8.06-1.4,1.05h-7.71s-3.86,4.91-7-.7-5.61-7.35-8.41-5.25-7.72,4.9-9.12,8.76-1.57,15.11-1.57,15.11-.09.49-7.1,1.19a23.94,23.94,0,0,0-11.31,3.68,37.34,37.34,0,0,0-7.7,6.64c17.31,15,30.74,12.58,30.74,12.58s3.86-.35,5.26-1.75,4.21.35,4.21.35l17.17,8.76,7.36,2.11-1.05,7.71,1.75,1.4c8.77-1.75,9.82,3.5,9.82,3.5,8.06-.34,6.31,2.81,6.66,9.12s11.56-4.21,13-7,13.67-1.05,13.67-1.05c5.25,3.5,6.31,1.4,14.37-11.22s8.41.35,9.11,7.36a69.73,69.73,0,0,0,3.16,14l2.1.35c.7-2.1,3.85-2.45,3.85-2.45l2.81,5.26,1.4.7s2.81-1.05,9.12-10.17c5.39-7.79,20-21.46,24.12-25.27l.5-1.31c2.93-5.73,11.11-11.55,11.11-11.55s11.52-.72,13-4.32,13.67-10.44,13.67-10.44l2.52-1.79C466.1,404.7,455,403.26,449.91,402.54Z"/><path class="cls-2" d="M520,360.45s4-1.8-.72-11.15c0,0,3.24-10.08,16.19-11.88s3.25-5.4.36-9L530.12,322s-6.12-5.4-8.28,1.79-4,6.48-7.92,2.53a42.67,42.67,0,0,0-6.47,4c-2.16,1.8-10.08-1.44-12.24-8.63s-4.32-13.32-7.92-15.84V294.6s-24.11-5.76-14.75,12.59c0,0,0,2.16-3.6,7.2,0,0-6.11,6.12,0,22.31l-.36,9H457.79s-8.28-1.08-7.92,4.67,2.52,14-5.4,21.95S433.32,381,432.6,383.84a15.59,15.59,0,0,1,5.76,8.28c1.44,5.4,2.7,8.56,8.46,10.72,0,0-.19-8.56,8.09-6.76a50.74,50.74,0,0,1,13,11.15s6.83,4.68,6.11,10.08,8.28,2.15,8.28,2.15,5.76-5.75,17.27,1.44l1.44-.35,1.8-7.56s-12.59-7.56-.36-20.52l-.36-20.5S511.05,357.21,520,360.45Z"/><path class="cls-3" d="M520,360.45s1.8,1.8,1.8,6.12-1.44,14,11.51,11.15c0,0,16,.7,6.84,15.12-6.84,10.79-19.43-4.32-19.43-4.32s-14.39-2.16-12.24,9l3.6,4.31s9,14.76-9.35,11.16"/><path class="cls-4" d="M502.93,413.32s-12.59-7.56-.36-20.52l-.36-20.51s9-14.75,18-11.51l.09,0s1.71,1.77,1.71,6.09-1.43,14,11.52,11.15c0,0,16,.7,6.84,15.12-6.84,10.79-19.44-4.32-19.44-4.32s-14.39-2.16-12.23,9l3.6,4.31s9.09,14.8-9.26,11.2Z"/><path class="cls-3" d="M501,420.55s2.88,1.79,10.08,1.07c0,0,5-3.23,5,7.56s9,11.52,9,11.52,2.51,1.07,2.51,6.47c0,0,2.89,10.8,14,12.24"/><path class="cls-3" d="M381.14,406.51s3.24,6.48,15.83,3.24l5.4-2.52s2.52-1.8,9.36,1.08,18.71,6.11,25.91-.36c0,0,7.55-5.76,12.59-5s16.19,2.16,11.16,10.08l-2.52,1.8s-12.24,6.83-13.68,10.43-12.95,4.32-12.95,4.32-8.18,5.83-11.11,11.55"/><path class="cls-3" d="M373.11,372l-.35,7.36s4.21.7,3.51,9.81l3.85,13.32s3.16,9.12-5.95,8.42c0,0-6.31-2.46-9.12.35s-4.91,8.41-10.16,4.9-8.42-3.85-8.42-3.85l-2.1-1.4a21,21,0,0,0-4.55-15.43s-2.46-4.9-.36-9.11"/><path class="cls-3" d="M432.6,383.84l-2.7-.94s-2.81-13-13,.71c0,0,.35,2.8-4.56,2.8a23.39,23.39,0,0,1-8.76-1.75,27.12,27.12,0,0,0-3.16-.35c-1.05,0-3.15.7-4.2.7s-6.31-1.05-6.31-1.05-3.15-4.56-5.26-4.56l-1.4-2.45s-6,1.75-8.06-3.16-7-1.4-7,2.11-5.26-.71-5.26-.71a8.05,8.05,0,0,0-8.76-1.05l.7-5.61s-2.1-4.91-3.51-2.1L347.53,378s-7,16.47-22.44,4.9a8.85,8.85,0,0,0-9.81-1.75,56.27,56.27,0,0,1-4.21-6.31c-1.75-3.15-6-10.51-7.36-10.16,0,0-4.9,10.51-9.46,13.67a5.22,5.22,0,0,0,1.75,7.36l.7,3.85,6.66,8.06-1.4,1.06h-7.71s-3.86,4.91-7-.7-5.61-7.36-8.41-5.26-7.72,4.9-9.12,8.76-1.57,15.12-1.57,15.12-.09.48-7.1,1.18a24.07,24.07,0,0,0-11.31,3.68,36,36,0,0,0-7.86,6.84"/><path class="cls-4" d="M339.52,386.27c5.52-2.16,8.07-8.41,8.07-8.41l3.85-11.56c1.41-2.81,3.51,2.1,3.51,2.1l-.7,5.6a8.05,8.05,0,0,1,8.76,1.05s5.26,4.21,5.26.71c0-2.63,2.63-5.25,4.9-4.33v.47l-.35,7.36s4.21.7,3.51,9.81l3.85,13.32a11.31,11.31,0,0,1,.53,3.59c-.09,2.46-1.32,5.23-6.49,4.83,0,0-6.3-2.46-9.11.35s-4.91,8.41-10.16,4.91-8.42-3.86-8.42-3.86l-2.1-1.4a21,21,0,0,0-4.56-15.43s-2.45-4.9-.35-9.11Z"/><path class="cls-3" d="M268.66,184.07s-8.68,24.19-18.14,21.56c0,0-8.15-1.57-12.88,15.51,0,0,1.84,5.52-5.26,8.94,0,0-11,5.78-5,8.94s.26,7.62,0,6.57c0,0-7.63-1.58-7.36,2.89a78.07,78.07,0,0,0,1.05,8.68s2.89,3.68-4,1c0,0-9.19-.79-12.88,2.36"/><path class="cls-3" d="M184.8,431.19s-3.42-.53-8.41,3.15c0,0-11.83,3.68-9.47-5.78a9.12,9.12,0,0,0,.53-11.57c-4.47-6.3,1.31-9.73,1.31-9.73s5.26-1.31,3.42-11.83,1.58-12.88,4.21-13.93,4.47-5.52,3.94-13.4-.26-11.57-7.36-11.57c0,0-4.21,1.31,1.58-7.62s6.83-8.42,6.83-15a22.15,22.15,0,0,1,3.16-11.3l-.26-1.58s-1.32-7.62-7.11-12.36c0,0-.52-5.78,0-8.15"/><path class="cls-4" d="M187.69,445c-4.21-3.51-5.26-8.07-3.5-9.47,1.16-.93,1.09-2.33.7-4.18-.08,0-3.47-.49-8.4,3.15,0,0-11.84,3.68-9.47-5.78a9.12,9.12,0,0,0,.53-11.57c-4.47-6.31,1.31-9.73,1.31-9.73s5.26-1.31,3.42-11.83,1.58-12.88,4.21-13.93,4.47-5.52,3.94-13.41-.26-11.56-7.36-11.56c0,0-4.21,1.31,1.57-7.63s6.84-8.41,6.84-15a22.26,22.26,0,0,1,3.15-11.31l-.26-1.57s-1.31-7.63-7.1-12.36c0,0-.52-5.78,0-8.15l0-.17a10.15,10.15,0,0,1-1.79-1s-6.83-2.89-18.38,10c.63,3.94,1.54,8,1.54,8,3.85,6.31-1,7.36-1,7.36-5.61,4.56,0,12.27,0,12.27l1.4,3.15-2.45,8.42c-1.76,2.45-8,5-8,5,0-2-3-5-3-5l-3.54,1-4.53-3c-9.59.5-20.69,15.13-20.69,15.13-6,14.12-8.57,5.05-8.57,5.05-3.22,2.41-11.07,12.63-11.07,12.63-3.63,9.15-3.44,3.82-3.63-1.9s-9-8.58-9-3.82-2.29,5.34-6.67,5.34-3.62-3.24-3.62-3.24l2.29-5.14-7.25-1.34c-6.29-1.33-12,12.58-12,12.58l-7.82-.38c-4.76,3.24-6.86-3.62-6.86-3.62s-6.1-6.1-4.76.95-4.39,5.72-4.39,5.72c-8.77-3.43-9.53-1-9.53-1a10.6,10.6,0,0,1-3.81,8.4c-4.19,3.42-.76,4.57-.76,4.57,6.48,3,11.43,10.86,11.43,10.86l-.57,12.2c-5.53,5.15-2.09,6.87-2.09,6.87s.76,9.53.76,12a25,25,0,0,1-.58,5,28.55,28.55,0,0,1-7.62.38c-4-.38-3.81.76-3.81.76,4.57,15.25,11.43,14.3,11.43,13s1-4.38,2.68-8.19,8.38-6.29,7.81,3.43,6.86,8.38,6.86,8.38l-.19-2.28c5.14-1.72,3.62,4.38,3.62,4.38h1.53C58,460.9,56.27,468,56.27,468a3.24,3.24,0,0,0-.57,4c4.2,1.72.57,5.33.57,5.33-4.38,4.39,2.43,10.07,2.43,10.07-1.05,10.86,8.42,3.15,8.42,3.15,3.15-8.76,5.25,4.91,5.25,4.91l.36,1.05,1.75,1,.7,8.77c9.11,8.41,13,1.75,13,1.75v-6.66L91.3,500,91,493l2.45-4.56,1.41-5.61,1.39-1.4.36-4.91,4.21-.7c1.4-17.88,14-10.51,14-10.51.7,9.11,5.6.7,5.6.7l.35-4.91s4.56.35,4.56-3.16,6-4.9,11.22-5.6,20-1.06,20-1.06l2.1,1.76,1.75,2.45h2.81l1.75,1.4c2.45,12.27,16.82,4.56,23.48.7S191.9,448.45,187.69,445Z"/><path class="cls-3" d="M217.66,283.18s5.79-2.1,5.79,6.05,3.53,11.41,12.09,5c4.2-3.16,8.67,3.94,8.67,3.94s.53,4.73,9.46,3.94c0,0,2.11,11,18.67,0,0,0,8.41-3.15,8.15,5.78,0,0,9.46,11.83,13.14-.26,0,0,.26-6.83-.26-7.62,0,0-3.15-11.31,10-7.63,0,0,4.73,1.85,11-7.09,0,0,.79-1.84,7.63-1.32s13.67-.52,15.51-1.31,8.41,1.57,8.41,1.57,6.83,5.79,8.15-3.94l.26-5.25,1.84-.53s-3.94-11.57,5.26-15.77S373,248.48,373,242.17,377,229,377,229a28.14,28.14,0,0,0-2.1-7.89c-1.58-3.15,1.31-10.51,1.31-10.51l1.58-2.63a15.18,15.18,0,0,0,1.31-7.1"/><path class="cls-2" d="M371,202.39s-6.31.7-10.16,3.15-9.82,1.76-10.17,0-4.21-1.75-4.21-1.75c-2.45,3.51-7.36,1.05-7.36,1.05a6.79,6.79,0,0,0-1.13-.41c-4.33-1.11-5.53,4.27-5.53,4.27l-8.41.35-4.21.7-2.45-2.45-6.31-4.56-3.85,2.45-4.56-5.25-1.75-.7-3.86,1-4.21-4.21h-2.45l-4.9-2.1c-6.31-.35-8.42-4.91-8.42-4.91-.61-4.88-3.88-6.31-8.42-5-.15.43-8.75,24.15-18.13,21.54,0,0-8.15-1.57-12.88,15.51,0,0,1.84,5.52-5.26,8.94,0,0-11,5.78-5,8.94s.26,7.62,0,6.57c0,0-7.63-1.58-7.36,2.89a78.07,78.07,0,0,0,1.05,8.68s2.89,3.68-4,1c0,0-9.19-.79-12.88,2.36l-.2.18,2.57,3,7.62,9.2s4.78,4.95,3.64,9.88c0,0,5.57-1.73,5.57,6.42s3.53,11.41,12.09,5c4.2-3.16,8.67,3.94,8.67,3.94s.53,4.73,9.46,3.94c0,0,2.11,11,18.67,0,0,0,8.41-3.15,8.15,5.78,0,0,9.46,11.83,13.14-.26,0,0,.26-6.83-.26-7.62,0,0-3.15-11.31,10-7.63,0,0,4.73,1.85,11-7.09,0,0,.79-1.84,7.63-1.32s13.67-.52,15.51-1.31,8.41,1.57,8.41,1.57,6.83,5.79,8.15-3.94l.26-5.25,1.84-.53s-3.94-11.57,5.26-15.77S373,248.48,373,242.17,377,229,377,229a28.14,28.14,0,0,0-2.1-7.89c-1.58-3.15,1.31-10.51,1.31-10.51l1.58-2.63a15.35,15.35,0,0,0,1.32-6.92l-1.06-.79Z"/><path class="cls-2" d="M266.56,184.86c-5.61,2.46-6.67,0-6.67,0l-3.5-7.36c-1.75-2.45.35-4.9.35-4.9,4.21-6-4.55-2.11-4.55-2.11l-1.76-1.75c0-4.2-6.66-4.2-6.66-4.2l-1.05-3.16-2.45-2.8c-3.86,2.45-2.81-3.51-2.81-3.51,3.86-8.41-4.2-8.41-4.2-8.41l-1.4-1.75c4.2-4.21-5.26-11.92-5.26-11.92l-4.21.35-1.4-3.86c-3.51-3.85-4.56,1.05-4.56,1.05l-2.1.71c-4.91-.7-8.76,2.45-11.57,4.9a33.88,33.88,0,0,1-6.31,4.21l-3.5-3.86c-2.8,0-3.86-1.05-3.86-1.05-2.8-16.47-8.41-1.05-8.41-1.05l-2.1,1.4a25.54,25.54,0,0,0-8.06-1.4c-.7,2.46-7.37,3.86-11.92-.35s-12.27-2.1-12.27-2.1l-5.26-.7h-1.75l-11.92-2.81c-8.06-2.1-12.26,1.76-12.26,1.76l-6.31.34c-11.22,6.31,2.8,9.82,2.8,9.82,1.4,0,10.52.7,10.52.7l1.4,2.46c10.86,2.1,4.55,13,4.55,13v4.21a10.67,10.67,0,0,0,3.16,1H140a85.79,85.79,0,0,0,10.87,5.61c7.71,3.51,7,15.42,7,15.42s6.31,5.26,1,5.61a15.94,15.94,0,0,0-8.06,2.46c-2.1,5.6-10.17.35-10.17.35l-5.61-1.06c-3.5,1.41-13,2.81-13,2.81L119,190.47l-6,3.16-4.2.35c5.25,5.61,2.8,13,2.8,13s-1.75-.7-4.21,2.45-4.55,11.92,3.16,14.37,1.75,5.61,1.75,5.61v14a9.1,9.1,0,0,1,1.75,6s-4.55,3.86-1.75,7,4.91,3.86,2.11,6-5.61,7.71,2.45,7.71,5.26,7.36,5.26,7.36l1,4.21c-1,7,3.85,3.85,8.41,1.75s4.21,3.15,4.21,3.15l2.1,1.05c1.23-.24,3,.55,3.91,1.05l.61-.16s0,1.32,3.95-1.05,9.73-4.2,13.67-2.1c0,0,2.63-3.68,2.1-13.14a17.86,17.86,0,0,0,10.52-11.05s3.15-3.41,11.82-3.67a156.28,156.28,0,0,1,17.09.52l2.43,2.81.2-.18c3.68-3.15,12.88-2.37,12.88-2.37,6.84,2.63,4-1.05,4-1.05A79.08,79.08,0,0,1,220,248.5c-.26-4.47,7.37-2.9,7.37-2.9.26,1.06,6-3.41,0-6.57s5-8.93,5-8.93c7.1-3.42,5.26-8.94,5.26-8.94,4.73-17.09,12.88-15.51,12.88-15.51,9.4,2.61,18-21.26,18.13-21.55A18.71,18.71,0,0,0,266.56,184.86Z"/><path class="cls-3" d="M303.71,364.68s1.49-1.32.7-6.31c0,0,2.37-14.46-2.1-19.19s-8.94-16-9.73-20a18.92,18.92,0,0,0-2.63-6.57"/><path class="cls-2" d="M303.36,397.62l-6.66-8.06-.7-3.85a5.22,5.22,0,0,1-1.75-7.36c4.56-3.16,9.46-13.67,9.46-13.67s1.57-1.46.79-6.46c0,0,2.36-14.46-2.11-19.19s-8.94-16-9.72-20a17.29,17.29,0,0,0-2.35-6.14l-.19-.29c-4.21,1.81-9.56-4.87-9.56-4.87.26-8.94-8.15-5.79-8.15-5.79-16.56,11-18.66,0-18.66,0-8.94.79-9.47-3.94-9.47-3.94s-4.46-7.1-8.67-3.94c-8.56,6.42-12.09,3.15-12.09-5,0-6.86-4.1-6.45-5.4-6.15l-.2.07a7.18,7.18,0,0,1-2.29,3.45s-.79,6.05-8.15,1.84c0,0-3.42-4.21-5.79.53,0,0-1.57,2.89-9.2,3.15,0,0-7.09-1.84-8.93,3.16-1.59,4.3-3,6.65-6.36,5.21-.44,2.49,0,8.2,0,8.2,5.78,4.73,7.1,12.35,7.1,12.35l.26,1.58a22.15,22.15,0,0,0-3.16,11.3c0,6.57-1.05,6.05-6.83,15s-1.58,7.62-1.58,7.62c7.1,0,6.84,3.68,7.36,11.57s-1.31,12.35-3.94,13.41-6.05,3.41-4.21,13.93-3.42,11.83-3.42,11.83-5.78,3.42-1.31,9.72a9.13,9.13,0,0,1-.52,11.57c-2.37,9.46,9.46,5.79,9.46,5.79,4.67-3.44,7.95-3.21,8.37-3.16-.19-.88-.44-1.85-.65-2.92-.71-3.5,7.36-3.15,10.51-2.45a16.46,16.46,0,0,0,6.31,0c3.16-8.41,10.87-7.36,14-4.56s7.71,6,7.71,6-4.2,1.75,1,0,17.18.35,17.18.35l1,.82a36.51,36.51,0,0,1,7.8-6.78A24.07,24.07,0,0,1,261,417.78c7-.7,7.1-1.18,7.1-1.18s.17-11.26,1.57-15.12,6.31-6.66,9.12-8.76,5.25-.35,8.41,5.26,7,.7,7,.7H302Z"/><path class="cls-3" d="M356.2,274.51s9.73,5.78,16,12.35c0,0,2.63,3.69,14.19,2.11l3.68,3.15L400.89,299l13.41,9.72s5.52,7.36,1.84,11.57a49.48,49.48,0,0,1-8.94,7.62s-3.15,5.79-3.15,9.2c0,0-5.52,1.85-5.78,6.32,0,0-2.64,5.25-10.26,3.15,0,0-7.1,3.68-8.67,7.1s-15.52,5.25-16.57-5.26c0,0-1.31-2.89-4.73,1.05a79.89,79.89,0,0,1-8.67,8.15s-4.12,4.56,2,8.85"/><path class="cls-4" d="M351.38,366.64l-3.86,11.57s-7,16.47-22.43,4.9a8.85,8.85,0,0,0-9.81-1.75,56.27,56.27,0,0,1-4.21-6.31c-1.75-3.15-5.77-10.7-7.17-10.35l0-.11s1.33-1,.54-6c0,0,2.37-14.46-2.1-19.19s-8.94-16-9.73-20a21.79,21.79,0,0,0-2.33-6.48l.09-.09c1.28-.68,2.44-2.2,3.29-5,0,0,.26-6.83-.26-7.62,0,0-3.16-11.31,10-7.63,0,0,4.73,1.85,11-7.09,0,0,.79-1.84,7.63-1.32s13.66-.52,15.5-1.31,8.42,1.57,8.42,1.57,6.83,5.79,8.15-3.94l.26-5.26,1.84-.52s9.73,5.78,16,12.35c0,0,2.63,3.69,14.19,2.11l3.68,3.15,10.78,6.84,13.41,9.72s5.52,7.36,1.84,11.57a49.85,49.85,0,0,1-8.94,7.62s-3.15,5.79-3.15,9.21c0,0-5.52,1.84-5.79,6.31,0,0-2.63,5.25-10.25,3.15,0,0-7.1,3.68-8.67,7.1s-15.52,5.25-16.57-5.26c0,0-1.31-2.89-4.73,1.05a79.89,79.89,0,0,1-8.67,8.15s-4.11,4.45,2,8.74Z"/><path class="cls-3" d="M416.93,383.61l-4.21-6.31-.79-13.68a44.54,44.54,0,0,0-7.88-26.55"/><path class="cls-4" d="M351.48,366.28c1.41-2.81,3.51,2.1,3.51,2.1l-.7,5.6a8,8,0,0,1,8.76,1s5.26,4.21,5.26.71,4.9-7,7-2.11,8.06,3.16,8.06,3.16l1.4,2.45c2.11,0,5.26,4.56,5.26,4.56s5.26,1.05,6.31,1.05,3.15-.7,4.21-.7a27.14,27.14,0,0,1,3.15.35,23.39,23.39,0,0,0,8.76,1.75c4.91,0,4.56-2.8,4.56-2.8l0-.16-4.15-6.15-.8-13.67a43.08,43.08,0,0,0-7.7-26.31l-.18,0s-5.52,1.84-5.78,6.31c0,0-2.64,5.25-10.26,3.15,0,0-7.1,3.68-8.67,7.1s-15.52,5.26-16.57-5.26c0,0-1.31-2.89-4.73,1.05a79.89,79.89,0,0,1-8.67,8.15s-4.12,4.35,2,8.65Z"/><path class="cls-4" d="M373.46,371.61c.84.26,1.44.81,2,2.15,2.1,4.91,8.06,3.16,8.06,3.16l1.4,2.45c2.1,0,5.26,4.55,5.26,4.55s5.26,1.06,6.31,1.06,3.15-.71,4.21-.71a26.42,26.42,0,0,1,3.15.36,23.45,23.45,0,0,0,8.76,1.75c4.91,0,4.56-2.81,4.56-2.81,10.16-13.66,13-.7,13-.7l2.48.77.22.17a15.59,15.59,0,0,1,5.76,8.28c1.44,5.4,2.7,8.56,8.46,10.72l-.09.34c-4.63,1-9.09,4.77-9.09,4.77-7.2,6.47-19.07,3.24-25.91.36s-9.36-1.08-9.36-1.08l-5.39,2.52c-12.6,3.24-15.84-3.24-15.84-3.24l-.5-.18a11.17,11.17,0,0,0-.51-3.8l-3.86-13.32c.7-9.11-3.5-9.81-3.5-9.81l.34-7.36Z"/><path class="cls-3" d="M495.27,267.14s-3.42,11.05-3.42,14.73c0,0-4.91,7.32-4.56,12.73"/><path class="cls-4" d="M612.86,386.41l-1.75-2.1c-9.81-.35-6-9.12-6-9.12l2.8-3.5s-3.85-1.05-3.5-9.46-3.85-4.91-3.85-4.91l-2.46-.7c0-2.11-3.15-7.36-3.15-7.36s-3.86-4.21,1.4-8.42,2.81-11.21,2.81-11.21c6.65-.7,13-7.37,13-7.37,10.17-1.4-2.45-5.95-2.45-5.95-4.21,0-9.81-8.06-9.81-8.06s.7-2.11-1.76-2.11-8.76,3.86-9.81-.35-4.21-8.41-8.76-3.85-6,.7-6,.7c-7-16.13-14.73-13.67-14.73-13.67l-1.75-3.51c-3.15.7-7,1.41-7,1.41l-.35-2.81c-4.91,0-2.1-13.67-2.1-13.67l-3.16-1.75c-4.9-5.26-7.71.35-7.71.35,1.41,1.75-2.1,9.11-2.1,9.11-4.21,3.5-6,1.75-6,1.75a9.81,9.81,0,0,0-8.06,2.11c-3.86,3.15-4.91.35-4.91.35-1.4-7.72-5.26-8.07-5.26-8.07l-4.9-.69L504.2,270l-2.1-.35c-4.56.8-6.24,1.81-6.47-2.31l-.2.09s-3.42,11-3.42,14.73c0,0-4.9,7.32-4.55,12.73v11.15c3.6,2.52,5.76,8.64,7.92,15.84s10.07,10.43,12.23,8.63a43.09,43.09,0,0,1,6.48-3.95c4,3.95,5.76,4.67,7.91-2.53s8.28-1.79,8.28-1.79l5.76,6.47c2.88,3.6,12.59,7.2-.36,9s-16.19,11.88-16.19,11.88c4.67,9.35.71,11.15.71,11.15l.25.36s1.72,1.77,1.72,6.08-1.44,14,11.51,11.16c0,0,16.11.37,7,14.79L549,396.4c5.76.36,9,6.12,9,6.12a48.32,48.32,0,0,0,19.43,28.07l.12.16c2.79-2.46,15.86-3.51,23.41,4,8.06,8.06,6.66,4.91,19.63-2.1s.7-19.28.7-19.28C621.28,391.32,612.86,386.41,612.86,386.41Z"/><path class="cls-3" d="M459.25,250.59s.53,26-.78,33.38c0,0-9.47,8.15-13.15,2.89,0,0-4.21-.26-5.52.79s-6.57-1-6.57-1-3.68-1.05-5.79,4.73c0,0-2.63,2.1-5.25-1.05,0,0-3.16,4.21-7.1-.26s-15-5.52-14.2,8.94"/><path class="cls-1" d="M458.78,283.84c1.31-7.36.78-33.39.78-33.39l-.14-.4a11.31,11.31,0,0,0-1.13,2.46c-9.47,10.87-10.17,4.56-10.17,4.56,1.4-4.91-1.05-9.81-1.05-9.81H445l-1.4,3.15-1.76-.7L438,240.24l-4.56-3.5.7-4.91c-6-3.5-3.5-7-3.5-7,7.36-4.56.35-10.17.35-10.17l.35-10.17c0-9.11-10.87-2.45-10.87-2.45l-4.9,8.41s-3.86-2.45-9.82,0-10.87-6-10.87-6-3.15-4.55-6.65-2.8a11.52,11.52,0,0,1-7.37.7l-1.41-1.06a15.42,15.42,0,0,1-1.34,6.53l-1.58,2.63s-2.89,7.36-1.31,10.52a28,28,0,0,1,2.1,7.88s-3.94,6.84-3.94,13.15S371,254.39,361.77,258.6s-5.26,15.77-5.26,15.77l0,0s9.7,5.74,16,12.32c0,0,2.63,3.68,14.19,2.1l3.68,3.15,10.78,6.84c-.78-14.46,10.25-13.41,14.2-8.94s7.1.27,7.1.27c2.62,3.15,5.26,1.05,5.26,1.05,2.1-5.79,5.78-4.73,5.78-4.73s5.26,2.1,6.57,1,5.52-.79,5.52-.79C449.31,292,458.78,283.84,458.78,283.84Z"/><path class="cls-4" d="M214.24,272.93l-7.62-9.2-5-5.78a157.63,157.63,0,0,0-17.08-.53c-8.68.27-11.83,3.68-11.83,3.68a17.86,17.86,0,0,1-10.52,11c.53,9.46-2.1,13.15-2.1,13.15-3.94-2.11-9.73-.27-13.67,2.1s-3.95,1.05-3.95,1.05l-.55.21.55.32c-2.8,1.75-.7,3.86-.7,3.86,4.21-.71,9.12,5.95,9.12,5.95,2.1,0,5.61,4.21,5.61,4.21a30.48,30.48,0,0,0,.55,6.36c11.5-12.74,18.29-9.87,18.29-9.87,4.73,3.16,6.31.79,8.14-4.2s8.94-3.16,8.94-3.16c7.62-.26,9.2-3.15,9.2-3.15,2.37-4.74,5.79-.53,5.79-.53,7.36,4.21,8.15-1.84,8.15-1.84C221.87,280.82,214.24,272.93,214.24,272.93Z"/><path class="cls-4" d="M577.18,430.26a48.36,48.36,0,0,1-19.44-28.07s-3.23-5.76-9-6.11l-8.46-3.16-.18-.08c-6.84,10.79-19.43-4.32-19.43-4.32s-14.4-2.16-12.24,9l3.6,4.31s9,14.76-9.35,11.16l-1.8,7.56s2.87,1.79,10.07,1.07c0,0,5-3.23,5,7.56s9,11.52,9,11.52,2.52,1.07,2.52,6.47c0,0,2.89,10.8,14,12.24v0a27.62,27.62,0,0,1,5.76,1.28c0,4.56,5.26,2.8,5.26,2.8l1.75-5.25s-4.21,1.4-6-3.51,1-5.61,1-5.61c5.61,3.16,8.77.35,8.77.35,1,4.21,1.75,4.56,8.41.35s9.11-15.77,10.51-18.57a1.65,1.65,0,0,1,.36-.46Z"/><path class="cls-1" d="M527.59,447.17c0-5.4-2.51-6.47-2.51-6.47s-9-.72-9-11.52-5-7.56-5-7.56c-7.2.72-10.08-1.07-10.08-1.07l-.33.11-1.11.24c-11.51-7.19-17.27-1.44-17.27-1.44s-9,3.24-8.28-2.15-6.11-10.08-6.11-10.08a50.74,50.74,0,0,0-13-11.15c-8.28-1.8-8.09,6.76-8.09,6.76l.18.32a8.61,8.61,0,0,1,3.23-.25c5,.72,16.19,2.16,11.16,10.08l-2.52,1.8s-12.24,6.83-13.68,10.43-12.95,4.32-12.95,4.32-8.18,5.83-11.11,11.55l0,1.53c.14,4,1.95,11.27,7.75,12.49,6.66,1.4,4.9,4.91,4.9,4.91s-3.5,6,2.46,9.46,2.8,7.36-2.81,13.32-2.1,9.11-2.1,9.11,6.66,2.81,3.86,8.42,5.25,8.76,5.25,8.76c1-.7,5.61-1.75,5.61-1.75s6.66,9.46,11.57.35a37.42,37.42,0,0,1,13-13.67s6.67,2.45,9.12-5.61,5.26-6,14.72-6,11.22-1.75,11.22-1.75a12,12,0,0,1,9.11-4.91,7.57,7.57,0,0,0,4.91,2.11s2.45-1.41,8.41-2.81,4.56-4.56,4.56-4.56l-5.26-1.4,1.75-4.2,2.46.7c6.66,1.05,3.15-4.21,3.15-4.21,1.33-2,4.23-2.25,6.92-2v0C530.48,458,527.59,447.17,527.59,447.17Z"/></svg>