<svg id="图层_1" data-name="图层 1" xmlns="http://www.w3.org/2000/svg" viewBox="0 0 650.78 650.78"><defs><style>.cls-1{fill:#761b1d;}.cls-1,.cls-2,.cls-3,.cls-4,.cls-5{stroke:#545555;}.cls-2{fill:none;}.cls-3{fill:#00324b;}.cls-4{fill:#731a1d;}.cls-5{fill:#1a1a1a;}</style></defs><title>湖南</title><path class="cls-1" d="M396.4,109.15v0c0-.88.11-14.8-8.64-12.13,0,0-.78-5.5-10.61-3.93,0,0-4.32.78,0-9,0,0,1.18-3.14-6.67-5.89s-14.93-10.21-14.93-10.21-11,.39-16.89,1.57-20.82-4.72-29.46-13.36-26.32-4.71-26.32-4.71L276.2,46.7s-13.75-4.72-14.14.78c0,0-.39,5.5-6.28,3.54s-14.14-6.29-14.14,2.75-3.93,10.6-3.93,10.6a12.66,12.66,0,0,0,5.5,5.11c14,6.68,5.69,13.94,5.69,13.94l-.78.47c.71,1.17,5.66,8.2,20.52,6.31l3.83,1.47s13.55,8,29.46,8c0,0,12.67,6.18,4.71,19.44,0,0-12.37.89-8.54,13.85,0,0,.89,5-5.89,3.24,0,0-9.43,6.18-10,9.43a24,24,0,0,1-5.6,1.17c-2.06,0-9.72-.59-7.95,6.48l1.88,3.76.18.08c2.43-1,4.74-.84,5,2.94.59,8.25.3,10.61,5.89,14.14s13.56,15.32,2.65,19.44-10.9,4.42-5,9.14c0,0,1.48,3.83-4.41,6.77,0,0-5,5.56-6.56,8.4l.19.28c4.73-1.77,8.72-3.37,8.72-3.37s11.79-.3,15.32-5.31c0,0,30.94-4.12,38.3-12.37a8.51,8.51,0,0,1,6.48.59c3.24,1.77,8.55-2.65,8.55-2.65s2.35-1.77,7.66,1.18,8.24-4.72,8.24-4.72,2.07-1.76,7.66,2.06c0,0,27.7.59,24.75-15.31a75.66,75.66,0,0,1-2.94-27.4s-7.37-14.14.88-28.28C392.08,122.61,396,115.73,396.4,109.15Z"/><path class="cls-2" d="M272.47,427.52s8.25-12.37,8.25-16.79,3.24-9.13,6.77-1.47,10.91,13.26,12.38.59,5-29.17,8.84-29.46,15-.3,15-.3"/><path class="cls-2" d="M548.22,448.44s-6.77-2.06-14.14,8.84c0,0-5,6.78-11.19,1.18a21.3,21.3,0,0,1,1.76-6.78c1.48-2.94.89-9.72-4.41-12.67s-9.43-6.48-9.14-17.67,2.36-13-6.18-14.73c0,0-4.13,1.77-6.49-2.95a17.79,17.79,0,0,1-5.3-16.2c1.77-10.31-3.24-4.13-6.19-2.65s-2.65,4.12-3.53-.59-1.77-8-4.72-10l.3-5.6s4.71-5.59-4.42-13c0,0-2.94-5.89,5-6.48s5.59-13.26-5.3-11.49-13.85-14.44-13.85-14.44l-3.35-8.67"/><path class="cls-3" d="M482.8,379.41a9.58,9.58,0,0,0-3.57-5.21l.29-5.6s4.72-5.59-4.42-13c0,0-2.94-5.89,5-6.48s5.6-13.26-5.3-11.49S461,323.23,461,323.23l-3.35-8.67h0c-1.51,2.44-3.37,4.55-5.49,8.09-5.3,8.83-18-2.36-21.5-5.6a4.41,4.41,0,0,0-6.48,0c-3.83,5.6-8.84,2.65-8.84,2.65s3.53,9.43-18.27,7.66c0,0-3.24,10.61-12.08,5.89,0,0-7.65,9.72-10.9,10.9,0,0-3.53,9.13,0,13s2.36,14.73-7.66,12.67c0,0-8.54,1.48-9.13-5,0,0-2.94-12.08-14.73-3.83s-15.91,10.32-17.09,14.73-3.53,13,8,7.66c0,0,4.42-4.71,12.08-.88s11.19,3.83,11.19,3.83,4.72,4.42,5.89,9.43,10,3.24,14.74,3.24,3.23,11.78,3.23,11.78l3.25.59s11.49-1.47,2.94,5.89-6.77,8.54-3.83,16.5c0,0,1.47,8.25.89,13.55,0,0,2.06,11.2,5.89,8s14.73-10,23.86-3.24c0,0,4.42,5,10.9-2.36,0,0,3.83.29,5.3,2.06,0,0,5.9,2.65,10.61-1.77s14.73,0,14.73,0,9.72,6.19,7.66-7.66c0,0,14.44-7.95,15.91-17.38l-.89-12.37L477.46,399l-.59-1.18s-13.55-8.54-4.42-13,10.39-5.18,10.39-5.18Z"/><path class="cls-3" d="M381.84,559a11.52,11.52,0,0,1,1.86-6.13l12.82-.93,3.15-.37a10.43,10.43,0,0,0,1.62,1.94c-.82-2-3.24-8.77.25-14.75,4.13-7.08,8-14.44,0-21.22,0,0-6.48-5-10.31-5s-7.07-5-3.24-16.21c0,0,3.24-2.06,9.43,0,0,0,5.89,2.95,5.3-8.24s-3-11.79-6.48-13-9.14-4.71-2.95-12.08c0,0,4.42-2.65.59-5a35.85,35.85,0,0,0-4.5-2.47l-.18,0c-3.7,2.67-5.68-8.12-5.68-8.12.58-5.3-.89-13.55-.89-13.55-2.94-8-4.71-9.14,3.83-16.5s-2.94-5.9-2.94-5.9l-3.25-.58s1.48-11.79-3.24-11.79-13.55,1.77-14.73-3.24-5.89-9.43-5.89-9.43-3.54,0-11.2-3.83-12.07.89-12.07.89c-8.11,3.74-9.32.59-8.92-3.14l-.75-.1s-11.2,0-15,.29-7.37,16.8-8.84,29.46-8.84,7.07-12.38-.58-6.77-2.95-6.77,1.47-8.25,16.79-8.25,16.79v.56l.25-.7,6.19,7.66,13.55.3A28.26,28.26,0,0,1,304,443.14l-3.53,14.14-.59,2.06c-6.19,2.36-5.3,12.08-3.83,18.27s4.42,4.12,4.42,4.12l9.72-4.12c16.2-.3,2.65,11.19,2.65,11.19-9.13,2.95-10,13.26-10,13.26,3.23,21.5-2.95,25.92-2.95,25.92-11.2,2.36-15.32,18-15.32,18-10.31,2.95-14.14,14.44-14.14,14.44-1.77,22.69,11.78,17.68,12.67,11.78a15.19,15.19,0,0,1,5.7-9.3c7.61-1.48,11.14-10,11.14-10l5.95,5.2c1.48-1.3,6.69-1.48,6.69-1.48l1.11,5.75c5,3.9,2.41,6.69,2.41,6.69-4.45,4.64-.55,8.36-.55,8.36v8.36c1.67,0,4.45,4.09-.19,9.66S324.63,606,324.63,606s12.26-16.35,22.48-13.93c17.83,4.21,24.14-1.12,30.09-4.28s5.39-6.5,5.39-6.5c-3.54-6.31-5-14.86-3.54-16.53S381.84,559,381.84,559Z"/><path class="cls-1" d="M566.1,447.36c-20.43,4.72-18.07,2.36-18.07,2.36l.4-1c-.69-.17-7.12-1.44-14.08,8.86,0,0-5,6.77-11.2,1.18a21.15,21.15,0,0,1,1.77-6.78c1.47-2.95.89-9.72-4.42-12.67s-9.43-6.48-9.13-17.68,2.35-13-6.19-14.73c0,0-4.12,1.77-6.48-2.94a17.82,17.82,0,0,1-5.3-16.21c1.76-10.31-3.24-4.12-6.19-2.65s-2.65,4.13-3.54-.59a38.14,38.14,0,0,0-1-4.28h-.14c-1,.51-3.53,1.82-9.83,4.86-9.13,4.42,4.42,13,4.42,13l.59,1.18.29,13.56.89,12.37c-1.48,9.43-15.91,17.38-15.91,17.38,2.06,13.85-7.66,7.66-7.66,7.66s-10-4.42-14.73,0S430,452,430,452c-1.47-1.77-5.3-2.06-5.3-2.06-6.48,7.36-10.9,2.35-10.9,2.35-9.13-6.77-20,0-23.87,3.24l-.29.33a35,35,0,0,1,4.51,2.46c3.83,2.36-.59,5-.59,5-6.19,7.37-.59,10.9,2.94,12.08s5.9,1.77,6.49,13-5.31,8.25-5.31,8.25c-6.18-2.06-9.42,0-9.42,0-3.83,11.2-.59,16.2,3.24,16.2s10.31,5,10.31,5c7.95,6.78,4.12,14.14,0,21.21-3.49,6-1.09,12.78-.26,14.75a24.63,24.63,0,0,0,3.14,2.45c1.11-5.21,4.83-3.72,4.83-3.72,3,3.16,11.33,5.94,11.33,5.94,8.55-1.3,12.08.19,15,12.45s11.33,10.4,20.62,8.17,4.83-11.7,4.83-11.7-3.72-6.13-.93-12.82-6.67-7-6.67-7c-15.32-6.29-4.32-10.21-4.32-10.21l12.18-.79,9-11.79c16.5-13,20-2,20-2l2.75,5.89,17.28,7.47s11.39-1.18,16.1,0a73.09,73.09,0,0,0,7.86,1.57,89,89,0,0,1,11.78-12.18c5.9-4.71-.39-20.82-.39-20.82s-4.71-7.46.79-14.53S552,478.79,552,469.75s3.92-10.6,3.92-10.6l13.75-5.51C572,445,566.1,447.36,566.1,447.36Z"/><path class="cls-4" d="M366.39,369.78c10,2.06,11.2-8.84,7.66-12.67s0-13,0-13,1.79-9.86-4.4-14.28-18-8.83-18-8.83-9.13-16.21-9.13-18.27c0,0-7.37,2.36-12.67-2.36a39.33,39.33,0,0,0-9.13,3.83,44,44,0,0,1-10.9,4.13s-7.37-1.77-13.85,1.18c0,0-4.42.59-12.37-8s-15.91-7.36-18.86-2.35S258,306,252.69,303.06s-8.83-2.94-7.95,4.13,6.19,13.26-.3,19.74a65.74,65.74,0,0,1-12.08,9.72h-4.71c-1.47,0-8.25,1.18-10,5s-6.47,7.36-8.83,8.54-6.19,10.61-9.73,12.67S197,372,192.89,375.24s-1.18,7.66-1.18,7.66,3.54,10.61-6.19,13-19.44,1.76-10.6,13.84,11.49,13.55,10,25.64c0,0-5,6.77-4.41,11.49l0,.14c8.46-2.6,11.26,4.31,11.26,5.88,0,1.77.29,16.79,5.3,10.61s9.13-3.25,9.13,1.17,4.72,6.78,5.31,3.54,13-19.44,13-19.44c5.6-.59,9.13-5.31,9.13-5.31C237.41,426.05,251,437,251,437L254.2,439l15-2.35,3.24-9.14.74.91-.21-.91s8.25-12.37,8.25-16.79,3.24-9.13,6.78-1.47,10.9,13.26,12.37.59,5-29.17,8.84-29.46,15-.3,15-.3l.27,0a32.78,32.78,0,0,1,.91-4.4c1.18-4.41,5.31-6.48,17.09-14.73s14.73,3.83,14.73,3.83C357.85,371.26,366.39,369.78,366.39,369.78Z"/><path class="cls-2" d="M367.92,268.43s-2.65,9.14,5.3,12.09,2.07,9.13,2.07,9.13-6.48,6.77,2.06,7.66l5,1.47,1.17,1.47,1.77-.58s6.49-10.32,9.43-5.6,4.12,9.13,1.47,15-5.3,9.73,2.07,7.66,7.66-4.71,7.66-4.71,2.35-3.54,8.24,1.18l.59,6.48"/><path class="cls-5" d="M213.55,148.53c0-8.25-5.6-10.9-10-11.19s-4.42-2.36-4.42-2.36c0-7.37-2.35-10.9-8.54-10.9s-5-3-5-3,3.24-10.9-6.48-6.18C169.67,119.51,167.16,96.2,167,94.7c-2.08,2.77-6.2-1.85-6.2-1.85-12.66-7.66-15,10.31-15,10.31l-4.42.3-.88,8.25-2.36.58-.88,6.49-3.54,2.94c.88,14.14-3,12.67-3,12.67l-.58,6.78c-6.49,1.17-8,4.12-2.66,8s6.48,9.13,1.18,11.78-5.3,16.5-5.3,16.5,7.36,8.55.59,14.14-1.18,5.6,1.77,5.89,7.36,2.66,3.53,5.9-3.53,11.19-3.53,18.56-.3,7.66,4.71,8.84,4.42,3.53,4.42,3.53l-8,19.74,4.42,1.77-2.94,7.07c-4.13,18.85,1.18,21.8,5.59,24.75a6.64,6.64,0,0,1,1.07.89h.11c0-10.61,8.25-9.43,8.25-9.43l7.07-.59,4.42-.59,2.06-10c4.42-2.36,6.49-9.43,6.49-9.43l2.35-2.06C177.9,267,187.63,264,187.63,264c5,4.13,7.36,1.78,7.36,1.78l1.47-4.42s2.65-2.07,2.06-6.78,1.18-5.89,6.19-9.13,4.12-9.73,4.12-9.73a9.52,9.52,0,0,1-2.35-8.83c2.06-3.54,2.06-4.13-3.24-8.84s-.3-10.61-.3-10.61l-.29-4.42,1.77-2.35c2.94-2.07,6.77-5,6.77-5,1.77-8,6.78-13.55,10.61-20s-1.77-16.2-4.42-19.14S213.55,148.53,213.55,148.53Z"/><path class="cls-1" d="M566.49,219.53l.39-2.75c8.64-4.71-1.57-7.46-1.57-7.46-8.25-2.75-8.25-5.5-8.25-5.5s-20-2.26-23.86,3-8.25,12.37-17.09,3.25L507,205.68s-14.14-15-19.15-10.6c0,0-6.48,1.77-11.2-2.06l-.59.88s2.65,22.39-11.78,15.91c0,0-3.83,6.19-12.38-1.18,0,0-22.39-16.5-28.57,13,0,0-.29,7.37-8,5.31a26.3,26.3,0,0,0-21.8,9.72s-4.12,4.71-11.49-3c0,0-11.19-4.42-17.08,7.37s-7.37,18.56-7.37,18.56a70.82,70.82,0,0,1,9.43,7.95c3.53,3.83,15.32,3.83,17.38,1.77s3.83-3.83,13-4.12,9.12-3.83,10.6-6.49,5.6-5.3,12.08,6.19,13.84,1.77,17.67-2.65a8,8,0,0,1,8.84-2.36s5.3,3.54,8.84,2.36,7.66-3.24,11.49,1.76,5,1.19,5,1.19c5-7.67,6.77-.6,6.77-.6l2.95,2.95c6.77,14.14,16.5,4.12,16.5,4.12,14.43-9.71,16.2-3.82,16.2-3.82,7.66,7.95,12.87,8.64,12.87,8.64,0-12.57,10.6-14.93,16.49-16.1s10.22-4.72,4.72-10.61,7.85-5.11,7.85-5.11,7.86-7.85,14.14-15.32S566.49,219.53,566.49,219.53Z"/><path class="cls-1" d="M548.29,448l.54-.35,5.87-15.2,3.54-12.17c3.53-12.18-11.39-14.14-11.39-14.14-20.43-9.43-8.25-23.18-8.25-23.18s9.82-5.5.39-17.28-5.5-15.72-5.5-15.72c9.82-16.1,11.79-21.6-7.07-18.46S516.6,302,516.6,302c9-6.68,10.61-13,10.61-25.53,0-.16,0-.31,0-.47-.56-.1-5.59-1.14-12.81-8.64,0,0-1.77-5.89-16.2,3.83,0,0-9.72,10-16.5-4.12l-2.95-2.95s-1.76-7.07-6.77.6c0,0-1,3.89-4.87-1.12l-.14-.07-7.07,13.85s0,9.73.59,21.8c.33,6.75-.82,10.37-2.81,13.79l-.54,1.11,3.35,8.67s2.94,16.21,13.84,14.44,13.26,10.9,5.31,11.49-5,6.48-5,6.48c9.13,7.36,4.42,13,4.42,13l-.3,5.6c2.95,2.06,3.83,5.3,4.72,10s.58,2.06,3.53.59,8-7.66,6.19,2.65a17.79,17.79,0,0,0,5.3,16.2c2.36,4.71,6.48,2.95,6.48,2.95,8.55,1.76,6.48,3.53,6.19,14.73s3.83,14.73,9.13,17.67,5.89,9.72,4.42,12.67A21.45,21.45,0,0,0,523,458c6.19,5.59,11.2-1.18,11.2-1.18C541.51,445.92,548.29,448,548.29,448Z"/><path class="cls-1" d="M559.42,190.47l3.93-10.61c.39-10.22-3.93-4.71-3.93-4.71-5.11,5.49-9-7.08-9-7.08l-1.57-2.35a4.59,4.59,0,0,1-.26.63c-1.46,2.76-5.24,1.72-5.24,1.72l-.39-12.56-4.71.78c-2-2.36-6.68-4.71-6.68-4.71-9,1.57-10.21-2.36-10.21-2.36s2.75-8.25-3.54-13.36-2-9.81,5.5-17.28-3.54-9-3.54-9l-2-3.15c8.25-11,.39-13-4.32-13s-5.11-4.32-5.11-11.78-6.28-2.36-6.28-2.36-24.36,27.89-27.89,33-5.11,2.75-8.25-1.18-3.54-1.57-5.89.78-3.93,2-3.93,2c-9.82-11.39-.79-19.25,3.14-24S464,82.44,464,82.44c0-5.89-9,3.54-9,3.54L451,84.8l-1.57-6.29s-11,13-11.39,18.47c0,0-2,4.71-11,2s-13.35-5.5-22,2.36l-7.25,6.58-.12.29s11.49,15.91,21.51,17.09,10.9,7.07,10.9,7.07-.6,7.95,10.89,8.84,13,2.65,10.9,10.31-8.83,15-16.79,15.31c0,0-8.25,1.48-8.25,10.32s-7.36,9.13-7.36,9.13-5.89,7.36,1.77,14.14c0,0,4.71,0,8.54-.29s2.36,5.3,2.36,5.3l.06.41c8.71-5.25,19.67,2.83,19.67,2.83,8.55,7.37,12.38,1.18,12.38,1.18C478.69,216.29,476,193.9,476,193.9l.59-.88c4.72,3.83,11.2,2.06,11.2,2.06,5-4.42,19.15,10.6,19.15,10.6l9.13,4.43c8.84,9.12,13.26,2,17.09-3.25s23.86-3,23.86-3C560.6,202.25,559.42,190.47,559.42,190.47Z"/><path class="cls-3" d="M278.07,258.65c2.94,2.07,7.95,1.18,7.95,1.18l1.18-1.77c2.36-7.36,10.31-14.43,10.31-14.43s6.19-5.6,10.61-1.47,5,.88,7.36-.89,5.6-.88,5.6,1.18,2.06,5.6,2.06,5.6,5,.88,2.06,4.41-1.17,5.31-1.17,5.31,10.6-.3,12.07.29,10.32,3.83,13.85.89,7.73.36,7.73.36A69.62,69.62,0,0,1,367,267.2c.26.28.88.88.88.88s-2.65,9.13,5.3,12.08,2.07,9.13,2.07,9.13-6.48,6.78,2.06,7.66l5,1.48,1.17,1.47,1.77-.59s6.49-10.31,9.43-5.6,4.12,9.13,1.47,15-5.3,9.72,2.07,7.66,7.66-4.72,7.66-4.72,2.35-3.53,8.24,1.18l.59,6.48s3.54,9.43-18.26,7.66c0,0-3.24,10.61-12.08,5.89,0,0-7.52,9.68-10.76,10.85l-.14-.09s1.77-9.58-4.42-14-18-8.83-18-8.83S342,304.61,342,302.55c0,0-7.37,2.36-12.67-2.36A39.33,39.33,0,0,0,320.2,304a44.13,44.13,0,0,1-10.9,4.13s-7.37-1.77-13.85,1.18c0,0-4.42.58-12.37-8-7.21-7.74-14.42-7.5-17.9-3.66h-.08s-1.17-4.88-3.24-6.35-8.83-13.85-2.06-11.79l9.72-5s9.1-8.78,8.38-15.53Z"/><path class="cls-3" d="M466.64,264.15c-3.83-5-7.95-2.94-11.49-1.77s-8.84-2.35-8.84-2.35a8,8,0,0,0-8.83,2.35c-3.84,4.42-11.2,14.15-17.68,2.66s-10.61-8.84-12.08-6.19-1.47,6.19-10.61,6.48-10.9,2.06-13,4.13c-1.91,1.91-12.18,2.05-16.49-1,0,0-2.66,9.23,5.3,12.18s2.06,9.13,2.06,9.13-6.48,6.78,2.06,7.66l5,1.48,1.18,1.47,1.77-.59s6.48-10.31,9.42-5.6,4.13,9.13,1.47,15-5.3,9.72,2.07,7.66,7.66-4.72,7.66-4.72,2.36-3.53,8.25,1.18l.57,6.4,0,.08s5,2.95,8.83-2.65a4.42,4.42,0,0,1,6.49,0c3.53,3.24,16.2,14.44,21.5,5.6s9.43-10.9,8.84-23-.66-21.67-.66-21.67l7.08-13.85Z"/><path class="cls-3" d="M397.73,108.06s11.49,15.9,21.5,17.08,10.9,7.07,10.9,7.07-.59,8,10.9,8.84,13,2.65,10.9,10.31-8.84,15-16.79,15.32c0,0-8.25,1.47-8.25,10.32s-7.36,9.13-7.36,9.13-5.9,7.36,1.76,14.14c0,0,4.72,0,8.55-.3s2.35,5.31,2.35,5.31l-.17.6c-3.73,2.26-6.81,6.78-8.66,15.6,0,0-.3,7.37-8,5.3a26.32,26.32,0,0,0-21.8,9.73s-4.12,4.71-11.49-2.95c0,0-11.19-4.42-17.09,7.36s-7.36,18.57-7.36,18.57h-.07s-4.06-3.25-7.59-.3-12.37-.29-13.85-.88-12.08-.3-12.08-.3-1.76-1.77,1.18-5.31-2.06-4.41-2.06-4.41-2.06-3.54-2.06-5.6-3.24-2.94-5.6-1.18-2.95,5-7.37.89-10.6,1.47-10.6,1.47-8,7.07-10.31,14.44l-1.18,1.76s-4.81.85-7.78-1.06l-.36.11c-.3-2.36-1.83-4.45-5.41-5.82,0,0-4.42,4.41-4.42,7.66,0,0-7.07,2.06-3.83-4.72,0,0,8-6.48-.3-5.89s-6.48-3.83-6.48-3.83.3-13-1.76-15c0,0-2.95-8,4.12-10.3s17.38-6.48,17.38-6.48,11.78-.3,15.32-5.31c0,0,30.93-4.12,38.3-12.37a8.51,8.51,0,0,1,6.48.59c3.24,1.77,8.54-2.65,8.54-2.65s2.36-1.77,7.66,1.17,8.25-4.71,8.25-4.71,2.07-1.77,7.66,2.06c0,0,27.7.59,24.75-15.32a75.61,75.61,0,0,1-2.94-27.4s-7.37-14.14.88-28.28c0,0,3.93-6.87,4.32-13.45Z"/><path class="cls-5" d="M270.49,156.94l-1.85-3.7c-1.77-7.07,5.89-6.48,7.95-6.48a24,24,0,0,0,5.6-1.17c.59-3.25,10-9.43,10-9.43,6.78,1.76,5.89-3.24,5.89-3.24-3.83-13,8.54-13.85,8.54-13.85,8-13.26-4.71-19.44-4.71-19.44-15.91,0-29.46-8-29.46-8l-3.83-1.47c-14.86,1.89-19.81-5.14-20.52-6.31-2.82,1.66-12.53,7.34-17.78,9.84-6.19,3-8-.58-8-.58.59-11.79-9.14-11.79-9.14-11.79C212.66,74,199.41,79,199.41,79c-24.75-1.47-27.7,8.25-27.7,8.25l-3.83.59.3,1.77c-.07,2.65-.52,4.22-1.17,5.09.15,1.5,2.66,24.81,12.07,20.25,9.72-4.72,6.48,6.18,6.48,6.18s-1.18,3,5,3,8.54,3.53,8.54,10.9c0,0,0,2.06,4.42,2.36s10,2.94,10,11.19c0,0,1.18,5,3.83,8,1.92,2.13,5.4,7.84,5.7,13.28l0,.47c1-.57,7-3.72,10.45-.5,0,0,3.24,2.65,3.24-3.24s-1.76-11.49,5.6-6.48,12.67,12.67,22.39.88a25.44,25.44,0,0,1,5.79-3.74Z"/><path class="cls-1" d="M259.85,279.81l9.72-5s16.79-16.2,2.95-21.5c0,0-4.42,4.41-4.42,7.66,0,0-7.07,2.06-3.83-4.72,0,0,8-6.48-.3-5.89s-6.48-3.83-6.48-3.83.3-13-1.76-15c0,0-2.95-8,4.12-10.3,2.43-.82,5.25-1.83,7.89-2.82l.36-.13c1.18-2.65,6.77-8.84,6.77-8.84,5.9-2.94,4.42-6.78,4.42-6.78-5.89-4.71-5.89-5,5-9.13s2.95-15.91-2.65-19.44-5.3-5.9-5.89-14.14-10.9.88-10.9.88c-9.72,11.78-15,4.13-22.39-.88s-5.6.59-5.6,6.48-3.24,3.24-3.24,3.24c-3.83-3.53-10.51.52-10.51.52l0,.24a10,10,0,0,1-1.3,5.13c-3.84,6.48-8.84,12.08-10.61,20,0,0-3.83,2.95-6.78,5l-1.76,2.36.29,4.42s-5,5.89.3,10.61,5.3,5.3,3.24,8.83a9.54,9.54,0,0,0,2.35,8.84s.89,6.48-4.12,9.72-6.78,4.42-6.19,9.14-2.06,6.77-2.06,6.77L195,265.67s-2.36,2.36-7.37-1.77c0,0-9.72,3-21.8-7.66l-2.36,2.07s-2.06,7.07-6.48,9.42l-2.06,10-4.42.59-7.07.59s-8.25-1.18-8.25,9.43l-.18.11c3.91,3.89,6.81,13.85,5.73,13.85s-15,10-15,10,0,6.49-8.55,5-8.84,2.06-8.84,2.06c0,5.9-4.71,9.73-9.42,10.61s-11.2,14.14-11.2,14.14l-9.43,6.78c3.54,12.37,13,6.77,13,6.77,5.59-7.66,14.73-10,14.73-10,.88,6.77,3.83,4.12,3.83,4.12,21.21-10.61,29.46-2.35,29.46-2.35l-.3,5.59c8.55,6.19,5.9,13,5.9,13L140.19,371l-.59,2.35c4.13.3,4.13,3.84,4.13,3.84-6.19,2.65-1.48,10.31-1.48,10.31l-9.13-.59-7.36,5.6c-8.84-2.36-3.54,3.83-3.54,3.83l4.71,4.12c7.37,9.72,4.72,4.42-4.42,22.1s1.77,14.14,1.77,14.14l8.84-4.72s-.88,9.43.88,11.49,3.25,6.78,2.95,11.79,0,8.54,2.65,7.95,6.78-2.06,12.08-.88,5.3,2.35,3.83,6.77,0,8.84,5.6,8.84,5.6-.29,4.71-6.18,2.06-9.14,2.06-9.14l3.83-1.47a52.22,52.22,0,0,0,2.66-8.25c.88-4.12,2.65-4.42,2.65-4.42a21.17,21.17,0,0,1,3-1.31v-.28c-.59-4.71,4.42-11.49,4.42-11.49,1.47-12.07-1.18-13.55-10-25.63s.89-11.49,10.61-13.84,6.19-13,6.19-13-3-4.42,1.18-7.66S195,365,198.57,362.89s7.37-11.49,9.72-12.67,7.07-4.71,8.84-8.54,8.55-5,10-5h4.71A65.74,65.74,0,0,0,243.94,327c6.48-6.48,1.18-12.67.3-19.74s2.65-7.07,7.95-4.12,9.13,1.17,12.08-3.83a7.26,7.26,0,0,1,.78-1.1l.07-.21s-1.15-4.88-3.21-6.35S253.07,277.75,259.85,279.81Z"/></svg>