<?xml version="1.0" encoding="utf-8"?>
<!-- Generator: Adobe Illustrator 24.0.2, SVG Export Plug-In . SVG Version: 6.00 Build 0)  -->
<svg version="1.1" id="图层_1" xmlns="http://www.w3.org/2000/svg" xmlns:xlink="http://www.w3.org/1999/xlink" x="0px" y="0px"
	 viewBox="0 0 650.8 650.8" style="enable-background:new 0 0 650.8 650.8;" xml:space="preserve">
<style type="text/css">
	.st0{fill:#761B1D;stroke:#545555;}
	.st1{fill:none;stroke:#545555;}
	.st2{fill:#731A1D;stroke:#545555;}
	.st3{fill:#00324B;stroke:#545555;}
	.st4{fill:#1A1A1A;stroke:#545555;}
</style>
<title>湖南</title>
<path class="st0" d="M396.4,109.2L396.4,109.2c0-0.9,0.1-14.8-8.6-12.1c0,0-0.8-5.5-10.6-3.9c0,0-4.3,0.8,0-9c0,0,1.2-3.1-6.7-5.9
	S355.5,68,355.5,68s-11,0.4-16.9,1.6s-20.8-4.7-29.5-13.4s-26.3-4.7-26.3-4.7l-6.7-4.8c0,0-13.8-4.7-14.1,0.8c0,0-0.4,5.5-6.3,3.5
	s-14.1-6.3-14.1,2.8s-3.9,10.6-3.9,10.6c1.3,2.2,3.2,4,5.5,5.1c14,6.7,5.7,13.9,5.7,13.9l-0.8,0.5c0.7,1.2,5.7,8.2,20.5,6.3l3.8,1.5
	c0,0,13.5,8,29.5,8c0,0,12.7,6.2,4.7,19.4c0,0-12.4,0.9-8.5,13.8c0,0,0.9,5-5.9,3.2c0,0-9.4,6.2-10,9.4c-1.8,0.6-3.7,1-5.6,1.2
	c-2.1,0-9.7-0.6-8,6.5l1.9,3.8l0.2,0.1c2.4-1,4.7-0.8,5,2.9c0.6,8.3,0.3,10.6,5.9,14.1s13.6,15.3,2.6,19.4s-10.9,4.4-5,9.1
	c0,0,1.5,3.8-4.4,6.8c0,0-5,5.6-6.6,8.4l0.2,0.3c4.7-1.8,8.7-3.4,8.7-3.4s11.8-0.3,15.3-5.3c0,0,30.9-4.1,38.3-12.4
	c2.2-0.7,4.5-0.5,6.5,0.6c3.2,1.8,8.5-2.6,8.5-2.6s2.4-1.8,7.7,1.2s8.2-4.7,8.2-4.7s2.1-1.8,7.7,2.1c0,0,27.7,0.6,24.8-15.3
	c-2.6-8.9-3.6-18.2-2.9-27.4c0,0-7.4-14.1,0.9-28.3C392.1,122.6,396,115.7,396.4,109.2z"/>
<path class="st1" d="M272.5,427.5c0,0,8.3-12.4,8.3-16.8s3.2-9.1,6.8-1.5s10.9,13.3,12.4,0.6s5-29.2,8.8-29.5s15-0.3,15-0.3"/>
<path class="st1" d="M548.2,448.4c0,0-6.8-2.1-14.1,8.8c0,0-5,6.8-11.2,1.2c0.2-2.3,0.8-4.6,1.8-6.8c1.5-2.9,0.9-9.7-4.4-12.7
	s-9.4-6.5-9.1-17.7s2.4-13-6.2-14.7c0,0-4.1,1.8-6.5-3c-4.4-4.1-6.4-10.3-5.3-16.2c1.8-10.3-3.2-4.1-6.2-2.6s-2.6,4.1-3.5-0.6
	s-1.8-8-4.7-10l0.3-5.6c0,0,4.7-5.6-4.4-13c0,0-2.9-5.9,5-6.5s5.6-13.3-5.3-11.5s-13.9-14.4-13.9-14.4l-3.4-8.7"/>
<path class="st2" d="M482.8,379.4c-0.6-2.1-1.8-3.9-3.6-5.2l0.3-5.6c0,0,4.7-5.6-4.4-13c0,0-2.9-5.9,5-6.5s5.6-13.3-5.3-11.5
	S461,323.2,461,323.2l-3.4-8.7l0,0c-1.5,2.4-3.4,4.5-5.5,8.1c-5.3,8.8-18-2.4-21.5-5.6c-1.7-1.8-4.4-1.9-6.2-0.2
	c-0.1,0.1-0.2,0.2-0.2,0.2c-3.8,5.6-8.8,2.6-8.8,2.6s3.5,9.4-18.3,7.7c0,0-3.2,10.6-12.1,5.9c0,0-7.6,9.7-10.9,10.9
	c0,0-3.5,9.1,0,13s2.4,14.7-7.7,12.7c0,0-8.5,1.5-9.1-5c0,0-2.9-12.1-14.7-3.8s-15.9,10.3-17.1,14.7s-3.5,13,8,7.7
	c0,0,4.4-4.7,12.1-0.9s11.2,3.8,11.2,3.8s4.7,4.4,5.9,9.4s10,3.2,14.7,3.2s3.2,11.8,3.2,11.8l3.3,0.6c0,0,11.5-1.5,2.9,5.9
	s-6.8,8.5-3.8,16.5c0,0,1.5,8.3,0.9,13.5c0,0,2.1,11.2,5.9,8s14.7-10,23.9-3.2c0,0,4.4,5,10.9-2.4c0,0,3.8,0.3,5.3,2.1
	c0,0,5.9,2.6,10.6-1.8s14.7,0,14.7,0s9.7,6.2,7.7-7.7c0,0,14.4-8,15.9-17.4l-0.9-12.4l-0.4-13.6l-0.6-1.2c0,0-13.5-8.5-4.4-13
	s10.4-5.2,10.4-5.2L482.8,379.4z"/>
<path class="st3" d="M381.8,559c0-2.2,0.7-4.3,1.9-6.1l12.8-0.9l3.1-0.4c0.5,0.7,1,1.4,1.6,1.9c-0.8-2-3.2-8.8,0.3-14.8
	c4.1-7.1,8-14.4,0-21.2c0,0-6.5-5-10.3-5s-7.1-5-3.2-16.2c0,0,3.2-2.1,9.4,0c0,0,5.9,3,5.3-8.2s-3-11.8-6.5-13s-9.1-4.7-3-12.1
	c0,0,4.4-2.6,0.6-5c-1.4-0.9-2.9-1.8-4.5-2.5h-0.2c-3.7,2.7-5.7-8.1-5.7-8.1c0.6-5.3-0.9-13.5-0.9-13.5c-2.9-8-4.7-9.1,3.8-16.5
	s-2.9-5.9-2.9-5.9l-3.3-0.6c0,0,1.5-11.8-3.2-11.8s-13.5,1.8-14.7-3.2s-5.9-9.4-5.9-9.4s-3.5,0-11.2-3.8s-12.1,0.9-12.1,0.9
	c-8.1,3.7-9.3,0.6-8.9-3.1l-0.8-0.1c0,0-11.2,0-15,0.3s-7.4,16.8-8.8,29.5s-8.8,7.1-12.4-0.6s-6.8-3-6.8,1.5s-8.3,16.8-8.3,16.8v0.6
	l0.3-0.7l6.2,7.7l13.5,0.3c4.5,1.5,8.6,4.1,11.8,7.6l-3.5,14.1l-0.6,2.1c-6.2,2.4-5.3,12.1-3.8,18.3s4.4,4.1,4.4,4.1l9.7-4.1
	c16.2-0.3,2.6,11.2,2.6,11.2c-9.1,3-10,13.3-10,13.3c3.2,21.5-3,25.9-3,25.9c-11.2,2.4-15.3,18-15.3,18c-10.3,3-14.1,14.4-14.1,14.4
	c-1.8,22.7,11.8,17.7,12.7,11.8c0.7-3.7,2.7-7,5.7-9.3c7.6-1.5,11.1-10,11.1-10l6,5.2c1.5-1.3,6.7-1.5,6.7-1.5l1.1,5.8
	c5,3.9,2.4,6.7,2.4,6.7c-4.5,4.6-0.5,8.4-0.5,8.4v8.4c1.7,0,4.5,4.1-0.2,9.7s9.3,10.6,9.3,10.6s12.3-16.3,22.5-13.9
	c17.8,4.2,24.1-1.1,30.1-4.3s5.4-6.5,5.4-6.5c-3.5-6.3-5-14.9-3.5-16.5S381.8,559,381.8,559z"/>
<path class="st0" d="M566.1,447.4c-20.4,4.7-18.1,2.4-18.1,2.4l0.4-1c-0.7-0.2-7.1-1.4-14.1,8.9c0,0-5,6.8-11.2,1.2
	c0.2-2.3,0.8-4.6,1.8-6.8c1.5-3,0.9-9.7-4.4-12.7s-9.4-6.5-9.1-17.7s2.3-13-6.2-14.7c0,0-4.1,1.8-6.5-2.9
	c-4.4-4.2-6.4-10.3-5.3-16.2c1.8-10.3-3.2-4.1-6.2-2.6s-2.6,4.1-3.5-0.6c-0.3-1.4-0.6-2.9-1-4.3h-0.1c-1,0.5-3.5,1.8-9.8,4.9
	c-9.1,4.4,4.4,13,4.4,13l0.6,1.2l0.3,13.6l0.9,12.4c-1.5,9.4-15.9,17.4-15.9,17.4c2.1,13.9-7.7,7.7-7.7,7.7s-10-4.4-14.7,0
	S430,452,430,452c-1.5-1.8-5.3-2.1-5.3-2.1c-6.5,7.4-10.9,2.4-10.9,2.4c-9.1-6.8-20,0-23.9,3.2l-0.3,0.3c1.6,0.7,3.1,1.5,4.5,2.5
	c3.8,2.4-0.6,5-0.6,5c-6.2,7.4-0.6,10.9,2.9,12.1s5.9,1.8,6.5,13s-5.3,8.3-5.3,8.3c-6.2-2.1-9.4,0-9.4,0
	c-3.8,11.2-0.6,16.2,3.2,16.2s10.3,5,10.3,5c8,6.8,4.1,14.1,0,21.2c-3.5,6-1.1,12.8-0.3,14.8c1,0.9,2,1.7,3.1,2.5
	c1.1-5.2,4.8-3.7,4.8-3.7c3,3.2,11.3,5.9,11.3,5.9c8.5-1.3,12.1,0.2,15,12.5s11.3,10.4,20.6,8.2s4.8-11.7,4.8-11.7
	s-3.7-6.1-0.9-12.8s-6.7-7-6.7-7c-15.3-6.3-4.3-10.2-4.3-10.2l12.2-0.8l9-11.8c16.5-13,20-2,20-2l2.8,5.9l17.3,7.5
	c0,0,11.4-1.2,16.1,0c2.6,0.7,5.2,1.2,7.9,1.6c3.5-4.4,7.5-8.5,11.8-12.2c5.9-4.7-0.4-20.8-0.4-20.8s-4.7-7.5,0.8-14.5
	s5.3-11.4,5.3-20.4s3.9-10.6,3.9-10.6l13.8-5.5C572,445,566.1,447.4,566.1,447.4z"/>
<path class="st2" d="M366.4,369.8c10,2.1,11.2-8.8,7.7-12.7s0-13,0-13s1.8-9.9-4.4-14.3s-18-8.8-18-8.8s-9.1-16.2-9.1-18.3
	c0,0-7.4,2.4-12.7-2.4c-3.2,0.9-6.3,2.2-9.1,3.8c-3.4,1.9-7.1,3.2-10.9,4.1c0,0-7.4-1.8-13.9,1.2c0,0-4.4,0.6-12.4-8
	s-15.9-7.4-18.9-2.4s-6.7,6.8-12,3.9s-8.8-2.9-7.9,4.1s6.2,13.3-0.3,19.7c-3.6,3.7-7.7,7-12.1,9.7h-4.7c-1.5,0-8.3,1.2-10,5
	s-6.5,7.4-8.8,8.5s-6.2,10.6-9.7,12.7s-2.1,9.1-6.2,12.4s-1.2,7.7-1.2,7.7s3.5,10.6-6.2,13s-19.4,1.8-10.6,13.8s11.5,13.5,10,25.6
	c0,0-5,6.8-4.4,11.5v0.1c8.5-2.6,11.3,4.3,11.3,5.9c0,1.8,0.3,16.8,5.3,10.6s9.1-3.3,9.1,1.2s4.7,6.8,5.3,3.5s13-19.4,13-19.4
	c5.6-0.6,9.1-5.3,9.1-5.3C237.4,426,251,437,251,437l3.2,2l15-2.4l3.2-9.1l0.7,0.9l-0.2-0.9c0,0,8.3-12.4,8.3-16.8s3.2-9.1,6.8-1.5
	s10.9,13.3,12.4,0.6s5-29.2,8.8-29.5s15-0.3,15-0.3h0.3c0.2-1.5,0.5-3,0.9-4.4c1.2-4.4,5.3-6.5,17.1-14.7s14.7,3.8,14.7,3.8
	C357.9,371.3,366.4,369.8,366.4,369.8z"/>
<path class="st1" d="M367.9,268.4c0,0-2.6,9.1,5.3,12.1s2.1,9.1,2.1,9.1s-6.5,6.8,2.1,7.7l5,1.5l1.2,1.5l1.8-0.6
	c0,0,6.5-10.3,9.4-5.6s4.1,9.1,1.5,15s-5.3,9.7,2.1,7.7s7.7-4.7,7.7-4.7s2.4-3.5,8.2,1.2l0.6,6.5"/>
<path class="st4" d="M213.6,148.5c0-8.3-5.6-10.9-10-11.2s-4.4-2.4-4.4-2.4c0-7.4-2.4-10.9-8.5-10.9s-5-3-5-3s3.2-10.9-6.5-6.2
	c-9.4,4.6-12-18.7-12.1-20.2c-2.1,2.8-6.2-1.8-6.2-1.8c-12.7-7.7-15,10.3-15,10.3l-4.4,0.3l-0.9,8.3l-2.4,0.6l-0.9,6.5l-3.5,2.9
	c0.9,14.1-3,12.7-3,12.7l-0.6,6.8c-6.5,1.2-8,4.1-2.7,8s6.5,9.1,1.2,11.8s-5.3,16.5-5.3,16.5s7.4,8.6,0.6,14.1s-1.2,5.6,1.8,5.9
	c3,0.3,7.4,2.7,3.5,5.9s-3.5,11.2-3.5,18.6s-0.3,7.7,4.7,8.8s4.4,3.5,4.4,3.5l-8,19.7l4.4,1.8l-2.9,7.1c-4.1,18.9,1.2,21.8,5.6,24.8
	c0.4,0.3,0.7,0.6,1.1,0.9h0.1c0-10.6,8.3-9.4,8.3-9.4l7.1-0.6l4.4-0.6l2.1-10c4.4-2.4,6.5-9.4,6.5-9.4l2.4-2.1
	c12.2,10.6,21.9,7.6,21.9,7.6c5,4.1,7.4,1.8,7.4,1.8l1.5-4.4c0,0,2.6-2.1,2.1-6.8s1.2-5.9,6.2-9.1s4.1-9.7,4.1-9.7
	c-2.2-2.4-3.1-5.7-2.4-8.8c2.1-3.5,2.1-4.1-3.2-8.8s-0.3-10.6-0.3-10.6l-0.3-4.4l1.8-2.4c2.9-2.1,6.8-5,6.8-5
	c1.8-8,6.8-13.6,10.6-20s-1.8-16.2-4.4-19.1S213.6,148.5,213.6,148.5z"/>
<path class="st0" d="M566.5,219.5l0.4-2.8c8.6-4.7-1.6-7.5-1.6-7.5c-8.3-2.8-8.3-5.5-8.3-5.5s-20-2.3-23.9,3s-8.3,12.4-17.1,3.3
	l-9.1-4.4c0,0-14.1-15-19.1-10.6c0,0-6.5,1.8-11.2-2.1l-0.6,0.9c0,0,2.6,22.4-11.8,15.9c0,0-3.8,6.2-12.4-1.2c0,0-22.4-16.5-28.6,13
	c0,0-0.3,7.4-8,5.3c-8.4-0.4-16.5,3.2-21.8,9.7c0,0-4.1,4.7-11.5-3c0,0-11.2-4.4-17.1,7.4s-7.4,18.6-7.4,18.6c3.4,2.4,6.5,5,9.4,8
	c3.5,3.8,15.3,3.8,17.4,1.8s3.8-3.8,13-4.1s9.1-3.8,10.6-6.5s5.6-5.3,12.1,6.2c6.5,11.5,13.8,1.8,17.7-2.6c2.2-2.6,5.7-3.5,8.8-2.4
	c0,0,5.3,3.5,8.8,2.4s7.7-3.2,11.5,1.8s5,1.2,5,1.2c5-7.7,6.8-0.6,6.8-0.6l3,3c6.8,14.1,16.5,4.1,16.5,4.1
	c14.4-9.7,16.2-3.8,16.2-3.8c7.7,8,12.9,8.6,12.9,8.6c0-12.6,10.6-14.9,16.5-16.1s10.2-4.7,4.7-10.6s7.8-5.1,7.8-5.1
	s7.9-7.9,14.1-15.3S566.5,219.5,566.5,219.5z"/>
<path class="st0" d="M548.3,448l0.5-0.4l5.9-15.2l3.5-12.2c3.5-12.2-11.4-14.1-11.4-14.1c-20.4-9.4-8.3-23.2-8.3-23.2
	s9.8-5.5,0.4-17.3s-5.5-15.7-5.5-15.7c9.8-16.1,11.8-21.6-7.1-18.5s-9.8-29.5-9.8-29.5c9-6.7,10.6-13,10.6-25.5c0-0.2,0-0.3,0-0.5
	c-0.6-0.1-5.6-1.1-12.8-8.6c0,0-1.8-5.9-16.2,3.8c0,0-9.7,10-16.5-4.1l-3-3c0,0-1.8-7.1-6.8,0.6c0,0-1,3.9-4.9-1.1l-0.1-0.1
	l-7.1,13.9c0,0,0,9.7,0.6,21.8c0.3,6.8-0.8,10.4-2.8,13.8l-0.5,1.1l3.4,8.7c0,0,2.9,16.2,13.8,14.4s13.3,10.9,5.3,11.5s-5,6.5-5,6.5
	c9.1,7.4,4.4,13,4.4,13l-0.3,5.6c3,2.1,3.8,5.3,4.7,10s0.6,2.1,3.5,0.6s8-7.7,6.2,2.6c-1.1,5.9,0.9,12.1,5.3,16.2
	c2.4,4.7,6.5,3,6.5,3c8.6,1.8,6.5,3.5,6.2,14.7s3.8,14.7,9.1,17.7s5.9,9.7,4.4,12.7c-0.9,2.2-1.5,4.4-1.7,6.8
	c6.2,5.6,11.2-1.2,11.2-1.2C541.5,445.9,548.3,448,548.3,448z"/>
<path class="st0" d="M559.4,190.5l3.9-10.6c0.4-10.2-3.9-4.7-3.9-4.7c-5.1,5.5-9-7.1-9-7.1l-1.6-2.4c-0.1,0.2-0.2,0.4-0.3,0.6
	c-1.5,2.8-5.2,1.7-5.2,1.7l-0.4-12.6l-4.7,0.8c-2-2.4-6.7-4.7-6.7-4.7c-9,1.6-10.2-2.4-10.2-2.4s2.8-8.3-3.5-13.4s-2-9.8,5.5-17.3
	s-3.5-9-3.5-9l-2-3.2c8.3-11,0.4-13-4.3-13s-5.1-4.3-5.1-11.8s-6.3-2.4-6.3-2.4s-24.4,27.9-27.9,33s-5.1,2.8-8.3-1.2
	s-3.5-1.6-5.9,0.8s-3.9,2-3.9,2c-9.8-11.4-0.8-19.3,3.1-24s4.8-7.4,4.8-7.4c0-5.9-9,3.5-9,3.5l-4-1.2l-1.6-6.3c0,0-11,13-11.4,18.5
	c0,0-2,4.7-11,2s-13.4-5.5-22,2.4l-7.3,6.6l-0.1,0.3c0,0,11.5,15.9,21.5,17.1s10.9,7.1,10.9,7.1s-0.6,7.9,10.9,8.8s13,2.6,10.9,10.3
	s-8.8,15-16.8,15.3c0,0-8.3,1.5-8.3,10.3s-7.4,9.1-7.4,9.1s-5.9,7.4,1.8,14.1c0,0,4.7,0,8.5-0.3s2.4,5.3,2.4,5.3l0.1,0.4
	c8.7-5.3,19.7,2.8,19.7,2.8c8.5,7.4,12.4,1.2,12.4,1.2c14.4,6.4,11.8-16,11.8-16l0.6-0.9c4.7,3.8,11.2,2.1,11.2,2.1
	c5-4.4,19.1,10.6,19.1,10.6l9.1,4.4c8.8,9.1,13.3,2,17.1-3.3s23.9-3,23.9-3C560.6,202.3,559.4,190.5,559.4,190.5z"/>
<path class="st3" d="M278.1,258.6c2.9,2.1,8,1.2,8,1.2l1.2-1.8c2.4-7.4,10.3-14.4,10.3-14.4s6.2-5.6,10.6-1.5s5,0.9,7.4-0.9
	s5.6-0.9,5.6,1.2s2.1,5.6,2.1,5.6s5,0.9,2.1,4.4s-1.2,5.3-1.2,5.3s10.6-0.3,12.1,0.3s10.3,3.8,13.9,0.9s7.7,0.4,7.7,0.4
	c3.3,2.4,6.5,5,9.3,7.9c0.3,0.3,0.9,0.9,0.9,0.9s-2.6,9.1,5.3,12.1s2.1,9.1,2.1,9.1s-6.5,6.8,2.1,7.7l5,1.5l1.2,1.5l1.8-0.6
	c0,0,6.5-10.3,9.4-5.6s4.1,9.1,1.5,15s-5.3,9.7,2.1,7.7s7.7-4.7,7.7-4.7s2.4-3.5,8.2,1.2l0.6,6.5c0,0,3.5,9.4-18.3,7.7
	c0,0-3.2,10.6-12.1,5.9c0,0-7.5,9.7-10.8,10.9l-0.1-0.1c0,0,1.8-9.6-4.4-14s-18-8.8-18-8.8s-9-16.2-9-18.2c0,0-7.4,2.4-12.7-2.4
	c-3.2,0.9-6.3,2.2-9.1,3.8c-3.4,1.9-7.1,3.2-10.9,4.1c0,0-7.4-1.8-13.9,1.2c0,0-4.4,0.6-12.4-8c-7.2-7.7-14.4-7.5-17.9-3.7h-0.1
	c0,0-1.2-4.9-3.2-6.4s-8.8-13.9-2.1-11.8l9.7-5c0,0,9.1-8.8,8.4-15.5L278.1,258.6z"/>
<path class="st3" d="M466.6,264.1c-3.8-5-8-2.9-11.5-1.8s-8.8-2.4-8.8-2.4c-3.1-1.1-6.7-0.2-8.8,2.4c-3.8,4.4-11.2,14.1-17.7,2.7
	s-10.6-8.8-12.1-6.2s-1.5,6.2-10.6,6.5s-10.9,2.1-13,4.1c-1.9,1.9-12.2,2-16.5-1c0,0-2.7,9.2,5.3,12.2s2.1,9.1,2.1,9.1
	s-6.5,6.8,2.1,7.7l5,1.5l1.2,1.5l1.8-0.6c0,0,6.5-10.3,9.4-5.6s4.1,9.1,1.5,15s-5.3,9.7,2.1,7.7s7.7-4.7,7.7-4.7s2.4-3.5,8.3,1.2
	l0.6,6.4v0.1c0,0,5,3,8.8-2.6c1.7-1.8,4.5-1.9,6.2-0.2c0.1,0.1,0.2,0.2,0.2,0.2c3.5,3.2,16.2,14.4,21.5,5.6s9.4-10.9,8.8-23
	s-0.7-21.7-0.7-21.7l7.1-13.9L466.6,264.1z"/>
<path class="st3" d="M397.7,108.1c0,0,11.5,15.9,21.5,17.1s10.9,7.1,10.9,7.1s-0.6,8,10.9,8.8s13,2.6,10.9,10.3s-8.8,15-16.8,15.3
	c0,0-8.3,1.5-8.3,10.3s-7.4,9.1-7.4,9.1s-5.9,7.4,1.8,14.1c0,0,4.7,0,8.5-0.3s2.4,5.3,2.4,5.3l-0.2,0.6c-3.7,2.3-6.8,6.8-8.7,15.6
	c0,0-0.3,7.4-8,5.3c-8.4-0.4-16.5,3.2-21.8,9.7c0,0-4.1,4.7-11.5-2.9c0,0-11.2-4.4-17.1,7.4s-7.4,18.6-7.4,18.6h-0.1
	c0,0-4.1-3.3-7.6-0.3s-12.4-0.3-13.9-0.9S324,258,324,258s-1.8-1.8,1.2-5.3s-2.1-4.4-2.1-4.4s-2.1-3.5-2.1-5.6s-3.2-2.9-5.6-1.2
	s-3,5-7.4,0.9s-10.6,1.5-10.6,1.5s-8,7.1-10.3,14.4l-1.2,1.8c0,0-4.8,0.9-7.8-1.1l-0.4,0.1c-0.3-2.4-1.8-4.4-5.4-5.8
	c0,0-4.4,4.4-4.4,7.7c0,0-7.1,2.1-3.8-4.7c0,0,8-6.5-0.3-5.9s-6.5-3.8-6.5-3.8s0.3-13-1.8-15c0,0-2.9-8,4.1-10.3s17.4-6.5,17.4-6.5
	s11.8-0.3,15.3-5.3c0,0,30.9-4.1,38.3-12.4c2.2-0.7,4.5-0.5,6.5,0.6c3.2,1.8,8.5-2.6,8.5-2.6s2.4-1.8,7.7,1.2s8.3-4.7,8.3-4.7
	s2.1-1.8,7.7,2.1c0,0,27.7,0.6,24.8-15.3c-2.7-8.9-3.6-18.2-2.9-27.4c0,0-7.4-14.1,0.9-28.3c0,0,3.9-6.9,4.3-13.4L397.7,108.1z"/>
<path class="st4" d="M270.5,156.9l-1.9-3.7c-1.8-7.1,5.9-6.5,8-6.5c1.9-0.2,3.8-0.6,5.6-1.2c0.6-3.3,10-9.4,10-9.4
	c6.8,1.8,5.9-3.2,5.9-3.2c-3.8-13,8.5-13.8,8.5-13.8c8-13.3-4.7-19.4-4.7-19.4c-15.9,0-29.5-8-29.5-8l-3.8-1.5
	c-14.9,1.9-19.8-5.1-20.5-6.3c-2.8,1.7-12.5,7.3-17.8,9.8c-6.2,3-8-0.6-8-0.6c0.6-11.8-9.1-11.8-9.1-11.8
	c-0.5-7.3-13.8-2.3-13.8-2.3c-24.8-1.5-27.7,8.3-27.7,8.3l-3.8,0.6l0.3,1.8c-0.1,2.7-0.5,4.2-1.2,5.1c0.1,1.5,2.7,24.8,12.1,20.3
	c9.7-4.7,6.5,6.2,6.5,6.2s-1.2,3,5,3s8.5,3.5,8.5,10.9c0,0,0,2.1,4.4,2.4s10,2.9,10,11.2c0,0,1.2,5,3.8,8c1.9,2.1,5.4,7.8,5.7,13.3
	v0.5c1-0.6,7-3.7,10.4-0.5c0,0,3.2,2.6,3.2-3.2s-1.8-11.5,5.6-6.5s12.7,12.7,22.4,0.9c1.8-1.5,3.7-2.8,5.8-3.7L270.5,156.9z"/>
<path class="st0" d="M259.9,279.8l9.7-5c0,0,16.8-16.2,3-21.5c0,0-4.4,4.4-4.4,7.7c0,0-7.1,2.1-3.8-4.7c0,0,8-6.5-0.3-5.9
	s-6.5-3.8-6.5-3.8s0.3-13-1.8-15c0,0-2.9-8,4.1-10.3c2.4-0.8,5.3-1.8,7.9-2.8l0.4-0.1c1.2-2.6,6.8-8.8,6.8-8.8
	c5.9-2.9,4.4-6.8,4.4-6.8c-5.9-4.7-5.9-5,5-9.1s3-15.9-2.6-19.4s-5.3-5.9-5.9-14.1s-10.9,0.9-10.9,0.9c-9.7,11.8-15,4.1-22.4-0.9
	s-5.6,0.6-5.6,6.5s-3.2,3.2-3.2,3.2c-3.8-3.5-10.5,0.5-10.5,0.5v0.2c0,1.8-0.4,3.6-1.3,5.1c-3.8,6.5-8.8,12.1-10.6,20
	c0,0-3.8,2.9-6.8,5l-1.8,2.4l0.3,4.4c0,0-5,5.9,0.3,10.6s5.3,5.3,3.2,8.8c-0.8,3.2,0.1,6.5,2.4,8.8c0,0,0.9,6.5-4.1,9.7
	s-6.8,4.4-6.2,9.1c0.6,4.7-2.1,6.8-2.1,6.8l-1.5,4.4c0,0-2.4,2.4-7.4-1.8c0,0-9.7,3-21.8-7.7l-2.4,2.1c0,0-2.1,7.1-6.5,9.4l-2.1,10
	l-4.4,0.6l-7.1,0.6c0,0-8.3-1.2-8.3,9.4l-0.2,0.1c3.9,3.9,6.8,13.9,5.7,13.9s-15,10-15,10s0,6.5-8.6,5s-8.8,2.1-8.8,2.1
	c0,5.9-4.7,9.7-9.4,10.6s-11.2,14.1-11.2,14.1l-9.4,6.8c3.5,12.4,13,6.8,13,6.8c5.6-7.7,14.7-10,14.7-10c0.9,6.8,3.8,4.1,3.8,4.1
	c21.2-10.6,29.5-2.4,29.5-2.4L139,355c8.6,6.2,5.9,13,5.9,13l-4.7,3l-0.6,2.4c4.1,0.3,4.1,3.8,4.1,3.8c-6.2,2.6-1.5,10.3-1.5,10.3
	l-9.1-0.6l-7.4,5.6c-8.8-2.4-3.5,3.8-3.5,3.8l4.7,4.1c7.4,9.7,4.7,4.4-4.4,22.1s1.8,14.1,1.8,14.1l8.8-4.7c0,0-0.9,9.4,0.9,11.5
	s3.3,6.8,2.9,11.8s0,8.5,2.6,8s6.8-2.1,12.1-0.9s5.3,2.4,3.8,6.8s0,8.8,5.6,8.8s5.6-0.3,4.7-6.2s2.1-9.1,2.1-9.1l3.8-1.5
	c1.1-2.7,2-5.4,2.7-8.3c0.9-4.1,2.6-4.4,2.6-4.4c1-0.5,2-1,3-1.3v-0.3c-0.6-4.7,4.4-11.5,4.4-11.5c1.5-12.1-1.2-13.5-10-25.6
	s0.9-11.5,10.6-13.8s6.2-13,6.2-13s-3-4.4,1.2-7.7s2.6-10.3,6.1-12.4s7.4-11.5,9.7-12.7s7.1-4.7,8.8-8.5s8.6-5,10-5h4.7
	c4.4-2.7,8.5-6,12.1-9.7c6.5-6.5,1.2-12.7,0.3-19.7s2.6-7.1,7.9-4.1c5.3,3,9.1,1.2,12.1-3.8c0.2-0.4,0.5-0.8,0.8-1.1l0.1-0.2
	c0,0-1.1-4.9-3.2-6.4S253.1,277.8,259.9,279.8z"/>
</svg>
