<?xml version="1.0" encoding="utf-8"?>
<!-- Generator: Adobe Illustrator 24.2.3, SVG Export Plug-In . SVG Version: 6.00 Build 0)  -->
<svg version="1.1" id="图层_1" xmlns="http://www.w3.org/2000/svg" xmlns:xlink="http://www.w3.org/1999/xlink" x="0px" y="0px"
	 viewBox="0 0 651.5 651.5" style="enable-background:new 0 0 651.5 651.5;" xml:space="preserve">
<style type="text/css">
	.st0{fill:#191919;}
	.st1{fill:#FFFF99;}
	.st2{fill:#7A1C1E;}
	.st3{fill:#023652;}
	.st4{fill:none;stroke:#555555;stroke-linecap:round;stroke-linejoin:round;stroke-miterlimit:10;}
</style>
<g>
	<g id="XMLID_1_">
		<g>
			<path class="st0" d="M557.7,200.2c0.1,0,0.2,0.1,0.3,0.1C558,200.7,557.9,200.4,557.7,200.2z"/>
			<path class="st0" d="M557.5,200.1c0-0.2,0.1-0.1,0.2,0.1C557.7,200.2,557.6,200.2,557.5,200.1z"/>
			<path class="st0" d="M424.7,130.3c-2-2.5-3.1-3.5-4.7-4.6c0.2-1.9-3.1-7.7-0.8-6.1c-0.1-1-2.4-7.8-0.4-6
				c-0.2-0.6,0.7,0.3,0.9,0.3c0.4-0.9,1.6-1.5,1.7-3.3c0.9,0.7,1.9-0.2,2.8-0.9c1.8-3.5-5.1-4.4-2.6-6.1c2.3-2.4,1.6-3.3,2-5
				c-1.9-5.1-2.5-14.9-3.1-22c2.6-3.3,5.3-4.5,5.2-9.2l0,0c0,0,0.1,0,0.1,0c6.8-4.5-2-2.7,4.6-9.7c-1.5-1.6-7.9-3.6-5.4-5.8
				c9-3.7-0.7-7.5,11.9-10.1c11.6,4.1,0,7.7,5.9,10.8c0.8,0.7,3.4,2.4,2-0.3c9-3.5,2.2-0.6,7.5,2.5c6.9-9.2,5.2-1.8,4.3,2
				c1.3,3.8,4.8,5,4.1,9.3c-2.2,5.2,2.9,0.4,1.7,4.9c8.8-1.6,2.4,4.5,6.7,8.2c5.8,1.7,9.3-5.3,13.3,0.1c-0.3,3.8,0.7,3.9,2.3,3.9
				l0,0.3c-2.5,4-3,1.7-5.6,2.4c-1.2,5.3-2.6,0.4-3,2.4c-0.2,1.1-0.6-0.6-0.8,0.1c-1.4,1.3,0.5,0,0.5,0.6c-1.8,6.3-1.9,1.1-3.7,1.8
				c-0.1,3-0.2,2.6-2.9,4c-1.1,4.7-2.6-1.8-3.2,1.8c0.6,7-3.7-1.1-2,9.2c-0.9,1.8-7.6,2.8-5.3,5.3c4.3,5.4-5.5,4.3-5.8,11.7
				c1.7,13.2,15-3.5,10.3,7.7c4.9,4-0.5,3.5,3.8,7.3c-3.4,1.4-4.5,4.3-2.6,7.4c-1.6,1.1-6.7,2.1-0.7,2.9c1.4,5.5,7.5,6.1,6,8
				c0.2,2.9-2.2,7.1-0.1,7.9c-2.3,2.7-3-2.7-7.3-1.4c-1-2.2-9.3-0.1-7.6,1.9c1.3,0,0.3,1.9,0.7,2.9c-5.2,1.2-9.2,3.1-14.5,6.9
				c-1.2,0.1-0.7-1.9-0.8-2c0.2-0.8-1.9-0.4-0.4-0.8c-1.3-0.2-3.6-0.1-4.6,0.4c-2.6-1-0.7-5.6-3.7-3.8c-0.2-0.3-0.9-0.6-0.7-1
				c0.3-0.3-1.6,0.5,0-0.4c0.4-1.7-0.5-1.1-1-0.2c0.2-0.1-0.4,1.3-1.3,1.1c1.7-3.2-3.1-1.4-3.8-3.4c-1.8-1-3,2.3-3,0.2
				c-1.5-1.7-0.9-0.7-1.3-2.3c0-0.7-3-1.6-1.9-1.6c-0.3-0.5,0.1-0.8-0.7-1.1c0.6-0.7-0.9,0.4-0.8-0.8c0.4-1.5-0.8,0.1-0.8,0.1
				c-1.3-1.6-1.1-1.2-2.4-2.6c-0.9-3.7,2.3-6.6,3.5-7.1c1.7-1.7-1.1-6,3.1-5.7c1.5-1.6-2.9-2.2,1.5-4.4c1.6,0.3-2.4-7.4,0.9-5
				c-0.1-2.2,1.9-0.5,1.6-1.6C423.3,131,424.8,131.5,424.7,130.3z"/>
			<path class="st1" d="M417.5,198.1C417.5,198.1,417.5,198.1,417.5,198.1C417.5,198.2,417.5,198.1,417.5,198.1z"/>
			<path class="st1" d="M417.5,197.6c-0.1-0.1-0.2-0.1-0.3-0.2C417.3,197.4,417.4,197.5,417.5,197.6z"/>
			<path class="st1" d="M413.1,195.6C413.1,195.3,413.3,195.4,413.1,195.6L413.1,195.6z"/>
			<path class="st2" d="M417.5,198.1C417.5,198.1,417.5,198.2,417.5,198.1C417.5,198.1,417.5,198.1,417.5,198.1z M422.2,190.9
				c-3.3-8.9,7-0.7,9,0.3c4.8-0.8,7-6.2,8.9-6.7c7.9,6.4,9.7,17.2,6.9,24.9c4.5,3.8-1.7,4.9-3.2,9.4c-7.1,0.3,5.8,4.6,0.5,10
				c-1.4,9.8-2.2,4.9,3.8,8.3c3.2,2.8,11.3-0.3,13.2,8.2c2.9,4.8-4.4,10.9-1.6,14l0,0c0,0-0.1,0.1-0.1,0.1c-1.1,4.6-7.8,3.3-8.6,7.7
				c-3,2.2-0.8-7.5-4.5-2.3c0.8,2-3.1,0.6-2.4,1.5c0,0.5-0.5,1.5-0.3,2.1l-0.1,0c-3-4.7-5.8-4.6-8.6-4.5c-1.1,1.8-1.3-1.3-2.3-1
				c-1.8,3-2.6-1.6-4-1.1c-3.4,8.3-2-1.8-3.8,2.9c-4.1,3.7-3.3,5.6-6.8,0.3c4.4-9.2,4.3-8.1-2.7-15.7c-1.8-4.3-1.6-2.1-4.1-2.1
				c-0.1-0.2,1.3-2.3,0.5-2.8c-1.5,0.4,0-2.8-1.6-3c-2.7,5.5-1.6,2.3-6.3,1.3c-0.8-0.8-0.8,1.4-0.9-1.2c-0.4-0.1-1.1,0.3-1.1-0.4
				c-1.9-2.8-2.1,1.8-3.1,0.4c-2.5-3.5,2.6-7.1-1.8-9.2c-2.2,1.1-3.5,2.5-4.5,0.4c-2.5-0.9-1.6-0.8-0.7-2.6c-7-1-2.9-2.7-1.8-6.1
				c5.1-1.6,8.2,3.3,9.1-1.5c2.3-2.1-1.4-5.3-2.2-7.9c2.3-4.8,9.4-1.8,8.6-6.3c-1.1-1.1-1.9-3.3,0.4-3.1c4.7-5.4-3.8-6.3,2.5-9
				c0.2,0,0.5,0.4,0.3-0.2c0.1,0.2,0.4,1.1,0.2,0.3c0.7-0.1-0.5-1,0.2-0.6c0.2,0.2,0,0.7,0.4,0c0,0.3,3.6-1.4,3.5-0.1
				c0.1,0,0.1-0.1,0.2-0.1c0,0.1,0.1,0.2,0.1,0.3c0.8-0.8,0.5-2.2,1.1-1.5c-0.3-0.7,0.4,0.4,0.1-0.4c0.2,0.1,0.5-0.5,0.4,0.2
				c1.9,2.9,1.3,2.9,2,3.4c0.2-0.2,0.2-0.3,0.4-0.1c-0.1,0,0.1,0.4,0.2,0.7C417.6,197.4,422.4,193.8,422.2,190.9z"/>
			<path class="st2" d="M357.2,170.2C357.2,170.2,357.2,170.2,357.2,170.2C357.2,170.2,357.2,170.2,357.2,170.2z"/>
			<path class="st2" d="M358.2,170.8c-0.5-0.4-0.7,1-1-0.4c0-0.1,0-0.2-0.1-0.2c0,0,0,0,0,0c0,0,0,0,0,0c0,0.2,0.2,1.2-0.1,1.3
				c-1.9,1.3,0-3.3-4.3,0.3c-0.6-6.1-18-13.6-2.5-14c6.4-0.2,12.7-12.8,9.8-19.9c5.4-5.1,4.6-13.4,14-11.2c10.3-7.6,9-7.1,2-15.1
				c-5.3-8.1,1.1-6.2-2.8-12.5c-0.3-1.9-3-1.7-1.4-5.2c3.9-1.9-1.3-2.1,0.6-6.9c2.2-7.5-6.9-1.2-1.3-10.1c6.2,2.2,6.7,5,11.9,3.3
				c0.8,0.5,0.2-5.1,2.4-2.2c0.7,0.1,0.4,0.4,1.1-0.2l0.6-0.4c0.8,0.7,1.9,1.6,3.2,2.5c0.5,5,1.8-1.1,2.3-1c3.2,1.1,0.7-2.1,2.5-0.7
				c3.6,11,11.2-5.6,18.8-5.8c3-3.6,4.3-3.2,11.7-4.9l0,0c0.1,4.6-2.5,5.8-5.2,9.2c0.6,7.1,1.2,16.8,3.1,22c-0.4,1.8,0.3,2.7-2,5
				c-2.6,1.7,4.4,2.6,2.6,6.1c-0.9,0.6-1.9,1.6-2.8,0.9c-0.1,1.7-1.4,2.4-1.7,3.3c-0.1,0-1-1-0.9-0.3c-2-1.9,0.3,5,0.4,6
				c-2.4-1.6,1,4.2,0.8,6.1c1.6,1.1,2.8,2.1,4.7,4.6c0.1,1.2-1.4,0.7-0.3,1.9c0.3,1.2-1.7-0.6-1.6,1.6c-3.2-2.3,0.7,5.3-0.9,5
				c-4.4,2.3,0,2.9-1.5,4.4c-4.2-0.3-1.5,4-3.1,5.7c-1.2,0.5-4.5,3.4-3.5,7.1c1.3,1.3,1.1,0.9,2.4,2.6c0,0,1.2-1.6,0.8-0.1
				c-0.1,1.2,1.4,0,0.8,0.8c0.8,0.3,0.4,0.6,0.7,1.1c-1.1,0,1.9,0.9,1.9,1.6c0.4,1.6-0.2,0.6,1.3,2.3c0,2,1.2-1.3,3-0.2
				c0.7,2,5.5,0.2,3.8,3.4c0.9,0.2,1.5-1.2,1.3-1.1c0.5-0.9,1.4-1.5,1,0.2c-1.5,0.9,0.3,0,0,0.4c-0.1,0.4,0.5,0.7,0.7,1
				c3-1.8,1.1,2.9,3.7,3.8c1-0.5,3.3-0.7,4.6-0.4c-1.5,0.4,0.5-0.1,0.4,0.8c0.1,0.1-0.4,2.1,0.8,2c5.2-3.8,9.2-5.8,14.5-6.9
				c-0.4-1,0.7-2.9-0.7-2.9c-1.7-1.9,6.6-4,7.6-1.9c4.3-1.3,4.9,4.1,7.3,1.4c-2.1-0.8,0.3-4.9,0.1-7.9c1.5-1.9-4.6-2.6-6-8
				c-6-0.8-0.9-1.8,0.7-2.9c-1.9-3.1-0.8-6,2.6-7.4c-4.3-3.9,1.1-3.3-3.8-7.3c4.7-11.2-8.6,5.5-10.3-7.7c0.3-7.4,10.1-6.3,5.8-11.7
				c-2.3-2.5,4.4-3.5,5.3-5.3c-1.7-10.2,2.6-2.1,2-9.2c0.6-3.6,2.1,2.9,3.2-1.8c2.7-1.4,2.9-1,2.9-4c1.8-0.6,1.9,4.6,3.7-1.8
				c0-0.6-2,0.7-0.5-0.6c0.2-0.7,0.5,1,0.8-0.1c0.5-2,1.8,2.9,3-2.4c2.6-0.7,3,1.6,5.6-2.4l0-0.3c0.8,0,1.8,0,2.9,0.4
				c2.4-2.2,1.2-0.3,3.1-1.1c-0.4-1.7,1.6-1.4,0.7-0.5c-1.1,2.6,3.6-2.9,4.1-0.6c2.1,1,4.5,1.2,5.6,2c10.5-0.5,14.9-5.6,25.2,6.8
				c-4.4,2.7,1.3,3.6-1.3,5.5c-0.8,4.1,5.9,2.2,6,5c0.7,1.5,3,5.2,0.1,6c-1.2,0.5-1,1.9-2.1,2.5c-1.3,0.5,0.9,1,0.7,2
				c-0.9-0.2-0.4,0.7-1.1,0.8c1.7,2.2-10.6-1.1-8.8,0.7c2,13.1-1.5,3-3.8,10.4c-2,3.9,1,1.2,0.6,4.6c0.1,2.5-1.3,1.7,1,3.5
				c-0.8,0.4-2.6,1.9-0.9,2.9c4.4-0.6,2.6,12.1,6,8.3c-1.5,7.1,2.3-5.1,2.1,2.3c2,2.3,4.4-1.2,6.9,4c3.9,0.3,1.8,3-0.4,4.1
				c3.5,4.7,5.5-8.4,9.9,7.9c-1.5,4,5.1,1.8,7,4.5c0.4,0.9,0.6,3.2,0.9,3.5c-0.4,1.5,2.4,1.9,0.4,2.7c0.5,0.8,1.7,1.1,0.4,1.6
				c1.2,0.4,0.6,1.6,0.6,0.6c-0.3,0,0.3,1.9,0.2,0.7c0.7,1.1-1.1,0.3-0.8,1.8c0.1,0,1.6,0.1,2.6,1.2c0.1,0-0.9,0.5-0.1,0.6
				c0.2,0.2-0.5,0.4,0,0.4c0.4-0.1-0.2,0.3,0,0.3c2-0.7,1.4,3.1,0.4,4c1.8,3.5-0.3,2.4-0.8,5.2c2.8,0.1-2.9,4.3,1.4,5.2
				c-1.4,0.6,0.3,3,0.2,3.4c1.9-1.8,1.1,1.9,0.6,1.2c-0.5,0-0.1,0.5-0.9,0.3c-0.3-0.4,0,0.5-0.2,0c0,0.3-0.1-0.1-0.1-0.1
				c0,0,0,0.1,0,0.2c-0.8-1-1,1.4,0.1,0.7c0.7,0.6,0.7-0.3,1.3,0.3c0.3-0.6,1.8,2.3,1.9,1.4c0.1-0.4,0.9-0.5,1.5-0.3
				c0,0,0,0.1,0,0.2c0.9,0.5,0.3,0.8,0.9,0.8c0.3,1-1.4,0.3-1.1,1.2c-0.4,0-0.4,1.9-1.2,3.5c0,0.2-1.1,1.7-0.4,0.9
				c0.1,0.1,0.6,0.5,0.2,0.4c-0.9-0.1-2.7,2-1.8,1.5c10,12.2-1,9.2-8.6,17.9c-8.7,2.8,8.2,5.4,1.5,9c0.5,2.4,0.1,3.1-0.5,5.4
				c0.4,3.7-2.9,0.8-4.5,1.6c-2.9,0.2-4.1,2.6-6.3,1.5c-2.5,5.7-13.8-2.2-10.9,6.5c-5.7-0.8-1.4,9.1-6.8,3.9
				c-1.4,0.4-2.6-1.9-3.6-0.1c-3.7-2-3.7,4.1-7.7,0.8c-3.9,4.7-9.3,2.2-13.1,7.6c-2.3,2.6-1.3,9.3-6.5,11
				c-5.1-5.6-11.9-4.3-14.2-11.9c1.3-8.5-2.5,1.7-2.3-5.6c-1.7-1.3-5.1-3.4-5.1,0.9c-4.6,5-2.5,0-5.8,2.5l0,0
				c-2.8-3.1,4.5-9.2,1.6-14c-1.9-8.5-9.9-5.4-13.2-8.2c-6-3.4-5.2,1.5-3.8-8.3c5.3-5.4-7.6-9.7-0.5-10c1.6-4.6,7.7-5.6,3.2-9.4
				c2.8-7.7,0.9-18.5-6.9-24.9c-1.9,0.4-4.1,5.9-8.9,6.7c-2-1-12.3-9.2-9-0.3c0.2,2.9-4.6,6.5-4.7,7.1c-0.2-0.3-0.3-0.7-0.2-0.7
				c0.1,0.1,0.2,0.1,0.3,0.2c-0.2-0.1-0.2-0.2-0.3-0.2c-0.2-0.2-0.2-0.1-0.4,0.1c-0.7-0.4-0.1-0.5-2-3.4c0.1-0.7-0.2-0.1-0.4-0.2
				c0.3,0.8-0.5-0.2-0.1,0.4c-0.6-0.8-0.3,0.7-1.1,1.5c-0.1-0.1-0.1-0.2-0.1-0.3c0.2-0.2,0-0.2,0,0c0,0-0.1,0.1-0.2,0.1
				c0-1.3-3.5,0.4-3.5,0.1c-0.4,0.7-0.2,0.2-0.4,0c-0.8-0.4,0.5,0.5-0.2,0.6c0.2,0.7-0.1-0.1-0.2-0.3c0.2,0.7-0.1,0.2-0.3,0.2
				c-6.3,2.7,2.2,3.6-2.5,9c-2.3-0.2-1.5,2-0.4,3.1c0.8,4.5-6.3,1.6-8.6,6.3c-6.8-9.5-2.2-6.6-9.1-3.7c-4.1,0.6-7.5-1.4-11.1-0.4
				c-1.6-1.7,0.8-2.7,1.6-3.9c2.4,0.9-2-1.7-0.1-1.9c-0.3-1,0.4-6.9-2.8-5.8c-10.9-8.9-8.5-23.1-16.7-26.7
				C358.1,171.8,357.8,171.5,358.2,170.8z"/>
			<path class="st2" d="M343.8,234.1c0,0.1,0,0.2,0,0.2C343.7,234.2,343.7,234.2,343.8,234.1C343.7,234.1,343.8,234.1,343.8,234.1z"
				/>
			<path class="st2" d="M306.1,281.8c4.3-20.6,6.5-13.5,21.6-22.7c2.4-2.8,6.4-9,5.7-9.7c1.1-1.3-1.8-1.3,1.4-2.1
				c2.6-3.9-1.4-5.2,0.8-8.5c0.9-0.4,1-0.1,0.2-1.2c-10.3,1-4.5-7.2-3.3-11.6c1.5,0.4,12.4,12.1,11.2,8c0.2-0.8,1.2-4.6,3-4.4
				c2.3-0.3,1.4-1.2,3.1-1.6c2.7,2.1,1.3-2.3,2-3.2c0.7,2.1,4.6,0.6,3.8,4.8c1.3,2,2.4-4.5,2.6-3.1c0,2,0.3-2.6,0.5-0.1
				c4.9-2.3,9.4,0.8,8.6-6c1.3-0.8,5.3-3.2,3.1-3.8c-2-7.3,4.3-6.1,5.2-11.8c-0.5-1.6-1.9-4.5-0.4-5.8c3.2-1.2,2.5,4.8,2.8,5.8
				c-1.9,0.2,2.5,2.7,0.1,1.9c-0.9,1.1-3.2,2.2-1.6,3.9c3.6-1,7,1,11.1,0.4c6.9-2.9,2.3-5.8,9.1,3.7c0.9,2.5,4.6,5.7,2.2,7.9
				c-0.8,4.8-3.9-0.1-9.1,1.5c-1.1,3.4-5.2,5.1,1.8,6.1c-0.9,1.9-1.8,1.7,0.7,2.6c0.9,2.2,2.3,0.7,4.5-0.4c4.4,2.2-0.7,5.7,1.8,9.2
				c1.1,1.4,1.2-3.1,3.1-0.4c-0.1,0.7,0.7,0.3,1.1,0.4c0.1,2.6,0.1,0.4,0.9,1.2c4.8,1,3.6,4.2,6.3-1.3c1.6,0.2,0,3.4,1.6,3
				c0.8,0.5-0.6,2.6-0.5,2.8c2.5,0,2.3-2.1,4.1,2.1c7,7.6,7.2,6.4,2.7,15.7c3.5,5.3,2.7,3.3,6.8-0.3c1.8-4.8,0.4,5.4,3.8-2.9
				c1.3-0.6,2.2,4.1,4,1.1c1-0.3,1.2,2.9,2.3,1c2.8-0.1,5.6-0.2,8.6,4.5l0.1,0c0.1,0.1,0.2,0.2,0.3,0.3c2.8,0.2,3.6,10.1-0.5,8.6
				c0.2,6.4-7.2,3.7-7.9,8.9c-7.1,0.2-9.9-3.9-8.2,5.7c-4.8-1.6-5.5-8-9.3-0.2c-1.2,1,1,2.3,0.6,3.1c1,13.2,6,0.8,7.1,5.7
				c0.9,5.1,6.2,12.7,1.5,17.4c-0.6,2.6-1.6,7.5,3,7.2c7.9,7.3-4.2,10.9-9,19.5c2.9,6-3.5,5.3-6.4,8.6c-2.4,0-3.1,6.7-5,3
				c-3.5-2.5-6.1,5.3-8.7,1.2c-10,6.1-7.2-0.4-16.2,6c-4.5,8.3-14.5,11.1-9.5,22c-4.6,3-6,5.6-2.9,9.6c6.6,1.8,0.9,6.9,1.6,10.9
				l-0.9,0.3c-4.3,4.8-5.5-7.1-9-2.6c-4.6,6.7-11.6,12.6-19.5,4.2c3.1-2.8,3.9-5.1-0.4-7.6c1.3-1.3,6.4-3.5,2.1-4.4
				c-3,2.3-3.2-1.3-4.4-0.3c-2.1,0.1-1.2-1.6-2.2-3c-1-2.2-3.4,0.7-4-2.2c-3.8,0.3-2.3-2.6-0.6-5.1c0.9-8.2,2.6-13,1.2-20.4
				c1.4-4,4.7-6.6,3.1-10.9c-8.2,4.8,0.2-13.8-14.7-8.3c-3.4,5.5-3.3,12.5-9,17.8c-0.7-3.1-5.2-0.3-4.8-3.2c0.8-1.1-1.1,0.4-2.3-1.2
				c-0.6-6.4-1.2-4.7-4.1-10.7c-3.3-3.1-8.7,3-10.9-1.3c-2.5-1.5-3.6-5.1-4.2-8.1c-3,0.9-1.3,0.2-2.8-1.9
				c-0.7-10.9,8.3,0.4,4.8-15.4c9.4-18-2.1-3.2-8.6-17.9c2.7-11.3,8-12.8,13.8-22.4c3.9-3.9,5.1,1.2,8.4-0.2
				C305.6,280.3,305.1,281.4,306.1,281.8z"/>
			<path class="st0" d="M302.2,587c0,0-0.1,0-0.1,0C302.1,587,302.1,587,302.2,587z"/>
			<path class="st2" d="M290.7,213.4c2-1.9,1.9,1.2,0.6,2.1c-0.7-0.5-1.1-0.7-1.4-0.7l0.7-0.8C290.7,214.1,290.8,213.9,290.7,213.4z
				"/>
			<path class="st2" d="M313.8,219.5c-1.1,0.3-0.2-2-1.2-1.4c-4.3,9.1-3.1-8.6-8.1-10c-3.1,1-1.6,5-5.1,4.9c-1.5-2-3.1,2-3.9,1
				c-0.8-2.1-3.4-1.2-4.8-2.1c-0.5,0.7-0.3,2-0.2,2.2l-0.7,0.8c-0.9,0-0.5,1.8-2.6,0.7c-4-0.2,3.3-5,1.5-4.3c-0.1-1.8-6.5-6.5-6-2.4
				c-1.4,0-0.9,1.1-2-0.1c-1.2,1.7-2.3,1.3-3.6,0.8c4.1-2.7-1.1-7.8,3.2-10.9c1.2-1.2-1-0.2-0.7-0.5c0.4-2.8,1.5-3.2,0.5-7.1
				c3.4-0.7,1.5-3.5-0.2-2.4c-2.1,1.7-3.2,0.1-3.8-1.1c0.3-1.4,2.9-1.7,1.9-3.7c5.3-21.5-7.8-3.2-9.6-14.6c2.4-2.6,5.1-3,5.1-8.4
				c9.3,0.4-5.1-13.8-1.9-17.6c5.4-4.6,9.5,6.2,10,4c-0.9-0.1,0.6-0.3,0.6-0.1c3.3-0.2-1.3,0.4,1.1,0.7c1.8-0.2,2.2,0.3,3,2
				c1.4-0.3,4.2,0.1,5-0.9c0.7,1.5-3.9,2.1-0.5,2.8c6.6,3.5,3.4-4.6,8,3.7c5.2-1.4,6.9-2.7,5.6-9c6.5,3.3,4.8-5.4,9.1-7.2
				c-0.6-8.5,5.1-4.1,7.7-6.7c2.1,1.4,8.7-2.7,16.8-1.6c-7,5,2,8.5,5.9,10c0.5,1.8-1.1,5.5,1.9,2.8c4.5,0.2,0.8-6.4,0.7-8.9
				c2.7-8.6,8.2,5.9,13.2,3.2c2.9,7.1-3.4,19.7-9.8,19.9c-15.5,0.4,1.9,7.9,2.5,14c4.3-3.6,2.5,0.9,4.3-0.3c0.3-0.1,0.1-1.1,0.1-1.3
				c0,0,0,0.1,0.1,0.2c0.3,1.4,0.5-0.1,1,0.4c-0.4,0.7-0.1,1,0.4,1.6c8.3,3.6,5.8,17.8,16.7,26.7c-1.4,1.3-0.1,4.2,0.4,5.8
				c-0.9,5.6-7.2,4.5-5.2,11.8c2.2,0.6-1.8,3-3.1,3.8c0.8,6.7-3.7,3.6-8.6,6c-0.2-2.6-0.6,2.1-0.5,0.1c-0.2-1.4-1.2,5.1-2.6,3.1
				c0.8-4.2-3.1-2.7-3.8-4.8c-0.7,0.9,0.7,5.4-2,3.2c-1.7,0.4-0.8,1.4-3.1,1.6c-1.9-0.2-2.8,3.6-3,4.4c0,0,0,0,0,0
				c0,0.1,0,0.2,0,0.2c0,0,0-0.1,0-0.2c1.2,4.1-9.6-7.7-11.2-8c-1-0.7-1.1-2-1.5-3c-5-5.9-10.3,0.6-13.8-1.5c2.6-4-2.2-1.8-1.9-3.3
				C313.4,217.8,314.6,219.3,313.8,219.5z"/>
			<path class="st0" d="M313.8,139.1c-4.3,1.8-2.6,10.5-9.1,7.2c1.3,6.3-0.4,7.6-5.6,9c-4.6-8.3-1.4-0.1-8-3.7
				c-3.4-0.7,1.2-1.4,0.5-2.8c-0.8,1-3.7,0.6-5,0.9c-0.7-1.6-1.2-2.2-3-2c-2.4-0.2,2.2-0.9-1.1-0.7c-0.1-0.2-1.5-0.1-0.6,0.1
				c-0.5,2.2-4.6-8.5-10-4c0-2.6-1.9-2.1-3.2-3.7c-1-1.4,2.8-1.7-1.1-2.9c-17.9-8.3-45.9,1.9-46.1,21c-3,0.2-4.9,4.2-2.9,6.5
				c0.5,2.8-7.7,11.1-8.8,5.2c-3.1-0.3-1.1,5.4-7.7,7.6c-0.2,0.4-0.3,0.7-0.5,1c-18,2.7-11.6-16.5-25.6-4.8c-1.4,2.6,1.9,5-2.8,2.6
				c-2.4-2.7-1.3,2.3-6.6-0.6c-4.1,5.3-9.5-12.5-12.8-9.5c-1.8-6.1-4.9,0.9-7.6,3.1l-0.3,0c-0.1-2.2-0.3-4.5-0.1-7.1
				c-1.6,2.2-1.7,0.6-2.4-0.7c-2.9,1.1-4.7,1.6-6.3-0.9c0.4-2.2,0.8-9.2-3-4.2c-0.9-6.3-3.3,0.1-1.8-6.4c-3.4-2.1-4.5,6.1-4.9-5.7
				c-5.2-14.3,13.2-22.8,24.6-25.4c8.6,1.9-0.3-11.2,6.3-12.9c4.9-4.3,4,4.1,8.5,3.3c7.6-4.6,13.2,3.5,22.2-4.1
				c0.2-2.2,14.8-7.1,13.1-1.1c0.3,1,2.4,1,2.4-0.5c6.9-3.4,14.5-0.7,16.4-8.6c0.8-1.6,0.8-1.1-0.4-2.6c0.7-0.9,0.6-1.3,0.3-1.3
				l0.1-1c1.9,0.1,4.7-2.6,2-3.1c-4.1-1.5,3.5-4.4,3.9-5.2c2.4,2.6,5.1,3.1,8.1,1.4c3.9,0.5-2.2,4.7,1.7,4.4
				c7.7,3.5,4.5-0.6,4.9-6.2c0.8-0.3-0.3-1.3,1.4-1.3c3.1-2.2-4.1-0.6-4.8-0.7c5.9-8.7-2.4-4.8-0.7-8.7c1.5-2.2,8.8,5.4,13.6,1.7
				c4.2-0.1-1.8,3.7,2.9,4.1c7.5-3.9,14.2-7,18.4-14.7c-3.8-9.6,7.8-8.3,17.1-9.6c8.8-0.9,13.5,11,22.3,12.3
				c13.1,5.7,18.8-14.7,31.5-10.5c5.2,10.9,16.4-6.3,24.4-8.2c15.4,2.7,3.4-28.8,24.8-16.8c2.6-0.8,5.7,3.3,5.2,5.1
				c1.6,3.2,4.5-3.1,3.6,1.2c-0.5,7.2,1.5,0.5,5.3,2.2c4.3,4.7-1.1,11.2-5.4,15.2c-1.6,0.1,2,2.4-1.6,2.2c-0.4,0-0.4,0.8-0.7,1
				c0,0.5,0.3,1.1-0.5,0.7c-1.9,2.8-2.5-1.8-3.9,0.3c-2.4,3.5-12.7,11.5-8,12.1c3.8,3.3-6.5,2.3,1.1,8.9l-0.6,0.4
				c-0.7,0.6-0.4,0.3-1.1,0.2c-2.2-2.9-1.5,2.7-2.4,2.2c-5.1,1.8-5.7-1.1-11.9-3.3c-5.7,8.9,3.4,2.6,1.3,10.1
				c-1.9,4.8,3.3,5-0.6,6.9c-1.6,3.5,1.1,3.3,1.4,5.2c3.9,6.4-2.5,4.5,2.8,12.5c7,8,8.3,7.5-2,15.1c-9.4-2.2-8.7,6.1-14,11.2
				c-5,2.6-10.5-11.8-13.2-3.2c0.1,2.5,3.8,9.1-0.7,8.9c-3,2.8-1.4-1-1.9-2.8c-3.9-1.5-12.9-5-5.9-10c-8.1-1.2-14.7,3-16.8,1.6
				C319,135,313.3,130.6,313.8,139.1z"/>
			<path class="st0" d="M216.3,88.3c1.3-6.9,0.5,4.1,3-1.6c-0.3,2,0.3,2.7,1.2,2.8l-0.1,1c-0.7,0-2.8,1.4-2.8,2.2
				c4.3,0.3-2.7,4.2-2.2,2.7C213.7,89.4,211.4,95,216.3,88.3z"/>
			<path class="st3" d="M205.5,247.5c0,0.1,0.1,0.2,0,0.2C205.5,247.6,205.5,247.5,205.5,247.5z"/>
			<path class="st0" d="M205.5,247.5c0-0.2-0.1-0.4,0.1-0.4C205.6,247.2,205.5,247.3,205.5,247.5z"/>
			<path class="st0" d="M186.7,531.3c-0.8,0.8-0.9-0.5-0.7-1.2c0.3-0.2,0.4,0,0.5-0.2l0.3,0C186.5,530.1,186.5,530.5,186.7,531.3z"
				/>
			<path class="st0" d="M222.5,290.6c-2.8,0.3-3,1.5-3.6,2.3c-2.7,2.5-2.6-0.9-3.8,3.2c-0.4,0.2-0.5,0.8-0.3,0.1
				c-0.6-0.1-3,1.1-2.7,0.8c0.6-0.9-1.1,0-0.7-0.9c-1.7,0.6-1.6,0-2.5-1.9c-1.5-0.5-2.9-2.7-3.1-1.7c-2.4,3.8-2.6,0.4-4.2,3.8
				c-9.5-4.4-5.7,11.6-13.7,3.7c-2.6-3.1-6.5,2.9-6.1-4.9c0.9-3.1-0.2-8,4.1-10.8c1.5-1.5,1-8.8-0.6-7.7c0.7,0.9-0.3,1.6-1,0.3
				c1.1-2.2,3.5-3.4,2-6.8c-0.1-2.2-3.8,0.1-2.4,0.8c-5.3,2.9-8.6-8.9-4.8-10.4c5.6,0.2-4.4-4.1,6.7-3.8c0.8,0.3,3.8-3,3.5-3.4
				c-2.5,0.3-0.6-5.4-4-7c1.5-2.2,9.1-6.1,12.9-4.4c7-2.5,8.7-1.1,7.4,5.1c-0.2,0.1-0.1,0.3-0.1,0.4c0,0.1,0,0.1,0,0.2
				c0.1,0.1,0.1,0,0-0.2c0-0.1,0.1-0.3,0.1-0.4c0.1,0,0.3,0,0.6,0.1c0.7,4.3,6.9-3.3,9.3,1.8c1.5,2.6,7.9-9.5,10.1-5.7
				c-1.2,1,1.3,1.2,2,0.8c0.6-2,3.1,1.5,3.8-0.3c1.2,2.6,3-0.4,4.9-0.2c-0.1-1-1.6-1.3-0.2-1c0.4,0.8,1.6,1.5,3.3,0.9
				c2.8,1.1,1.3,1.1,2.6,3.5c-2.3,1.3,0.1,5-3,4.9c-1.3,3.6,2.5,2.4-0.8,4.4c-2.3,0.6,2.8,7.3,2.5,7.3c-0.9-0.4-0.2,1.4,0.2,0.9
				c0.2-2.2,5.9,2.9,7.2,0.4c-0.4-0.6,0.5-1.3,0.9-0.7c3,3.8,4.4,0.1,8.2,1.6c2.4,0.9,4.3-0.2,8.2,0.1c-6.8,1.2-6.2,10.5-15.1,12
				c-6.2-0.7-10,9.3-11.2,2.7c-1.3-2.6-1.6,2.6-2.6,2.3c-4.3,4.3-0.6-4.6-7.2,0.1c-0.7,1.5-1.6,3.3-1,5.5c-0.2,2.7-2.2,0.9-3.2-1.1
				C221.6,287,224.8,289.7,222.5,290.6z"/>
			<path class="st0" d="M148.3,607.5c0.2-0.2,0.4,0,0.3,0.9C148.5,608.1,148.4,607.7,148.3,607.5z"/>
			<path class="st0" d="M154.5,463.4c-7.2-0.3-14.1,3.1-21.3,5.7c0.2-0.6,1.3-1.7,0.2-2.1c-2.7-1.6,2.4-12.4,6.1-7.9
				c1.5-0.6,5-1.8,1.9-3.1c2.2-2.8,16.2-4.1,10.6-8c1.7-1,0.9-1.5,0.2-2.4c0.3-2.7-3.3,0.8-3.4-1c-2.6-3.6-8.7,4.6-11.6,3.7
				c-3.2-5.8-7.8,3.9-11.3,0.4c2-5.6,6.3-10.2,9.3-15.5c0.1-3.7-2.2-7,1.9-9.8c4-0.4,1.7-3.8,3.6-7.3c2.6-2.6-1.6-0.3-2.5-1
				c-0.2-2.6,5.5-9.9,1.6-10.2c-10.1-1.2-5.5-4.4-18-4.9c-9.3-9.8-4-25.7,2.2-35.2c-0.3-0.1-0.7-0.3-1-0.5l0.7-0.3
				c3.2-6.6,7-8.5,8.3-16.6c3-6.5,4-3.3,6.5-5.1c2.2-1.9,0.8-7.2,4.7-6.5c5.2-2.1,0.4-7,1.5-10.5c-3.2,3.2-13.2-7.4-10.7-11.4
				c15.9,2,13.5-9.2,24-16.4c3.6-0.7,8.1,5.3,8.9,2.3c1.6-0.4,0.4,1.2,1.7,0.7c3.5,1,3.7-3.6,6.6-1.1c0.9,0,1.5-2.5,3.2-2.2
				c1.4,0.5,0.2-4.6,3.2-2.3c-0.4,7.8,3.5,1.8,6.1,4.9c8,7.9,4.2-8,13.7-3.7c1.6-3.4,1.8,0,4.2-3.8c0.3-1,1.6,1.2,3.1,1.7
				c0.9,1.9,0.8,2.5,2.5,1.9c-0.4,0.8,1.3,0,0.7,0.9c-0.2,0.3,2.2-0.9,2.7-0.8c-0.2,0.8,0,0.1,0.3-0.1c1.1-4.1,1.1-0.7,3.8-3.2
				c0.6-0.9,0.8-2.1,3.6-2.3c2.3-0.9-1-3.6,2.6-3.1c1.1,2,3.1,3.8,3.2,1.1c-0.6-2.2,0.3-4,1-5.5c6.5-4.7,2.9,4.1,7.2-0.1
				c1,0.3,1.3-4.8,2.6-2.3c1.1,6.7,5-3.4,11.2-2.7c8.9-1.5,8.3-10.9,15.1-12c-2.2-2.2-2.9-2.1-0.2-4.7c1.4-1.9-2.9-2.4-0.5-3.3
				c1.7-1.9,2.9,2.3,2.7-1.7c2.6,0.4,0.1,4.9,3.8,4.3c1.9-2-2.2-2.4,0.4-2.7c0-1.8,7.2-0.5,5.9,1.8c-4.1,1.9-0.2,2.2-2.4,3.1
				c2.2,2.5,9.4,9.6,13.8,8c3.7,3.1,5.6,6.4,7.8,10.6c-5.7,9.6-11.1,11.1-13.8,22.4c6.5,14.7,17.9,0,8.6,17.9
				c3.5,15.8-5.5,4.6-4.8,15.4c1.5,2.1-0.2,2.8,2.8,1.9c0.6,3,1.7,6.6,4.2,8.1c2.2,4.4,7.6-1.8,10.9,1.3c2.8,6,3.4,4.3,4.1,10.7
				c1.2,1.6,3,0.1,2.3,1.2c-0.4,2.9,4.1,0.1,4.8,3.2c-5.1,3.4-12.1,10.2-14.7,17.3c-7.5-7.2-8.2-5.5-8.9,2.7
				c-3.7,1.3,3.5,2.4,3.5,2.5c0.3,1,1.6,6.5-0.7,4.9c-1.6,0.1-1.7,1.1-0.2,1.8c-0.1,1.3-0.8-1.1-1.7,2.2c-3.5,5.9-3.8-0.6-8.8,1.5
				c-13.3,4.5-0.2-6.8-11.1-2.5c-5.9-0.5-5,1.9-10.6,2.8c-2.3,1.6-1.3-2-4-1.8c-0.9,2.5-3.1,0-3.7,3.4c2.1,0.1-8.6,10.6-6.9,12
				c2.6,2.5-11.5-1.5-15.5,8.6c-1.7,5.2-5.3,7.3-0.3,12.5c2.7,2.5,0,4.3,3.1,6.9c-1.7,2.6-3.6,4.7-4.5,7.2c8.4,1.7,4.2,9.6-2,3.2
				c1.3-2.1-2.1,1.3-1.1-0.8c-3.2-4.2-9-4.5-13.7-1.2c-2-2.4-7.7,1.9-12.9,0.3c-1.1,0.6-0.3,2.5-2.1,2.3c0-0.8-4.3-1.9-4-3.4
				c-1.9-0.9-6.6,0.8-5.8-3.2c-5.7-3.1-7.5,2.4-10.9,6c-2.6,0.3-6.8,13.4-6.4,6.5C163.8,451.4,161.7,463.2,154.5,463.4z"/>
			<path class="st0" d="M135.7,544.4c-2.3,2.5-3-2.8-1.8-4.5c6.6-1.9-3.9-0.6,2.1-4.9c-0.2-3.7-5.1-1.4-0.5-3.5
				c-0.3-1.1-1.5-1.1-2.1-0.1c-8.3-4-0.1-3-2.7-6.3c-4.4-1.1-7.1,1.5-3.4-4.3c-1.8-0.4,0.6-2-0.5-1.5c-2.2,0.9,0.8-1,0.6-2.9
				c1.7-0.5,3-0.3,2.7-3.2c0.2-5.6-13.3-16.3-2.6-23.4c-0.4-8.4,9.2-11.8,5.7-20.7c7.2-2.6,14.1-6,21.3-5.7c7.2-0.2,9.3-12,17.4-8.6
				c-0.4,6.9,3.7-6.2,6.4-6.5c3.4-3.6,5.2-9.1,10.9-6c-0.9,4,3.9,2.3,5.8,3.2c-0.3,1.5,4,2.6,4,3.4c1.7,0.2,1-1.7,2.1-2.3
				c5.2,1.5,10.9-2.7,12.9-0.3c4.6-3.3,10.4-3,13.7,1.2c-1,2.1,2.4-1.3,1.1,0.8c6.2,6.4,10.4-1.4,2-3.2c0.9-2.4,2.8-4.6,4.5-7.2
				c-3.1-2.6-0.4-4.4-3.1-6.9c-5-5.2-1.5-7.4,0.3-12.5c4-10.1,18-6.1,15.5-8.6c-1.7-1.3,9.1-11.8,6.9-12c0.6-3.4,2.8-0.9,3.7-3.4
				c2.7-0.2,1.7,3.4,4,1.8c5.6-0.9,4.8-3.2,10.6-2.8c11-4.3-2.1,7,11.1,2.5c5-2.1,5.3,4.5,8.8-1.5c0.9-3.3,1.6-0.9,1.7-2.2
				c-1.5-0.6-1.4-1.6,0.2-1.8c2.3,1.6,0.9-3.9,0.7-4.9c0-0.1-7.2-1.3-3.5-2.5c0.7-8.2,1.4-9.9,8.9-2.7c2.6-7,9.6-13.9,14.7-17.3
				c5.8-5.2,5.6-12.3,9-17.8c14.9-5.5,6.6,13.2,14.7,8.3c1.6,4.3-1.7,7-3.1,10.9c1.4,7.5-0.3,12.3-1.2,20.4
				c-1.7,2.4-3.2,5.3,0.6,5.1c0.7,2.9,3,0.1,4,2.2c1.1,1.4,0.1,3.1,2.2,3c1.2-1,1.4,2.6,4.4,0.3c4.3,1-0.8,3.1-2.1,4.4
				c4.3,2.5,3.5,4.8,0.4,7.6c7.9,8.4,15,2.6,19.5-4.2c3.4-4.5,4.6,7.4,9,2.6l0.9-0.3c0.2,1,0.8,2,2.1,2.8c1.3,0.8,1.5,3.2,2.6,2.8
				c0.6,1.5-2.3,1.4,0.6,2.2c-1.4,1.4,0.3,0.3,0.8,1.5c7.1-1.2-1,3.6-0.7,7.2c3.2,4.5-6.5,5.5-4.3,4c1-2.7-4.2-5.3-4.2-2.9
				c-4.1,3.7,0.7,4.5-2.3,4.2c-4.3,1.5-3.8,5.5-7,6.5c-1.6,0.4,2.1,0.5,0,1.5c-4.2,2.3-1.4,9.4-3.4,8c0.9,1.4,1.1-1,1.6,0.9
				c-1.6,0.3,0.3,0.3-0.1,1.1c-0.5,1.7-0.4,4.3,1.9,2.7c6.3-1.5,10.4,4.8,1,10.1c-0.7,0.4-1.3,2.3-2.6,2.6c0,0.4,0.1,2.2-0.5,1.3
				c0.4-1.4-0.4,1-1.2,0.1c-2.7,3.1-0.5,9.2-3.1,7.6c-9.7,8.6-10.6,3.3-18,8.8c-9.5,3.8,6,9.5,0.5,13.9c-2.8-7.5-5.1,6.1-7.4,5.1
				c-0.8,0.7-2.7-2.3-2,0.5c-0.3,1.2-1-1.6-1,1c-0.8,0.3,1.7,1.3,0.3,1.1c-0.4,3.7,2.1,2.3-0.8,4.8c-3.5,0.4,4.2,8-0.8,8.6
				c-2.1,0.6,1,4-2.1,4.1c-0.8-0.8-0.6,1.5-1.6,2.1c1,2.5,1.1,3.3,1.7,7.3c-4.1,1.6,0.4,1.5-2.6,4.2c-1,0.8,1.9,3.2-0.4,3.3
				c1.2,1.1,2.4,2.6,0.3,5.6c-7.2-0.1-1.8,2.7-6.8,6.4c-2.1-0.7-3.2,3.5-5.1,1.2c0.1,1-1.2,0.8-1.2,1.8c1.1,2.7-2,6,2.4,6
				c0,1.1,1.6,2.1,0,2.6c-2.3,2,2.7,4.3,3.6,5.4c2.4,6.4-10.1,2.4-0.2,10.3c3.3,5-9-4.5-2.6,3.7c-4,2.9,6.4,7.3-2.8,7.6
				c0.5-2.4,0.7-1.5-1.2-3.5c-5.4-3.7-2.2,6.6-6.1,4c-0.7-0.2,0.3,0.7,0.7,0.7c-1.8,0.7,1.6,3.1-1.2,2.1c-1.4,3.3,0.1,6.4-1.8,8.8
				c-0.6,1.8,1.1,4.9,2.6,5.3c4.1-0.6,0.9,3.2-2.5,3.4c3.5,2,3.6,6,7.5,8.8c2.1,3.6,0,2.3-2.6,2c-0.7-0.4-0.1,1.5-1,0.1
				c-0.3,0.3-0.3-0.5-1-0.2c-0.4-0.3,0.1-0.6-0.4-0.3c-14.6,10.5-4.7-7.9-20.4-5.2c-1.3-7.7-16.2-26.1-20-12.6
				c-2.1,0.8-8.3-5.1-9.7,1c-2,0-4.3,0.8-6.1,1.7c-0.9,0.7-0.5,0.5-1.4,0.3c0.5,3.1,0.9,0.4,1.2,2.1c-2.2-1.5-7.7,1.9-6.4,2
				c-0.3,1.7-1.4-0.2-1.8,0.5c-1.8,0-2.1-4.6-4.7-3.6c-0.8-0.2-0.4-1.3-0.8-0.4c1.2,0.1-1.7,1-0.4,1.5c-2.5,4.2-5.4-0.5-9.3,4.1
				c-6.8-5.3-2.4,7.1-7.4,9.2c-1.4,0.7-1.7-2.5-1.3-3.5c-3.9,0.3-5.9-0.1-10.4-2c-4.1,1.6,0.9,5.4-3.2,7.2c-2.7,6.5-3.6-7-7.4-2.3
				c-4.6-1.3-3.5,7.4-10.2,1.3c-3.1,1.8-7,6.5-10.1,7.1c-1.6-1.4-2.4-0.6-1.9-3.2c-0.6-2.2-2.2,0.1-1.5-4.1c0.3-1.1-1.2,0.4-1.3-0.7
				c0.3-1-1.5-1.8-1.7-1.6c-1.3,0.3,0.9-1.5-1.1-0.5c0.5,0.3,0.2,2.2,0.1,0.9c-7.7,1.8-3.8-7.2-10.4-6.9c-2.1,1.5-3.3-2.7-5.4-0.3
				c-1.4,0.4-0.7-1.1-0.3-1.5c0.1,0.3,0.2,0.6,0.3,0.9c0.2-0.9,0-1.1-0.3-0.9c-1.5-5.2-0.2-2.1,5-4.1c1.3,0.1,5.3,0.7,4.3-1.4
				c0.8-3,6.3-2.1,6.4-5.8c-2.3-3.9,3.5-8.4,5.8-12.2c0.9-1.9-3-3.2-0.2-3.4c-0.2-1.2-0.5-1.9-0.4-2.7c-1.2-2.3,4.3-0.5,2.1-2.4
				c-0.4-1.3,5.2-0.3,3.5-2.9c1-2.7,4.5,0.7,5.4-1.7c-0.5-1.3,0.6-2.4,1.3-1c1.9-3.7,3.5-8.1,7.7-6.3c6.7,1.9,3.8-3.6,8.9-3.1
				c6-1.4,3.2-6.3-1.5-7c1.7-1.6-1.8-1.3,0-2.4c2.9,0.1-0.3-2,2.1-2.8c0.6,0.9,1.6-1.8,2-0.9c0.6,0.4,0.3,0.8,1.3,0.4
				c0.5,0.4,0.7-0.9,0.2,0c-0.1,0.1,0.1-0.5,0.3-0.4c0.5,0.6,0.3-1.1,0.2-0.1c0,0.2,0-0.2,0-0.3c-2.6,2.2,2-5.7-2.3-5.3
				c0-3.2-1.7-2.5-3.1-3.9c-1.1,2.1-10.4-2.8-8.5-6.6c-0.7-0.5-1.6-1.6-1.9-1.2l-0.3,0c0-0.1,0.1-0.2,0.1-0.6
				c-2.6-0.4-6.6-3.2-6.9,2c-1.6,0.7-2.4,1.8-3.9,0.5c-2.6-3.3-3.4,5.1-6.4,5.5c-5.8,1.9-9.7-5.6-9.2,3.8c-2.5-0.9-5.2-0.8-9.2-0.9
				c-0.6-1.9-0.9-2.8-2.8-0.9c-1.6-0.9-3.9-0.6-6.5,1.1C139.4,543.6,136.1,541.2,135.7,544.4z"/>
			<path class="st3" d="M137.3,279.9c-3.1,0.8-1.6-2-3.5-1.1c0.1-1.7-4.1,0.9-5.2-1.5c-0.4-2.4-2.3-0.7-0.1-5.1
				c-1.8-0.3-2.2,0.9-3.5,1.1c-0.9-0.8,1.5-1,0.6-1.2c-1-0.3,0-3.2-2.1-1.4c-0.3,0.6,0-1.5-0.4-0.5c-1.3,0.5-2.4-2.4-0.8-1
				c2.2-1.1-1.8-1.2,0.1-1.6c1.1-1-1.1-1.7-1.7-1.4c1.8-1.4,4.2-5.6,5.6-4.6c-3.3,3.8,8.8-4.5,4-6.6c-5.2,2.6-2.3-2.3-4.8-1.7
				c-0.7,1.1-2-0.2-2.1-0.4l-0.1-0.2c1.4-1,1.5-2.8,3.6-2.2c3.3,0.4-2.1-3,2.5-2.7c14.4,3.3-2.7-13.6,2.4-13.4
				c8.1-2.7,8,1.5,13.3-8.8c3.2-1.2,5.1-0.9,5.2-5c1.7,0.7,4.2-2.2,5.3-3.6c-0.1-1.2-0.9-0.7-0.7-1.6c-1-0.2-0.4-0.6,0.2-0.3
				c0.6-1,2.1-0.9,0.4-2c-0.7-0.9,1.2-1.3,0.4-2.5c0-2.3-2.7-0.7-3.6-1.9c-1.2-0.4-1.2-2.8-2.7-3.2c-2.5-1.3,6.6-4.7,0.9-6.8
				c-18.7-8.8-4.7-3.4-7.2-21.2c2.4-2.9,2.6-5.7,2.5-8.9l0.3,0c2.7-2.3,5.8-9.3,7.6-3.1c3.3-3,8.7,14.8,12.8,9.5
				c5.3,2.9,4.2-2.1,6.6,0.6c4.7,2.4,1.4,0,2.8-2.6c14.1-11.7,7.6,7.5,25.6,4.8c0.3-0.3,0.3-0.6,0.5-1c6.6-2.2,4.6-7.9,7.7-7.6
				c1.1,5.9,9.3-2.4,8.8-5.2c-2.1-2.3-0.1-6.3,2.9-6.5c0.2-19,28.2-29.3,46.1-21c3.9,1.2,0.1,1.6,1.1,2.9c1.4,1.7,3.2,1.1,3.2,3.7
				c-3.3,3.9,11.1,18.1,1.9,17.6c0,5.4-2.7,5.8-5.1,8.4c1.8,11.4,14.9-6.9,9.6,14.6c1,2-1.6,2.3-1.9,3.7c0.6,1.2,1.7,2.8,3.8,1.1
				c1.6-1.1,3.5,1.6,0.2,2.4c1.1,3.9-0.1,4.3-0.5,7.1c-0.3,0.3,1.9-0.6,0.7,0.5c-4.3,3.1,0.8,8.2-3.2,10.9c1.3,0.5,2.4,0.9,3.6-0.8
				c1.1,1.2,0.6,0.2,2,0.1c-0.5-4.1,6,0.6,6,2.4c1.8-0.7-5.5,4.1-1.5,4.3c2.1,1.1,1.6-0.7,2.6-0.7c0.3,0,0.7,0.2,1.4,0.7
				c1.3-1,1.4-4.1-0.6-2.1c0,0.5,0,0.7-0.1,0.6c-0.2-0.2-0.4-1.5,0.2-2.2c1.4,1,4,0,4.8,2.1c0.8,1.1,2.4-2.9,3.9-1
				c3.5,0,1.9-4,5.1-4.9c5,1.4,3.8,19.2,8.1,10c0.9-0.6,0.1,1.8,1.2,1.4c0.7-0.2-0.4-1.7,1.4-1.3c-0.3,1.5,4.6-0.6,1.9,3.3
				c3.5,2,8.8-4.4,13.8,1.5c0.5,1,0.5,2.3,1.5,3c-1.2,4.4-7,12.7,3.3,11.6c0.7,1.1,0.6,0.7-0.2,1.2c-2.2,3.2,1.8,4.5-0.8,8.5
				c-3.2,0.8-0.2,0.7-1.4,2.1c0.6,0.7-3.3,6.9-5.7,9.7c-15.2,9.2-17.3,2.1-21.6,22.7c-1-0.4-0.5-1.5-0.9-0.7
				c-3.3,1.4-4.5-3.7-8.4,0.2c-2.2-4.2-4.2-7.5-7.8-10.6c-4.4,1.6-11.6-5.5-13.8-8c2.2-0.9-1.7-1.2,2.4-3.1c1.3-2.3-5.9-3.7-5.9-1.8
				c-2.6,0.3,1.4,0.7-0.4,2.7c-3.8,0.6-1.2-3.9-3.8-4.3c0.2,4-1-0.2-2.7,1.7c-2.4,0.9,1.9,1.4,0.5,3.3c-2.7,2.6-2.1,2.5,0.2,4.7
				c-3.9-0.4-5.7,0.8-8.2-0.1c-3.8-1.5-5.2,2.1-8.2-1.6c-0.5-0.7-1.3,0-0.9,0.7c-1.2,2.5-6.9-2.6-7.2-0.4c-0.4,0.5-1.1-1.3-0.2-0.9
				c0.4,0.1-4.8-6.7-2.5-7.3c3.3-2.1-0.5-0.8,0.8-4.4c3,0.1,0.7-3.5,3-4.9c-1.3-2.4,0.1-2.4-2.6-3.5c-1.7,0.6-2.9-0.1-3.3-0.9
				c-1.4-0.2,0.1,0,0.2,1c-1.9-0.2-3.7,2.8-4.9,0.2c-0.7,1.8-3.1-1.6-3.8,0.3c-0.7,0.4-3.3,0.1-2-0.8c-2.2-3.8-8.6,8.3-10.1,5.7
				c-2.4-5.1-8.6,2.6-9.3-1.8c-0.3-0.1-0.5-0.1-0.6-0.1c1.3-6.2-0.4-7.7-7.4-5.1c-3.8-1.7-11.4,2.2-12.9,4.4c3.4,1.6,1.5,7.4,4,7
				c0.3,0.4-2.7,3.7-3.5,3.4c-11.1-0.3-1.1,4-6.7,3.8c-3.8,1.4-0.4,13.2,4.8,10.4c-1.4-0.7,2.3-3,2.4-0.8c1.6,3.4-0.8,4.6-2,6.8
				c0.7,1.3,1.7,0.7,1-0.3c1.6-1.2,2.1,6.1,0.6,7.7c-4.2,2.8-3.2,7.7-4.1,10.8c-3.1-2.3-1.8,2.8-3.2,2.3c-1.7-0.3-2.3,2.2-3.2,2.2
				c-2.9-2.6-3.1,2.1-6.6,1.1c-1.3,0.4-0.2-1.2-1.7-0.7c-0.9,3-5.3-3-8.9-2.3c-2.3-0.1-8-6.4-7.6-6.9c3.1-3.5-1.7-5.7-2.4-9
				c0.9-2.6-2.8,0.2-2.2-1.2c0.9,0,0.3-1.7-0.4-1.1c0.9-0.8,0,0.1-0.5-1.1c-0.3,1.1-0.2,0-0.5-0.4c-1.8,0.1-0.3-0.5-2.5-1.1
				C141.9,279.9,141.9,277.9,137.3,279.9z"/>
			<path class="st0" d="M158.1,297.6c-10.5,7.2-8.1,18.4-24,16.4c-2.5,4,7.5,14.6,10.7,11.4c-1.1,3.5,3.8,8.4-1.5,10.5
				c-3.9-0.7-2.5,4.5-4.7,6.5c-2.5,1.8-3.5-1.4-6.5,5.1c-1.3,8-5.1,10-8.3,16.6l-0.7,0.3c-2.2-1.2-3.8-2.9-5-4.6
				c1.1-0.7-1.2-3.1-1.5-1.3c-0.1-0.9-1.9-4.6-3.3-3.1c0.2-12.3-3-0.6-3.7-7.4c5.1-10,8.4-13.7,9.4-25.9c0-1.2,0.6-3.8-1-2.1
				c-1.7,1.1-5.9-0.6-7.3,1.9c-5.5-2.6-7.3,6.6-13.2,0.1c-3.5,1.3-3.5-0.6-4.5-2.4c-0.3-2.3,4.2-2.2,2.6-3.9c0.4-1.3-2.9,0-2.3-1.1
				c-1.4-1.2,0.5-0.9,0.1-1.6c-0.9-2.3-1.8-3.5,0.8-4.2c5.6-8.8-8.3-0.2-0.5-12c-1.7-9.4,21.2-20.5,13.2-30.4
				c-5.2-1.9,5.7-13.9,8.7-11.2c3.5,1.4-0.9-6.3,5.4-1.6c0.9,0,1.6-0.2,2.1-0.6l0.1,0.2c0.1,0.2,1.5,1.5,2.1,0.4
				c2.5-0.5-0.4,4.3,4.8,1.7c4.8,2.1-7.2,10.4-4,6.6c-1.4-1-3.8,3.2-5.6,4.6c0.6-0.3,2.8,0.4,1.7,1.4c-2,0.4,2.1,0.5-0.1,1.6
				c-1.7-1.4-0.5,1.5,0.8,1c0.4-1.1,0.1,1.1,0.4,0.5c2-1.8,1.1,1.1,2.1,1.4c0.9,0.2-1.5,0.4-0.6,1.2c1.4-0.1,1.7-1.4,3.5-1.1
				c-2.1,4.4-0.3,2.7,0.1,5.1c1.1,2.4,5.3-0.2,5.2,1.5c1.9-0.9,0.5,1.9,3.5,1.1c4.7-2,4.7,0,4.8-3.1c2.3,0.6,0.8,1.2,2.5,1.1
				c0.3,0.4,0.2,1.5,0.5,0.4c0.5,1.2,1.3,0.4,0.5,1.1c0.6-0.6,1.3,1.1,0.4,1.1c-0.6,1.5,3.1-1.3,2.2,1.2c0.7,3.2,5.4,5.4,2.4,9
				C150.1,291.3,155.8,297.6,158.1,297.6z"/>
		</g>
		<g>
			<path class="st4" d="M219.2,86.7L219.2,86.7c-2.4,5.7-1.6-5.4-3,1.6c-4.8,6.7-2.6,1.1-0.9,7.1c-0.5,1.5,6.6-2.4,2.2-2.7
				c0-0.8,2-2.2,2.8-2.2c0.4,0,0.4,0.3-0.3,1.3c1.2,1.5,1.3,1,0.4,2.6c-1.9,7.9-9.5,5.2-16.4,8.6c0.1,1.5-2,1.4-2.4,0.5
				c1.7-6-12.9-1.1-13.1,1.1c-9,7.6-14.6-0.5-22.2,4.1c-4.5,0.8-3.6-7.6-8.5-3.3c-6.6,1.7,2.3,14.8-6.3,12.9
				c-11.4,2.6-29.8,11.1-24.6,25.4c0.4,11.8,1.5,3.7,4.9,5.7c-1.5,6.6,0.9,0.2,1.8,6.4c3.8-5,3.4,1.9,3,4.2c1.6,2.4,3.4,2,6.3,0.9
				c0.6,1.3,0.7,2.8,2.4,0.7c-0.3,2.6,0,4.9,0.1,7.1c0.1,3.1-0.1,6-2.5,8.9c2.5,17.8-11.5,12.4,7.2,21.2c5.7,2-3.4,5.5-0.9,6.8
				c1.6,0.5,1.6,2.8,2.7,3.2c0.9,1.2,3.6-0.4,3.6,1.9c0.8,1.2-1.1,1.6-0.4,2.5c1.7,1.1,0.2,1-0.4,2c-0.6-0.3-1.2,0.1-0.2,0.3
				c-0.2,0.9,0.6,0.4,0.7,1.6c-1.2,1.5-3.7,4.3-5.3,3.6c-0.1,4.1-2,3.8-5.2,5c-5.3,10.3-5.3,6-13.3,8.8c-5-0.2,12.1,16.8-2.4,13.4
				c-4.6-0.3,0.7,3.2-2.5,2.7c-2-0.6-2.2,1.3-3.6,2.2c-0.5,0.3-1.1,0.6-2.1,0.6c-6.3-4.7-1.9,3-5.4,1.6c-3-2.7-13.9,9.4-8.7,11.2
				c8.1,9.9-14.8,21-13.2,30.4c-7.9,11.8,6.1,3.2,0.5,12c-2.6,0.7-1.8,1.8-0.8,4.2c0.4,0.7-1.5,0.4-0.1,1.6
				c-0.7,1.1,2.7-0.2,2.3,1.1c1.6,1.7-2.9,1.6-2.6,3.9c1,1.9,1,3.7,4.5,2.4c5.9,6.5,7.7-2.7,13.2-0.1c1.4-2.5,5.5-0.9,7.3-1.9
				c1.6-1.7,1,0.9,1,2.1c-1.1,12.2-4.4,16-9.4,25.9c0.7,6.8,3.9-4.8,3.7,7.4c1.5-1.5,3.3,2.2,3.3,3.1c0.4-1.9,2.6,0.6,1.5,1.3
				c1.2,1.7,2.8,3.4,5,4.6c0.3,0.2,0.6,0.3,1,0.5c-6.2,9.6-11.5,25.4-2.2,35.2c12.5,0.5,7.9,3.7,18,4.9c3.9,0.2-1.9,7.5-1.6,10.2
				c0.9,0.7,5.1-1.6,2.5,1c-1.9,3.5,0.4,6.9-3.6,7.3c-4.1,2.8-1.8,6.1-1.9,9.8c-3,5.3-7.3,10-9.3,15.5c3.5,3.5,8.1-6.1,11.3-0.4
				c3,0.9,9-7.3,11.6-3.7c0.1,1.8,3.7-1.6,3.4,1c0.7,0.9,1.5,1.4-0.2,2.4c5.6,3.9-8.4,5.2-10.6,8c3,1.3-0.5,2.5-1.9,3.1
				c-3.7-4.5-8.9,6.2-6.1,7.9c1.1,0.4,0,1.6-0.2,2.1c3.5,8.9-6.1,12.3-5.7,20.7c-10.7,7,2.7,17.8,2.6,23.4c0.4,2.9-0.9,2.7-2.7,3.2
				c0.2,1.9-2.8,3.8-0.6,2.9c1.1-0.5-1.3,1.1,0.5,1.5c-3.8,5.8-1,3.1,3.4,4.3c2.6,3.3-5.6,2.3,2.7,6.3c0.6-1,1.8-1,2.1,0.1
				c-4.7,2.2,0.2-0.1,0.5,3.5c-6,4.4,4.5,3-2.1,4.9c-1.2,1.7-0.5,7,1.8,4.5c0.4-3.2,3.7-0.9,6-3.8c2.5-1.7,4.8-2,6.5-1.1
				c2-1.9,2.2-1,2.8,0.9c4,0.1,6.7,0,9.2,0.9c-0.5-9.4,3.5-1.9,9.2-3.8c3-0.4,3.9-8.7,6.4-5.5c1.5,1.2,2.3,0.1,3.9-0.5
				c0.2-5.2,4.2-2.4,6.9-2c0,0.3-0.1,0.5-0.1,0.6c-0.1,0.2-0.2-0.1-0.5,0.2c-0.2,0.6,0,2,0.7,1.2c-0.1-0.8-0.1-1.2,0-1.4
				c0.3-0.3,1.2,0.7,1.9,1.2c-1.8,3.8,7.4,8.7,8.5,6.6c1.4,1.4,3.1,0.7,3.1,3.9c4.3-0.4-0.3,7.5,2.3,5.3c0,0.1,0,0.5,0,0.3
				c0.2-1,0.3,0.7-0.2,0.1c-0.2-0.1-0.4,0.5-0.3,0.4c0.5-0.9,0.3,0.4-0.2,0c-0.9,0.4-0.7,0-1.3-0.4c-0.4-0.9-1.4,1.8-2,0.9
				c-2.3,0.8,0.8,2.9-2.1,2.8c-1.8,1.1,1.7,0.8,0,2.4c4.7,0.7,7.5,5.5,1.5,7c-5.1-0.5-2.2,5-8.9,3.1c-4.2-1.8-5.7,2.5-7.7,6.3
				c-0.6-1.4-1.8-0.3-1.3,1c-0.9,2.3-4.4-1-5.4,1.7c1.7,2.6-3.9,1.6-3.5,2.9c2.2,1.9-3.3,0.1-2.1,2.4c-0.1,0.9,0.1,1.6,0.4,2.7
				c-2.8,0.1,1.1,1.4,0.2,3.4c-2.3,3.8-8.1,8.2-5.8,12.2c-0.1,3.7-5.6,2.8-6.4,5.8c1,2.1-3,1.5-4.3,1.4c-5.2,2-6.5-1.1-5,4.1
				c0.1,0.3,0.2,0.6,0.3,0.9"/>
			<path class="st4" d="M549.8,176.1c-0.3-1.5,1.5-0.7,0.8-1.8c0.1,1.1-0.5-0.7-0.2-0.7c0.1,0.9,0.6-0.2-0.6-0.6
				c1.2-0.5,0.1-0.8-0.4-1.6c2-0.8-0.8-1.2-0.4-2.7c-0.2-0.3-0.5-2.6-0.9-3.5c-1.9-2.7-8.5-0.4-7-4.5c-4.4-16.2-6.4-3.2-9.9-7.9
				c2.2-1.2,4.3-3.8,0.4-4.1c-2.5-5.2-4.9-1.7-6.9-4c0.2-7.3-3.7,4.8-2.1-2.3c-3.4,3.8-1.6-9-6-8.3c-1.8-1,0.1-2.5,0.9-2.9
				c-2.3-1.8-0.9-1-1-3.5c0.3-3.5-2.6-0.7-0.6-4.6c2.3-7.4,5.8,2.8,3.8-10.4c-1.9-1.8,10.4,1.5,8.8-0.7c0.7-0.1,0.2-1,1.1-0.8
				c0.2-0.9-2-1.5-0.7-2c1.2-0.6,0.9-2,2.1-2.5c2.9-0.8,0.6-4.6-0.1-6c-0.1-2.8-6.8-0.9-6-5c2.6-1.9-3.1-2.8,1.3-5.5
				c-10.3-12.4-14.8-7.2-25.2-6.8c-1.1-0.8-3.5-1-5.6-2c-0.4-2.3-5.2,3.2-4.1,0.6c0.8-0.9-1.2-1.2-0.7,0.5c-1.9,0.8-0.7-1.1-3.1,1.1
				c-1.1-0.4-2-0.4-2.9-0.4c-1.6,0-2.6-0.1-2.3-3.9c-4.1-5.4-7.5,1.6-13.3-0.1c-4.3-3.7,2-9.8-6.7-8.2c1.3-4.5-3.8,0.4-1.7-4.9
				c0.8-4.3-2.8-5.5-4.1-9.3c0.9-3.8,2.6-11.2-4.3-2c-5.3-3.1,1.5-6-7.5-2.5c1.4,2.7-1.3,1-2,0.3c-5.8-3.1,5.8-6.7-5.9-10.8
				C424.3,44.6,434,48.3,425,52c-2.6,2.2,3.9,4.2,5.4,5.8c-6.6,7,2.2,5.2-4.6,9.7c0,0-0.1,0-0.1,0c-7.4,1.6-8.7,1.2-11.7,4.9
				c-7.6,0.2-15.2,16.8-18.8,5.8c-1.8-1.3,0.8,1.9-2.5,0.7c-0.5-0.1-1.8,6.1-2.3,1c-1.3-1-2.4-1.8-3.2-2.5c-7.6-6.7,2.7-5.6-1.1-8.9
				c-4.8-0.6,5.6-8.6,8-12.1c1.4-2.2,2,2.5,3.9-0.3c0.8,0.4,0.5-0.2,0.5-0.7c0.3-0.2,0.3-1,0.7-1c3.6,0.3,0-2,1.6-2.2
				c4.3-4,9.7-10.6,5.4-15.2c-3.8-1.8-5.8,5-5.3-2.2c0.9-4.2-2,2-3.6-1.2c0.6-1.9-2.6-6-5.2-5.1c-21.3-12-9.4,19.5-24.8,16.8
				c-8,1.9-19.2,19.1-24.4,8.2c-12.7-4.2-18.4,16.2-31.5,10.5c-8.8-1.3-13.5-13.2-22.3-12.3c-9.3,1.3-20.9,0.1-17.1,9.6
				c-4.1,7.6-10.8,10.8-18.4,14.7c-4.7-0.4,1.3-4.2-2.9-4.1c-4.8,3.7-12.1-3.9-13.6-1.7c-1.7,3.9,6.6,0,0.7,8.7
				c0.7,0.2,7.9-1.4,4.8,0.7c-1.7,0.1-0.6,1-1.4,1.3c-0.4,5.6,2.8,9.7-4.9,6.2c-3.9,0.3,2.2-3.9-1.7-4.4c-3,1.7-5.8,1.2-8.1-1.4
				c-0.4,0.8-8,3.6-3.9,5.2c2.7,0.5-0.2,3.2-2,3.1c-0.9-0.1-1.6-0.8-1.2-2.8"/>
			<path class="st4" d="M552.8,197.8c0,0,0.1,0.3,0.1,0.1c0.2,0.5-0.1-0.4,0.2,0c0.8,0.2,0.4-0.4,0.9-0.3c0.5,0.6,1.3-3-0.6-1.2
				c0.2-0.5-1.6-2.9-0.2-3.4c-4.3-0.9,1.4-5.1-1.4-5.2c0.6-2.8,2.7-1.7,0.8-5.2c1-0.9,1.6-4.7-0.4-4c-0.3,0,0.4-0.4,0-0.3
				c-0.5,0,0.2-0.2,0-0.4c-0.8-0.1,0.2-0.6,0.1-0.6c-1-1-2.5-1.1-2.6-1.2c0,0,0,0,0,0"/>
			<path class="st4" d="M557.7,200.2c-0.1,0-0.1,0-0.2-0.1c-0.6-0.2-1.4-0.2-1.5,0.3c0,1-1.5-2-1.9-1.4c-0.6-0.6-0.6,0.3-1.3-0.3
				c-1.1,0.6-0.8-1.7-0.1-0.7c0-0.1,0-0.2,0-0.2c0,0,0,0,0,0"/>
			<path class="st4" d="M557.7,200.2c0.1,0.2,0.3,0.5,0.3,0.1C558,200.3,557.9,200.2,557.7,200.2z"/>
			<path class="st4" d="M302,587c-0.4,0-1.4-0.9-0.7-0.7c3.9,2.6,0.7-7.7,6.1-4c1.9,2,1.7,1.1,1.2,3.5c9.2-0.3-1.2-4.7,2.8-7.6
				c-6.4-8.1,5.8,1.3,2.6-3.7c-9.9-7.8,2.6-3.8,0.2-10.3c-0.8-1.2-5.9-3.4-3.6-5.4c1.6-0.5,0-1.5,0-2.6c-4.4,0.1-1.4-3.3-2.4-6
				c0-1,1.3-0.9,1.2-1.8c1.9,2.3,3-1.9,5.1-1.2c5-3.7-0.4-6.5,6.8-6.4c2.2-3,1-4.6-0.3-5.6c2.2-0.1-0.6-2.5,0.4-3.3
				c2.9-2.7-1.5-2.7,2.6-4.2c-0.7-4-0.7-4.8-1.7-7.3c1-0.6,0.8-2.9,1.6-2.1c3.1-0.1,0-3.5,2.1-4.1c5-0.6-2.6-8.2,0.8-8.6
				c3-2.5,0.4-1.1,0.8-4.8c1.4,0.2-1.1-0.9-0.3-1.1c0-2.6,0.7,0.2,1-1c-0.6-2.8,1.2,0.2,2-0.5c2.3,0.9,4.7-12.7,7.4-5.1
				c5.6-4.5-10-10.1-0.5-13.9c7.4-5.4,8.3-0.1,18-8.8c2.6,1.6,0.4-4.5,3.1-7.6c0.9,0.9,1.6-1.5,1.2-0.1c0.6,0.9,0.5-0.9,0.5-1.3
				c1.2-0.3,1.9-2.2,2.6-2.6c9.4-5.4,5.4-11.6-1-10.1c-2.3,1.6-2.4-1-1.9-2.7c0.4-0.9-1.5-0.8,0.1-1.1c-0.6-1.8-0.7,0.6-1.6-0.9
				c1.9,1.4-0.8-5.7,3.4-8c2.1-1-1.7-1.1,0-1.5c3.2-1,2.7-5,7-6.5c3,0.3-1.8-0.4,2.3-4.2c0-2.4,5.2,0.2,4.2,2.9
				c-2.2,1.5,7.6,0.5,4.3-4c-0.3-3.6,7.8-8.4,0.7-7.2c-0.5-1.2-2.2-0.1-0.8-1.5c-2.8-0.8,0-0.7-0.6-2.2c-1.1,0.4-1.2-2-2.6-2.8
				c-1.3-0.8-1.9-1.7-2.1-2.8c-0.7-4,5-9-1.6-10.9c-3.2-4-1.7-6.6,2.9-9.6c-5-10.9,4.9-13.7,9.5-22c9-6.4,6.2,0.1,16.2-6
				c2.6,4.1,5.2-3.7,8.7-1.2c1.9,3.7,2.6-3,5-3c2.9-3.3,9.2-2.6,6.4-8.6c4.8-8.7,16.9-12.2,9-19.5c-4.6,0.3-3.6-4.6-3-7.2
				c4.8-4.7-0.6-12.3-1.5-17.4c-1.1-4.9-6,7.5-7.1-5.7c0.3-0.8-1.8-2.1-0.6-3.1c3.8-7.8,4.5-1.3,9.3,0.2c-1.7-9.5,1.1-5.5,8.2-5.7
				c0.7-5.3,8.2-2.6,7.9-8.9c4.1,1.5,3.3-8.5,0.5-8.6c-0.2-0.1-0.3-0.2-0.3-0.3c-0.2-0.5,0.3-1.5,0.3-2.1c-0.7-0.9,3.2,0.5,2.4-1.5
				c3.7-5.1,1.5,4.6,4.5,2.3c0.8-4.4,7.5-3.1,8.6-7.7c0,0,0.1-0.1,0.1-0.1c3.3-2.5,1.2,2.5,5.8-2.5c0.1-4.3,3.4-2.2,5.1-0.9
				c-0.2,7.4,3.6-2.9,2.3,5.6c2.3,7.6,9.1,6.3,14.2,11.9c5.1-1.8,4.2-8.5,6.5-11c3.8-5.5,9.2-2.9,13.1-7.6c4,3.3,4-2.7,7.7-0.8
				c1-1.8,2.3,0.5,3.6,0.1c5.5,5.3,1.1-4.7,6.8-3.9c-2.9-8.7,8.4-0.7,10.9-6.5c2.2,1.2,3.5-1.2,6.3-1.5c1.6-0.8,4.9,2.1,4.5-1.6
				c0.6-2.3,1-3,0.5-5.4c6.7-3.5-10.1-6.2-1.5-9c7.7-8.7,18.6-5.7,8.6-17.9c-0.8,0.5,1-1.7,1.8-1.5c0.3,0.1-0.1-0.3-0.2-0.4
				c-0.7,0.9,0.4-0.7,0.4-0.9c0.8-1.6,0.8-3.5,1.2-3.5c-0.3-1,1.4-0.2,1.1-1.2c-0.6,0.1,0-0.3-0.9-0.8c0-0.1,0-0.1,0-0.2
				c0-0.2,0.1-0.1,0.2,0.1"/>
			<path class="st4" d="M302,587c0,0,0.1,0,0.1,0C302.1,587,302.1,587,302,587z"/>
			<path class="st4" d="M148.6,608.4L148.6,608.4c0.2-0.9,0-1.1-0.3-0.9c-0.5,0.3-1.2,1.9,0.3,1.5c2-2.4,3.3,1.8,5.4,0.3
				c6.6-0.3,2.7,8.7,10.4,6.9c0.1,1.3,0.4-0.6-0.1-0.9c2-1-0.2,0.8,1.1,0.5c0.3-0.2,2,0.6,1.7,1.6c0.2,1.1,1.6-0.4,1.3,0.7
				c-0.7,4.2,0.9,1.9,1.5,4.1c-0.5,2.6,0.3,1.8,1.9,3.2c3.1-0.6,7-5.3,10.1-7.1c6.7,6.1,5.5-2.5,10.2-1.3c3.9-4.8,4.8,8.8,7.4,2.3
				c4-1.9-1-5.7,3.2-7.2c4.5,1.9,6.5,2.3,10.4,2c-0.4,1-0.1,4.2,1.3,3.5c5-2.1,0.6-14.6,7.4-9.2c3.9-4.6,6.8,0.1,9.3-4.1
				c-1.3-0.5,1.6-1.4,0.4-1.5c0.4-0.9,0,0.2,0.8,0.4c2.6-1,2.9,3.6,4.7,3.6c0.5-0.6,1.6,1.3,1.8-0.5c-1.2-0.1,4.2-3.5,6.4-2
				c-0.2-1.7-0.7,1.1-1.2-2.1c0.9,0.2,0.5,0.4,1.4-0.3c1.8-0.9,4.1-1.6,6.1-1.7c1.3-6.1,7.5-0.2,9.7-1c3.8-13.4,18.7,4.9,20,12.6
				c15.8-2.7,5.8,15.7,20.4,5.2c0.6-0.3,0.1,0,0.4,0.3c0.7-0.3,0.7,0.4,1,0.2c0.8,1.5,0.3-0.4,1-0.1c2.5,0.3,4.6,1.6,2.6-2
				c-3.9-2.8-4-6.8-7.5-8.8c3.4-0.2,6.6-3.9,2.5-3.4c-1.5-0.4-3.1-3.5-2.6-5.3c1.9-2.3,0.5-5.5,1.8-8.8c2.7,1-0.7-1.4,1.2-2.1"/>
			<path class="st4" d="M231.4,243.7c1.2,2.6,3-0.4,4.9-0.2c-0.1-1-1.6-1.3-0.2-1c0.4,0.8,1.6,1.5,3.3,0.9c2.8,1.1,1.3,1.1,2.6,3.5"
				/>
			<path class="st4" d="M291.6,148.8L291.6,148.8c0.7,1.5-3.9,2.1-0.5,2.8c6.6,3.5,3.4-4.6,8,3.7"/>
			<path class="st4" d="M271.8,143.2c5.4-4.6,9.5,6.2,10,4c-0.9-0.1,0.6-0.3,0.6-0.1c3.3-0.2-1.3,0.4,1.1,0.7c1.8-0.2,2.2,0.3,3,2
				c1.4-0.3,4.2,0.1,5-0.9"/>
			<path class="st4" d="M350.2,157.9c-15.5,0.4,1.9,7.9,2.5,14"/>
			<path class="st4" d="M357.2,170.2C357.2,170.2,357.2,170.2,357.2,170.2c0,0.1,0,0.1,0.1,0.3c0.3,1.4,0.5-0.1,1,0.4
				c-0.4,0.7-0.1,1,0.4,1.6c8.3,3.6,5.8,17.8,16.7,26.7"/>
			<path class="st4" d="M352.8,171.9c4.3-3.6,2.5,0.9,4.3-0.3c0.3-0.1,0.1-1.1,0.1-1.3c0,0,0,0,0,0c0,0,0,0,0,0"/>
			<path class="st4" d="M425.7,67.5c0.1,4.6-2.5,5.8-5.2,9.2c0.6,7.1,1.2,16.8,3.1,22c-0.4,1.8,0.3,2.7-2,5
				c-2.6,1.7,4.4,2.6,2.6,6.1"/>
			<path class="st4" d="M413.8,156.1c1.3,1.3,1.1,0.9,2.4,2.6c0,0,1.2-1.6,0.8-0.1c-0.1,1.2,1.4,0,0.8,0.8c0.8,0.3,0.4,0.6,0.7,1.1
				c-1.1,0,1.9,0.9,1.9,1.6c0.4,1.6-0.2,0.6,1.3,2.3c0,2,1.2-1.3,3-0.2c0.7,2,5.5,0.2,3.8,3.4c0.9,0.2,1.5-1.2,1.3-1.1
				c0.5-0.9,1.4-1.5,1,0.2c-1.5,0.9,0.3,0,0,0.4c-0.1,0.4,0.5,0.7,0.7,1c3-1.8,1.1,2.9,3.7,3.8c1-0.5,3.3-0.7,4.6-0.4
				c-1.5,0.4,0.5-0.1,0.4,0.8c0.1,0.1-0.4,2.1,0.8,2"/>
			<path class="st4" d="M134,314c-2.5,4,7.5,14.6,10.7,11.4c-1.1,3.5,3.8,8.4-1.5,10.5"/>
			<path class="st4" d="M123.2,252.9c0.1,0.2,1.5,1.5,2.1,0.4c2.5-0.5-0.4,4.3,4.8,1.7c4.8,2.1-7.2,10.4-4,6.6
				c-1.4-1-3.8,3.2-5.6,4.6c0.6-0.3,2.8,0.4,1.7,1.4c-2,0.4,2.1,0.5-0.1,1.6c-1.7-1.4-0.5,1.5,0.8,1c0.4-1.1,0.1,1.1,0.4,0.5
				c2-1.8,1.1,1.1,2.1,1.4c0.9,0.2-1.5,0.4-0.6,1.2c1.4-0.1,1.7-1.4,3.5-1.1c-2.1,4.4-0.3,2.7,0.1,5.1c1.1,2.4,5.3-0.2,5.2,1.5
				c1.9-0.9,0.5,1.9,3.5,1.1"/>
			<path class="st4" d="M137.3,279.9c4.7-2,4.7,0,4.8-3.1c2.3,0.6,0.8,1.2,2.5,1.1c0.3,0.4,0.2,1.5,0.5,0.4c0.5,1.2,1.3,0.4,0.5,1.1
				c0.6-0.6,1.3,1.1,0.4,1.1c-0.6,1.5,3.1-1.3,2.2,1.2c0.7,3.2,5.4,5.4,2.4,9c-0.4,0.6,5.3,6.9,7.6,6.9"/>
			<path class="st4" d="M267.4,136.5c3.9,1.2,0.1,1.6,1.1,2.9c1.4,1.7,3.2,1.1,3.2,3.7"/>
			<path class="st4" d="M273.7,160.8c0,5.4-2.7,5.8-5.1,8.4c1.8,11.4,14.9-6.9,9.6,14.6c1,2-1.6,2.3-1.9,3.7"/>
			<path class="st4" d="M145.9,168.6c2.7-2.3,5.8-9.3,7.6-3.1c3.3-3,8.7,14.8,12.8,9.5c5.3,2.9,4.2-2.1,6.6,0.6
				c4.7,2.4,1.4,0,2.8-2.6c14.1-11.7,7.6,7.5,25.6,4.8"/>
			<path class="st4" d="M276.2,187.5c0.6,1.2,1.7,2.8,3.8,1.1"/>
			<path class="st4" d="M304.6,208c5,1.4,3.8,19.2,8.1,10c0.9-0.6,0.1,1.8,1.2,1.4c0.7-0.2-0.4-1.7,1.4-1.3
				c-0.3,1.5,4.6-0.6,1.9,3.3c3.5,2,8.8-4.4,13.8,1.5"/>
			<path class="st4" d="M375.3,199.1c3.2-1.2,2.5,4.8,2.8,5.8c-1.9,0.2,2.5,2.7,0.1,1.9c-0.9,1.1-3.2,2.2-1.6,3.9
				c3.6-1,7,1,11.1,0.4c6.9-2.9,2.3-5.8,9.1,3.7"/>
			<path class="st4" d="M343.7,234.3c0,0,0-0.1,0-0.2c0.2-0.8,1.2-4.6,3-4.4c2.3-0.3,1.4-1.2,3.1-1.6c2.7,2.1,1.3-2.3,2-3.2
				c0.7,2.1,4.6,0.6,3.8,4.8"/>
			<path class="st4" d="M332.6,226.1c1.5,0.4,12.4,12.1,11.2,8c0,0,0,0,0,0c0,0.1,0,0.2,0,0.2c0,0,0,0,0,0c0,0,0,0,0,0"/>
			<path class="st4" d="M410.2,241.6c1.6,0.2,0,3.4,1.6,3c0.8,0.5-0.6,2.6-0.5,2.8c2.5,0,2.3-2.1,4.1,2.1c7,7.6,7.2,6.4,2.7,15.7"/>
			<path class="st4" d="M296.8,281.3c3.9-3.9,5.1,1.2,8.4-0.2c0.3-0.7-0.1,0.3,0.9,0.7"/>
			<path class="st4" d="M324.8,345.6c14.9-5.5,6.6,13.2,14.7,8.3"/>
			<path class="st4" d="M273.1,393.6c11-4.3-2.1,7,11.1,2.5c5-2.1,5.3,4.5,8.8-1.5"/>
			<path class="st4" d="M440.1,184.6c7.9,6.4,9.7,17.2,6.9,24.9c4.5,3.8-1.7,4.9-3.2,9.4c-7.1,0.3,5.8,4.6,0.5,10
				c-1.4,9.8-2.2,4.9,3.8,8.3c3.2,2.8,11.3-0.3,13.2,8.2"/>
			<path class="st4" d="M371.2,76.9c-5.7,8.9,3.4,2.6,1.3,10.1c-1.9,4.8,3.3,5-0.6,6.9c-1.6,3.5,1.1,3.3,1.4,5.2
				c3.9,6.4-2.5,4.5,2.8,12.5c7,8,8.3,7.5-2,15.1c-9.4-2.2-8.7,6.1-14,11.2"/>
			<path class="st4" d="M181.8,295.1c-0.4,7.8,3.5,1.8,6.1,4.9c8,7.9,4.2-8,13.7-3.7"/>
			<path class="st4" d="M283,303.7c6.5,14.7,17.9,0,8.6,17.9c3.5,15.8-5.5,4.6-4.8,15.4c1.5,2.1-0.2,2.8,2.8,1.9
				c0.6,3,1.7,6.6,4.2,8.1c2.2,4.4,7.6-1.8,10.9,1.3c2.8,6,3.4,4.3,4.1,10.7c1.2,1.6,3,0.1,2.3,1.2c-0.4,2.9,4.1,0.1,4.8,3.2"/>
			<path class="st4" d="M265.4,265.9c-2.2-2.2-2.9-2.1-0.2-4.7c1.4-1.9-2.9-2.4-0.5-3.3c1.7-1.9,2.9,2.3,2.7-1.7
				c2.6,0.4,0.1,4.9,3.8,4.3c1.9-2-2.2-2.4,0.4-2.7c0-1.8,7.2-0.5,5.9,1.8c-4.1,1.9-0.2,2.2-2.4,3.1c2.2,2.5,9.4,9.6,13.8,8"/>
			<path class="st4" d="M208.9,294.3c0.9,1.9,0.8,2.5,2.5,1.9c-0.4,0.8,1.3,0,0.7,0.9c-0.2,0.3,2.2-0.9,2.7-0.8
				c-0.2,0.8,0,0.1,0.3-0.1"/>
			<path class="st4" d="M123.8,364c3.2-6.6,7-8.5,8.3-16.6c3-6.5,4-3.3,6.5-5.1c2.2-1.9,0.8-7.2,4.7-6.5"/>
			<path class="st4" d="M386.6,77.8c-0.7,0.6-0.4,0.3-1.1,0.2c-2.2-2.9-1.5,2.7-2.4,2.2c-5.1,1.8-5.7-1.1-11.9-3.3"/>
			<path class="st4" d="M484.7,83.6c-2.5,4-3,1.7-5.6,2.4c-1.2,5.3-2.6,0.4-3,2.4c-0.2,1.1-0.6-0.6-0.8,0.1c-1.4,1.3,0.5,0,0.5,0.6
				c-1.8,6.3-1.9,1.1-3.7,1.8c-0.1,3-0.2,2.6-2.9,4c-1.1,4.7-2.6-1.8-3.2,1.8c0.6,7-3.7-1.1-2,9.2c-0.9,1.8-7.6,2.8-5.3,5.3
				c4.3,5.4-5.5,4.3-5.8,11.7"/>
			<path class="st4" d="M459.6,259.5c-2.8-3.1,4.5-9.2,1.6-14"/>
			<path class="st4" d="M443.6,268.6c-3-4.7-5.8-4.6-8.6-4.5c-1.1,1.8-1.3-1.3-2.3-1c-1.8,3-2.6-1.6-4-1.1c-3.4,8.3-2-1.8-3.8,2.9
				c-4.1,3.7-3.3,5.6-6.8,0.3"/>
			<path class="st4" d="M373.3,406.4c-4.3,4.8-5.5-7.1-9-2.6c-4.6,6.7-11.6,12.6-19.5,4.2"/>
			<path class="st4" d="M133.2,469.1c7.2-2.6,14.1-6,21.3-5.7c7.2-0.2,9.3-12,17.4-8.6c-0.4,6.9,3.7-6.2,6.4-6.5"/>
			<path class="st4" d="M201.4,177.8c0.3-0.3,0.3-0.6,0.5-1"/>
			<path class="st4" d="M201.9,176.8c6.6-2.2,4.6-7.9,7.7-7.6c1.1,5.9,9.3-2.4,8.8-5.2"/>
			<path class="st4" d="M218.5,164c-2.1-2.3-0.1-6.3,2.9-6.5"/>
			<path class="st4" d="M273.7,160.8c9.3,0.4-5.1-13.8-1.9-17.6"/>
			<path class="st4" d="M299.1,155.3c5.2-1.4,6.9-2.7,5.6-9c6.5,3.3,4.8-5.4,9.1-7.2c-0.6-8.5,5.1-4.1,7.7-6.7
				c2.1,1.4,8.7-2.7,16.8-1.6"/>
			<path class="st4" d="M338.4,130.9c-7,5,2,8.5,5.9,10c0.5,1.8-1.1,5.5,1.9,2.8c4.5,0.2,0.8-6.4,0.7-8.9c2.7-8.6,8.2,5.9,13.2,3.2"
				/>
			<path class="st4" d="M360,138c2.9,7.1-3.4,19.7-9.8,19.9"/>
			<path class="st4" d="M221.3,157.5c0.2-19,28.2-29.3,46.1-21"/>
			<path class="st4" d="M424.2,109.8c-0.9,0.6-1.9,1.6-2.8,0.9c-0.1,1.7-1.4,2.4-1.7,3.3c-0.1,0-1-1-0.9-0.3c-2-1.9,0.3,5,0.4,6
				c-2.4-1.6,1,4.2,0.8,6.1c1.6,1.1,2.8,2.1,4.7,4.6"/>
			<path class="st4" d="M424.7,130.3c0.1,1.2-1.4,0.7-0.3,1.9c0.3,1.2-1.7-0.6-1.6,1.6c-3.2-2.3,0.7,5.3-0.9,5
				c-4.4,2.3,0,2.9-1.5,4.4c-4.2-0.3-1.5,4-3.1,5.7c-1.2,0.5-4.5,3.4-3.5,7.1"/>
			<path class="st4" d="M441.1,174.2c5.2-3.8,9.2-5.8,14.5-6.9"/>
			<path class="st4" d="M455.5,167.3c-0.4-1,0.7-2.9-0.7-2.9c-1.7-1.9,6.6-4,7.6-1.9c4.3-1.3,4.9,4.1,7.3,1.4
				c-2.1-0.8,0.3-4.9,0.1-7.9c1.5-1.9-4.6-2.6-6-8c-6-0.8-0.9-1.8,0.7-2.9c-1.9-3.1-0.8-6,2.6-7.4"/>
			<path class="st4" d="M467.1,137.8c-4.3-3.9,1.1-3.3-3.8-7.3c4.7-11.2-8.6,5.5-10.3-7.7"/>
			<path class="st4" d="M375.3,199.1c-1.4,1.3-0.1,4.2,0.4,5.8c-0.9,5.6-7.2,4.5-5.2,11.8c2.2,0.6-1.8,3-3.1,3.8
				c0.8,6.7-3.7,3.6-8.6,6c-0.2-2.6-0.6,2.1-0.5,0.1c-0.2-1.4-1.2,5.1-2.6,3.1"/>
			<path class="st4" d="M396.9,214.8c0.9,2.5,4.6,5.7,2.2,7.9c-0.8,4.8-3.9-0.1-9.1,1.5c-1.1,3.4-5.2,5.1,1.8,6.1
				c-0.9,1.9-1.8,1.7,0.7,2.6c0.9,2.2,2.3,0.7,4.5-0.4c4.4,2.2-0.7,5.7,1.8,9.2c1.1,1.4,1.2-3.1,3.1-0.4c-0.1,0.7,0.7,0.3,1.1,0.4
				c0.1,2.6,0.1,0.4,0.9,1.2"/>
			<path class="st4" d="M396.9,214.8c2.3-4.8,9.4-1.8,8.6-6.3c-1.1-1.1-1.9-3.3,0.4-3.1c4.7-5.4-3.8-6.3,2.5-9"/>
			<path class="st4" d="M417.5,198.1c0.1-0.7,4.9-4.3,4.7-7.1c-3.3-8.9,7-0.7,9,0.3"/>
			<path class="st4" d="M417.5,198.1C417.5,198.1,417.5,198.1,417.5,198.1C417.5,198.2,417.5,198.1,417.5,198.1z"/>
			<line class="st4" x1="417.5" y1="198.1" x2="417.5" y2="198.1"/>
			<path class="st4" d="M417.3,197.4c-0.1,0,0.1,0.4,0.2,0.7"/>
			<path class="st4" d="M417.3,197.4c0.1,0.1,0.2,0.1,0.3,0.2C417.4,197.5,417.3,197.4,417.3,197.4z"/>
			<path class="st4" d="M413.1,195.6c0,0.1,0.1,0.2,0.1,0.3c0.8-0.8,0.5-2.2,1.1-1.5c-0.3-0.7,0.4,0.4,0.1-0.4
				c0.2,0.1,0.5-0.5,0.4,0.2c1.9,2.9,1.3,2.9,2,3.4c0.2-0.2,0.2-0.3,0.4-0.1"/>
			<path class="st4" d="M413.1,195.6C413.3,195.4,413.1,195.3,413.1,195.6L413.1,195.6z"/>
			<path class="st4" d="M408.6,196.1C408.6,196.1,408.6,196.1,408.6,196.1c0.1,0.2,0.5,1.1,0.2,0.3c0.7-0.1-0.5-1,0.2-0.6
				c0.2,0.2,0,0.7,0.4,0c0,0.3,3.6-1.4,3.5-0.1c0.1,0,0.1-0.1,0.2-0.1"/>
			<path class="st4" d="M408.3,196.4c0.2,0,0.5,0.4,0.3-0.2"/>
			<path class="st4" d="M431.2,191.2c4.8-0.8,7-6.2,8.9-6.7"/>
			<path class="st4" d="M403.9,242.9c4.8,1,3.6,4.2,6.3-1.3"/>
			<path class="st4" d="M280.1,188.7c1.6-1.1,3.5,1.6,0.2,2.4c1.1,3.9-0.1,4.3-0.5,7.1c-0.3,0.3,1.9-0.6,0.7,0.5
				c-4.3,3.1,0.8,8.2-3.2,10.9"/>
			<path class="st4" d="M277.3,209.5c1.3,0.5,2.4,0.9,3.6-0.8c1.1,1.2,0.6,0.2,2,0.1c-0.5-4.1,6,0.6,6,2.4c1.8-0.7-5.5,4.1-1.5,4.3
				c2.1,1.1,1.6-0.7,2.6-0.7c0.3,0,0.7,0.2,1.4,0.7c1.3-1,1.4-4.1-0.6-2.1c0,0.5,0,0.7-0.1,0.6c-0.2-0.2-0.4-1.5,0.2-2.2
				c1.4,1,4,0,4.8,2.1c0.8,1.1,2.4-2.9,3.9-1c3.5,0,1.9-4,5.1-4.9"/>
			<path class="st4" d="M331.1,223.1c0.5,1,0.5,2.3,1.5,3"/>
			<path class="st4" d="M332.6,226.1c-1.2,4.4-7,12.7,3.3,11.6c0.7,1.1,0.6,0.7-0.2,1.2c-2.2,3.2,1.8,4.5-0.8,8.5
				c-3.2,0.8-0.2,0.7-1.4,2.1c0.6,0.7-3.3,6.9-5.7,9.7"/>
			<path class="st4" d="M158.1,297.6c-10.5,7.2-8.1,18.4-24,16.4"/>
			<path class="st4" d="M158.1,297.6c3.6-0.7,8.1,5.3,8.9,2.3c1.6-0.4,0.4,1.2,1.7,0.7c3.5,1,3.7-3.6,6.6-1.1c0.9,0,1.5-2.5,3.2-2.2
				c1.4,0.5,0.2-4.6,3.2-2.3"/>
			<path class="st4" d="M181.8,295.1c0.9-3.1-0.2-8,4.1-10.8c1.5-1.5,1-8.8-0.6-7.7c0.7,0.9-0.3,1.6-1,0.3c1.1-2.2,3.5-3.4,2-6.8
				c-0.1-2.2-3.8,0.1-2.4,0.8c-5.3,2.9-8.6-8.9-4.8-10.4c5.6,0.2-4.4-4.1,6.7-3.8c0.8,0.3,3.8-3,3.5-3.4c-2.5,0.3-0.6-5.4-4-7"/>
			<path class="st4" d="M201.6,296.4c1.6-3.4,1.8,0,4.2-3.8c0.3-1,1.6,1.2,3.1,1.7"/>
			<path class="st4" d="M215.5,248.9c1.5,2.6,7.9-9.5,10.1-5.7c-1.2,1,1.3,1.2,2,0.8c0.6-2,3.1,1.5,3.8-0.3"/>
			<path class="st4" d="M205.5,247.5c0-0.1,0.1-0.3,0.1-0.4c1.3-6.2-0.4-7.7-7.4-5.1c-3.8-1.7-11.4,2.2-12.9,4.4"/>
			<path class="st4" d="M205.5,247.5c0,0.1,0.1,0.2,0,0.2C205.5,247.6,205.5,247.5,205.5,247.5z"/>
			<path class="st4" d="M215.5,248.9c-2.4-5.1-8.6,2.6-9.3-1.8c-0.3-0.1-0.5-0.1-0.6-0.1c-0.2,0.1-0.1,0.3-0.1,0.4"/>
			<path class="st4" d="M242.1,246.9c-2.3,1.3,0.1,5-3,4.9c-1.3,3.6,2.5,2.4-0.8,4.4c-2.3,0.6,2.8,7.3,2.5,7.3
				c-0.9-0.4-0.2,1.4,0.2,0.9c0.2-2.2,5.9,2.9,7.2,0.4c-0.4-0.6,0.5-1.3,0.9-0.7c3,3.8,4.4,0.1,8.2,1.6c2.4,0.9,4.3-0.2,8.2,0.1"/>
			<path class="st4" d="M265.4,265.9c-6.8,1.2-6.2,10.5-15.1,12"/>
			<path class="st4" d="M289,270.7c3.7,3.1,5.6,6.4,7.8,10.6"/>
			<path class="st4" d="M283,303.7c2.7-11.3,8-12.8,13.8-22.4"/>
			<path class="st4" d="M306.1,281.8c4.3-20.6,6.5-13.5,21.6-22.7"/>
			<path class="st4" d="M339.5,353.9c1.6,4.3-1.7,7-3.1,10.9"/>
			<path class="st4" d="M336.4,364.8c1.4,7.5-0.3,12.3-1.2,20.4c-1.7,2.4-3.2,5.3,0.6,5.1c0.7,2.9,3,0.1,4,2.2
				c1.1,1.4,0.1,3.1,2.2,3c1.2-1,1.4,2.6,4.4,0.3c4.3,1-0.8,3.1-2.1,4.4c4.3,2.5,3.5,4.8,0.4,7.6"/>
			<path class="st4" d="M198.9,448.9c1.7,0.2,1-1.7,2.1-2.3c5.2,1.5,10.9-2.7,12.9-0.3c4.6-3.3,10.4-3,13.7,1.2
				c-1,2.1,2.4-1.3,1.1,0.8c6.2,6.4,10.4-1.4,2-3.2c0.9-2.4,2.8-4.6,4.5-7.2"/>
			<path class="st4" d="M198.9,448.9c0-0.8-4.3-1.9-4-3.4"/>
			<path class="st4" d="M194.9,445.5c-1.9-0.9-6.6,0.8-5.8-3.2c-5.7-3.1-7.5,2.4-10.9,6"/>
			<path class="st4" d="M235.2,438c-3.1-2.6-0.4-4.4-3.1-6.9c-5-5.2-1.5-7.4,0.3-12.5"/>
			<path class="st4" d="M232.4,418.5c4-10.1,18-6.1,15.5-8.6c-1.7-1.3,9.1-11.8,6.9-12c0.6-3.4,2.8-0.9,3.7-3.4"/>
			<path class="st4" d="M215.2,296.1c1.1-4.1,1.1-0.7,3.8-3.2c0.6-0.9,0.8-2.1,3.6-2.3c2.3-0.9-1-3.6,2.6-3.1c1.1,2,3.1,3.8,3.2,1.1
				c-0.6-2.2,0.3-4,1-5.5c6.5-4.7,2.9,4.1,7.2-0.1c1,0.3,1.3-4.8,2.6-2.3c1.1,6.7,5-3.4,11.2-2.7"/>
			<path class="st4" d="M273.1,393.6c-5.9-0.5-5,1.9-10.6,2.8c-2.3,1.6-1.3-2-4-1.8"/>
			<path class="st4" d="M293.1,394.7c0.9-3.3,1.6-0.9,1.7-2.2c-1.5-0.6-1.4-1.6,0.2-1.8c2.3,1.6,0.9-3.9,0.7-4.9
				c0-0.1-7.2-1.3-3.5-2.5c0.7-8.2,1.4-9.9,8.9-2.7c2.6-7,9.6-13.9,14.7-17.3"/>
			<path class="st4" d="M315.8,363.4c5.8-5.2,5.6-12.3,9-17.8"/>
		</g>
	</g>
</g>
</svg>
