<svg id="图层_1" data-name="图层 1" xmlns="http://www.w3.org/2000/svg" viewBox="0 0 651.51 651.51"><defs><style>.cls-1{fill:#1a1a1a;}.cls-1,.cls-2,.cls-3,.cls-4{stroke:#545555;}.cls-2{fill:#7a1c1e;}.cls-3{fill:#00334c;}.cls-4{fill:none;}</style></defs><title>江西</title><path class="cls-1" d="M330.24,70.33c3.62-.28,8.37-4.75,8.37-4.75l0,0-1.27-.15a3.54,3.54,0,0,1,2.23-4.83s-7.44-1.49,1.86-15.63c0,0,8.56,1.12,7.44-7.07,0,0,7.82-17.86-1.86-8.93l-2.6,1.12s-6-13.4-11.54-7.07-12.27,13.76-12.27,13.76l-4.1,4.47s-7.44,1.11-9.3,6.33-1.49,11.53-10.79,9.3S284.92,58.33,280.08,68c0,0-7.07,5.21-17.49.74,0,0-20.83-4.83-22.69-1.49s-6.33,5.21-6.33,5.21v5.21l-3,1.49,1.12,4.09-6.33,8.56-2.6,1.49s-4.47,4.09-5.58-1.12L212.36,94l-5.21-3s-7.07,3.72-.74,5.21l3,5.2,4.84-.37-1.11,8.56-7.07.74V106.7l-4.84,1.11s-8.56-1.86-7.44,6.33H190s-7.07,4.09,0,6c0,0,6.32-.74,2.23,5.58s-13,5.58-13,5.58-8.56-3-14.89,5.58-20.46,6.7-20.46,6.7-4.47,0-4.47,7.07-1.11,8.93-6.32,9.3-7.81,1.86-7.81,6l-4.84,6.32-.37,21.58s2.23,3.35,4.83-.74,4.47,1.49,4.47,1.49,7.07,2.23,7.81,6l3.35-4.84,2.23,6.33h0s6.61-5.21,11.91-.19,9.21,10.61,16.46,1.4,10.89-2.51,10.89-2.51,7.25,5.3,14.79-3.35c0,0,5.86-3.91,9.21-3.91,0,0,2.51.28,1.95-11.72l2.51-8.09s-4.74-6.7,2.23-11.17,23.44-15.62,35.44-8.37h.13c3.91-.83,27.5,1.67,27.5,1.67,6.7,7,7.53-.28,7.53-.28s2.24-10.61,7-18.42,14.79-14.79,14.79-14.79C314.33,123.35,318,118,318,118c6.21,7.95,12.2,8.83,13.44,8.92l.07-.39c0-.75-.08-1-.12-1.83-.56-11.16,4.47-11.44,7.26-13.67s3.07-7.82,3.07-7.82-7.26-7.81-7.26-9.48-2.79-9.49-7-17.31S326.61,70.6,330.24,70.33Z"/><path class="cls-2" d="M443.42,285.29S439,278.23,439,274.5l-4.84-7.07-2.23-5.58s-3,2.61-4.84,0-8.19-7.81,3-8.18c0,0,4.09,1.48,1.49-3.72,0,0,4.83-6.33,8.18-7.07s6.7-8.19,3.35-12.65c-2.3-3.07-3.19-5.6-1.37-6.65l-.22-.33c0-1.4-5.59-3.91-5.59-3.91L430,222.41s-4.75-2.23-10.33,2.51-6.42-1.67-6.42-1.67-.83-2.79-1.67-6.14-7.82-7.81-11.44-7.81-8.93-.56-8.93-.56-5-6.7-9.77-7.82-2.51-4.18-2.51-4.18c8.09-5-.28-12.56-.28-12.56s-2-2-8.37,1.12-7.26-.84-7.26-.84-.45-6.52-4-9.27c0,0-.35,6.81-.35,15.74s-5.58,17.86-9.49,17.59-5.86,3.62-7,6.69-4.47,1.4-4.47,1.4l-12.94-5.91s.8,13.39,6.94,24.55c0,0-.56,9.76-14.51,19.81V271s-5.2,4.33-10.61,3.23v.67c-.28,6.42-5.3,11.45-5.3,11.45-4.74,9.76,3.07,18.13,7.25,17.86s5.87,1.95,4.19,8.09-1.67,14.23,0,19.25,6.14,6.7,9.21,5.86,9.21-2.51,10.05.56,7,7.54,7,7.54c6.42,8.65,9.21-6.42,9.21-6.42l3.07-8.65c8.09-7.82,13.95,3.9,13.95,3.9l.28,10.05c5,3.63,3.91,14.79,3.91,14.79s-3.07,5.3.56,7.53,7.25,5,14.51,12.56,10.32.56,12.56-4.46,14-3.63,14-3.63.18.07.48.15a17.84,17.84,0,0,1-.84-3.78s-3.35-7.44-6.33-8.18c0,0,4.47-3.73-1.11-14.51l3.72-5.21,4.83-10.42,6-3.72,6.32-5.58s8.93.37,13-7.82,10.41-24.93,10.41-24.93S448.63,285.29,443.42,285.29Z"/><path class="cls-1" d="M169.76,380.92c0-3.07,4.18-11.17,7.81-17.58s2.79-6.15-6.14-13.4-2.51-8.09,2-8.93,6.41-11.72,6.41-11.72a9.66,9.66,0,0,0,.16-7.87,9.43,9.43,0,0,0-3.78-4.13l-5.86-6.7S166.69,307,160,309.48s-13.39-2.24-13.39-2.24c-8.1-1.67-6.14-8.37,1.67-11.72s-4-10.6-4-10.6-21.58,4.46-13.39,24.56l-3,14.51s-8.18,14.14,0,20.09l-1.12,4.84s3,2.23,2.24,7.44c0,0,4.09,6.33,13,0s10.42-3,10.42-3-1.49,5.21,2.6,6c0,0,.38,3.35-1.86,10s-3,14.14,14.14,24.56C168.27,392.45,169.76,384,169.76,380.92Z"/><path class="cls-1" d="M418.12,415.15h-7.07s-6.7-1.49-2.23-11.91c0,0,1.86-10.79,1.86-12.28l1.86-1.11S430,388,417.75,377.57c0,0-4.29-.54-6.27-6.39l-.12,0s-11.72-1.39-13.95,3.63-5.31,12-12.56,4.46S374,369,370.34,366.75s-.56-7.54-.56-7.54,1.11-11.16-3.91-14.79l-.28-10s-5.86-11.72-13.95-3.91l-3.07,8.65s-1.72,9.3-5.57,9.09v.12l-3.07,8.09c1.12,8.65-6.42,7.26-6.42,7.26-12.28-.84-3.07,12.56-3.07,12.56,3.63,17.3-14.79,9.2-14.79,9.2s-5.58-2.79-7,.28a8.72,8.72,0,0,1-4.74,4.19c-7.25-.56-7.25,5.3-7.25,5.3.83,14.79-5.59,14.79-12.56,17.3s-2.23,16.19-2.23,16.19c4.46,4.74,6.69,13.95,6.69,13.95,7.82,12.56-4.46,4.74-6.42,4.47s-10.88-1.68-17.58,3.9-9.48,3.63-14.51.56-14.23,4.47-14.51,11.44-9.49,8.09-9.49,8.09c-.83,3.07-7.53,8.93-7.53,8.93-7.81-.27-17.38,8.93-17.38,8.93,0,.2,0,.39,0,.59,1.12,10.42-2.61,23.07-2.61,23.07s-.37,7.07,3.73,10.42,7.06,9.3,6,14.89,5.58,7.81,5.58,7.81,6.32-1.49,6,6.69c0,0,.49,7.38,2.85,7.6,0,0,2.09-9.19,12.94-7.52a19,19,0,0,0,17.12-6.26l6.26-10s8.77-2.92,12.53,1.25l2.09,2.93,1.67-1.26s10,1.26,9.18,9.61a14.77,14.77,0,0,0,.84,9.18s1.67,3.76-5.85,8.77-17.11,13.78-17.11,21.71,5.42,10-2.51,18.37c0,0-2.92,5.43-6.26,7.1s-4.6-1.26-4.6,5.42l3.76-.41,8.77,4.59,5.85-1.25s7.93,13.36,14.19,4.17c0,0,11.69-10,18.37-7.1l2.51-1.67s0-8.76,10.44-6.26,5.42-8.35,5.42-8.35l4.18-2.92,5-1.67s11.27-6.26,15.86-7.93,5.43-6.68,9.61-6.68l3.75-2.09s7.52-7.52,20.46,6.26c0,0,1.26,3.76,8.35,2.51l3.76,4.17s3.76,2.92,8.77-2.09,1.25-5.84-2.09-7.93-2.73-6.93-2.73-6.93L391,576.26s-.75-14.14,2.6-17.86l5.21-1.12a15.72,15.72,0,0,1,.74-8.93l-3.71-1.86s-.75-1.12,0-6-4.1-7.44-4.1-7.44l-3.35-3.35a17.77,17.77,0,0,1,5.21-11.54s3.35-5.21.75-8.93V472.45s-2.24-6.33,6.32-10.42L396.17,455s0-8.18,7.44-10.79S414,424.45,414,424.45Z"/><path class="cls-1" d="M202.25,315c3.9,3.35,13.95,3.41,13.95,3.41s6.14-10.05,9.2-10.33S236,305.57,236,305.57l6.42-7s5.86-1.11,6.14-3.62,1.11-3.07,1.11-3.07,10.89-7,17.86-14a15,15,0,0,0,3.91-7.53h0s-4.19-3.35-7-1.67-14.79-.56-14.79-.56-3.62-1.4-3.62-7.54,1.39-12.28-5.31-7.25l-.83,1.11h-8.1s-2.79,0-2.79,4.75l-.55,1.39s-17,0-21.77-1.95-9.49.28-8.65,6.7a13.45,13.45,0,0,1-3.35,10.6s-7.81,7.81,3.63,15.35c0,0,5.58,1.67,6.69,11.44l-1.67,5.58a8,8,0,0,1-1.11,6.64Z"/><path class="cls-1" d="M343,348.26c-1.06,0-2.22-.86-3.62-2.75,0,0-6.14-4.46-7-7.53s-7-1.4-10-.56-7.54-.84-9.21-5.86-1.68-13.12,0-19.26,0-8.37-4.19-8.09-12-8.09-7.25-17.86c0,0,5-5,5.3-11.44l.11-.65a9.86,9.86,0,0,1-6.25-4.37s-6.42,1.39-12.28-6.14c0,0-13.67-13.4-16.74-3.07,0,0,3.07,10.32-3.91,17.3S250,291.93,250,291.93s-.84.56-1.12,3.07-6.14,3.63-6.14,3.63l-6.41,7s-7.54,2.23-10.61,2.51-9.21,10.32-9.21,10.32-10,0-14-3.34c0,0-.64,9.17-22.12,7.49l-.2.19a10.35,10.35,0,0,1-.64,6.51s-1.95,10.88-6.42,11.72-10.88,1.68-1.95,8.93,9.76,7,6.14,13.4-7.82,14.51-7.82,17.58-1.44,11.29-2.38,12.94l.13.08-1.49,4.84,1.49,18.6s-2.6,7.07,8.56,8.56,18.6,0,18.23,13.39-.74,21.21-.74,21.21l-1.49,3s-6.7,8.56,6.32,6.69L209,463.89s10.05-.37,4.47,6.32-8.56,7.82-8.56,7.82-4.58,1.06-3.79,10.73c1.41-1.28,10.21-9,17.38-8.74,0,0,6.69-5.86,7.53-8.93,0,0,9.21-1.12,9.49-8.09S245,448.48,250,451.56s7.81,5,14.51-.56,15.63-4.19,17.58-3.91,14.23,8.09,6.42-4.46c0,0-2.23-9.21-6.7-14,0,0-4.74-13.67,2.23-16.18s13.4-2.52,12.56-17.31c0,0,0-5.86,7.26-5.3a8.68,8.68,0,0,0,4.74-4.18c1.4-3.07,7-.28,7-.28s18.41,8.09,14.79-9.21c0,0-9.21-13.4,3.07-12.56,0,0,7.53,1.4,6.42-7.25l3.06-8.1Z"/><path class="cls-3" d="M332.08,235.5c-5.29-9.64-6.64-21.35-6.91-24.38L322,209.55c-7.26,7.25-19.26,0-19.26,0-2.51-5-6.42-1.68-6.42-1.68s-7,10-12.27,6.14-8.37-2.51-8.37-2.51c-7.26,3.35-6.14-1.12-5.59-11.44s-4.46-11.16-4.46-11.16c.28-10.05-7.81-10.61-7.81-10.61l.28-7-10-17c-12-7.25-28.47,3.91-35.44,8.37s-2.24,11.17-2.24,11.17l-2.51,8.09c.56,12-2,11.72-2,11.72-3.35,0-9.21,3.91-9.21,3.91-7.53,8.65-14.79,3.34-14.79,3.34s-3.63-6.69-10.88,2.52S159.91,207,154.6,202c-4.9-4.64-10.91-.55-11.79.1l.72,3.93s0,4.46-.38,10.05-1.48,13.39,6.33,14.51,8.19,3,6.33,4.83-1.86,2.23,1.11,4.1,7.44,1.11,6.7,7.81-7.07,18.6-15.63,20.09c0,0-13-.37-3.72,4.1s6,10.41,0,13.39l-.3.07.22.18s11.81,7.25,4,10.6-9.77,10.05-1.68,11.72c0,0,6.7,4.75,13.4,2.24s10.32,1.11,10.32,1.11l5.86,6.7a9.43,9.43,0,0,1,3.78,4.13l.69,1.17c21.48,1.68,22-7.53,22-7.53a8.22,8.22,0,0,0,1.12-6.7l1.67-5.58c-1.11-9.77-6.69-11.44-6.69-11.44-11.45-7.54-3.63-15.35-3.63-15.35a13.45,13.45,0,0,0,3.35-10.6c-.84-6.42,3.9-8.65,8.65-6.7s21.76,1.95,21.76,1.95l.56-1.39c0-4.75,2.79-4.75,2.79-4.75h8.1l.83-1.11c6.7-5,5.3,1.11,5.3,7.25s3.63,7.54,3.63,7.54,12,2.23,14.79.55,7,1.68,7,1.68l.18,0a21.3,21.3,0,0,0-.18-9.81c3.07-10.32,16.74,3.07,16.74,3.07,5.86,7.54,12.28,6.14,12.28,6.14,6.7,9.49,16.74,1.12,16.74,1.12V255.31C331.53,245.26,332.08,235.5,332.08,235.5Z"/><path class="cls-4" d="M331.61,127s-6.7,0-13.67-8.93c0,0-3.63,5.31-12.84,4.19,0,0-10.05,7-14.79,14.79s-7,18.42-7,18.42-.83,7.25-7.53.28c0,0-23.72-2.52-27.63-1.68"/><path class="cls-3" d="M358.14,174.41c-4.74-1.95-12.83-7.53-15.35-14.23s-5-7-13.39-8.93-2.23-4.46-.28-5.58,2.79-1.67,2.79-1.67,0-7-.45-17h0s-6.53,0-13.5-8.94c0,0-3.63,5.31-12.84,4.19,0,0-10.05,7-14.79,14.79s-7,18.42-7,18.42-.83,7.25-7.53.28c0,0-23.72-2.52-27.63-1.68l.07.23,10,16.79-.28,7s8.09.56,7.81,10.61c0,0,5,.83,4.47,11.16s-1.68,14.79,5.58,11.44c0,0,3.07-1.4,8.37,2.51s12.28-6.14,12.28-6.14,3.91-3.35,6.42,1.68c0,0,12,7.25,19.25,0l15.91,7.25s3.35,1.68,4.47-1.39,3.06-7,7-6.7,9.49-8.65,9.49-17.58.32-15.8.32-15.8Z"/><path class="cls-1" d="M510,191.9c0-7.44,12.28-11.53,12.28-11.53s13.77-7.44,2.23-14.14c0,0-4.09-4.84,2.23-8.19s6.33-10.79-.74-14.51c0,0,4.47-7.44-1.11-6.7a5.09,5.09,0,0,1-1.49-6l-4.1-3-.74-10.41L513,113s1.49-6.7-9.68-8.56l-5.2-8.18-6.33,1.86s-1.49-7.82-7.07-5.58c0,0-6.69,3.35-15.62-12.28,0,0-3.35-16.74,4.83-17.49s6.33-11.91,1.49-11.91-7.82-8.56-7.82-8.56-7.81-9.67-19.34-1.48c0,0-.75,7.07-11.16,3.35L430,47.91s-4.09-6.33-8.93-1.49-9.3.37-11.17-5.21l-5.58.37-4.09-10.42s-.74-3.72-9.3-2.6-10.42-3.72-10.42-3.72-1.86-7.44-7.07,0-8.56,11.53.75,11.9L373.84,42s1.49,8.19-4.46,10.42-8.93,4.1-11.17,10.79-4.83,4.84-7.81,1.12-3.35,2.23-3.35,2.23l-8.22-1,0,0s-4.74,4.47-8.37,4.75-7-1.68-2.79,6.13,7,15.63,7,17.31,7.25,9.48,7.25,9.48-.28,5.58-3.07,7.82-7.81,2.51-7.25,13.67.56,19.26.56,19.26-.84.55-2.79,1.67-8.1,3.63.28,5.58,10.88,2.23,13.39,8.93,10.6,12.28,15.35,14.23,5.3,10.05,5.3,10.05.84,3.91,7.26.84c3.69-1.77,5.91-1.87,7.12-1.64l.41,0c11.72-.55,9.49-7,9.49-15.35s7.25-5,7.25-5l4.19-7.25,9.21-1.12a6.4,6.4,0,0,1,5.86-4.74c5-.56,9.77,10.6,10.32,12.27s.56,16.19,1.4,22.33,10.6,8.37,16.18,8.93,7,.56,6.14,7.25a17,17,0,0,0,2,10.89l3.55,3.82a20,20,0,0,0,1-1.78s4.83-5.2,8.93-.74,21.2,12.65,20.46,3c0,0,7.44-18.23,13.77-18.6S510,199.34,510,191.9Z"/><path class="cls-2" d="M453.88,215.8l-3.63-3.9A17,17,0,0,1,448.3,201c.84-6.69-.56-6.69-6.14-7.25S426.81,191,426,184.83s-.83-20.65-1.39-22.33-5.3-12.83-10.33-12.27a6.41,6.41,0,0,0-5.86,4.74l-9.21,1.11L395,163.34s-7.25-3.35-7.25,5,2.23,14.79-9.49,15.35l.83.56s8.38,7.54.28,12.56c0,0-2.23,3.07,2.51,4.18s9.77,7.82,9.77,7.82,5.3.56,8.93.56,10.61,4.46,11.44,7.81,1.68,6.14,1.68,6.14.83,6.42,6.42,1.67,10.32-2.51,10.32-2.51l5.86-3.07s5.58,2.51,5.58,3.91l.13.09a8.37,8.37,0,0,1,4-.27A22.16,22.16,0,0,0,453.88,215.8Z"/><path class="cls-1" d="M395.8,131.72c7.53-.56,11.16,2.51,11.16,2.51s6.42,3.91,13.11-3.63,7.82-8.65,7.82-8.65l2.79-2.23s10-6.14,0-8.09-7.26-5-6.42-10.89-3.07-12.28-10.33-12.28-4.74-3.07-2.23-5.58,5.3-4.18,4.47-17c0,0,3.34-8.37,6.41-10.88s5.59-7.82,3.63-10v-.11c-1.46-.47-3.23-.28-5.11,1.6-4.84,4.84-9.3.37-11.17-5.21l-5.58.37-4.09-10.42s-.74-3.72-9.3-2.6-10.42-3.72-10.42-3.72-1.86-7.44-7.07,0-8.56,11.53.75,11.9L373.84,42s1.08,6-2.34,9.12c-.14,2-.85,14.18,2,19.81,3.07,6.14,10.33,17,10.33,25.68,0,0,.55,17.3.55,26.23S388.26,132.28,395.8,131.72Z"/></svg>