<svg id="图层_1" data-name="图层 1" xmlns="http://www.w3.org/2000/svg" viewBox="0 0 650.78 650.78"><defs><style>.cls-1{fill:#fffcd1;}.cls-1,.cls-2,.cls-3,.cls-4,.cls-5{stroke:#545555;}.cls-2{fill:#1a1a1a;}.cls-3{fill:none;}.cls-4{fill:#00324b;}.cls-5{fill:#761b1d;}</style></defs><title>陝西</title><path class="cls-1" d="M456.42,58.69s-3.69.28-3.69-3.4-4.25,1.41-4.25,1.41l-.56-4s-7.65-2.27-1.14-10.2c0,0,3.12-5.67-4-.57,0,0-6.8-1.42-9.92,4.53s-7.08,13.89-7.08,13.89-3.4,7.36-7.93.56-4.54-4.53-9.07-1.41-5.95-3.69-5.95-3.69-7.08-10.48-8.5-.85c0,0,8.5,6.24.85,9.63s-11.61,2-11.61,2l-.28,7.08a85.39,85.39,0,0,1-10.48,3.68L372,83.9l-5.39,11.9-6.23-.57s-1.42,6.51-6.23,8.22c0,0,3.11,7.93-3.69,5.94,0,0-4.24.86-4.81,6.52s-6.8,8.78-8.5,9.07-.57,6.23-3.4,11c0,0-.54,5.29,7.37,7.37,5.38,1.42-2.27,6.52-2.27,6.52l-1.13,9.91-2.27-.28-.57-.85-4.53-7.09-2.27,4.82L325,157s8.5,18.13-3.12,17-12.18,3.4-12.18,3.4-24.08,7.09-25.78-3.68-7.93-9.06-7.93-9.06l-8.78-2.84a45.81,45.81,0,0,1-1.14,7.37c-.85,3.12-7.36,1.42-7.36,1.42L255,176.25l-3.69-.28.29,4.81h-3.69l-.56,2,4,2.83s-7.93,7.65-5.1,19l2.55,1.42-1.41,4.25s8.21,11.61-2,4.81c0,0-4.25-1.7.29,3.69s.85,8.49.85,8.49,4,4.82,13.31,5.39l1.14.84s.28,5.67,6.8,3.12,7.64,1.14,8.78,4.25h2.83l4.53,5.67,3.4-.57.57,5.1,3.11-.28,5.39,4s2.83-7.36,4.81-.56c0,0,4.25,2,6.24-1.14l2.26,7.08s-.28,1.42,6.52.86,7.93,6.79,7.93,6.79-.85,7.37,1.7,10.77,5.66,4.81,1.7,7.93l-.85,8.5-1.7.28a5.33,5.33,0,0,0-4.53,2.84c-1.42,2.83-2.84,6.23-2.84,6.23l1.7,3.4v10.48s7.08,2.55,3.4,10.76c0,0,5.67,2.55.85,7.65s-6.51,6.52-6.51,6.52l-11.9.28s-3.12-4.53-5.67-1.41l-4.53.28s-5.38,9.63-8.5,1.42l-3.4,2-6.51-3.4s-3.4,1.13,0,3.68c0,0-.57,3.12-5.39,1.14a5,5,0,0,0,2.27,3.68c2.27,1.7,2.27,7.36,2.27,7.36s5.1,3.4,7.36,3.4,1.14,4.82-2.55,5.39-8.21,1.13-9.91,2.83c0,0-3.69-4.25-5.67.57s-12.18-2-12.18-2-2.83.28-5.1,4.25-4,.29-4-4l-4.81.29.28-5.1s-13.88-11.05-21.53-3.4c0,0-2.83,1.42-6.23-1.42,0,0-.28,6.24-3.68,6.24,0,0-5.95-1.7,5.95,12.18,0,0,.85,4.53-7.09,9.06l-.56,5.67s-10.2.28-5.1,4.53l.28,3.68s9.35.57,11.61,5.39a10.71,10.71,0,0,0,7.37,5.66s1.7,8.22-3.68,5.95-7.08-3.12-7.65,1.42l6.52,1.41v6.52s0,1.13-5.39,1.13c0,0-1.7,0-1.41,5.67a15.43,15.43,0,0,1-3.4,9.91l5.1,1.42-2,8.22s13,9.06,4.25,13.31c0,0,.85,8.22-3.11,3.12l-3.12-.29s3.68-9.63-4.53-4l-4.82-1.14-3.11,4.82s-9.35-11.33-15.3-2.55-5.95,13.31-5.95,13.31l-5.67.29,1.42,2.55-1.14,4.25,6.52,5.1s13.88-4.25,4.25,4.25l2.55,4-2.83,4v4.25A23.84,23.84,0,0,1,170,511.1l-2.27,3.68-4.25-.28-3.68,2.55s-7.65-5.95-5.1,1.42l1.42,3.4s1.41,7.36,3.11,7.64,4-1.41,4-1.41l4.53-4.53,4.82,2.26.28-4.53,10.2-1.7,4-3.68,1.41,2.26L187,525.55l2,1.13,8.78,3.68,7.93,4,1.7-1.13.85-2.84,3.4-.56,5.95.85,6.23-6.52,2,.85,2.26,1.42,11.33-.57s4.25.28,1.7,10.48,2.84,6.24,2.84,6.24l9.91,4,1.7-1.7,1.42-5.38s3.68-4.25,3.68,5.1l1.13,2.83,3.4-1.13.57,3.4,6.52-2.55s3.4-2.55,6.51,3.68l3.12,3.68,13.6,10.77,2.55-1.42v-4l6.51-.57,2.55-1.7,1.42-1.42.28-1.7,7.93,3.12.57-3.4,3.12,2,2.83-3.11,2.26.85.29,2.26.56,1.42h2.27l.85,3.68,7.37,5.39,4.53.28,2.55,3.4,1.42,1.41h5.38l1.7,3.69h7.36l1.14,4,2.26,1.14h4.25l1.42,4,5.38,2.27-.28,6,2,2,4.53-2,8.22-.28,1.7-2v-3.68l2-1.13,1.42-2-1.7-2-1.42-1.7v-2.27l.57-3.11v-1.13L390.12,572l-1.13-1.7v-1.7l3.12-2.27-.28-1.7-1.71-2-1.41-1.42.85-1.13.28-2.55-.28-1.13h-3.4l-1.7-1.14-2.27-2.55,1.42-2.54.28-1.71v-3.11l2-.29h1.41l.29-4,.85-1.13.28-1.7-1.13-1.14L386.16,536,385,534.9l.85-1.7,5.38.56.85-3.68,4.53,3.4,3.68-2.55,3.12,2.27.57-1.14,2-2.55,5.67,3.12h5.09l.57-4.25,1.7-.85h4.82l1.13-1.42-1.13-1.69-4.25-3.12s3.68-5.1-7.93-11.33c0,0-3.69,2.83-9.07-1.7l-2.83,3.11-2.84-.56-.85-2.27s6.8-16.15-11.61-14.73c0,0-12.75-4.82,2-7.65h1.7l.29-2,1.41-.57S392.11,485,393,485s4.81.28,4.81.28a11.56,11.56,0,0,0,2.84.85c.85,0,3.11-.28,3.11-.28s-.28-1.13,1.42-.57a12.07,12.07,0,0,0,3.4.57h13l3.12,3.68,3.11.57,1.42-.85,1.42-1.42a1.93,1.93,0,0,1,1.41-.85c.85,0,4,.28,4,.28l3.11.85.85-2.26s4-9.92,5.39,1.41l1.13,1.42,2.83-.28,1.42,2.55,2.27-.29,6.51-6.23,2-1.7,2.54,2.55,1.42-1.13v-2.83l3.68-6.24.85-2.55s.57-.56-.28-1.13a17.15,17.15,0,0,1-2-1.7l-1.14-1.13v-1.7l1.14-1.42,1.7-1.7.28-3.12-1.42-1.13-1.13-1.13v-2l-.28-1.7-2.84-1.42h-5.94l-1.7-2.27a11.7,11.7,0,0,0-.85-3.4c-.57-.85-1.14-6.51-11.34-8.49l-1.41-1.71.56-1.69s8.22-3.12-3.11-9.35c0,0-1.7-4.25,1.7-5.39s2-5.09-2.84-6.23-10.19-2-6.79-7.08.28-7.08-2.55-6.8-2-13-2-13-2.83-.28-4.53-.28-6.23-5.39-2.83-11.33l-.29-1.71-.56-2.54s1.41-28.33,7.93-37.68l2.27-2.27s.28-2.83.28-3.68V323l.85-5.1,3.12-2.84.28-3.11-.85-3.69v-6.51l-.28-1.7-2.27-2.27-1.42-1.13-.56-1.42v-3.68l-.29-2.55-3.4-3.4L423,280.79l.56-7.37V257s4.82-6.8-2.55-13l.57-3.4.57-2-1.7-.29h-2l-.85-.56-.29-1.14v-1.41l1.7-1.71.85-1.69-.85-1.14-2-2,.28-.85.57-1.13,1.41-.85-.28-1.14-1.41-4.25v-3.11l2.54-1.42,11.34-18.41.28-3.12-2.55-1.7-1.13-2.55.28-2,1.13-1.42,2.27-.85s7.93-1.7,3.4-15.29l-1.42-.85h-1.41l-.85-1.14.85-2.83v-1.42l-1.14-.56-2.26.28-2-3.68-1.41-4.54-1.7-2.26-2.84-.85-1.7-.57-1.13-.57v-.85l.85-2.26.57-2.27.56-2-.56-1.42-.85-2.26-.28-1.7v-2.55l1.69-2.27,1.14-5.95,2.55-1.7,6-3.11.85-1.71,1.13-5.09,5.66-3.12.86-1.7-.57-11,1.41-1.13,1.7-2.27V93l3.69-3.11-.29-3.12L442,83.05V79.93l3.4-2,4-2,1.14-6,2.83-5.1,2.27-4Z"/><path class="cls-2" d="M452.73,55.29c0-3.69-4.25,1.41-4.25,1.41l-.56-4s-7.65-2.27-1.14-10.2c0,0,3.12-5.67-4-.57,0,0-6.8-1.42-9.92,4.53s-7.08,13.89-7.08,13.89-3.4,7.36-7.93.56-4.54-4.53-9.07-1.41-5.95-3.69-5.95-3.69-7.08-10.48-8.5-.85c0,0,8.5,6.24.85,9.63s-11.61,2-11.61,2l-.28,7.08a85.39,85.39,0,0,1-10.48,3.68L372,83.9l-5.39,11.9-6.23-.57s-1.42,6.51-6.23,8.22c0,0,3.11,7.93-3.69,5.94,0,0-4.24.86-4.81,6.52s-6.8,8.78-8.5,9.07-.57,6.23-3.4,11c0,0-.54,5.29,7.37,7.37,5.38,1.42-2.27,6.52-2.27,6.52l-1.13,9.91-2.27-.28-.57-.85-4.53-7.09-2.27,4.82L325,157s8.5,18.13-3.12,17-12.18,3.4-12.18,3.4-24.08,7.09-25.78-3.68-7.93-9.06-7.93-9.06l-8.78-2.84a45.81,45.81,0,0,1-1.14,7.37c-.85,3.12-7.36,1.42-7.36,1.42L255,176.25l-3.69-.28.29,4.81h-3.69l-.56,2,4,2.83s-7.93,7.65-5.1,19l2.55,1.42-1.41,4.25s8.21,11.61-2,4.81c0,0-4.25-1.7.29,3.69s.85,8.49.85,8.49,4,4.82,13.31,5.39l1.14.84s.28,5.67,6.8,3.12c.28-.11.54-.19.8-.28l.33-.85a21.41,21.41,0,0,0,1.13-13.6c-2-7.08-.57-20.11,7.93-13.6S289,206.85,289,206.85l6.8.85,4.53-8.79s13.6-13.88,11.33,2.84l1.42,3.11,2.83,2.27s2.55.28,0,7.93,3.4,4,3.4,4l7.37,2,1.7-1.13-.85-2-.29-2.26V212.8s6.8-.85,5.67-9.35c0,0,18.13-8.22,23.51-8.5l2-2.55s2.83-9.63,11.05-6,11.33,4.25,11.33,4.25l.85,7.08s1.13.57,5.1.28,12.18-.28,8.21,10.49c0,0-2.83,3.68,2.27,6.51a33.25,33.25,0,0,0,7.65,3.4l2.55-1.13,2-2.55,4.53,1.13,3.69,1.42,2.54-1.42,11.34-18.41.28-3.12-2.55-1.7-1.13-2.55.28-2,1.13-1.42,2.27-.85s7.93-1.7,3.4-15.29l-1.42-.85h-1.41l-.85-1.14.85-2.83v-1.42l-1.14-.56-2.26.28-2-3.68-1.41-4.54-1.7-2.26-2.84-.85-1.7-.57-1.13-.57v-.85l.85-2.26.57-2.27.56-2-.56-1.42-.85-2.26-.28-1.7v-2.55l1.69-2.27,1.14-5.95,2.55-1.7,6-3.11.85-1.71,1.13-5.09,5.66-3.12.86-1.7-.57-11,1.41-1.13,1.7-2.27V93l3.69-3.11-.29-3.12L442,83.05V79.93l3.4-2,4-2,1.14-6,2.83-5.1,2.27-4,.85-2.26S452.73,59,452.73,55.29Z"/><path class="cls-2" d="M323.65,323.29a7.15,7.15,0,0,0-4.35-5.11V307.7l-1.7-3.4s1.42-3.4,2.84-6.23a5.33,5.33,0,0,1,4.53-2.84l1.7-.28.85-8.5c4-3.12.85-4.53-1.7-7.93s-1.7-10.77-1.7-10.77-1.13-7.36-7.93-6.79-6.52-.86-6.52-.86L307.41,253c-2,3.12-6.24,1.14-6.24,1.14-2-6.8-4.81.56-4.81.56l-5.39-4-3.11.28-.57-5.1-3.4.57-4.53-5.67h-2.83c-1.11-3-1.39-6.68-7.43-4.51l-.32-.25.1-.62a21.41,21.41,0,0,0,1.13-13.6c-2-7.08-.57-20.11,7.93-13.6S289,206.85,289,206.85l6.8.85,4.53-8.79s13.6-13.88,11.33,2.84l1.42,3.11,2.83,2.27s2.55.28,0,7.93,3.4,4,3.4,4l7.37,2,1.7-1.13-.85-2-.29-2.26V212.8s6.8-.85,5.67-9.35c0,0,18.13-8.22,23.51-8.5l2-2.55s2.83-9.63,11.05-6,11.33,4.25,11.33,4.25l.85,7.08s1.13.57,5.1.28,12.18-.28,8.21,10.49c0,0-2.83,3.68,2.27,6.51a33.25,33.25,0,0,0,7.65,3.4l2.55-1.13,2-2.55,4.53,1.13,3.69,1.42v3.19l1.41,4.17.28,1.14-1.41.85-.57,1.13-.28.85,2,2,.85,1.14-.85,1.69-1.7,1.71v1.41l.29,1.14.85.56h2l1.7.29-.57,2L421,244c7.37,6.23,2.55,13,2.55,13v16.43l-.56,7.37,2.26,4.81,3.4,3.4.29,2.55v3.68l.56,1.42,1.42,1.13-.4-.17a6.62,6.62,0,0,0-7.25,3.86c-2,4.24-7.93,6.51-7.93,6.51-7.65-.56-.57,7.08-.57,7.08,7.37,15.3-14.45,14.74-24.36,13s-15.3,3.69-15.3,3.69l-4-6.52s-11,.57-11-.57-4.25-4.24-9.92-3.11-5.95,6.51-5.95,10.2-9.06,9.06-10.2.28-10.19-8.78-10.19-8.78Z"/><path class="cls-3" d="M340.83,335.74s-8.5,4.82-10.48,7.37S317.6,361,333.18,370.59c0,0,7.94,6,14.17,4.53"/><path class="cls-3" d="M280.49,366.91s.57,10.76,9.92,7.08a6.75,6.75,0,0,0,.85,6.8c2.55,3.4,2.26,7.08,1.13,11.9s1.42,9.91,1.42,9.91,2.83,7.08.56,11.9c0,0,11.1,8.36,31.39,2.35,0,0,12-1.5,12-9,0,0,14.75-3.32,12-14.66-.2-.82,0-1.12,0-1.12a4.41,4.41,0,0,1,3.75-1.88c2.63,0,4-2.41,4.27-6.84"/><path class="cls-4" d="M428.54,399.77c-1.29-3.17-.74-11.9-.74-11.9s-2.83-.28-4.53-.28-6.23-5.39-2.83-11.33l-.29-1.71-.56-2.54s1.41-28.33,7.93-37.68l2.27-2.27s.28-2.83.28-3.68V323l.85-5.1,3.12-2.84.28-3.11-.85-3.69v-6.51l-.28-1.7-2.27-2.27-.34-.27c-2.06-.71-5.81.28-7.45,3.79-2,4.25-7.93,6.51-7.93,6.51-7.65-.56-.57,7.09-.57,7.09,7.37,15.3-14.44,14.73-24.36,13s-15.35,3.78-15.35,3.78c-1.42,1.13-10.48,12.46-10.48,12.46l.28,1.14.85,2,2,.56,3.11.57,3.12.57v1.13l-2,2.83-2.55.29c-5.67-.57-11.05,6.79-11.05,6.79l-4,6.52-3.12,3.12c-11.33,7.36,6.52,13.6,6.52,13.6l13-2.84,1.42.57s-.85,8.5,1.13,21.53,21,10.76,21,10.76,2-3.11,6.79,0,4.82-6.51,4.82-6.51l2-.85a17.86,17.86,0,0,1,2.27-5.1l18.13-.85Z"/><path class="cls-2" d="M347.53,374.24c0-1.55,1.08-3.23,3.76-5l3.12-3.12,4-6.51s5.38-7.37,11-6.8l2.55-.28,2-2.84v-1.13l-3.12-.57-3.12-.57-2-.56-.85-2-.28-1.14,10.48-12.46-4-6.52s-11,.57-11-.56-4.25-4.25-9.92-3.12-6,6.52-6,10.2c0,1.3-1,3-3.22,3.84,0,0-8.68,4.94-10.66,7.49s-12.75,17.85,2.83,27.48c0,0,8.74,6.06,14.31,4.51Z"/><path class="cls-5" d="M347.69,374.71l-.36-.06c-6.23,1.42-14.17-4.53-14.17-4.53-15.58-9.63-4.81-24.93-2.83-27.48,1.48-1.9,9.38-6.57,9.38-6.57-2.46.8-5.12,0-5.7-4.48-1.13-8.78-10.88-8.76-10.88-8.76h-.27a9.12,9.12,0,0,1-.85,6.1s5.67,2.55.85,7.65-6.51,6.52-6.51,6.52l-11.9.28s-3.12-4.53-5.67-1.41l-4.53.28s-5.38,9.63-8.5,1.42l-3.4,2-6.51-3.4s-3.4,1.13,0,3.68c0,0-.57,3.12-5.39,1.14a5,5,0,0,0,2.27,3.68c2.27,1.7,2.27,7.36,2.27,7.36s5.09,3.4,7.36,3.4c2.09,0,1.29,4.08-1.73,5.17.13,1.41,1.29,10.28,9.9,6.89a6.75,6.75,0,0,0,.85,6.8c2.55,3.4,2.27,7.08,1.14,11.9s1.41,9.91,1.41,9.91,2.84,7.08.57,11.9c0,0,11.1,8.36,31.39,2.35,0,0,12-1.5,12-9,0,0,14.94-3.35,12-14.65-.27-1.06,0-1.12,0-1.12a4.44,4.44,0,0,1,3.76-1.88c2.63,0,4-2.41,4.27-6.84l-.14-.06S347.58,379.71,347.69,374.71Z"/><path class="cls-2" d="M306.23,548.34c-1.51-6.38,5.63-5.26,5.63-5.26,8.64-6-6-8.26-1.88-9.76s1.88-7.52,1.88-7.52-.75-1.5-6.76-6.76-3.76-6.76-3.76-6.76l1.51-7.89L301,497.25l.37-5.26c-8.26-6.39-1.13-12.4-1.13-12.4l3-3L298,469.07s-.37-1.87,0-7.51,0-6.76,0-6.76H291.2a30.64,30.64,0,0,1-7.51,1.5c-3,0-12.78.38-12.78.38-11.27,10.89-12.77-1.51-12.77-1.51l-1.88-6.39c-3.76-.75-9.77-1.5-10.14-2.62s-3-2.26-5.64,0-6.76,1.12-8.64,0a2.8,2.8,0,0,0-3.38.37c-1.5,10.9-13.15,14.28-13.15,14.28l-.08,0c.73,2,.3,4.08-2.73,5.55,0,0,.85,8.22-3.11,3.12l-3.12-.29s3.68-9.63-4.53-4l-4.82-1.14-3.11,4.82s-9.35-11.33-15.3-2.55-5.95,13.31-5.95,13.31l-5.67.29,1.42,2.55-1.14,4.25,6.52,5.1s13.88-4.25,4.25,4.25l2.55,4-2.83,4v4.25A23.84,23.84,0,0,1,170,511.1l-2.27,3.68-4.25-.28-3.68,2.55s-7.65-5.95-5.1,1.42l1.42,3.4s1.41,7.36,3.11,7.64,4-1.41,4-1.41l4.53-4.53,4.82,2.26.28-4.53,10.2-1.7,4-3.68,1.41,2.26L187,525.55l2,1.13,8.78,3.68,7.93,4,1.7-1.13.85-2.84,3.4-.56,5.95.85,6.23-6.52,2,.85,2.26,1.42,11.33-.57s4.25.28,1.7,10.48,2.84,6.24,2.84,6.24l9.91,4,1.7-1.7,1.42-5.38s3.68-4.25,3.68,5.1l1.13,2.83,3.4-1.13.57,3.4,6.52-2.55s3.4-2.55,6.51,3.68l3.12,3.68,13.6,10.77,2.55-1.42v-4l6.51-.57,2.55-1.7-2.77-5.46Z"/><path class="cls-4" d="M419.59,521.3s3.68-5.1-7.93-11.33c0,0-3.69,2.83-9.07-1.7l-2.83,3.11-2.84-.56-.85-2.27s6.8-16.15-11.61-14.73a15.73,15.73,0,0,1-4.07-2.3l-.32.09s-3.76,3.39-12.78-2.25c0,0-6,3-10.89.75l-3,1.5s-5.26,5.26-11.27-5.26l-5.26-.75-3.75-4.13L329,482.6s-1.87-13.9,4.51-15.78l5.64-.38s2.63-1.5,1.5-5.63,4.13-5.64,4.13-5.64l2.63,1.13,1.13-1.88-1.13-6H342.5l-2.25-2.25s-4.89-6.77-11.65,3.38c0,0-4.51.75-7.52-1.13l-14.65,4.88-8.54,1.07-.1.44s.38,1.12,0,6.76,0,7.51,0,7.51l5.26,7.52-3,3s-7.13,6,1.13,12.4l-.37,5.26,1.88,7.14-1.51,7.89s-2.25,1.5,3.76,6.76,6.76,6.76,6.76,6.76,2.26,6-1.88,7.52,10.52,3.75,1.88,9.76c0,0-7.14-1.12-5.63,5.26l-1.88,3.76,2.77,5.46v.12l.18-.12,1.42-1.42.28-1.7,7.93,3.12.57-3.4,3.12,2,2.83-3.11,2.26.85.29,2.26.56,1.42h2.27l.85,3.68,7.37,5.39,4.53.28,2.55,3.4,1.42,1.41h5.38l1.7,3.69h7.36l1.14,4,2.26,1.14h4.25l1.42,4,5.38,2.27-.28,6,2,2,4.53-2,8.22-.28,1.7-2v-3.68l2-1.13,1.42-2-1.7-2-1.42-1.7v-2.27l.57-3.11v-1.13L390.12,572l-1.13-1.7v-1.7l3.12-2.27-.28-1.7-1.71-2-1.41-1.42.85-1.13.28-2.55-.28-1.13h-3.4l-1.7-1.14-2.27-2.55,1.42-2.54.28-1.71v-3.11l2-.29h1.41l.29-4,.85-1.13.28-1.7-1.13-1.14L386.16,536,385,534.9l.85-1.7,5.38.56.85-3.68,4.53,3.4,3.68-2.55,3.12,2.27.57-1.14,2-2.55,5.67,3.12h5.09l.57-4.25,1.7-.85h4.82l1.13-1.42-1.13-1.69Z"/><path class="cls-5" d="M299.71,417.28l-.2-.25a21.13,21.13,0,0,1-5.14-2.53c2.27-4.82-.56-11.9-.56-11.9s-2.55-5.1-1.42-9.91,1.42-8.5-1.13-11.9a6.75,6.75,0,0,1-.85-6.8c-9.35,3.68-9.92-7.08-9.92-7.08-3.68.56-8.21,1.13-9.91,2.83,0,0-3.69-4.25-5.67.57s-12.18-2-12.18-2-2.83.28-5.1,4.25-4,.29-4-4l-4.81.29.28-5.1s-13.88-11.05-21.53-3.4c0,0-2.83,1.42-6.23-1.42,0,0-.28,6.24-3.68,6.24,0,0-5.95-1.7,5.95,12.18,0,0,.85,4.53-7.09,9.06l-.56,5.67s-10.2.28-5.1,4.53l.28,3.68s9.35.57,11.61,5.39a10.71,10.71,0,0,0,7.37,5.66s1.7,8.22-3.68,5.95-7.08-3.12-7.65,1.42l6.52,1.41v6.52s0,1.13-5.39,1.13c0,0-1.7,0-1.41,5.67a15.43,15.43,0,0,1-3.4,9.91l5.1,1.42-2,8.22s5.6,3.89,7,7.78h.07s11.65-3.38,13.15-14.28a2.8,2.8,0,0,1,3.38-.37c1.88,1.12,6,2.25,8.64,0s5.26-1.13,5.64,0,6.38,1.87,10.14,2.62l1.88,6.39s1.5,12.4,12.77,1.51l5-.22-.21-5.22s2.61-2.39,2.61-7.83,5.87-8.7,8.7-8.7a14.14,14.14,0,0,0,4.56-.65C292,421.87,299.71,417.28,299.71,417.28Z"/><path class="cls-5" d="M275.92,456.46l-.21-5.22s2.61-2.39,2.61-7.83,5.87-8.7,8.7-8.7a14.14,14.14,0,0,0,4.56-.65c.44-12.19,8.07-16.84,8.07-16.84l.28-.08c5.16,1.81,13.74,3.3,25.83-.29,0,0,12-1.5,12-9,0,0,14.75-3.32,12-14.66-.2-.82,0-1.12,0-1.12a4.41,4.41,0,0,1,3.75-1.88c2.63,0,4-2.41,4.27-6.84l0-.06,13-2.84,1.38.63s-.85,8.5,1.13,21.53,20.95,10.8,20.95,10.8h.06s6.37,2.59-4.51,9.55-6.31,5.88-5.22,13.27c0,0-.44,7.18-9.36,6.53s-18.27-8.92-34.8,2.83l-.32.3s-4.68-6.5-11.44,3.65c0,0-4.51.75-7.51-1.13l-14.66,4.88-12.93,1.49-2.47,0a30.64,30.64,0,0,1-7.51,1.5c-1.54,0-4.75.14-7.62.24Z"/><path class="cls-2" d="M469.73,471.44a17.15,17.15,0,0,1-2-1.7l-1.14-1.13v-1.7l1.14-1.42,1.7-1.7.28-3.12-1.42-1.13-1.13-1.13v-2l-.28-1.7-2.84-1.42h-5.94l-1.7-2.27a11.7,11.7,0,0,0-.85-3.4c-.57-.85-1.14-6.51-11.34-8.49l-1.41-1.71.56-1.69s8.22-3.12-3.11-9.35c0,0-1.7-4.25,1.7-5.39s2-5.09-2.84-6.23-10.19-2-6.79-7.08.28-7.08-2.55-6.8c-.5.05-.88-.32-1.18-1l-.24.12-18.13.85A17.86,17.86,0,0,0,408,406l-2,.85s0,9.63-4.82,6.51-6.8,0-6.8,0,6.42,2.64-4.46,9.6-6.31,5.88-5.22,13.27c0,0-.44,7.18-9.36,6.53s-18.27-8.92-34.8,2.83l-.28.57,2.25,2.25h4.88l1.13,6-1.13,1.88-2.63-1.13s-5.26,1.51-4.13,5.64-1.5,5.63-1.5,5.63l-5.64.38C327.1,468.7,329,482.6,329,482.6l4.14-1.13,3.75,4.13,5.26.75c6,10.52,11.27,5.26,11.27,5.26l3-1.5c4.88,2.26,10.89-.75,10.89-.75,9,5.64,12.78,2.25,12.78,2.25l.39,0c-1.9-1.64-2.24-3.84,6-5.42h1.7l.29-2,1.41-.57S392.11,485,393,485s4.81.28,4.81.28a11.56,11.56,0,0,0,2.84.85c.85,0,3.11-.28,3.11-.28s-.28-1.13,1.42-.57a12.07,12.07,0,0,0,3.4.57h13l3.12,3.68,3.11.57,1.42-.85,1.42-1.42a1.93,1.93,0,0,1,1.41-.85c.85,0,4,.28,4,.28l3.11.85.85-2.26s4-9.92,5.39,1.41l1.13,1.42,2.83-.28,1.42,2.55,2.27-.29,6.51-6.23,2-1.7,2.54,2.55,1.42-1.13v-2.83l3.68-6.24.85-2.55S470.58,472,469.73,471.44Z"/></svg>