<svg id="图层_1" data-name="图层 1" xmlns="http://www.w3.org/2000/svg" viewBox="0 0 651.78 449.09"><defs><style>.cls-1{fill:#fffcd1;}.cls-1,.cls-2,.cls-3,.cls-4,.cls-5{stroke:#545555;}.cls-2{fill:#00324b;}.cls-3{fill:none;}.cls-4{fill:#1a1a1a;}.cls-5,.cls-6{fill:#761b1d;}</style></defs><title>山東</title><path class="cls-1" d="M380,346.13s1.83-4,.73-7.33,0-11,8.44-13.57l6.6-5.86s.37-8.07,3.3-9.9l.36-2.93v-3.3l.37-4s4,1.1,7.7-4l2.57,3.31s7.7-10.27,6.59-1.84c0,0,4.41,2.94,4-6.23l2.19-2.93s-6.22-5.87,1.47-2.93,4.77-7.7,4.77-7.7-3.3-6.24,3.67-5.87l3.3-1.1,4-4s1.83-7-5.13-7c0,0-4-.73,3.3-6.59l-1.47-2.57-2.2-2.94v-2.56l.37-4,.37-1.1,1.46-.37h4.4l1.47-.36,1.1-.37c.73,1.1,1.1.73,1.47,2.2s2.93,2.93,2.93,2.93l.36-3.3V238l1.84-4.4,4.4,1.47v1.83l-1.47.74s1.84,8.06-3.3,12.82c0,0-7.7,5.5,3.3,4.4l6.23-.36s2.93-4.77,5.87-2.93l2.2-.74,1.47-2.2,2.56,1.84,3.3-1.1s9.53-.74,3.3-11.37l-2.93-10.63,1.46-.73,1.84,1.1,1.1-.74L479,221.5l1.84-6.6s9.9-5.13,9.9,7c0,0,4.76,1.47,3.3-3.3s.36-4.76,1.83-2.93l1.47-1.83v-3.3l1.83-3.3-5.87-.37s-.73-7.7-5.86-2.2l-4,.74,2.2-8.44L495.88,198s-1.47,5.86,6.6,4.4v-2.2l-.37-3.3,2.2-1.1.73,4.76,2.94-3.66,8.43-5.13h12.83l.37-4,2.93-1.47s5.14-3.3.37-7l.37-3.3,3.3,4,1.83-2.57,7,.74-1.11,1.83-2.93,2.2-3.3.36-1.1,2.2,4,2.57s2.2-5.13,5.5,1.1c0,0,4.24,2.24,1.56-3.84s3.4-5.92,3.4-5.92,4,1.51,4.85-3.71,6.51-5.41,8.89-5l.92-.55s8.43,1.1,2.38-2.75c0,0,0-8.8,3.3-3.67l1.1.37s6.42-1.83,3.67,3.49,3.66,3.29,3.66,3.29h1.47v-5.13l4.4-5.31.73-.74v-2.2s5.14-1.64,2.39,3.49c0,0-6.05,5.86-.92,7.88s6.23,2.57.73,4.21l-.73.55s-1.47,4.77,3.11,3.3,5.87,1.1,5.87,1.1,2.93,1.47,2.75-1.46,3.85-2,5.5-2,2.57-.91.18-5.13,2.75-.73,2.75-.73a2,2,0,0,0,2.57-2.2l5.13-8.07-3.11.55h-4.77s-4.77,7.52-5.32,1.29c0,0-1.83-3.85,3.48-3.3,0,0,2.57,0,.19-3.67v-4.77s5.32-1.28,8.25-.91l.18-2.57-.55-.55v-1.28h1.84s5.68-.18,0-4L615,136.64l-.73-1.1v-1.65l-.73-1.46V131l.55-.18h1.47l.73-.55V129L616,128l.37-.74,2-.91,2.75-1.1,2.57-.73s2.93-5-3.85-3.67-6.6,1.47-8.25,4.22h-2.19l-1.29-1.84-.18-1.83s-6.79,1.65-10.45,1.28c0,0-6.05-6.78-8.62-4.4h-5.31s2.75-14.48-5.13-9-6.79,6.23-6,11.91l-1.65.19s-1.47-4.22-4.4-3.49H558s-2.56-1.1-1.83,4.77l-1.47-.56s-6.05-6.41-5.87-1.46c0,0-6.23-1.83-9.9-.73,0,0-2-2.21-3.66-2.21,0,0-3.85-2-3.11-4.58,0,0-2.21-2.75-3.31-2.93l-1.64-1.47L526,107.31l-.91-.74s-1.47-.55-3.3,1.65-2.75,1.47-3.49,0-1.46-1.65-3.48-1.65-5.87-.18-5.86-6.78-.74-6.23-5.68-6.05-8.43-5.68-8.43-5.68l-1.47-4.59-14.12-.18-6.78,4S467.11,90.8,458.32,91c0,0-3.85,2-4.59,4.57a18.29,18.29,0,0,1-4.39.56c-2.38,0-5.32.18-6,.55s-1.84.54-.55,1.46,4.94.92,5.49.92,2.2,4-.91,8.25a17.45,17.45,0,0,1-7,5.68s-8.43,9.35-12.28,9.53-6.42.73-6.42,3.85c0,0-11.91.73-4.76,5.68,0,0,6.78,4.58.18,9.35,0,0-6.42,1.46-6.42,6.23,0,0-1.65,6.6-5.31,3.85,0,0-4-.92-5.87.36s-5,.18-5,.18-2.2-3.29-7.51-.91-9,2.75-15,.18a6.74,6.74,0,0,0-4.4,1.1c-2.39,1.46-3.3-2.2-3.3-2.2s-4.59-6.78-9.17-5.5-.91-3.48-.91-3.48,1.1-4.22-4.4-4c0,0-2.38.92-3.49-3.12s-1.28-3.48-4.76-4-5.5-8.25-1.83-7.33a7.8,7.8,0,0,0,6-.73s1.83-7.52,2.2-10.63.58-11.32,7-15.4c4.58-2.93-1.1-12.28-1.1-12.28s-.73-14.66-7.7-18.15c0,0-1.83-.91-2.57-6,0,0-6.19-10.75-9-4.95-2.2,4.59-6.05-.73-6.05-.73L328.36,60s1.65,3.67-5.86,2.38c0,0-4,4.95-4,5.5s-3.48-1.65-3.66-4.4-.18-6-.18-6-4.59-.55-5.14-.55-.73-.55-1.46-.73a3.25,3.25,0,0,0-2.94,1.28c-.91,1.1-2,3.67-9.9.18s-5.5,11.74-5.5,11.74-.73.73-2.2-.37-2.93-.92-4.94.73l-.37-2.38-4.95-.19s-3.48-.73,4-2.93l.55-5.13s-2.58-4.11-10.08-3.48c-4.4.36,1.47-3.12,1.47-3.12L273,49.35s-3.3,1.1-2.75-3.3c0,0-4.77-3.66-5.87-.36,0,0-2,7.33-12.1,10.26S242,72.63,242,72.63s-1.84,11.18-15.95,8.24c0,0-17.23-1.65-18.52-1.65s-8.24-.73-12.28-2.38-8.61,3.66-10.08,7.7-20.35,24.37-20.35,24.37-7.33,6.23-6.78-5c0,0-5.13-4.95-8.25,1.29l-.18,4.58a5.11,5.11,0,0,1-2.75,1.46c-1.28,0-4,1.47.18,6.42s-.55,5-3.11,5-10.82-2.93-18.15,12.09-16.12,29.79-20.9,40c-2.94,6.23-13.75,4.4-13.75,4.4s-4.44,4.44-5.13,8.61c-.37,2.2-6,5.13-6,5.13s-10.82,11.37-6.61,18.52c0,0,4.77,2.38,4.77,10.45,0,0,4.77-2.39,9,9.16,0,0,1.28,4-2,10.63,0,0-2,6.23-1.28,9.53,0,0-3.85,4.77-7.33,5.14,0,0-1.11,7.15-2,10.26s2.38,15.22,7.88.18c0,0,.37-9.16,8.62-3.11a8.43,8.43,0,0,0,6.41-4.22l9.35-3.29s11.55,2.56,15.22-4.22,10.08-13,10.08-4.21-3.67,11-8.25,10.81-8.07,1.83-8.07,7-8.07,2.75-8.07,2.75A7.66,7.66,0,0,0,102.7,275c-.19,5.14-5.69,3.85-9.9,3.85s-11.74,4.58-13.39,15L73,294s-1.28.19.92,5-8.07,9.34-11,8.42-13,6.78-13,6.78-2,4.4-2,5.69c0,0-12.46,8.61-12.46,15s.18,10.45.18,10.45,6.23,1.46,9.16,4.76l8.8.92,6.6,1.47s.55,4.58,4.22,6.23l-.19,4.95s11.92-3.3,13.75,9.72,1.28,14.66,6,16.31c0,0,4-1.83,9.17,2.57,0,0,4.95-6.24,13.38,1.83,0,0,3.85,1.47,10.81-3.66a16.1,16.1,0,0,1,14.85,3.12s9,5.86,9.35-3.86c0,0,9.72,2.39,9-10.63,0,0,5.68-6.41,6.41-14.84,0,0,9-5.68,16.32-3.12s14.66-.18,14.66-.18,2.75-2,9.53,11.19,8.24,16.68,8.24,16.68l.55,6.05s8.44,26.58,16.32,3.85c0,0-.37-5.14,8.25,1.1s12.09,9,14.29,3.3l2.75-.37s4.4-10.08,12.1,0A16.17,16.17,0,0,0,261.6,396l.37-6.41s13.43-3.9,19.43.73a7.85,7.85,0,0,1,2.93,7.7l2.57,1.29.36,5.49,2.2,2.94-.18,6.59s.36,5,6.78-2.74l4.95.55s11.36.36,10.08-17.05c0,0-1.1-2.57,3.3-1.83,0,0-1.09-13.75,9.9-9.53,0,0,15.58,2.93,7.52-4.4l.36-1.65s12.47-9.35,9.36-21.08c0,0,0-3.3,6.78-3.48s20.9-5.5,23.83-8.25S379.29,345.4,380,346.13Z"/><path class="cls-2" d="M313.07,167.93s.8,5.88-4.55,8.56c0,0-17.13,15.25-16.87,27.3s1.6,10.17,1.6,10.17,0,7,2.68,7.76,3.21,8.3,3.21,10.17,5.35,7.5,5.35,7.5,10.3,8.82,10.37,10.7l0,.11-.75,10.64s-10.51,1.47-13.2,4.4c0,0-5.87,4.4-8.8-2.44s-10-3.91-12-2.69-5.87,2.68-6.36,1.7l-.05-.25s-.27-3-6.16-4.85-4.28-5.63-4.28-5.63l.16-.08s7.83-4.39,6-8.94l5.89-8.56s0-5.62-2.94-7.76l-2.15-3.49-1.07-2.67-1.6-1.61-2.41-1.61-2.41-1.07L261.4,214l-1.34-1.61-1.87-2.41-1.33-2.41-.7-.69h0c1.07-.27,1.76-5.47-.64-8.14s-2.14-7.5-2.14-7.5c7.23.81,10.7-13.91,10.7-13.91a55.55,55.55,0,0,1,6.43-3.75c3.74-1.87-1.07-7.5-2.14-8s-2.14-2.68-2.14-2.68-1.07-5.88-1.34-6.69-1.34-.8-2.41-1.61-3.48-.26-3.48-.26-3.21-.54-4.28-.81a33.1,33.1,0,0,1-4.55-2.4c-10.44-2.68,1.07-12.32,1.07-12.32,1.07-4.28,9.91-1.87,9.91-1.87l1.87-1.34,2.68-1.34,4.28-.53h2.41l3.48-1.87c11.77,2.94,6.15,21.94,6.15,21.94l6.15,6.16c2.41,8.3,10.44,0,10.44,0h0c.15,2.43,1.72,3.78,5.89,4.29,0,0,7.77,1.07,8.57,3.75"/><path class="cls-2" d="M129.89,255.79s-1.23,15.64,10.75,13.2c0,0,4.15,5.13,4.64,7.82s3.42,1.23,6.6-.73c0,0,7.09,1.22,11-3.17s10.26-15.16,13.44-8.07l-1.22,3.67.24,1.95s2.69,4.65-.73,7.33c0,0-5.38,6.36,4.64,7.58s10.51,2.45,17.35-4.89,13.2-3.17,13.2-3.17,9.78,2.69,16.38-.49a31.75,31.75,0,0,1,8.31,5.62c4.64,4.16,9.35,11.12,9.35,12.59l.08-.29c.42-2.37,2-6.5,7.92-6.67,8.31-.25,9-3.91,9-3.91s2.2-14.91,9.29-14.91c6,0,4.11-6,3.69-7.2h0s-.38-3.29-6.27-5.16-4.28-5.63-4.28-5.63c-5.36.8-16.33-.8-16.33-.8-1.6-4.55-9.9-4.82-9.9-4.82s-.8-5.09-3.22-7.23-1.6-11-1.6-11-6.42-5.36-6.15-11.51-4.28-3-4.28-3-.27,7.23-12.32,16.33-14.45,2.41-20.07-1.07-14.72.53-17.67,2.67-8.57,2.94-5.35,12-4.56,8.57-4.56,8.57-.53-3.21-10.43-2.41-8.3-2.41-8.3-2.41l-.72-7.68s-2.86,3.47-10.63,6.17C131.78,245.19,132.87,252.5,129.89,255.79Z"/><path class="cls-2" d="M262,389.56c-1.72-1.81-1.73-12.94-1.73-12.94l-5-4.08-.94-3.76-1.57-8.15s5-8.47,1.57-8.79-10.66-8.78-10.66-8.78l-4.08-8.15c-7.21-1.26-5-4.39-6.89-6.59s-9.1-3.76-12.23-.94-10.67,5.95-10.67,5.95-5.95-1.88-14.42.32-9.72,7.21-9.72,7.21l8.78,13.48,6.9,4.71c4.7,9.72,11,12.54,11,12.54l2.82,1.57a18.21,18.21,0,0,0,6.58,10.35c10.67,5.65,5.33,13.8,5.33,13.8v.16a25,25,0,0,1,3.81,2.35c8.61,6.23,12.09,9,14.29,3.3l2.75-.37s4.4-10.08,12.1,0A16.17,16.17,0,0,0,261.6,396l.37-6.41Z"/><path class="cls-3" d="M371.1,345.27s-8.07-5.37-3.67-15.64c0,0-.48-3.18-2.2-3.91s-4.4-4.65-4.4-4.65-.72-5.37-4.15-3.17-5.86,3.42-5.86,3.42h-12l-5.13-1.71-10.27.24s-6.6-.24,2-5.87l4.15-4.88.74-4.65.49-5.62,4.64-6.84.49-1.47-4.4-6.35L331,270s3.92-7.09,11-7.82,15.15-7.82,8.79-12.22l-3.17-1.71-3.91-2-4.16-3.17-2.2-2.45-2.69-1.46H333l-2.44,2-3.18,1.22a23.65,23.65,0,0,1-2.93.49c-.74,0-4.89,0-5.13,1.95s-3.18,5.63-4.4,5.38L314.16,261s-10.5,1.46-13.19,4.39c0,0-5.87,4.4-8.8-2.44s-10-3.91-12-2.69-5.87,2.69-6.35,1.71,3.42,7.33-3.67,7.33-9.29,14.91-9.29,14.91-.73,3.66-9,3.91-8.07,8.31-8.07,8.31-1.46,9-6.84,10.26-5.6,6.83-2.69,12.71c.76,1.55-1.13,9.67-1.13,9.67"/><path class="cls-4" d="M371,345.27s-8.07-5.37-3.67-15.64c0,0-.49-3.18-2.2-3.91s-4.39-4.65-4.39-4.65-.74-5.37-4.16-3.17-5.87,3.42-5.87,3.42h-12l-5.13-1.71-10.27.24s-6.6-.24,2-5.87l4.16-4.88.73-4.65.49-5.62,4.64-6.84.49-1.47-4.4-6.35L330.9,270s3.91-7.09,11-7.82,15.16-7.82,8.8-12.22l-3.17-1.71-3.91-2-4.16-3.17-2.2-2.45-2.69-1.46h-1.7l-2.45,2-3.18,1.22a23.65,23.65,0,0,1-2.93.49c-.73,0-4.89,0-5.13,1.95s-3.18,5.63-4.4,5.38L314,261s-10.51,1.46-13.19,4.39c0,0-5.87,4.4-8.8-2.44s-10-3.91-12-2.69-5.86,2.69-6.35,1.71,3.42,7.33-3.67,7.33-9.29,14.91-9.29,14.91-.73,3.66-9,3.91-8.07,8.31-8.07,8.31-1.47,9-6.84,10.26-5.6,6.83-2.69,12.71C234.87,320.9,233,329,233,329l.17.51c1.22,2.14-.37,4.22,6.27,5.38l4.07,8.15s7.22,8.47,10.66,8.78-1.57,8.79-1.57,8.79l1.57,8.15.94,3.76,5,4.08s0,11.13,1.73,12.94h0l.12.18v-.18s13.43-3.9,19.43.73a7.85,7.85,0,0,1,2.93,7.7l2.57,1.29.36,5.49,2.2,2.94-.18,6.59s.36,5,6.78-2.74l4.95.55s11.36.36,10.08-17.05c0,0-1.1-2.57,3.3-1.83,0,0-1.09-13.75,9.9-9.53,0,0,15.58,2.93,7.52-4.4l.36-1.65s12.47-9.35,9.36-21.08c0,0,0-3.3,6.78-3.48,6.12-.16,18.2-4.51,22.66-7.37Z"/><path class="cls-3" d="M113,268.5a29.44,29.44,0,0,0,15.4,13.44s8.06,10,5.86,18.58c0,0,0,8.06,4.15,11.49a30.18,30.18,0,0,1,.24,23.21c-5.13,12.22-16.61,20.29.25,26.4l16.61,8.06"/><path class="cls-4" d="M155.53,369.68l-16.61-8.06c-16.86-6.11-5.38-14.18-.25-26.4a30.18,30.18,0,0,0-.24-23.21c-4.15-3.43-4.15-11.49-4.15-11.49,2.2-8.55-5.86-18.58-5.86-18.58a29.59,29.59,0,0,1-15.36-13.35,13.21,13.21,0,0,1-5.42-.39A7.66,7.66,0,0,0,102.7,275c-.19,5.14-5.69,3.85-9.9,3.85s-11.74,4.58-13.39,15L73,294s-1.28.19.92,5-8.07,9.34-11,8.42-13,6.78-13,6.78-2,4.4-2,5.69c0,0-12.46,8.61-12.46,15s.18,10.45.18,10.45,6.23,1.46,9.16,4.76l8.8.92,6.6,1.47s.55,4.58,4.22,6.23l-.19,4.95s11.92-3.3,13.75,9.72,1.28,14.66,6,16.31c0,0,4-1.83,9.17,2.57,0,0,4.95-6.24,13.38,1.83,0,0,3.85,1.47,10.81-3.66a16.1,16.1,0,0,1,14.85,3.12s9,5.86,9.35-3.86c0,0,9.72,2.39,9-10.63a30.3,30.3,0,0,0,5.2-9.26Z"/><path class="cls-3" d="M129.89,255.79s-1.23,15.64,10.75,13.2c0,0,4.15,5.13,4.64,7.82s3.42,1.23,6.6-.73c0,0,7.09,1.22,11-3.17s10.26-15.16,13.44-8.07l-1.22,3.67.24,1.95s2.69,4.65-.73,7.33c0,0-5.38,6.36,4.64,7.58s10.51,2.45,17.35-4.89,13.2-3.17,13.2-3.17,9.78,2.69,16.38-.49a31.75,31.75,0,0,1,8.31,5.62c4.64,4.16,9.35,11.12,9.35,12.59"/><path class="cls-3" d="M142.33,238.67l.8,8s-1.61,3.21,8.3,2.41,10.43,2.41,10.43,2.41,7.77.54,4.56-8.57,2.4-9.9,5.35-12,12-6.15,17.67-2.67,8,10.17,20.07,1.07S221.83,213,221.83,213s4.54-3.21,4.28,3,6.15,11.51,6.15,11.51-.8,8.83,1.6,11,3.22,7.23,3.22,7.23,8.3.27,9.9,4.82c0,0,11,1.6,16.33.8,0,0-1.61,3.75,4.28,5.63s6.25,5,6.25,5"/><path class="cls-5" d="M619.8,120.88c-6.78,1.28-6.6,1.47-8.25,4.22h-2.19l-1.29-1.83-.18-1.83s-6.79,1.65-10.45,1.28c0,0-6.05-6.78-8.62-4.4h-5.31s2.75-14.48-5.13-9-6.79,6.23-6.06,11.91l-1.64.18s-1.1-3.15-3.3-3.52a19.4,19.4,0,0,1-7.76,13.49,31.55,31.55,0,0,0-1.61,10.7c0,6.7-11.51,5.89-14.45,6.42s-12.58.54-15,.54-16.86-1.08-10.44,11.77l7.23,7s3.21,4.82,3.21,7.5,4.34,4.06,4.34,4.06l.37-3.3,3.3,4,1.83-2.57,7,.74-1.1,1.83-2.93,2.2-3.3.36-1.1,2.2,4,2.57s2.2-5.13,5.5,1.1c0,0,4.24,2.23,1.56-3.84s3.39-5.92,3.39-5.92,4,1.51,4.86-3.71,6.51-5.41,8.89-5l.92-.55s8.43,1.1,2.38-2.75c0,0,0-8.8,3.3-3.67l1.1.37s6.41-1.83,3.67,3.49,3.66,3.29,3.66,3.29h1.47v-5.13l4.4-5.31.73-.74v-2.2s5.14-1.64,2.39,3.49c0,0-6.05,5.86-.92,7.88s6.23,2.57.73,4.21l-.73.55s-1.47,4.77,3.11,3.3,5.87,1.1,5.87,1.1,2.93,1.47,2.75-1.46,3.85-2,5.5-2,2.57-.91.18-5.13,2.75-.73,2.75-.73a2,2,0,0,0,2.56-2.2l5.14-8.07-3.12.55h-4.76s-4.77,7.52-5.32,1.29c0,0-1.83-3.85,3.48-3.3,0,0,2.57,0,.19-3.67v-4.77s5.32-1.28,8.25-.91l.18-2.57-.55-.55v-1.28h1.84s5.68-.18,0-4L615,136.64l-.73-1.1v-1.65l-.73-1.46V131l.55-.18h1.47l.73-.55V129L616,128l.37-.74,2-.91,2.75-1.1,2.57-.73S626.58,119.6,619.8,120.88Z"/><path class="cls-5" d="M494.05,218.56c-1.47-4.76.36-4.76,1.83-2.93l1.47-1.83v-3.3l1.83-3.3-5.87-.37s-.73-7.7-5.86-2.2l-4,.74,2.2-8.44h0L478,199.09s-6.69,2.68-6.69-10.17l-3.21-5.35a21.27,21.27,0,0,1,3.48-10.17l-.81-13.92s-3.48-4.82-4.54-5.35l-1.08-4.82s-1.87-1.34-5.88.8c0,0-8.57,1.34-13.12.53,0,0-3.74-.53-4.28,5.89,0,0,1.07,3.48-8.57,2.68a35.35,35.35,0,0,0-17.13,2.94s-4.28.8-6.69-1.61-11.24,1.88-11.24,1.88l-.21.08a25.69,25.69,0,0,1-2.47,11.16c-4.82,11.24,2.41,20.87,8.3,27s15.25,6.69,15.25,6.69l5.62,2.15s7,1.07-1.6,7.49l-4.56,8.56s-4,3.22-5.08,11.78c0,0-2.68,3.21-8.57,4,0,0-7.5.8-3.22,8.56,0,0,.81,1.87,1.08,8.3l1.87,7.49s-5.89,9.9-7.76,12.58a31.61,31.61,0,0,1-4.29,4.82l-.53,5.35.53,9.64s4.55-.27,6.69.54l.58.55c.27.07,4.14.91,7.67-4l2.57,3.31s7.7-10.27,6.59-1.84c0,0,4.41,2.94,4-6.23l2.19-2.93s-6.22-5.87,1.47-2.93,4.77-7.7,4.77-7.7-3.3-6.24,3.67-5.87l3.3-1.1,4-4s1.83-7-5.13-7c0,0-4-.73,3.3-6.59l-1.47-2.57-2.2-2.94v-2.56l.37-4,.37-1.1,1.46-.37h4.4l1.47-.36,1.1-.37c.73,1.1,1.1.73,1.47,2.2s2.93,2.93,2.93,2.93l.36-3.3V238l1.84-4.4,4.4,1.47v1.83l-1.47.74s1.84,8.06-3.3,12.82c0,0-7.7,5.5,3.3,4.4l6.23-.36s2.93-4.77,5.87-2.93l2.2-.74,1.47-2.2,2.56,1.84,3.3-1.1s9.53-.74,3.3-11.37l-2.93-10.63,1.46-.73,1.84,1.1,1.1-.74L479,221.5l1.84-6.6s9.9-5.13,9.9,7C490.75,221.86,495.51,223.33,494.05,218.56Z"/><path class="cls-3" d="M353.24,253.41l.81,5.09,7.75,2.14s5.36,4.82,6.16,6.7c0,0,24.09,9.36,24.09,21.14"/><path class="cls-3" d="M346.56,135.11s-8-.27-11.24,2.41-8.57,5.08-8.83,13.91c0,0-.81,4-7.23,6.43l-.8,1.33s1.87,12.05-5.36,8.84c0,0,.81,5.89-4.55,8.56,0,0-17.13,15.26-16.86,27.3s1.6,10.17,1.6,10.17,0,7,2.67,7.77,3.22,8.29,3.22,10.17,5.35,7.49,5.35,7.49,10.3,8.83,10.37,10.7"/><path class="cls-3" d="M263.31,251.26s8-4.55,6.16-9.1l5.88-8.56s0-5.62-2.94-7.76l-2.14-3.48-1.07-2.68-1.61-1.6-2.4-1.61-2.41-1.07-1.34-1.34-1.34-1.61L258.23,210l-1.34-2.41-.8-.8-9.1.27-8.84,4.28s-10.44,1.07-12.85,1.07"/><path class="cls-3" d="M295.18,57.6l-.27,18.08A40.65,40.65,0,0,0,300,82.37c2.67,2.68.8,9.64-2.95,13.12s-9.1,4-8.56,11a34.12,34.12,0,0,1-1.62,12.85s4.29,7.49,11.78,8.3,6.7-4.28,6.69,16.33l-.53,2.41s-13.66,16.32-.27,17.93c0,0,7.76,1.07,8.56,3.75"/><path class="cls-3" d="M298.65,160s-8,8.29-10.44,0l-6.16-6.16s5.63-19-6.15-21.94l-3.48,1.87H270l-4.28.53-2.67,1.34L261.18,137s-8.84-2.41-9.91,1.87c0,0-11.5,9.64-1.07,12.32a33.54,33.54,0,0,0,4.55,2.41c1.07.26,4.29.8,4.29.8s2.41-.54,3.48.27,2.14.8,2.41,1.6,1.33,6.69,1.33,6.69,1.07,2.15,2.14,2.68,5.89,6.16,2.14,8a56.56,56.56,0,0,0-6.42,3.75s-3.48,14.72-10.71,13.92c0,0-.27,4.81,2.14,7.49s1.61,7.76.54,8"/><path class="cls-3" d="M243.52,65a52.52,52.52,0,0,0,2.94,7c1.08,1.61-2.13,7-4.55,9.9,0,0-.8,3.48,1.88,5.36s-2.15,8-2.15,8-2.67,8.57-7.49,2.68-3.48-3.75-6.69,2.41c0,0-.81,6.42-3.48,7.76,0,0-1.88,8.3,6.69,9.37,0,0,4,1.61,1.87,9.37,0,0-1.87,9.63.53,13.11s3.75,12.32-1.87,13.12-5.62,5.89-4.55,7.23,3.21,7.22,10.17,4.82,7.49-3.22,8,6.15c0,0,.53,5.62,3.75,7.76s4.28,8.57,4.28,8.57l.53,3.75"/><path class="cls-4" d="M305.1,143.69c0-20.61.8-15.52-6.69-16.33s-11.78-8.29-11.78-8.29a34.24,34.24,0,0,0,1.61-12.85c-.53-7,4.82-7.49,8.57-11s5.62-10.44,2.94-13.12a41,41,0,0,1-5.08-6.69l.27-17.93c-7.58-3-5.26,11.83-5.26,11.83s-.73.73-2.2-.37-2.93-.92-4.94.73l-.37-2.38-4.95-.19s-3.48-.73,4-2.93l.55-5.13s-2.58-4.11-10.08-3.48c-4.4.36,1.47-3.12,1.47-3.12L273,49.35s-3.3,1.1-2.75-3.3c0,0-4.77-3.66-5.87-.36,0,0-2,7.33-12.1,10.26-4.95,1.44-7.51,5.5-8.84,9.25a45.34,45.34,0,0,0,2.77,6.49c1.07,1.6-2.14,7-4.55,9.9,0,0-.8,3.48,1.88,5.35s-2.15,8-2.15,8-2.67,8.57-7.49,2.68-3.48-3.75-6.69,2.41c0,0-.81,6.42-3.48,7.76,0,0-1.88,8.29,6.68,9.37,0,0,4,1.6,1.88,9.36,0,0-1.88,9.64.53,13.12S236.58,152,231,152.78s-5.61,5.89-4.55,7.23,3.22,7.23,10.18,4.82,7.49-3.21,8,6.15c0,0,.54,5.63,3.75,7.77s4.28,8.57,4.28,8.57l.51,3.51,0,.23c7.23.81,10.71-13.92,10.71-13.92a55.71,55.71,0,0,1,6.42-3.74c3.75-1.87-1.07-7.5-2.14-8s-2.14-2.68-2.14-2.68S265,156.8,264.68,156s-1.34-.8-2.41-1.61-3.48-.26-3.48-.26-3.21-.54-4.28-.81a32.93,32.93,0,0,1-4.55-2.41C239.52,148.24,251,138.6,251,138.6c1.07-4.28,9.91-1.87,9.91-1.87l1.87-1.34,2.68-1.34,4.28-.53h2.41l3.48-1.88c11.77,3,6.15,22,6.15,22l6.16,6.16c2.4,8.3,10.44,0,10.44,0l.11-.08c-.9-5.35,6-13.57,6-13.57Z"/><path class="cls-3" d="M110.33,164.23l4.37,1.9s17.1,11,22.8,2.29,7-10.07,16.34-6.84,8.17,3.23,6.46,13.68-6.85,20.33,6.26,43.32c0,0,5.13.19,8-9.31s8.74-10.26,10.26-11.21-.38-6.65,7.6-10.07c0,0,2.48-1,1.53-8.17a9.78,9.78,0,0,1,6.46-5.13c4.56-.95-1.33-8.74-1.33-8.74s-8.36-11,1.71-13.87,7.79-9.3,5.51-11.58-3-10.27-.57-18.25l.19-5.89s1.71-7.79,7-4.18c0,0,3.23,6.08,6.08-.37l5-3.75"/><path class="cls-3" d="M131.79,245.17s7.22-1.52,14.06-10.06,12.73-9.32,12.73-9.32,1.83-.22,3.42-3.22a10.8,10.8,0,0,1,4.56-4"/><path class="cls-5" d="M223.59,107.81l-5,3.75c-2.86,6.46-6.09.38-6.09.38-5.31-3.61-7,4.18-7,4.18l-.19,5.89c-2.47,8-1.71,16,.57,18.24s4.56,8.74-5.51,11.59-1.71,13.87-1.71,13.87,5.89,7.79,1.33,8.74a9.84,9.84,0,0,0-6.47,5.13c1,7.22-1.51,8.17-1.51,8.17-8,3.42-6.08,9.12-7.61,10.07S177,199.53,174.15,209s-8,9.31-8,9.31l-.07,0a10.5,10.5,0,0,0-4.49,3.94c-1.59,3-3.42,3.23-3.42,3.23s-5.89.76-12.73,9.31a36.76,36.76,0,0,1-3.4,3.7l-.12.09.81,7.94s-1.61,3.22,8.3,2.41,10.43,2.41,10.43,2.41,7.76.54,4.56-8.57,2.4-9.9,5.35-12,12-6.15,17.66-2.67,8,10.17,20.08,1.07,12.32-16.33,12.32-16.33,1.94-1.37,3.22-.6l.24-.07c2.41,0,12.85-1.07,12.85-1.07l8.84-4.28,9-.27h.12c1.07-.27,1.87-5.36-.54-8s-2.14-7.49-2.14-7.49v-.16l-.52-3.59s-1.07-6.42-4.29-8.56-3.74-7.77-3.74-7.77c-.54-9.36-1.07-8.56-8-6.15s-9.1-3.48-10.17-4.82-1.07-6.43,4.55-7.23,4.29-9.63,1.87-13.11-.53-13.12-.53-13.12c2.14-7.76-1.87-9.37-1.87-9.37-8.57-1.07-6.63-9.31-6.63-9.31Z"/><path class="cls-4" d="M160.3,175.26c1.71-10.45,2.85-10.45-6.46-13.68s-10.64-1.9-16.34,6.84-22.8-2.29-22.8-2.29l-4.37-1.9-.06,0c-2.06,3.85-3.9,7.39-5.36,10.5-2.94,6.23-13.75,4.4-13.75,4.4s-4.44,4.44-5.13,8.61c-.37,2.2-6,5.13-6,5.13s-10.82,11.37-6.61,18.52c0,0,4.77,2.38,4.77,10.45,0,0,4.77-2.39,9,9.16,0,0,1.28,4-2,10.63,0,0-2,6.23-1.28,9.53,0,0-3.85,4.77-7.33,5.14,0,0-1.11,7.15-2,10.26s2.38,15.22,7.88.18c0,0,.37-9.16,8.62-3.11a8.43,8.43,0,0,0,6.41-4.22l9.35-3.29s11.55,2.56,15.22-4.22c3.24-6,8.62-11.54,9.83-6.69v0s7.22-1.52,14.06-10.06,12.73-9.32,12.73-9.32,1.83-.22,3.42-3.22a10.15,10.15,0,0,1,4.4-3.88v-.32C153.29,195.37,158.59,185.71,160.3,175.26Z"/><path class="cls-2" d="M533.23,179.61c-.1-.09-.2-.18-.32-.27h0s-4.35-1.39-4.34-4.06-3.21-7.5-3.21-7.5l-7.23-7c-6.42-12.85,8-11.77,10.44-11.77s12,0,15-.54,14.45.28,14.45-6.42a31.55,31.55,0,0,1,1.61-10.7,19.4,19.4,0,0,0,7.76-13.49,2.75,2.75,0,0,0-1.1,0H558s-2.56-1.1-1.83,4.77l-1.47-.56s-6.05-6.41-5.87-1.46c0,0-6.23-1.83-9.9-.73,0,0-2-2.21-3.66-2.21,0,0-3.85-2-3.11-4.58,0,0-2.21-2.75-3.31-2.93l-1.64-1.47L526,107.31l-.91-.74s-1.47-.55-3.3,1.65-2.75,1.47-3.49,0-1.46-1.65-3.48-1.65-5.87-.18-5.86-6.78-.74-6.23-5.68-6.05-8.43-5.68-8.43-5.68l-1.47-4.59-14.12-.18-6.78,4S467.11,90.8,458.32,91c0,0-3.85,2-4.59,4.57a18.29,18.29,0,0,1-4.39.56c-2.38,0-5.32.18-6,.55s-1.84.54-.55,1.46,4.94.92,5.49.92,2.2,4-.91,8.25a17.45,17.45,0,0,1-7,5.68s-8.43,9.35-12.28,9.53-6.42.73-6.42,3.85c0,0-11.91.73-4.76,5.68,0,0,6.78,4.58.18,9.35,0,0-6.42,1.46-6.42,6.23,0,0-1.65,6.6-5.31,3.85,0,0-4-.92-5.87.36s-5,.18-5,.18l0,0a14.41,14.41,0,0,0,1,3.15,12.06,12.06,0,0,1,2.41,7.31h.28s8.83-4.29,11.24-1.88,6.69,1.61,6.69,1.61a35.35,35.35,0,0,1,17.13-2.94c9.64.8,8.57-2.68,8.57-2.68.54-6.42,4.28-5.89,4.28-5.89,4.55.81,13.12-.53,13.12-.53,4-2.14,5.88-.8,5.88-.8l1.08,4.82c1.06.53,4.54,5.35,4.54,5.35l.81,13.92a21.27,21.27,0,0,0-3.48,10.17l3.21,5.35c0,12.85,6.69,10.17,6.69,10.17l7.09-2.07.51.07,0-.16L495.88,198a5.52,5.52,0,0,0,0,2h0a2.63,2.63,0,0,0,.08.3,3,3,0,0,0,.86,1.35.24.24,0,0,0,.09.08l.11.09a5.25,5.25,0,0,0,3,.85,13.29,13.29,0,0,0,2.49-.23l-.06-2.39-.31-3.11,2.2-1.1.73,4.76,2.94-3.66.08-.05.1-.13,8.25-4.95h12.83l.37-4,1.89-.95C537.05,183.64,534.26,180.52,533.23,179.61Z"/><path class="cls-3" d="M394.52,152a10.76,10.76,0,0,0,1.29,3.45c1.07,1.87,4.55,7-.27,18.2s2.41,20.87,8.3,27,15.25,6.69,15.25,6.69l5.62,2.15s7,1.07-1.6,7.49l-4.56,8.56s-4,3.22-5.08,11.78c0,0-2.68,3.21-8.57,4,0,0-7.5.8-3.22,8.56,0,0,.81,1.87,1.08,8.3l1.87,7.49s-5.89,9.9-7.76,12.58a31.61,31.61,0,0,1-4.29,4.82l-.53,5.35.53,9.64s4.55-.27,6.69.54"/><path class="cls-2" d="M399.14,298.66c-2.14-.81-6.69-.54-6.69-.54l-.53-9.64c0-11.78-24.09-21.14-24.09-21.14-.8-1.88-6.15-6.7-6.15-6.7l-7.77-2.14-.74-4.63-.31.11c-.28,3.77-5.95,7.66-11.09,8.19-7.09.73-11,7.82-11,7.82l.49,14.18,4.4,6.35-.49,1.47-4.64,6.84-.49,5.62-.74,4.65L325.14,314c-8.56,5.63-2,5.87-2,5.87l10.27-.24,5.13,1.71h12s2.44-1.22,5.86-3.42,4.15,3.17,4.15,3.17,2.7,3.91,4.4,4.65,2.2,3.91,2.2,3.91c-4.4,10.27,3.67,15.64,3.67,15.64v.45l0,.06a8.37,8.37,0,0,0,1.27-.94c2.93-2.74,7.15.56,7.88,1.29,0,0,1.83-4,.73-7.33s0-11,8.44-13.57l6.6-5.86s.37-8.07,3.3-9.9l.36-2.93v-3.3l.34-3.63Z"/><path class="cls-2" d="M424.61,209.53,419,207.38s-9.37-.53-15.26-6.69-13.11-15.79-8.29-27,1.33-16.33.26-18.2a10.57,10.57,0,0,1-1.28-3.45v-.11c-.45-.56-2.71-2.91-7.42-.8-5.32,2.38-9,2.75-15,.18a6.74,6.74,0,0,0-4.4,1.1c-2.39,1.46-3.3-2.2-3.3-2.2s-4.59-6.78-9.17-5.5-.91-3.48-.91-3.48,1.1-4.22-4.4-4c0,0-2,.74-3.14-2.12l-.2.07s-8-.27-11.24,2.41-8.57,5.08-8.84,13.91c0,0-.8,4-7.23,6.43l-.8,1.33s1.87,12.05-5.36,8.84c0,0,.81,5.89-4.55,8.56,0,0-17.13,15.26-16.86,27.3s1.6,10.17,1.6,10.17,0,7,2.68,7.77,3.21,8.29,3.21,10.17,5.35,7.49,5.35,7.49,10.65,8.6,10.72,10.47c1.22.25,3.74-3.46,4-5.42s4.39-1.95,5.13-1.95a23.65,23.65,0,0,0,2.93-.49l3.18-1.22,2.44-1.95h1.71l2.69,1.46,2.2,2.45,4.16,3.17,3.91,2,3.17,1.71a4.69,4.69,0,0,1,2.3,3.46l1,5.36,7.76,2.14s5.35,4.82,6.15,6.7c0,0,24.09,8.94,24.09,20.72v.42l.54-5.35a31.25,31.25,0,0,0,4.28-4.82c1.87-2.68,7.76-12.58,7.76-12.58l-1.87-7.49c-.27-6.43-1.07-8.3-1.07-8.3-4.28-7.76,3.22-8.56,3.22-8.56,5.88-.81,8.56-4,8.56-4,1.07-8.56,5.08-11.78,5.08-11.78L423,217C431.56,210.6,424.61,209.53,424.61,209.53Z"/><path class="cls-4" d="M346.47,135.5l0-.05c-.07-.19-.14-.4-.21-.62-1.09-4-1.28-3.49-4.76-4s-5.5-8.24-1.83-7.33a7.8,7.8,0,0,0,6-.73s1.83-7.52,2.2-10.63.58-11.32,7-15.4c4.58-2.93-1.1-12.28-1.1-12.28s-.73-14.67-7.7-18.15c0,0-1.83-.91-2.57-6,0,0-6.19-10.75-9-4.95-2.2,4.59-6.05-.73-6.05-.73l-.19,6.24s1.65,3.66-5.86,2.37c0,0-4,4.95-4,5.5S315,67,314.8,64.25s-.18-6-.18-6-4.59-.55-5.14-.55-.73-.55-1.46-.73a3.25,3.25,0,0,0-2.94,1.28c-.91,1.1-2,3.67-9.9.18l-.1,0-.26,17.72a40.31,40.31,0,0,0,5.08,6.69c2.68,2.68.8,9.64-2.94,13.12s-9.1,4-8.57,11a34,34,0,0,1-1.61,12.85s4.28,7.49,11.78,8.3,6.69-4.28,6.69,16.33l-.54,2.41s-13.65,16.32-.27,17.93c0,0,7.66,1,8.46,3.65l.11.1c7.23,3.21,5.36-8.84,5.36-8.84l.8-1.33c6.42-2.41,7.22-6.43,7.22-6.43.27-8.83,5.62-11.24,8.84-13.91S346.47,135.5,346.47,135.5Z"/><path class="cls-2" d="M246.13,72a44.48,44.48,0,0,1-2.79-6.53A25.82,25.82,0,0,0,242,72.63s-1.84,11.18-15.95,8.24c0,0-17.23-1.65-18.52-1.65s-8.24-.73-12.28-2.38-8.61,3.66-10.08,7.7-20.35,24.37-20.35,24.37-7.33,6.23-6.78-5c0,0-5.13-4.95-8.25,1.29l-.18,4.58a5.11,5.11,0,0,1-2.75,1.46c-1.28,0-4,1.47.18,6.42s-.55,5-3.11,5-10.82-2.93-18.15,12.09c-5.13,10.52-11,20.89-15.65,29.66l4.2,1.82s17.1,11,22.8,2.28,7-10.06,16.34-6.83,8.17,3.23,6.46,13.68-6.84,20.33,6.27,43.32c0,0,5.13.19,8-9.31s8.74-10.26,10.26-11.21-.38-6.65,7.6-10.07c0,0,2.47-1,1.52-8.17a9.81,9.81,0,0,1,6.46-5.13c4.56-.95-1.33-8.74-1.33-8.74s-8.36-11,1.71-13.87,7.8-9.31,5.51-11.59-3-10.26-.57-18.24l.2-5.89s1.71-7.79,7-4.18c0,0,3.23,6.09,6.08-.38l5-3.74c2.68-1.34,3.48-7.76,3.48-7.76,3.22-6.16,1.88-8.3,6.69-2.41s7.5-2.68,7.5-2.68,4.82-6.15,2.14-8-1.87-5.36-1.87-5.36C244,79,247.2,73.63,246.13,72Z"/><path class="cls-2" d="M234.75,282.44a31.75,31.75,0,0,0-8.31-5.62c-6.61,3.18-16.38.49-16.38.49s-6.35-4.16-13.2,3.17-7.33,6.11-17.35,4.89-4.64-7.58-4.64-7.58c3.42-2.68.73-7.33.73-7.33l-.24-1.95,1.22-3.67c-3.18-7.09-9.53,3.67-13.44,8.07s-11,3.17-11,3.17c-3.18,2-6.11,3.42-6.6.73S140.9,269,140.9,269c-12,2.44-10.75-13.2-10.75-13.2l-.13.15c-1.5,2-3.74,2.64-6.24,2.54a9.57,9.57,0,0,0-4.89.94,6.31,6.31,0,0,0-2,1.81c0,.09-.11.16-.16.25l-.08.13a6.79,6.79,0,0,0-.82,2.62,8.31,8.31,0,0,0,0,1.5,3.53,3.53,0,0,1-.24.87,3,3,0,0,1-2.24,1.93,29.49,29.49,0,0,0,15.38,13.41s8.06,10,5.86,18.58c0,0,0,8.06,4.15,11.49a30.18,30.18,0,0,1,.24,23.21c-5.13,12.22-16.61,20.29.25,26.4l16.6,8.05a23.57,23.57,0,0,0,1.16-5.42s9-5.68,16.32-3.12,14.66-.18,14.66-.18,2.75-2,9.53,11.19,8.24,16.68,8.24,16.68l.55,6.05s8.44,26.58,16.32,3.85c0,0-.25-3.57,4.66-1.14l0-.11v-.16s5.34-8.15-5.33-13.8a18.21,18.21,0,0,1-6.58-10.35l-2.82-1.57s-6.27-2.82-11-12.54l-6.9-4.71-8.78-13.48s1.25-5,9.72-7.21,14.42-.32,14.42-.32,7.53-3.13,10.67-5.95,10.35-1.25,12.23.94l.31.1s1.91-7.52,1.15-9.07c-2.91-5.88-2.69-11.49,2.69-12.71s6.84-10.26,6.84-10.26l.2-1.35C244.1,293.56,239.39,286.6,234.75,282.44Z"/><path class="cls-5" d="M263.4,251.16s8-4.55,6.16-9.1l5.89-8.56s0-5.62-2.94-7.76l-2.14-3.49-1.07-2.67L267.69,218l-2.41-1.61-2.41-1.07L261.53,214l-1.34-1.61-1.87-2.41L257,207.53l-.8-.8-9.1.26-8.83,4.29s-10.44,1.07-12.85,1.07a5.05,5.05,0,0,1,.84,3.4c-.27,6.15,6.15,11.51,6.15,11.51s-.8,8.83,1.61,11,3.21,7.23,3.21,7.23,8.29.27,9.9,4.82c0,0,11,1.6,16.33.8"/><polygon class="cls-6" points="225.3 208.49 225.63 211.65 227.19 214.62 249.18 214.78 256.01 207.37 256.01 203.86 227.1 206.83 225.3 208.49"/></svg>