<svg id="图层_1" data-name="图层 1" xmlns="http://www.w3.org/2000/svg" viewBox="0 0 651.51 651.51"><defs><style>.cls-1{fill:#831c20;}.cls-1,.cls-2,.cls-3,.cls-4{stroke:#545555;}.cls-2{fill:#003550;}.cls-3{fill:#1a1a1a;}.cls-4{fill:none;}</style></defs><title>江蘇上海</title><path class="cls-1" d="M496.09,586.06a50.68,50.68,0,0,1,5.81-.91s2.87-.89,3.83-1.15l3-2.4,3.82-4.39s4.14-2.38,6.34-2l8.29-.79,10.87-1s6.5-.93,11.82-1.67c0,0,6.51-.76,8.14-.65,0,0,6-.46,6.34-3.58a19.46,19.46,0,0,0,0-12.65l-1.85-4s-3.08-6.48-3.48-7.58-2.21-5.56-2.21-5.56-3.61-9.11-6.26-11.67l-1.15-2.13s-2.91-5.49-5.85-7.2c0,0-2.62-1.15-3-2.15L538.75,513l-1.57-1.08-2.8-2a16.91,16.91,0,0,0-3-1.07l-2.74-1.05s-1.46-1-2.19-.57a3.54,3.54,0,0,0-1.26-2.25c-1-.61-3.26-2.06-3.26-2.06l-1.68-1.3s-1.24-2.46-2.29-2.53L516.52,498l-1.31-1.39-3.64-1.76-1.36-.63.4-.73s3.51-3.33,4.62-4.12c0,0,6.2,3.66,10.25,4.47s5.69,1,5.69,1,6,1.59,7.59,2.23l3.88,1.56s15.32,6.11,17.73,6.92a21.47,21.47,0,0,0,8.25,1.09s7.09-12.94,3.16-15.69-9.72-3.68-9.72-3.68l-1.33.57-.07-.66.51-.61L558.22,485l-2.28-1s-3-.85-3.79-1.12a18.87,18.87,0,0,1-3-2s-2.24-1.66-3.22-1.08a24.78,24.78,0,0,1-2.92-1.92s-4.55-.31-7.18-3.08-3.08-3.12-3.08-3.12a10.71,10.71,0,0,1-2.08-2.31l-1-.6s-.78,4-1.7-1.6c0,0,.88.75-1.93-.27l-8-2.53s-13-7.78-16.29-8.48c-2.69-.57-8.84,1.42-9.3,2.39s-6,5.44-3.86,7.32,25.35,23.56,26.72,23.84l-5.32,4.94a35.88,35.88,0,0,1-5.18-1.86s-1.25,1-1.28,1.47c0,0-5.06,3-6.43-.07a7.36,7.36,0,0,0-2.58,1.48c-1.26,1.1.25-1.07-1.94-.94s-4.54-1.72-3.87-1.4a4.18,4.18,0,0,0-1.38,1.82c-.27,1-2-.56-2-.56a10.94,10.94,0,0,0-6.47-2.62s-2.36,8.22-3.93,8.11.92-12.18,1.39-11.79,8.88,21.45-5.48,5.85l.2,1.48s.29,2.64-3.16,2.31l-.6-9s15,29.51,14,28.8-.82-1-2.4.48l-1.21.2s-4.46-13.14-4.34-8.93-2-2.89-3.25-2.89-7,7-7.31,8.41,10,17.86,9.39,17.73-1.84.79-1.84.79l-6.05-1.22c-.69-.14-3.93.92-3.93.92a2.15,2.15,0,0,0-3.05-.2c-1.78,1.34-3.62,2.31-1.8,3.16s-13.13-1.33-13.27.67c0,0,5.54,13,7.52,12.91s15.13-2.82,15.13-2.82,3.11-.61,3.8,4l-.69,1.42s-1,1,.31,2.76-.44,5-.44,5a2.12,2.12,0,0,0,1.12,2.63c1.73.75-.2,2.91-.2,2.91s-3.78,4.68-.24,3.63c0,0,1.13-2.11,2.7-.36s1.61,1.11,1.89-.15l3.69-1.85s7.27,2.31,5.88,3.77-2.25,5.6,2.29,5.81,6-1.15,6-1.15.83-.58.94,2.17c0,0-.11,1.63,3.32,2.22a3.61,3.61,0,0,1,.55,3.6S495,586,496.09,586.06Z"/><path class="cls-1" d="M304,397.78c-22.54.76-11.94-31.13-11.94-31.13v-.22a15.74,15.74,0,0,0-2.76-.52l-1-3.66s-11.5-7.24-18.51-8.05l-6.39,2-7.22-2.68s-3.89,10.5,5.19,15.81c0,0,3.49.24,1.89,5.77s-1.59,20-1.59,20,1.17,4.91-7.89,5.59S242.59,405,240,410l-4.7,3s-12.19,15.18.24,19.49c0,0,6.05.6,6.41,12.52,0,0-.15,4.42,12.56,8.39,0,0,4,1.76-2.12,6.52,0,0-.7,5.12,7.12,1.74s6.59,2.74,6.59,2.74l6.36.57S276.9,491.3,260,495c0,0-6.11-1.22-2.71,6.9s15.47,9,15.47,9l18.25-.1a13.41,13.41,0,0,1,2.76-2.55c.45-.77,6.74-11.79-.12-18-7.11-6.49,8.1-23.52,8.1-23.52l-2.56-7.83c-2.13-11.72-16.29-8.46-16.29-8.46s1.45-2.29-.32-6.79,7-5.89,7-5.89,5.44-1,3.56-2.53-2.6-8.25-2.6-8.25c6.1-6.64,3.15-10.17.82-15.88s13.93-9.22,13.93-9.22l4.79-3.08Z"/><path class="cls-2" d="M186.76,193.92c-3.19,11.05,6.66,9,6.66,9s1.76,1.69-1.12,7-4.13,11.16,8.45,11S213,217.5,213,217.5l8.91,3.74a18.1,18.1,0,0,1,2.58-.09c1.91-4.12,11-20.7,1.67-24s-6.89-5.88-6.89-5.88c3.78-4.71,1.21-6.77,1.21-6.77-2.69-6.73-1.31-8.44-1.31-8.44,5.79-7.66,10.28,1.22,10.28,1.22,4.72-3.25,11.57-1.26,11.57-1.26s19.38,9.58,21,2.77S273,158.88,273,158.88a18.85,18.85,0,0,0,5.59-9.59c1.63-6.42-4.54-2.24-5.44-3.31s-2.69-3.21-7.28,1.19c-3.83,3.67-7.38,0-8.45-1.33-2.06,2.4-5,3.12-9.2.12,0,0-14.61,13.24-12.57-5.56,0,0,2.36-7.18-3.61-10,0,0-1.87.2-.13-6.91,0,0-11.42-9.46-16.27-4.83,0,0-4.5,2.06-7-.5s-3.5,5.42-3.5,5.42,1.25,17.18-8.54,5.34c0,0-3.25-.9-5,3.07l-3.11.34s-5.39-.36-5.64,3.13a12.39,12.39,0,0,1-5.42-.66c-2.32-1-6.8-4.61-6.8-4.61L166.84,124s-6.69-3.68-10.12,2.37a96.62,96.62,0,0,0-4.69,9s-1.59,2.69-4.52-3.92l-1.16-4.9-1.21-2.39-1.1-1.45-1.9-2.94.4-7.92-.48-4.36L138,98.83l-2.82-5.67-2.51-5.71s1.53-6.14-15.13-8.73l-16.82-4.14-4.7,3a2.92,2.92,0,0,1-2.15.55,19.73,19.73,0,0,1-3.24-.9l-2.18.24s-1.24.13-1,2.31A19.44,19.44,0,0,1,87,84.89s3.06,5-6,8.52l.71,9.37s7.36,1.09,9.07,11L96.63,121s2.14,2.29-2.15,3.39c0,0,18.14,1.79,20.16,11.64l2.59.66,10-.78,4.45,3.3.5,10.33s-1.08,4.53,1.86,5.46,4.83,3.88-.15,7.26,5.38,6,5.38,6,.33,5.94,3.24,6.57,7.25,3,15.92,1.72l5.8,6.92,8-1.81,2.25.38,1.82,8,2.38,1.63,2.39-1.21S190,182.87,186.76,193.92Z"/><path class="cls-3" d="M356.64,195.39c-4.71-.26-8.14,4-9.86,6.16s-5.24,5.64-6.21.28-7-7-12.54-7.6-7-3.14-7-3.14l-8.66,6.41-9.45,10s-1.46,4.46-9.47,2.6-7.72,4.35-7.72,4.35l.08,7.8-1.35,9.12-3,4.62-.69,7.89c2.21,6-1.06,15.33-1.06,15.33l-2.28,7.67s4.14,5.79.63,5.78-14.62,5.5-14.62,5.5c-16.39,14.28-28.71,5.09-28.71,5.09l-4.23-3.05-3.69,2-.23.22c1.66.11,2.65,1.35,1.86,4.86L227.35,306l3.17,5.95-3,1.27s-6.4,4.79,1.61,9c0,0,3.52.56,2.65,6.95l3,1.25.93,2.73,3.55.87-.49,4.14h2.84l2.52-2.8,1.69,1.08,4.11,3s14.76-.36,17.39.61l2.73-.93,2.73-3.76.77-7.32,5.57-.93,3.65-9.84,4.21-1.72L300,319.73l.92,5.56,7.24,8.65c8.06-1.09,14.93-10,14.68-12.31s2.54-8.87,2.54-8.87c6.61-7.35-2.28-20.82-10.62-25.76s3-8.52,3-8.52,4.16-1.24,5.75-4.53,5.87-3.38,5.87-3.38l6.38,1.26,17-1.47c8.11-7.91-5.67-12.65-5.67-12.65s-.29-6.21-.88-11.61a52.45,52.45,0,0,1-.24-9.34s7.35-14.86,14-21.44,2.64-11.61.93-13S356.64,195.39,356.64,195.39Z"/><path class="cls-4" d="M275.75,155.07s18,7.4,35.05-4.22c0,0,1.59-3.3,3.25,1.2s4.31,7.33.19,16,4.87,8.83,4.87,8.83a20.91,20.91,0,0,1,1.94,14.23"/><path class="cls-4" d="M380.88,152.54a23.36,23.36,0,0,0-.06,7s-10.17,14-17.46,15.17-10.07,4.23-8,16.1l1.27,4.54"/><path class="cls-3" d="M458.65,366.41l6.94-1.89.09.08c.9-4.11.77-9.15-3.66-12.27,0,0-.86-4.95,4-6.42s.77-10.16.77-10.16l-.61-5.6s4-9.26-5-8.27c0,0-2.7-1.6-2.86-6s-5.55-10.42-5.55-10.42,6.79-9.86-2.54-11.68l-2-1-1.48-4.88-1.09-9.95-.51-1.83-1.41-4.26-.24-2.17-1.37-6.78a4.68,4.68,0,0,0-.45-1.21c-.41-.9-2.51-5.71-2.51-5.71l-.41-3.73-.13-4.08,1-2-.41-.9-2-1.35-.27-2.49-1-3.67-2.55-3.17.77-4.5,0-2.52-3.41-5.29-.7-9.37s-3-10.37-6.2-13.48c0,0-.44-6.89-.3-8.48s-3.26-12.54-6.06-15.07-8.76-8.17-8.76-8.17l-3.94-1.46-1.41-1.42s-3.48-5.91-9.39-5.27l-2.76-2.22L385,154.25l-4.29-1.74-.1-.08a25.77,25.77,0,0,0,0,6.71s-10.18,14-17.46,15.18-10.08,4.22-8,16.09l1.27,4.55s2.57,5.58,4.28,6.95,5.77,6.39-.92,13-14.05,21.43-14.05,21.43a52.46,52.46,0,0,0,.24,9.34c.59,5.4.88,11.61.88,11.61S360,261.59,353.06,269c0,0,.4,6.33,3.23,7.19s10.44,6.27,4.94,16.63c0,0,.5,8.14,14.09,3.92l12.42,2.94s24.21-3.43,25.35,7,3.4,16.8-4.28,18l-4.8,2.48a13.1,13.1,0,0,1-4.6,11.42l.6,1.89,4.36.69s3.3,1.6-3.6,6.25c0,0-10.17,7-4.7,10.66s5.62,1.34,5.62,1.34,4-5.9,7.8-3.58l3.52-3.51a10.1,10.1,0,0,1,11.74.28c6.33,4.38,9.28,6.4,9.28,6.4l5-.55s3.94,3.86,5,6.48,7.66,2.28,7.66,2.28Z"/><path class="cls-1" d="M380.66,159.35a26.26,26.26,0,0,1,0-6.71l.11.08,0-.25-4.35-3.22-5.05-2.91a8.44,8.44,0,0,0-6.57,3.24c-2.77,3.45-10.61.84-3.94-1.46l2.39-1.21,1.77-1.13s4.78-5.25-1.48-7.71l-3-1.56-3.76-2.74-3.14-2.8-2.8-2.53s7.13-3.93,1-5.46-6.56-5.26-6.56-5.26l-8.33,1.54s-8.77-2.51-8.44-16.71c0,0,2.92-5,1.27-14.3,0,0,6.3-5.73,12.7-7.69l.22-3.8s-2.59-3.5-14.21,2.5l-3.67,3.86L320,82.7s-18.07-4-19.67,4.35-.44,10.44-.44,10.44-8.23,5.31-7.62,10.91c0,0-10.27,3.95-1.08,7.36,0,0,2.83,2.83-4,3.89s-13.3-3.58-13.3-3.58-9,1.3-7.51,9c0,0-.28.34-4.15,2.34,0,0-.34,13.44-5,18.57v0c1.08,1.33,4.62,5,8.45,1.34,4.59-4.41,6.38-2.26,7.28-1.19s7.08-3.11,5.44,3.31a21,21,0,0,1-2.28,5.52s17.38,7.66,34.45-4c0,0,1.59-3.3,3.25,1.2s4.32,7.33.19,16S319,177,319,177a20.25,20.25,0,0,1,1.93,14s1.47,2.76,7,3.33,11.56,2.24,12.54,7.6,4.49,1.85,6.21-.29,5.16-6.41,9.86-6.15l-1.32-4.95c-2.08-11.87.71-14.9,8-16.09S380.66,159.35,380.66,159.35Z"/><path class="cls-3" d="M313.9,168.17c4.13-8.64,1.48-11.47-.18-16s-3.26-1.21-3.26-1.21a38.44,38.44,0,0,1-34.36,4.45l-.28-.09A11.67,11.67,0,0,1,272.7,159s-9.49,13.14-11.08,19.95-21-2.78-21-2.78-6.85-2-11.57,1.27c0,0-4.48-8.88-10.28-1.22,0,0-1.37,1.71,1.32,8.44,0,0,2.56,2.06-1.22,6.76,0,0-2.44,2.61,6.89,5.89s.45,19.46-1.59,23.82c4.47.09,12.86,1.88,1.28,15.75,0,0-1.6,11.2-4.86,13.13,0,0-6-.6-6.65,8.28s-6,11.05-6,11.05-5.8,18.89,9.72,16.88c0,0,5.52-3.91,8.77-3.85l.07-.07,3.69-2,4.23,3.05s12.33,9.18,28.72-5.1c0,0,11.1-5.5,14.61-5.5s-.63-5.78-.63-5.78l2.29-7.67s3.27-9.33,1.05-15.33l.7-7.88,3-4.62,1.34-9.13-.07-7.79s-.29-6.22,7.72-4.36,9.47-2.6,9.47-2.6l9.44-10,8.64-6.23,0-.17A20.91,20.91,0,0,0,318.77,177S309.77,176.82,313.9,168.17Z"/><path class="cls-2" d="M389.56,446.13l-5.33,1c-9.52,4.8-7.29-9.25-7.29-9.25,4.47-8.86-1.18-10.76-1.18-10.76L371,426l-3.3-3.41c-4.46-2.44-11.31,3.75-11.36,7.1s-3.93,13.83-3.93,13.83,7.48,7.13.48,12.08-7.71-1.67-8.81-7.82-4.67-8.28-4.67-8.28l-11.67.44-3.22,1.19c-.56,6.34-6.25,4-6.25,4-12.77-1.95-10.17,2.78-10.17,2.78s.23,5.84.26,10a10.74,10.74,0,0,1-1.8,6.48c-4.63.57-12,12.44-12,12.44s-5.24,10.47-.65,14c6,4.55.42,16.71.42,16.71l.22.23c2.6-1.47,6.28-2,9.87,2.54l11.41-2.19.81,10.3,3.14,2.8s1,0,2.6.16v-.1l6.43-25.41c6-2.33,6.41-14.09,6.41-14.09a58.33,58.33,0,0,1,3.32-7.9c2.4-4.87,5.47-3.53,5.47-3.53a106.42,106.42,0,0,0,10.38,6.82l14.19,3.47,1.84,1.48,2.61,4.73c2.94.1,4.9,6.58,4.9,6.58l2.53.15c2-1.06,1.35-10.62,1.35-10.62s-1.78-4.83-1.69-7.76,8.89-10.61,8.89-10.61c-1-9.09,2.49-7.8,2.49-7.8C395.28,456.39,389.56,446.13,389.56,446.13Z"/><path class="cls-1" d="M496.67,483.85l-9.45-11.56-4.94-2a12.62,12.62,0,0,1,.63-4.21h-.61l-15-6.92S455.51,456,454,445.55s-6.47-10.72-21.45-17.23-22.88,7.16-22.88,7.16c.33,1.81,9.59,5.89,9.59,5.89l1.5,2.35.51,4.54,8.34,11.23s-7.14,11.25-2.43,19.94-15.41,15.92-15.41,15.92-3.91-1.25-11.82,3-2.85-3-2.15-8.14-2.61-4.74-2.61-4.74c-6.39,2.79-6.72,7.43-6.72,7.43l.18,5.43-2.76,1.56-2.26,2.33-1.65.18-.13-5c1.15-4.73-1.14-4.81-1.14-4.81l-2.76-.2s-2-6.48-4.91-6.58l-2.6-4.74-1.84-1.47-14.19-3.47A106.42,106.42,0,0,1,344,469.27s-3.07-1.34-5.47,3.53a58.33,58.33,0,0,0-3.32,7.9s-.39,11.76-6.41,14.09l-6.43,25.4.06.13c4.18.36,12.38,1.52,14.18,5.27a9.53,9.53,0,0,0,6.81-1.06c3.88-2,11.83-4.12,15.87,1.1,0,0,2.72,1.91,3.73-.41l.41-1.93,3.18.28s3.28,4,3.55,6.53a23.77,23.77,0,0,1-.08,5l5,5.75s11.24,10.73,15.56,12.78,14.82.27,14.82.27-1.31,5.18,6.77,4.29l1.2,8.06s3.18,14.76,9.87,4,13.52-3,13.52-3,6.15,4.37,3.26-7.59,12.32-8.28,12.32-8.28,6.8,1.78,4.65-9.32,1.08-7.36,8.82-5.69,8.82-2.85,8.82-2.85l-.93-5.57a7,7,0,0,0,2.91-7.87l5.61-.61s-4.75-14.59,2.83-17.31l2.42-.9,1.18-3.58,5,2.28s11.2-1.22,14.8-5.71l-.79-1.48Z"/><path class="cls-2" d="M380.24,492.63c2-1.05,1.34-10.5,1.34-10.5s-1.79-4.83-1.69-7.77,8.89-10.6,8.89-10.6c-1-9.1,2.49-7.8,2.49-7.8,3.72-.41-2-10.67-2-10.67l-5.33,1c-9.52,4.81-7.29-9.25-7.29-9.25a13.18,13.18,0,0,0,1.75-6.59l.07-.17c31.35,15,31,4.43,31,4.43.36,3.31,9.55,6.91,9.55,6.91l1.51,2.35.5,4.55,8.34,11.22s-7.14,11.25-2.43,19.94-15.41,15.92-15.41,15.92-3.91-1.25-11.82,3-2.84-3-2.15-8.14-2.61-4.74-2.61-4.74c-6.39,2.79-6.72,7.43-6.72,7.43l.18,5.43-2.76,1.56-2.26,2.33-1.65.18-.13-5c1.15-4.73-1.33-4.85-1.33-4.85Z"/><path class="cls-3" d="M549,454.15c-.19-4.7-10.34-11.15-10.34-11.15L533,437s-8-7-14.85-6.25-5.17-7-5.17-7a14.13,14.13,0,0,0-6.77-4.3c-4.21-1.11,1.67-4.9,1.67-4.9l-.47-7.19s4.64-6.49-2.26-12-16.4-11.74-16.4-11.74l-15.57-7.12-1-3s-6.42-4-8.6-3.78a27.61,27.61,0,0,0,2.34-6.05l-6.88,1.88-6.94.76s-6.59.33-7.66-2.29-5-6.47-5-6.47l-5,.54s-2.95-2-9.28-6.4a10.11,10.11,0,0,0-11.74-.27l-3.52,3.5c-3.76-2.31-7.8,3.59-7.8,3.59l0,.4s7.62,8.11,4.24,18.26c0,0,3.79,8.56,5.76,11.61s1.82,9.18,0,14.68,0,11,4.72,13.35,10.6,3.74,11.31,10.18c0,0,2.91.83,4.45,1.5,15,6.51,19.91,6.79,21.46,17.22s13.31,13.64,13.31,13.64l15,6.91.39,0c1-4.22,4.81-10.91,18.23-10.65,0,0,9.71,2.4,13.92,6.35s7.67,3.88,7.67,3.88,9.83,6.48,10,7.72S548.9,479,548.9,479s8.46,2.53,2.36-12.85C551.26,466.18,549.2,458.85,549,454.15Z"/><path class="cls-3" d="M401.87,359.24s-.13,2.35-5.61-1.34S401,347.24,401,347.24c6.91-4.66,3.61-6.25,3.61-6.25l-4.37-.69-.59-1.89A13.12,13.12,0,0,0,404.2,327l4.8-2.48c7.67-1.23,5.41-7.61,4.28-18s-25.35-7-25.35-7l-12.42-2.94c-12.4,3.85-13.85-2.58-14-3.74h-.08s-5.21,1.43-4,12.31.29,13.83.29,13.83,10.2,3.78,9.65,13.62l1.24,3.95,3.71,7.74s10.66,19.23-6.74,13c0,0-1.17.53-.77,4.16s3.3,7.79,0,11-.22,1.66,2,3.45,6.52,9.69,0,18c-.24.3-.48.59-.74.88l0,.13a6,6,0,0,1,1.4,1.35s2.36,10.35,2.67,13.17,5.25,17.34,5.25,17.34l.06.16a4.18,4.18,0,0,1,3.25,3.58l.16.21c27.43,13.11,30.33,7.45,30.58,6.22,0,0,6.56-11.09,18.39-9.15l.32,0c-.71-6.45-6.57-7.85-11.31-10.19s-6.56-7.84-4.72-13.34,2-11.64,0-14.68-5.76-11.61-5.76-11.61C409.66,367.7,402,359.6,402,359.6Z"/><path class="cls-3" d="M310,398.58l-4.79,3.08s-16.26,3.49-13.93,9.22,5.28,9.23-.83,15.88c0,0,.74,6.75,2.61,8.25s-3.56,2.52-3.56,2.52-8.81,1.39-7,5.9.32,6.79.32,6.79,14.15-3.26,16.29,8.46l2.56,7.83.42.39c1.57-1.53,3.07-2.56,4.43-2.73a10.69,10.69,0,0,0,1.8-6.47c0-4.18-.26-10-.26-10s-2.61-4.73,10.16-2.78c0,0,5.7,2.3,6.26-4l3.22-1.19,11.67-.44s3.58,2.13,4.67,8.29,1.82,12.77,8.81,7.82-.48-12.08-.48-12.08,3.87-10.47,3.93-13.83,6.9-9.54,11.36-7.1l3.3,3.41,4.54,1.06.07-.24s-5.24-14.24-5.55-17.06-2.67-13.16-2.67-13.16c-5.18-6.37-20,.14-20,.14-4.49,7.42-12.44-1.9-12.44-1.9l-2.1-.59C324.14,400.65,310,398.58,310,398.58Z"/><path class="cls-3" d="M365.48,357.5c17.4,6.26,6.74-13,6.74-13l-3.7-7.74-1.25-4c.56-9.85-9.64-13.62-9.64-13.62s.9-3-.29-13.83,3.88-12.69,3.88-12.69l.09,0c5.5-10.35-2.11-15.76-4.94-16.63-2.44-.74-3.28-4.79-3.41-5.85l-.35,0-17,1.47-6.38-1.25s-4.28.08-5.87,3.37-5.75,4.53-5.75,4.53-11.32,3.58-3,8.52,17.23,18.41,10.62,25.76c0,0-2.8,6.56-2.54,8.87s-6.61,11.21-14.66,12.31l.11.13,7.26,3,.51,4.66-2.23,11.27,1.3,9a2.4,2.4,0,0,1-1.49.8c-.93.1-3-1.25-3-1.25l-1.42,1.41-.67,5.42-4,6.43-3.77.09a12.75,12.75,0,0,0-8.72-8.34v.12s-10.6,31.89,11.94,31.14l6.09,1s14,1.83,22.67-4.82l2.11.58s7.95,9.33,12.44,1.9c0,0,12.7-5.59,18.68-1.34l0,0c.26-.29.51-.59.74-.88,6.57-8.27,2.21-16.23.05-18s-5.32-.24-2-3.45.41-7.39,0-11S365.48,357.5,365.48,357.5Z"/></svg>