<?xml version="1.0" encoding="utf-8"?>
<!-- Generator: Adobe Illustrator 24.2.3, SVG Export Plug-In . SVG Version: 6.00 Build 0)  -->
<svg version="1.1" id="_0" xmlns="http://www.w3.org/2000/svg" xmlns:xlink="http://www.w3.org/1999/xlink" x="0px" y="0px"
	 viewBox="0 0 650 650" style="enable-background:new 0 0 650 650;" xml:space="preserve">
<style type="text/css">
	.st0{fill:#7A1C1E;}
	.st1{fill:#191919;}
	.st2{fill:#023652;}
	.st3{fill:none;stroke:#555555;stroke-linecap:round;stroke-linejoin:round;}
</style>
<path class="st0" d="M570,502.7c-0.3-1-1.7-0.6-2.2-1.5c-1.1-1.3-3.2-1.4-4.2-2.9c-0.2-0.8-0.6-1.5-1.3-2c-0.3-0.6-0.9-2.4-1.2-3
	c-2.3,0.5-5.1-4.4-2.5-5.3c-11,4.1-6.9-3.5-11.6-6.5c0.9,0.6,1.2-2,2-2.6c2.7-3.3,6.6-5.4,10.8-5.9c2-0.2,4.7,1,6.6,1.3
	c2.9,0.4,5.5,2.3,6.6,5c1.3,2.4,2.2,5.7,4.4,7.3c1.4,1.5,4.6,2.2,6.5,3l2.6,2.5c1-0.4,2.2,0,2.7,0.9c1.5,1,2.3,3,2.9,4.6
	c2.1,1.7,4.6,2.9,7.3,3.2c5.9,2.5,11.4,5.9,16.4,10c2,0.6,4.8,1.4,6.8,2.2c1.8,0.2,3.6,0.8,3.5,2.9c0,2.1-0.5,4.1-1.4,6
	c-0.7-0.4-1.6-0.2-2,0.6c-0.1,0.2-0.2,0.5-0.2,0.8c-0.2,0.5-1.4,1.5-1.7,2c-1.5,1.2-3.4,0.4-5,0.1c-1.7-0.6-3.4-1.2-5.1-1.5
	c-1.1-0.8-2.2-1.7-3.1-2.7c-1.7-0.2-3.4-1.6-5.1-1.6c-1.6-0.6-3.8-2-5.5-1.4c-1.8-0.3-3.6-1-5-2.2c-1.7-1.3-3.6-2.4-5.5-3.3
	c-1.1-0.7-2.3-2-3.5-2.7c-1.1-0.7-2.3-1.2-3.6-1.5c-1.7-0.5-3.4-1.9-4.9-2.8C572.9,504.2,570.5,505.6,570,502.7z"/>
<path class="st0" d="M625.7,589.5c1.5,2.9,2,6.3,1.5,9.5c-0.5,6.3-0.2,10.2-7.6,10.8c-8.1,1.5-16.3,1.8-24.5,1c-2.6,1-6,0.7-8.7,1.2
	c-0.6,0.7-1.3,1.3-2.2,1.7c-1.3,1.1-2.8,2-4.5,2.6c-1.2-1.1-1.6,0.1-2.4,1c-0.3,0.7-1.5,1.1-2.2,1.5c-1.1,1.9-3.6,3.5-4,5.9
	c-2.1,1.7-2.7,3.5-5.8,4.2c-1.4,1.9-4.8,1.3-6.9,2c0.1-7.1-3.4-4.7-5-11c-2.9,1-8.3,0.7-11.2-0.4c-0.5-1.8,0.5-4.7,1.5-6.2l-1.9-3.2
	c-3.9,0.3-6.1-0.2-8.5,3.7c-2.4-1.5-3.1-2-5.8-0.4c1.3-3.7,5.9-7-0.2-9.1c-0.1-4,2.9-13,0.3-16.2c-3.1-3-6.3-0.8-9.6,0.1l0.1-10.1
	c-1.4-1-2.8-2.1-4.1-3.3c2.4-5.6,6.1-3.5,10.9-4.3c1.1,2,7.9,0.2,9.5,0.1c-0.9-2.7,0.9-2.2,2.8-3c0.1-2.9-3-15.4,0.7-17.1l7.1,0.4
	c0.5-3.2-0.4-3-3-4.2c1.5-1.5,2.1-2.5,1.4-4.7c-2,0.4-2-1-2.5-2.4c0-2.3,2-2.5,3.7-3.1c3.1-5.1-1.6-3.2,2.5-5.7l-1.7-1.8
	c6.5-1.7,0.7-3.5,9.5-7.4l1.4,2.4c1.9-0.9,5.8-2,5.9-4.6c0.8,0.6,2,1.6,2.9,0.6c0.7,0.6,1.5,1,2.4,1.2c0.5,0.6,1.4,1.6,1.8,2.2
	c2.2,0.8,4.8,2.1,6.9,3c3.9,7.1,6.4,4,8,9.3c6.1,1.1,11.4,5,15.8,9.2c1.9,2.5,2.7,0.6,3.9,3.2c1.2,1,2,4,3.8,4l1.2,2.1
	c-0.3,0.6,0.5,2,0.9,2.4c2.6,4.1,4.9,8.9,7,13.2c-0.8,0.6,0.3,2.1,0.5,2.8C620.3,578.3,623.6,584,625.7,589.5z"/>
<path class="st0" d="M624.7,541.4c1.1,3.2-0.8,4.8-2.5,7.2c-1.2,0.6-1.9-0.5-2.7-1.3c-1.9-0.9-2-3.1-2.2-4.9c-0.3-0.7-1-2.2-1.3-3
	l-1.2-1.5c0.3-0.7,0.8-1,1.5-0.7C620.6,537.9,621.6,538.8,624.7,541.4z"/>
<path class="st1" d="M619,461.5c3.1,13.5,20.3,44.4-8.5,30.1c-11.7-1.7-22.3-7.6-30-16.6c-3.2-2.2-7.2-2-10.6-3.4
	c-2.8-0.8-5-4.5-8.2-3.6c-5.2,2.2-10.4,4.4-15.7,6.3c-2.7-2.2-5.2-3.9-7.9-0.7c-2.2-0.4-10.5,6.3-11.1,3.7c0-0.1,0-0.2,0-0.3
	c0,0.1,0,0.2,0,0.3c0,1.4-0.1,2.7-0.2,4.1c-2-0.2-4.5-0.8-5.9-2.2c-2.2-2.7-4.2-7.7-5.4-10.9c-2-3.9-5.5-9.1-7.8-12.8
	c-1.3-3.7-3.9-4.3-7.2-5.4l-8.6,1c-5.6,0.3-9.9,2.4-14.6-2.3c4.3-2.9,5.1-3.9-0.6-5.5l0.3-3.2c-3.5-1.2-7-1.2-8.2-5.5
	c-1.4,1.8-7.5-0.7-9.2-1c-2.5-5.3-0.5-6.4,2.1-10.8l-3.3-5.9c0.1-2.1,0-5.9,2.4-7c-1.5-2.7-2-4.3-0.7-7.3c-1.9-3.9-2.5-1.5-5.3-0.2
	c-5.2-2.4-0.3-0.8-3-6.6l-2.7-10.2c1.9-3.3,2.3-14.2-2.3-15.3c-2,1-2.4,0.9-3.8-0.8l2.6-9.4l3.4-1.1c1.7-0.4,3.1,0,2.9-2.4l2.3-2.1
	c1.6,0.8,2.6,2.8,3.9,0.5c2.5,0.3,5.4-1.7,5.6,2c3.6,0.8,4.7,5.8,5.9,8.6c1.7,0.1,5.3,1.2,6.2-0.9l11.2-1c1.4,1.8,2.2,2.8,1,5
	c5.2-0.3,3.6,0.6,4.2,4.8c2.4-2.6,5.2-6.5,8.2-2c1.5-1.7,2.8-2.4,5.1-2l1.1,2.1c1.8-1.9,6.1-3.1,8.6-3.3l0,0
	c0.3,1.1,2.1,1.1,2.8,0.2c2.8,1.2,10.2,8.9,10.8,10.4c3.9-3.2,15.4,4.9,19.4,6.1c0.5,0.7,0.4,3.1,1.3,1.9c2.1,0.9,19.5,6.8,16.5,9.9
	c1.9-2.1,3.8,6.2,3,6.9c1.9,0.4-0.8,2-0.3,3.4c0.4,0.9-0.6,9,1.5,7.7c3.7-1.1,3.5,4.9,0.3,3.5c-1.3,0.7-4.3,7.5-0.9,6.1
	c0,10.8,5.4,0,6.4,12.2c2.1-0.2,4.8-1,5.8,2.1c1.1-7.3,22.3,8.1,27,9.7c0.9,2.6,2.6,4.8,5,6.2c-0.1,2.3,0.5,1.7,1.7,2.8
	C615.8,459.5,616.9,462,619,461.5z"/>
<path class="st0" d="M614.1,541.1c0.7,1.6,1.2,6-1.7,4.7c-1.3-1.5-3-3.2-3.4-5.1c-2.8-2.5-7-3.5-9.3-6.6c-1.9-1.1-5.5-3.1-4.1-5.7
	c1,0.3,1.9,0.8,2.8,1.3c1.7,0.3,3.3,0.9,4.8,1.9c2.1,1.3,4.9,1.7,6.8,3.4C611.1,537,612.9,539.2,614.1,541.1z"/>
<path class="st0" d="M565.5,520.3c-1,1-2.1-0.1-2.9-0.6c-0.1,2.6-4,3.7-5.9,4.6l-1.4-2.4c-8.8,4-3,5.7-9.5,7.4l1.7,1.8
	c-4.1,2.5,0.6,0.6-2.5,5.7c-1.7,0.6-3.7,0.7-3.7,3.1c0.5,1.5,0.5,2.8,2.5,2.4c0.7,2.1,0.2,3.1-1.4,4.7c2.5,1.1,3.5,1,3,4.2l-7.1-0.4
	c-3.8,1.8-0.7,14.2-0.7,17.1c-1.9,0.8-3.7,0.2-2.8,3c-1.7,0.1-8.4,1.9-9.5-0.1c-4.8,0.8-8.5-1.3-10.9,4.3c1.3,1.2,2.6,2.3,4.1,3.3
	l-0.1,10.1l-6.1,3.8c-2-4.6-2.8-3-6.9-2.5l-3.7,4.9l-4.2-0.6l-2.6,2c2.9,2.6,3.2,3.8,2.9,7.6c-5.3,5-4.7,7.6-12.9,5.7
	c-2.2,3-7.4,10.1-9.1,13.3c-1.6,0.1-5-6.4-5.8-7.4l0.6-3.4c-1.6-1.8-2.3-2.2-1-4.5l-2.7-7.4l-1.3,0.9c0.7,6.2-1.6,3.6-6.2,4.7
	l1.2-8.9c-8.1,2.9-19.8,4.4-27-1.2c-2.5-2.9-8.3-8.7-12.3-9.4l-8.7-20.1l18.7-16l33.6-21.5l2.9-0.1l5.9-0.1c3.9-2.3,6.9-4.2,8.1-8.9
	c3.6-0.9,3.9-0.8,4.4-4.5l-1.6-5.2l-3.7,1.8c-1.5-1.3-1.4-2.6-1-4.4c1.4,0.8,4.5-2.3,5.5-2.9l-0.1-3.5c-3.2-1-4.1-1.3-3.7-5
	c2.2-2.2,5.3-1.9,2-5.2l0.8-2.4c1.7-5.2-2.4-6.4-6.6-7.4c0.4-8.6-1.6-3.7-3.9-11.2c-1.9-1.5-14.3-3.7-10.7-7.8
	c-3.4-1.4-2.5-5.6-2.9-8.5c1.5-2.3,6.9-4.9,9.4-5.9l7.2,1.8c4.7,4.7,8.9,2.6,14.6,2.3l8.6-1c3.3,1.1,5.9,1.7,7.2,5.4
	c2.3,3.7,5.8,8.9,7.8,12.8c1.2,3.2,3.2,8.2,5.4,10.9c1.4,1.4,4,2,5.9,2.2c-0.2,2.1-0.2,4.1,0.9,4c7.7,1.5,14.4,8.7,21.5,13
	c5.2,5.6,11.1,12.1,13.1,20.1C563.3,519.3,564.8,518.7,565.5,520.3z"/>
<path class="st0" d="M542.4,474.4c3.8,2.3,0.1,3.9-1.7,5.9c-1.9,1.4-3-1.4-4.5-2c-2.4-0.3-3.6-1.6-0.9-2.9c1.1,0,2.1-0.1,3.2-0.3
	C539.5,473.9,541.9,471.8,542.4,474.4z"/>
<path class="st1" d="M519.7,331c0.6,9-4.4,8-5.5,15.3c-0.4,0-1.4,0.9-0.7,0.6c2.6,3.7,9.5,19.1,1.8,20.7c-0.1,0.3-0.2,0.6-0.1,0.9
	l0,0c-2.5,0.1-6.9,1.4-8.6,3.3l-1.1-2.1c-2.3-0.4-3.6,0.3-5.1,2c-3-4.5-5.9-0.6-8.2,2c-0.5-4.2,1-5.1-4.2-4.8c1.2-2.3,0.3-3.3-1-5
	l-11.2,1c-0.9,2.1-4.6,1-6.2,0.9c-1.2-2.8-2.3-7.8-5.9-8.6c-0.3-3.7-3.1-1.7-5.6-2c-1.3,2.4-2.4,0.4-3.9-0.5l-2.3,2.1
	c0.2,2.3-1.2,2-2.9,2.4l-3.4,1.1l-2.6,9.4c-0.8-1.5-1.1-4.5-3.6-3.9c-2.4,1.3-3.9,3.4-6.7,1.2c1.3-2,1.6-6.5,1.5-8.8
	c2.1,0.1,4.7-4,5.7-5.5c2.2,0,3.5-2.9,4.3-4.5c1.3-1.2,2-2.5,1.4-4.3c-1.6-0.8-4.7,0.6-6.1,1.4c-1.4-0.6-1.2-3.2-1.1-4.4l3.2-0.9
	c-2.2-2.9,0.5-4,2.1-6.1c-4.4-3-3.3-4.3-3.1-9c9.3,3.2,2.5-1.3,10.2-0.5c3.4-4.2,3.1-12.3,3.2-17.3c-1.1-2.4-3.1-7.6-2.2-10.3
	l-3.4,0.2l-4.2-1c-3.7-0.5-10.4-3.8-13.5-5.9c-9.8,6.5-6.1-0.2-12.1,3.7c-6.1-2.7-5.5,1.6-9.2-0.9l-4.8,0l-6.4,2.1
	c-5.7,3.7-5.6-2.3-6.9-6c0-1.6,1-4.5-1.2-5c-6.1-0.9-1-6.1,0.2-9c-1.6-1.6-6.4-0.2-8.2,0.2c-0.7-1.6-1.9-5-0.9-6.8
	c-3.6,0.1-2.6-3.9-3.4-6.2c-2.9,0.1-2.9,0.1-3.1-2.8l5.1-4.1l-1.8-3.6l-9.6-7.5c-3-1.6-5.2-14.3-6-17.3c3.2-4,3.7-4.3,2-9.3
	c3.8-0.3,6.1-13.7,7.2-16.2l5.9-7.6c3.9-1.9,4.3-2.8,5-7l0.4-3.9c-4.3,1.5-3.5,0.1-5.4-3.1c1.1-2.8-0.3-3-2.3-4.5l-2.2-8.2
	c2.4-0.4,3-0.5,3.4-3.1l-4.2-3.7c-2.7,0.1-2.6-0.3-2.9-2.8c2.2-0.4,1.8-1.5,1.9-3.3c-8.5,1.4-0.2-4.5,1.1-6.8
	c5.6,0.6,14.2-9.3,18.7-12.1c6.9-6.9-0.5-4.4,8.9-11.1c-3.4-5.1,0.5-5-1.2-10c-0.7-2.6-0.2-3,1.9-4.4l0.2-0.3
	c0.9,0.7,1.8,1.5,2.8,2.3c15.5-0.1,25.5,11.7,39.2,17.9c2.5,2.6,10.6,1.8,9.5,7.4c-2.5,8,8.1,16.7,4.2,24.4
	c-3.4,1.5,3.5-0.9,3.5,4.2c3,9,6.6,18,10.4,26.5c1.4,3.7,7.5,10.2,0.4,10.7c1.2,3.3,0.1,1.6,2,5.1c0.4-2.5,1.6,0.7,2,1.7
	c-0.8,0.6-2.1,0.3-0.6,1.5c1.1,5.7,6.7,1.4,3.6,8c6.5,7.6,6.5,18.4,4.3,17.4c-1.7,0.7,4.3,4.8,4.2,7.4c-0.9,2.2,3.3,6.3-0.3,8.2
	c2.3,0.2,1.7-1,1.5,6.7c-0.4,4.3,6.2,4.3,3.7,9c0.8,3.1,1.7,7.1,5.4,9.9c0.1-6.5,7,4.1,3.4,5.1c0.9,4.8,1.4,5-2.5,7.3
	c1.6,0.1,0.2,1,2,2c0.7,1.4,2.9,0,2.3,2.9c1.2-0.9,3.6,3.6,3,5.7c2.8,1,1.4,6.5,2.8,6.1c1.5,0.1,4.7,6.6,4.6,5.4
	c1.5-2,4.1-0.2,1.9,1.9c0.5,3.8,0.2-1.4,2.1-0.4c-0.1-2.2,0.7-1.7,1.1-0.2c-0.9,1.7-0.3,4.1-0.8,6.3
	C515.4,320.4,517.4,331.2,519.7,331z"/>
<path class="st2" d="M484.7,509.6l1.6,5.2c-0.5,3.8-0.8,3.7-4.4,4.5c-1.3,4.7-4.3,6.5-8.1,8.9l-5.9,0.1l-2.9,0.1l-33.7,21.5
	l-18.7,16c-2.5,1.3-7.6,0.3-10.1-0.5c-2.8,1.5-3.1,3.1-4.9-0.6c-2.4,0.4-7.8,1.4-9.4,3.3l-2.8-1.2c-1.1,0.7-4,2.2-3.8,3.8
	c-5.9,0.9-6.8,0.1-11.2-3.6l2.4-4l-3.8-15.4c1.4-2.9,2.1-4.7,0.5-7.7l2.7-9.3c1.3,0,3.7,0.5,4.3-1.2c-1.3-4.2-3.3-8-0.6-12.3
	l4.1-4.9c5-4.4-0.3-5.5,5.7-7.5c3,4.5,3.1,8.2,9.6,8.5l7.5,3.1c1.5,0.6,3.2-1.5,4.1-2.5c6.9-1.8,9.6-0.2,13.5,5.5
	c8.2,2.6,4.5,5.4,9.2,7.9c0.5-0.8,6-5.3,5.1-6.5c-1.2-1.4-3-4.4-2.9-6.3c-2.5-1.6-3.9-1.9-3.4-5.3c3.2-3.9,6.8-6.8,6.1-12.5
	c4.2-2.3,3.5-7.5,4.2-11.4l3.7,0.5c1.6-1.1-2.3-8.3-2.6-9.5c0.8-5.1,3-9.6-4-4.3c-5.3-0.8-5.7,0-9.1,3.8l-4.9,0.4
	c-1-2.4-1.4-5.2,1.2-6.8c-4.2-9.1,1.6-0.2,0.6-12.9l19.3,5c6.6-1.7,13.5-3,18.2-8.7c0.3,2.9-0.6,7.1,2.9,8.5
	c-3.6,4.1,8.8,6.3,10.7,7.8c2.3,7.5,4.3,2.6,3.9,11.2c4.2,1,8.3,2.2,6.6,7.4l-0.8,2.4c3.3,3.4,0.2,3-2,5.2c-0.5,3.6,0.5,4,3.7,5
	l0.1,3.5c-1,0.6-4.1,3.7-5.5,2.9c-0.5,1.8-0.5,3.1,1,4.4L484.7,509.6z"/>
<path class="st1" d="M408.9,366.1c-0.6-2.3-2.6-8.4-1.2-10.2c-1.7-0.8-3.2-4-3.8-5.6c-0.5-1.5,1.8-3.4,2.6-4.3
	c-1.8-0.6-4.3-1.4-4.5-3.7l0.6-1.3c-1.9,0.8-2.9,1.1-4.5-0.5l1.5-3.3c-2.1-0.5-1.8-9.6-2.2-11.2c-2.5,1.4-3.9,2.9-6.8,1.2
	c-0.1-2.7-0.9-5.3-2.5-7.6c0.3-1.7,2-6.4,0-7.6c-0.7-5.3-1.1-8.5-5.5-12.1c-0.1-15.1,3.9-9.2,7.5-16.1c2.3,0.5,1.2,3.4,1.2,5
	c1.3,3.8,1.1,9.7,6.9,6l6.3-2.1l4.8,0c3.7,2.5,3.1-1.8,9.2,0.9c6-3.9,2.3,2.8,12.1-3.7c3.1,2.1,9.8,5.5,13.5,5.9l4.2,1.1l3.4-0.2
	c-0.9,2.7,1.1,7.9,2.2,10.3c-0.1,5,0.1,13.1-3.2,17.3c-7.8-0.8-0.9,3.7-10.2,0.5c-0.3,4.7-1.3,6,3.1,9c-1.5,2.2-4.3,3.2-2.1,6.1
	l-3.2,0.9c0,1.2-0.3,3.8,1.1,4.4c1.4-0.8,4.5-2.2,6.1-1.4c0.6,1.8-0.1,3-1.4,4.3c-0.8,1.6-2.1,4.6-4.3,4.5c-1.1,1.4-3.6,5.6-5.7,5.5
	c0.1,2.3-0.2,6.8-1.5,8.8c2.8,2.3,4.2,0.1,6.7-1.2c2.5-0.6,2.8,2.3,3.6,3.9c1.5,1.6,1.9,1.8,3.8,0.8c4.6,1,4.2,12,2.3,15.3l2.7,10.2
	c2.6,5.8-2.2,4.2,3,6.6c2.8-1.3,3.4-3.7,5.3,0.2c-1.2,3-0.8,4.6,0.7,7.3c-2.4,1.2-2.3,4.9-2.4,7l3.3,5.9c-2.6,4.4-4.6,5.5-2.1,10.8
	c1.7,0.3,7.8,2.9,9.2,1c1.3,4.3,4.7,4.3,8.2,5.5l-0.3,3.2c5.7,1.6,4.9,2.5,0.6,5.5l-7.2-1.8c-2.4,1-7.9,3.6-9.4,5.9
	c-4.7,5.8-11.6,7-18.2,8.7l-19.3-5l-5.2-6.4l-6.8-17.2c-1.6-6.1-2.9-19.7-9.9-22.6c9.1-14.1,4.8-10.6,7.9-24.6l-6.7-1
	c-2.5-3.4-1.3-19.3-1.2-23.4l6.3,5.1L408.9,366.1z"/>
<path class="st2" d="M439.5,476.5c0.3,1.2,4.2,8.4,2.6,9.5l-3.7-0.5c-0.6,4,0,9.1-4.2,11.4c0.7,5.8-2.9,8.6-6.1,12.5
	c-0.4,3.4,0.9,3.7,3.4,5.3c0,1.9,1.7,4.9,2.9,6.3c0.9,1.2-4.6,5.7-5.1,6.5c-4.6-2.5-0.9-5.3-9.2-7.9c-3.9-5.8-6.5-7.3-13.5-5.5
	c-0.9,0.9-2.6,3-4.1,2.5l-7.5-3.1c-6.5-0.3-6.6-4-9.6-8.5c-6,2-0.7,3.1-5.7,7.5l-4.1,4.9c-2.6,4.3-0.6,8.2,0.6,12.3
	c-0.5,1.7-3,1.2-4.3,1.2l-2.7,9.3c1.7,3.1,1,4.8-0.5,7.7l3.9,15.3l-2.4,4l-6.1,0.9c-3.6-3.1-4.2-4.7-9.4-3.2l1.6-3
	c-3.6,1.5-3,0.9-4.5-2.2l2.4-6.7l-2.7-4.5c-2.7,8.6-1.7,2.4-9,6.4c-1.8-1.5-1.9-1.7-3.3,0.3c-1.1-1.2-3.1-3.7-5.1-3l-1.1-3.9
	c0.2-1.9,1.2-5.3,2.8-6.5c-1-2-2-5.5-4.9-5.5c-0.4-1.8-0.6-7.6-3-8.1c3.5-6.9-3.1-3.2,5.5-9.8c-3.8-6.8,1.7,0.2,4.2-15.1
	c3.8-0.9,8.6-3.9,9.5-7.9c0.5-3.4,1-6.5-1.6-9.3c3.9-8.6-1.5-8.9,3.5-15.7c4.8,0.8,0.5,2.2,5.6,3c0.7,2,3.2,1.9,4.9,2.1
	c1.4-0.4-0.9-5.4-0.9-6.1c5.1-3.9,4.7,2.7,16,2.4c1.6,1.8,3.9,9.1,7.4,8c0.5,2.1,4.2,3.8,6,4.6c1,1.2,2.8,5.1,5,4.4
	c-1-8.1,1-3.7,2.6-10.4c2.2-1.3,4-3.2,5.2-5.5c-7.3-1.8-6.5-3.8-3.1-9.4c-2.1-4.9-1.3-14,1-18.8c3.7-1.7,7.3-0.8,10.2,1.8
	c0.9,4.6,5.5,4.2,9,3.8l5.3,6.5c1,12.7-4.8,3.8-0.6,12.9c-2.6,1.6-2.2,4.4-1.2,6.8l4.9-0.4c3.5-3.8,3.8-4.6,9.1-3.8
	C442.5,467,440.3,471.5,439.5,476.5z"/>
<path class="st1" d="M411.2,433l6.8,17.2c-3.6,0.4-8.2,0.8-9-3.8c-2.9-2.6-6.5-3.5-10.2-1.8c-2.3,4.8-3.1,13.9-1,18.8
	c-3.4,5.6-4.1,7.6,3.1,9.4c-1.1,2.3-2.9,4.2-5.2,5.5c-1.7,6.7-3.6,2.2-2.6,10.4c-2.1,0.8-3.9-3.1-5-4.4c-1.8-0.8-5.5-2.5-6-4.6
	c-3.4,1.1-5.8-6.1-7.4-8c-11.3,0.3-10.9-6.3-16-2.4c0,0.8,2.3,5.7,0.9,6.1c-1.7-0.1-4.2,0-4.9-2.1c-5.1-0.8-0.8-2.2-5.6-3
	c-5.1,6.8,0.3,7.1-3.5,15.7c2.6,2.8,2,5.9,1.6,9.3c-0.9,4-5.7,7-9.5,7.9c-5.4-2.1-4.3-4.8-5.3-9.5c-4.8-0.6-9.7-11.5-14.1-12.9
	l-7.1,2c3.8-9.1-3.6-3.3-1.7-8.7c2.7,0.1,8.3-3,10.6-4.4c4,1.1,3.9-0.7,5.8-3.4l-2.5-5.4c-3.4-0.5-9.7,0.3-5.8-4.9l7.2-0.5
	c0.3-3,0.4-3.7-2.4-5.3c-0.3-4.1,2.4-10.5-2.2-13.3c-2.1,1.6-4.3,0.2-6.2-0.7c2-4.5,2.6-5,7.5-6l-0.7-2.5
	c11.9-5.6,12.2,2.9,18.1-5.7l-1.7-1.2c3.8-1.2,11.2-1.1,15.1-0.2l1.8-0.1c2.2-3.1,6.5-5.3,10.3-4.4c2,0.5,4,3.5,5,0.3
	c1.2-2.1,3.2-3.6,5.6-4.1l0.4,4.8c4.2-0.5,3.3,2.4,4.5,5.2c0.9-6.5,1.5-6.5,7.1-9.5l2.3-0.4l0.9-1.4c3.8-4.9,6.7-3.1,11.1-0.7
	C408.3,413.3,409.6,426.9,411.2,433z"/>
<path class="st0" d="M402.5,384.8l6.7,1c-3.1,14,1.2,10.5-7.9,24.6c-4.5-2.5-7.4-4.2-11.1,0.7l-0.9,1.4l-2.3,0.4
	c-5.5,3-6.2,3-7.1,9.5c-1.2-2.8-0.3-5.7-4.5-5.2l-0.4-4.8c-2.4,0.5-4.4,2-5.6,4.1c-1,3.2-3,0.2-5-0.3c-3.8-0.9-8.1,1.3-10.3,4.4
	l-1.8,0.1c-3.9-0.9-11.3-1-15.1,0.2c-4.2-1.9-10.6-2.9-15.2-2l-5.3-2.3l0.1-10.4c-2.2-2.1-0.9-2.5,0.4-4.4l-2.4-1.6l1.9-1
	c-1.7-2.3-3.2-3.2-1.4-6.1c-1.1-4.2,1.3-3.4,4.2-4.8l2.4,1.5c0.8-0.7,5.5-6.2,6.8-5.5c-1.4-1.5,0.9-5.2,2.2-6.3
	c-2.7-3.6-0.3-5,1.3-8.2l3.5,3.5c3.5-4.9-0.8-9.1-2.2-13.7l1.8-5.8l-2.6-15.7l14.4,0.3l0.4-23.2l4.8-6.7l-4.8-8.4l-0.8-4.4
	c-2.2-1.2-6.6-2.6-9-2.3c-1.3-8-1.6-6.4-8.8-8.2l0.5-10l10.6-1.7c-0.1-1-4.5-7.1-2.4-7.6c4.7-1.8,14.4-3.1,19.4-3
	c4.3-1.9,14-9,17.8-3.4c0.2,3,0.2,2.9,3.1,2.8c0.8,2.3-0.2,6.3,3.4,6.2c-1,1.7,0.1,5.1,0.9,6.8c1.8-0.4,6.6-1.8,8.2-0.2
	c-1.2,2.9-6.3,8.1-0.2,9c-3.6,6.9-7.6,1-7.5,16.1c4.4,3.6,4.8,6.9,5.5,12.1c2.1,1.3,0.3,5.9,0,7.6c1.5,2.2,2.4,4.9,2.5,7.6
	c2.9,1.7,4.4,0.2,6.8-1.2c0.3,1.5,0.1,10.6,2.2,11.2l-1.6,3.2c1.6,1.5,2.6,1.3,4.5,0.5l-0.6,1.3c0.3,2.2,2.8,3,4.5,3.7
	c-0.9,0.9-3.1,2.9-2.6,4.3c0.6,1.7,2,4.9,3.8,5.6c-1.4,1.8,0.6,7.9,1.2,10.2l-1.2,0.3l-6.3-5.1C401.2,365.5,400,381.4,402.5,384.8z"
	/>
<path class="st0" d="M329.8,159.7c-1.2-1.1-2.2-2.4-3.1-3.8c-2.5-2-3.2-5.9-3.5-8.8l-2.5-9.9c1-2,0.4-6.8,0-9l-1.6,0.5
	c-0.9-1.6-0.2-5.2,0.3-6.8l0.4-2.7c-5.2-1.8-0.9,2.6-4.7,1.9l-7.2,5.6l-1.8-2.2l-12.2,2l-5,6c-2.6-0.2-7.1-1.6-9-3.5
	c-2.6,0.6-3.7-0.3-5.4-2.2c-1.6-5,1.4-1.3,2.9-6.1c-2-3.2-3.2-5.6-7.4-6l-3.5,3.2c-1.6-0.5-5.8-3.4-7.2-1.3c-1.2,0.9-4,3.4-5.6,2.8
	l-5.4-2.9l-0.4-0.3c2.4-3,2.8-7.8,4.3-11L250.5,94c1.4-1.4,4.4-4.6,3.9-6.8l0.5-3.6l3.3-0.2c1.5-1.2,3.2-3.1,3-5.2
	c6,2.7,6.2-3,9.9,2.3c4.4,2.6,3.6-2.5,7.8,2.1c3.5-1.3,6.7-3.4,9.2-6.1c0.5-2.7-3.3-2.1-4.9-2.7c-1.6-1.2,0.5-5.1,0.9-6.5
	c6.8,2.5,2.9-3.8,3-7.2l3.3-0.3l3-7.5c5.5-6.2,4-8.9,3.6-16.3l6.7-5.6l2.9,2.8c4.2-1.9,13.4-2.3,18-1.9c2.5-5.4,3.4-6.4,9.1-8.4
	c2,1.6,5.1-0.4,7-1.3c1.6,0.5,3.6,1.7,4.1,3.5c-0.2,3.1-4.5,1.8-5.2,4.5c-0.8,0.8-3.2-0.4-2.2,1.3c-3.8,2.9-1.9,26-4.1,20.8
	c-0.6,1.7-1.4,4.2-0.6,5.8c0,2-3.3,1.1-0.4,2.5c1.7,6.5,14.6,21.5,16.3,11c7.6-2.4-0.2,4.8,14,2.9c-0.7,2.4,2.9,0.7,1.8,3.1
	c1.8,3-2.2,3.7-2.7,5.9c7.1,6.6,13.8,12.4,21.7,16.8c0.9,1.6-4,7.5-5.5,8.5c-1.2,1.9-6.8-0.9-3.4,1.6c3.1,1.5,5.8,4.9,6.5-1.6
	c9.8-7.5,12.5-4.4,19.5,1.5l-0.2,0.3c-2.1,1.4-2.5,1.8-1.9,4.4c1.6,5-2.3,4.8,1.2,10c-9.4,6.7-2,4.2-8.9,11.1
	c-4.4,2.8-13,12.7-18.7,12.1c-1.3,2.3-9.6,8.3-1.1,6.8c-0.1,1.8,0.3,2.9-1.9,3.3c0.4,2.5,0.2,2.9,2.9,2.8l4.2,3.7
	c-0.4,2.6-0.9,2.7-3.4,3.1c-7.2-3.2-10.7,1.5-16.8,4.1c-4.5-4.9-3.8-8.9-11.6-7.9C337.5,160.2,334.5,164,329.8,159.7z"/>
<path class="st1" d="M382.8,183l-0.4,3.9c-0.7,4.2-1,5.1-5,7l-5.9,7.6c-1.1,2.5-3.4,15.9-7.2,16.2c1.7,5,1.2,5.3-2,9.3
	c0.9,2.9,3,15.6,6,17.3l9.6,7.5l1.8,3.5l-5.1,4.1c-3.8-5.6-13.4,1.4-17.8,3.4c-5-0.1-14.7,1.2-19.4,3c-2.2,0.5,2.3,6.7,2.4,7.6
	l-10.5,1.7l-0.5,10c7.2,1.8,7.5,0.2,8.8,8.2c2.5-0.3,6.9,1.1,9,2.3l0.8,4.4l4.8,8.3l-4.8,6.7l-0.4,23.2l-14.4-0.3
	c-10,1.6-8.3,0.4-13.9-6.9c-1.2-2.8,0-5.1-4.1-3.6c1-1.8,1.1-5.3,0.4-7.3c-3,0.9-10.7,3.5-13.8,2.3c-1-3.1-2-2.4-4.7-2.3l-1.1,5
	l-3.4,0.5l0.2,8.3l-2.1,0.7c-1-0.1-4.6-1.5-5.2-0.1l-0.4,11c-0.8,1.4,0.6,2.2,1.5,2.9c1.1,2-4.6,4.1-5.5,5c0.8-3.1-5.4-3.2-7.1-4.1
	l-6,3.2c-2-1.8-8.3-0.8-10.7-0.5c-3.8-2.5-3.5-1.7-6.4,1.2c-8-0.2-5.6-1-6.6-7.8l-2.9,1.7c-1-2.1-1-2.6-3.5-1.9
	c0.9-3.2-0.2-8.3-1.6-11.2l-4,1.6l-0.5-2.7c-1.6-9.2-2.3-10.2,7.3-13.3l-6.5-2.9l-1.9-10.6l-2.4-0.7c1.8-2.1,1.2-2-0.6-3.5l1.8-1.2
	l-2.3-1.6c1.7-0.4,1.9-2.9,1.9-5.4c7.6-5.2,7.1-6.9,16.4-3.6c5.1-8.5,29.3-20.4,37.8-24.7c-3.3-6.6-0.9-17.9,0.2-24.6
	c3.2-3.4,6.7-11.6,7.6-16.2c-5.5-7-3.8-6.4-0.7-13.9v-18.3l4.2-7.2c4-1.5,12.4-2.5,16.7-2.6c3.1-8.9,12-17.6,19.4-23
	c4.6,4.3,7.6,0.5,14.8,3.8c7.9-1.1,7.1,2.9,11.6,7.9c6.1-2.5,9.6-7.3,16.8-4.1l2.1,8.1c2,1.5,3.4,1.6,2.3,4.5
	C379.3,183.1,378.5,184.5,382.8,183z"/>
<path class="st0" d="M337.2,420.9l1.7,1.2c-5.9,8.6-6.2,0.1-18.1,5.7l0.7,2.5c-4.9,1-5.5,1.5-7.5,6c1.9,0.9,4.1,2.3,6.2,0.7
	c4.6,2.8,1.9,9.2,2.2,13.3c2.8,1.6,2.7,2.3,2.4,5.3l-7.2,0.5c-4,5.2,2.3,4.4,5.8,4.9l2.5,5.4c-1.9,2.8-1.9,4.5-5.8,3.4
	c-2.3,1.4-7.8,4.4-10.6,4.4c-1.9,5.4,5.5-0.4,1.7,8.7l7.1-2c4.3,1.4,9.3,12.3,14.1,12.9c1,4.7-0.1,7.5,5.3,9.5
	c-2.5,15.3-8,8.3-4.2,15.1c-8.7,6.6-2,2.8-5.5,9.8c2.4,0.5,2.6,6.3,3,8.1c2.9,0,3.9,3.5,4.9,5.5c-1.6,1.2-2.6,4.6-2.8,6.5
	c-3.3-0.5-3.8,2.1-5.2,4.3l-5.6,4.8c-1.2-0.2-6.3-0.4-7.2-1.4c-2.9,2.4-6.5,1-9.7,0.3c-2.3,1-3.7,2.8-6,0.4l-9,0.9
	c-2-0.2-3-4.5-3.6-6c-2.3,0-5.1-2-6.5-3.7c2.3,0.5,1.4-1.8,1.7-3.2l3.1-5.4c2.3,1.3,2.4,1.2,3.7-1l5.3-2.2c5.5-4.6,6.3-13,5.6-19.7
	c-1.3-1.3-0.7-4.8-0.4-6.3l-1.2-5.6c-3.2-2-3.8-2.6-7.4-0.8c-0.6-1.7-2.3-4.5-0.6-6.2c-4.5-5.1-5.8,1.5-7.4,4.8l-7.8-1.6l-0.8-4.4
	l4.9-4.1l-1.6-3.2l-5.2-4.7c-2.3,1-8.3,6.1-10.7,3c2.3-2.3-1.1-3-2.5-4.6c-1.5-0.7-2.3-2.3-2-3.9c0.9-1.5,3.9-3.6,1.9-5.4
	c-3.4-0.9-4.5-1.9-5.8-5.2c-1.3-1.8-1.7-2.4-4-1.6c-0.4-2.6-1.3-2.9-3.6-3.6c-1.3-1.7-1.9-3.8-1.7-5.9l3.2-8
	c-0.9-3.2-2.3-8.2,1.9-9.6c6-0.1,4-4.7,9.3-4.7l-1-5.3l1.9-4.4c1.1,1.8,5.4-1,6.6-1.3c0.9,1.5,5.5-0.5,6.6-0.7l5-6.1l-2.1-1.8
	c0.7-2.2,2.4-3.4-0.3-5l4-2.4l-1-1.5l2.4-0.7c-1.1-1.2-1.3-1.5-0.2-2.8c-0.9-1.1-1.5-1.9-0.4-3.2c-4.6-3.1-0.2-3.7-1.9-8.3v-4.5
	c-2.4,0.5-7.1,0.8-9.3-0.6c-0.8-2.9-0.7-3.1,1.9-4.6c0-3.1-3.5-5.7-5.7-7.4c1.8-5.8,3.4-5,7.9-2.3c1.6-2,1.8-3,4.5-1.6l1.6,1.3
	l1-3.3c2.5-0.4,2.8,0.4,3.8,2.4c3.2-1.2,3.6-2.5,5.7,1l3.5-3c-0.5,2.7-0.1,3.4,2,5l3.5-0.6c0.5-1.5,1.9-2.5,3.5-2.4
	c-1.6,4.5-2.5,6.4,3.4,4.6c4.5,5.5,2.5,8.3,10.7,5.8c1.1,1.5,3.9,5,3.2,7.1c-2.8,1.5-5.3,0.6-4.2,4.8c-1.8,3-0.3,3.8,1.4,6.1l-1.9,1
	l2.4,1.6c-1.4,1.9-2.7,2.4-0.4,4.4l-0.1,10.4l5.3,2.3C326.6,418,333,419,337.2,420.9z"/>
<path class="st1" d="M326.7,155.9c0.9,1.4,1.9,2.6,3.1,3.8c-7.5,5.4-16.3,14.1-19.4,23c-4.2,0.1-12.7,1.1-16.7,2.6l-4.2,7.2v18.4
	c-3.1,7.5-4.8,6.9,0.7,13.9c-0.9,4.6-4.4,12.8-7.6,16.2c-1.1,6.7-3.5,18-0.2,24.6c-8.6,4.4-32.7,16.2-37.8,24.7
	c-9.3-3.3-8.8-1.6-16.4,3.6c0-1.7-0.2-3.3-0.1-4.1c-1-3-1.8-4.2-5-5.1c-5.5,8.3,2.8,3.7-11,9.4c-2.4,0.5-3.6,2.2-4.2-1.3
	c-5-1.9-4.2-2.7-4.7-7.5c-0.9-3.2-3.2-1.9-5.6-1.9c0.4-3.4,0-5.7,3.6-7.4c1.6-3.3,2.2-6.5-0.3-9.6c7.5,0.4,6.1-5.1,5.7-10.4
	c0.6-2.5,2.2-8,4.3-9.6l4.9,1.5l0.2-6.9l0.6-11.6l5.4-5.9c0-1.9,1.6-7.7-1-8.6c2.3-0.8,5.6-1.7,1.6-3.6c3-4.1-0.9-3.4,0-9
	c4,0.5,0.9-5.2,0.9-7.1l-5.9-12.5c-0.5,1.5-0.4,3.2-2.5,2.7c-1.5-0.6-1.1-2.5-1-3.7c-2-0.1-4.9-2-6.2-3.5c4.1-9,4.9,1.4,2.3-14.6
	l-4.8,1.1c-0.6-1.9-1.6-5.7-0.5-7.5l5.4-1l2-3.1l2.6,3.8l6,0.6c-0.4-5.3,1.9-2.8,5.6-3.2c2.6,3.8,6.8,7.8,11.9,6.4
	c5.3-1.2,12.3,0.2,17.2,2.1l4.5-3.1c-1.5-0.5-0.7-4.3-0.7-5.3c0.8-1.5,4.4-1.6,5.8-1.7l1.5-7.9c-2-3.3-0.7-6.7,0.4-10l6.1-0.9
	c-0.2-2.4-1-5.2,1.5-6.9c1.7,1.8,2.8,2.8,5.4,2.2c1.9,1.9,6.4,3.3,9,3.5l5-6l12.2-2l1.8,2.2l7.2-5.6c3.8,0.7-0.5-3.7,4.7-1.9
	l-0.4,2.7c-0.5,1.6-1.1,5.2-0.3,6.8l1.6-0.5c0.4,2.1,1,6.9,0,9l2.5,9.9C323.5,150,324.2,154,326.7,155.9z"/>
<path class="st2" d="M270,114.8c4.2,0.5,5.4,2.9,7.4,6c-1.5,4.8-4.4,1.2-2.9,6.1c-2.5,1.7-1.6,4.4-1.5,6.9l-6.1,0.9
	c-1.1,3.3-2.4,6.7-0.4,10l-1.6,7.9c-1.4,0.1-5,0.2-5.8,1.7c0.1,1-0.7,4.8,0.7,5.3l-4.6,3.1c-4.9-1.9-11.9-3.3-17.2-2.1
	c-5.1,1.4-9.3-2.5-11.9-6.4c-3.7,0.4-6-2.1-5.6,3.2l-6-0.6l-2.7-3.8l-2,3.1l-5.4,1c-1.2,1.8-0.2,5.7,0.5,7.5l4.8-1.1
	c2.6,16,1.8,5.7-2.3,14.6c1.3,1.5,4.1,3.4,6.2,3.5c-0.1,1.2-0.4,3.1,1,3.7c2.1,0.5,2-1.2,2.5-2.7l5.9,12.5c0,1.9,3.1,7.6-0.9,7.1
	c-0.9,5.6,3,4.9,0,9c-1.5,1.3-4.7-1.6-5.9-2.3l-6.7,0.9c-1.8,0.1-7.9,1.9-9.2-0.2c-2.3,5.1-3,4.2-8.1,4.4l-9.6-1.5
	c-5.1,2.3-4.8,3.9-8.9-1.1c3.6-0.5,3.3-17.3,3.9-19.6c-3-1.4-3.6,3-5.7,0.2c-9.4-15.3,2.1-11.5-9.9-19.7c1.1,5-0.9,4.3-4.4,6.5
	c-1.6-2-3.6-4.8-3.1-7.6c-1-0.8-4.2-5.2-4.7-1.9c-5.4,1.7-9,7.2-12.2-0.4c-2-0.6-2-0.8-1.4-2.7l-2.4-2c-2.4,0.4-4,0.4-4.8,3.1
	c-2-1.1-2.7-2.3-4.7-0.2l-5-0.3l-3.4-0.3c-3.4-2.2-6.9-2.1-6.6-7.2c-9.3-5.3-13.6-3.4-7.7-15.1c0-1.4-2-1.2-2.9-1.4
	c-3.8-3.7-7.4-3-5.7-9.4c-3-0.7-0.2-3.1,0.2-4.9l-1.5-2.7c0.3-4.2-1.7-3.8-4.7-5.3l-10,2.5c-1.7-2.5-3.5-4.8-5.5-7l-5.5-5.1
	c-2.1-0.9-24.6-1.1-14.5-4.6c-5.1-4.3-11.6-6.7-12.5-14.5c-3.6-1.2-4.7-1-5.2-5.2l-6,1.8c-2.3-1.2,1.7-7.6,2-9.1
	c-3.1-2.2-3.9-2-2.5-5.9l3.6-1l1-13.2l4.5-6.9l11-1.5c5.2-2.9,13.7-5.7,19.2-1.9c4.1,1.5,3.9,2.2,5.7-2.2c1.7,1.1,5.2,2.7,7.3,2.1
	c1.2,1,7.3,4.6,7.2,6.4l5.2,0.8c1.7,7,2.2,10.2,9.1,13.7c-0.2,1.8-0.5,2.9,1.6,3.6c-0.8,2.3,1.1,4,2.5,5.5c-1.8,1-2.2,5.8-2.5,7.6
	l1.2,1.7c3.8,0.4,4.7,1,6.6,4.2l2.8,7.4l-1.6,4c1.6,2.5,0.6,5.6,4.6,3.8l-1.5,2.8c1.7,1.4,2.3,3.3,4.3,1l-0.7,2.1
	c1.8,0,3.2,0.8,3.6-1.7l1,0.5l0.5-5.3c2.1-0.6,0.8-2.6,0.6-4c1.7-0.8,3.6-1,3.1-3.4c1-0.4,4.3-0.3,3.6-2.1l-1.4,0.2
	c3.5-2.3,4-3.7,8.1-1.4c2.1,1.2,2.4,1.8,2,4.2c0.5,2.1,7.2,8.4,8.6,10l6.8,0.6c2,1.9,3.2,1.3,5.6,0.4c0.5-1.9,4.5-3.3,6.1-3.9
	l3.1-5.8c3.1-0.4,8.9,2,11.6,3.2c2,0.8-0.5-8.4-0.1-8.9l1-7.5c0.1-2.7,9.6-0.9,11-1.2c0.2-5.1,1.9-3.5,5.8-4.1l5.8,3.3
	c1.4-1.8,7.3-0.3,9.1-0.1c3,4.8,2.9,6.4-0.2,11.1l9.2,3.7l-0.5,4.7c-1.6,0.2-3.4,0.4-4,2.3c5.7,6.2,5,6.1,3.7,14.1
	c4.1,1.4,4.5,0.5,7.5-2.1c8.1-0.2,1.4-4,14-1.8c1.5-0.4,2.9-1.3,3.8-2.6l0.4,0.3l5.4,2.9c1.7,0.6,4.5-1.9,5.6-2.8
	c1.5-2.1,5.6,0.7,7.2,1.3L270,114.8z"/>
<path class="st3" d="M435.5,472.2c7-5.2,4.8-0.7,4,4.3c0.3,1.2,4.2,8.4,2.6,9.5"/>
<path class="st3" d="M460.7,453c0.3,2.9-0.6,7.1,2.9,8.5c-3.6,4.1,8.8,6.3,10.7,7.8c2.3,7.5,4.3,2.6,3.9,11.2c4.2,1,8.3,2.2,6.6,7.4
	"/>
<path class="st3" d="M393,488.7c-1-8.1,1-3.7,2.6-10.4c2.2-1.3,4-3.2,5.2-5.5c-7.3-1.8-6.5-3.8-3.1-9.4c-2.1-4.9-1.3-14,1-18.8
	c3.7-1.7,7.3-0.8,10.2,1.8"/>
<path class="st3" d="M393,488.7c-2.1,0.8-3.9-3.1-5-4.4c-1.8-0.8-5.5-2.5-6-4.6c-3.4,1.1-5.8-6.1-7.4-8c-11.3,0.3-10.9-6.3-16-2.4"
	/>
<line class="st3" x1="484.7" y1="487.9" x2="483.8" y2="490.3"/>
<path class="st3" d="M349.2,470.5c-5.1,6.8,0.3,7.1-3.5,15.7c2.6,2.8,2,5.9,1.6,9.3"/>
<path class="st3" d="M347.3,495.5c-0.9,4-5.7,7-9.5,7.9"/>
<path class="st3" d="M311.3,483l7.1-2c4.3,1.4,9.3,12.3,14.1,12.9c1,4.7-0.1,7.5,5.3,9.5"/>
<path class="st3" d="M385.5,505c-6,2-0.7,3.1-5.7,7.5"/>
<path class="st3" d="M400.5,110c-2.1,1.4-2.5,1.8-1.9,4.4"/>
<path class="st3" d="M259.2,116.8c-1.2,0.9-4,3.4-5.6,2.8"/>
<line class="st3" x1="253.6" y1="119.6" x2="248.2" y2="116.7"/>
<path class="st3" d="M315.1,121.2c3.8,0.7-0.5-3.7,4.7-1.9"/>
<line class="st3" x1="319.4" y1="121.9" x2="319.8" y2="119.3"/>
<line class="st3" x1="293.9" y1="126.7" x2="306.1" y2="124.6"/>
<line class="st3" x1="307.9" y1="126.8" x2="315.1" y2="121.2"/>
<line class="st3" x1="306.1" y1="124.6" x2="307.9" y2="126.8"/>
<path class="st3" d="M274.5,127c-1.6-5,1.4-1.3,2.9-6.1c-2-3.2-3.2-5.6-7.4-6l-3.5,3.2c-1.6-0.5-5.8-3.4-7.2-1.3"/>
<path class="st3" d="M274.5,127c1.7,1.8,2.8,2.8,5.4,2.2c1.9,1.9,6.4,3.3,9,3.5l5-6"/>
<path class="st3" d="M398.6,114.4c1.6,5-2.3,4.8,1.2,10c-9.4,6.7-2,4.2-8.9,11.1"/>
<path class="st3" d="M320.7,137.2c1-2,0.4-6.8,0-9l-1.6,0.5c-0.9-1.6-0.2-5.2,0.3-6.8"/>
<path class="st3" d="M390.8,135.5c-4.4,2.8-13,12.7-18.7,12.1"/>
<path class="st3" d="M373,167.3c-7.2-3.2-10.7,1.5-16.8,4.1"/>
<path class="st3" d="M356.2,171.4c-4.5-4.9-3.8-8.9-11.6-7.9c-7.1-3.3-10.1,0.5-14.8-3.8c-1.2-1.1-2.2-2.4-3.1-3.8"/>
<path class="st3" d="M326.7,155.9c-2.5-2-3.2-5.9-3.5-8.8l-2.5-9.9"/>
<line class="st3" x1="212" y1="153.1" x2="210" y2="156.1"/>
<line class="st3" x1="214.7" y1="156.9" x2="212" y2="153.1"/>
<line class="st3" x1="210" y1="156.1" x2="204.6" y2="157.1"/>
<path class="st3" d="M274.5,127c-2.5,1.7-1.6,4.4-1.5,6.9l-6.1,0.9c-1.1,3.3-2.4,6.7-0.4,10l-1.5,7.9c-1.4,0.1-5,0.2-5.8,1.7
	c0.1,1-0.7,4.8,0.7,5.3"/>
<path class="st3" d="M238.2,160.6c-5.1,1.4-9.3-2.5-11.9-6.4c-3.7,0.4-6-2.1-5.6,3.2l-6-0.6"/>
<path class="st3" d="M259.9,159.7l-4.6,3.1c-4.9-1.9-11.9-3.3-17.2-2.1"/>
<path class="st3" d="M372.2,147.6c-1.3,2.3-9.6,8.3-1.1,6.8c-0.1,1.8,0.3,2.9-1.9,3.3c0.4,2.5,0.2,2.9,2.9,2.8l4.2,3.7"/>
<line class="st3" x1="205.1" y1="164.7" x2="209.8" y2="163.6"/>
<path class="st3" d="M204.6,157.1c-1.2,1.8-0.2,5.7,0.5,7.5"/>
<path class="st3" d="M376.4,164.2c-0.4,2.6-0.9,2.7-3.4,3.1"/>
<line class="st3" x1="373" y1="167.3" x2="375.1" y2="175.4"/>
<path class="st3" d="M375.1,175.4c2,1.5,3.4,1.6,2.3,4.5c1.9,3.2,1.1,4.6,5.4,3.1"/>
<path class="st3" d="M209.8,163.6c2.6,16,1.8,5.7-2.3,14.6c1.3,1.5,4.1,3.4,6.2,3.5c-0.1,1.2-0.4,3.1,1,3.7c2.1,0.5,2-1.2,2.5-2.7"
	/>
<line class="st3" x1="382.8" y1="183" x2="382.4" y2="186.9"/>
<line class="st3" x1="217.3" y1="182.7" x2="223.3" y2="195.1"/>
<path class="st3" d="M223.3,195.1c0,1.9,3.1,7.6-0.9,7.1c-0.9,5.6,3,4.9,0,9"/>
<path class="st3" d="M382.4,186.9c-0.7,4.2-1,5.1-5,7l-5.9,7.6c-1.1,2.5-3.4,15.9-7.2,16.2"/>
<path class="st3" d="M362.4,226.9c3.2-4,3.7-4.3,2-9.3"/>
<path class="st3" d="M368.4,244.2c-3-1.6-5.2-14.3-6-17.3"/>
<line class="st3" x1="378" y1="251.7" x2="368.4" y2="244.2"/>
<polyline class="st3" points="374.7,259.3 379.8,255.3 378,251.7 "/>
<path class="st3" d="M337.5,265.7c4.7-1.8,14.4-3.1,19.4-3c4.3-1.9,14-9,17.8-3.4"/>
<path class="st3" d="M329.3,275l10.6-1.7c-0.1-1-4.5-7.1-2.4-7.6"/>
<path class="st3" d="M374.7,259.3c0.2,3,0.2,2.9,3.1,2.8c0.8,2.3-0.2,6.3,3.4,6.2c-1,1.7,0.1,5.1,0.9,6.8c1.8-0.4,6.6-1.8,8.2-0.2"
	/>
<path class="st3" d="M390.2,274.9c-1.2,2.9-6.3,8.1-0.2,9"/>
<line class="st3" x1="328.8" y1="285" x2="329.3" y2="275"/>
<line class="st3" x1="404.5" y1="292.8" x2="409.2" y2="292.8"/>
<line class="st3" x1="398.1" y1="295" x2="404.5" y2="292.8"/>
<path class="st3" d="M409.2,292.8c3.7,2.5,3.1-1.8,9.2,0.9c6-3.9,2.3,2.8,12.1-3.7c3.1,2.1,9.8,5.5,13.5,5.9"/>
<path class="st3" d="M390,283.9c2.3,0.5,1.2,3.4,1.2,5c1.3,3.8,1.1,9.7,6.9,6"/>
<line class="st3" x1="444" y1="296" x2="448.1" y2="297.1"/>
<path class="st3" d="M390,283.9c-3.6,6.9-7.6,1-7.5,16.1"/>
<path class="st3" d="M448.1,297.1l3.4-0.2c-0.9,2.7,1.1,7.9,2.2,10.3"/>
<path class="st3" d="M352.1,308.3l-4.8-8.3l-0.8-4.4c-2.2-1.2-6.6-2.6-9-2.3c-1.3-8-1.6-6.4-8.8-8.2"/>
<path class="st3" d="M453.8,307.2c-0.1,5,0.1,13.1-3.2,17.3"/>
<polyline class="st3" points="332.6,337.9 346.9,338.2 347.3,315 352.1,308.3 "/>
<path class="st3" d="M382.5,300c4.4,3.6,4.8,6.9,5.5,12.1c2.1,1.3,0.3,5.9,0,7.6c1.5,2.2,2.4,4.9,2.5,7.6c2.9,1.7,4.4,0.2,6.8-1.2
	c0.3,1.5,0.1,10.6,2.2,11.2l-1.5,3.2c1.6,1.5,2.6,1.3,4.5,0.5l-0.6,1.3"/>
<path class="st3" d="M450.6,324.5c-7.8-0.8-0.9,3.7-10.2,0.5c-0.3,4.7-1.3,6,3.1,9c-1.5,2.2-4.3,3.2-2.1,6.1l-3.2,0.9
	c0,1.2-0.3,3.8,1.1,4.4c1.4-0.8,4.5-2.2,6.1-1.4c0.6,1.8-0.1,3-1.4,4.3"/>
<path class="st3" d="M444.1,348.3c-0.8,1.6-2.1,4.6-4.3,4.5"/>
<path class="st3" d="M439.8,352.9c-1.1,1.4-3.6,5.6-5.7,5.5"/>
<path class="st3" d="M402,342.3c0.3,2.2,2.8,3,4.5,3.7c-0.9,0.9-3.1,2.9-2.6,4.3c0.6,1.7,2,4.9,3.8,5.6c-1.4,1.8,0.6,7.9,1.2,10.2
	c0,0.1,0.1,0.2,0.1,0.3"/>
<path class="st3" d="M448.8,359.3c1.7-0.4,3.1,0,2.9-2.4"/>
<path class="st3" d="M407.6,366.4l-6.3-5.1c-0.1,4.1-1.4,20,1.2,23.4l6.7,1c-3.1,14,1.2,10.5-7.9,24.6"/>
<polyline class="st3" points="448.8,359.3 445.4,360.4 442.8,369.8 "/>
<path class="st3" d="M434.1,358.3c0.1,2.3-0.2,6.8-1.5,8.8c2.8,2.3,4.2,0.1,6.7-1.2c2.5-0.6,2.8,2.3,3.6,3.9"/>
<path class="st3" d="M451.7,357l2.3-2.1c1.6,0.8,2.6,2.8,3.9,0.5c2.5,0.3,5.4-1.7,5.6,2c3.6,0.8,4.7,5.8,5.9,8.6
	c1.7,0.1,5.3,1.2,6.2-0.9l11.2-1c1.4,1.8,2.2,2.8,1,5c5.2-0.3,3.6,0.6,4.2,4.8c2.4-2.6,5.2-6.5,8.2-2c1.5-1.7,2.8-2.4,5.1-2l1.1,2.1
	c1.8-1.9,6.1-3.1,8.6-3.3"/>
<path class="st3" d="M442.8,369.8c1.5,1.6,1.9,1.8,3.8,0.8c4.6,1,4.2,12,2.3,15.3"/>
<line class="st3" x1="448.9" y1="385.8" x2="451.6" y2="396"/>
<path class="st3" d="M451.6,396c2.6,5.8-2.2,4.2,3,6.6"/>
<path class="st3" d="M454.6,402.6c2.8-1.3,3.4-3.7,5.3,0.2"/>
<path class="st3" d="M390.2,411.1c3.8-4.9,6.7-3.1,11.1-0.7"/>
<line class="st3" x1="389.3" y1="412.5" x2="390.2" y2="411.1"/>
<line class="st3" x1="387" y1="412.9" x2="389.3" y2="412.5"/>
<path class="st3" d="M369.4,416.5c1.2-2.1,3.2-3.6,5.6-4.1l0.4,4.8"/>
<path class="st3" d="M322,418.9l-5.3-2.3l0.1-10.4c-2.2-2.1-0.9-2.5,0.4-4.4l-2.4-1.6l1.9-1c-1.7-2.3-3.2-3.2-1.4-6.1
	c-1.1-4.2,1.3-3.4,4.2-4.8"/>
<path class="st3" d="M354.1,420.5c2.2-3.1,6.5-5.3,10.3-4.4c2,0.5,4,3.5,5,0.3"/>
<line class="st3" x1="352.3" y1="420.7" x2="354.1" y2="420.5"/>
<path class="st3" d="M352.3,420.7c-3.9-0.9-11.3-1-15.1,0.2"/>
<path class="st3" d="M337.2,420.9c-4.2-1.9-10.7-2.9-15.2-2"/>
<line class="st3" x1="338.9" y1="422.1" x2="337.2" y2="420.9"/>
<path class="st3" d="M379.9,422.4c0.9-6.5,1.5-6.5,7.1-9.5"/>
<path class="st3" d="M375.4,417.2c4.2-0.5,3.3,2.4,4.5,5.2"/>
<path class="st3" d="M338.9,422.1c-5.9,8.6-6.2,0.1-18.1,5.7"/>
<path class="st3" d="M459.9,402.8c-1.2,3-0.8,4.6,0.7,7.3c-2.4,1.2-2.3,4.9-2.4,7l3.3,5.9c-2.6,4.4-4.6,5.5-2.1,10.8"/>
<path class="st3" d="M320.8,427.8l0.7,2.5c-4.9,1-5.5,1.5-7.5,6"/>
<path class="st3" d="M459.4,433.8c1.7,0.3,7.8,2.9,9.2,1c1.3,4.3,4.7,4.3,8.2,5.5"/>
<path class="st3" d="M476.9,440.3l-0.3,3.2c5.7,1.6,4.9,2.5,0.6,5.5"/>
<path class="st3" d="M401.4,410.4c7,2.9,8.3,16.5,9.9,22.6l6.8,17.2"/>
<path class="st3" d="M409,446.5c0.9,4.6,5.5,4.2,9,3.8"/>
<line class="st3" x1="491.8" y1="451.3" x2="500.4" y2="450.2"/>
<path class="st3" d="M477.3,449c4.7,4.7,8.9,2.6,14.6,2.3"/>
<path class="st3" d="M460.7,453c1.5-2.3,6.9-4.9,9.4-5.9l7.2,1.8"/>
<line class="st3" x1="418" y1="450.2" x2="423.2" y2="456.7"/>
<path class="st3" d="M423.2,456.7l19.3,5c6.6-1.7,13.5-3,18.2-8.7"/>
<path class="st3" d="M500.4,450.2c3.3,1.1,5.9,1.7,7.2,5.4c2.3,3.7,5.8,8.9,7.8,12.8"/>
<path class="st3" d="M358.8,469.4c0,0.8,2.3,5.7,0.9,6.1c-1.7-0.1-4.2,0-4.9-2.1c-5.1-0.8-0.8-2.2-5.6-3"/>
<path class="st3" d="M426.4,476c3.5-3.8,3.8-4.6,9.1-3.8"/>
<path class="st3" d="M423.2,456.7c1,12.7-4.8,3.8-0.6,12.9c-2.6,1.6-2.2,4.4-1.2,6.8l4.9-0.4"/>
<path class="st3" d="M515.4,468.4c1.2,3.2,3.2,8.2,5.4,10.9"/>
<path class="st3" d="M520.9,479.3c1.4,1.4,4,2,5.9,2.2h0.1"/>
<path class="st3" d="M311.3,483c3.8-9.1-3.6-3.3-1.7-8.7c2.7,0.1,8.3-3,10.6-4.4c4,1.1,3.9-0.7,5.8-3.4l-2.5-5.4
	c-3.4-0.5-9.7,0.3-5.8-4.9l7.2-0.5c0.3-3,0.4-3.7-2.4-5.3c-0.3-4.1,2.4-10.5-2.2-13.3c-2.1,1.6-4.3,0.2-6.2-0.7"/>
<path class="st3" d="M395.1,513.5c-6.5-0.3-6.6-4-9.6-8.5"/>
<path class="st3" d="M483.8,490.3c3.3,3.4,0.2,3-2,5.2c-0.5,3.6,0.5,4,3.7,5l0.1,3.5c-1,0.6-4.1,3.7-5.5,2.9c-0.5,1.8-0.5,3.1,1,4.4
	l3.7-1.8l1.6,5.2"/>
<line class="st3" x1="395.1" y1="513.5" x2="402.7" y2="516.6"/>
<line class="st3" x1="379.8" y1="512.5" x2="375.7" y2="517.3"/>
<path class="st3" d="M442.1,486.1l-3.7-0.5c-0.6,4,0,9.1-4.2,11.4c0.7,5.8-2.9,8.6-6.1,12.5c-0.4,3.4,0.9,3.7,3.4,5.3
	c0,1.9,1.7,4.9,2.9,6.3"/>
<path class="st3" d="M434.5,521.1c0.9,1.2-4.6,5.7-5.1,6.5"/>
<path class="st3" d="M402.7,516.6c1.5,0.6,3.2-1.5,4.1-2.5c6.9-1.8,9.6-0.2,13.5,5.5c8.2,2.6,4.5,5.4,9.2,7.9"/>
<path class="st3" d="M473.8,528.2c3.9-2.3,6.9-4.2,8.1-8.9c3.6-0.9,3.9-0.8,4.4-4.5"/>
<path class="st3" d="M337.8,503.4c-2.5,15.3-8,8.3-4.2,15.1c-8.7,6.6-2,2.8-5.5,9.8"/>
<line class="st3" x1="467.9" y1="528.3" x2="473.8" y2="528.2"/>
<line class="st3" x1="465" y1="528.4" x2="467.9" y2="528.3"/>
<path class="st3" d="M328.1,528.3c2.4,0.5,2.6,6.3,3,8.1c2.9,0,3.9,3.5,4.9,5.5c-1.6,1.2-2.6,4.6-2.8,6.5"/>
<line class="st3" x1="465" y1="528.4" x2="431.4" y2="549.9"/>
<line class="st3" x1="431.4" y1="549.9" x2="412.7" y2="565.9"/>
<path class="st3" d="M375.7,517.3c-2.6,4.3-0.6,8.2,0.6,12.3c-0.5,1.7-3,1.2-4.3,1.2l-2.7,9.3c1.7,3.1,1,4.8-0.5,7.7l3.9,15.3
	l-2.4,4"/>
<path class="st3" d="M340.9,21.7c1.6,0.5,3.6,1.7,4.1,3.5"/>
<path class="st3" d="M37,52.7l11-1.5c5.2-2.9,13.7-5.7,19.2-1.9"/>
<path class="st3" d="M67.2,49.2c4.1,1.5,3.9,2.2,5.7-2.2c1.7,1.1,5.2,2.7,7.3,2.1c1.2,1,7.3,4.6,7.2,6.4l5.2,0.8"/>
<path class="st3" d="M92.5,56.3c1.7,7,2.2,10.2,9.1,13.7c-0.2,1.8-0.5,2.9,1.6,3.6c-0.8,2.3,1.1,4,2.5,5.5"/>
<path class="st3" d="M254.9,83.7l3.3-0.2c1.5-1.2,3.2-3.1,3-5.2c6,2.7,6.2-3,9.9,2.3c4.4,2.6,3.6-2.5,7.8,2.1
	c3.5-1.3,6.7-3.4,9.2-6.1c0.5-2.7-3.3-2.1-4.9-2.7c-1.6-1.2,0.5-5.1,0.9-6.5c6.8,2.5,2.9-3.8,3-7.2l3.3-0.3l3-7.5
	c5.5-6.2,4-8.9,3.6-16.3l6.7-5.6l2.9,2.8c4.2-1.9,13.4-2.3,18-1.9c2.5-5.4,3.4-6.4,9.1-8.4c2,1.6,5.1-0.4,7-1.3"/>
<line class="st3" x1="254.4" y1="87.2" x2="254.9" y2="83.7"/>
<path class="st3" d="M28.4,88.8c-2.3-1.2,1.7-7.6,2-9.1c-3.1-2.2-3.9-2-2.5-5.9l3.6-1l1-13.2l4.5-6.9"/>
<path class="st3" d="M105.7,79.1c-1.8,1-2.2,5.8-2.5,7.6l1.2,1.7c3.8,0.4,4.7,1,6.6,4.2"/>
<path class="st3" d="M182.7,88.9l-1,7.5c-0.3,0.5,2.2,9.7,0.1,8.9"/>
<path class="st3" d="M181.8,105.3c-2.7-1.3-8.5-3.6-11.6-3.2l-3.1,5.8c-1.6,0.6-5.6,2-6.1,3.9c-2.3,0.9-3.5,1.5-5.6-0.4l-6.8-0.6
	c-1.4-1.6-8.1-7.9-8.6-10c0.3-2.4,0.1-3-2-4.2"/>
<path class="st3" d="M110.9,92.7l2.8,7.4l-1.6,4c1.6,2.5,0.6,5.6,4.6,3.8l-1.5,2.8c1.7,1.4,2.3,3.3,4.3,1l-0.7,2.1
	c1.8,0,3.2,0.8,3.6-1.7l1,0.5l0.5-5.3c2.1-0.6,0.8-2.6,0.6-4c1.7-0.8,3.6-1,3.1-3.4c1-0.4,4.3-0.3,3.6-2.1l-1.4,0.2
	c3.5-2.3,4-3.7,8.1-1.4"/>
<path class="st3" d="M28.4,88.8l6-1.8c0.5,4.2,1.5,4,5.2,5.2c0.8,7.8,7.3,10.2,12.5,14.5c-10,3.5,12.4,3.8,14.5,4.6l5.5,5.1"/>
<path class="st3" d="M72,116.4c2,2.2,3.9,4.5,5.6,6.9"/>
<path class="st3" d="M182.7,88.9c0.1-2.7,9.6-0.9,11-1.2c0.2-5.1,1.9-3.5,5.8-4.1l5.8,3.4c1.4-1.8,7.3-0.3,9.1-0.1
	c3,4.8,2.9,6.4-0.2,11.1l9.2,3.7l-0.5,4.7c-1.6,0.2-3.4,0.4-4,2.3c5.7,6.2,5,6.1,3.7,14.1c4.1,1.4,4.5,0.5,7.5-2.1
	c8.1-0.2,1.4-4,14-1.8c1.5-0.4,2.9-1.3,3.8-2.6c2.4-3,2.8-7.8,4.3-11L250.5,94c1.4-1.4,4.4-4.6,3.9-6.8"/>
<path class="st3" d="M77.6,123.3l10-2.5c3,1.5,5,1.2,4.7,5.3"/>
<path class="st3" d="M92.2,126.1l1.5,2.7c-0.4,1.7-3.2,4.2-0.2,4.9"/>
<path class="st3" d="M93.6,133.7c-1.8,6.4,1.8,5.7,5.7,9.4c0.9,0.2,2.9,0,2.9,1.4c-5.9,11.6-1.6,9.8,7.7,15.1
	c-0.3,5.1,3.2,5,6.6,7.2"/>
<line class="st3" x1="119.8" y1="167" x2="116.4" y2="166.8"/>
<path class="st3" d="M174.1,211.6c3.6-0.5,3.3-17.3,3.9-19.6c-3-1.4-3.6,3-5.7,0.2c-9.4-15.3,2.1-11.5-9.9-19.7
	c1.1,5-0.9,4.3-4.4,6.5c-1.6-2-3.6-4.8-3.1-7.6c-1-0.8-4.2-5.2-4.7-1.9c-5.4,1.7-9,7.2-12.2-0.4c-2-0.6-2-0.8-1.4-2.7l-2.4-2
	c-2.4,0.4-4,0.4-4.8,3.1c-2-1.1-2.7-2.3-4.7-0.2l-5-0.3"/>
<path class="st3" d="M222.4,211.2c-1.5,1.3-4.7-1.6-5.9-2.3l-6.7,0.9"/>
<path class="st3" d="M209.8,209.9c-1.8,0.1-7.9,1.9-9.2-0.2c-2.3,5.1-3,4.2-8.1,4.4"/>
<path class="st3" d="M192.5,214.2l-9.6-1.5c-5.1,2.3-4.8,3.9-8.9-1.1"/>
<path class="st3" d="M216.5,229.4l5.4-5.9c0-1.9,1.6-7.7-1-8.6c2.3-0.8,5.6-1.7,1.6-3.6"/>
<line class="st3" x1="215.9" y1="240.9" x2="216.5" y2="229.4"/>
<path class="st3" d="M201.1,276c1.6-3.3,2.2-6.5-0.3-9.6c7.5,0.4,6.1-5.1,5.7-10.4c0.6-2.5,2.2-8,4.3-9.6l4.9,1.5l0.2-6.9"/>
<path class="st3" d="M203.2,285.3c-0.9-3.2-3.2-1.9-5.6-1.9c0.4-3.4,0-5.7,3.6-7.4"/>
<path class="st3" d="M212.1,294.1c-2.4,0.5-3.6,2.2-4.2-1.3c-5-1.9-4.2-2.7-4.7-7.5"/>
<path class="st3" d="M238.2,319.7l-6.5-2.9l-1.9-10.6l-2.4-0.7c1.8-2.1,1.2-2-0.6-3.5l1.8-1.2l-2.3-1.6c1.7-0.4,1.9-2.9,1.9-5.4
	c0-1.7-0.2-3.3-0.1-4.1c-1-3-1.8-4.2-5-5.1c-5.5,8.3,2.8,3.7-11,9.4"/>
<path class="st3" d="M230.9,333c-1.6-9.2-2.3-10.2,7.3-13.3"/>
<path class="st3" d="M318.6,331c-1.2-2.8,0-5.1-4.1-3.6c1-1.8,1.1-5.3,0.4-7.3c-3,0.9-10.7,3.5-13.8,2.3c-1-3.1-2-2.4-4.7-2.3
	l-1.1,5l-3.4,0.5l0.2,8.3l-2.1,0.7"/>
<path class="st3" d="M290,334.7c-1-0.1-4.6-1.5-5.2-0.1"/>
<line class="st3" x1="284.8" y1="334.7" x2="284.4" y2="345.7"/>
<path class="st3" d="M284.4,345.7c-0.8,1.4,0.6,2.2,1.5,2.9"/>
<path class="st3" d="M285.9,348.6c1.1,2-4.6,4.1-5.5,5c0.8-3.1-5.4-3.2-7.1-4.1l-6,3.2c-2-1.8-8.3-0.8-10.7-0.5
	c-3.8-2.5-3.5-1.7-6.4,1.2c-8-0.2-5.6-1-6.6-7.8l-2.9,1.7c-1-2.1-1-2.6-3.5-1.9c0.9-3.2-0.2-8.3-1.6-11.2l-4,1.6l-0.5-2.7"/>
<path class="st3" d="M335.2,353.6l-2.6-15.7c-10,1.6-8.3,0.4-13.9-6.9"/>
<path class="st3" d="M273.1,371.9c1.6-2,1.8-3,4.5-1.6"/>
<path class="st3" d="M277.5,370.3l1.6,1.3l1-3.3c2.5-0.4,2.8,0.4,3.8,2.4c3.2-1.2,3.6-2.5,5.7,1l3.5-3c-0.5,2.7-0.1,3.4,2,5l3.5-0.6
	c0.5-1.5,1.9-2.5,3.5-2.4c-1.6,4.5-2.5,6.4,3.4,4.6c4.5,5.5,2.5,8.3,10.7,5.8c1.1,1.5,3.9,5,3.2,7.1l2.4,1.5
	c0.8-0.7,5.5-6.2,6.8-5.5c-1.4-1.5,0.9-5.2,2.2-6.3c-2.7-3.6-0.3-5,1.3-8.2l3.5,3.5c3.5-4.9-0.8-9.1-2.2-13.7l1.8-5.8"/>
<path class="st3" d="M278.2,391.4v-4.5c-2.4,0.5-7.1,0.8-9.3-0.6c-0.8-2.9-0.7-3.1,1.9-4.6c0-3.1-3.5-5.7-5.7-7.4
	c1.8-5.8,3.4-5,7.9-2.3"/>
<path class="st3" d="M277.6,417l-2.1-1.8c0.7-2.2,2.4-3.4-0.3-5l4-2.4l-1-1.5l2.4-0.7c-1.1-1.2-1.3-1.5-0.2-2.8
	c-0.9-1.1-1.5-1.9-0.4-3.2c-4.6-3.1-0.2-3.7-1.9-8.3"/>
<line class="st3" x1="272.6" y1="423.1" x2="277.6" y2="417"/>
<path class="st3" d="M272.6,423.1c-1.2,0.2-5.7,2.2-6.6,0.7c-1.3,0.3-5.6,3.1-6.6,1.3"/>
<line class="st3" x1="257.5" y1="429.5" x2="259.3" y2="425.1"/>
<path class="st3" d="M249.2,439.5c6-0.1,4-4.7,9.3-4.7l-1-5.3"/>
<path class="st3" d="M253.3,468.2c-1.3-1.8-1.7-2.4-4-1.6c-0.4-2.6-1.3-2.9-3.6-3.6c-1.3-1.7-1.9-3.8-1.7-5.9l3.2-8
	c-0.9-3.2-2.3-8.2,1.9-9.6"/>
<path class="st3" d="M253.3,468.2c1.3,3.2,2.5,4.3,5.8,5.2"/>
<path class="st3" d="M259.2,473.3c2,1.8-1,3.9-1.9,5.4c-0.3,1.6,0.5,3.2,2,3.9"/>
<path class="st3" d="M259.3,482.6c1.4,1.6,4.8,2.3,2.5,4.6c2.5,3.1,8.4-2,10.7-3l5.2,4.7l1.6,3.2l-4.9,4.1l0.8,4.4l7.8,1.6
	c1.6-3.3,2.9-9.9,7.4-4.8c-1.7,1.7,0,4.5,0.6,6.2c3.6-1.8,4.2-1.2,7.4,0.8l1.2,5.6c-0.3,1.6-1,5,0.4,6.3"/>
<path class="st3" d="M299.9,516.5c0.7,6.7-0.1,15.1-5.6,19.7"/>
<path class="st3" d="M294.3,536.2l-5.3,2.2c-1.4,2.2-1.4,2.3-3.7,1l-3.1,5.4c-0.3,1.3,0.6,3.7-1.7,3.2"/>
<path class="st3" d="M280.5,548c1.4,1.7,4.2,3.7,6.5,3.7c0.5,1.5,1.6,5.7,3.6,6"/>
<path class="st3" d="M381.6,570.8c-0.1-1.6,2.7-3.1,3.8-3.8l2.8,1.2c1.6-1.9,7-3,9.4-3.3c1.8,3.7,2.1,2,4.9,0.6
	c2.5,0.8,7.7,1.7,10.1,0.5"/>
<path class="st3" d="M290.6,557.7l9-0.9c2.3,2.4,3.6,0.6,6-0.4c3.1,0.7,6.8,2.2,9.7-0.3c0.9,1.1,5.9,1.3,7.2,1.4l5.6-4.8
	c1.4-2.2,1.9-4.8,5.2-4.3l1.1,3.9c1.9-0.7,3.9,1.8,5.1,3c1.4-2,1.5-1.8,3.3-0.3c7.3-4,6.3,2.2,9-6.4l2.7,4.5l-2.4,6.7
	c1.5,3.1,0.9,3.7,4.5,2.2l-1.5,3c5.2-1.5,5.8,0.1,9.4,3.2l6.1-0.9c4.4,3.7,5.3,4.4,11.2,3.6"/>
<line class="st3" x1="412.7" y1="565.9" x2="421.3" y2="586"/>
<path class="st3" d="M518.3,588.3l0.1-10.1c-1.4-1-2.8-2.1-4.1-3.3c2.4-5.6,6.1-3.5,10.9-4.3c1.1,2,7.9,0.2,9.5,0.1
	c-0.9-2.7,0.9-2.2,2.8-3c0.1-2.9-3-15.4,0.7-17.1l7.1,0.4c0.5-3.2-0.4-3-3-4.2c1.5-1.5,2.1-2.5,1.4-4.7c-2,0.4-2-1-2.5-2.4
	c0-2.3,2-2.5,3.7-3.1c3.1-5.1-1.6-3.2,2.5-5.7l-1.7-1.8c6.5-1.7,0.7-3.5,9.5-7.4l1.4,2.4c1.9-0.9,5.8-2,5.9-4.6
	c0.8,0.6,2,1.6,2.9,0.6"/>
<path class="st3" d="M501.7,594.6l3.7-4.9c4.1-0.5,4.8-2.1,6.9,2.5l6.1-3.8"/>
<line class="st3" x1="497.5" y1="594" x2="501.7" y2="594.6"/>
<line class="st3" x1="494.9" y1="596" x2="497.5" y2="594"/>
<path class="st3" d="M494.9,596c2.9,2.6,3.2,3.8,2.9,7.6"/>
<path class="st3" d="M484.9,609.3c8.2,1.9,7.6-0.7,12.9-5.7"/>
<path class="st3" d="M475.8,622.6c1.6-3.2,6.9-10.3,9.1-13.3"/>
<path class="st3" d="M421.3,586c3.9,0.7,9.8,6.5,12.3,9.4c7.2,5.6,18.9,4.1,27,1.2l-1.2,8.9c4.6-1.1,6.9,1.5,6.2-4.7l1.3-0.9
	l2.7,7.4c-1.2,2.3-0.6,2.8,1,4.5l-0.6,3.4c0.8,1,4.2,7.5,5.8,7.4"/>
<path class="st3" d="M518.3,588.3c3.3-0.9,6.5-3,9.6-0.1c2.7,3.1-0.4,12.2-0.3,16.2c6.1,2.2,1.5,5.4,0.2,9.1
	c2.6-1.6,3.3-1.1,5.8,0.4c2.3-3.8,4.5-3.4,8.5-3.7l1.9,3.2c-1,1.5-2,4.5-1.5,6.2c2.9,1,8.3,1.4,11.2,0.4c1.6,6.3,5.1,3.8,5,11"/>
<path class="st3" d="M360.8,70.8c0.1-0.6,0.5-1,1.1-1.2c0.2,1.3,0.9,1.4,2,1.4c0.8,0.6,2.5,0.6,3.1,1.6c-0.8,0.1-1.5,0.5-2,1
	l-0.9-0.5c-1,0.3-1.2-0.5-1.5-1.3L360.8,70.8z"/>
<path class="st3" d="M514,314.4c2.2-2.1-0.4-3.9-1.9-1.9c0.2,1.2-3.1-5.3-4.6-5.4c-1.4,0.4,0-5.2-2.8-6.1c0.6-2.1-1.8-6.6-3-5.7
	c0.5-2.8-1.6-1.4-2.3-2.9c-1.8-1-0.4-1.9-2-2c3.9-2.3,3.5-2.5,2.5-7.3c3.5-1-3.4-11.6-3.4-5.1c-3.7-2.8-4.6-6.8-5.4-9.9
	c2.5-4.6-4.2-4.6-3.7-9c0.1-7.7,0.7-6.5-1.5-6.6c3.5-1.9-0.6-6,0.3-8.2c0-2.6-6-6.7-4.2-7.4c2.1,1,2.1-9.9-4.3-17.4
	c3.1-6.6-2.5-2.3-3.6-8c-1.4-1.2-0.1-1,0.6-1.5c-0.4-1-1.6-4.3-2-1.7c-1.9-3.6-0.8-1.8-2-5.1c7.1-0.5,1-7-0.4-10.7
	c-3.8-8.5-7.4-17.5-10.4-26.5c0-5.1-6.9-2.7-3.5-4.2c3.8-7.8-6.7-16.4-4.2-24.4c1.1-5.5-7-4.8-9.5-7.4c-13.7-6.1-23.7-18-39.2-17.9
	c-1-0.8-1.9-1.6-2.8-2.3c-7-5.9-9.7-9-19.5-1.5c-0.7,6.5-3.3,3.1-6.5,1.6c-3.4-2.5,2.2,0.3,3.4-1.6c1.5-0.9,6.5-6.9,5.5-8.5
	c-7.9-4.4-14.6-10.1-21.7-16.7c0.5-2.2,4.5-2.9,2.7-5.9c1.1-2.4-2.5-0.7-1.8-3.1c-14.2,1.9-6.4-5.3-14-2.9
	c-1.7,10.5-14.6-4.5-16.3-11c-2.9-1.4,0.5-0.5,0.4-2.5c-0.8-1.6,0-4.1,0.6-5.8c2.2,5.2,0.2-17.8,4.1-20.8c-1-1.8,1.5-0.5,2.2-1.3
	c0.7-2.7,5-1.4,5.2-4.5"/>
<path class="st3" d="M536.3,478.3c1.5,0.6,2.5,3.4,4.5,2c1.8-2,5.4-3.6,1.7-5.9c-0.5-2.6-2.9-0.4-3.8,0.7c-1.1,0.1-2.1,0.2-3.2,0.3
	C532.7,476.6,533.9,478,536.3,478.3z"/>
<path class="st3" d="M527,477.4c0.7,2.5,8.9-4.1,11.1-3.7c2.7-3.2,5.2-1.5,7.9,0.7c5.3-1.9,10.4-4.1,15.7-6.3
	c3.1-0.9,5.4,2.8,8.2,3.6c3.4,1.3,7.4,1.2,10.6,3.4c7.7,9,18.3,14.9,30,16.6c28.8,14.2,11.6-16.6,8.5-30.1c-2,0.5-3.2-1.9-3.6-3.9
	c-1.2-1.1-1.8-0.6-1.7-2.8c-2.4-1.4-4.1-3.6-5-6.2c-4.7-1.6-25.9-16.9-27-9.7c-1-3-3.7-2.3-5.8-2.1c-1-12.2-6.4-1.4-6.4-12.2
	c-3.5,1.4-0.4-5.4,0.9-6.1c3.3,1.4,3.4-4.6-0.3-3.5c-2.1,1.3-1.1-6.8-1.5-7.7c-0.5-1.4,2.2-2.9,0.3-3.4c0.8-0.7-1.1-9-3-6.9
	c3-3.1-14.5-9-16.5-9.9c-0.9,1.3-0.8-1.2-1.3-1.9c-4-1.2-15.5-9.3-19.4-6.1c-0.6-1.5-8-9.2-10.8-10.4c-0.7,0.9-2.5,0.9-2.8-0.2
	c-0.1-0.3,0-0.6,0.1-0.9c7.7-1.6,0.8-17-1.8-20.7c-0.7,0.3,0.3-0.6,0.7-0.6c1.1-7.3,6.1-6.3,5.5-15.3c-2.3,0.1-4.3-10.6-3.3-11
	c0.5-2.1-0.1-4.5,0.8-6.3c-0.4-1.5-1.2-2.1-1.1,0.2c-1.9-1-1.7,4.2-2.1,0.4"/>
<path class="st3" d="M527,477.4c0-0.1,0-0.2,0-0.3C527,477.1,527,477.3,527,477.4z"/>
<path class="st3" d="M565.5,520.3c-0.8-1.6-2.3-1-3.1-1.7c-2-8-7.9-14.5-13.1-20.1c-7.1-4.3-13.9-11.5-21.5-13c-1.1,0-1.1-1.9-0.9-4
	c0.2-1.4,0.2-2.7,0.2-4.1"/>
<path class="st3" d="M559.8,472.9c2-0.2,4.7,1,6.6,1.3c2.9,0.4,5.5,2.3,6.6,5c1.3,2.4,2.2,5.7,4.4,7.3c1.4,1.5,4.6,2.2,6.5,3
	l2.6,2.5c1-0.4,2.2,0,2.7,0.9c1.5,1,2.3,3,2.9,4.6c2.1,1.7,4.6,2.9,7.3,3.2c5.9,2.5,11.4,5.9,16.4,10c2,0.6,4.8,1.4,6.8,2.2
	c1.8,0.2,3.6,0.8,3.5,2.9c0,2.1-0.5,4.1-1.4,6c-0.7-0.4-1.6-0.2-2,0.6c-0.1,0.2-0.2,0.5-0.2,0.8c-0.2,0.5-1.4,1.5-1.7,2
	c-1.5,1.2-3.4,0.4-5,0.1c-1.7-0.6-3.4-1.2-5.1-1.5c-1.1-0.8-2.2-1.7-3.1-2.7c-1.7-0.2-3.4-1.6-5.1-1.6c-1.6-0.6-3.8-2-5.5-1.4
	c-1.8-0.3-3.6-1-5-2.2c-1.7-1.3-3.6-2.4-5.5-3.3c-1.1-0.7-2.3-2-3.5-2.7c-1.1-0.7-2.3-1.2-3.6-1.5c-1.7-0.5-3.4-1.9-4.9-2.8
	c-1.8-1.3-4.2,0-4.8-2.9c-0.3-1-1.7-0.6-2.2-1.5c-1.1-1.3-3.2-1.4-4.2-2.9c-0.2-0.8-0.6-1.5-1.3-2c-0.3-0.6-0.9-2.4-1.2-3
	c-2.3,0.5-5.1-4.4-2.5-5.3c-11,4.1-6.9-3.5-11.6-6.5c0.9,0.6,1.2-2,2-2.6C551.7,475.5,555.6,473.4,559.8,472.9z"/>
<path class="st3" d="M609.1,540.7c0.4,2,2.1,3.7,3.4,5.1c2.9,1.4,2.3-3.1,1.7-4.7c-1.2-2-3-4.2-4.2-6.2c-1.8-1.7-4.7-2.2-6.8-3.4
	c-1.4-1-3.1-1.6-4.8-1.9c-0.9-0.5-1.8-1-2.8-1.3c-1.4,2.6,2.2,4.7,4.1,5.7C602.1,537.1,606.3,538.2,609.1,540.7z"/>
<path class="st3" d="M616.3,537.2c4.3,0.6,5.3,1.5,8.4,4.2c1.1,3.2-0.8,4.8-2.5,7.2c-1.2,0.6-1.9-0.5-2.7-1.3
	c-1.9-0.9-2-3.1-2.2-4.9c-0.3-0.7-1-2.2-1.3-3l-1.2-1.5C615.1,537.2,615.5,536.9,616.3,537.2z"/>
<path class="st3" d="M558.7,631c2-0.7,5.4-0.1,6.9-2c3.1-0.7,3.7-2.5,5.8-4.2c0.4-2.4,2.9-4,4-5.9c0.6-0.4,1.8-0.8,2.2-1.5
	c0.8-0.9,1.1-2.2,2.4-1c1.6-0.6,3.1-1.5,4.5-2.6c0.8-0.4,1.6-1,2.2-1.7c2.7-0.5,6.1-0.3,8.7-1.2c8.2,0.8,16.4,0.5,24.5-1
	c7.5-0.7,7.1-4.5,7.6-10.8c0.5-3.3-0.1-6.6-1.5-9.5c-2.1-5.5-5.3-11.2-7.9-16.6c-0.3-0.7-1.4-2.2-0.5-2.8c-2.1-4.3-4.5-9.1-7-13.2
	c-0.4-0.4-1.2-1.8-0.9-2.4l-1.2-2.1c-1.8-0.1-2.6-3-3.8-4c-1.2-2.7-2-0.7-3.9-3.2c-4.4-4.1-9.8-8.1-15.8-9.2c-1.6-5.3-4.1-2.1-8-9.3
	c-2.1-0.9-4.7-2.3-6.9-3c-0.5-0.6-1.4-1.7-1.8-2.2c-0.9-0.1-1.7-0.5-2.4-1.2"/>
<path class="st3" d="M228.1,293.9L228.1,293.9c7.7-5.2,7.2-6.9,16.5-3.7c5.1-8.5,29.3-20.4,37.8-24.7c-3.3-6.6-0.9-17.9,0.2-24.6
	c3.2-3.4,6.7-11.6,7.6-16.2c-5.5-7-3.8-6.4-0.7-13.9v-18.3l4.2-7.2c4-1.5,12.4-2.5,16.7-2.6c3.1-8.9,12-17.6,19.4-23l0,0"/>
</svg>
