<svg id="图层_1" data-name="图层 1" xmlns="http://www.w3.org/2000/svg" viewBox="0 0 651.51 651.51"><defs><style>.cls-1{fill:#761b1d;}.cls-1,.cls-2,.cls-3,.cls-4{stroke:#545555;}.cls-2{fill:#1a1a1a;}.cls-3{fill:#00324b;}.cls-4{fill:none;}</style></defs><title>四川重慶</title><g id="图层_2" data-name="图层 2"><path class="cls-1" d="M538,380.55l6.3,3.06,2.51-1.5s3.78-2.12,1.92,4.11a11.57,11.57,0,0,0,1.31,4.66s-1.9,5,1.15,5.13a1.58,1.58,0,0,0,1.84-1.4l.19-1.46s2.11-1.39-.2-2.45,1.65-3.8,3.09-1.11l.41,2,.74,3.47-1,2.48s1,6.46,4,1.65l.88,1.53,1.21,0,1.62-1,1,.69.63,1.7s2.08,2.33,3.21-1.27c0,0,2.18-.84,2.92-.39s1.06-1.11.33-1.56-.52-2.82-.52-2.82,2.37-.46,1.09-5.92c0,0-1.19-2.72,3.36-3.07l.67-1-.35-2.56,1.45-3.23-.47-.48-3.35.18-1.42-.5.29-.86L575,375.9s2.3-2-1-4.26c0,0-1.61-.89-.73-6.37s1-6.59,1-6.59l-1-1.11H572.2A2.46,2.46,0,0,1,570,355.4c-.28-2-2.76-1.41-4.2-2a3.61,3.61,0,0,1-.88-2.49l.31-1.69-2.06-1.24.27-1,.23-1.27s-1.63-3.08-3.52-.07-3.39,3.89-3.85.52-1.28-2.44-1.81-2.37-.9-.7-.9-.7l.28-.86.86-1.63-.9-1.67,1.37-1.83-2-.14-.55-1,.34-2.52-.38-.78-2.73.79-.51-.76s-.65-3.76-2.29-.92l-1.21,0-1.06-.81-.58-1.3-.81-4s-3-4.27-4.54,2.4-2.77,4.5-4.48,1.85-4.14-5.63,1.9-5.9c0,0,2.56-1,.05-7.57L536,314l.45-2.67.09-4.27.14-1-.71-1.28-3-1.94s-4.85-.85-3.49-4.75,2.93-5.34,6.71-3.38h1.08l.26-3.06,1.2-2.09.87.43,3.26,3.13.48-.48.23-1.26.74-.52,1.44.63,1.15-.43,4.92-7.54s2.52,1.58,4.37,1.33l-.63,2.28s-1.86,5.21,2.53,2.68l2.37-1.42.22-2.37s2.5-3.5,3.86.58.95,4,.95,4,1.05,2.75,1.93-3.7l1.16-2.35s2.34-4.72,4.67-2.43c0,0,2.24-.44,2.81-4.23,0,0,6.66-11.63,11.15-8.39a1.83,1.83,0,0,0,2.18-.85,5.68,5.68,0,0,1,2.93,2.63s5.19.4,3.11-8.95c0,0-3.71-2.38-.45-6.26a2.34,2.34,0,0,0-.25-3.81l-1.39-2.29-1-5.23s-2.49-2.41-8.36-3.81v-1s3.13-2.77-2.14-.81l-2.53-2.68-4,1.37a2.33,2.33,0,0,1-1.41-3.39s.4-4-5-3.72a30.29,30.29,0,0,0-10.3,2.78s-4.59,1-3.23-2.86c0,0,.6-2.56-3-1.11l-1.09-2.05s-8.26-7.13-11.3-4.65c0,0-.82-4-6-2.35l-1.16-2.59-1.95-.42s-3.14,1.8-8.31-5.47l-1.7,2.43s-7.65-.61-.51,4.2c0,0,.84,2.22-2.7,1l-.91.26,2.32,4.17s.31,2.21-3.64,0,2.17,6,2.17,6l.74,1.57,3.21.64.35,1.44,1.71.75.93.82.35,1,.3.82,2.43,2-2.55,2.14-1.7-.6s-2.65,3.39-2.5,5.43c0,0-1.45,1.3-4.36.73,0,0-2.9.53-.62,2.42,0,0,.45,1.31-2.12,3.31,0,0,3.38,3.94-5,9.9,0,0-1.35,1,2.68.87l-.08,1.38s-4.16,3.18-.69,5.87c0,0,1.4,1.32-1.24,2.78s-1.4,3.63-.29,4.85l.11,1.78s-5.49,7.34-5.83,2.85l-.21-3.34s-.64-5.57-4.86,1.19h-2s-6.38-3.6-5.33,2.17c0,0-5.35,5.56-1.15,8.56,0,0,2.69,1,.57,3.36l-.47,4.73s-5.78,7.11-6.61,14l-1.6,3.11-4.31,6.08-3,.69-.53-4.39-.81.81s.54-3.67-1.93-1c7.62-11.28.1.8-6.29-.85-7.13-1.83-10.15-13.59-12.85-8.55l-3.64,6.25s.19,3.13-3.53-3.37a13.81,13.81,0,0,1-7.43,1.49l-3.87-3.27s-4.69,3.68-8.66,2.3-5.24,6.75-4.92,7.12l-.1.71-.3,2.79s-6.23,1.81.61,5.42c0,0,3.11,2.05,5,1.79l.24,1.76s-2.81,2.17-1.59,7.22c0,0-6-.42-4.69,4.22,0,0,.1,2.73-4.53,3.5,0,0-6.5,4.87-6.18,6.2l1,2.34.6,2.4s3.14,2.18,4.33,2,2.06,1.23,1.42,4.48,1.07,1.92,4,1.52,4.76-.79,4.76-.79,3.65-3,2.42.91l.16,3.14s4.57,1.86,1.49,5c0,0,1.84.57,2,5.77,0,0,3.36,3.24,6.52.21,1.67-1.6,4.77,1.28,4.77,1.28a16.52,16.52,0,0,0,6.89,0c4.36-.73,4.59,6.94,4.59,6.94s3.42,8.2,5.65,8.72,2.22-.58,2.22-.58l1.78,1.14a2.28,2.28,0,0,0-.2-3.42l.57-.76s4.4,2.56.25-1.14l0-2.75-3.9-4.83s-2.06-4.25,4.27-.44a16.13,16.13,0,0,1,.89,3.59l3.93,2.08s.34,1.46-1.84,2.31l1.35,2-1.11,1.8.81,2.91,1.31-.32,1.91-.81,1.93,1.25.25-2.09-.65-1.84,1.25-.72-.42-2.14,1.17-.3,1.15.53.9-.39.8-3-.94-1-.33-1.47s3.08-4.13,4.7-2.15l.32-1.69.67-3s2.11-2.35,6.71-.36l3.19-1.4h1.08l-.09,1.39-.64,1.18s4.9,1.26,4.33-3.89l1.29-.45s4.09-3.71,0-5.64l-.61-1.56.61-1.46-1.8-1.27-.12-.95s2.93-.26,1.77-3.81l.73-.65,2.38-.32s1.36-2.94,2.79.58c0,0,1.26,1.34,1.76,0,0,0,.44-1.7,2.76.45,0,0,.4,0,1.89-2s2.83,1,3,3.3l.28,2s3.39.08.67,2.93c0,0,2.63,3.49,4.36-.73L520,365.5l3.2-.3s.72-5.6,3.72-1.47l1.21,0,1.24-.86,2,1.1.87-.53.54-1s2-1.1,2.29,3.95c0,0,4.55,7.63,3.61,10.65S538,380.55,538,380.55Z"/><path class="cls-2" d="M285.53,307.8c-1.5,4.5-6.75,4.49-6.75,4.49-12.37-1.51-2.62-10.12-1.11-14.24s-1.12-9.38-1.12-9.38l-1.87,1.13-2.25-.38A109.83,109.83,0,0,1,259.69,280c-7.12-6-12.37-1.51-12.37-1.51-9,1.87-9.37-6.38-9.37-6.38l-6-.75-4.11-9c-4.5-1.5-4.13-3.37-4.13-3.37a12.61,12.61,0,0,0,4.14-7.5s-6.38-3-13.49-12-3.74-14.25-3.74-14.25v-.18a12.76,12.76,0,0,1-2.25-3.25s-2.94-4-5.09-4.29l-.27-1.61s-5.89-1.08-6.43.26a27.26,27.26,0,0,0-.81,5.1l-4.82-1.35s4.56-5.36-.53-9.92-5.35-5.36-5.35-5.36l-1.61-2.15H181l-1.35,6.43s0,7.77-2.68,7-16.62-3-20.1-11c0,0-6.16-3.22-8.57-3.76a30.11,30.11,0,0,1-10.18-12.34l-4-8.58s2.69-8.31-5.35-9.92c0,0-3.21-.81-2.94-4.83s.81-12.86-5.89-11.53A20.53,20.53,0,0,1,107.38,152s-3.21-6.43-6.7-1.88-4.56,4.29-4.56,4.29l1.07,2.67-1.08,1.61.27,4-8,2.13s-4.56,1.34-2.42,6.7.52,7.78.52,7.78l4,.53,1.33,4.83L98,187.15s1.07,2.14-2.68,3.21l-1.34,2.41a10.36,10.36,0,0,1-5.91,7.5l4.29,2.95s.8,1.88-3.49,4.82-5.09,3.22-5.09,3.22-4.3,4.28,5.61,11.8,14.2,9.39,18.22,10.2,8.58,2.15,9.64,9.39c0,0,3.21,7.5,7,9.12,0,0,3,4,.53,7.5l4,5.63,3.48,4.56,7.23,7.25,5.62,4.29s1.34,4.56-4.29,6.7l-3.48-2.15s-3.76-1.08-2.69,5.36l4.55,3.22.53,4.55s5.09,2.15,3.22,5.91L144,307l4.56,3.49s1.61,2.14-.81,6.16l1.6,4,.8,8.58,1.6,8,3.21,12.07s1.07,3.75-2.43,11.25l1.07,8,2.13,11s5.36,5.1,2.67,14.48c0,0-1.35,14.47,3.47,21.18l-.28,9.38,3.48,2.68,2.94,5.37,2.42.53.8-2.14v-7s2.14-.8,2.14-1.87,0-2.68,0-2.68l-1.34-4,4.56-3.22,1.34-2.94,1.62-5.63,4.56-3.48.53,5.09a28.63,28.63,0,0,0,6.16,3.49l-.54,3.75s4.83-1.6,5.62,6.17c0,0,2.41,5.63,5.63,5.64,0,0,2.94,3.22-.82,7.23s-4.29,4.82,1.07,10.46l.22.23a13.36,13.36,0,0,1,5.1-1.92c3.76-.75,4.13-3,4.13-3-4.12-10.5,1.89-19.87,1.89-19.87,3.76-3.75-.36-10.5-.36-10.5,2.25-1.12,3.75-5.25,3.75-5.25-.36-10.12,7.89-10.86,7.89-10.86l1.87.37,1.5-1.12c-1.87-7.88,2.63-4.5,2.63-4.5l2.25,1.13c10.13-7.11,10.1,16.88,10.1,16.88l.75,1.5,2.63,1.88,12,2.63c5.25,3.76,1.87,7.13-.75,5.25s-5.26,3-1.13,7.13,10.49-2.24,10.49-2.24c0-7.13,3-10.12,3-10.12,5.63-2.25,7.51-8.25,7.51-8.25-1.86-10.12,3-11.24,3-11.24l1.13-3.37-1.5-4.13-2.62-6.38-3.37-2.62c-1.87-7.5-1.12-8.25,7.51-7.49s5.25-6.37,5.25-6.37a57.92,57.92,0,0,0,2.26-7.87l-2.62-5.25-1.12-6c-3-5.25,2.63-9.74,2.63-9.74,4.88-3.37,1.14-13.12,1.14-13.12l2.25-6.75C291.16,307.81,285.53,307.8,285.53,307.8Z"/><path class="cls-2" d="M356,200.6l.34,0c-.24-1.2.25-2.53,1.9-3.79,4.56-3.49,1.07-4-2.41-4.3s-.53-3,1.34-4.28-2.4-7.51-2.4-7.51l4-.26s2.41-1.88-4-4-7.49-11.8-7.49-11.8-5.9-3.76-15-.28c0,0-3.49-1.07-4.56-2.42s-4.55,1.87-4.55,1.87.81-9.37-4.83-3.21c0,0-7.77,4.81-9.64-2.69s-3.21-7.24-3.21-7.24,7.24-7-4.55-8.32l-1.34-4.56-3.21-2.95s.8,1.88-2.42,4.29-7.51,3.21-7,8.57c0,0-6.7-3.22-7,7.5l-1.34.54-9.65-2.16v1.88l5.62,8.58s-.27,8.31,7.23,8.85c0,0,1.6,7.78-3.49,8.31s-4.56,9.37-4.56,9.37l-3.75-2.95L269,188.72l-.54,2.42s-5.9,2.4-6.43,4.81l-1.61.54-1.34-1.61v-3.22l-.8-.54-1.34-1.6s8.32-7.77,1.09-15.55l-1.34.54-1.35,7.23s-8.32,5.62-1.35,6.17c0,0,3.22,1.07-.54,3.21,0,0-3.22,3.75-2.41,5.09l-1.34-.27-2.41-2.41s-4.55-7-5.9,2.94l-4.28-5.9s-5.36-1.08-5.37,2.94l.53,2.15.81,3.75s6.69,4-2.69,5.63l.54,1.88s7.23,5.09.79,11c0,0-5.36,1.33-5.9,4.54,0,0-7.77-5.36-11.79-4,0,0,0,10.31-3.49,6.89-1.76,2.8.15,8.14.15,8.14A46.76,46.76,0,0,0,227,251.17l.81.34a12.46,12.46,0,0,1-4.14,7.5c.36,2.49,4.13,3.37,4.13,3.37l4.11,9,6,.75c1.26,8.75,9.37,6.38,9.37,6.38,5.91-4.09,11.93.84,12.37,1.51s12.54,9.46,12.54,9.46l2.5.49,1.67-1.25c3,6.39,1.11,9.79,1.11,9.79l-4.44,7.36c-2.57,6.18,5.71,6.41,5.71,6.41,5.85-.39,6.75-4.49,6.75-4.49,1.75-.34,4.46,1.16,4.46,1.16-1.78-6.44,5.39-8.89,5.39-8.89l2-.36,5.19-4.1c6.43-2.85,5.54.9,5.54.9l-.36,4.28v1.08l.9.71s1.43-.53,4.11-1.78,9.29-2.85,13.23-3.92,5.18-9.64,5.18-9.64,2-8.22,2.34-10.9,5-7.14,5-7.14a11,11,0,0,1,4.65-4.47l2.14-1.78a14.2,14.2,0,0,1,5.37-8.39c11.44-2.5.37-6.8.37-6.8l-2.33-.53-1.43-1.08c-2-2.32-6.61-1.25-6.61-1.25-3.21-3.4-3.56-10.73,4.84-10.9s9.11-2.31,9.11-2.31c3.4-5.54-1.42-3.76-1.42-3.76-.36,3.22-11.8,1.06-11.44-2.87a17.87,17.87,0,0,0-1.42-7.86s-3.21-2.33,1.44-5.72,6.78,3.22,6.78,3.22c6.43,3.05,2.87-3.74,1.8-9.11s-3-4.47-4.29-3.75a12.18,12.18,0,0,1-3,1.07l-.17-7.87C346.94,189.69,356,200.6,356,200.6Z"/><path class="cls-2" d="M492.94,221.52c-6.42-2.52-2.63-8.66-2-9.53a8.07,8.07,0,0,0-7.73-1.87s-5.1,2.94-5.09-3.49l.27-1.34h-2.68s-2.15,0-2.42,1.34a36.57,36.57,0,0,0-.27,4.55,13,13,0,0,1-2.68-1.07c-.8-.54-5.36-2.68-5.36-2.68l-.8-.54s2.16-13.13-4.28-9.12-9.11.26-9.11.26L447,200.44a18.67,18.67,0,0,0-2,.61c1.16.55,4,2.54,4.14,8.92a21.88,21.88,0,0,0,3.75,4.65c2.32,2.15-2.51,3.57-3.22,3.57s-2.86,3.22-3.58,7-3.58,8.39-3.58,8.39l-.73,14.66s9.64,10,11.43,5.19,7.32-.18,7.68.9c.25.75,2.93,3.78,4.36,8.53,0,0,10.61-8.68,16.8-15.6s8.66-3.7,4.71-12.11,3.71-9.89,3.71-9.89S499.86,224.25,492.94,221.52Z"/><path class="cls-3" d="M508.8,280.37s1.88-1.6,0-2.94.8-3.49.8-3.49l2.42-2.68L511,268.31l1.61-3.21s0-1.07-2.14-2.41S515,257.6,515,257.6a22.22,22.22,0,0,0,1.08-5.36c0-2.14,2.14-1.34,2.14-1.34s-3.21-4.56,3.49-4l1.34-1.6.27-1.61,5.63-2.68s1.61-3.48-1.6-4.29v-1.87l-1.88-.54L515.29,226s0-2.14,3.48-1.07l.54-1.07v-3.22s7.24.81-.26-4.82l.8-.8,2.68-.54s2.15-4-3.48-2.95l-3.75,1.34-2.15-.54L511,214.44l-4.83,2.41s-4,5.62-9.11,1.06c-2.4-2.15-4.26-4.35-6.21-5.92l0,0c-.59.87-4.38,7,2,9.53,6.92,2.73-2.48,3.71-2.48,3.71s-7.66,1.48-3.71,9.89,1.48,5.19-4.71,12.11a195.67,195.67,0,0,1-16.33,15.43l-.38.32a24.43,24.43,0,0,1,.78,6.67s-8.05,11.07-9.3,12.68.71,3.57,4.82,3.75,7,1.08,7.86,5.73l3.21.89v4.65s.89,2.86,6.07,1.08l3.57,3.58,5.18,3.22h.23l3.14-5.85a9.66,9.66,0,0,0,0-9.38c-2.68-5.36,3-7.5,3-7.5s3.22,1.61,5.9-1.88c0,0,2.68-.53,3.48,3.49C503.17,284.12,506.12,287.34,508.8,280.37Z"/><path class="cls-2" d="M452.23,214.36a32.38,32.38,0,0,1-2.92-4.17c-.15-.63.43-6.38-4.34-9.15-1.65.62-3.59,1.66-3.43,3.07,0,0-12.87.25-14.47-8.33,0,0-1.33-2.94-3.48-.8a10.26,10.26,0,0,1-4.56,2.67s.54,3.22-6.43,2.68l-2.15,2.94s-3.18,3.43-3.7-1.64c0-.24,0-.49-.05-.77-.26-6.17-5.89-8.58-8-2.42a6.53,6.53,0,0,0,2.94,2.95s.27,1.88-2.68,3.75a47.89,47.89,0,0,0-4.83,3.48h-2.41v1.61s-3.49,4-6.43-1.08l-4,2.14s-6.42-3.22-11.52-2.16c0,0,5.63,5.64,5.62,9.93s9.83,2.69,9.83,2.69,9.11-3.21,8.21,5.37c0,0,2.68,1.43,2,10.18a3.55,3.55,0,0,0,1.78,3.93s2.69,8.06,2.7,8.3l6,7.44s4.12-4.11,8.58-2.67l.18-1.08s.19-7.86,5.55-3c0,0,1.42,3.57,8.22-3.39s7-4.1,7-4.1l6.79-2.5.62-6.17s3.22-6.52,3.51-8.65c0,0,1.77-6.47,3.58-7S455.9,216.61,452.23,214.36Z"/><path class="cls-4" d="M412.61,282.13s7.15,2,4.12-13.4l-.18-.72-3.39-.36a10.26,10.26,0,0,1,.18-3.93c.54-1.78-2.14-2-3.93-2s-3.75-5-3.75-5"/><path class="cls-3" d="M487.79,305.36l-.1-.12L482.28,302l-3.57-3.58c-5.18,1.78-6.07-1.08-6.07-1.08v-4.65l-3.21-.89c-.9-4.65-3.75-5.54-7.86-5.73a7.5,7.5,0,0,1-4.42-1.34l0-.09c.18,4.65-7,4.1-7,4.1a6.7,6.7,0,0,1-5.36,4.11c-7-.19-5.55,8.39-5.55,8.39l-2.15-.18-2.5,1.25h-4.64l-1.62,2.14c5.18,3.58,3.21,7.68,3.21,7.68v0c.6,0,1.23.06,1.91.12,0,0,10.72,3.76,13.94,5.64l2.14-1.34s5.1-9.1,11.52.28c0,0,5.09,7.25,8.31,7s3.75-1.34,5.36.54,1.34-2.68,1.34-2.68l2.68.54Z"/><path class="cls-3" d="M412.94,318.22c3.39,6.62,7.14,5.55,7.14,5.55l.37,0a11.73,11.73,0,0,1,2.84-3.76s-3.64-8.07,8.17-7.61c1.62-4.92-3.15-7.87-3.15-7.87-3.21,1.25-3.39-3.58-3.39-3.58l-.71-1.43-.71-2.5c.9-9.83-9.46-13.77-9.46-13.77s-7.5-9.48-11.43-7.33-5.54,3.38-3.23,10,.89,7.33-3.22,14.47,2.66,13.58,3.38,14.48S409.55,311.61,412.94,318.22Z"/><path class="cls-2" d="M344.17,405.84l.35-.23c1.1-.77,4.4-3.45,3.37-7.18-1.23-4.45,5.19-5.19,8.65-3.7,0,0,3-.74,1.74-2.23l1.24-6.92,3-7.17s2.48-3.7-3.95-7.17l2-2s3.71-2.46-2-4.45c0,0-2.22-2.23.5-3.21l1.48-3.46,3.47-2.47-1-4.45-4.2-5.69s-2.46-12.12-5.19,2c0,0-3.71,2.72-5.69,2.71l-3.71-3.46-.73-2.72s-5.19-8.91-7.42.24c0,0-2.23,4-4.95,4l-4.21.49s-1,1.24-1,4.2-1.25,14.1-6.44,13.85-5.94,1.47-5.94,1.47,1.49.74.74,4.21c0,0,3.22-.25,2,5.44s0,13.1,0,13.1.24,17.31,7.66,6.44,7.91,8.17,7.91,8.17.48,8.65,4.94,1.73,10.63.75,10.63.75,1.23,4,4.7.5"/><path class="cls-4" d="M280.64,388.48s11.86,10.89,16.07,4.47l1-2.23s-1.72-12.86,8.91-11.37c0,0,2.48-4.44,4-3.45s3-2.23,3.71-3.46"/><path class="cls-2" d="M354.77,418.5c1.88-5.09,2.42-4-.79-7.24a6.13,6.13,0,0,1-1.52-2.74h-.39c-3.47,3.46-4.7-.5-4.7-.5s-6.18-7.67-10.63-.75-4.95-1.74-4.95-1.74-.47-19-7.9-8.16-7.66-6.44-7.66-6.44-1.23-7.42,0-13.1-1.85-5.49-1.85-5.49l-.12.05c-.74,1.23-2.23,4.45-3.71,3.45s-4,3.46-4,3.46c-10.63-1.49-8.91,11.37-8.91,11.37l-1,2.22c-4.2,6.43-16.06-4.46-16.06-4.46l-.43,1.8s-4.88,1.12-3,11.25c0,0-1.88,6-7.51,8.24,0,0-3,3-3,10.12,0,0-6.38,6.36-10.5,2.24s-1.49-9,1.13-7.13,6-1.49.76-5.25l-12-2.63-2.62-1.88-.75-1.5s0-24-10.11-16.88l-2.24-1.13s-4.5-3.38-2.63,4.5l-1.5,1.12-1.88-.37s-8.25.74-7.88,10.86c0,0-1.5,4.13-3.75,5.25,0,0,4.11,6.75.36,10.5,0,0-6,9.37-1.89,19.87,0,0-.38,2.25-4.13,3a13.27,13.27,0,0,0-5.1,1.92l-.23-.23,0,.1a4,4,0,0,1,.28.3c5.36,5.63,6.43,4.56,6.43,4.56l.81,2.41.26,3.49s1.07,4.55,5.09-2.14,4.56-2.95,5.9-.54l5.9-4.81,1.61,3.48,1.87,3.49v5.36l2.41-.27,2.68,4v3.21l3,.81s7.5,4.83,4.81,11.26c0,0,6.71-1.6,5.09,7.78l5.09,4,.26,2.42,6.17,1.34-.54,6.43,1.33,1.34,3.49-2.94s2.14,5.09-1.35,7.77-4.56,4.29,0,5.63c0,0,9.65,0,8.3,7.51,0,0-8.78,2,4.25,6,.47.94,3.69,6.73,9.06,2.13,0,0,8.73,4.59,10-4.15,0,0,15-8.71,16.64-7.88,0,0,2.48,9.57,5.82,2.91,0,0,3.83-2.22,7.05-1.95s3.76-10.45,3.76-10.45,2.68-1.6.27-3.48c0,0-1.34-5.9-2.4-8.85s-4.29-5.1-4.29-5.1-3.19-29.21,4.31-22.51c0,0,6.17-.53,5.9-6.69,0,0,5.37-8.57,9.66-11.52l1.61-2.14,2.69-9.65-5.62-5.36s4.3-10.72,9.65-7.5C348.87,422,352.89,423.59,354.77,418.5Z"/><path class="cls-4" d="M362.74,374.71s19.54-6.91,21-2.71c0,0,2.48,1.24,2.22,6.44s5.94-.49,5.94-.49,3.46-3,5.68,1.73,14.34,7.19,11.62-.73c0,0-2-4,.26-6.92s-.25-4-.25-4"/><path class="cls-4" d="M409.43,424.2s3-3.71,4.7-4.45,2.48-6.42-.24-9.39a38.43,38.43,0,0,1-4.93-7.42,65.36,65.36,0,0,1-.24-11.38,10.35,10.35,0,0,0-2.22-7.67"/><path class="cls-2" d="M414,410.16a38.72,38.72,0,0,1-4.94-7.42,65.8,65.8,0,0,1-.23-11.38,10,10,0,0,0-2-7.45c-3.12.5-7.79-1.62-9.12-4.43-2.22-4.7-5.68-1.73-5.68-1.73s-6.19,5.68-5.94.49-2.22-6.43-2.22-6.43c-1.47-4.21-21.27,2.76-21.27,2.76a3.72,3.72,0,0,1,0,3.65l-3,7.16-1.25,6.92c1.24,1.49-1.73,2.23-1.73,2.23-3.46-1.49-9.89-.75-8.65,3.7,1,3.73-3.37,7.18-3.37,7.18a11.42,11.42,0,0,1,2.86,2.46s1.24,4,4.7.5l.37,0c-.85-3.42.71-7.46,4-6.24,4.28,1.62,9.91-.52,12.59-1.59s16.56-2.17,6.43,4c-8.31,5.09,2.67,11.53,2.67,11.53s9.91,5.37,1.6,10.72c0,0-4.82.27-.54,4.29s11.25,9.66,15.28,4.3l7-1.06s.94-12.74,8-10.17l0-.19s3-3.71,4.7-4.45S416.71,413.13,414,410.16Z"/><path class="cls-4" d="M363.25,356.16l9.65-2.46s9.63,8.91,11.37,8.91,4.2-2.72,4.2-2.72,4.21-1.48,6.18-.24,5.94-1.23,6.43,3,6.28,9.36,16.59,1.87"/><path class="cls-2" d="M455.35,417.77s-5.09-5.1-8.05,2.4l-5.62-1.88-.27-.8-.54-2.15-3.21-4.56a6.62,6.62,0,0,0-5.36,1.07s-7.76-13.68,2.43-15.27l4-.81s4-12.86,7.51-3.2l2.68.8s19,18.51,6.44-6.43c0,0-2.68-9.38-12.86-7.51l-2.68-.27s-2.15-1.61-3.22.53c0,0-3.49,2.14-5.09-3.22,0,0-.53-8.58-2.94-9.12l-.54-1.6V363.6l-5.9,1.07h-4.29l-.06-.23-.15.37a18.58,18.58,0,0,1-8.21,3.72s2.25.85,0,3.82-.26,6.92-.26,6.92c1.13,3.28-2.4,4.95-2.4,4.95a10,10,0,0,1,2,7.46A65.67,65.67,0,0,0,409,403a38.64,38.64,0,0,0,4.94,7.43c2.72,3,2,8.65.24,9.39s-4.2,3.83-4.63,4.36a15.13,15.13,0,0,1,5,3.7s4.82-2.95,2.14,4.29c0,0-2.15,4.82,2.94,2.68,0,0,1.88-.53-1.07,3.48,0,0-1.08,4,5.63.54s11.25,3,11.25,3,1.34,0,2.15-2.41h4a5.87,5.87,0,0,1,7-2.41l5.9-2.94S468.46,440,455.35,417.77Z"/><path class="cls-2" d="M363.4,356.16l9.65-2.46s9.63,8.91,11.36,8.91,4.21-2.72,4.21-2.72,4.2-1.48,6.18-.24,5.94-1.23,6.43,3c.34,2.89,3.18,6.23,8.27,5.6,0,0,2.34,1.15.12,4.12s-.26,6.92-.26,6.92c1.13,3.28-2.39,4.65-2.39,4.65-3.12.5-7.79-1.62-9.12-4.43-2.22-4.7-5.68-1.73-5.68-1.73s-6.19,5.68-5.94.49-2.22-6.43-2.22-6.43c-1.48-4.21-21.45,2.81-21.45,2.81a9.21,9.21,0,0,0-3.87-3.38l2-2s3.71-2.46-2-4.45c0,0-2.22-2.23.5-3.21l1.48-3.46Z"/><path class="cls-4" d="M369.7,331.44a16.07,16.07,0,0,1,10.63,5.45,4,4,0,0,0,4.95-1.23s3.46,5.44,5.69,0,8.9-3.71,8.9,2.47l1.23,1,2.23-.74,3,1,2.23-1.48,2.47,1,5.19,7.46"/><path class="cls-2" d="M417.81,364.69h-.18l-.27-1.08V361.2l-.8-1.88-2.41-1.61-1.87-1.61-.81-2.94v-3.22a21.09,21.09,0,0,0,5.09-3.47l-.28-.2-5.19-7.46-2.47-1-2.23,1.48-3-1-2.23.74-1.23-1c0-6.19-6.67-7.92-8.9-2.48s-5.69,0-5.69,0a4,4,0,0,1-4.95,1.23,16.05,16.05,0,0,0-10.62-5.45s6.37,10.38,1.22,12.12l-6.18,4.2s1,6.43-.75,7.91l9.05-2s9.63,8.91,11.37,8.91,4.2-2.72,4.2-2.72,4.21-1.48,6.18-.24,5.94-1.23,6.43,3c.34,2.88,3.18,6.22,8.27,5.59a26.29,26.29,0,0,0,8.16-3.42Z"/><path class="cls-2" d="M406.41,339.33l2.23-1.48,2.47,1,5.46,7.66.37,0a9.77,9.77,0,0,0,3.17-6.39l1.61-.8h5.1l.26-1.34a15.37,15.37,0,0,1,1.62-6.7l-1.34-1.6-6.43-2.15s-1.48-1.22-.43-3.74h0l-.38.05s-3.75,1.07-7.14-5.55-12.68-2.51-13.4-3.4c-.49-.62-3.85-3.86-4.56-8.14-.16.63-1.11,1-3.74-.69-4.2-2.72-5.43-1-5.43-1s3.34,4.66-2,4.94c0,0-3.46.49-5.68-4.7,0,0-2.47-1-9.64.24,0,0,0,7.42-5.69,4.69,0,0-6.93,7.16-3.72,10.38,0,0,6.67,3.72,7.16,5.7l3.57,5.1a16.08,16.08,0,0,1,10.63,5.45,4,4,0,0,0,4.94-1.23s3.46,5.44,5.69,0,8.91-3.71,8.9,2.47l1.24,1,2.22-.74Z"/><path class="cls-3" d="M385.78,304.87a41.83,41.83,0,0,0-6.18-7.24c-.24-7.67-11.86-6.69-18-7.43s-10.14-6.69-10.14-6.69-6.42-6.68-7.9-9.15c-1.3-2.18-5.66-3.4-6.7-3.67l1.62-1.44a10.9,10.9,0,0,1,4.65-4.46l2.15-1.79a14.67,14.67,0,0,1,4.86-8l6,9.28s5,2.15,8.76.55,5.37-3.75,6.43,1.43c0,0,3,4.29,5.89,4.29s1.07,5.37,1.07,5.37,3.93,4.47,4.1,8,5,4.47,6.08,4.47,1.6,5.54,6.6,4.83l1.25,1.43.21,5.05-.39.67c-1.21,2.1-1.18,6.38-1.18,6.38-.15.63-1.11,1-3.73-.69C387,303.35,385.78,304.87,385.78,304.87Z"/><path class="cls-1" d="M316.69,310.94c3.21,4.21,1,6.19-1.5,12.61s-.74,5.69,6.18,3.22,7.42,4.21,7.42,4.21c2.22,1.49,5.19-2.71,8.9-6.91s12.37-7.66,15.83-2.71,4.9-1.47,4.9-1.47c-1.69-3.46,4.26-9.62,4.26-9.62,5.69,2.73,5.7-4.69,5.7-4.69,7.17-1.23,9.64-.24,9.64-.24,2.22,5.2,5.68,4.7,5.68,4.7,5.33-.28,2-5.1,2-5.1a41.83,41.83,0,0,0-6.18-7.24c-.24-7.66-11.87-6.69-18.05-7.43s-10.13-6.69-10.13-6.69-6.42-6.68-7.9-9.15c-1.3-2.18-6.48-3.59-6.48-3.59-1.4,1.54-3.35,3.83-3.58,5.57-.36,2.68-2.34,10.9-2.34,10.9s-1.26,8.57-5.19,9.64-10.54,2.67-13.22,3.92A25.19,25.19,0,0,0,316.69,310.94Z"/><path class="cls-4" d="M313.54,368.23s-7.41-4.7-2.46-7.91a12.75,12.75,0,0,0,1.24-4.95c0-2.47,2.72-2.47,4.45-.73s5.19-.49,3-4.95S316,342,320,339.06a25.2,25.2,0,0,0,5.94-6.17s3,1.73,3-2"/><path class="cls-2" d="M289.79,309.11c-1.78-6.44,5.39-8.89,5.39-8.89l2-.36,5.18-4.1c6.43-2.85,5.54.9,5.54.9l-.36,4.28V302l.89.71,4.11-1.78a25.24,25.24,0,0,0,4.1,10.07c3.21,4.21,1,6.18-1.49,12.61s-.75,5.69,6.18,3.22,7.41,4.33,7.41,4.33c0,3.71-3,1.85-3,1.85a25.14,25.14,0,0,1-5.94,6.18c-4,3-2.47,6.18-.25,10.63s-1.25,6.68-3,5-4.44-1.74-4.45.73a12.75,12.75,0,0,1-1.24,5c-4.95,3.21,2.47,7.91,2.47,7.91s1.5.62.76,4.08l0,.08c-.74,1.23-2.23,4.44-3.71,3.45s-4,3.46-4,3.46c-10.63-1.49-8.91,11.37-8.91,11.37l-1,2.22c-4.21,6.42-15.92-4.3-15.92-4.3l.56-1.69-1.5-4.12L277,376.55l-3.37-2.62c-1.87-7.5-1.11-8.25,7.51-7.5s5.25-6.36,5.25-6.36a57.92,57.92,0,0,0,2.26-7.87l-2.62-5.26-1.12-6c-3-5.25,2.63-9.74,2.63-9.74,4.88-3.37,1.14-13.12,1.14-13.12l2.26-6.75A3.52,3.52,0,0,0,289.79,309.11Z"/><path class="cls-2" d="M369.85,331.26s6.37,10.39,1.23,12.12l-6.19,4.2s1,6.43-.74,7.91l-1.1-4.36-4.2-5.69s-2.46-12.12-5.19,2c0,0-3.71,2.72-5.69,2.72l-3.71-3.47-.74-2.72s-5.18-8.9-7.41.24c0,0-2.24,4-5,3.95l-4.2.5s-1,1.23-1,4.2-1.25,14.09-6.44,13.84-6.14,1.62-6.14,1.62-7.41-4.7-2.46-7.91a12.73,12.73,0,0,0,1.24-4.94c0-2.47,2.72-2.47,4.45-.74s5.2-.49,3-4.94-3.7-7.67.26-10.64a25.2,25.2,0,0,0,5.94-6.17s3,1.85,3-1.86h0c2.23,1.49,5.4-3,9.11-7.18s12.37-7.66,15.83-2.71,4.83-.92,4.83-.92,7.29,3.93,7.78,5.91Z"/><path class="cls-3" d="M442.13,240.2l-6.79,2.5s-.52-1.57-3.51,1-9.24,9.89-11.68,6.52c0,0-3.57-4.05-5.21.51l-.45,3.82s-3.17-2.28-8.65,2.45c0,0,1.33,4.18,3.57,4.79,0,0,5-.44,3.81,2.55a10.1,10.1,0,0,0-.08,3.14l3.41.56s3.4,13.87-3.11,14.17l.6,1s10.69,4.58,9.46,13.77a20.12,20.12,0,0,0,1.42,3.93s.34,5.2,3.4,3.33l1.61-1.89h4.64l2.35-1.4,2.46.37s-1.64-8.37,5.16-8.37a7.35,7.35,0,0,0,5.59-4.17s6.53.66,7-3.83c0,0-1.79-1.72.53-3.51L466,269.92a22.42,22.42,0,0,0-5-15.18s-.3-1.72-4-3.36a2.94,2.94,0,0,0-3.73,2.31,2.9,2.9,0,0,1-4,.38c-2.24-1.72-8.45-5-7.25-7.48Z"/><path class="cls-2" d="M413.37,282.36c6.51-.3,3.11-14.16,3.11-14.16l-3.41-.57a9.79,9.79,0,0,1,.08-3.14c1.19-3-3.81-2.56-3.81-2.56-2.24-.61-3.63-4.89-3.63-4.89l-6-7.33c0-.24-2.7-8.3-2.7-8.3a3.55,3.55,0,0,1-1.78-3.93c.72-8.75-2-10.19-2-10.19.9-8.57-8.21-5.36-8.21-5.36s-9.83,1.6-9.83-2.69-5.62-9.93-5.62-9.93l0-.07c-.48-.54-3.72-4-7.43-4.22-2.67-.18-5.45-2-5.69-4.24l-.23,0-.33,0s-9.11-10.9-13.22-5.55l.17,7.87a12.18,12.18,0,0,0,3-1.07c1.25-.72,3.22-1.61,4.29,3.75s4.63,12.16-1.8,9.11c0,0-2.14-6.61-6.79-3.22s-1.43,5.72-1.43,5.72a17.87,17.87,0,0,1,1.42,7.86c-.36,3.93,11.08,6.09,11.43,2.87,0,0,4.83-1.78,1.43,3.76,0,0-.72,2.14-9.11,2.31s-8,7.5-4.84,10.89c0,0,4.65-1.06,6.61,1.26l1.43,1.08,2.32.53s11.08,4.3-.36,6.79a1.61,1.61,0,0,0-.66.32l6.16,9.39s5,2.15,8.76.55,5.36-3.75,6.43,1.43c0,0,3,4.29,5.89,4.3s1.07,5.35,1.07,5.35,3.93,4.48,4.1,8.05,5,4.47,6.07,4.47,1.61,5.54,6.61,4.83l1.25,1.43.14,5.3c4.12-7.14,5.25-7.49,2.93-14.1s-.69-7.85,3.23-10C406.31,274,413.37,282.36,413.37,282.36Z"/><path class="cls-2" d="M284.08,479.08c-.63,2.49-1.56,1.86-1.56,1.86l-5.28-2.59v-3.52c-1.24-5.71-2.9-.53-3.73,3.31s-8.19,1.75-8.19,1.75l.63-10.15-2.49-.11L256.83,477c-6.64-.42-8.92,3.93-8.92,3.93l-.11.12a13.68,13.68,0,0,1-.21,3.58l5.09,4,.27,2.42,6.16,1.34-.54,6.43,1.33,1.34,3.49-2.94s2.14,5.09-1.35,7.77-4.56,4.29,0,5.63c0,0,9.65,0,8.3,7.51,0,0-8.78,2,4.25,6a8.65,8.65,0,0,0,.68,1.12l.68-.11s5-4.55,3.12-8.7a43.26,43.26,0,0,1-2.69-8.6s-.82-11.3,6.43-5.69,6.75-8.08,6.23-12.43a13.24,13.24,0,0,1,.63-6.74s2.28-2.07-.1-5.7S284.7,476.59,284.08,479.08Z"/></g></svg>