<svg id="图层_1" data-name="图层 1" xmlns="http://www.w3.org/2000/svg" viewBox="0 0 650.78 650.78"><defs><style>.cls-1{fill:#1a1a1a;}.cls-1,.cls-2,.cls-3,.cls-4,.cls-5{stroke:#545555;}.cls-2{fill:#fffcd1;}.cls-3{fill:#00324b;}.cls-4{fill:none;}.cls-5{fill:#761b1d;}</style></defs><title>雲南</title><path class="cls-1" d="M370.11,489.81,385,498.89v4.54l2.27.25,1.76,3.78s8.07,3.79,9.33-3l4.54-1.26s2.27,0,.25-4l8.32-11.34s3.79-6.56,6.56,2.52l4,6.8s2,5.05,6.3-6.55c0,0,2-9.58,6.81-2.77l9.07,7.06s4.55,7.56,10.85,9.58c0,0-3.28-18.16,9.33-22.7,0,0,8.32-7.56,5.8,7.06l1.77,2.27,6.55-.25.25-2.77L490.65,479l1,3,8.83-3.27s.5-4.54,7.06-4c0,0,1.51-2-2.52-7.56s1.76-8.32,7.31-8.83l1.51-3,8.58-2.27.75-2.77,6.31,1.26,1.26-1.51.5-5.3,2-1.51.76,3.28,5,.25v3.53l2.78-2.27.25,5.8s6.3,4.54,7.81-3c0,0,3.28-6.81,7.32-5.05l-1.77-4.79,4.29-.25a45,45,0,0,0,6.3-8.32s3-.76,4,1.76a8.9,8.9,0,0,1,4.28-.25c2,.51.51,3.78.51,3.78s8.57-3,7.06-13.36l1.26-2s5-3-.76-7.82l1.27-1.76s8.82-2.52-1.27-8.83l-.5-5-3.28-.76s2-9.58-5-3.28c0,0-5-3.53-6.31,3,0,0-1.26,3-8.32-1l-4.54,2.52a3.58,3.58,0,0,1-3.27-3c-.76-3-3.79-3.53-6.56,3s-10.84-4.54-10.84-4.54S532,397.26,532,399s-8.57-6.81-8.57-6.81l4.79-.5s-2.27-5.8-4.29-7.06v-2s3.53-3.53-1.51-3-4.54-4-4.54-4-2-3.28-6.56,0c0,0,0,1.26-5.8-2s-10.84,0-9.08,6.56c0,0-3.53,3.28-4.53-2.78,0,0-8.07,3.28-9.59-12.35,0,0-1-2-4.28-.51,0,0-1-2.26,6-7.81,0,0,1.51-1-1-4.29l3-5,5.54-7.57s.51-7.31-5.8-1.51-8.82-2-1.51-4.29,9.33-4.54,9.33-4.54l1.76-3,3.79,1.51,1-5.8a32.82,32.82,0,0,0-9.84-.76c-3.53.26-2.27-6.81-2.27-6.81l-6.05-2.26-1.26-.76.76-1.51,1-2.78v-2l-1-.26-1.51.26s-7.82,5.29-4.3-2.53c0,0,.26-3.53-5.54-3.28l-.51-8.07s7.57-4.79,7.57-23.7c0,0,9.54-1.25,5-8.32-1.76-2.77,6.06-6.56,6.06-6.56l.25-4.28s3.28.5.25-4-3.53-6.81-3.53-6.81-.51-5-6.31-3l-4.28-5.8A8.31,8.31,0,0,0,470,232.1c-1.52,2.52-7.57,1.51-9.33.75s-4,3.28-5.3,5.3-20.17,3-19.92-10.09c0,0-1.51-5.29-2.52-6.05s2.52-8.32,2.52-8.32,0-10.34-6.3-6.81c0,0-4.29.5-2-2,0,0,3.78-2-.25-3.53a9.79,9.79,0,0,1,5.8-1.76l.25-4.54s9.83-2.52,12.1-15.38l6.06.25,1,5,4,4s6.3,6.55,8.82-2.53l5.8-6.55s1.77-2.78,4.8.75l3.78.51a12.08,12.08,0,0,1,1.76,5.55c0,2.77,6.81,1.26,11.6,0s7.57,1,7.57,1,1,.26,3.28-2.26,10.59-8.58,14.37-4.29,3.28-4.29,3.28-4.29,3.78-2.27-.51-6.81c0,0,7.31-3,3.78-10.59a5.57,5.57,0,0,1,.51-6.3s-10.34,2-1.77-6.31c0,0,3-4.54-5.8-4.54,0,0-2.27-2.77-2.27-4.79S503,135,500.23,147.87v2s-4.8-2.52-6.06.76c0,0-5.29-3.53-6.55,1.51S472,145.1,472,145.1s0-4.29-3.54-4.29,1-2.77,3.79-2.52l4.53-6.3s.76-2.27-4.53-2.27c0,0,6.55-3-1.52-8.83l-6.81,1.26s-3.78-13.11,4-16.64,6.81-4-1.77-4.29c0,0-3.27-4.29-5.79,0L442,102.48s-4.79-7.06-4.79.76l-1.52,2.52s-3.28,4,3.78,11.1c0,0,4.7,4-3.93,9.09-6.47,3.77-3.65,4.6-9.18-.27,0,0-2.74-.72-6.34,5.61S414,139,420,143.2s-.85,5.77-.85,5.77v6.22l-2.64,3.14s-5.42,4.29-7.82,9-7.06,5.67-8.07,6.81c0,0-1.14.25-.88,6.93l-.89.63h-5s-1.64-.25-.88,3-4.29-.89-4.79-2.4c0,0-2.65.76-.63,5.55,0,0-1.14,2-2.78,2.14s1,4.16,1.26,6.31c.13.88-1.38,7.06-1.38,7.06s-3.53,10,5,16.39l.88,2.14-.25,9.71s7.43,5.65,2.52,9.21c-3.65,2.64-2.65,10.21-2.65,10.21s.26,2.52-6.43,1.38c0,0-1.76,3.91-8.07,3.79l-1,.25-1.27,3.28s-5.79,4.54-5.42-3.53-5.8-4-9.07-2.27c0,0-.63,4.54-10.6,4.66,0,0-6.55,4.79-7.69,8.95,0,0-.88,2.53-11.09-.37a4.63,4.63,0,0,0-4.54,3c-.76,1.89-3.28-4.79-3.28-4.79s-1.83-8.32-8.83-5.48l-3,.38s-.94-4.73-2.46-5.11c0,0,.19-1.89,5.3-1.14,0,0,1.13-2.27-2.27-5.29,0,0-5.49-6.24-6.81-6.24l-1.74-1.65v-1.38H301l-1.65.55-1.93.28v-4.69l3-1.65,1.65-2.21v-1.37l-.27-1.11v-.82l.55-1.1,1.1-1.11.83-1.37s-2.76-4.41-3.86.55-6.61-.55-2.76-5.79c0,0,1.66-4.41-6.06-4.41L290,213.85v-5.24s-7.66,2-5.24-6.61c1.93-6.89-6.06-7.72-6.06-7.72s-.27-11-7.16-15.43h-3.31l-.83-1.1,1.11-5.51s-6.06-3-1.66-6.06l-5.23-1.38v-1.65s-.28-5.79-2.48-8.27c0,0-1.93-12.95-8-1.1,0,0-1.11,5-6.61-3l-1.66-.28s-9.09,20.67-9.37,2.48c0,0,3.86-2.75-4.13-2.75,0,0-6.61-11-9.37-13.23s-1.65-8.26,6.06-8l.83-1.65V125.4l-.55-1.38-.83-.55.55-1.66,1.11-.82v-1.11l-1.38-1.09-.83-.28-.83-.28-1.37-.27-.83-.55-.83-1.11v-1.92l-.82-2.48-1.11-.83-.82-.28-1.66-1.1v-2.48s-.27-2.48-1.37-3.58-5.51-7.44-5.51-7.44l-4.69-2.48-3.58-2.48,2.2-3.58s1.93-3.31-2.47-2.76l-1.11,1.93-2.2-.27-1.66-1.38s-1.92-.55-1.92.55a45.79,45.79,0,0,0,1.37,5.79S195.22,94,193.85,94s-3.31,2.2-2.21,5.51-8,6.06-8,6.06,4.41,3.86-1.1,6.06c0,0,8,5.24,0,5.79,0,0,3,4.68-2.21,6.61,0,0,1.11,11.3-5.51.55s-5.23-11-5.23-11,2.2-12.12-3-17.08c0,0,.55-29.76,1.38-35s-4.14-1.37-4.14-1.37-5.23-2.48-3.3,2.47,5.5,7.17-.83,10.75-2.76,7.72.55,8.54L160,83.24s-10.19,7.72-9.36-4.68-3.59-5-3.59-5a6.84,6.84,0,0,1-7.16,1.1L139,77.46l1.93,2.2-.82,5.23,2.48,8L138.19,94s1.37,9.09-.28,11.85a7.72,7.72,0,0,0,5.24,3.58s.27,6.88,2.2,7.44l-2.75,1.93s1.1,12.94-6.62,6.61l-3.3,3-3-.83s-5.52,9.37-5.79-5l-1.65-3.58s.82-11.3-6.89-4.68c0,0,5.51,9.92-5.24,11.57v7.16s-5,7.44,0,8.82c0,0,4.14,2.48,3,12.4l5.52,15.7s5.5,2.76,6.61-3.58,3.58-4.41,4.41-3.31,2.75.56,2.75.56l2.21,3.85s10.19-2.48,4.68,5.24l1.93,14.6s-3.31,9.37,0,12.68.27,12.12.27,12.12l.28,29.48-3,6.06s-5.24,6.34,1.38,10.75L137.64,264l-1.93.28-1.66-1.66s-6.06-8.81-3,8.55c0,0,15.71,17.35-4.13,11a22.23,22.23,0,0,0-7.71,11.57c-1.93,7.44-7.72,5.78-10.75,3.58s-6.06-5.24-4.41,3L101.54,302s3.58,10.2-4.13,13.23c0,0-5.51,2.48-5.79,7.44s-.27.82-.27.82-3.59-1.93-5.52-3.3S82,322.67,81.43,326s-6.06,5.24-6.06,5.24a14,14,0,0,1-.28,10.47s8.54,5.23.28,6.06c0,0-11.58-.83-11,25.62,0,0,11-2.48,7.17,9.37,0,0-.83,1.93,2.75,1.93,0,0,3.31,10.2-4.13,13.23l-6.61,8.54s2.45,8.45,14-.83c8.26-6.61,32.79-8.81,32.79-8.81l11.85-.56s7.71,5,10.19,0c0,0,25.08-2.48.83,9.1,0,0-4.41.27-3,6.61s1.1,6.06,5.78,6.61,3,8.54,3,8.54,6.68,4.7-.62,8.66l1.82,2.44a12,12,0,0,1,4,10c-.61,6.4-.61-.3-.61-.3l3.35,2.44s-10.66,11.87,4.57,8.52c0,0-3,6.7,7.92,5.79s8.22-.31,8.22-.31,4-2.74,4.87,1.53l5.79-.92s8.83,19.19-2.44,10.36l-.61,6.7s-12.9,7.52-4.26,14.31c4.26,3.35-5.18,12.18-5.18,12.18s-3,3.35-1.83,9.44c0,0-13.7,10.66-2.74,11a112.56,112.56,0,0,0,17.36-.61l12.18,5.48,4.57-2.13,6.09,3.66,3.65-2.44s7.31,7,.31,16.44c0,0,3,14.62,8.83,9.14,0,0,7.61-3.66,1.83,5.48,0,0-3,7.31,4.87,5.18l3.65,3s4.87-7.92,12.18-4.56l1.22,3.65s8.83,8.22,23.75-12.79c0,0,9.14.3,12.18-4.87h4.27l-.61,3.35s6.39,1.82,2.74,7.91c0,0,7.31-1.82,3,7.31s.92,10.05,3.66,11c0,0-7.61,7.3,4.87,6.69s12.49-3.65,12.49-3.65a3.65,3.65,0,0,1,2.74,3.65l1.82,1.22s4-2.74,6.7,3.05c0,0,5.18-.31,3.66-5.18,0,0,8.22-1.22,0-5.18s-3.35-11-3.35-11,3-3-.61-6.39l5.18-2.14.91-2.74L319,558.78l-2.13-2.13v-9.13l-8.22-7.92,1.52-5.18-4.57-3.65,1.22-4.27-3-7.3s7.3-.31,7.61-11.27c0,0,1.52-6.09,7.61-.3l3.35,3.65s2.44,2.74,3.66-3.35l9.13-.61,5.79,1.52,7-.91.61-3.35,6.09-7.61.61-4.88,4.57-.3.3-4.87h2.74l2.74,3Z"/><path class="cls-2" d="M370.11,489.81,385,498.89v4.54l2.27.25,1.76,3.78s8.07,3.79,9.33-3l4.54-1.26s2.27,0,.25-4l8.32-11.34s3.79-6.56,6.56,2.52l4,6.8s2,5.05,6.3-6.55c0,0,2-9.58,6.81-2.77l9.07,7.06s4.55,7.56,10.85,9.58c0,0-3.28-18.16,9.33-22.7,0,0,8.32-7.56,5.8,7.06l1.77,2.27,6.55-.25.25-2.77L490.65,479l1,3,8.83-3.27s.5-4.54,7.06-4c0,0,1.51-2-2.52-7.56s1.76-8.32,7.31-8.83l1.51-3,8.58-2.27.75-2.77,6.31,1.26,1.26-1.51.5-5.3,2-1.51.76,3.28,5,.25v3.53l2.78-2.27.25,5.8s6.3,4.54,7.81-3c0,0,3.28-6.81,7.32-5.05l-1.77-4.79,4.29-.25a45,45,0,0,0,6.3-8.32s3-.76,4,1.76a8.9,8.9,0,0,1,4.28-.25c2,.51.51,3.78.51,3.78s8.57-3,7.06-13.36l1.26-2s5-3-.76-7.82l1.27-1.76s8.82-2.52-1.27-8.83l-.5-5-3.28-.76s2-9.58-5-3.28c0,0-5-3.53-6.31,3,0,0-1.26,3-8.32-1l-4.54,2.52a3.58,3.58,0,0,1-3.27-3c-.76-3-3.79-3.53-6.56,3s-10.84-4.54-10.84-4.54S532,397.26,532,399s-8.57-6.81-8.57-6.81l4.79-.5s-2.27-5.8-4.29-7.06v-2s3.53-3.53-1.51-3-4.54-4-4.54-4-2-3.28-6.56,0c0,0,0,1.26-5.8-2s-10.84,0-9.08,6.56c0,0-3.53,3.28-4.53-2.78,0,0-8.07,3.28-9.59-12.35,0,0-1-2-4.28-.51,0,0-1-2.26,6-7.81,0,0,1.51-1-1-4.29l3-5,5.54-7.57s.51-7.31-5.8-1.51-8.82-2-1.51-4.29,9.33-4.54,9.33-4.54l1.76-3,3.79,1.51,1-5.8a32.82,32.82,0,0,0-9.84-.76c-3.53.26-2.27-6.81-2.27-6.81l-6.05-2.26-1.26-.76.76-1.51,1-2.78v-2l-1-.26-1.51.26s-7.82,5.29-4.3-2.53c0,0,.26-3.53-5.54-3.28l-.51-8.07s7.57-4.79,7.57-23.7c0,0,9.54-1.25,5-8.32-1.76-2.77,6.06-6.56,6.06-6.56l.25-4.28s3.28.5.25-4-3.53-6.81-3.53-6.81-.51-5-6.31-3l-4.28-5.8A8.31,8.31,0,0,0,470,232.1c-1.52,2.52-7.57,1.51-9.33.75s-4,3.28-5.3,5.3-20.17,3-19.92-10.09c0,0-1.51-5.29-2.52-6.05s2.52-8.32,2.52-8.32,0-10.34-6.3-6.81c0,0-4.29.5-2-2,0,0,3.78-2-.25-3.53a9.79,9.79,0,0,1,5.8-1.76l.25-4.54s9.83-2.52,12.1-15.38l6.06.25,1,5,4,4s6.3,6.55,8.82-2.53l5.8-6.55s1.77-2.78,4.8.75l3.78.51a12.08,12.08,0,0,1,1.76,5.55c0,2.77,6.81,1.26,11.6,0s7.57,1,7.57,1,1,.26,3.28-2.26,10.59-8.58,14.37-4.29,3.28-4.29,3.28-4.29,3.78-2.27-.51-6.81c0,0,7.31-3,3.78-10.59a5.57,5.57,0,0,1,.51-6.3s-10.34,2-1.77-6.31c0,0,3-4.54-5.8-4.54,0,0-2.27-2.77-2.27-4.79S503,135,500.23,147.87v2s-4.8-2.52-6.06.76c0,0-5.29-3.53-6.55,1.51S472,145.1,472,145.1s0-4.29-3.54-4.29,1-2.77,3.79-2.52l4.53-6.3s.76-2.27-4.53-2.27c0,0,6.55-3-1.52-8.83l-6.81,1.26s-3.78-13.11,4-16.64,6.81-4-1.77-4.29c0,0-3.27-4.29-5.79,0L442,102.48s-4.79-7.06-4.79.76l-1.52,2.52s-3.28,4,3.78,11.1c0,0,4.7,4-3.93,9.09-6.47,3.77-3.65,4.6-9.18-.27,0,0-2.74-.72-6.34,5.61S414,139,420,143.2s-.85,5.77-.85,5.77v6.22l-2.64,3.14s-5.42,4.29-7.82,9-7.06,5.67-8.07,6.81c0,0-1.14.25-.88,6.93l-.89.63h-5s-1.64-.25-.88,3-4.29-.89-4.79-2.4c0,0-2.65.76-.63,5.55,0,0-1.14,2-2.78,2.14s1,4.16,1.26,6.31c.13.88-1.38,7.06-1.38,7.06s-3.53,10,5,16.39l.88,2.14-.25,9.71s7.43,5.65,2.52,9.21c-3.65,2.64-2.65,10.21-2.65,10.21s.26,2.52-6.43,1.38c0,0-1.76,3.91-8.07,3.79l-1,.25-1.27,3.28s-5.79,4.54-5.42-3.53-5.8-4-9.07-2.27c0,0-.63,4.54-10.6,4.66,0,0-6.55,4.79-7.69,8.95,0,0-.88,2.53-11.09-.37a4.63,4.63,0,0,0-4.54,3c-.76,1.89-3.28-4.79-3.28-4.79s-1.83-8.32-8.83-5.48l-3,.38s-.94-4.73-2.46-5.11c0,0,.19-1.89,5.3-1.14,0,0,1.13-2.27-2.27-5.29,0,0-5.49-6.24-6.81-6.24l-1.74-1.65v-1.38H301l-1.65.55-1.93.28v-4.69l3-1.65,1.65-2.21v-1.37l-.27-1.11v-.82l.55-1.1,1.1-1.11.83-1.37s-2.76-4.41-3.86.55-6.61-.55-2.76-5.79c0,0,1.66-4.41-6.06-4.41L290,213.85v-5.24s-7.66,2-5.24-6.61c1.93-6.89-6.06-7.72-6.06-7.72s-.27-11-7.16-15.43h-3.31l-.83-1.1,1.11-5.51s-6.06-3-1.66-6.06l-5.23-1.38v-1.65s-.28-5.79-2.48-8.27c0,0-1.93-12.95-8-1.1,0,0-1.11,5-6.61-3l-1.66-.28s-9.09,20.67-9.37,2.48c0,0,3.86-2.75-4.13-2.75,0,0-6.61-11-9.37-13.23s-1.65-8.26,6.06-8l.83-1.65V125.4l-.55-1.38-.83-.55.55-1.66,1.11-.82v-1.11l-1.38-1.09-.83-.28-.83-.28-1.37-.27-.83-.55-.83-1.11v-1.92l-.82-2.48-1.11-.83-.82-.28-1.66-1.1v-2.48s-.27-2.48-1.37-3.58-5.51-7.44-5.51-7.44l-4.69-2.48-3.58-2.48,2.2-3.58s1.93-3.31-2.47-2.76l-1.11,1.93-2.2-.27-1.66-1.38s-1.92-.55-1.92.55a45.79,45.79,0,0,0,1.37,5.79S195.22,94,193.85,94s-3.31,2.2-2.21,5.51-8,6.06-8,6.06,4.41,3.86-1.1,6.06c0,0,8,5.24,0,5.79,0,0,3,4.68-2.21,6.61,0,0,1.11,11.3-5.51.55s-5.23-11-5.23-11,2.2-12.12-3-17.08c0,0,.55-29.76,1.38-35s-4.14-1.37-4.14-1.37-5.23-2.48-3.3,2.47,5.5,7.17-.83,10.75-2.76,7.72.55,8.54L160,83.24s-10.19,7.72-9.36-4.68-3.59-5-3.59-5a6.84,6.84,0,0,1-7.16,1.1L139,77.46l1.93,2.2-.82,5.23,2.48,8L138.19,94s1.37,9.09-.28,11.85a7.72,7.72,0,0,0,5.24,3.58s.27,6.88,2.2,7.44l-2.75,1.93s1.1,12.94-6.62,6.61l-3.3,3-3-.83s-5.52,9.37-5.79-5l-1.65-3.58s.82-11.3-6.89-4.68c0,0,5.51,9.92-5.24,11.57v7.16s-5,7.44,0,8.82c0,0,4.14,2.48,3,12.4l5.52,15.7s5.5,2.76,6.61-3.58,3.58-4.41,4.41-3.31,2.75.56,2.75.56l2.21,3.85s10.19-2.48,4.68,5.24l1.93,14.6s-3.31,9.37,0,12.68.27,12.12.27,12.12l.28,29.48-3,6.06s-5.24,6.34,1.38,10.75L137.64,264l-1.93.28-1.66-1.66s-6.06-8.81-3,8.55c0,0,15.71,17.35-4.13,11a22.23,22.23,0,0,0-7.71,11.57c-1.93,7.44-7.72,5.78-10.75,3.58s-6.06-5.24-4.41,3L101.54,302s3.58,10.2-4.13,13.23c0,0-5.51,2.48-5.79,7.44s-.27.82-.27.82-3.59-1.93-5.52-3.3S82,322.67,81.43,326s-6.06,5.24-6.06,5.24a14,14,0,0,1-.28,10.47s8.54,5.23.28,6.06c0,0-11.58-.83-11,25.62,0,0,11-2.48,7.17,9.37,0,0-.83,1.93,2.75,1.93,0,0,3.31,10.2-4.13,13.23l-6.61,8.54s2.45,8.45,14-.83c8.26-6.61,32.79-8.81,32.79-8.81l11.85-.56s7.71,5,10.19,0c0,0,25.08-2.48.83,9.1,0,0-4.41.27-3,6.61s1.1,6.06,5.78,6.61,3,8.54,3,8.54,6.68,4.7-.62,8.66l1.82,2.44a12,12,0,0,1,4,10c-.61,6.4-.61-.3-.61-.3l3.35,2.44s-10.66,11.87,4.57,8.52c0,0-3,6.7,7.92,5.79s8.22-.31,8.22-.31,4-2.74,4.87,1.53l5.79-.92s8.83,19.19-2.44,10.36l-.61,6.7s-12.9,7.52-4.26,14.31c4.26,3.35-5.18,12.18-5.18,12.18s-3,3.35-1.83,9.44c0,0-13.7,10.66-2.74,11a112.56,112.56,0,0,0,17.36-.61l12.18,5.48,4.57-2.13,6.09,3.66,3.65-2.44s7.31,7,.31,16.44c0,0,3,14.62,8.83,9.14,0,0,7.61-3.66,1.83,5.48,0,0-3,7.31,4.87,5.18l3.65,3s4.87-7.92,12.18-4.56l1.22,3.65s8.83,8.22,23.75-12.79c0,0,9.14.3,12.18-4.87h4.27l-.61,3.35s6.39,1.82,2.74,7.91c0,0,7.31-1.82,3,7.31s.92,10.05,3.66,11c0,0-7.61,7.3,4.87,6.69s12.49-3.65,12.49-3.65a3.65,3.65,0,0,1,2.74,3.65l1.82,1.22s4-2.74,6.7,3.05c0,0,5.18-.31,3.66-5.18,0,0,8.22-1.22,0-5.18s-3.35-11-3.35-11,3-3-.61-6.39l5.18-2.14.91-2.74L319,558.78l-2.13-2.13v-9.13l-8.22-7.92,1.52-5.18-4.57-3.65,1.22-4.27-3-7.3s7.3-.31,7.61-11.27c0,0,1.52-6.09,7.61-.3l3.35,3.65s2.44,2.74,3.66-3.35l9.13-.61,5.79,1.52,7-.91.61-3.35,6.09-7.61.61-4.88,4.57-.3.3-4.87h2.74l2.74,3Z"/><path class="cls-1" d="M191.22,212.2l-6.43-6.62L182,207.85c-1.32,4.35-2.83,4-2.64-.38s-4-5.67-4-5.67c-3.6,7.19-8.32,3.78-8.32,3.78l-5.68-1.89-1,.38-4.72,2.46-.19-5.11L157,199s-.94-7.37.76-9.45,3.4-6.43-.19-6.81-3.6-3.21-3.6-3.21l-.18-18-1.9-5.11c2.08-7.76-1.7-8.89-1.7-8.89l-1.32-2.46c-.57-14.37-6.81-19.86-6.81-19.86l-.09-.09c-.79,2.06-2.47,3.16-6,.29l-3.3,3-3-.83s-5.52,9.37-5.79-5l-1.65-3.58s.82-11.3-6.89-4.68c0,0,5.51,9.92-5.24,11.57v7.16s-5,7.44,0,8.82c0,0,4.14,2.48,3,12.4l5.52,15.7s5.5,2.76,6.61-3.58,3.58-4.41,4.41-3.31,2.75.56,2.75.56l2.21,3.85s10.19-2.48,4.68,5.24l1.93,14.6s-3.31,9.37,0,12.68.27,12.12.27,12.12l.28,29.48-3,6.06s-5.24,6.34,1.38,10.75L137.64,264l-1.93.28-1.66-1.66s-6.06-8.81-3,8.55c0,0,5.13,5.67,5.82,9.35h0s4.79,3.78,2,15.64l.25,3.27s4.79,2.53,8.07.26l.76-3,.07-.13c-.58-2.12-3.93-15.2,5.13-7.53,0,0,6,1,0-3.53l-2.28-1,.51-2h2.27l-.5-6.56,2.27-2.77.25-9.33,1.51-1.26,5.8.5,3.78.26-.5-4.54,8.07-4.29.75-3.53s14.38-.25,11.6-14.37c0,0-.5-4,3.28-4.54a51.31,51.31,0,0,0,4.79-5.05l.27-.31C189.56,222.57,191.22,212.2,191.22,212.2Z"/><path class="cls-3" d="M359.94,313c7.26-2.2-.17-6.42-.17-6.42s-9.62-14.35-5.06-30.72c0,0-1.67-9.74-7.71-16.16-2,1.63-5.57,4.93-6.38,7.92,0,0-.89,2.52-11.1-.37a4.63,4.63,0,0,0-4.54,3c-.75,1.89-3.28-4.79-3.28-4.79s-1.83-8.32-8.82-5.48l-3,.37s-.94-4.72-2.46-5.1c0,0,.19-1.9,5.3-1.14,0,0,1.13-2.27-2.27-5.29,0,0-5.49-6.24-6.81-6.24l-.87-.83c.56,1.64,1.4,6.48-8,6.27C283.36,247.78,268,261.9,268,261.9l.51,7.32,2,4.54s2.78,3.78-2.77,9.07c0,0-3.28,3.79,3.53,6.81l-1,5.3s8.32,4.28.5,8.82c0,0-3,3.28,2,7.31s2.27,5.8-1,6.82-1.26,5-1.26,5-1.76,2-7.06-.76c0,0-1.51,7.57-5,8.83,0,0,1.51,7.56-2.52,10.34l1.26,3.53s.5,6.05-1.39,8.7l.06.06c3.76,4.09,7.15,3.72,10.53,3.72s5.3,7.94,5.3,7.94L277.31,377s4.92,10.21,11,8.7l.13,0c.6.07,3.18,0,6-4.81,0,0,8.83-4.79,5.8,8.32,0,0,4,5.29,7.06-1.77s6.56-5.29,9.33-2.52,4.79,5.3,4.79,5.3.51,1.51,4.29-.51l2.77.26s9.08-5.05,2-12.61-2.52-9.34-2.52-9.34a2.63,2.63,0,0,0-2.78-2.26s-1.26-3.28,2.78-3l1-.76-.26-5L332,354.7v-6.05l5.05.25,1.51-3.53,7.06-.5-.06-.1c-.57-1-5.06-9.23,2.88-7.65,0,0,5.06-.5,4.72-8.77,0,0,9.12-4.22,1.86-7.6C355.05,320.75,352.69,315.18,359.94,313Z"/><path class="cls-1" d="M212.25,330.69c-.76-8.07-8.32-.25-8.32-.25-6.3,6.56-12.61,2.52-12.61,2.52l-5.3-2.52c-6.55.25-14.62-15.89-14.62-15.89s-1.51-5.54-.51-4,10.85,0,5.55-4.79-7.06-4-11.35-2-7.81,5.3-8.06-3.78-9.08-3.28-9.08-3.28l-.76,3c-3.28,2.27-8.07-.26-8.07-.26l-.25-3.27c2.6-11.09-1.43-15.12-2-15.59.48,2.72-1.53,4.31-10,1.62a22.29,22.29,0,0,0-7.71,11.57c-1.93,7.44-7.72,5.78-10.75,3.58s-6.06-5.24-4.41,3L101.6,302s3.59,10.2-4.13,13.23c0,0,7.67.07,6.16,8.39,0,0,7.06,7.82,3.78,11.85l-.25,5.55s5.29-2.52,7.56,2l8.07,2s8.58,1.26-2,6.05L118,353.64s-2,14.12,4.29,12.61l6.56-.25s12.85,2,4.78,9.33c0,0-1.6,21.77-1.17,20.91a44.38,44.38,0,0,1,8.28,0l.4-.22s5.55-6.05,13.62-6.55c0,0,2.77.5,5.79-6.56s7.57-10.84,11.86,1.26,18.41-10.84,18.41-10.84l.5-5,8.57-12.61.51-4,3.78-6.3.25-4.79,6.81-2.52.2-.07C220,334.92,212.25,330.69,212.25,330.69Z"/><path class="cls-1" d="M417.75,208.64c1.52-6.8,9.08-4.28,9.08-4.28h1c.85-.7,1.82-2-1-3a9.79,9.79,0,0,1,5.8-1.76l.25-4.54s9.83-2.52,12.1-15.38l6.06.25,1,5,4,4s6.3,6.55,8.82-2.53l5.8-6.55s1.77-2.78,4.8.75l3.78.51a12.08,12.08,0,0,1,1.76,5.55c0,2.77,6.81,1.26,11.6,0s7.57,1,7.57,1,1,.26,3.28-2.26,10.59-8.58,14.37-4.29,3.28-4.29,3.28-4.29,3.78-2.27-.51-6.81c0,0,7.31-3,3.78-10.59a5.57,5.57,0,0,1,.51-6.3s-10.34,2-1.77-6.31c0,0,3-4.54-5.8-4.54,0,0-2.27-2.77-2.27-4.79S503,135,500.23,147.87v2s-4.8-2.52-6.06.76c0,0-5.29-3.53-6.55,1.51S472,145.1,472,145.1s0-4.29-3.54-4.29,1-2.77,3.79-2.52l4.53-6.3s.76-2.27-4.53-2.27c0,0,6.55-3-1.52-8.83l-6.81,1.26s-3.78-13.11,4-16.64,6.81-4-1.77-4.29c0,0-3.27-4.29-5.79,0L442,102.48s-4.79-7.06-4.79.76l-1.52,2.52s-3.28,4,3.78,11.1c0,0,4.7,4-3.93,9.09-6.47,3.77-3.65,4.6-9.18-.27,0,0-2.74-.72-6.34,5.61S414,139,420,143.2s-.85,5.77-.85,5.77v6.22l-2.64,3.14s-5.42,4.29-7.82,9-7.06,5.67-8.07,6.81c0,0-1.14.25-.88,6.93l-.89.63h-5s-1.64-.25-.88,3-4.29-.89-4.79-2.4c0,0-2.65.76-.63,5.55,0,0-1.14,2-2.78,2.14s1,4.16,1.26,6.31c.13.88-1.38,7.06-1.38,7.06s-3.53,10,5,16.39l.88,2.14-.25,9.71s4,3,4.18,6l.23-.08,2.29.58h.09c-2.27-9.08,2.53-8.32,2.53-8.32,5,3,5.8-.51,5.8-.51,0-4.54,1.76-6.55,1.76-6.55,10.34,4.53,6.81-7.32,6.81-7.32S416.24,215.45,417.75,208.64Z"/><path class="cls-1" d="M167.87,464.22l-.25.16S168.07,464.28,167.87,464.22Zm-23.71-15.85-.6-.43S143.56,454.54,144.16,448.37Zm99.11-57.79S238,383.4,241.38,380s.75-9.08.75-9.08l-5.92-10.46-.26-2c-12.35-4-14.87,1.26-14.87,1.26.49,3-2.5,4.47-2.87,1.58-.52-4,2.11-5.86,4.88-10.66s1.77-12.35-3.53-9.07-5,1-5,1L211.24,338l-6.81,2.52-.25,4.79-3.78,6.3-.51,4-8.57,12.61-.5,5s-14.13,22.95-18.41,10.84-8.83-8.32-11.86-1.26-5.79,6.56-5.79,6.56c-8.07.5-13.62,6.55-13.62,6.55l-.41.22c4.22.6,6,2.69-7.5,9.12,0,0-4.41.27-3,6.61s1.1,6.06,5.78,6.61,3,8.54,3,8.54,6.68,4.7-.62,8.66l1.82,2.44a12,12,0,0,1,4,10c0,.05,0,.09,0,.13l2.75,2s-10.66,11.87,4.57,8.52c0,0-3,6.7,7.92,5.79,6.52-.55,8.19-.55,8.47-.47.88-.51,3.85-1.93,4.62,1.69l5.79-.92s.23.51.57,1.32l.11-.08L191.07,456c6.43,3.78,9.08,1.89,9.08,1.89l3.4-2.27c11,4.16,10.21-.75,10.21-.75l1.14-7.19c1.89-1.14,5.29-14.37,5.29-14.37l4.16-3.41c6.06.76,9.08-1.89,9.08-1.89a18.93,18.93,0,0,1-1.51-11c7.57-2.27,2.65-12.1,2.65-12.1l-1.14-2.65C246.29,400,243.27,390.58,243.27,390.58Z"/><path class="cls-1" d="M319.27,583.75c-8.23-4-3.35-11-3.35-11s3-3-.61-6.39l5.18-2.14.91-2.74L319,558.78l-2.13-2.13v-9.13l-8.22-7.92,1.52-5.18-4.57-3.65,1.22-4.27-3-7.3a7.82,7.82,0,0,0,6.17-4.65l-.45-.28-4.16-2.65c-6.81,0-5.67-3-5.67-3,3.4-12.11-7.19-6.43-7.19-6.43L269,501l-3.41,1.14-2.27-.38c-10.59-3.41-18.53,6-18.53,6h-7.57c-1.13,2.65-8.69,3.78-8.69,3.78,12.1,13.24-7.19,7.57-7.19,7.57-1.51.76-9.46,2.27-9.46,2.27,0,9.83-6.8,11.44-6.8,11.44s7.31,7,.31,16.44c0,0,3,14.62,8.83,9.14,0,0,7.61-3.66,1.83,5.48,0,0-3,7.31,4.87,5.18l3.65,3s4.87-7.92,12.18-4.56l1.22,3.65s8.83,8.22,23.75-12.79c0,0,9.14.3,12.18-4.87h4.27l-.61,3.35s6.39,1.82,2.74,7.91c0,0,7.31-1.82,3,7.31s.92,10.05,3.66,11c0,0-7.61,7.3,4.87,6.69s12.49-3.65,12.49-3.65a3.65,3.65,0,0,1,2.74,3.65l1.82,1.22s4-2.74,6.7,3.05c0,0,5.18-.31,3.66-5.18C319.27,588.93,327.49,587.71,319.27,583.75Z"/><path class="cls-1" d="M350.62,501.79c0-2.65-11.34-4.54-11.34-4.54l-4.17-2.65c1.14-6.81-6.05-8.7-6.05-8.7H324.9l-5.29-1.51-1.14-3a29,29,0,0,0,4.16-6.05,9.59,9.59,0,0,1,2.65-3.78s7.94,5.29,8.32-3-6.43-6.43-6.43-6.43c-7.56.38-7.19-2.65-7.19-2.65a13.17,13.17,0,0,0,3-7.94l-6.43-8.7.38-3.4c-4.17-2.65-4.92-10.22-4.92-10.22l-5.67.38c1.13-11.34-6.43-5.67-6.43-5.67-9.46,3-4.17-5.29,0-9.84s-9.84-25-9.84-25l-1.51-3.4c-6.06,1.51-11-8.7-11-8.7l-5.68-11.73s-1.89-7.94-5.29-7.94-6.81.38-10.59-3.78-6.05-.38-6.05-.38c2.14,5.71-12,5.36-13.6,5.3h-.15l.26,2,5.92,10.46s2.65,5.68-.76,9.08,1.9,10.59,1.9,10.59,3,9.46-9.84,11.73l1.14,2.65s4.91,9.83-2.65,12.1a18.93,18.93,0,0,0,1.51,11s-3,2.65-9.08,1.89l-4.16,3.41s-3.4,13.23-5.29,14.37l-1.14,7.19s.76,4.91-10.21.75l-3.41,2.27s-2.64,1.89-9.07-1.89l-12.11,10.21-.12.06c1.76,4.15,6.45,16.47-3,9.06l-.61,6.7s-12.9,7.52-4.26,14.31c4.26,3.35-5.18,12.18-5.18,12.18s-3,3.35-1.83,9.44c0,0-13.7,10.66-2.74,11a112.56,112.56,0,0,0,17.36-.61l12.18,5.48,4.57-2.13,6.09,3.66,3.65-2.44s6.8-1.61,6.8-11.44c0,0,7.94-1.51,9.46-2.27,0,0,19.29,5.67,7.18-7.57,0,0,7.57-1.13,8.7-3.78h7.57s7.94-9.46,18.53-6l2.27.38L269.3,501l23.45,1.14s10.59-5.68,7.19,6.43c0,0-1.14,3,5.67,3l4.16,2.65.45.28a15.79,15.79,0,0,0,1.44-6.62s1.52-6.09,7.61-.3l3.35,3.65s2.44,2.74,3.66-3.35l9.13-.61,5.79,1.52,7-.91.61-3.35,2-2.54Z"/><path class="cls-1" d="M470.22,488.8l1.77,2.27,6.55-.25.25-2.77L490.65,479l1,3,8.83-3.27s.5-4.54,7.06-4c0,0,1.51-2-2.52-7.56s1.76-8.32,7.31-8.83l1.51-3,8.58-2.27.75-2.77,6.31,1.26,1.26-1.51.5-5.3,2-1.51.76,3.28,5,.25v3.53l2.78-2.27.25,5.8s6.3,4.54,7.81-3c0,0,3.28-6.81,7.32-5.05l-1.77-4.79,4.29-.25a45,45,0,0,0,6.3-8.32s3-.76,4,1.76a8.9,8.9,0,0,1,4.28-.25c2,.51.51,3.78.51,3.78s8.57-3,7.06-13.36l1.26-2s5-3-.76-7.82l1.27-1.76s8.82-2.52-1.27-8.83l-.5-5-3.28-.76s2-9.58-5-3.28c0,0-5-3.53-6.31,3,0,0-1.26,3-8.32-1l-4.54,2.52a3.58,3.58,0,0,1-3.27-3c-.76-3-3.79-3.53-6.56,3s-10.84-4.54-10.84-4.54S532,397.26,532,399s-8.57-6.81-8.57-6.81l4.79-.5s-2.27-5.8-4.29-7.06v-2s3.53-3.53-1.51-3-4.54-4-4.54-4-2-3.28-6.56,0c0,0,0,1.26-5.8-2s-10.84,0-9.08,6.56c0,0-3.53,3.28-4.53-2.78,0,0-4,1.6-6.84-2.78-.25-.12-2.46-.95-9.56,3.54-7.56,4.79-9.83,1.51-9.83,1.51.25-7.06-3.78-5-3.78-5-4.29,2.52-7.06.76-7.06.76-7.32-.76-12.36,7.81-12.36,7.81.76,6.56-7.57,9.08-7.57,9.08-12.6,5-4.28,13.37-4.28,13.37,4.79,5.54,2.27,9.58,2.27,9.58l-3.53,6.56c2.52,3.53,1.51,5.79,1.51,5.79l-1.77,4.29c-4.28,9.08,4.29,4,4.29,4,7.06-1,4.29,3.53,4.29,3.53l1,1c4.79.5,2.27,3.53,2.27,3.53l-.25,2.27.5,1.26,1.76,1.26,2,1,2.15,1.76.75,2.65-.38,7.94,1.14,3.79c4.54,3,.38,8.69.38,8.69l-.76,1.9L447.9,481c-5.67,7.18-3.4,10.21-3.4,10.21,7.94,1.13,6.05-.38,9.45-8.7s10.47-.76,10.47-.76S472.74,474.18,470.22,488.8Z"/><path class="cls-1" d="M475.51,378.1c7.1-4.49,9.31-3.66,9.56-3.54-1.24-1.89-2.29-4.87-2.75-9.57,0,0-1-2-4.28-.51,0,0-1-2.26,6-7.81,0,0,1.51-1-1-4.29l3-5,5.54-7.57s.51-7.31-5.8-1.51-8.82-2-1.51-4.29,9.33-4.54,9.33-4.54l1.76-3,3.79,1.51,1-5.8a32.82,32.82,0,0,0-9.84-.76c-3.53.26-2.27-6.81-2.27-6.81l-6.05-2.26-1.26-.76.76-1.51,1-2.78v-2l-1-.26-1.51.26s-7.82,5.29-4.3-2.53c0,0,.26-3.53-5.54-3.28l-.51-8.07s7.57-4.79,7.57-23.7c0,0,9.54-1.25,5-8.32-1.76-2.77,6.06-6.56,6.06-6.56l.25-4.28s3.28.5.25-4-3.53-6.81-3.53-6.81-.51-5-6.31-3l-4.28-5.8A8.31,8.31,0,0,0,470,232.1c-1.52,2.52-7.57,1.51-9.33.75s-4,3.28-5.3,5.3-20.17,3-19.92-10.09c0,0-1.51-5.29-2.52-6.05s2.52-8.32,2.52-8.32,0-10.34-6.3-6.81c0,0-4.29.5-2-2l-.25-.5s-7.57-2.52-9.08,4.28-3.79,6.81-3.79,6.81,3.54,11.85-6.8,7.32c0,0-1.77,2-1.77,6.55,0,0-.76,3.53-5.8.51,0,0-4.79-.76-2.52,8.32l.25,11.34s-.75,4.8,5.3,7.32l4.28,3.78.26,3.53s4.28,1.51.5,6.81c0,0,3,8.07,3,10.09s7.31.75,7.31.75,2.52-3.78,3.53,1.26l1,.26s7.06-4.8-.25,4.79l2,3.27-.25,4.8.25,4-6.05-.25-.5,3.78-3.53,4.54-1.77,3-1.76,3,2,1.77-1.26,1.76-.5,4.29s-.25,2-.5,3.28.5,1.51.5,1.51l4.79-.25s6.81-2.52,3.78,7.31c0,0-3,5.3.51,8.32l4,8.07s.25.51,3-2.77c0,0,3.53-2,3.53,3,0,0,.25,6.06,3.78,6.31l1.26.76,5.05.5,2.77,2.52s9.33-2.77,7.31,5.3c0,0,4.29,4.28,2.78,9.07l1.26.26s2.77,1.76,7.06-.76c0,0,4-2,3.78,5C465.68,379.61,468,382.89,475.51,378.1Z"/><path class="cls-4" d="M345.65,344.81s-5.63-9.43,2.82-7.74c0,0,5.06-.51,4.72-8.78,0,0,9.11-4.22,1.86-7.59,0,0-2.37-5.57,4.89-7.77s-.17-6.41-.17-6.41-9.62-14.35-5.06-30.72c0,0-1.68-9.8-7.76-16.21"/><path class="cls-1" d="M288.14,386.13l1.51,3.4s14,20.43,9.84,25-9.46,12.86,0,9.83c0,0,7.56-5.67,6.43,5.68l5.67-.38s.76,7.56,4.92,10.21l-.38,3.41,5.92,8,.12-.32c1.12-1.89,5.94-1.25,5.94-1.25l9.08,1.76s3-8.82,9.07-7.06,5.3-2.77,5.3-2.77L349,435.55l-1.76-3.78c-.76-4.28-5.81-4.79-5.81-4.79a25.68,25.68,0,0,0,.25-5.29c-.25-1.77-.75-5.55,2-5.81s5.05-2.77,3.54-4.28-1-5.8-1-5.8c3.28-.51,6.56-5.05,6.56-5.05,5.55,0,6.56,2.78,7.57,2.78s6.3,1,9.08,1.26S371,411.6,371,411.6s7.82-7.82,10.08-6.31a14.08,14.08,0,0,0,5.81,1.77c1.51-6.05,8.57-5.8,8.57-5.8,6.05-3.28,3.53-18.91,3.53-18.91-2-1-1.77-5.05-1.77-5.05a13.93,13.93,0,0,0,.76-6.55c-5.3-2.52-4.29-8.83-4.29-8.83,4-4.54-.75-5.8-.75-5.8l-1.77-.5.25-3c2-8.82-5.8-.25-5.8-.25l-.25,2.27-1.26,2.77c-3.53.76-3.78,6.56-3.78,6.56l-.25,2-.76,3c-.5,12.36-9.58,3.53-9.58,3.53-11.6-3-9.08,0-14.63,6.31s-11.35-1.77-7.81-6.31,3.52-14.88,3.52-14.88c3.28-3.27,0-7.31,0-7.31-4.28-.5-5.29-5-5.29-5l-7.06.5-1.51,3.53-5.05-.25v6.05l-3.28,2.27.26,5.05-1,.75c-4-.25-2.78,3-2.78,3a2.64,2.64,0,0,1,2.78,2.27s-4.54,1.76,2.52,9.33-2,12.61-2,12.61l-2.77-.26c-3.78,2-4.29.51-4.29.51s-2-2.52-4.79-5.3-6.31-4.53-9.33,2.52-7.06,1.77-7.06,1.77c3-13.11-5.8-8.32-5.8-8.32C291,386.89,288.14,386.13,288.14,386.13Z"/><path class="cls-5" d="M148,296.31s8.83-5.8,9.08,3.28,3.78,5.8,8.07,3.78,6.05-2.77,11.35,2-4.54,6.31-5.55,4.8.5,4,.5,4,8.07,16.14,14.63,15.89l5.3,2.52s6.3,4,12.61-2.52c0,0,7.56-7.82,8.32.25,0,0,7.69,4.22-.81,7.24l-.2.07,3.28,4.54s-.26,2.27,5-1,6.3,4.28,3.53,9.07-5.41,6.64-4.88,10.66c.37,2.88,3.35,1.46,2.86-1.58,0,0,2.52-5.3,14.88-1.26l.17,0c1.31.05,15.74.45,13.57-5.33,0,0,2.27-3.78,6.06.38l.07-.09c1.86-2.67,1.31-8.61,1.31-8.61l-1.26-3.53c4-2.77,2.52-10.34,2.52-10.34,3.53-1.26,5.05-8.82,5.05-8.82,5.29,2.77,7.06.75,7.06.75s-2-4,1.26-5,6.05-2.77,1-6.81-2-7.31-2-7.31c7.82-4.54-.5-8.83-.5-8.83l1-5.29c-6.8-3-3.53-6.81-3.53-6.81,5.55-5.3,2.78-9.08,2.78-9.08l-2-4.54-.51-7.31-.3-.08c-11.6-3.09-14.57,2.85-14.57,2.85l.5,5.05c-2,8.07-9.83,1.76-9.83,1.76l-1.26-8.32-4-.76,2.27-3.28.25-1.76-1.76-1.51.5-4.79,2.27-4.54.76-7.82-3.79-.25-.5-.76,1-2.52c3-4,.76-6.05.76-6.05l-5.55,1.51-2.52-.5-2.78-2.53-4,3.28-5.55-1.26-2.52,3-1.26,1a16.15,16.15,0,0,0-7.82-3.28,29.91,29.91,0,0,1-13.61-3.53,51.54,51.54,0,0,1-4.8,5c-3.78.5-3.28,4.54-3.28,4.54,2.78,14.12-11.59,14.37-11.59,14.37l-.76,3.53-8.07,4.29.5,4.54-3.78-.25-5.8-.51-1.51,1.26-.25,9.33-2.27,2.78.5,6.55h-2.27l-.5,2,2.27,1c6.05,4.54,0,3.53,0,3.53-9.84-8.32-5.06,7.75-5.06,7.75Z"/><path class="cls-4" d="M234.38,159.28s0,7.57-5.11,12.48c0,0-.38,7,.76,9.65s-1.51,6.24-4.92,8.13-5.67,7.38-6.05,14-.63,9.7-3.78,10.4c-1.71.38-2.09-8.13-2.09-8.13l-4.91-6.24s-.95-5.68-5.3-7.19-7.37-8.89-7.37-13-1.89-13.24-7.57-9.27c0,0-5.48,4.92-4.35,7.76s1.89,7-3,14.75l2.83,3.78s-.19,5.67,1.14,9.08"/><path class="cls-5" d="M303,241.88l-1.09-1v-1.38H301l-1.65.55-1.93.28v-4.69l3-1.65,1.65-2.21v-1.37l-.27-1.11v-.82l.55-1.1,1.1-1.11.83-1.37s-2.76-4.41-3.86.55-6.61-.55-2.76-5.79c0,0,1.66-4.41-6.06-4.41L290,213.85v-5.24s-7.66,2-5.24-6.61c1.93-6.89-6.06-7.72-6.06-7.72s-.27-11-7.16-15.43h-3.31l-.83-1.1,1.11-5.51s-6.06-3-1.66-6.06l-5.23-1.38v-1.65s-.28-5.79-2.48-8.27c0,0-1.93-12.95-8-1.1,0,0-1.11,5-6.61-3l-1.66-.28S237,164,234.53,159.54c-.06,1.32-.53,7.82-5.1,12.22,0,0-.38,7,.75,9.65s-1.51,6.24-4.91,8.13-5.68,7.38-6.06,14-.62,9.7-3.78,10.4c-1.7.38-2.08-8.13-2.08-8.13l-4.92-6.24s-.94-5.68-5.29-7.19-7.38-8.89-7.38-13-1.89-13.24-7.56-9.27c0,0-5.49,4.92-4.35,7.76s1.89,7-3,14.75l2.84,3.78s-.19,5.67,1.13,9.08l.16.15,6.43,6.62s-1.67,10.37,3.79,14.44l.29.53a30,30,0,0,0,12.91,3.16,16.15,16.15,0,0,1,7.82,3.28l1.26-1,2.52-3,5.55,1.27,4-3.28,2.77,2.52,2.53.5,5.55-1.51s2.26,2-.76,6.05l-1,2.52.51.76,3.78.25-.76,7.82L239.89,251l-.5,4.79,1.76,1.51-.25,1.77-2.27,3.28,4,.75,1.27,8.32s7.82,6.31,9.83-1.76l-.5-5.05s3-6,14.81-2.79l.07,0s15.38-14.12,26.72-13.87C304,248.19,303.49,243.67,303,241.88Z"/><path class="cls-1" d="M234.52,159.53c-.57-1.06-.94-3.11-1-6.58,0,0,3.86-2.75-4.13-2.75,0,0-6.61-11-9.37-13.23s-1.65-8.26,6.06-8l.83-1.65V125.4l-.55-1.38-.83-.55.55-1.66,1.11-.82v-1.11l-1.38-1.09-.83-.28-.83-.28-1.37-.27-.83-.55-.83-1.11v-1.92l-.82-2.48-1.11-.83-.82-.28-1.66-1.1v-2.48s-.27-2.48-1.37-3.58-5.51-7.44-5.51-7.44l-4.69-2.48-3.58-2.48,2.2-3.58s1.93-3.31-2.47-2.76l-1.11,1.93-2.2-.27-1.66-1.38s-1.92-.55-1.92.55a45.79,45.79,0,0,0,1.37,5.79S195.22,94,193.85,94s-3.31,2.2-2.21,5.51-8,6.06-8,6.06,4.41,3.86-1.1,6.06c0,0,8,5.24,0,5.79,0,0,3,4.68-2.21,6.61,0,0,1.11,11.3-5.51.55s-5.23-11-5.23-11,2.2-12.12-3-17.08c0,0,.55-29.76,1.38-35s-4.14-1.37-4.14-1.37-5.23-2.48-3.3,2.47,5.5,7.17-.83,10.75-2.76,7.72.55,8.54L160,83.24s-10.19,7.72-9.36-4.68-3.59-5-3.59-5a6.84,6.84,0,0,1-7.16,1.1L139,77.46l1.93,2.2-.82,5.23,2.48,8L138.19,94s1.37,9.09-.28,11.85a7.72,7.72,0,0,0,5.24,3.58s.27,6.88,2.2,7.44l-2.75,1.93a17.53,17.53,0,0,1-.65,6.36l.25,0s6.24,5.49,6.81,19.86l1.32,2.46s3.78,1.13,1.7,8.89l1.89,5.11.19,18s0,2.83,3.6,3.21,1.89,4.73.18,6.81-.75,9.45-.75,9.45l-1.52,2.46.19,5.11,4.73-2.46,1-.38,5.67,1.89s4.73,3.41,8.32-3.78c0,0,4.16,1.32,4,5.67s1.33,4.73,2.65.38l2.84-2.27-.16-.15c-1.32-3.41-1.13-9.08-1.13-9.08l-2.84-3.78a18.93,18.93,0,0,0,2.46-15.13s1.7,3.21.57.38,4.35-7.76,4.35-7.76c5.67-4,7.56,5.11,7.56,9.27s3,11.54,7.38,13,5.3,7.19,5.3,7.19l4.91,6.24s.38,8.51,2.08,8.13c3.16-.7,3.41-3.78,3.79-10.4s2.64-12.11,6-14,6.05-5.48,4.92-8.13-.76-9.65-.76-9.65C234,167.35,234.47,160.82,234.52,159.53Z"/><path class="cls-5" d="M434,356.71l-.87-.22c-2.27-1.44-2.45-5.88-2.45-5.88,0-5-3.53-3-3.53-3-2.78,3.28-3,2.77-3,2.77l-4-8.07c-3.53-3-.51-8.32-.51-8.32,3-9.83-3.78-7.31-3.78-7.31l-4.79.25s-.76-.25-.5-1.51.5-3.28.5-3.28l.5-4.29,1.26-1.76-2-1.77,1.76-3,1.77-3,3.53-4.54.5-3.78,6.05.25-.25-4,.25-4.8-2-3.27c7.31-9.59.25-4.79.25-4.79l-1-.26c-1-5-3.53-1.26-3.53-1.26s-7.31,1.26-7.31-.75-3-10.09-3-10.09c3.78-5.3-.5-6.81-.5-6.81l-.26-3.53-4.28-3.78c-6.05-2.52-5.3-7.32-5.3-7.32l-.25-11.34-2.38-.59h-.25a3.49,3.49,0,0,1-1.66,3.23c-3.65,2.64-2.65,10.21-2.65,10.21s.26,2.52-6.43,1.38c0,0-1.76,3.91-8.07,3.79l-1,.25-1.27,3.28s-5.79,4.54-5.42-3.53-5.8-4-9.07-2.27c0,0-.63,4.54-10.6,4.66,0,0-.53.4-1.31,1.05,6,6.41,7.73,16.18,7.73,16.18-4.56,16.37,5.06,30.72,5.06,30.72s7.43,4.22.17,6.41-4.89,7.77-4.89,7.77c7.25,3.37-1.86,7.59-1.86,7.59.34,8.27-4.72,8.78-4.72,8.78-7.8-1.56-3.61,6.36-2.92,7.59l.1.15s1,4.54,5.29,5.05c0,0,3.28,4,0,7.31,0,0,0,10.34-3.53,14.88s2.27,12.61,7.82,6.3,3-9.33,14.63-6.3c0,0,9.07,8.82,9.58-3.53l.75-3,.26-2s.25-5.8,3.78-6.56l1.26-2.77.25-2.28s7.82-8.57,5.8.26l-.25,3,1.76.51s4.8,1.26.76,5.8c0,0-1,7.12,4.33,9.64,0,0,8.13,3,9.86-5.47,0,0,.78-2,5.47-.63s7.19,1.88,6.41,6.1c0,0,1.72,2,3.13-1.87,0,0-.16-2.82,5.47-1.88,0,0,1.1-1.1.32-3.28S430.83,356.56,434,356.71Z"/><path class="cls-1" d="M455.09,505.37s-3.26-18.07,9.24-22.67l-.05-.49s-7.06-7.57-10.47.75-1.51,9.84-9.45,8.7c0,0-2.27-3,3.4-10.21l.38-4.54.76-1.89s4.16-5.67-.38-8.7l-1.14-3.78.38-8L447,452l-2.15-1.77-2-1-1.76-1.26-.5-1.26.25-2.27s2.52-3-2.27-3.53l-1-1s2.77-4.54-4.29-3.53c0,0-8.57,5.05-4.28-4l1.76-4.29s1-2.27-1.51-5.8l3.53-6.56s2.52-4-2.27-9.58c0,0-8.32-8.32,4.29-13.36,0,0,8.32-2.52,7.56-9.08,0,0,4.4-7.47,10.93-7.85l.17-.22c1.51-4.79-2.78-9.08-2.78-9.08,2-8.07-7.31-5.3-7.31-5.3l-2.77-2.52-5.05-.5-1.26-.76-.45-.2c-3.13-.16-5.95,5.16-5.16,7.35s-.32,3.28-.32,3.28c-5.63-.94-5.47,1.88-5.47,1.88-1.41,3.91-3.13,1.87-3.13,1.87.79-4.22-1.72-4.69-6.41-6.09s-5.47.62-5.47.62c-1.6,7.82-8.68,5.85-9.73,5.52l-.1,0a12.88,12.88,0,0,1-.83,5.65s-.25,4,1.77,5.05c0,0,2.52,15.63-3.53,18.91,0,0-7.06-.25-8.57,5.8a14.08,14.08,0,0,1-5.81-1.77C378.8,403.78,371,411.6,371,411.6s1.26-6.56-1.51-6.81-8.08-1.26-9.08-1.26-2-2.78-7.57-2.78c0,0-3.28,4.54-6.56,5.05,0,0-.5,4.28,1,5.8s-.76,4-3.54,4.28-2.27,4-2,5.81a25.68,25.68,0,0,1-.25,5.29s5,.51,5.81,4.79l1.76,3.78,2.52,6.06s.76,4.53-5.3,2.77-9.07,7.06-9.07,7.06l-9.08-1.76s-5.32-.71-6.08,1.56l.53.71a13.2,13.2,0,0,1-3,7.94s-.38,3,7.18,2.65c0,0,6.81-1.9,6.43,6.43s-8.32,3-8.32,3a9.82,9.82,0,0,0-2.65,3.78,29.19,29.19,0,0,1-4.16,6.06l1.14,3,5.29,1.52h4.16s7.19,1.89,6.06,8.7l4.16,2.65s11.34,1.89,11.34,4.53l.44.62,4-5,.61-4.87,4.57-.3.3-4.88h2.74l2.74,3.05,4.56-.15L385,499.82v4.54l2.27.25,1.76,3.78s8.07,3.78,9.33-3l4.54-1.27s2.27,0,.25-4l8.32-11.35s3.79-6.55,6.56,2.52l4,6.81s2,5,6.3-6.55c0,0,2-9.59,6.81-2.78l9.07,7.06S448.79,503.35,455.09,505.37Z"/><path class="cls-1" d="M91.62,322.68c-.27,5-.27.82-.27.82s-3.59-1.93-5.52-3.3S82,322.67,81.43,326s-6.06,5.24-6.06,5.24a14,14,0,0,1-.28,10.47s8.54,5.23.28,6.06c0,0-11.58-.83-11,25.62,0,0,11-2.48,7.17,9.37,0,0-.83,1.93,2.75,1.93,0,0,3.31,10.2-4.13,13.23l-6.61,8.54s2.45,8.45,14-.83c8.26-6.61,32.79-8.81,32.79-8.81l11.85-.56s6,3.85,9.11,1.37l.23-.6c1.77-3,2-21.68,2-21.68,8.07-7.32-4.79-9.33-4.79-9.33l-6.55.25c-6.31,1.51-4.29-12.61-4.29-12.61l2.77-2.52c10.59-4.79,2-6.05,2-6.05l-8.07-2c-2.27-4.54-7.56-2-7.56-2l.25-5.55c3.27-4-3.78-11.85-3.78-11.85,1.51-8.32-6.16-8.39-6.16-8.39S91.9,317.72,91.62,322.68Z"/></svg>