<?xml version="1.0" encoding="utf-8"?>
<!-- Generator: Adobe Illustrator 24.2.3, SVG Export Plug-In . SVG Version: 6.00 Build 0)  -->
<svg version="1.1" id="_0" xmlns="http://www.w3.org/2000/svg" xmlns:xlink="http://www.w3.org/1999/xlink" x="0px" y="0px"
	 viewBox="0 0 650 650" style="enable-background:new 0 0 650 650;" xml:space="preserve">
<style type="text/css">
	.st0{fill:#7A1C1E;}
	.st1{fill:#191919;}
	.st2{fill:#023652;}
	.st3{fill:none;stroke:#555555;stroke-linecap:round;stroke-linejoin:round;}
	.st4{fill:#191919;stroke:#555555;stroke-linecap:round;stroke-linejoin:round;}
</style>
<g id="LWPOLYLINE">
	<path class="st0" d="M510.2,320.2c-0.4,0.8-0.7,1.7-0.8,2.6l-1,0.1C507.9,322.5,506.1,318,510.2,320.2z"/>
	<path class="st0" d="M509.4,322.8c0.1,0.9,0.8,1.4,3,1c-0.7,1-3,3.8-3.8,1.7c-1.9,4.2-5.7-1.1-0.1-2.6L509.4,322.8z"/>
	<path class="st0" d="M478.6,331.4c1-1.7-0.7-6.1,1.8-2.3c1.9-1.5,4.8,1.3,8.3-0.1c-0.8,1.9-0.1,3.1,1.9,3.6
		c-0.9,0.2-3.6,6.3-5.2,2.4l-0.5,1.1C481.6,329.5,478.6,335.6,478.6,331.4z"/>
	<path class="st1" d="M500.8,329.3c4.8,2.1-3.6,6.8,0.9,7.8c-1.3,0.1-3.6,3.8-1.6,3.8c-5,2.8-2.1-2.8-7.8-2.1c3.5-3,0.7-1.5,1.8-4
		c-0.7-1.9-3,0.1-2.7-3c-4-1.5-0.2-3.5,1.1-5.3C496,322,503.1,324.8,500.8,329.3z"/>
	<path class="st1" d="M500.3,311.7c0,0,3.3,6-0.6,6.9c-0.4-4.1-7,6.8-11.3,6.6c-3.8,2.9-4-4.1-7.5-4c7.4-9.4-1.5-7.4,4.3-14.6
		c-2-2.3-9.2-0.9-6.4,2.8c-1.2,6.1-3.7,15.2-7.4,10.6c0,0-6,5.1-7.2,3.2c-0.6-4,0.1-13.7,0.1-13.7s4.3-10.2-1.6-2.6
		c-3.4-4-2,16.7-2,16.7c-5.4-0.5-13.2-0.4-15.2,3.2c-2.3-9.2,0.8-3.2-3.7,0.7c-0.4-1.2-1.1-0.5-1.5,0.5l0,0
		c-2.6,5-11.3,3.6-12.3-1.8c-2.7,1.4-2.1,7.2-4.7,9.2c-1.7-0.1-5.5,0.2-6.1-1.9c-0.1-20.2-11.1-6-11.5-19l2.9-2.6
		c-1.5-1.5,0.1-6.3,0.4-8c3.6-3.2,5.4-8,4.8-12.8c-6.1-13.4,11.5-15.9-13.5-20.8c-2.6-5.2,1.7-9.7-5-12.2c-1.4-4-3.8-6.2-8.3-6.3
		l2.2-8.2c-0.5-4.6,8.4-8.6,11.5-10.5c-5.3-12.1-16.4-4.4-8.2-22.3c1.5-0.9,5.3-2.8,5-4.9c-1.4-0.1-3.3-0.6-3.5-2.2
		c-2,2.2-5.7-1-7.5-1.9c-0.9-3.8-3.4-10.9-7.1-13c2-1.1-1.1-6.8-1.4-8.3l-0.1-0.2c4.9-2.4,9.9-4.9,13.8-8.8
		c8.1-6.8,18.4-14,29.5-11.9c22.8,3.3,39.9,56.1,50.9,50.6c3.9,0.3,8-2.2,11.5,5c3.5-1.6,33.2,3.1,36,4.5c-1.1,8.6-17,8.3-21.9,16
		c-4,1.8-14,11.8-20.2,22.1c-2.9,1.4-4.7,9.1-8.4,5.7c-0.3,1.6-9.2,7.2-12.1,8.5c-1-0.3-2.7-2.4-3.4-0.9c-2.5,1.3-2.9,5.5-5.7,5.4
		c2.2-10.4-8.1,3.7-10.1,4.7c-0.3,2.8,2.1,5.4,1.5,8.7c4.4-0.2,3.3-13.7,8.1-10c-1.6,2.1,7,11.2,4.3,3.7c1,1.5,1.6-1.5,2.3-1.9
		c6,0.2,19.4-14.5,19.5-7.8c1.8-0.8,2.8-1,3.4-0.8c2.1,0.7-3.5,7.3,2.1,9.2c5.2-3.6,3.4-8.3,9-10.1c-3.5-0.8-7.3-2-11.5-1.2
		c-0.6,0.1-1.3,0.3-1.9,0.5c0.7-4.8,6.2-8.2,9.4-10.3c2.6,3,9.3-3.2,11-4.4c1.2,2.4,2.1,0.7,3.8,1.7c-1.6,1.4-0.1,4.3,1.7,1.9
		c1.5,1.2,0.4,3.8,2.8,2.9c0.6,2.6-6.2,6.4-4,8.9c-2.3-0.2-4.1,5.1-0.7,9.3c1-1.6,3.6,8.5-2.4,6.5c-2.5,3-1.8,13.5,2.4,12.5
		c-1.1,4.1-1.8,6.8-3.4,8.9c5.8,3.7,5.6-2.2,8.5,0C502.3,311.6,504.3,311.6,500.3,311.7z"/>
	<path class="st1" d="M552,221.7c2.5,4.1-0.6-0.1-2.5,2.6h-1.3c0.6-1.1-2-2.8-0.2-3.1c-1.2-4.5-5.9-2.9-6.2-7
		c2.8,0.9,1.9-5.2,3.5-0.9c1-2.8,5.8,2.3,5.8-1c1.7,1.2,0.5,3.4,3,4c-3.7,0-3.9,2.1,0,2.1C551.9,219.8,556.3,221.8,552,221.7z"/>
	<path class="st1" d="M549.5,224.3c0.8,2.4,4.6,6.7-1,4.7c-0.3-1-3.5-5.9-0.7-4.4c0.1-0.1,0.2-0.2,0.3-0.3L549.5,224.3z"/>
	<path class="st1" d="M572.2,109.8c-0.1,0.8-0.8,1.3-1.6,1.2c-0.4,0-0.7-0.2-0.9-0.5c0.3,1.2,1.5,2.4-0.5,1.1
		C565.8,110.2,568.6,105.1,572.2,109.8z"/>
	<path class="st1" d="M566.3,100.5c-2.2,3.2,0.1,1.5-0.3,3.9c-1.9-2.1-3.7,1.9-4-1.4c-1.6,1.4-10.3,4-7.6-0.2c3-3.2-4.3-5.4,1.2-5.1
		C559.3,103.7,561.2,102.7,566.3,100.5z"/>
	<path class="st1" d="M548.7,140.3c2.9-1.6,3.6,2.4,5.9,0.6c-0.8,0.6-1.4,1.5-1.4,2.6c-3.4-0.3,0.7,1,1.5,1.9
		c-1.3,2.2-3.6-0.2-5-0.9l0.5,0.9c-3.7-0.3-6.9-1.4-8.6-1.3c0.1,3.3-3.2,0.8-5.3,0.3c2.4-0.8,0.4-2.4-0.1-3.7
		c1.5-0.4,0.6-2.3-0.5-3.8c1.6-1.1,2.4,1.4,3.7,2c1.3-3.4,7.5-3.6,8.9-1.3C545.4,139.1,548.9,138.9,548.7,140.3z"/>
	<path class="st1" d="M540.7,166.4c4.9-1.3,14.3-0.2,11.3,3.5c-1.7,2.7-0.6,2.7-3.2,1.1c-1.1-1-2.2-2-3.1-3.1c0.6,4.2-3,3.6-5.4,3.7
		c-0.6-1.4-3.2,2.6-4.6-0.2C537.8,170.1,542.5,169.5,540.7,166.4z"/>
	<path class="st1" d="M538.6,166.2c4.4,4.4-2.8,2.3-5.1,4.8C533.2,164.5,534.6,168.1,538.6,166.2z"/>
	<path class="st1" d="M529.9,161.1c5.2-1.5-4.2,7.2,0.4,10.3c-3.5,0.1-7.9-2.3-12.5-4.6c-5.7-4.5-3.6-0.4-3.7-4.8
		c3.5-4.3,5.8-0.6,10.3-3.5c0.2-1.4,1.3-2.8,1.5-0.5C531.4,156.2,528.5,157.5,529.9,161.1z"/>
	<path class="st1" d="M500.8,156.3c2-2.7,0,6.7-2.3,7.1C497.7,160,500,158.1,500.8,156.3z"/>
	<path class="st1" d="M520.7,178c4.3-2.6,4,0.5,8.3-0.2C525.8,182.1,519.3,188.9,520.7,178z"/>
	<path class="st1" d="M506.6,178.2c-0.5-2,3.3-2.5,4.5-0.2c-0.6,1.4-6.2,5.3-3.9,2.4C507.1,178.9,502.7,178.7,506.6,178.2z"/>
	<path class="st1" d="M493.7,192.6c-1.9-2,4-5.6,5.3-2.6c-0.4,2.4-3.8,8-3.3,4.3C496,193.3,494.6,192.4,493.7,192.6z"/>
	<path class="st1" d="M492.2,197.6c8.5-0.2-3.5,20-6,8.3c-3.5,0.6,0.6-2.6,0-4.4c-1.7-1.7-0.5-9.2,1.4-7.8
		C490.3,191.3,491.5,196.3,492.2,197.6z"/>
	<path class="st1" d="M547.3,204.8c-0.3-2.5,4.9-5.6,3.7-2.9c-2.5,1.3,1,1.5,1.7,3c-1.9,0.2-4,0.6-1.8,2.6c-0.3,3.1-2.7,1.6-4.2,0.1
		C548.7,207,549.2,206,547.3,204.8z"/>
	<path class="st1" d="M535.9,196.3c3.9,0.1,4.3,7.5,7.5,5.7c-3.7,13.1-4.7,14.2-17,5.2c-5.6,0.5-11.7-5.8-16.9-1.8
		c-4,1.6-5.1-6.5-8.1-8.7c2.2-3.7,0.3-7.5-1.2-11c-7.1-3.2-0.1-11.1,1.3-2.1c16.2,4.2,8.1-6.4,21,6.1c0.2-2.9,5,0.8,2.4,2.5
		c3.7,3.6,2.8-0.7,6.1-1c-0.9,1.5,1.1,4,2.8,3.1c-0.6,0.6-0.7,2.4,0.5,2C533.5,197.5,536.1,197.6,535.9,196.3z"/>
	<path class="st1" d="M540,222.4c2.4,3.1,2.3-2.1,4.1,0.5C541.7,229.5,531.3,224.8,540,222.4z"/>
	<path class="st1" d="M539.2,234.1c0.9,3.9,2.8,1.4,1.1,4.8c-2.2-2.1-2.8-1.6-4.9-2.4c-11-9.4-2.1-12.3,5.5-5
		C534.1,230.8,542.2,233,539.2,234.1z"/>
	<path class="st1" d="M537.5,242.5c1.7-4.6,2.8,5.6-3.1,0.8c-1.7,1.8-6.1-5.4-5-6.5C536.7,236.2,529.3,241.1,537.5,242.5z"/>
	<path class="st1" d="M535.8,249.8c4.1,2.3-9.3,1.2-8-3.7C530.8,246.3,531.5,250.9,535.8,249.8z"/>
	<path class="st1" d="M523.8,244.4c2.7,2.9,5.6,7,0.8,10.4c0.5-5.5-4.2,2.8-1.8-2.9c-1.9-1.2-1.8,2.2-3.4,1.2c1-1.8-1.7-0.3,0.6-3.4
		c-6.3-1.7-1.6-1.8-2.7-4c-3.5-0.4-3.8-2.9-7.1,0.6c-2.2-0.7,0.7-3.4,1-4.7c1.3-6.9,2.1-3.3,6.7-6.7
		C519.3,237.3,519.1,246.3,523.8,244.4z"/>
	<path class="st1" d="M506.2,240.7c5.1-3.6-0.5,7-1.2,3.5C505,242.9,504.3,241,506.2,240.7z"/>
	<path class="st1" d="M497.7,237.2c2.1-2.9,6-7.1,10-6.1C507.4,236.7,500.4,240.9,497.7,237.2z"/>
	<path class="st1" d="M417.6,476.7c2.6,6.1,4.1-2.2,4.3,4.3c-2.7,0.2-1,1.4-0.3,2.8c-2.4-0.2-2.5-0.5-3.8-2.2l-0.3,1
		c-5.7-1.4,0.6,0.7-1.4,3.5c-1.1-2.1-5.9-2-2-0.6c-3.4,2.7-5.8,1.5-8.3,2.9c-0.7-4.8-1.7-9.5-3-14.2c4.2,0.6,10-5.5,8.7-9.5
		c4-3,6.5-0.3,8.9,3.3C415.9,467.6,418.5,475.4,417.6,476.7z"/>
	<path class="st1" d="M370.2,497.7c2.9-2.8,13.9,0.3,4.8,3.4C373.2,500.7,371.6,498.9,370.2,497.7z"/>
	<path class="st1" d="M407,421.7c1.7,6.7,15.9,15.9,4.7,18.9l-0.6,0.1c-0.1-0.5-0.3-1-0.5-1.5c0.7-3.3-9.4,12.2-9.4,13.7
		c-3.4-0.3,3.3,1.9,0.4,10.7c-1.6,0.1-4.4,3.1-2.1,4.1c-1.8,4.2-1.4,0.6-3.4,2.6c-4,2.2-7.5,4.4-9.4,9c1.1,4.9,0.3,11.8-3.7,15.7
		c3,5.1-6.8-1.2-9-0.6c-9.4,0.7-8.7,2.3-4.5,7.9c9.7,0.7-14.4,32.3-18.9,34.4c-4,4.8-0.1,7.7-2.2,12.3c-1.7,3.7-6.8,2.1-7.8,4.9
		c-1.4,10.2,4.3,12.2,10.6,15.4c-9.5,9.3,0.4,17.7-8.4,16.5c0-8.6-3.3,1.2-4.7-4.3c-1.4-0.7-3.8,8.9-7.8,7.8c0.6,2.8,4.5,0.3,3.9,3
		l1.4-0.2c-0.2,3.4-1.8,1.8,1.4,3.8c-3,2-8.5,5-3.4,7.3c-0.6,4.6-2.5,1.8-3.2,4.4c1.6,2.5,1.2,2.3-1.4,3.6c-5.3,7.9-2-3.6-5-4.7
		c-3.9,2.6-3,2.6-2.1,7.4c-2.8-3.4-5.8-10.3-1.5-13.3c0,0-8.2-12.2-8.2-12.2c-0.6-2,0.7-8.6-3.3-7.4c-0.1-3.4-4.4,0.3-5.8,0.4
		c-1.9-10.6-15.5-3.7-19.8-0.1c-10.2,17.7-14-10.6-19.4,11.5c-5.5-0.8-6.6,3.9-11-0.7c-1.3,0.2-1.3,2-1.4,3
		c-1.9-0.2-11.6-0.5-6.1-3.5c0,0-4.9-5.6-4.9-5.6c1-1.2-0.2-3.3-0.8-4.4c-2.2-0.6-4.6-4-5.6-5.9c3.5-3.3,2.9-10.5,0.8-14.3
		c-4.4,0.3-3.1-2.4-2.9-5.4c-3.2-2-7.4-6.8-2.4-9.4l-1-5.4c1.5-1.9,2-4.4,1.2-6.6c2-1.7,5.7-8.1,8.9-5.1c2.3-2.7,3.8-8.6,7.4-10.5
		c4.4-5.5-0.9-4,1.3-9.4c-3.3-3.8,0-6,4-4.3l5-8.3c0.4,2,2.4,3,4.3,3.2c0.5-2.9,4-3,6.3-3c0.9,1.3-0.3,3.2-1,4.2
		c0.9,1.9,6.2,1.3,7.9,1.3c2-1,6.7-3.7,9-2.5c1-3,3-3.7,6-3c4,2.2,3.4,7.2,9,6.8c2.6-8,4.8-1.7,7.2-7.5c1.2-0.1,6.2,2.2,6.3-0.3
		c-4.1-4.3,0.8-3.1-0.5-9.4c2.3-0.4,3.1-2.8,3.2-4.8c3.6-2,4.5-5.9,2.5-9.5l2.9-0.9c0-2.7,0.2-8.9,2.1-11c-1-5.2-3.5-13.1-10-13.2
		c0.6-3.4-1.3-9.2-3-12.1c1.8-3.4,3.1-2,5.6-0.3c-0.5-3,0.1-6.1,1.8-8.6c7-2.3,1.8-26.6,14-12.2c3.6,0.9,14.3,6.9,13.9-0.8l2.8,0.7
		c-1.5-4.6,1.7-3.8,5-4.4c4.4-4.3,7.2-2.8,11.9-0.3c7.9,5.3,2.3,11.9,12.3,15c3.4-4.1,4.9-2.7,8.6,0
		C405.3,432.1,388.3,409.3,407,421.7z"/>
	<path class="st1" d="M314,373.6c4.6-4.3,3.6,0.5,8.6-0.3c-5.2,1.1-4.2,7.9-8.6,9.7c0.7,3.9-2,9.7-5.7,11.3c-0.2,2.2-0.9,6,1.8,7
		l-0.8,9.3c-1.1,0.5-6.1,1.6-6,3.3c0.7,2.2,1.3,8,4.6,8.2c3.5-0.1,7.1,0.6,8.3,4.3c-1.7,2.5-2.3,5.6-1.8,8.6c-2.5-1.6-3.9-3-5.6,0.3
		c1.7,2.9,3.6,8.7,3,12.1c6.5,0.1,9,8.1,10,13.2c-1.9,2.1-2.1,8.3-2.1,11l-2.9,0.9c2,3.5,1.1,7.4-2.5,9.5c-0.1,2-0.9,4.4-3.2,4.8
		c1.2,6.3-3.6,5.1,0.5,9.4c0,2.5-5.1,0.2-6.3,0.3c-2.4,5.8-4.6-0.4-7.2,7.5c-5.6,0.4-5-4.6-9-6.8c-3-0.6-5,0-6,3
		c-2.3-1.2-7.1,1.5-9,2.5c-1.6-0.1-6.9,0.6-7.9-1.3c0.7-1,1.9-3,1-4.2c-2.3,0-5.8,0.1-6.3,3c-1.9-0.2-3.9-1.2-4.3-3.2l-5,8.3
		c-4-1.6-7.4,0.5-4,4.3c-2.2,5.4,3.1,3.9-1.3,9.4c-3.6,1.9-5.1,7.8-7.4,10.5c-3.3-3-6.9,3.4-8.9,5.1c0.8,2.3,0.3,4.8-1.2,6.6
		c-3.5,0.1-12.8-3.2-11.6,3.8l-5.1-1.8c0.4,5.3-1.1,18.6-6.5,21.4c-2.4-8.6-12.3-2.3-11.4,3.6c-2.8,1.3-8,4.5-8.6,7.8
		c-3.2,2.2-12.2,0-15.7-0.7c-1.6-0.3,0.1-4.7,0-5.6c-1.1-3.5-4.1,1.9-8.6,0.3c-8.4-7.3-4.5,0.3-11.6-1.1l-0.2,2.8
		c-10.1,2-4.8-7.8-11.3-9.1c8-1.7,5.2-12.3,4.9-18c-0.8-2.5-6.4-9-0.6-9.7c-7.1-7.2-5.9-21.6-10.3-29.9c-0.5-1.9-5.4-3.7-6.9-4.4
		c-4.4-3.5-0.6-11.4-3.7-15.5c1.8-2.9,6.2-7.3,9.3-8.7c1.3-3.4,1.1-8.4-3.7-7.9c2-3.4,8.9-9.8,0.8-10.6c-6.8-3.4-3-8.9-8.7-8.5
		c-1-2.4,2-4.5,3.7-5.6c0.4-1.5,3.6-8.6,2.4-10.1c-6,1.2-1.9-9.8-2.4-12.6c3.2-5.8,4.1,0.3,8.1-5.1c3.3-2,7.3,0.5,8.7,3.7
		c8.2-9.9,2.2-8.5,6.8-18.3c4.9,0.3,11.7-10.3,14.3-13.4c0.6-1.5,11.5-1,12.8-1.1c1.6-4.5,6.2-3.8,10-3.3c1.8-5.1,4.1-6.1,9.4-6
		c0.8,1.2,0.6,8.5,3.6,6.5c0.3-1.3,1-3.6,2.6-3.9c5.4,10.7,8.8-1.5,11,6.6c-2.8,0.2-3.1,14.7-1.3,15.7c5.9-0.9,4.3,7,3.4,10.3
		c-0.2,2.9,4.4,2.2,6.2,2.5c1.6,2.6,5.4,2.9,8.1,2.3c7-4.9,4.4,0.8,9.9-0.3c3.4-10.3,10.2-8,5.5-13.5c-0.3-3.2,3.7-1.8,5.6-1.9
		c0.6-4.8,4.5-11.1,8.8-13.4c-0.8-3.3,3.8-3,5.6-10.5c11,2,11.7,11.2,17.9,2.8c2.6,6.9,10.5,1.8,14.5-0.5c0,0-0.3-4.3-0.3-4.3
		c11-9.4,3.9-8.8,8-18.2c0.8,1.2,2,2.6,3.6,1.8C306.3,364.5,309,371.4,314,373.6z"/>
	<path class="st1" d="M470,357.6c6.1-2.8-1,6.4-3.7,4.3c-1.7,3.3-4.7-1.2-6.8-2.4c-5.5,5.5-8.1-9-11.8-1c4,1.1-2,3.1,7.1,5.9
		c0.8,1.4,3.1,0,3.8-0.6c2.4,3.8,4.2,2.1,3.2,6.8c4.2,1.2,6.5-4.5,3.4,2.4c5.9,1.6-2.9,2.6-1.3,5.9c2.5-3.1,4.8,2.1,1.6,1
		c-9.9,12.8-28.8,18.5-11.5,39.6c4,7.5-4.1,7.2,3.1,15.7c1.8,2-1.6,5.6,0.7,6.8c3.7-1.5-0.4,5,6.3,0.6c1.7,2.3-3.1,4.8-1.7,10.4
		c-5-0.7,0.5,5.1-5,4.2c-4.1,4.7,6.1-11.4-14.9-12.1c-5.2,4.2,2,3.3-3.1,6.2c-6.8-5.2-6.1,2.2-0.5,4.3c-3.4,4-10.5,7.3-7.8,12.3
		c7-5.8-5.3,12-2.8,4c-1.2,0.9-5.4-3.7-6.4-5.9c-6.9-3.4-1.2-14.5-6-16.2c-8.8-4.1-3.9-5.4-4.6-9.3l0.6-0.1
		c11.2-2.9-3-12.1-4.7-18.9c-18.7-12.5-1.8,10.4-22.7,2.7c-3.6-2.7-5.2-4.1-8.6,0c-9.9-3.1-4.4-9.6-12.3-15c-4.7-2.5-7.6-4-11.9,0.3
		c-3.3,0.6-6.4-0.2-5,4.4l-2.8-0.7c0.4,7.7-10.3,1.7-13.9,0.8c-12.1-14.4-7,9.9-14,12.2c-1.2-3.7-4.8-4.4-8.3-4.3
		c-3.3-0.2-3.9-6-4.6-8.2c0-1.7,4.9-2.8,6-3.3l0.8-9.3c-2.7-1-2-4.8-1.8-7c3.8-1.7,6.5-7.4,5.7-11.3c4.5-1.9,3.5-8.6,8.6-9.7
		l6.7-1.1c1.2-2.4,4.6-2.5,6.9-2c21.2-8.8,4.4-15.4,19.1-17.4l-0.9-10.4c-3.3-2.9-4.1-5.7,0.9-6.7l0.9-3.8
		c-8.4-2.7,6.1-8.9,5.6-13.9c6.9-0.8,6.2-5.7,12.3-1.8l2.6-8.7c4,1.5,5.5,2.4,7.4-2.1c1.4,0.6,2.5-0.4,3.2-1.6
		c3.9,4.8,8.2-3.6,12.3,2.1c1.7-6.4,4.9-3,9.4-1.8c-0.3,1.7-1.9,6.5-0.4,8l-2.9,2.6c0.4,13,11.4-1.3,11.5,19
		c0.7,2.1,4.5,1.8,6.1,1.9c2.6-2,2-7.8,4.7-9.2c1,5.4,9.7,6.8,12.3,1.8c-0.5,1.2-0.4,2.7,1.4,1.7c-7.2,12.1,15.2-0.4,21.4,5.4
		c-4.8,0.2-1.3,11-0.2,7.6c5.1-3.1-1.6,7.3,3.7,1.7c1,2.2,1.7,1.5,4.2,3.4c-3.1,0.6-4.4-0.3-3.4,3.9
		C464.5,349.6,470.6,355.6,470,357.6z"/>
	<path class="st1" d="M361.8,317.8c0.5,4.9-14,11.2-5.6,13.9l-0.9,3.8c-5,1-4.1,3.8-0.9,6.7l0.9,10.4c-14.7,2,2.1,8.6-19.1,17.4
		c-2.3-0.4-5.7-0.3-6.9,2l-6.7,1.1c-4.9,0.8-3.9-4-8.6,0.3c-5-2.1-7.7-9-8.6-13.9c-1.6,0.8-2.8-0.5-3.6-1.8c-4.1,9.5,3,8.8-8,18.2
		l0.3,4.3c-4,2.4-11.9,7.4-14.5,0.5c-6.2,8.4-6.9-0.9-17.9-2.8c-1.8,7.6-6.4,7.2-5.6,10.5c-4.3,2.4-8.3,8.6-8.8,13.4
		c-1.9,0.1-5.9-1.3-5.6,1.9c4.6,5.4-2.1,3.2-5.5,13.5c-5.5,1.1-2.9-4.6-9.9,0.3c-2.7,0.6-6.5,0.3-8.1-2.3c-1.7-0.3-6.3,0.3-6.2-2.5
		c0.9-3.3,2.5-11.2-3.4-10.3c-1.8-1-1.5-15.5,1.3-15.7c-2.2-8.2-5.6,4.1-11-6.6c-1.6,0.3-2.3,2.6-2.6,3.9c-3,2-2.8-5.4-3.6-6.5
		c1.6-4.5-1.4-10.6,1.1-15.1c-1.4-2-3.4-6.3-3.2-8.9c1.3-1.8,2.8-5.3,1.8-7.5c1.6-3.7,3.3-7.4-1.9-8.9c-6.2-5.5-12.8-16.5-5.4-23.4
		c1.2-1.8,3.9-5.5,6.4-5.5c6-7.2-4.9-17.1,7.4-20c2.1,3.5,2.7,4.3,6.4,1.9c1,6.7,6.1,17.5,10.9,6c9.5,0.3,8.7-9.9,20.2-12.3
		c0.3-3.1,1.4-8.4,4.9-9.5c-7.3-4.5,4.5-3.5,2.3-10.8c1.4-7.5,5.8-15,14.1-9.6c1.2-1.6,8.4-1.3,10.1-1.5c8.5,6-1.5,15.3,13,20.6
		c-1.4,10.1,3,1.1,7.3,2.6c4-0.9,5.9-10,7.2,0.5c4,0.2,7.2,2.8,5.4,6.8c1.8,2.1,2.3,6.2,1.6,8.7c-0.3,8.9,11.7-1,14.8-2.4
		c1-3.5,2-9.1,6.8-9c4.6-2.2,5.5,8.5,6.9,10.6c3,1.8,5,4.8,5.7,8.3c3.7,1.1,12.6,4.8,16,1.3l-0.5,4.4l4.3,0.3
		c4.8-1.5,4.6,1.1,2.3,4.2C365.4,309.5,358.4,315.5,361.8,317.8z"/>
	<path class="st1" d="M193.7,362.4c-2.6,4.4,0.5,10.5-1.1,15.1c-5.3-0.1-7.6,0.9-9.4,6c-3.8-0.4-8.4-1.2-10,3.3
		c-1.3,0.1-12.2-0.4-12.8,1.1c-2.6,3.2-9.4,13.7-14.3,13.4c-4.6,9.8,1.4,8.4-6.8,18.3c-1.4-3.2-5.4-5.7-8.7-3.7
		c-4,5.4-4.9-0.7-8.1,5.1c0.6,2.8-3.6,13.7,2.4,12.6c1.2,1.5-2,8.6-2.4,10.1c-1.7,1.1-4.6,3.3-3.7,5.6c-1.1,3.8-7.2,6.5-10.5,7.6
		l-3.5-5c-2.2,0.9-7,3.9-9.1,1.5l-1.1,5.9c-2.2-1.4-7-4.4-7.1-7.4c15.2-7.4-4.1-11.2,5-26.1c-2.8-2-7.8-2.6-4.2-6.8
		c-1-1-2.3-8.7-2.6-10.1c2.5-2.9,2.7-5,0.4-8.2c3.4-3.7,1.2-5.7-1.3-8.9c-1.3-8.1-2.8-16.2-12.1-18.4c-1.9-7.2-1.6-16.5-11.8-10.7
		c3.8-4.1,1.2-6.9-1.6-10.5l-9.9-1.6l-3.7-8.7c1.1-2.9-0.4-4.9-2.8-6.4c2.2-6.4-6.1-15.7,4-18.8c0-0.7-0.7-9.1-0.1-9.4
		c1.4,0.6,3.4,1.2,4.4-0.3c2,0.9,4.8,1.5,6.3-0.5c-0.9-6.8,7.9-4.9,2.8-13.9c8.2-11.2,12.3,0,14.2-7c-0.4-2.8-2.3-11.6,3-5.6
		c-0.8,2.5,3.3,6.2,4.7,7.8c6.5,1.4,1.2,9.8,16.9,9.7c1,2.1,6.4,3.9,8.4,4.6c5.6,9.6-2.9,5.4,3.4,19.1c6.8-1.8,9.1,1.5,15.1-3.7
		c-0.4-4.2,7.2-8.8,10-10.8c1.3-2.4,4.2-4.8,7.1-4.6c10.3,5.9,2.6,5.8,9.7,10.3c0,6.8,1.7,7.2,7.9,4.9c4.3-1.6,11.9-0.7,15.9,1.3
		c5.7-3.5-1.9-5.6,2.7-9.6c3-0.5,3.2,4.5,6,4.5c-7.4,6.9-0.8,18,5.4,23.4c5.2,1.5,3.5,5.2,1.9,8.9c1,2.3-0.5,5.7-1.8,7.5
		C190.3,356.1,192.3,360.4,193.7,362.4z"/>
	<path class="st1" d="M413.7,291.1c0.7,4.8-1.1,9.6-4.8,12.8c-4.4-1.2-7.7-4.6-9.4,1.8c-4.1-5.7-8.4,2.7-12.3-2.1
		c-0.7,1.2-1.7,2.2-3.2,1.6c-1.9,4.5-3.4,3.7-7.4,2.1l-2.6,8.7c-6.1-3.9-5.4,1-12.3,1.8c-3.4-2.3,3.6-8.3-3-8.4
		c2.3-3.1,2.5-5.6-2.3-4.2l-4.3-0.3l0.5-4.4c-3.4,3.5-12.3-0.2-16-1.3c-0.7-3.4-2.8-6.4-5.7-8.3c-1.3-2.1-2.3-12.9-6.9-10.6
		c-4.8-0.1-5.8,5.5-6.8,9c-3.1,1.4-15.1,11.3-14.8,2.4c0.8-2.6,0.2-6.7-1.6-8.7c1.8-4-1.4-6.7-5.4-6.8c-1.3-10.6-3.2-1.5-7.2-0.5
		c-4.4-1.5-8.7,7.5-7.3-2.6c-14.5-5.3-4.5-14.6-13-20.6c-1.6-9.5-7.1,3.5-9.4-13c5.3,4.7,3.7,0.4,9.3,0c7.2,4.7,6.3-5.7,6.7-9.8
		l7.4,2.1l1-3.7c5-2.6,3.5-8.7,9.3-9.4c8.1-11.1,9.8,4.9,20.5-10.5c0.4-2.9-2.7-7.4-4.4-9.5c3-1.8,0.5-11.5-3-6.9
		c-2.2-0.3,0.3-4.6,0.3-5.7c3.2-0.7,10.2-2.5,12.6,0.9c0.7-1,1.4-3,2.9-1.7l4.8-3.7l14.8,3.1c1.2,1,3.8,3.5,5.6,2.6l1.1-1.3
		l-0.1-0.4c6.2-1.9,12.1,2.6,18.6,2.3c3.5-3,7.8-5.1,12.1-7.2l0.1,0.2c0.3,1.4,3.3,7.2,1.4,8.3c3.7,2,6.2,9.2,7.1,13
		c1.8,0.9,5.5,4.1,7.5,1.9c0.3,1.6,2.2,2.1,3.5,2.2c0.2,2.2-3.6,4-5,4.9c-8.2,17.9,2.9,10.2,8.2,22.3c-3.1,1.9-12.1,5.9-11.5,10.5
		l-2.2,8.2c4.4,0.1,6.9,2.3,8.3,6.3c6.7,2.5,2.4,7,5,12.2C425.2,275.2,407.6,277.7,413.7,291.1z"/>
	<path class="st2" d="M324.4,99.8l3.8,1.1c-4.3,8.8-10.6,5-13.8,10.1c-2.7-1.6-3-0.3-4,2.1c-3.6,3.5-4.2,13.5-4.2,18.1
		c-2.7-0.2-12.1,3-12.6-1.8c-3.2,16.2-15.8-2.4-16.9,9.6c1,0.9,2.6,2.5,2,3.9c-2.1-0.1-10.6-2.9-12-0.1c-2.5-2.7-6.1-4-9.7-3.6
		c-2.8-8.6-9.3-3.7-10.9-11.6l-9.1-1.9c-0.3,3.8-0.2,17.7-3.1,20.6c-6.3,3.4-7.3-0.9-4.1-5.8c-9.3,8.4-8.1-5.7-14.2,6
		c-12-2.3-5.4-1-13.2,4.1c-9.1-0.6-8.9-15.9-10.2-22l-6.2,2.7c-9.3-7.4,3.4-6.2-3.7-14.8c13.4,0.5,7.3-6.3,16.6-10.2
		c2.2,0.1,2.9,4.1,3.4,5.7c7.3-0.3,9.8-13.5,8.8-19.4l1.3-1.2c3.4,5.9,7-5,8.6-6.9c0.7-3.9-2.8-6.8-1.3-11.2
		c0.9-4.5,5.1-11.8,8.2-15.2l-0.5-9.5c1.7-2.1,2.7-5,0.9-7.4c0.5-3,4.6-4.8,7.1-2.8c1.8-2,7.6-3.1,10.1-3.5c1.4,3.5,2.8,2.2,5.3,0.6
		c2.7,0.9,8.2,1.8,10.9,0.5l9.3,21c4.2,0.7,10.5,6.8,13.2,9.9c7.8,5.9,20.4,4.3,29.1,1.3l-1.3,9.3c11.2-0.6,3.7-1.2,8-5.8l2.9,7.8
		c-1.3,1.8-0.4,3.5,1.1,4.7c-1.4,2.8,1.4,8,4.1,10.3l-0.2,0.2C325.4,95.1,324.3,97.4,324.4,99.8z"/>
	<path class="st1" d="M413.6,92.8c1,4.6,6.1,6.2,5.3,11.5c-5,2.2-10.2,6.4-14,10.4c0.2,1.3-1.1,2.6-0.9,3.9
		c-2.2,0.1-4.8,2.4-6.8,0.3c-7.5,1.1-18.4,11.7-16.5,19.5c-0.7,2.8,0.1,2.8,2.3,3.6c-0.8,0.7-0.8,1.9-2.2,1.6
		c0.6,0.8,0.2,1.4-0.5,1.8c-2.5-3.3-6.6,3.5-2.1,3.6c-0.7,3.5-2,1.1-3.9,2.2c-0.9,1-2.3,1.4-3.5,1c-0.6,1-2.1,1.5-2.2,2.8
		c-0.6-0.2-1.2-0.5-1.6-1c-1.4,0.8-3.6,1.7-4,3.4c0.5-3.5-3.3-1.1-4.5-3.2c-0.7-0.3-1.5-0.9-1.4-1.8c-0.8-3.4-5.6-4-8.5-4.8
		c-0.4,0.7-0.9,1.4-1.4,2c-9.6-1.7-19.8-0.3-29.1,2c-3.4,0.4-11,1.1-11.5-3.8c3.5-2.8,4.2-7.8,1.8-11.6c0-1.8,0.2-4.7-2.1-5.1
		c0-4.6,0.6-14.6,4.2-18.1c0.9-2.4,1.2-3.7,4-2.1c3.1-5.1,9.5-1.3,13.8-10.1l-3.8-1.1c-0.1-2.4,1-4.7,3.6-5.2l0.2-0.2
		c0.4,0.4,1,0.7,1.5,1c1.8-3.4,7.4-10.8,9.8-13.9c6.9,2.2,9.7-1.4,13.9-6c0.6-3-0.6-6.2-3.1-8l2.8-2.1l4.5,0.6
		c2.4-4.3,8.8-9.5,11.4-2.5l6.5-4c15.1-6.6,11.1,7.5,10.1,16.8c6.2,1.6,1.6,6.2,0.2,9.6c1.9-1.5,4.4-1,6.2,0.4c1.4-3.2,6-4,9.1-3.8
		l2,3.4c-1,1.6-2.1,4.7-1.6,6.5C404.6,93.5,410.5,93.9,413.6,92.8z"/>
	<path class="st0" d="M348.7,176.4c0.1,3.1-0.3,6.9-2.6,9.3c0.4-0.2,0.8-0.3,1.1-0.4l0.1,0.4l-1.1,1.3c-1.9,0.9-4.4-1.5-5.6-2.6
		l-14.8-3.1L321,185c-1.5-1.3-2.2,0.7-2.9,1.7c-2.4-3.4-9.3-1.6-12.6-0.9c0,1.1-2.6,5.4-0.3,5.7c3.5-4.6,5.9,5.1,3,6.9
		c1.7,2.1,4.8,6.6,4.4,9.5c-10.7,15.5-12.4-0.6-20.5,10.5c-5.8,0.7-4.3,6.8-9.3,9.4l-1,3.7l-7.4-2.1c-0.4,4.1,0.5,14.5-6.7,9.8
		c-5.5,0.4-4,4.7-9.3,0c2.3,16.5,7.9,3.5,9.4,13c-1.8,0.2-8.9-0.1-10.1,1.5c-8.3-5.4-12.7,2.2-14.1,9.6c2.3,7.3-9.6,6.3-2.3,10.8
		c-3.6,1.2-4.6,6.4-4.9,9.5c-11.4,2.4-10.6,12.6-20.2,12.3c-4.8,11.4-9.9,0.7-10.9-6c-3.7,2.4-4.3,1.7-6.4-1.9
		c-12.3,2.9-1.4,12.9-7.4,20c-2.5,0-5.2,3.7-6.4,5.5c-2.8-0.1-3.1-5-6-4.5c-4.6,4,3,6.2-2.7,9.6c-4-2-11.6-2.9-15.9-1.3
		c-6.1,2.4-7.9,1.9-7.9-4.9c-7.1-4.5,0.6-4.3-9.7-10.3c-2.9-0.2-5.9,2.1-7.1,4.6c-2.8,2-10.4,6.6-10,10.8c-5.9,5.3-8.3,1.9-15.1,3.7
		c-6.3-13.7,2.2-9.5-3.4-19.1c-2-0.7-7.4-2.5-8.4-4.6c-15.8,0-10.4-8.3-16.9-9.7c-1.4-1.5-5.5-5.3-4.7-7.8c1.8-0.3,5.8-1.9,7,0.3
		c-0.8-5.5,6.4-4.4,10-5.9c0.3-7.1,10.4-21.1,18.6-18.5c1.7-2.4,6.3-8.7,9.2-9.8c5-6.6-1.6-14.3,3.6-15.1c-1.1-2.9-0.3-4.6,3-3.9
		l6.4-6.9c2.1-6.8-3.1-6.5,6.7-8c2.8-12.4-6.7-20.9,0.3-27.2c-0.3-6.9-3.9,0.5-5.4-3.8c3.8-2.3,12.5-6.3,4.9-9.8
		c-3.7-10-0.9-13.2,7.3-18.7c0.6,0.4,11,8.6,11.7,8c3-3.2,4.4-3.3,7.8-0.5l12.2,2.4c3.1-11.7,4.5-4.2,11.4-11.6
		c3.3,4.9,6.6,1.9,10.2-0.8c7.8-5.1,1.2-6.4,13.2-4.1c6.1-11.7,4.9,2.4,14.2-6c-3.2,4.9-2.2,9.2,4.1,5.8c2.9-3,2.8-16.8,3.1-20.6
		l9.1,1.9c1.6,7.9,8.1,3,10.9,11.6c3.6-0.4,7.2,1,9.7,3.6c1.4-2.8,9.9,0,12,0.1c0.6-1.5-1-3.1-2-3.9c1.2-12,13.7,6.6,16.9-9.6
		c0.4,4.8,9.9,1.6,12.6,1.8c2.3,0.5,2.1,3.4,2.1,5.1c2.4,3.8,1.7,8.7-1.8,11.6c0.5,4.9,8.1,4.1,11.5,3.8c9.3-2.3,19.5-3.7,29.1-2
		c-1.6,2.1-3.9,4.9-4.7,5.8C344.5,162.3,342.4,171.4,348.7,176.4z"/>
	<path class="st3" d="M346.3,186.9c-1.9,0.9-4.4-1.5-5.6-2.6l-14.8-3.1L321,185c-1.5-1.3-2.2,0.7-2.9,1.7c-2.4-3.4-9.3-1.6-12.6-0.9
		c0,1.1-2.6,5.4-0.3,5.7c3.5-4.6,5.9,5.1,3,6.9c1.7,2.1,4.8,6.6,4.4,9.5"/>
	<path class="st3" d="M312.6,208c-10.7,15.5-12.4-0.6-20.5,10.5c-5.8,0.7-4.3,6.8-9.3,9.4"/>
	<path class="st3" d="M328,94.7c-2.6,0.5-3.6,2.8-3.6,5.2l3.8,1.1c-4.3,8.8-10.6,5-13.8,10.1c-2.7-1.6-3-0.3-4,2.1"/>
	<path class="st3" d="M310.5,113.1c-3.6,3.5-4.2,13.5-4.2,18.1"/>
	<path class="st3" d="M306.3,131.2c2.3,0.5,2.1,3.4,2.1,5.1"/>
	<path class="st3" d="M246.2,127.6c1.6,7.9,8.1,3,10.9,11.6c3.6-0.4,7.2,1,9.7,3.6c1.4-2.8,9.9,0,12,0.1c0.6-1.5-1-3.1-2-3.9
		c1.2-12,13.7,6.6,16.9-9.6c0.4,4.8,9.9,1.6,12.6,1.8"/>
	<path class="st3" d="M234,146.3c2.9-3,2.8-16.8,3.1-20.6l9.1,1.9"/>
	<path class="st3" d="M202.5,150.5c7.8-5.1,1.2-6.4,13.2-4.1c6.1-11.7,4.9,2.4,14.2-6c-3.2,4.9-2.2,9.2,4.1,5.8"/>
	<path class="st3" d="M318.1,151.7c9.3-2.3,19.5-3.7,29.1-2l0,0"/>
	<path class="st3" d="M308.4,136.4c2.4,3.8,1.7,8.7-1.8,11.6c0.5,4.9,8.1,4.1,11.5,3.8"/>
	<line class="st3" x1="347.4" y1="185.6" x2="346.3" y2="186.9"/>
	<path class="st3" d="M282.8,228l-1,3.7l-7.4-2.1c-0.4,4.1,0.5,14.5-6.7,9.8c-5.5,0.4-4,4.7-9.3,0"/>
	<path class="st3" d="M378.1,180.5c0.3,1.4,3.3,7.2,1.4,8.3c3.7,2,6.2,9.2,7.1,13c1.8,0.9,5.5,4.1,7.5,1.9c0.3,1.6,2.2,2.1,3.5,2.2
		c0.2,2.2-3.6,4-5,4.9c-8.2,17.9,2.9,10.2,8.2,22.3c-3.1,1.9-12.1,5.9-11.5,10.5"/>
	<path class="st3" d="M258.5,239.3c2.3,16.5,7.9,3.5,9.4,13"/>
	<path class="st3" d="M389.2,243.6l-2.2,8.2c4.4,0.1,6.9,2.3,8.3,6.3"/>
	<path class="st3" d="M267.9,252.3c-1.8,0.2-8.9-0.1-10.1,1.5c-8.3-5.4-12.7,2.2-14.1,9.6"/>
	<path class="st3" d="M395.2,258.1c6.7,2.5,2.4,7,5,12.2"/>
	<path class="st3" d="M288.2,275.6c-4.4-1.5-8.7,7.5-7.3-2.6c-14.5-5.3-4.5-14.6-13-20.6"/>
	<path class="st3" d="M243.6,263.5c2.3,7.3-9.6,6.3-2.3,10.8c-3.6,1.2-4.6,6.4-4.9,9.5"/>
	<path class="st3" d="M400.2,270.3c24.9,4.9,7.4,7.4,13.5,20.8"/>
	<path class="st3" d="M288.2,275.6c4-0.9,5.9-10,7.2,0.5c4,0.2,7.2,2.8,5.4,6.8c1.8,2.1,2.3,6.2,1.6,8.7"/>
	<path class="st3" d="M302.4,291.7c-0.3,8.9,11.7-1,14.8-2.4c1-3.5,2-9.1,6.8-9"/>
	<path class="st3" d="M324,280.2c4.6-2.2,5.5,8.5,6.9,10.6c3,1.8,5,4.8,5.7,8.3c3.7,1.1,12.6,4.8,16,1.3"/>
	<path class="st3" d="M413.7,291.1c0.7,4.8-1.1,9.6-4.8,12.8"/>
	<polyline class="st3" points="352.6,300.5 352.1,304.9 356.5,305.2 	"/>
	<path class="st3" d="M236.4,283.8c-11.4,2.4-10.6,12.6-20.2,12.3c-4.8,11.4-9.9,0.7-10.9-6c-3.7,2.4-4.3,1.7-6.4-1.9
		c-12.3,2.9-1.4,12.9-7.4,20c-2.5,0-5.2,3.7-6.4,5.5"/>
	<path class="st3" d="M142.9,302.4c-2.9-0.2-5.9,2.1-7.1,4.6c-2.8,2-10.4,6.6-10,10.8"/>
	<path class="st3" d="M361.8,317.8c6.9-0.8,6.2-5.7,12.3-1.8l2.6-8.7c4,1.5,5.5,2.4,7.4-2.1c1.4,0.6,2.5-0.4,3.2-1.6
		c3.9,4.8,8.2-3.6,12.3,2.1c1.7-6.4,4.9-3,9.4-1.8"/>
	<path class="st3" d="M356.5,305.2c4.8-1.5,4.6,1.1,2.3,4.2c6.6,0.1-0.4,6.1,3,8.4"/>
	<path class="st3" d="M185.1,313.7c-2.8-0.1-3.1-5-6-4.5c-4.6,4,3,6.2-2.7,9.6c-4-2-11.6-2.9-15.9-1.3"/>
	<path class="st3" d="M160.5,317.5c-6.1,2.4-7.9,1.9-7.9-4.9c-7.1-4.5,0.6-4.3-9.7-10.3"/>
	<path class="st3" d="M125.8,317.8c-5.9,5.3-8.3,1.9-15.1,3.7"/>
	<path class="st3" d="M110.7,321.5c-6.3-13.7,2.2-9.5-3.4-19.1c-2-0.7-7.4-2.5-8.4-4.6c-15.8,0-10.4-8.3-16.9-9.7
		c-1.4-1.5-5.5-5.3-4.7-7.8"/>
	<path class="st3" d="M408.9,303.8c-0.3,1.7-1.9,6.5-0.4,8l-2.9,2.6c0.4,13,11.4-1.3,11.5,19"/>
	<path class="st3" d="M417.1,333.4c0.7,2.1,4.5,1.8,6.1,1.9c2.6-2,2-7.8,4.7-9.2c1,5.4,9.7,6.8,12.3,1.8"/>
	<path class="st3" d="M185.1,313.7c-7.4,6.9-0.8,18,5.4,23.4"/>
	<path class="st3" d="M361.8,317.8c0.5,4.9-14,11.2-5.6,13.9l-0.9,3.8c-5,1-4.1,3.8-0.9,6.7l0.9,10.4"/>
	<path class="st3" d="M355.3,352.6c-14.7,2,2.1,8.6-19.1,17.4c-2.3-0.4-5.7-0.3-6.9,2l-6.7,1.1"/>
	<path class="st3" d="M305.4,359.6c0.9,4.9,3.6,11.8,8.6,13.9c4.6-4.3,3.6,0.5,8.6-0.3"/>
	<path class="st3" d="M190.5,337.1c5.2,1.5,3.5,5.2,1.9,8.9c1,2.3-0.5,5.7-1.8,7.5c-0.2,2.5,1.8,6.8,3.2,8.9
		c-2.6,4.4,0.5,10.5-1.1,15.1"/>
	<path class="st3" d="M305.4,359.6c-1.6,0.8-2.8-0.5-3.6-1.8c-4.1,9.5,3,8.8-8,18.2l0.3,4.3c-4,2.4-11.9,7.4-14.5,0.5
		c-6.2,8.4-6.9-0.9-17.9-2.8"/>
	<path class="st3" d="M209.8,386.8c-2.2-8.2-5.6,4.1-11-6.6c-1.6,0.3-2.3,2.6-2.6,3.9c-3,2-2.8-5.4-3.6-6.5"/>
	<path class="st3" d="M192.6,377.5c-5.3-0.1-7.6,0.9-9.4,6c-3.8-0.4-8.4-1.2-10,3.3c-1.3,0.1-12.2-0.4-12.8,1.1"/>
	<path class="st3" d="M261.6,378c-1.8,7.6-6.4,7.2-5.6,10.5"/>
	<path class="st3" d="M211.9,412.8c0.9-3.3,2.5-11.2-3.4-10.3c-1.8-1-1.5-15.5,1.3-15.7"/>
	<path class="st3" d="M256,388.6c-4.3,2.4-8.3,8.6-8.8,13.4c-1.9,0.1-5.9-1.3-5.6,1.9c4.6,5.4-2.1,3.2-5.5,13.5
		c-5.5,1.1-2.9-4.6-9.9,0.3"/>
	<path class="st3" d="M226.2,417.7c-2.7,0.6-6.5,0.3-8.1-2.3c-1.7-0.3-6.3,0.3-6.2-2.5"/>
	<path class="st3" d="M160.4,388c-2.6,3.2-9.4,13.7-14.3,13.4c-4.6,9.8,1.4,8.4-6.8,18.3c-1.4-3.2-5.4-5.7-8.7-3.7"/>
	<path class="st3" d="M363.5,409.4c7.9,5.3,2.3,11.9,12.3,15c3.4-4.1,4.9-2.7,8.6,0"/>
	<path class="st3" d="M384.3,424.4c20.9,7.7,4-15.2,22.7-2.7"/>
	<path class="st3" d="M316,426.4c7-2.3,1.8-26.6,14-12.2c3.6,0.9,14.3,6.9,13.9-0.8l2.8,0.7c-1.5-4.6,1.7-3.8,5-4.4
		c4.4-4.3,7.2-2.8,11.9-0.3"/>
	<path class="st3" d="M322.5,373.2c-5.2,1.1-4.2,7.9-8.6,9.7c0.7,3.9-2,9.7-5.7,11.3c-0.2,2.2-0.9,6,1.8,7l-0.8,9.3
		c-1.1,0.5-6.1,1.6-6,3.3c0.7,2.2,1.3,8,4.6,8.2c3.5-0.1,7.1,0.6,8.3,4.3"/>
	<path class="st3" d="M316,426.4c-1.7,2.5-2.3,5.6-1.8,8.6c-2.5-1.6-3.9-3-5.6,0.3"/>
	<path class="st3" d="M407,421.7c1.7,6.7,15.9,15.9,4.7,18.9"/>
	<path class="st3" d="M130.6,416c-4,5.4-4.9-0.7-8.1,5.1c0.6,2.8-3.6,13.7,2.4,12.6c1.2,1.5-2,8.6-2.4,10.1
		c-1.7,1.1-4.6,3.3-3.7,5.6"/>
	<path class="st3" d="M308.5,435.3c1.7,2.9,3.6,8.7,3,12.1c6.5,0.1,9,8.1,10,13.2c-1.9,2.1-2.1,8.3-2.1,11"/>
	<path class="st3" d="M319.4,471.7l-2.9,0.9c2,3.5,1.1,7.4-2.5,9.5c-0.1,2-0.9,4.4-3.2,4.8c1.2,6.3-3.6,5.1,0.5,9.4"/>
	<path class="st3" d="M297.8,504.1c2.6-8,4.8-1.7,7.2-7.5c1.2-0.1,6.2,2.2,6.3-0.3"/>
	<path class="st3" d="M256.3,497c0.4,2,2.4,3,4.3,3.2c0.5-2.9,4-3,6.3-3c0.9,1.3-0.3,3.2-1,4.2c0.9,1.9,6.2,1.3,7.9,1.3
		c2-1,6.7-3.7,9-2.5c1-3,3-3.7,6-3c4,2.2,3.4,7.2,9,6.8"/>
	<path class="st3" d="M256.3,497l-5,8.3c-4-1.6-7.4,0.5-4,4.3c-2.2,5.4,3.1,3.9-1.3,9.4"/>
	<path class="st3" d="M246,519c-3.6,1.9-5.1,7.8-7.4,10.5c-3.3-3-6.9,3.4-8.9,5.1c0.8,2.3,0.3,4.8-1.2,6.6"/>
	<path class="st3" d="M228.3,41.1c0.5-3,4.6-4.8,7.1-2.8c1.8-2,7.6-3.1,10.1-3.5c1.4,3.5,2.8,2.2,5.3,0.6c2.7,0.9,8.2,1.8,10.9,0.5"
		/>
	<line class="st3" x1="261.7" y1="36" x2="271" y2="57"/>
	<path class="st3" d="M357.6,66.1c2.4-4.3,8.8-9.5,11.4-2.5l6.5-4"/>
	<line class="st3" x1="353.1" y1="65.5" x2="357.6" y2="66.1"/>
	<line class="st3" x1="350.3" y1="67.6" x2="353.1" y2="65.5"/>
	<path class="st3" d="M350.3,67.6c2.5,1.8,3.7,5,3.1,8"/>
	<path class="st3" d="M339.5,81.5c6.9,2.2,9.7-1.4,13.9-6"/>
	<path class="st3" d="M329.7,95.5c1.8-3.4,7.4-10.8,9.8-13.9"/>
	<path class="st3" d="M271,57c4.2,0.7,10.5,6.8,13.2,9.9c7.8,5.9,20.4,4.3,29.1,1.3l-1.3,9.3c11.2-0.6,3.7-1.2,8-5.8l2.9,7.8
		c-1.3,1.8-0.4,3.5,1.1,4.7c-1.4,2.8,1.4,8,4.1,10.3c0.4,0.4,1,0.7,1.5,1"/>
	<path class="st3" d="M375.5,59.5c15.1-6.6,11.1,7.5,10.1,16.8c6.2,1.6,1.6,6.2,0.2,9.6c1.9-1.5,4.4-1,6.2,0.4c1.4-3.2,6-4,9.1-3.8
		l2,3.4c-1,1.6-2.1,4.7-1.6,6.5c3.1,1.1,8.9,1.4,12,0.4c1,4.6,6.1,6.2,5.3,11.5"/>
	<path class="st3" d="M228.3,41.1c1.9,2.4,0.8,5.3-0.9,7.4l0.6,9.5c-3.1,3.4-7.3,10.7-8.2,15.2c-1.5,4.5,2,7.4,1.3,11.2
		c-1.7,1.9-5.2,12.8-8.6,6.9l-1.3,1.2c1.1,5.8-1.5,19.1-8.8,19.4c-0.5-1.6-1.2-5.7-3.4-5.7c-9.3,3.8-3.2,10.7-16.6,10.2
		c7.1,8.5-5.6,7.4,3.7,14.8l6.2-2.7c1.4,6.1,1.1,21.4,10.2,22c-3.6,2.6-6.9,5.7-10.2,0.8c-6.9,7.4-8.3,0-11.4,11.6l-12.2-2.4
		c-3.4-2.8-4.8-2.7-7.8,0.5c-0.7,0.6-11.1-7.7-11.7-8c-8.3,5.5-11,8.7-7.3,18.7c7.6,3.5-1.2,7.5-4.9,9.8c1.6,4.3,5.2-3.1,5.4,3.8
		c-7,6.4,2.5,14.8-0.3,27.2c-9.8,1.6-4.6,1.2-6.7,8l-6.4,6.9c-3.3-0.7-4.1,1-3,3.9c-5.2,0.8,1.4,8.5-3.6,15.1
		c-3,1.1-7.5,7.3-9.2,9.8c-8.2-2.7-18.3,11.4-18.6,18.5c-3.6,1.4-10.8,0.4-10,5.9c-1.2-2.2-5.2-0.7-7-0.3c-5.3-6-3.4,2.9-3,5.6
		c-1.9,7-6-4.2-14.2,7"/>
	<path class="st3" d="M60.2,292.8c5.2,9-3.7,7-2.8,13.9c-1.6,2-4.3,1.4-6.3,0.5c-1.1,1.4-3.1,0.9-4.4,0.3c-0.6,0.3,0.1,8.7,0.1,9.4
		c-10,3.1-1.8,12.5-4,18.8c2.5,1.5,3.9,3.5,2.8,6.4l3.7,8.7l9.9,1.6c2.7,3.5,5.3,6.4,1.6,10.5c10.3-5.9,10,3.4,11.9,10.7
		c9.3,2.1,10.8,10.3,12.1,18.4c2.5,3.2,4.7,5.2,1.3,8.9c2.4,3.1,2.2,5.2-0.4,8.2c0.3,1.4,1.6,9.1,2.6,10.1c-3.6,4.2,1.4,4.9,4.2,6.8
		c-9.1,15,10.2,18.7-5,26.1"/>
	<path class="st3" d="M87.5,452c0.1,3,4.9,6,7.1,7.4l1.1-5.9c2.1,2.4,6.9-0.6,9.1-1.5l3.5,5c3.3-1.1,9.5-3.9,10.5-7.6
		c5.6-0.4,1.9,5.1,8.7,8.5c8.1,0.8,1.2,7.2-0.8,10.6c4.8-0.6,4.9,4.5,3.7,7.9c-3.1,1.4-7.6,5.8-9.3,8.7c3.1,4.1-0.8,12.1,3.7,15.5
		c1.5,0.7,6.4,2.5,6.9,4.4c4.4,8.3,3.2,22.7,10.3,29.9c-5.8,0.7-0.2,7.1,0.6,9.7c0.3,5.7,3.1,16.3-4.9,18c6.5,1.3,1.1,11.1,11.3,9.1
		l0.2-2.8c7.1,1.4,3.2-6.2,11.6,1.1c4.5,1.6,7.5-3.8,8.6-0.3c0.1,0.8-1.6,5.3,0,5.6c3.4,0.7,12.5,2.8,15.7,0.7
		c0.7-3.3,5.9-6.5,8.6-7.8c-0.9-5.9,9-12.2,11.4-3.6c5.4-2.8,7-16.1,6.5-21.4l5.1,1.8c-1.1-6.9,8.1-3.7,11.6-3.8l1,5.4
		c-5,2.6-0.8,7.4,2.4,9.4c-0.2,3-1.6,5.7,2.9,5.4"/>
	<path class="st3" d="M234.7,561.5c2.2,3.9,2.7,11.1-0.8,14.3c1,1.9,3.4,5.3,5.6,5.9c0.6,1.1,1.8,3.2,0.8,4.4l4.9,5.6
		c-5.5,3,4.2,3.3,6.1,3.5c0.1-1,0.1-2.8,1.4-3c4.4,4.6,5.5-0.2,11,0.7"/>
	<path class="st3" d="M263.8,592.8c5.4-22.1,9.2,6.2,19.5-11.5c4.4-3.7,17.9-10.5,19.8,0.1c1.4,0,5.8-3.8,5.8-0.4
		c4-1.2,2.7,5.5,3.3,7.4l8.2,12.2c-4.3,3-1.3,9.9,1.5,13.3"/>
	<path class="st3" d="M562,103c-1.6,1.4-10.3,4-7.6-0.2c3-3.2-4.3-5.4,1.2-5.1c3.7,6,5.6,5,10.7,2.8c-2.2,3.2,0.1,1.5-0.3,3.9
		C564.1,102.3,562.2,106.3,562,103z"/>
	<path class="st3" d="M569.2,111.6c-3.4-1.4-0.5-6.5,3-1.8c-0.1,0.8-0.8,1.3-1.6,1.2c-0.4,0-0.7-0.2-0.9-0.5
		C570,111.8,571.2,113,569.2,111.6z"/>
	<path class="st3" d="M549.8,144.4l0.5,0.9c-3.7-0.3-6.9-1.4-8.6-1.3c0.1,3.3-3.2,0.8-5.3,0.3c2.4-0.8,0.4-2.4-0.1-3.7
		c1.5-0.4,0.6-2.3-0.5-3.8c1.6-1.1,2.4,1.4,3.7,2c1.3-3.4,7.5-3.6,8.9-1.3c-3,1.6,0.5,1.4,0.3,2.8c2.9-1.6,3.6,2.4,5.9,0.6
		c-0.8,0.6-1.4,1.5-1.4,2.6c-3.4-0.3,0.7,1,1.5,1.9C553.5,147.5,551.3,145.2,549.8,144.4z"/>
	<path class="st3" d="M348.6,147.7c-0.4,0.7-0.9,1.4-1.4,2c-1.6,2.1-3.9,4.9-4.7,5.8"/>
	<path class="st3" d="M348.6,147.7c2.9,0.8,7.7,1.4,8.5,4.8c-0.1,0.9,0.7,1.4,1.4,1.8c1.2,2.1,5-0.3,4.5,3.2c0.4-1.7,2.5-2.6,4-3.4
		c0.4,0.5,1,0.8,1.6,1c0.2-1.3,1.6-1.8,2.2-2.8c1.3,0.4,2.7,0,3.5-1c1.9-1.1,3.2,1.2,3.9-2.2c-4.5-0.1-0.4-6.9,2.1-3.6
		c0.8-0.5,1.1-1,0.5-1.8c1.4,0.4,1.4-0.8,2.2-1.6c-2.2-0.8-3-0.8-2.3-3.6c-1.9-7.9,9-18.4,16.5-19.5c2,2.1,4.6-0.3,6.8-0.3
		c-0.2-1.3,1-2.6,0.9-3.9c3.9-3.9,9-8.1,14-10.4"/>
	<path class="st3" d="M500.8,156.3c2-2.7,0,6.7-2.3,7.1C497.7,160,500,158.1,500.8,156.3z"/>
	<path class="st3" d="M538.6,166.2c4.4,4.4-2.8,2.3-5.1,4.8C533.2,164.5,534.6,168.1,538.6,166.2z"/>
	<path class="st3" d="M517.8,166.8c-5.7-4.5-3.6-0.4-3.7-4.8c3.5-4.3,5.8-0.6,10.3-3.5c0.2-1.4,1.3-2.8,1.5-0.5
		c5.5-1.8,2.6-0.5,4,3.1c5.2-1.5-4.2,7.2,0.4,10.3C526.8,171.4,522.4,169.1,517.8,166.8z"/>
	<path class="st3" d="M552,169.9c-1.7,2.7-0.6,2.7-3.2,1.1c-1.1-1-2.2-2-3.1-3.1c0.6,4.2-3,3.6-5.4,3.7c-0.6-1.4-3.2,2.6-4.6-0.2
		c2.2-1.1,6.9-1.8,5-4.9C545.5,165.1,554.9,166.1,552,169.9z"/>
	<path class="st3" d="M507.3,180.4c-0.2-1.5-4.5-1.7-0.7-2.2c-0.5-2,3.3-2.5,4.5-0.2C510.5,179.4,505,183.4,507.3,180.4z"/>
	<path class="st3" d="M529,177.7c-3.2,4.4-9.7,11.2-8.3,0.2C525,175.4,524.7,178.4,529,177.7z"/>
	<path class="st3" d="M495.7,194.3c0.3-1-1.1-1.9-2-1.6c-1.9-2,4-5.6,5.3-2.6C498.5,192.4,495.1,198,495.7,194.3z"/>
	<path class="st3" d="M547.3,204.8c-0.3-2.5,4.9-5.6,3.7-2.9c-2.5,1.3,1,1.5,1.7,3c-1.9,0.2-4,0.6-1.8,2.6c-0.3,3.1-2.7,1.6-4.2,0.1
		C548.7,207,549.2,206,547.3,204.8z"/>
	<path class="st3" d="M486.1,205.9c-3.5,0.6,0.6-2.6,0-4.4c-1.7-1.7-0.5-9.2,1.4-7.8c2.6-2.4,3.9,2.6,4.6,3.9
		C500.7,197.4,488.6,217.5,486.1,205.9z"/>
	<path class="st3" d="M501.4,183.6c16.2,4.2,8.1-6.4,21,6.1c0.2-2.9,5,0.8,2.4,2.5c3.7,3.6,2.8-0.7,6.1-1c-0.9,1.5,1.1,4,2.8,3.1
		c-0.6,0.6-0.7,2.4,0.5,2c-0.8,1.2,1.9,1.4,1.7,0c3.9,0.1,4.3,7.5,7.5,5.7c-3.7,13.1-4.7,14.2-17,5.2c-5.6,0.5-11.7-5.8-16.9-1.8
		c-4,1.6-5.1-6.5-8.1-8.7c2.2-3.7,0.3-7.5-1.2-11C493,182.4,500,174.6,501.4,183.6z"/>
	<path class="st3" d="M544.1,222.9c-1.8-2.7-1.7,2.6-4.1-0.5C531.3,224.8,541.7,229.5,544.1,222.9z"/>
	<path class="st3" d="M545.3,213.2c-1.6-4.3-0.6,1.8-3.5,0.9c0.3,4.2,5.1,2.5,6.2,7c-1.8,0.3,0.7,2,0.2,3.1
		c-0.1,0.1-0.2,0.2-0.3,0.3c-2.8-1.5,0.3,3.4,0.7,4.4c5.6,2.1,1.8-2.3,1-4.7c1.8-2.8,5,1.5,2.5-2.6c4.3,0.1,0-1.9,2-3.3
		c-3.8-0.1-3.7-2.1,0-2.1c-2.4-0.6-1.3-2.8-3-4C551,215.5,546.2,210.4,545.3,213.2"/>
	<path class="st3" d="M497.7,237.2c2.1-2.9,6-7.1,10-6.1C507.4,236.7,500.4,240.9,497.7,237.2z"/>
	<path class="st3" d="M535.4,236.4c-11-9.4-2.1-12.3,5.5-5c-6.8-0.6,1.3,1.6-1.7,2.6c0.9,3.9,2.8,1.4,1.1,4.8
		C538.2,236.7,537.5,237.2,535.4,236.4z"/>
	<path class="st3" d="M537.5,242.5c1.7-4.6,2.8,5.6-3.1,0.8c-1.7,1.8-6.1-5.4-5-6.5C536.7,236.2,529.3,241.1,537.5,242.5z"/>
	<path class="st3" d="M505,244.2c0-1.4-0.7-3.3,1.2-3.5C511.4,237.1,505.7,247.8,505,244.2z"/>
	<path class="st3" d="M535.8,249.8c4.1,2.3-9.3,1.2-8-3.7C530.8,246.3,531.5,250.9,535.8,249.8z"/>
	<path class="st3" d="M517.3,245.8c-3.5-0.4-3.8-2.9-7.1,0.6c-2.2-0.7,0.7-3.4,1-4.7c1.3-6.9,2.1-3.3,6.7-6.7
		c1.4,2.3,1.2,11.2,5.9,9.4c2.7,2.9,5.6,7,0.8,10.4c0.5-5.5-4.2,2.8-1.8-2.9c-1.9-1.2-1.8,2.2-3.4,1.2c1-1.8-1.7-0.3,0.6-3.4
		C513.7,248.1,518.4,248,517.3,245.8z"/>
	<path class="st3" d="M342.5,155.5c2,6.8-0.1,15.9,6.3,20.9c0.1,3.1-0.3,6.9-2.6,9.3c0.4-0.2,0.8-0.3,1.1-0.4
		c6.2-1.9,12.1,2.6,18.6,2.3c3.5-3,7.8-5.1,12.1-7.2c4.9-2.4,9.9-4.9,13.8-8.8c8.1-6.8,18.4-14,29.5-11.9
		c22.8,3.3,39.9,56.1,50.9,50.6c3.9,0.3,8-2.2,11.5,5c3.5-1.6,33.2,3.1,36,4.5c-1.1,8.6-17,8.3-21.9,16c-4,1.8-14,11.8-20.2,22.1
		c-2.9,1.4-4.7,9.1-8.4,5.7c-0.3,1.6-9.2,7.2-12.1,8.5c-1-0.3-2.7-2.4-3.4-0.9c-2.5,1.3-2.9,5.5-5.7,5.4c2.2-10.4-8.1,3.7-10.1,4.7
		c-0.3,2.8,2.1,5.4,1.5,8.7c4.4-0.2,3.3-13.7,8.1-10c-1.6,2.1,7,11.2,4.3,3.7c1,1.5,1.6-1.5,2.3-1.9"/>
	<path class="st4" d="M508.6,325.5c-1.9,4.2-5.7-1.1-0.1-2.6c-0.6-0.4-2.4-4.9,1.7-2.7c-0.4,0.8-0.7,1.7-0.8,2.6
		c0.1,0.9,0.8,1.4,3,1C511.7,324.8,509.4,327.6,508.6,325.5"/>
	<path class="st4" d="M480.4,329.1c1.9-1.5,4.8,1.3,8.3-0.1c-0.8,1.9-0.1,3.1,1.9,3.6c-0.9,0.2-3.6,6.3-5.2,2.4l-0.5,1.1
		c-3.3-6.7-6.4-0.5-6.4-4.7C479.6,329.7,477.9,325.3,480.4,329.1z"/>
	<path class="st3" d="M494,334.8c-0.7-1.9-3,0.1-2.7-3c-4-1.5-0.2-3.5,1.1-5.3c3.6-4.6,10.7-1.8,8.4,2.8c4.8,2.1-3.6,6.8,0.9,7.8
		c-1.3,0.1-3.6,3.8-1.6,3.8c-5,2.8-2.1-2.8-7.8-2.1C495.7,335.8,492.9,337.3,494,334.8z"/>
	<path class="st3" d="M453.9,281.6c6,0.2,19.4-14.5,19.5-7.8c1.8-0.8,2.8-1,3.4-0.8c2.1,0.7-3.5,7.3,2.1,9.2c5.2-3.6,3.4-8.3,9-10.1
		c-3.5-0.8-7.3-2-11.5-1.2c-0.6,0.1-1.3,0.3-1.9,0.5c0.7-4.8,6.2-8.2,9.4-10.3c2.6,3,9.3-3.2,11-4.4c1.2,2.4,2.1,0.7,3.8,1.7
		c-1.6,1.4-0.1,4.3,1.7,1.9c1.5,1.2,0.4,3.8,2.8,2.9c0.6,2.6-6.2,6.4-4,8.9c-2.3-0.2-4.1,5.1-0.7,9.3c1-1.6,3.6,8.5-2.4,6.5
		c-2.5,3-1.8,13.5,2.4,12.5c-1.1,4.1-1.8,6.8-3.4,8.9c5.8,3.7,5.6-2.2,8.5,0c-1.3,2.4,0.7,2.4-3.3,2.4c0,0,3.3,6-0.6,6.9
		c-0.4-4.1-7,6.8-11.3,6.6c-3.8,2.9-4-4.1-7.5-4c7.4-9.4-1.5-7.4,4.3-14.6c-2-2.3-9.2-0.9-6.4,2.8c-1.2,6.1-3.7,15.2-7.4,10.6
		c0,0-6,5.1-7.2,3.2c-0.6-4,0.1-13.7,0.1-13.7s4.3-10.2-1.6-2.6c-3.4-4-2,16.7-2,16.7c-5.4-0.5-13.2-0.4-15.2,3.2
		c-2.3-9.2,0.8-3.2-3.7,0.7c-0.4-1.2-1.1-0.5-1.5,0.5l0,0c-0.5,1.2-0.4,2.7,1.4,1.7c-7.2,12.1,15.2-0.4,21.4,5.4
		c-4.8,0.2-1.3,11-0.2,7.6c5.1-3.1-1.6,7.3,3.7,1.7c1,2.2,1.7,1.5,4.2,3.4c-3.1,0.6-4.4-0.3-3.4,3.9c-2.9-2.1,3.3,3.9,2.7,5.9
		c6.1-2.8-1,6.4-3.7,4.3c-1.7,3.3-4.7-1.2-6.8-2.4c-5.5,5.5-8.1-9-11.8-1c4,1.1-2,3.1,7.1,5.9c0.8,1.4,3.1,0,3.8-0.6
		c2.4,3.8,4.2,2.1,3.2,6.8"/>
	<path class="st3" d="M417.6,476.7c0.9-1.4-1.7-9.1,2.8-8.7c-2.3-3.6-4.9-6.2-8.9-3.3c1.3,4.1-4.4,10.2-8.7,9.5
		c1.3,4.7,2.3,9.4,3,14.2c2.6-1.5,4.9-0.2,8.3-2.9c-3.9-1.4,0.9-1.5,2,0.6c2-2.8-4.4-4.9,1.4-3.5l0.3-1c1.3,1.7,1.4,1.9,3.8,2.2
		c-0.7-1.4-2.4-2.6,0.3-2.8C421.7,474.5,420.2,482.9,417.6,476.7z"/>
	<path class="st3" d="M375,501.1c9-3.2-1.9-6.3-4.8-3.4C371.6,498.9,373.2,500.7,375,501.1z"/>
	<path class="st3" d="M461.8,370.7c4.2,1.2,6.5-4.5,3.4,2.4c5.9,1.6-2.9,2.6-1.3,5.9c2.5-3.1,4.8,2.1,1.6,1
		c-9.9,12.8-28.8,18.5-11.5,39.6c4,7.5-4.1,7.2,3.1,15.7c1.8,2-1.6,5.6,0.7,6.8c3.7-1.5-0.4,5,6.3,0.6c1.7,2.3-3.1,4.8-1.7,10.4
		c-5-0.7,0.5,5.1-5,4.2c-4.1,4.7,6.1-11.4-14.9-12.1c-5.2,4.2,2,3.3-3.1,6.2c-6.8-5.2-6.1,2.2-0.5,4.3c-3.4,4-10.5,7.3-7.8,12.3
		c7-5.8-5.3,12-2.8,4c-1.2,0.9-5.4-3.7-6.4-5.9c-6.9-3.4-1.2-14.5-6-16.2c-8.8-4.1-3.9-5.4-4.6-9.3c-0.1-0.5-0.3-1-0.5-1.5
		c0.7-3.3-9.4,12.2-9.4,13.7c-3.4-0.3,3.3,1.9,0.4,10.7c-1.6,0.1-4.4,3.1-2.1,4.1c-1.8,4.2-1.4,0.6-3.4,2.6c-4,2.2-7.5,4.4-9.4,9
		c1.1,4.9,0.3,11.8-3.7,15.7c3,5.1-6.8-1.2-9-0.6c-9.4,0.7-8.7,2.3-4.5,7.9c9.7,0.7-14.4,32.3-18.9,34.4c-4,4.8-0.1,7.7-2.2,12.3
		c-1.7,3.7-6.8,2.1-7.8,4.9c-1.4,10.2,4.3,12.2,10.6,15.4c-9.5,9.3,0.4,17.7-8.4,16.5c0-8.6-3.3,1.2-4.7-4.3
		c-1.4-0.7-3.8,8.9-7.8,7.8c0.6,2.8,4.5,0.3,3.9,3l1.4-0.2c-0.2,3.4-1.8,1.8,1.4,3.8c-3,2-8.5,5-3.4,7.3c-0.6,4.6-2.5,1.8-3.2,4.4
		c1.6,2.5,1.2,2.3-1.4,3.6c-5.3,7.9-2-3.6-5-4.7c-3.9,2.6-3,2.6-2.1,7.4"/>
</g>
</svg>
