<svg id="图层_1" data-name="图层 1" xmlns="http://www.w3.org/2000/svg" viewBox="0 0 650.78 650.78"><defs><style>.cls-1{fill:#7e1c1f;}.cls-1,.cls-2,.cls-3,.cls-4,.cls-5{stroke:#545555;}.cls-2{fill:#fffcd1;}.cls-3{fill:#1a1a1a;}.cls-4{fill:none;}.cls-5{fill:#00344e;}</style></defs><title>浙江</title><path class="cls-1" d="M332.54,140.61a7.31,7.31,0,0,0-7.47,0c-7.31,3.78-13.26-1.63-15.42-3a17,17,0,0,0-5.14,6c-1.9,3.79-14.89,11.91-21.11,7.31s-28.14-21.65-24.62-4.6,2.16,17.86-9.2,8.66c0,0-4.87-2.17-9.47,3-3.91,4.37-13.86,3.85-16.27,3.27a6.22,6.22,0,0,0,2.81,1.69s3.07,4.19-7,5-10.6,4.19-15.35,10c0,0-3.9,3.9-8.08-1.12s-5-2.23-7.82.56-3.34-3.07-3.34-3.07-1-3.12-4.46.84c-2,2.23-6.7-3.63-6.7-3.63s-9.49-1.67-9.21,9.49-.28,8.36,3.07,11.43c0,0,1.68,3.07-3.35,5.86s-1.67,4.74,1.12,5.58-1.67,5.58-1.67,5.58,15.34,17,2,22c0,0,1.67,12-6.42,10.32-5.3-1.12-8.09,16.46-4.74,17.85,0,0-5.3,17.85-13.39,12.83s-18.41,16.74-18.41,16.74-11.16-2.23-10.88,8.37c0,0,1.08,3-2.58,2,1,1.92,6.08,10.05,20,12.85,12.21,2.44,10.47,13.95,10.47,13.95s5.58,19.55,19.89.7,20.59-13.61,25.48-2.09l1,1.39s15.35,5.94,25.12-7.32c0,0,5.16-.86,5.87,0l.13.34c.54,0,4.15-.16,4.47-10.82l.7-3.49s10.12-10.82,15-7,7.33,4.18,7.33,4.18,4.63,3,15-7.33c7-7,10.12-5.93,10.12-5.93l.35-1.74-.35-12.57,14.31-18.14s23,3.49,6.28-9.77c0,0-1-3.5,6.28-2.8s7.68-1.39,7.68-1.39v-.1l-.46-10s10.82,0,22.19-14.88l10-.55s4.6-1.89,2.71-14.61.54-18.39,14.88-20l7.84.81,13.5.37v-.06l0,.05A12.22,12.22,0,0,1,371.1,169v-8.38s-7.85-1-13.08,0-11.52,1.58-16.23,11.52c0,0-7.86,4.71-16.75,4.19,0,0,4.71-6.28,12.56-5.76l3.14-4.19,1.57-4.18,1.54-3.46-.48.2s-7-1.62-6.76-14.34a11.58,11.58,0,0,0-3.46-3.82Z"/><path class="cls-2" d="M574.43,185.78c-8.38-4.19-18.33-10.47-18.33-10.47l-9.94-4.19L542,172.7h-2.62l-5.76-2.62-2.09-1.57a7.42,7.42,0,0,0-2.15,3.31v0s5.85,15.9,12.29,20.46l0,.09c1.72.39,2.9.72,2.9.72l8.9-1.57,12,3.67,7.33,1.56S582.8,190,574.43,185.78Z"/><path class="cls-3" d="M484.34,261.94l4.74,1.68s.56,1.39,10-1.68,12.28-7.53,14.23-12.55,7.54-10.6,9.77-12,3.62-6.7,3.62-6.7l6.14-5.58,14-7.53,8.47-6.89L554,207.13s-12.18,4.25-22.65-1.13a36.26,36.26,0,0,0-9.63-1.14c-4.25.29-7.37-4.25-7.37-4.25H502.45c-1.13,0-5.95-6.22-12.74-8.49,0,0-11-13.31-15.86-23.51,0,0-22.66-19-37.1-5.94l-29,20.67.18.21,8.55,10.26s6.57,4.34,4.88,17.45c-.44,3.48,10.82,10.12,10.82,10.12s2,2.46-3.68,9.82-3.68,16.71,6,18.69a8.91,8.91,0,0,1,4,7.65s16.71,3.11,15,14.72-2.13,14.12-6.59,16.13l.11.18.69,13.77,1.74,5.24,8.38,6.63c3.84,8.38,12.91-.35,12.91-.35,11.17,7,14.66,4.89,14.66,4.89h.09V318l-1.39-.27-.28-2.52,3.91-.27,1.95,1.67,1.95-1.67v-2.79l1.68-2.24v-2.79l-.84-1.67v-2.23l3.62-4.19s2.24-1.11,3.35-.55a2.71,2.71,0,0,1,1.4,1.39l1.12,3.91,1.95,6.13,1.11-1.67V304.9l-.28-2.51-.83-4.46v-2.79s4.18-3.07,3.9,3.35-.55,9.2-.55,9.2-1.68,7,10.32,1.4l2.51-3.91-.28-21.2s2.51-3.35,2.79,2.23l3.62,2.51s2.79,2,1.12,8.93-1.39,13.11,3.91,13.11c0,0,6.13.84,13.38-13.39,0,0,.56-2.51-6.13-2.51,0,0-3.91-2.23.56-6.7,0,0,.83-3.34-1.4-3.9,0,0-4.74-4.74.84-9.48s3.62-7.81.84-10.33a26.24,26.24,0,0,1-4.47-5.3s-.28-2.78,4.47-4.18,2-9.21-2.52-9.49-10.88-1.39-18.41,8.37-12.27,14-20.92,14.79c0,0-5.3.56-5.3,7.25s-4.18,8.37-6.42,7,2.51-5.57,2.51-5.57,3.35-5.58-2.51-4.75l-6.13,7.54h-1.4V274.5Z"/><path class="cls-3" d="M456.17,481.2l-5.86,3.63-6.14-.84-1.39-3.62,1.67-3.07.56-14.23,9.21-3.63s4.65-6,4.19-10.48l0,0c0-5.75-6.17-6.77-6.17-6.77-8.3-1.47-1-2.93-1-2.93l4.4.49c8.78-7.33,7.32-18.07,7.32-18.07l-1.47-12.7c-3.9-22.46-18.06-1.95-18.06-1.95a31.9,31.9,0,0,0-13.67,1.47c-6.84,2.44-8.79,0-8.79,0-11.23-26.37-29.3-3.91-29.3-3.91L387.28,407l-6.35.49-5.86-3.91c-10.25-6.34-7.33,7.82-7.33,7.82l-1,2.93-4.4,4.39c-9.27,13.18-1,19.53,4.4,22.95s1.46,28.32-7.33,41S341.38,490,341.38,490c-5.86-2-11.72.49-11.72.49-3.42,3.9-10.74,1-10.74,1-13.67-5.86-18.56,8.3-18.56,8.3l-3.42,7.81c-.48,3.42-5.37,9.28-5.37,9.28s-2.44,4.88-9.27,10.75-4.89,11.71-4.89,11.71l-.09.51c.29.16.57.33.87.53,0,0,21.48,45.47,26.78,47.7s11.44,3.35,22.32-7c0,0,13.39,5,17.29-5.86,0,0,1.68-5,11.72-5.3s13.67.56,13.67.56,2.23.56,1.4,6.7c0,0,11.15,1.11,11.71,12s.84,12,.84,12l1.11-.27s-.55-7.54,3.91-4.19c0,0,3.35,10.33,7.25-2.79v-6.13s10.32-5.59-.27-10.33c0,0,2.23-12,7-6.41,0,0,6.13,5.86,7.25-1.95v-8.37l-3.07-4.19-2.51-3.34-1.95-.84-1.12-2V547s-13.39-5.58,3.63-6.7l3.63-5-.56-10.6s.28-2.79,6.41-2c0,0,3.23-.83,5.86-10,1.68-5.86,5.86-6.42,5.86-6.42l3.63-5v-5.86s-7.53-6.69-13.11-6.42l-3.91-1.67-6.14-8.09,1.68-.56h8.37l5.85,5.3,12.84.28,8.92,4.74,15.07-1.39S466.49,480.93,456.17,481.2Z"/><path class="cls-4" d="M155.47,465.67s9.77-17.1,4.18-29.31,7.68-13.61,10.13-13.61,7.67-.7,12.56-9.08,11.86-19.19,11.86-19.19A18.47,18.47,0,0,1,204.67,392s18.15-5.93,21.64-12.21a13.57,13.57,0,0,1,10.12,1.05c4.89,2.79,6.63,3.14,6.63,3.14s7.33-2.1,5.93,6.63,0,11.87,0,11.87,3.14,13.26,15.36,13.26,16,.35,20.94-10.82l8.38-6.63,1.74-4.19,1-10.12s.69-7.33,13.26-6.63,27.57,2.44,29.66-8.73,8.38-15.35,15.36-6.28c0,0,1,2.79,11.51,2.09a18,18,0,0,0-11.86,17.8c.35,14-6.63,22.69-6.63,22.69s1.4,8.37,15,12.91"/><path class="cls-3" d="M511.68,439.36l3.9-.28s8.65-12.27-.56-13.39h-3.34l-5.86-17.85,2.23-2.51-3.35-2.79-3.62-6.7A21.1,21.1,0,0,0,491,382.17s0-5,9.77-2.79c0,0,2.79-3.62,1.39-5.57,0,0,8.09,1.11,8.65,1.95A16.58,16.58,0,0,0,512,368s11.15-8.93-2.51-10.05v-5.85l-9.49-1.4s-10-7-1.39-7.25l3.9,2.79,8.09,1.11s14.78,3.07,1.95-9.48l.56-1.95s5-5.58-3.07-5.86l-5,3.35-3.62,1.39-3.07,1.95-1.67-1.39.27-3.91h6.7s6.14-5.86,0-8.64a18,18,0,0,0-17.3,1.11l-.84-1.39v-3.73h-.09s-3.49,2.09-14.66-4.89c0,0-9.07,8.73-12.91.35l-8.38-6.63-1.74-5.24-.7-13.95s-15,9.42-28.62,8.72c0,0-4.19,3.49-4.89,6.28l-9.07,2.45-.7,1.74s-14.3,4.89-7.32,12.56-9.78,44-30,44.32h-.06a17.93,17.93,0,0,0-11.8,17.79c.35,14-6.63,22.69-6.63,22.69s1.39,8.37,15,12.91l.39.06,3.62-3.61,1-2.93s-2.93-14.16,7.33-7.82l5.86,3.91,6.34-.49,4.4-2.44s18.07-22.46,29.29,3.91c0,0,2,2.44,8.79,0A32,32,0,0,1,443.53,407s14.15-20.51,18.06,1.95l1.47,12.7s1.46,10.74-7.33,18.07l-4.39-.49s-7.32,1.46,1,2.93c0,0,6.14,1,6.17,6.74.85.34,8.57,3.51,8.84,6.94a5.15,5.15,0,0,1-3.91,3.35s-5.86,1.95-2.23,7l2.51,6.14s18.41.27,13.67-9.21l-3.63-3.35L474,455l-.28-2,2.23-1.12,2.52.84,3.34,3.91,6.14,1.11,1.67-2.79.56-2.23-1.39-1.4-1.4-.83-.56-1.68.28-2.51a8,8,0,0,0,4.74-8.92s.28-6.14,5.58-5.86,10.88.28,10.88.28Z"/><path class="cls-3" d="M366.69,441.79c-5.37-3.42-13.68-9.77-4.4-23l.39-.84c-13.61-4.54-15-12.91-15-12.91s7-8.73,6.63-22.69a18,18,0,0,1,11.86-17.8c-10.47.7-11.51-2.09-11.51-2.09-7-9.08-13.26-4.89-15.36,6.28s-17.1,9.43-29.66,8.73-13.26,6.63-13.26,6.63l-1.05,10.12-1.75,4.19-8.37,6.63c-4.89,11.16-8.73,10.81-20.94,10.81s-15.36-13.26-15.36-13.26-1.39-3.14,0-11.86-5.93-6.63-5.93-6.63-1.75-.35-6.63-3.15a13.6,13.6,0,0,0-10.12-1c-3.49,6.28-21.64,12.21-21.64,12.21a18.47,18.47,0,0,0-10.47,2.45s-7,10.82-11.86,19.19-10.13,9.07-12.57,9.07-15.7,1.4-10.12,13.62-4.19,29.31-4.19,29.31l-1,1.13a12.25,12.25,0,0,0,3.83-3.87c3.91-5.86,17,8.37,17,16.74s-5.58,12.83-6.42,13.95-6.67,11,8.37,19.52c6.41,3.63,10.88,24.27,10.88,24.27l1.11,13.67,4.75,5.3a6.27,6.27,0,0,1-3.63,7s-5,10.32,8.37,10.6l16.18-2.24s6.42-.83,12,6.42,17-2.79,19.24-7.25l5.58-11.16,7.53,2.79s6.7-1.4,5.86-7c0,0,2.38-21.36,12.25-15.87v-.38s-1.95-5.86,4.88-11.72S291.49,517,291.49,517s4.88-5.86,5.37-9.28l3.42-7.81s4.88-14.16,18.56-8.3c0,0,7.32,2.93,10.74-1,0,0,5.86-2.45,11.72-.49,0,0,9.27,5.37,18.06-7.33S372.06,445.2,366.69,441.79Z"/><path class="cls-3" d="M226.34,379.77s-12.21-28.21-5.58-38.68c0,0,4.54-7.67-3.14-10.81V319.45s4.18.7,4.53-10.81l.7-3.49s10.12-10.82,15-7,7.33,4.18,7.33,4.18,4.64,3,15-7.33c7-7,10.12-5.93,10.12-5.93l.35-1.74-.35-12.57,14.31-18.14s23,3.49,6.28-9.77c0,0-1-3.5,6.29-2.8s7.67-1.39,7.67-1.39,5.94,2.79.7,12.21,5.59,19.55,7.68,20.24,9.42.7,15.7-1.05,7,1.75,7,8.38,9.08,1.4,12.92-.35,13.26-6.63,18.49,1.4S373.61,295.72,389,295s16.07,5.52,15.37,10.76v.06l-.7,1.75s-14.31,4.89-7.33,12.56-9.77,44-30,44.32h-.19c-10.47.7-11.51-2.09-11.51-2.09-7-9.07-13.26-4.88-15.36,6.28s-17.1,9.42-29.66,8.73S296.31,384,296.31,384l-1.05,10.12-1.74,4.19L285.14,405c-4.89,11.17-8.73,10.82-20.94,10.82s-15.36-13.27-15.36-13.27-1.39-3.14,0-11.86-5.93-6.63-5.93-6.63-1.74-.35-6.63-3.14a13.5,13.5,0,0,0-9.84-1.13Z"/><path class="cls-3" d="M226,380l.11-.19s-12.21-28.21-5.58-38.68c0,0,4.54-7.67-3.14-10.81V319.45l0-.13c0-1.21-5.94-.22-5.94-.22-9.77,13.26-25.13,7.33-25.13,7.33l-1.05-1.4c-4.88-11.52-11.17-16.75-25.47,2.09s-19.9-.69-19.9-.69,1.75-11.52-10.47-14c-14.19-2.84-19.18-11.2-20.08-12.94a18.13,18.13,0,0,1-3-1.32c-4.18-2.23-5,8.92-5,8.92s-4.18,2.52-7,2.24c0,0,0,20.64-12.83,18.69,0,0-5.58,1.95-1.4,8.92,0,0-18.69,6.7,4.46,32.36l11.44.28v10l7.53-.28s3.91,13.11,11.72,14.23l9.21,16.18-.28,10.88,5.86,13.67-.28,12.27s7.53,10.88-1.12,15.9c0,0-1.37,19.48,9.76,6.42,8.09-9.48,12-1.12,12-1.12a5.24,5.24,0,0,0,3.63-.67l.13-.2s10.75-18.23,5.17-30.44,7.67-13.62,10.12-13.62,7.67-.69,12.56-9.07,11.86-19.19,11.86-19.19a18.47,18.47,0,0,1,10.47-2.45S222.52,386.24,226,380Z"/><path class="cls-4" d="M554,207.13s-12.18,4.25-22.65-1.13a36.26,36.26,0,0,0-9.63-1.14c-4.25.29-7.37-4.25-7.37-4.25H502.45c-1.13,0-5.95-6.22-12.74-8.49,0,0-11-13.31-15.86-23.51,0,0-22.66-19-37.1-5.94l-29,20.67"/><path class="cls-3" d="M305.39,254.88c-5.23,9.43,5.59,19.55,7.68,20.24s9.42.7,15.71-1,7,1.74,7,8.37,9.08,1.4,12.92-.35,13.26-6.63,18.49,1.4,6.28,12.21,21.64,11.51c15.13-.68,16,5.4,15.39,10.59l0,.24,9.07-2.45c.7-2.79,4.89-6.28,4.89-6.28,13.61.7,28.61-8.72,28.61-8.72l.12-.06c4.35-2,4.78-4.55,6.47-16.07s-15-14.72-15-14.72a8.91,8.91,0,0,0-4-7.65c-9.62-2-11.61-11.33-5.94-18.69s3.68-9.82,3.68-9.82-11.27-6.64-10.82-10.12c1.69-13.11-4.89-17.45-4.89-17.45l-8.72-10.47c-5.24,6.63-19.9,3.49-19.9,3.49s-1.74-7.33-4.88-4.19-7.5,1.05-7.5,1.05l-13.5-.36-7.85-.82c-14.34,1.63-16.78,7.31-14.88,20s-2.71,14.61-2.71,14.61l-10,.55c-11.36,14.88-22.19,14.88-22.19,14.88l.46,10.1S310.63,245.46,305.39,254.88Z"/><path class="cls-3" d="M574.43,185.78c-8.38-4.19-18.33-10.47-18.33-10.47l-9.94-4.19L542,172.7h-2.62l-5.76-2.62-2.09-1.57s-3.14,2.61-2.09,5.75.52,10.47-1,10.47-6.28-1-7.85,0-2.62,6.81-2.62,6.81l-4.19,3.67-18.84-20.42-35.6-38.22S443,132.39,439.89,134s-11,12-14.13,14.13-18.32,17.28-18.32,17.28S393.3,171.12,386.5,168l-10.78,15.4v.31s4.36,2.09,7.5-1.05,4.89,4.19,4.89,4.19S402.77,190,408,183.34h.14l29-20.67c14.45-13,37.1,5.94,37.1,5.94,4.82,10.2,15.86,23.51,15.86,23.51,6.8,2.27,11.61,8.49,12.74,8.49h11.9s3.11,4.54,7.36,4.25a36.26,36.26,0,0,1,9.63,1.14c9.81,5,21.1,1.63,22.51,1.18l-2.28-4.65s-10.47-1-12-1-3.67-3.67-6.81-3.67-11.52,2.62-11.52,2.62V197.3s5.24,0,6.81-4.19,16.23,0,16.23,0l8.9-1.57,12,3.67,7.33,1.56S582.8,190,574.43,185.78Z"/><path class="cls-3" d="M333.36,140.81a11.58,11.58,0,0,1,3.46,3.82c-.27,12.72,6.76,14.34,6.76,14.34l.48-.2.56-1.26s8.9-5.23,14.66-4.18l7.85-2.1s9.25-.35,14.13,2.45,8,8.72,19.54.69l3.48-3.45s-1.39-5.86,5-4.74l.56-2-.56-1.67v-1.4l-1.11-.83v-4.74s5.85-14.51,13.94-14.23a9,9,0,0,0,9.49-7s-.28-7.54,15.34-7.54c0,0-3.62-.27-5-7.53s-8.37-6.41-14.23-5.58L426,92.34s2.41-14.6-10.88-3.35c-7.25,6.14-5.58-16.18-5.58-16.18s3.07-11.16-11.71-6.69-26.51,1.95-19.81,15.06-5.86,8.65-5.86,8.65-7.81-.84-13.67,7.53c-3.69,5.27-7.16,5-9.71,2.2l0,.2s4.19,7.68-4.36,12.39-15.53,4.88-11.34,28.27Z"/><path class="cls-5" d="M325.28,140.64a7.33,7.33,0,0,1,7.48,0l.15-.13c-4.19-23.38,2.79-23.56,11.33-28.27s4.37-12.39,4.37-12.39a2.92,2.92,0,0,0,.24-.22,16.79,16.79,0,0,1-3.43-7c-1.95-7.54.56-10.05-8.93-6.42,0,0-6.69-8.93-15.34-2.23,0,0-29.29-1.4-38.5-26.22,0,0-4.74-17.3-11.15-1.4,0,0-6.42-3.9-8.65-5.3s-5.86,1.68-7,5c0,0-9.2-7.25-8.36,6.7,0,0-1.4,10.88-3.63,15.06l-1.4,19.25s1.12,9.49-11.43,13.11c0,0,6.69,23.71-10.6,13.67,0,0-3.35,1.12-4.47,6.14l-8.37.83s-6.69,10.6,4.75,13.39c0,0,9.76-7.81,8.65,4.74-.62,7,1.25,10.5,3,12.26,2.41.58,12.36,1.1,16.27-3.27,4.6-5.14,9.47-3,9.47-3,11.37,9.2,12.72,8.38,9.2-8.66s18.4,0,24.62,4.6,19.21-3.52,21.11-7.31a17,17,0,0,1,5.14-6C312,139,318,144.42,325.28,140.64Z"/></svg>